<?xml version="1.0" encoding="UTF-8"?>
<svg id="Layer_1" data-name="Layer 1" xmlns="http://www.w3.org/2000/svg" viewBox="0 0 1000 330.48">
  <path d="M58.6,275.13c-1.14-.55-2.44-.43-2.64-.2-2.89,1.79-16.94.88-20.38-.99-.69-.37-2.01-.47-2.44-.43-.65.06-.9-.35-.92-.57-.04-.43-.71-.59-1.14-.55-1.3.12-9.36-7.01-11.37-9.88-5.82-8.86-5.52-22.41,1.02-29.77,3.7-4.92,10.08-6.8,13.95-4.97,2.77,1.71,6.59,5.29,6.41,5.75-1.18,1.42-2.54.88-3.99-.73-2.14-1.99-5.57-3.64-8.75-2.7-2.97.92-6.79,4.54-9.39,9.58-1.71,5.17-2.09,13.06,1.53,19.28,5.39,8.89,11.84,12.67,19.81,13.92,5.33,1.04,15.72.1,22.08-2,4.21-1.69,12.53-6.15,13.54-7.12-.04-.43.77-1.16,1.83-1.47,1.24-.77,2.44-1.97,2.42-2.18.59-.71,6.18-6.45,6.61-6.49.22-.02,3.01-2.89,7.95-8.57,1.56-2.1,2.76-3.3,3.4-3.36.65-.06.81-.73.79-.94-.04-.43.53-1.36,1.52-2.54,2.03-1.71,17.64-22.11,24.17-31.86,2.15-2.81,4.39-6.94,5.53-8.79,1.34-2.08,2.46-4.15,3.05-4.86.41-.26,1-.96.96-1.4-.02-.22,4.94-10.48,5.75-11.21l1.06-2.71c.55-1.14,1.12-2.07,1.56-2.1,0,0,.1-1.32.04-1.97-.04-.43-1.42-1.18-4.27-1.36-21.74-1.52-38.13,5.41-44,17.73-1.73,2.56-.93,6.63-.28,6.57.65-.06.91.35.92.57.04.43-.83.51-1.48.57-1.3.12-1.83-.93-2.12-4.17.22-4.82,6.03-12.98,12.91-16.44,9.72-5.9,18.95-7.61,34.77-6.42,5.27.4,5.71.36,6.28-.57.16-.67.53-1.36.49-1.79-.02-.22.1-1.32.53-1.36,0,0,.75-1.38,1.26-2.95l3.84-8.2c.59-.71,1.71-2.77,2.68-4.17.47-2.01,1.6-4.07,2.99-5.51.93-1.83,1.46-3.19,1.44-3.4-.04-.43.18-.45.61-.49.22-.02.63-.27.59-.71-.06-.65,4.47-8.48,5.08-8.97.22-.02.63-.28.59-.71-.02-.22,4.05-5.82,8.35-11.45,5.75-6.41,11.99-12.21,16.32-15,1.02-.75,3.11-1.81,5-2.63,1.24-.77,3.56-1.63,4.15-2.34,3.4-.96,9.74-.88,12.69.38,2.71,1.06,4.94,3.92,4.42,5.49-.41,2.66-3.01,2.89-2.56.67.34-1.12-.16-1.73-1.59-3.13-.92-.57-2.07-1.12-2.7-.85-.22.02-1.91.61-3.21.73-3.23.51-8.19,3.58-12.5,6.59-4.25,3.66-11.22,13.45-14.61,19.43-.69,2.03-1.28,2.73-2.87,4.41-.16.67-.55,1.14-.53,1.36.04.43-.71,1.81-1.81,4.09l-4.49,8.26-3.37,6.2-1.08,2.5c.02.22-.89,2.26-2.28,3.7-3.27,7.28-6.04,12.77-6.03,12.98.04.43,4.92,1.3,11.98,2.19,8.01,1.68,14.72,1.07,18.83-1.7,3.33-1.83,6.87-6.08,6.75-7.37-.1-1.08,1.79-1.91,2.5-1.32.71.59-1.22,3.38-3.39,5.98-.75,1.38-3.6,3.6-5.47,4.64-6.49,2.99-13.67,3.2-28.98.44-4.66-.89-3.94-.08-6.57,4.52-.53,1.36-1.28,2.73-1.28,2.73-.43.04-.63.28-.59.71.08.87-7.27,13.75-10,17.27-.2.24-.57.92-.53,1.36.02.22-.16.67-.59.71-.22.02-1.12,2.07-2.28,3.7-1.12,2.07-2.42,4.58-3.01,5.29-.96,1.4-3.86,5.59-5.18,7.89-.39.47-1.56,2.1-2.36,2.83-.55,1.14-1.55,2.1-1.55,2.1.22,2.38-19.92,25.8-21.87,25.98-.22.02-.81.73-1.83,1.47-.57.93-1.38,1.65-2.03,1.71-.43.04-1.2,1.2-2.42,2.18-3.46,2.71-10.39,8.14-11.47,8.24-.87.08-1.3.12-1.26.55.02.22-1.18,1.42-2.64,2.2l-6.04,3.17c-2.7,1.55-8.83,3.64-13.97,4.76-.61.49-2.16.2-2.83.04ZM81.96,161.95c-.24-.2-.92-.57-1.57-.51-4.6-.24-13.04-6.67-16.03-13.17-1.85-3.54-2.42-5.02-2.93-10.64-.29-3.25-.65-7.14-.27-7.83,2.39-12.22,6.09-19.53,13.21-27.6,3.54-4.25,4.31-5.41,9.15-9.77,5.25-4.62,17.06-11.58,24.03-14.18,8.23-3.14,9.68-3.93,10.98-4.05.63-.27,3.84-1,6.41-1.45,2.56-.67,5.57-1.16,6.43-1.24,3.86-.79,19.48-1.76,22.57-1.39l9.88.63c3.31.36,7.46.42,9.27,1.13,1.55.3,3.56.77,4.21.71,1.97.04,11.94,1.76,13.3,2.29l5.15,1.5c2.22.45,5.35,1.26,6.28,1.83,1.79.49,3.82,1.18,4.72,1.54,3.11.59,8.73,2.48,10.8,3.6,1.36.53,2.46.65,2.68.63,0,0,2.01.47,4.49,1.34,4.03,1.16,5.65,2.11,13.67,4,13.18,3.39,17.8,3.84,28.9,3.49,3.29.14,13.56-2.1,17.98-3.81,3.78-1.65,11.43-6.27,12.61-7.69.55-1.14,1.57-1.89,2.38-2.62,1.65-1.02,4.11-5.17,5.79-8.38.89-2.26,1.7-10.19,1.46-12.79-.18-1.95-.23-2.6,1.02-.75,1.71,2.03.58,13.69-1.6,16.07-.16.67-.53,1.36-.49,1.79.08.87-4.82,6.98-7.68,9.2-3.23,2.91-9.27,6.08-15.19,8.14-4.82,2.18-7.4,2.63-14.11,3.24-4.55.41-9.54.64-10.88.33-11.92-1.54-16.6-2.64-20.93-4.65-1.32-.1-2.66-.41-3.76-.53-3.34-.79-5.29-.61-9.38-2.42-.71-.59-2.01-.47-2.71-1.06-.92-.57-3.31-.36-4.23-.93-2.44-.43-6.73-2.01-13.28-4.47-1.57-.51-2.89-.61-3.32-.57-.22.02-1.57-.51-2.97-1.48-1.75-.06-4.68-1.1-7.12-1.54-2.22-.45-5.57-1.24-7.36-1.73-2.71-1.06-8.89-1.81-17.94-2.96-6.85-.91-21.03-.93-29.69-.15-10.33,1.59-13.3,2.51-19.22,4.58-4.88,1.53-15.88,5.36-16.43,6.51-.41.26-1.89.82-2.95,1.14l-1.46.79c.04.43-2.28,1.3-4.33,2.79l-4.31,3.01c-.41.26-1.81,1.69-4.03,3.64-5.69,4.66-13.7,14.99-14.27,18.31-.37.69-.53,1.36-1.16,1.63-.59.71-.98,1.18-.93,1.83.06.65-.53,1.36-1.1,2.28-.59.71-1.14,1.85-1.08,2.5l-.41,2.66c-2.7,6.35-1.15,18.65,2.78,23.53.75,1.02,1.26,1.85,1.3,2.28.12,1.3,5.35,6.06,9.44,7.87,4.54,1.99,6.73,2.01,11.06,1.62,6.04-.77,9.66-1.75,15.23-5.31,11.96-7.63,20.13-16.22,27.26-33.89,1.42-3.62,1.11-9.48.75-13.38.2-2.64-.02-5.02.63-5.08.57-.92,2.66.41,3.46,2.09,2.32,3.94,1.35,12.53-.83,17.31-.75,1.38-.71,1.81-3.33,6.63-.75,1.38-1.71,2.77-1.93,2.79-.65.06-.63.28-.57.92.24,2.6-15.18,20.36-18.21,20.63l-1.24.77c-2.42,2.18-11.43,6.27-15.92,7.33-4.23,1.47-10.72,2.06-12.12,1.1Z"/>
  <path d="M161.84,266l-2.73-1.28c-1.79-.49-5.39-4.09-7.12-6.34-2.03-3.09-2.42-12.22-1.43-18.2,1.42-3.62,5.12-15.74,6.14-16.48.59-.71,3.44-5.33,3.6-6-.02-.22.47-2.01,1.65-3.42,1.18-1.42,3.52-4.46,5.24-7.24,1.5-2.75,2.85-4.62,2.85-4.62.41-.26.96-1.4,2.18-2.38,8.7-9.95,14.47-13.75,25.17-18.42,4.9-1.32,8.79-1.67,11.14.08,1.87,1.36,2.91,3.23,2.4,7.2-.38,3.09-3.09,9.23-6.4,13.67-3.17,3.56-6.14,6.88-10.33,8.79-2.6,2.64-5.51,4.21-8.64,5.8-3.72,2.3-7.64,4.84-11.2,6.47-3.19.94-5.59.94-7.22,4.58-.55,1.14-1.06,2.71-1.22,3.38-.37.69-.33,1.12-.53,1.36-3.82,6.02-8.96,21.54-5.24,26.44,2.03,3.09,5.39,4.09,11.19,3.13,2.79-.47,5.14-1.12,7-2.16l3.52-2.06c2.48-1.53,9.35-7.61,12.79-10.54,9.64-9.16,22.56-25.61,25.45-29.79.77-1.16,3.05-4.86,4.61-6.96l9.82-14.42c.59-.71,1.61.95.86,2.32-4.02,6.25-16.65,25.73-25.3,36.33-1.16,1.63-15.73,16.7-16.69,18.09-1.4,1.44-4.86,4.15-7.34,5.68-2.05,1.49-4.53,3.03-5.18,3.09-.41.26-1.22.98-2.48,1.53-1.3.12-2.32.86-2.73,1.12-1.2,1.2-12.89,2.26-13.85,1.25ZM184.58,213.54c3.13-1.59,6.02-3.38,6.24-3.4-.04-.43,2.42-2.18,4.05-3.42,9.74-8.08,12.46-14.22,13.27-19.75.43-2.44-.02-2.62-.94-3.19-1.83-.92-6.96.19-9.66,1.75-2.44,1.97-6.53,4.95-12.1,10.91-2.2,2.16-4.45,6.29-7.28,11.13.04.43-1.65,3.42-3.58,6.22-2.11,3.25-3.58,6.22-3.15,6.18.28.63,7.02-1.94,13.16-6.43Z"/>
  <path d="M251.5,253.74c-1.53-2.48-.78-6.26-.39-9.13.18-.45.59-3.11-.61-1.91-1.83,1.48-3.15,3.78-4.92,5.9-4.15,4.74-7.54,8.32-13.24,10.36-6.73,2.79-15.82,3.61-18.65-3.55-1.71-4.43-3.62-11.02-2.06-15.52l2.54-8.08,3.35-8.81c2.03-4.11,4.27-8.24,6.77-11.96l3.43-5.55c2.11-3.25,4.51-5.64,6.61-8.89,4.7-5.88,9.98-12.69,16.12-17.17,3.94-2.32,9.64-4.36,14.13-5.42,5.78-1.18,11.23,1.16,12.23,7.4l.71,5.39c.1,1.08.59,1.69.59,1.69,1.97.04,5.02-9.62,7.46-11.58,1.81-1.69,5.08-1.77,7.34-.88,2.03.69,2.58,1.95,1.67,3.99-1.81,4.09-5.22,7.45-7.5,11.15-2.26,3.91-4.08,8.01-6.38,11.49-2.66,4.39-4.41,9.13-7.3,13.32-2.74,5.92-6.22,10.82-8.98,16.52-2.64,4.6-4.82,9.38-5.85,14.93-1.56,11.7,7.89,5.18,12.06.65,4.84-4.37,9.43-9.14,12.85-14.69,1.34-2.08,2.89-4.19,4.67-6.31,4.61-6.96,9.41-14.16,13.98-21.56,2.89-4.19,4.07-5.61,6.75-9.78.75-1.38,1.28-2.73,2.5-3.72.61-.49,1.24-.77,1.3-.12.12,1.3-.36,3.3-1.14,4.25l-11.89,18.1c-4.76,7.63-10.51,16.44-16.36,24.17-3.52,4.46-7.38,10.05-11.85,13.73-3.46,2.71-7.3,6.12-11.89,6.09-3.05.06-6.49-1.81-8.04-4.51ZM238.89,251.83c4.61-4.56,7.58-7.89,10.67-12.31,4.61-6.96,4.45-6.29,6.85-11.09l8.35-16.25c2.28-3.7,4.49-8.26,4.92-8.3l.16-.67,1.65-3.42,2.22-4.35c1.08-2.5.57-5.73-.09-8.28-.24-2.6-1.14-5.35-3.46-6.89-1.42-1.18-2.5-1.08-3.95-.3-1.91.61-4.74,3.05-5.55,3.78l-1.2,1.2c-.65.06-20.19,22.77-21.73,25.09l-1.89,3.23c-5.02,7.22-7.85,12.06-11.01,18.23l-1.83,3.87-.85,2.7-1.64,6.04c-.51,1.57-.83,2.91-.65,4.86-.04,1.97.35,6.3,1.98,7.46,2.14,1.99,4.03,1.16,7.04.67,3.42-.75,7.62-2.65,10-5.27Z"/>
  <path d="M298.56,252.97c-1.97-.04-6-3.6-6.88-6.14-2.02-5.49-.98-18.02,1.74-21.76.16-.67,1.3-2.52,1.77-4.52.95-1.61,1.63-3.64,2.24-4.13.37-.69.95-1.61,1.04-2.93.55-1.14.93-1.83,1.14-1.85.43-.04.41-.26.37-.69-.06-.65,1.12-2.07,2.28-3.7,2.85-4.62,2.48-3.93,6.26-10.39,7.32-13.1,8.45-15.17,8.39-15.81-.04-.43.91-2.05,2.09-3.46,2.85-4.62,5.85-10.13,9.75-17.68l2.62-4.82c1.12-2.07,1.85-3.66,1.6-4.07,0,0-5,.23-10.19.7-7.14.65-9.74.88-10.01.25-.47-.39-.53-1.04.12-1.1.41-.26,5.14-1.12,10.98-1.65,5.84-.53,10.82-.98,11.02-1.22.43-.04,1.71-2.77,3.43-5.55,3.15-6.18,3.17-5.96,6.81-11.53,1.56-2.1,2.89-4.19,2.87-4.41-.04-.43.37-.69.55-1.14.43-.04,1.08-.1,1.12.33l5.19-.47c7.14-.65,7.32-1.1,4.41,2.87-.79.94-2.52,3.5-3.64,5.57l-3.35,6.41c-2.05,3.89-3.39,5.98-3.76,6.67,0,0,6.51-.37,14.3-1.08,14.28-1.29,16.92-1.09,15.11.6-.81.73-3.84,1-14.22,1.94-18.2,1.43-16.9,1.31-19.3,6.11-1.12,2.07-2.72,3.74-2.89,4.19-.43.04-.57.92-.95,1.61-.16.67-1.87,3.44-3.33,6.63l-5.67,9.68c-1.32,2.3-2.87,4.41-3.05,4.86,0,0-.41.26-.37.69.06.65-4.1,7.79-4.53,7.83-.22.02-.61.49-.55,1.14-.57.92-.53,1.36-4.69,8.5-1.52,2.54-3.76,6.67-4.86,8.95-1.56,2.1-2.85,4.62-3.23,5.31-.75,1.38-1.69,2.99-5.53,11.19-1.24,3.17-2.3,5.88-2.28,6.1,0,0-.28,1.77-.81,3.13-1.26,2.95-.46,9.42,1.12,12.34,3.01,4.31,10.76,3.17,17.25-2.22,4.09-2.99,11.26-10.62,13.01-12.96.59-.71,3.5-4.68,6.46-8.22,2.93-3.76,7.62-9.85,10.57-13.39,3.68-5.13,7.03-9.15,10.71-14.28,2.11-3.25,3.29-4.66,5.22-7.45l4.67-6.31c1.56-2.1,2.15-2.81,2.89-1.79.92.57.02.22-.91,2.05-.53,1.36-1.65,3.42-2.44,4.37-.55,1.14-3.88,5.37-6.93,10.23-13.88,20.24-37.38,47.46-38.25,47.54-.43.04-1.24.77-1.83,1.48-1.77,2.12-7.77,5.72-10.35,6.17-1.3.12-2.56.67-2.54.88-1.04.53-9.05,1.26-10.17.92-.24-.2-1.36-.53-1.57-.51Z"/>
  <path d="M383.86,166.05c6.06-.55,7.18-.21,5.47,2.56-.57.92-.94,1.61-.91,2.05l-1.77,2.12c-3.09,4.43-4.82,6.98-8.07,12.08-2.32,3.27-3.6,6-3.58,6.22l-1.65,3.42c-2.89,4.19-5.85,10.13-8.6,15.83-1.22,3.38-2.84,7.24-3.78,8.85-1.14,1.85-1.87,3.44-1.83,3.87,0,0-.37.69-.53,1.36-1.02.75-2.6,5.04-4.8,9.6-1.06,2.71-.93,6.63-.1,8.52.35,1.5,4.46,3.52,6.37,2.91,3.6-1.2,9.11-5.41,14.19-11.98,7.64-9.64,10.75-13.85,14.05-18.29,1.93-2.79,4.07-5.61,4.25-6.06.41-.26,3.9-7.55,4.84-9.17.16-.67.75-1.38.71-1.81.43-.04,1.5-2.75,2.6-5.04,1.71-2.77,2.83-4.84,2.8-5.27.59-.71,3.41-5.76,5.18-7.89.75-1.38,1.67-3.21,1.65-3.42.22-.02.75-1.38,1.28-2.73,1.61-3.85,3.76-6.67,6.38-9.09,0,0,.37-.69,1.02-.75l.22-.02c1.3-.12,2.34-.65,3.21-.73,1.08-.1,1.95-.18,3.01-.49.18-.45.83-.51,1.32.1.75,1.02.16,1.73-3.15,6.18-7.09,10.9-11.46,18.06-15.89,26.97-.49,1.79-4.06,8.22-4.67,8.71.02.22-.53,1.36-1.06,2.71-.53,1.36-1.97,4.76-2.66,6.79-1.59,1.67-2.66,4.39-2.54,5.68-.55,1.14-.69,2.03-1.12,2.07-.59.71-2.93,6.16-3.84,10.6-.51,1.57-1.44,3.4-1.26,5.35.18,1.95.25,2.81,2.67,3.03.22-.02.67.16,1.32.1l1.52-.14c1.73-.16,2.95-1.14,3.76-1.87,1.85-1.26,3.68-2.73,4.84-4.37,4.21-4.09,7.09-8.5,9.98-12.69l.55-1.14c.96-1.4,2.34-3.05,2.95-3.54.59-.71,2.66-4.39,5.55-8.58,2.46-4.15,5.16-8.1,5.37-8.12,1.02-.75,8.33-14.06,11.99-19.41,1.56-2.1,2.74-3.52,2.95-3.54,1.3-.12,1.26,1.85-.32,3.74-.1,1.32-1.87,3.44-6.46,10.62-1.71,2.77-3.8,6.23-6.12,9.5-.75,1.38-3.46,5.11-5.3,8.99-2.34,3.05-5.24,7.24-5.77,8.6-3.48,4.9-10.35,13.37-12.09,15.93-6.24,5.8-9.88,8.97-11.83,9.14-.65.06-1.04.53-1.26.55.02.22-1.67.81-2.97.92-1.95.18-2.64-.2-4.29-1.58-1.89-1.58-2.99-4.09-3.18-6.26-.9-5.15.48-9.21,2.23-13.95.47-2.01,1.4-3.84,1.38-4.05,0,0-1.02.75-1.77,2.12-6.5,7.79-15.71,19.31-16.14,19.35,0,0-1.89.82-3.09,2.02-2.58,2.85-6.14,4.48-8.74,4.72-3.46.31-9.64-2.84-9.78-4.35-.04-.43-.53-1.04-.77-1.24-1.18-.98-1.39-8.16-.39-11.53.08-1.53,1.54-4.72,1.58-6.69.51-1.57.99-3.58,1.42-3.62l1.08-2.5c.53-1.36,1.16-4.03,2.34-5.45.94-1.61,1.6-4.07,2.13-5.43,1.06-2.71,4.96-10.27,5.38-10.52.18-.45.81-.73,1.14-1.85.57-.92,1.1-2.28,1.87-3.44.37-.69,1.5-2.75,2.19-4.78,1.87-3.44,2.99-5.51,7.15-12.65,2.2-2.16,3.94-4.72,4.09-5.39.94-1.61,1.12-2.07,6.1-2.52Z"/>
  <path d="M449.85,237.1c-1.67-1.59-3.7-4.68-3.99-7.93-.2-2.16,1.01-8.16,1.66-10.62.59-.71,1.63-3.64,2.7-6.35,1.06-2.71,2.46-6.55,3.64-7.97l1.79-4.31,5.47-9.44c2.46-4.15,5.2-7.67,5.34-8.56,2.09-3.46,7.19-12.21,8.94-14.55,6.46-8.22,7.86-16.86,3.31-16.45-.65.06-3.95-.3-6.85-.91-3.36-1-6.49-1.81-6.71-1.79-.43.04-1.52,2.54-3.48,4.9-1.5,2.75-2.84,4.84-3.44,5.33l-1.5,2.75c-.16.67-1.71,2.77-3.05,4.86l-2.68,4.17-1.93,2.79c-.96,1.4-3.31,4.45-4.55,7.61-3.05,4.86-4.23,6.27-4.41,4.33-.16-1.73,5.08-11.37,8.01-15.13,1.18-1.42,3.66-5.35,5.35-8.34,2.32-3.26,3.8-6.23,3.98-6.69l2.72-3.74c.69-2.03,2.3-3.48,2.52-3.5.39-.47-1.04-1.87-.49-3.01-.67-.16-.18-1.95,1.04-5.33,1.58-4.29,3.94-7.12,8.52-11.9,1.77-2.12,3.92-2.54,4.53-.63.79,1.46-1.34,6.89-4.82,11.78-.39.47-1.73,2.56-2.68,4.17l-1.87,3.44,4.92,1.3,5.74.79c2.16-.2,6.29,2.05,7.73,3.45,1.3,2.28,1.41,8.38.25,12.42-.32,1.34-2.46,6.55-2.93,8.56-1.18,1.42-5.18,7.89-5.73,9.03-1.18,1.42-9.13,14.79-10.43,17.31.06.65-.51,1.57-.51,1.57-.43.04-.61.49-.59.71.04.43-.87,2.48-1.97,4.76-5.26,9.42-9.33,19.83-9.59,24.21-.02,2.18.02,2.62,2.14,4.39,2.12,1.77,2.34,1.75,4.68,1.1,6.43-1.24,8.46-2.95,17.18-12.68,1.97-2.36,3.58-3.82,3.8-3.83l.39-.47c-.02-.22,1.32-2.3,2.89-4.19l5.47-7.04c1.54-2.32,3.48-4.9,4.45-6.29.81-.73,2.95-3.54,4.88-6.33l3.48-4.9c.41-.26,1.75-2.34,3.92-4.94,1.71-2.77,3.64-5.57,4.67-6.31.53-1.36,1.69-2.99,2.46-4.15,1.75-2.34,3.05-2.46,2.6-.24.06.65-2.42,4.58-5.16,8.1-2.93,3.76-6,8.4-6.97,9.8l-3.11,4.21-11.53,14.79c-3.03,5.08-13.46,17.58-17.11,20.75-4.47,3.68-4.25,3.66-8.62,6.02q-3.76,1.87-7.97,1.16c-2.66-.41-5.15-1.5-6.51-2.03Z"/>
  <path d="M535.53,154.29c.06.65.1,1.08-1.46,3.19-1.12,2.07-2.83,4.84-3.41,5.76-.53,1.36-1.08,2.5-1.3,2.52.02.22-.59.71-.57.92.04.43-.49,1.79-1.06,2.71-1.18,1.42-5.75,8.81-6.26,10.39-.33,1.12-7.6,14.87-9.19,16.54-.16.67-1.12,2.07-1.06,2.71l-5.89,9.7c-.37.69-.55,1.14-.53,1.36.04.43-.96,1.4-1.65,3.42-4.45,8.69-6.46,15.42-5.3,18.59.77,1.24,1.22,1.42,3.38,1.22,2.42.22,3.07.16,4.49-1.06,2.91-1.57,3.7-2.52,4.94-3.28.39-.47.59-.71,1.02-.75.22-.02,1.2-1.2,2.58-2.85,2.2-2.16,11.55-12.17,20.94-24.15,1.36-1.87,2.89-4.19,3.07-4.64.41-.26,1.12-2.07,3.31-4.45,3.13-3.99,4.76-7.63,8.31-11.88,2.89-4.19,6.26-10.39,7.4-12.23,1.56-2.11,3.56-1.63,2.6-.24-.55,1.14-1.62,3.85-10.3,16.42-2.3,3.48-5.79,8.38-6.91,10.44-1.77,2.12-4.11,5.17-5.26,7.02-3.7,4.92-19.21,23.99-25.35,28.48-6.34,4.72-6.91,5.64-10.59,5.98-4.15-.06-8.07-2.32-10.35-5.83-1.1-2.52-1.53-7.28-.57-11.08,2.23-6.75,2.6-7.44,2.82-7.46.65-.06.63-.27.59-.71-.02-.22.37-.69.37-.69.22-.02.75-1.38,1.28-2.73.57-.92,1.48-2.97,2.07-3.68.59-.71,1.87-3.44,3.37-6.2,1.08-2.5,2.78-5.49,3.31-6.85.59-.71,1.14-1.85,1.3-2.52,2.72-6.14,4.41-9.13,8.54-16.48,2.44-4.37,5.28-9.21,6.18-11.25,2.26-3.91,4.67-6.31,6.12-7.1,2.97-.92,8.87-.8,9.01.71ZM548.11,119.77c3.52,2.74,2.26,8.09-1.5,12.35-2.4,2.4-2.79,2.87-5,2.63-4.35.18-5.92-2.74-4.35-7.03.79-3.34,2.52-5.9,5.22-7.45,2.91-1.57,3.78-1.65,5.63-.51Z"/>
  <path d="M618.66,142.18c4.17.28,7.59,1.93,10.98,5.55,2.16,2.2,2.22,2.85,2.65,7.61.29,3.25.08,5.67-.61,7.69-.79,3.34-2.92,8.77-4.02,11.06-.16.67-1.67,3.21-2.4,4.8-.91,2.05-3.43,5.55-5.14,8.32-6.93,10.23-9.61,14.4-9.59,14.61.04.43-.16.67-.59.71-.22.02-.18.45-.16.67.04.43-.33,1.12-.98,1.18-.59.71-.75,1.38-1.12,2.07-.16.67-1.06,2.71-1.6,4.07-.73,1.59-1.63,3.64-1.69,5.39-1.08,7.3,4.84,7.64,9.62,5.02.22-.02,1.2-1.2,2.01-1.93,2.83-2.44,8.27-7.51,10.75-11.45l5.67-7.28c.71-1.81,2.3-3.48,3.05-4.86.59-.71,1.14-1.85,1.14-1.85-.02-.22.35-.9.91-2.05.81-.73,2.52-3.5,4.23-6.27,3.43-5.55,3.25-5.09,5.55-8.58.75-1.38,1.73-2.56,1.67-3.21,0,0,.75-1.38,2.36-2.83.73-1.59,2.3-3.48,2.87-4.41.18-.45.71-1.81,1.3-2.52.32-1.34,1.16-1.63,1.59-1.67,1.32.1,1.04,1.87-1.3,4.92-.75,1.38-3.39,5.98-5.91,9.48-2.07,3.68-4.37,7.16-4.55,7.61-.37.69-1.75,2.34-3.27,4.88-4.59,7.18-5.73,9.03-10.98,16.05-6.97,9.8-12.93,16.23-18.11,19.31-2.22,1.95-8.23,3.14-10.7,2.28-2.26-.89-4.84-2.83-5.88-4.7-.81-1.67-1.02-6.45-.06-7.85.65-2.46,1.48-5.37,1.54-7.12.37-.69,1.06-2.71,1.65-3.42.57-.92.89-2.26.85-2.7-.06-.65,4.69-8.5,5.24-9.64.59-.71,5.08-6.57,6.89-10.66,1.56-2.1,2.68-4.17,2.68-4.17.18-.45.59-.71.75-1.38-.04-.43,1.67-3.21,3.8-6.23,3.86-7.99,5.61-12.73,5.63-17.31-.19-4.56-.47-5.19-4.29-6.38-3.56-.77-5.9-.12-8.95,2.34-2.66,1.99-16.18,18.92-19.66,23.82-1.75,2.34-4.06,5.82-5.24,7.24-5.22,7.45-6.75,9.78-8.64,13-.94,1.61-2.24,4.13-2.66,4.39-.59.71-.75,1.38-.75,1.38.06.65-.28,1.77-.87,2.48-.59.71-2.28,3.7-3.96,6.9-1.26,2.95-3.41,5.76-3.58,6.22-.37.69-2.13,3.03-3.21,5.53-2.62,4.82-3.35,6.41-4.31,10.21-.37.69-1,.96-5.12,1.34-3.03.27-5.21.25-5.69-.14-.67-.16,1.52-4.94,7.62-17.05.41-.26.91-2.05,2.07-3.68.53-1.36,1.81-4.09,3.23-5.31.73-1.59,1.65-3.42,2.24-4.13.53-1.36.73-1.59,1.16-1.63.22-.02.61-.49.59-.71-.04-.43.71-1.81,2.26-3.91.73-1.59,1.63-3.64,1.6-4.07,0,0,.16-.67,1.22-.98l1.02-3.15c.1-1.32.67-2.24,1.75-2.34l1.61-3.85c.53-1.36,1.63-3.64,2.19-4.78.53-1.36,1.85-3.66,2.72-6.14.67-2.24,1.79-4.31,2.34-5.45,3.17-8.36,4.57-12.2,2.66-13.99-2.4-2.4-6.55-.06-12,4.8-4.25,3.66-7.72,8.77-11.2,13.67-2.52,3.5-4.63,6.75-6.22,8.42-.55,1.14-3.13,1.59-1.44-1.4,4.94-8.08,7.28-11.13,11.38-16.52,3.92-4.94,9.03-8.67,12.58-10.52,5.18-3.09,9.7-1.31,13.5,2.05,1.87,1.36,2.73,3.68,1.79,7.69-.35.9-.36,3.3-.73,3.99.08.87-.55,3.54-1.64,6.04-.95,4.01-.89,4.66.35,1.5,1.59-1.67,18.68-22.64,19.55-22.72.43-.04.63-.28,1.24-.77.37-.69,1.22-.98,2.48-1.53.59-.71,2.95-1.14,4.27-1.04Z"/>
  <path d="M596,308.97c-1.3.12-4.74-1.75-5.72-2.97-.49-.61-1.24-1.63-1.46-1.61-.71-.59-1.67-3.99-1.94-7.02-.14-1.52-.73-3.21-.75-3.42-.26-.41-.28-.63-.12-1.3.39-.47.53-1.36.43-2.44-.35-3.9,3.53-11.66,8.11-16.44,2.99-3.11,7.18-7.41,13.54-11.92,7.38-5.25,10.25-7.26,15.31-9.24,8.42-3.38,15.94-7.12,18.26-7.98.85-.3,1.89-.83,2.54-.88.65-.06,1.28-.33,1.87-1.04.61-.49,2.07-1.28,3.35-1.61,2.54-.88,2.93-1.36,5.39-5.51,1.55-2.1,3.27-4.88,3.41-5.76.55-1.14,1.12-2.07,1.56-2.1,0,0,.77-1.16,1.3-2.52.51-1.57,2.34-5.45,4.08-8.01,1.28-2.73,2.76-5.7,2.91-6.37.55-1.14.91-2.05,1.12-2.07.43-.04.39-.47.37-.69-.04-.43.12-1.1.75-1.38.39-.47.93-1.83,1.52-2.54.14-.89,1.1-2.28,1.26-2.95.55-1.14.53-1.36.32-1.34-.43.04-.65.06-.63.27.06.65-5.63,7.71-10.81,13.2-3.76,4.27-11.2,8.87-15.49,9.69-4.05,1.02-6.57-.28-11-3.37-2.62-2.38-2.89-3.01-3.62-6.22-.43-2.36.2-9.84.97-11-.02-.22.37-.69.35-.9-.12-1.3,4.43-11.31,6.07-14.95l1.61-3.85c-.02-.22.57-.92,1.16-1.63.98-1.18,1.73-2.56,2.7-3.95.57-.92,1.32-2.3,1.91-3.01,1.02-.75,1.18-1.42,1.14-1.85l.94-1.61,2.91-3.97c3.11-4.21,5.47-7.04,9.27-10.88,1.4-1.44,2.97-3.32,3.19-3.34.57-.92,6.4-6.47,8.27-7.51.83-.51,2.48-1.53,3.25-2.69,1.83-1.48,7.48-4.17,11.06-5.58,4.64-1.73,9.94-1.12,13.22,1.42,2.38,2.18,3.17,6.04,2.24,10.27-.28,1.77-.41,2.66-.26,1.99.41-.26,1.16-1.63,1.54-2.32l1.67-3.21c.16-.67,1.71-2.77,2.82-5.05q2.32-3.27,4.92-3.5c1.3-.12,2.81-.25,3.44-.53,5.1-1.55,6.28-.57,2.16,4.61-4.51,5.64-6.97,9.79-14.15,22.01l-5.83,10.35c-4.45,6.29-6.79,11.74-9.33,17.43-.16.67-.75,1.38-.75,1.38-.43.04-1.04.53-1.04.53.02.22-.61,2.89-2.13,5.43l-5.08,8.97c-1.06,2.71-2.38,5.02-2.78,5.49.02.22-1.69,2.99-3.37,6.2-1.28,2.73-3.27,7.28-4.43,8.91-.71,1.81-1.65,3.42-1.61,3.85.06.65,1.36.53,1.95-.18.39-.47,2.44-1.97,4.7-3.48,9.33-5.43,13.8-9.1,20.25-14.92,2.05-1.49,3.88-2.97,4.31-3.01.22-.02.59-.71,1.2-1.2.16-.67,2.36-2.83,4.19-4.31,4.82-4.58,13.68-15.2,16.08-20,.59-.71,1.71-2.77,2.89-4.19,1.12-2.07,4.45-6.29,6.71-10.21,1.85-3.66,4.59-7.18,5.2-7.67.2-.24.59-.71.57-.92-.04-.43.12-1.1.75-1.38,1.57-1.89,3.98-6.69,4.57-7.4.96-1.4,1.93-.39,1.79.49-.43,2.44-2.21,4.56-3.92,7.34l-3.43,5.55c-1.56,2.11-2.68,4.17-2.89,4.19l-2.68,4.17c-1.75,2.34-2.82,5.05-3.46,5.11-.16.67-1.2,1.2-1.18,1.42.1,1.08-7.99,12.94-12.38,17.49-3.35,4.01-7.7,8.99-8.76,9.3-.22.02-1.24.77-1.79,1.91-1.24.77-2.03,1.71-2.46,1.75-.65.06-.87.08-.83.51.06.65-9.47,8.71-11.51,10.21l-1.85,1.26c-1.61,1.45-12.16,7.86-16.49,10.66-2.68,1.77-4.9,3.72-5.87,5.11-1.93,2.79-5.71,9.24-5.67,9.68.06.65-5.22,9.85-9.1,15.22l-8.03,12.51c-7.64,12.04-8.72,14.54-12.32,18.13l-4.82,4.58c-2.79,2.87-7.71,6.37-12.65,9.65-4.39,2.14-9.13,2.79-12.3,1.55-1.36-.53-2.26-.89-2.7-.85ZM607.91,303.09s.59-.71,1.24-.77c1.04-.53,4.03-3.64,5.45-4.86l2.42-2.18c5.43-5.07,8.97-9.32,11.2-13.67,1.14-1.85,2.3-3.48,2.89-4.19.39-.47,1.56-2.1,2.26-3.91l5.49-9.22c2.24-4.13,4.71-8.28,5.08-8.97,1.14-1.85,1.28-2.73,2.85-4.62.73-1.59,3.56-6.43,3.52-6.86-.02-.22-.24-.2-8.82,3.85-5.06,1.98-10.68,4.89-13.22,5.78-7.18,2.61-11.33,4.95-16.23,8.67-1.22.98-2.46,1.75-2.46,1.75-.65.06-11.14,9.52-12.91,11.64-3.98,4.29-4.59,4.78-6.28,10.17-1.44,3.4-1.52,4.94-1.66,8.22.49,7.81,3.48,11.9,8.97,12.28,1.77.28,3.99.73,5.02-.02,1.91-.61,5.23-2.44,5.18-3.09ZM654.81,216.15c1.28-.33,5.69-4.66,7.3-6.12,2.2-2.16,6.93-7.83,6.89-8.26-.02-.22.79-.94,3.68-5.13l1.73-2.56c-.02-.22.37-.69.96-1.4,3.15-3.78,8.07-12.08,11.46-18.06,1.12-2.07,2.24-4.13,2.87-4.41.18-.45.59-.71.53-1.36-.04-.43-.06-.65.16-.67.43-.04,1.14-1.85,2.11-3.25.73-1.59,1.87-3.44,2.46-4.15.37-.69.96-1.4.95-1.61-.04-.43.49-1.79,1.02-3.15,2.28-3.7,2.82-5.05,3.17-8.36.85-5.09-.04-7.63-3.4-8.64q-2.44-.43-5,.23c-4.7,1.08-7.83,2.67-11.87,6.31-6.24,5.8-13.68,15.2-18.84,23.31l-3.46,5.11c-1.56,2.1-2.68,4.17-2.84,4.84-.59.71-1.52,2.54-2.26,3.91-.96,1.4-1.69,2.99-1.65,3.42l-2.82,5.06c-3.39,5.98-4.45,8.69-5.93,11.66-.49,1.79-1.06,2.71-1.02,3.15-.63.28-1.1,2.28-1.2,3.6,0,0-.28,1.77-.75,3.78-.45,2.22-.39,2.87.31,3.46.49.61.77,1.24.59,1.69.06.65,2.99,1.69,5.39,1.69.87-.08,7.61-2.65,9.44-4.13Z"/>
  <g>
    <path d="M766.43,18.19s.65-.06,1.77.28c.87-.08,2.87.39,4.68,1.1,6.35,2.7,10.44,6.91,12.98,13.23,1.1,2.52,1.61,8.15.74,13.02.16,1.73-2.09,13.06-4.04,20.44-.51,1.57-3.92,9.74-4.29,10.43l-1.06,2.71c-1.28,2.73-4.06,8.22-4.67,8.71,0,0-.41.26-.37.69,0,0-1.06,2.71-2.99,5.51-2.15,2.81-3.21,5.53-3.19,5.74.04.43-.18.45-.18.45-.43.04-1,.96-1.12,2.07-.57.92-1.12,2.07-1.54,2.32.04.43-.77,1.16-.75,1.38-.39.47-.93,1.83-2.15,2.81-.49,1.79-1.06,2.71-1.22,3.38-.93,1.83-4.86,11.35-5.97,13.63-.49,1.79-2.15,2.81-2.11,3.25,0,0-.53,1.36-1.1,2.28-.1,1.32-.63,2.67-1.02,3.15-.51,1.57-2.28,6.1-2.54,8.09-.93,6.63-.85,7.5-.34,10.72.24,2.6.84,4.51,1.1,4.92,1.87,1.36,7.28.87,12.3-1.55,2.95-1.14,12.75-8.57,13.95-9.77,0,0,.14-.89.75-1.38,2.48-1.53,6.44-6.04,11.97-12.43,5.1-6.35,7.42-9.62,13.86-18.06l8.19-10.78c1.3-2.52,6.99-9.58,7.78-10.52,2.11-3.25,10.18-15.32,11.83-18.74.53-1.36,1.06-2.71,1.18-3.82,1.12-2.07,9.02-16.09,8.98-16.52.43-.04.59-.71,1.18-1.42.35-.9.91-2.05.89-2.26,2.58-2.85,9.33-15.03,9.27-15.68,0,0,.35-.9,1.12-2.07,1.22-.98,2.15-2.81,2.3-3.48.41-.26.57-.93.96-1.4.75-1.38,1.81-4.09,1.79-4.31-.04-.43.33-1.12.96-1.4.77-1.16,2.07-1.28,6.67-1.04.47.39,1.12.33,1.34.32.43-.04,1.14.55,1.2,1.2.79,1.46.83,1.89.23,2.6-.41.26-1.55,2.1-2.93,3.76-.93,1.83-2.3,3.48-2.74,3.52-1.14,1.85-3.39,5.98-3.37,6.2,0,0-.16.67-.55,1.14-.59.71-1.16,1.63-1.32,2.3-.37.69-.91,2.05-1.08,2.5-.41.26-.59.71-.57.92.04.43-5.57,10.76-6.75,12.18-.37.69-.51,1.57-1.1,2.28-.33,1.12-.91,2.05-1.52,2.54-.16.67-.53,1.36-.51,1.57.04.43.06.65-.59.71q-.22.02-.18.45c.02.22-1.16,1.63-2.09,3.46-.67,2.24-1.63,3.64-1.63,3.64,0,0-.71,1.81-1.87,3.44-5.02,9.62-6,10.8-5.99,11.01,0,0-.75,1.38-1.71,2.77-2.34,5.45-2.74,5.92-2.84,7.24.02.22-.37.69-.59.71,0,0-.59.71-1,.96.06.65-1.12,2.07-1.65,3.42-.49,1.79-1.02,3.15-1.22,3.38-.33,1.12-1.46,3.19-4.77,10.03-3.03,5.08-5.24,9.64-13.62,25.45-4.78,9.82-10.63,19.95-11.64,20.91-.59.71-1.12,2.07-1.67,3.21-3.56,6.43-16.1,24.59-18.09,26.73.04.43-1.14,1.85-2.7,3.95-4.02,6.25-18.48,22.4-22.89,24.33-.39.47-1.02.75-1.2,1.2-1.02.75-9.92,6.13-11.81,6.96-4.43,1.71-6.14,2.08-8.24,2.93-5.75,1.61-14.89,1.78-18.97.19-4.5-1.56-8.16-5.81-8.55-10.14-.51-5.63,1.54-11.92,3.62-10.58.69.37.75,1.02.59,1.69-2.28,3.7-2.27,8.71-.61,12.49,1.26,1.85,4.29,3.98,6.94,4.39,1.32.1,2.66.41,3.09.38,1.57.51,12.36-.9,14.89-1.78,5.12-1.34,13.14-6.64,16.69-10.89l3.62-3.38c2.05-1.49,3.6-3.6,4.19-4.31.55-1.14,1.34-2.08,2.32-3.27.59-.71.73-1.59.73-1.59-.04-.43.37-.69.96-1.4.59-.71,3.5-4.68,7.52-10.94.53-1.36,2.5-3.72,4.07-5.61,1.38-1.65,2.87-4.41,3.47-5.11.59-.71,1.34-2.08,1.93-2.79,1.71-2.77,4.63-6.75,5.57-8.36.59-.71.71-1.81.71-1.81.41-.26,1.54-2.32,3.41-5.76l2.58-5.25c.75-1.38,1.32-2.3,1.28-2.73,0,0,1.61-1.46,2.34-3.05,1.08-2.5,2.05-3.89,2.03-4.11l1.12-2.07c.53-1.36,2.26-3.91,3.01-5.29.91-2.05,2.03-4.11,2.24-4.13,0,0,.41-.26.37-.69l1.69-2.99c.71-1.81,1.65-3.42,1.81-4.09-.04-.43.33-1.12.55-1.14q.43-.04.37-.69s1.06-2.71,2.4-4.8c1.75-2.34,3.88-7.77,6.18-11.25l3.31-6.85c.61-.49.59-.71.55-1.14,0,0,1.02-.75,1.61-1.46.16-.67.75-1.38.73-1.59,0,0,.37-.69.96-1.4.12-1.1.69-2.03,1.06-2.71.16-.67.55-1.14,1.2-1.2.22-.02.16-.67.57-.92q-.1-1.08-.53-1.04c-.18.45-.83.51-.77,1.16.02.22-.96,1.4-3.84,5.8-3.01,2.89-3.56,4.03-4.67,6.31l-1.93,2.79c-.61.49-1.77,2.12-2.91,3.97-1.16,1.63-2.34,3.05-2.34,3.05-.39.47-1.77,2.12-2.91,3.97-12.85,17.09-25.16,30.64-31.91,35.62-1.28.33-2.09,1.06-2.05,1.49-.43.04-1.28.33-1.93.39-.61.49-1.24.77-1.24.77.06.65-6.22,3.62-6.69,3.22-.22.02-1.3.12-2.12.63-2.91,1.57-9.03-.93-11.27-4-1.44-1.4-2.71-5.86-3.44-9.07-.31-1.06-.43-2.36-.92-2.97-.33-1.28.44-7.24,1.5-9.95,2.82-7.46,4.31-10.21,4.47-10.88.41-.26.59-.71.57-.92,0,0,.98-1.18,1.12-2.07.55-1.14,1.5-2.75,2.03-4.11.53-1.36,1.28-2.73,1.67-3.21,1.81-1.69,2.52-3.5,3.03-5.08.37-.69.87-2.48,1.65-3.42.55-1.14,1.12-2.07,1.06-2.71-.04-.43,2.84-4.84,3.21-5.53.22-.02.18-.45.55-1.14-.02-.22.75-1.38,1.32-2.3.37-.69,1.56-2.1,1.71-2.77,3.09-6.82,5.49-11.62,5.93-11.66q.18-.45.16-.67c-.04-.43.96-1.4,1.5-2.75.53-1.36,1.12-2.07,1.08-2.5,0,0,.51-1.57,1.26-2.95,1.67-3.21,6.5-14.99,7.88-19.04.63-2.68,1.3-7.32,1.18-11.02.24-4.6-2.81-14.15-5.01-16.78-2.1-1.55-3.48-2.3-7.49-3.25-4.49-1.34-8.6-.97-16.05,1.02-3.21.73-11.63,4.11-13.89,5.62-.2.24-2.09,1.06-3.29,2.26-2.3,1.08-5,2.63-11.08,7.77l-3.66,2.95c-1.2,1.2-3.03,2.68-3.6,3.6-5.29,4.19-16.55,19.61-18.15,23.68l-.57.92c-.43.04-.39.47-.37.69.04.43-.16.67-.59.71,0,0-.22.02-.18.45.06.65-.32,1.34-.89,2.26-.77,1.16-1.87,3.44-3.47,7.51-.96,1.4-1.46,3.19-1.44,3.4-.65.06-.75,1.38-1.08,2.5l-.45,2.22c-.16.67-1.1,4.68-1.36,6.67.04.43-.1,1.32,0,2.4-.37.69-.18,2.85,0,4.8.45,4.98,1.06,6.89,3.52,9.94,1.44,1.4,2.58,1.95,5.33,3.44,2.89.61,4.01.95,7.44.2,5.19-.47,9.01-1.69,13.93-5.19,6.85-3.89,14.37-12.43,19.07-20.71l2.19-4.78c2.84-4.84,5.55-15.78,5.32-20.77.3-3.95-1.14-5.35-2.46-3.05q-.55,1.14-1.08.1c-.28-.63.39-2.87,1.44-3.4,3.4-.96,5.61,4.07,4.52,11.37-.51,3.97-4.61,16.56-6.42,18.26-.39.47-.33,1.12-.33,1.12.08.87-4.71,8.28-6.85,11.09-.59.71-.73,1.59-1.12,2.07-1.1,2.28-10.9,9.71-15.86,12.78-5.84,2.93-14.23,4.34-19.36,3.06-3.32-.57-7.79-4.1-9.32-6.57-2.34-4.15-3.3-9.96-1.9-16.19.47-2.01.73-3.99.67-4.64.37-3.09,2.44-9.17,4.25-13.26.53-1.36,1.06-2.71,1.04-2.93-.04-.43.59-.71,1.02-.75,0,0,.22-.02.18-.45-.08-.87,2.01-4.33,8.29-14.5,1.91-3.01,13.52-16.93,14.17-16.99.22-.02.63-.28.79-.94.59-.71,10.33-8.79,14.01-11.52,2.48-1.53,10.39-5.74,11.65-6.29,0,0,.81-.73,1.24-.77,1.89-.83,8.26-2.71,10.84-3.16,1.95-.18,3.21-.73,3.21-.73.2-.24,8.7-.35,8.72-.13Z"/>
    <path d="M820.01,207.53c-4.05-1.38-6.94-4.39-8.08-9.74-.92-2.97-1.39-8.17-.86-9.52.2-.24.53-1.36.47-2.01.16-.67.41-2.66,1.14-4.25.49-1.79.95-4.01,1.42-6.02,1.4-3.84,3.53-9.26,4.27-10.64.63-.28,1-.96.95-1.61l-.04-.43c.22-.02,1.12-2.07,1.63-3.64,1.87-3.44,2.42-4.58,5.32-8.77l3.31-4.45c2.3-3.48,6.46-8.22,10.65-12.53,4.82-4.58,11.61-9.12,17.12-10.93,1.26-.55,2.75-.9,3.84-1,4.07-.8,12.08.87,14.38,4.59,1.47,1.83,2.38,4.58,2.61,7.18.53,5.84-.2,5.04-1.07,9.91-.51,3.97-7.01,18.96-9.26,23.09l-2.09,3.46c-1.87,3.44-2.46,4.15-3.64,5.57-.96,1.4-.32,3.74,1.37,5.55,4.31,4.19,6.53,2.25,16.31-7.8,10.2-10.3,23.39-30.92,26.85-36.03,2.89-4.19,2.85-2.22,2.62-.02-.47,2.01-16.65,25.73-22.15,32.55-7.74,8.55-11.87,13.51-16.3,15.22-4.21,1.69-6.22,1.22-8.38-.99-.67-.16-1.44-1.4-1.44-1.4-.04-.43-.31-1.06-1.02-1.65-.51-.83-.49-.61-3.44,2.93-4.61,6.96-11.18,13.89-12.46,14.22-.65.06-1.26.55-1.42,1.22-1.18,1.42-7.6,5.27-11.59,6.94-4.21,1.69-8.05,2.69-11.04,1ZM840.51,197.82c-.04-.43.59-.71,1.24-.77,1.52-.14,7.22-6.98,11.34-12.15l4.88-6.33c.59-.71.93-1.83.87-2.48-.06-.65-.14-1.52.02-2.18.36-3.3.55-5.94,1.69-7.79.14-.89.69-2.03.69-2.03-.08-.87,6.4-13.67,8.15-16.01.61-.49.77-1.16.75-1.38-.04-.43.91-2.05,1.44-3.4,1.08-2.5,2.36-2.83,3.66-2.95.18-.45.41-2.66.14-5.69.22-4.82-1.02-6.45-4.4-7.67-1.36-.53-2.69-.85-4.64-.67-3.86.79-4.7,1.08-9.45,4.13-4.96,3.07-6.75,4.97-10.55,8.81-5.18,5.49-13.62,18.25-13.46,19.98.02.22-.16.67-.59.71-.65.06-9.98,19.89-10.87,24.55.08.87-.47,2.01-.61,2.89-.59.71-.96,1.4-.91,2.05,0,0-.06,1.75-.63,2.68-2.58,12.45,2.79,16.33,12.8,11.28,3.99-1.67,8.09-4.66,8.44-5.56Z"/>
    <path d="M923.33,117.23c6.06-.55,7.18-.21,5.47,2.56-.57.92-.94,1.61-.91,2.05l-1.77,2.12c-3.09,4.43-4.82,6.98-8.07,12.08-2.32,3.27-3.6,6-3.58,6.22l-1.65,3.42c-2.89,4.19-5.85,10.13-8.6,15.83-1.22,3.38-2.84,7.24-3.78,8.85-1.14,1.85-1.87,3.44-1.83,3.87,0,0-.37.69-.53,1.36-1.02.75-2.6,5.04-4.8,9.6-1.06,2.71-.93,6.63-.1,8.52.35,1.5,4.46,3.52,6.37,2.91,3.6-1.2,9.11-5.41,14.19-11.98,7.64-9.64,10.75-13.85,14.05-18.29,1.93-2.79,4.07-5.61,4.25-6.06.41-.26,3.9-7.55,4.84-9.17.16-.67.75-1.38.71-1.81.43-.04,1.5-2.75,2.6-5.04,1.71-2.77,2.83-4.84,2.8-5.27.59-.71,3.41-5.76,5.18-7.89.75-1.38,1.67-3.21,1.65-3.42.22-.02.75-1.38,1.28-2.73,1.61-3.85,3.76-6.67,6.38-9.09,0,0,.37-.69,1.02-.75l.22-.02c1.3-.12,2.34-.65,3.21-.73,1.08-.1,1.95-.18,3.01-.49.18-.45.83-.51,1.32.1.75,1.02.16,1.73-3.15,6.18-7.09,10.9-11.46,18.06-15.89,26.97-.49,1.79-4.06,8.22-4.67,8.71.02.22-.53,1.36-1.06,2.71-.53,1.36-1.97,4.76-2.66,6.79-1.59,1.67-2.66,4.39-2.54,5.68-.55,1.14-.69,2.03-1.12,2.07-.59.71-2.93,6.16-3.84,10.6-.51,1.57-1.44,3.4-1.26,5.35.18,1.95.25,2.81,2.67,3.03.22-.02.67.16,1.32.1l1.52-.14c1.73-.16,2.95-1.14,3.76-1.87,1.85-1.26,3.68-2.73,4.84-4.37,4.21-4.09,7.09-8.5,9.98-12.69l.55-1.14c.96-1.4,2.34-3.05,2.95-3.54.59-.71,2.66-4.39,5.55-8.58,2.46-4.15,5.16-8.1,5.37-8.12,1.02-.75,8.33-14.06,11.99-19.41,1.56-2.1,2.74-3.52,2.95-3.54,1.3-.12,1.26,1.85-.32,3.74-.1,1.32-1.87,3.44-6.46,10.62-1.71,2.77-3.8,6.23-6.12,9.5-.75,1.38-3.46,5.11-5.3,8.99-2.34,3.05-5.24,7.24-5.77,8.6-3.48,4.9-10.35,13.37-12.09,15.93-6.24,5.8-9.88,8.97-11.83,9.14-.65.06-1.04.53-1.26.55.02.22-1.67.81-2.97.92-1.95.18-2.64-.2-4.29-1.58-1.89-1.58-2.99-4.09-3.18-6.26-.9-5.15.48-9.21,2.23-13.95.47-2.01,1.4-3.84,1.38-4.05,0,0-1.02.75-1.77,2.12-6.5,7.79-15.71,19.31-16.14,19.35,0,0-1.89.82-3.09,2.02-2.58,2.85-6.14,4.48-8.74,4.72-3.46.31-9.64-2.84-9.78-4.35-.04-.43-.53-1.04-.77-1.24-1.18-.98-1.39-8.16-.39-11.53.08-1.53,1.54-4.72,1.58-6.69.51-1.57.99-3.58,1.42-3.62l1.08-2.5c.53-1.36,1.16-4.03,2.34-5.45.94-1.61,1.6-4.07,2.13-5.43,1.06-2.71,4.96-10.27,5.38-10.52.18-.45.81-.73,1.14-1.85.57-.92,1.1-2.28,1.87-3.44.37-.69,1.5-2.75,2.19-4.78,1.87-3.44,2.99-5.51,7.15-12.65,2.2-2.16,3.94-4.72,4.09-5.39.94-1.61,1.12-2.07,6.1-2.52Z"/>
  </g>
</svg>