<?xml version="1.0" encoding="UTF-8"?>
<svg id="Layer_1" data-name="Layer 1" xmlns="http://www.w3.org/2000/svg" viewBox="0 0 1000 1000">
  <g>
    <path d="M282.08,589.56c-2-1.2-4.39-1.2-4.79-.8-5.59,2.79-31.12-1.2-37.1-5.19-1.2-.8-3.59-1.2-4.39-1.2-1.2,0-1.6-.8-1.6-1.2,0-.8-1.2-1.2-2-1.2-2.39,0-15.96-14.36-19.15-19.95-9.18-17.16-6.38-41.89,6.78-54.26,7.58-8.38,19.55-10.77,26.33-6.78,4.79,3.59,11.17,10.77,10.77,11.57-2.39,2.39-4.79,1.2-7.18-2-3.59-3.99-9.58-7.58-15.56-6.38-5.59,1.2-13.17,7.18-18.75,15.96-3.99,9.18-5.98,23.54-.4,35.51,8.38,17.16,19.55,25.13,33.91,28.73,9.58,2.79,28.73,2.79,40.7,0,7.98-2.39,23.94-9.18,25.93-10.77,0-.8,1.6-2,3.59-2.39,2.39-1.2,4.79-3.19,4.79-3.59,1.2-1.2,12.37-10.77,13.17-10.77.4,0,5.98-4.79,15.96-14.36,3.19-3.59,5.59-5.59,6.78-5.59s1.6-1.2,1.6-1.6c0-.8,1.2-2.39,3.19-4.39,3.99-2.79,35.91-37.5,49.47-54.26,4.39-4.79,9.18-11.97,11.57-15.16,2.79-3.59,5.19-7.18,6.38-8.38.8-.4,1.99-1.6,1.99-2.39,0-.4,10.77-18.35,12.37-19.55l2.39-4.79c1.2-1.99,2.39-3.59,3.19-3.59,0,0,.4-2.39.4-3.59,0-.8-2.39-2.39-7.58-3.19-39.5-6.38-70.62,3.59-83.39,25.13-3.59,4.39-2.79,11.97-1.6,11.97s1.6.8,1.6,1.2c0,.8-1.6.8-2.79.8-2.39,0-3.19-2-3.19-7.98,1.2-8.78,13.17-22.74,26.33-27.93,18.75-9.18,35.91-10.77,64.63-5.98,9.58,1.6,10.37,1.6,11.57,0,.4-1.2,1.2-2.39,1.2-3.19,0-.4.4-2.39,1.2-2.39,0,0,1.6-2.39,2.79-5.19l8.38-14.36c1.2-1.2,3.59-4.79,5.59-7.18,1.2-3.59,3.59-7.18,6.38-9.57,2-3.19,3.19-5.59,3.19-5.99,0-.8.4-.8,1.2-.8.4,0,1.2-.4,1.2-1.2,0-1.2,9.58-14.76,10.77-15.56.4,0,1.2-.4,1.2-1.2,0-.4,8.38-9.97,17.16-19.55,11.57-10.77,23.94-20.35,32.32-24.74,2-1.2,5.98-2.79,9.58-3.99,2.39-1.2,6.78-2.39,7.98-3.59,6.38-1.2,17.95,0,23.14,2.79,4.79,2.39,8.38,7.98,7.18,10.77-1.2,4.79-5.98,4.79-4.79.8.8-2,0-3.19-2.39-5.98-1.6-1.2-3.59-2.39-4.79-2-.4,0-3.59.8-5.98.8-5.98.4-15.56,5.19-23.94,9.97-8.38,5.98-22.74,22.74-29.92,33.12-1.6,3.59-2.79,4.79-5.98,7.58-.4,1.2-1.2,2-1.2,2.39,0,.8-1.6,3.19-3.99,7.18l-9.58,14.36-7.18,10.77-2.39,4.39c0,.4-2,3.99-4.79,6.38-7.18,12.77-13.17,22.34-13.17,22.74,0,.8,8.78,3.19,21.54,5.98,14.36,4.39,26.73,4.39,34.71,0,6.38-2.79,13.56-9.97,13.56-12.37,0-2,3.59-3.19,4.79-2,1.2,1.2-2.79,5.98-7.18,10.37-1.6,2.39-7.18,5.99-10.77,7.58-12.37,4.39-25.53,3.59-53.06-3.99-8.38-2.39-7.18-.8-12.77,7.18-1.2,2.39-2.79,4.79-2.79,4.79-.8,0-1.2.4-1.2,1.2,0,1.6-15.56,23.94-21.15,29.92-.4.4-1.2,1.6-1.2,2.39,0,.4-.4,1.2-1.2,1.2-.4,0-2.39,3.59-4.79,6.38-2.39,3.59-5.19,7.98-6.38,9.18-1.99,2.39-7.98,9.58-10.77,13.56-.8.8-3.19,3.59-4.79,4.79-1.2,2-3.19,3.59-3.19,3.59,0,4.39-40.7,43.89-44.29,43.89-.4,0-1.6,1.2-3.59,2.39-1.2,1.6-2.79,2.79-3.99,2.79-.8,0-2.39,2-4.79,3.59-6.78,4.39-20.35,13.17-22.34,13.17-1.6,0-2.39,0-2.39.8,0,.4-2.39,2.39-5.19,3.59l-11.57,4.79c-5.19,2.39-16.76,5.19-26.33,6.38-1.2.8-3.99,0-5.19-.4ZM343.52,386.48c-.4-.4-1.6-1.2-2.79-1.2-8.38-1.2-22.74-14.36-27.13-26.73-2.79-6.78-3.59-9.58-3.59-19.95,0-5.99,0-13.17.8-14.36,6.38-21.94,14.36-34.71,28.73-48.28,7.18-7.18,8.78-9.18,18.35-16.36,10.37-7.58,33.11-18.35,46.28-21.94,15.56-4.39,18.35-5.59,20.75-5.59,1.2-.4,7.18-1.2,11.97-1.6,4.79-.8,10.37-1.2,11.97-1.2,7.18-.8,35.91,0,41.49,1.2l17.95,2.79c5.98,1.2,13.56,2,16.76,3.59,2.79.8,6.38,2,7.58,2,3.59.4,21.54,5.19,23.94,6.38l9.18,3.59c3.99,1.2,9.58,3.19,11.17,4.39,3.19,1.2,6.78,2.79,8.38,3.59,5.59,1.6,15.56,5.99,19.15,8.38,2.39,1.2,4.39,1.6,4.79,1.6,0,0,3.59,1.2,7.98,3.19,7.18,2.79,9.97,4.79,24.34,9.57,23.54,8.38,31.92,9.97,52.27,11.17,5.98.8,25.14-1.6,33.51-3.99,7.18-2.39,21.94-9.57,24.34-11.97,1.2-2,3.19-3.19,4.79-4.39,3.19-1.6,8.38-8.78,11.97-14.36,2-3.99,4.79-18.35,4.79-23.14,0-3.59,0-4.79,1.99-1.2,2.79,3.99-1.2,25.13-5.59,29.13-.4,1.2-1.2,2.39-1.2,3.19,0,1.6-9.97,11.97-15.56,15.56-6.38,4.79-17.95,9.58-29.13,12.37-9.18,3.19-13.96,3.59-26.33,3.59-8.38,0-17.55-.4-19.95-1.2-21.54-4.79-29.92-7.58-37.5-11.97-2.39-.4-4.79-1.2-6.78-1.6-5.98-2-9.58-2-16.76-5.98-1.2-1.2-3.59-1.2-4.79-2.39-1.6-1.2-5.98-1.2-7.58-2.39-4.39-1.2-11.97-4.79-23.54-10.37-2.79-1.2-5.19-1.6-5.98-1.6-.4,0-2.79-1.2-5.19-3.19-3.19-.4-8.38-2.79-12.77-3.99-3.99-1.2-9.97-3.19-13.17-4.39-4.79-2.39-15.96-4.79-32.32-8.38-12.37-2.79-38.3-5.19-54.26-5.19-19.15,1.2-24.74,2.39-35.91,5.19-9.18,2-29.92,7.18-31.12,9.18-.8.4-3.59,1.2-5.59,1.6l-2.79,1.2c0,.8-4.39,1.99-8.38,4.39l-8.38,4.79c-.8.4-3.59,2.79-7.98,5.98-11.17,7.58-27.53,25.13-29.13,31.12-.8,1.2-1.2,2.39-2.39,2.79-1.2,1.2-1.99,2-1.99,3.19s-1.2,2.39-2.39,3.99c-1.2,1.2-2.39,3.19-2.39,4.39l-1.2,4.79c-5.98,11.17-5.19,33.91,1.2,43.49,1.2,2,2,3.59,2,4.39,0,2.39,8.78,11.97,15.96,15.96,7.98,4.39,11.97,4.79,19.95,4.79,11.17-.4,17.95-1.6,28.73-7.18,23.14-11.97,39.5-26.33,55.46-57.45,3.19-6.38,3.59-17.16,3.59-24.34.8-4.79.8-9.18,1.99-9.18,1.2-1.6,4.79,1.2,5.98,4.39,3.59,7.58.4,23.14-4.39,31.52-1.6,2.39-1.6,3.19-7.18,11.57-1.6,2.39-3.59,4.79-3.99,4.79-1.2,0-1.2.4-1.2,1.6,0,4.79-31.12,34.71-36.71,34.71l-2.39,1.2c-4.79,3.59-21.94,9.57-30.32,10.77-7.98,2-19.95,2-22.34,0Z"/>
    <path d="M611.08,374.44s1.2,0,3.19.8c1.6,0,5.19,1.2,8.38,2.79,11.17,5.99,17.95,14.36,21.54,26.33,1.6,4.79,1.6,15.16-.8,23.94,0,3.19-5.98,23.54-10.77,36.71-1.2,2.79-8.78,17.16-9.58,18.35l-2.39,4.79c-2.79,4.79-8.78,14.36-9.97,15.16,0,0-.8.4-.8,1.2,0,0-2.39,4.79-6.38,9.58-4.39,4.79-6.78,9.57-6.78,9.97,0,.8-.4.8-.4.8-.8,0-1.99,1.6-2.39,3.59-1.2,1.6-2.39,3.59-3.19,3.99,0,.8-1.6,2-1.6,2.39-.8.8-1.99,3.19-4.39,4.79-1.2,3.19-2.39,4.79-2.79,5.98-2,3.19-10.77,19.95-13.17,23.94-1.2,3.19-4.39,4.79-4.39,5.59,0,0-1.2,2.39-2.39,3.99-.4,2.39-1.6,4.79-2.39,5.58-1.2,2.79-5.19,10.77-5.98,14.36-2.79,11.97-2.79,13.56-2.39,19.55,0,4.79.8,8.38,1.2,9.18,3.19,2.79,13.17,2.79,22.74-.8,5.59-1.6,24.74-13.56,27.13-15.56,0,0,.4-1.6,1.6-2.39,4.79-2.39,12.77-9.97,23.94-20.75,10.37-10.77,15.16-16.36,28.33-30.72l16.76-18.35c2.79-4.39,14.36-16.36,15.96-17.95,4.39-5.59,21.15-26.33,24.74-32.32,1.2-2.39,2.39-4.79,2.79-6.78,2.39-3.59,19.15-27.93,19.15-28.73.8,0,1.2-1.2,2.39-2.39.8-1.6,1.99-3.59,1.99-3.99,5.19-4.79,19.55-25.93,19.55-27.13,0,0,.8-1.6,2.39-3.59,2.39-1.6,4.39-4.79,4.79-5.98.8-.4,1.2-1.6,1.99-2.39,1.6-2.39,3.99-7.18,3.99-7.58,0-.8.8-2,1.99-2.39,1.6-2,3.99-2,12.37-.8.8.8,2,.8,2.39.8.8,0,2,1.2,2,2.39,1.2,2.79,1.2,3.59,0,4.79-.8.4-3.19,3.59-5.98,6.38-2,3.19-4.79,5.99-5.59,5.99-2.39,3.19-7.18,10.37-7.18,10.77,0,0-.4,1.2-1.2,2-1.2,1.2-2.39,2.79-2.79,3.99-.8,1.2-1.99,3.59-2.39,4.39-.8.4-1.2,1.2-1.2,1.6,0,.8-11.97,18.75-14.36,21.15-.8,1.2-1.2,2.79-2.39,3.99-.8,2-2,3.59-3.19,4.39-.4,1.2-1.2,2.39-1.2,2.79,0,.8,0,1.2-1.2,1.2q-.4,0-.4.8c0,.4-2.39,2.79-4.39,5.99-1.6,3.99-3.59,6.38-3.59,6.38,0,0-1.6,3.19-3.99,5.98-10.77,16.76-12.77,18.75-12.77,19.15,0,0-1.6,2.39-3.59,4.79-5.19,9.57-5.98,10.37-6.38,12.77,0,.4-.8,1.2-1.2,1.2,0,0-1.2,1.2-2,1.6,0,1.2-2.39,3.59-3.59,5.98-1.2,3.19-2.39,5.59-2.79,5.99-.8,1.99-3.19,5.59-10.37,17.55-6.38,8.78-11.17,16.76-29.13,44.29-10.37,17.16-22.74,34.71-24.74,36.31-1.2,1.2-2.39,3.59-3.59,5.59-7.58,11.17-33.51,42.29-37.5,45.88,0,.8-2.39,3.19-5.59,6.78-8.38,10.77-37.5,37.9-45.88,40.7-.8.8-2,1.2-2.39,1.99-1.99,1.2-19.15,9.58-22.74,10.77-8.38,2.39-11.57,2.79-15.56,3.99-10.77,2-27.53.8-34.71-2.79-7.98-3.59-13.96-11.97-13.96-19.95,0-10.37,4.79-21.54,8.38-18.75,1.2.8,1.2,2,.8,3.19-4.79,6.38-5.59,15.56-3.19,22.74,2,3.59,7.18,7.98,11.97,9.18,2.39.4,4.79,1.2,5.59,1.2,2.79,1.2,22.74.4,27.53-.8,9.58-1.6,25.14-9.97,32.32-17.16l7.18-5.59c3.99-2.39,7.18-5.99,8.38-7.18,1.2-2,2.79-3.59,4.79-5.59,1.2-1.2,1.6-2.79,1.6-2.79,0-.8.8-1.2,2-2.39,1.2-1.2,7.18-7.98,15.56-18.75,1.2-2.39,5.19-6.38,8.38-9.58,2.79-2.79,5.98-7.58,7.18-8.78,1.2-1.2,2.79-3.59,3.99-4.79,3.59-4.79,9.58-11.57,11.57-14.36,1.2-1.2,1.6-3.19,1.6-3.19.8-.4,3.19-3.99,7.18-9.97l5.59-9.18c1.6-2.39,2.79-3.99,2.79-4.79,0,0,3.19-2.39,4.79-5.19,2.39-4.39,4.39-6.78,4.39-7.18l2.39-3.59c1.2-2.39,4.79-6.78,6.38-9.18,2-3.59,4.39-7.18,4.79-7.18,0,0,.8-.4.8-1.2l3.59-5.19c1.6-3.19,3.59-5.98,3.99-7.18,0-.8.8-2,1.2-2q.8,0,.8-1.2s2.39-4.79,5.19-8.38c3.59-3.99,8.38-13.56,13.17-19.55l7.18-11.97c1.2-.8,1.2-1.2,1.2-1.99,0,0,1.99-1.2,3.19-2.39.4-1.2,1.6-2.39,1.6-2.79,0,0,.8-1.2,2-2.39.4-2,1.6-3.59,2.39-4.79.4-1.2,1.2-2,2.39-2,.4,0,.4-1.2,1.2-1.6q0-2-.8-2c-.4.8-1.6.8-1.6,2,0,.4-2,2.39-7.98,9.97-5.98,4.79-7.18,6.78-9.58,10.77l-3.99,4.79c-1.2.8-3.59,3.59-5.98,6.78-2.39,2.79-4.79,5.19-4.79,5.19-.8.8-3.59,3.59-5.98,6.78-26.33,29.13-51.07,51.87-64.24,59.85-2.39.4-3.99,1.6-3.99,2.39-.8,0-2.39.4-3.59.4-1.2.8-2.39,1.2-2.39,1.2,0,1.2-11.97,5.58-12.77,4.79-.4,0-2.39,0-3.99.8-5.59,2.39-16.36-3.19-19.95-9.18-2.39-2.79-3.99-11.17-4.79-17.16-.4-2-.4-4.39-1.2-5.59-.4-2.39,2-13.17,4.39-17.95,6.38-13.17,9.57-17.95,9.97-19.15.8-.4,1.2-1.2,1.2-1.6,0,0,2-2,2.39-3.59,1.2-2,3.19-4.79,4.39-7.18,1.2-2.39,2.79-4.79,3.59-5.59,3.59-2.79,5.19-5.99,6.38-8.78.8-1.2,2-4.39,3.59-5.98,1.2-2,2.39-3.59,2.39-4.79,0-.8,5.98-8.38,6.78-9.57.4,0,.4-.8,1.2-2,0-.4,1.6-2.39,2.79-3.99.8-1.2,3.19-3.59,3.59-4.79,6.78-11.97,11.97-20.35,12.77-20.35q.4-.8.4-1.2c0-.8,1.99-2.39,3.19-4.79,1.2-2.39,2.39-3.59,2.39-4.39,0,0,1.2-2.79,2.79-5.19,3.59-5.59,14.36-26.33,17.56-33.51,1.6-4.79,3.59-13.17,3.99-19.95,1.2-8.38-2.79-26.33-6.38-31.52-3.59-3.19-5.98-4.79-13.17-7.18-7.98-3.19-15.56-3.19-29.52-.8-5.98.8-21.94,5.59-26.33,7.98-.4.4-3.99,1.6-6.38,3.59-4.39,1.6-9.57,3.99-21.54,12.37l-7.18,4.79c-2.39,2-5.98,4.39-7.18,5.99-10.37,6.78-33.51,33.11-37.1,40.3l-1.2,1.6c-.8,0-.8.8-.8,1.2,0,.8-.4,1.2-1.2,1.2,0,0-.4,0-.4.8,0,1.2-.8,2.39-1.99,3.99-1.6,2-3.99,5.98-7.58,13.17-2,2.39-3.19,5.58-3.19,5.98-1.2,0-1.6,2.39-2.39,4.39l-1.2,3.99c-.4,1.2-2.79,8.38-3.59,11.97,0,.8-.4,2.39-.4,4.39-.8,1.2-.8,5.19-.8,8.78,0,9.18.8,12.77,4.79,18.75,2.39,2.79,4.39,3.99,9.18,7.18,5.19,1.6,7.18,2.39,13.56,1.6,9.58,0,16.76-1.6,26.33-7.18,13.17-5.99,28.33-20.35,38.3-34.71l4.79-8.38c5.98-8.38,12.77-27.93,13.17-37.1,1.2-7.18-1.2-9.97-3.99-5.99q-1.2,2-2,0c-.4-1.2,1.2-5.19,3.19-5.98,6.38-1.2,9.57,8.38,6.38,21.54-1.6,7.18-11.17,29.52-14.76,32.32-.8.8-.8,2-.8,2,0,1.6-9.97,14.36-14.36,19.15-1.2,1.2-1.6,2.79-2.39,3.59-2.39,3.99-21.54,15.96-31.12,20.75-11.17,4.39-26.73,5.59-35.91,2.39-5.98-1.6-13.56-8.78-15.96-13.56-3.59-7.98-4.39-18.75-.8-29.92,1.2-3.59,2-7.18,2-8.38,1.2-5.59,5.98-16.36,9.97-23.54,1.2-2.39,2.39-4.79,2.39-5.19,0-.8,1.2-1.2,1.99-1.2,0,0,.4,0,.4-.8,0-1.6,4.39-7.58,17.56-25.13,3.99-5.19,27.53-28.73,28.73-28.73.4,0,1.2-.4,1.6-1.6,1.2-1.2,20.35-14.36,27.53-18.75,4.79-2.39,19.95-8.78,22.34-9.57,0,0,1.6-1.2,2.39-1.2,3.59-1.2,15.56-3.59,20.35-3.99,3.59,0,5.98-.8,5.98-.8.4-.4,15.96.8,15.96,1.2Z"/>
  </g>
  <path d="M500,927.22c-201.09,0-364.68-194.3-364.68-433.14S298.91,60.94,500,60.94s364.68,194.31,364.68,433.14-163.59,433.14-364.68,433.14ZM500,69.2c-196.53,0-356.43,190.6-356.43,424.89s159.89,424.88,356.43,424.88,356.43-190.6,356.43-424.88S696.53,69.2,500,69.2Z"/>
  <path d="M500,965.32c-218.74,0-396.71-211.39-396.71-471.24S281.26,22.85,500,22.85s396.71,211.4,396.71,471.24-177.96,471.24-396.71,471.24ZM500,31.1c-214.19,0-388.45,207.69-388.45,462.99s174.26,462.98,388.45,462.98,388.45-207.69,388.45-462.98S714.19,31.1,500,31.1Z"/>
</svg>