<?xml version="1.0" encoding="UTF-8"?>
<svg id="Layer_1" data-name="Layer 1" xmlns="http://www.w3.org/2000/svg" viewBox="0 0 1000 675.44">
  <g>
    <path d="M33.13,583.03l3.23.77v.56h-8.91v-.56l3.41-.77-9.24-23.25h.83l-8.95,23.25,3.35.77v.56h-7.99v-.56l3.27-.77,10.04-25.65h.61l10.34,25.65ZM16.35,573.76v-1.23h12v1.23h-12Z"/>
    <path d="M45.05,557.77v25.25l3.57.77v.56h-9.01v-.56l3.31-.77v-23.92l-3.31-.77v-.56h5.44ZM49.59,570.17c1.76,0,3.2-.48,4.33-1.43,1.13-.95,1.7-2.35,1.7-4.2,0-1.15-.27-2.14-.79-2.96-.53-.82-1.4-1.45-2.62-1.88-1.22-.43-2.87-.65-4.96-.65h-4.17l-.3-1.27h5.95c2.21,0,3.98.3,5.33.88,1.34.59,2.32,1.38,2.93,2.38.61,1,.91,2.12.91,3.36,0,1.1-.25,2.1-.74,3-.5.9-1.23,1.65-2.19,2.25-.97.6-2.14,1.01-3.53,1.24v-.14c.83.04,1.53.2,2.09.47s1.06.71,1.49,1.31c.43.6.85,1.42,1.26,2.45l2.26,5.59c.37.91.7,1.59,1,2.02.3.44.65.72,1.05.85s.92.2,1.56.2v.72c-.98.07-1.77.09-2.37.06s-1.09-.15-1.48-.39-.72-.6-1.02-1.11c-.3-.51-.62-1.22-.98-2.12l-2.08-5.26c-.41-1.06-.79-1.88-1.14-2.48-.35-.6-.75-1.01-1.19-1.26-.44-.24-1.03-.37-1.76-.37h-6.82l-.14-1.27h6.43Z"/>
    <path d="M85.54,559.05h-19.76l1.33-.32-2.36,6.19-.63-.12.87-8.31h.28l2.06,1.53-1.09-.24h18.83l-1.07.24,2.06-1.53h.28l.85,8.29-.63.14-2.34-6.19,1.33.32ZM74.59,558.39h2.12v24.64l3.31.77v.56h-8.75v-.56l3.31-.77v-24.64Z"/>
    <path d="M97,557.77v25.25l3.31.77v.56h-8.75v-.56l3.31-.77v-23.92l-3.31-.77v-.56h5.44ZM109.54,556.96h.22l1.09,7.75-.62.12-2.78-6.19,1.73.4h-14.06v-1.27h12.66l1.77-.81ZM106.66,565.77l-.16,5.28.16,5.26h-.85l-.81-4.6-8.97-.06v-1.19l8.97-.1.81-4.58h.85Z"/>
    <path d="M137.05,574.26v-15.15l-3.31-.77v-.56h7.93v.56l-3.31.77v15.1c0,2.37-.4,4.33-1.2,5.9-.8,1.57-1.94,2.74-3.43,3.5-1.49.77-3.28,1.15-5.37,1.15-2.22,0-4.11-.41-5.66-1.23-1.55-.82-2.74-2.06-3.54-3.71-.81-1.65-1.21-3.72-1.21-6.21v-14.5l-3.31-.77v-.56h8.75v.56l-3.31.77v14.44c0,2.08.32,3.83.95,5.26.63,1.43,1.58,2.51,2.85,3.25,1.26.73,2.85,1.1,4.75,1.1,1.8,0,3.32-.31,4.57-.93,1.25-.62,2.2-1.59,2.87-2.9.66-1.31.99-3,.99-5.06Z"/>
    <path d="M151.61,559.11v25.25h-5.44v-.56l3.31-.77v-23.92l-3.31-.77v-.56h8.75v.56l-3.31.77ZM164.86,585.37h-.26l-1.81-1.01h-12.34v-1.27h13.75l-1.73.57,3.35-6.56.58.16-1.55,8.11Z"/>
    <path d="M189.12,583.8v.56h-8.75v-.56l3.31-.77v-23.92l-3.31-.77v-.56h8.75v.56l-3.31.77v23.92l3.31.77Z"/>
    <path d="M225.1,583.03l3.31.77v.56h-8.71v-.56l3.31-.77-1.61-23.41.28.06-11.01,25.07h-.65l-10.65-24.97.26-.04-1.57,23.29,3.29.77v.56h-7.89v-.56l3.31-.77,1.77-23.8-3.47-.89v-.56h5.71l10.3,24.24-.46-.02,10.67-24.22h5.65v.56l-3.55.77,1.71,23.92Z"/>
    <path d="M255.33,583.03l3.23.77v.56h-8.91v-.56l3.41-.77-9.24-23.25h.83l-8.95,23.25,3.35.77v.56h-7.99v-.56l3.27-.77,10.04-25.65h.61l10.34,25.65ZM238.55,573.76v-1.23h12v1.23h-12Z"/>
    <path d="M283.36,581.58l.77,1.13v.04c-.81.41-1.69.76-2.66,1.06-.97.3-1.98.53-3.05.7s-2.17.25-3.31.25c-2.01,0-3.89-.3-5.63-.9-1.74-.6-3.28-1.48-4.59-2.65-1.31-1.16-2.34-2.59-3.08-4.27-.74-1.69-1.11-3.61-1.11-5.78,0-2.79.58-5.22,1.75-7.28,1.17-2.07,2.85-3.66,5.04-4.79,2.19-1.13,4.79-1.7,7.81-1.7,1.04,0,2.05.09,3.02.26.97.17,2.04.44,3.2.79l-1.21-.06,1.69-1.59h.24l1.33,8.69-.66.14-3.02-6.43,1.79,1.75c-1.32-.82-2.56-1.41-3.7-1.77-1.14-.36-2.38-.54-3.72-.54-1.79,0-3.38.26-4.77.76-1.39.51-2.58,1.26-3.54,2.24-.97.99-1.7,2.2-2.2,3.63-.5,1.43-.75,3.08-.75,4.95,0,2.9.54,5.34,1.62,7.33,1.08,1.99,2.53,3.5,4.36,4.53,1.83,1.03,3.89,1.55,6.18,1.55.85,0,1.72-.08,2.61-.25s1.71-.4,2.46-.71c.75-.3,1.31-.66,1.7-1.07l-.67,1.45v-9.2l-4.07-.81v-.56h8.75v.56l-2.56.77v7.78Z"/>
    <path d="M290.52,584.36v-.56l3.31-.77v-23.92l-3.31-.77v-.56h5.44v26.58h-5.44ZM310.72,564.72l-.63.12-2.78-6.19,1.13.4h-14.12v-1.27h13.29l1.77-.81h.24l1.11,7.75ZM307.74,583.64l3.23-6.39.58.16-1.49,7.95h-.22l-1.77-1.01h-13.77v-1.27h14.44l-1.01.55ZM305.7,565.16l-.16,5.28.16,5.26h-.85l-.81-4.6-9.08-.06v-1.19l9.08-.1.81-4.58h.85Z"/>
    <path d="M321.79,557.77v25.25l3.57.77v.56h-9.01v-.56l3.31-.77v-23.92l-3.31-.77v-.56h5.44ZM326.33,570.17c1.76,0,3.2-.48,4.33-1.43,1.13-.95,1.7-2.35,1.7-4.2,0-1.15-.27-2.14-.79-2.96-.53-.82-1.4-1.45-2.62-1.88-1.22-.43-2.87-.65-4.96-.65h-4.17l-.3-1.27h5.95c2.21,0,3.98.3,5.33.88,1.34.59,2.32,1.38,2.93,2.38.61,1,.91,2.12.91,3.36,0,1.1-.25,2.1-.74,3s-1.23,1.65-2.19,2.25c-.97.6-2.14,1.01-3.53,1.24v-.14c.83.04,1.53.2,2.09.47s1.06.71,1.49,1.31c.43.6.85,1.42,1.26,2.45l2.26,5.59c.37.91.7,1.59,1,2.02.3.44.65.72,1.05.85s.92.2,1.56.2v.72c-.98.07-1.77.09-2.37.06s-1.09-.15-1.48-.39-.72-.6-1.02-1.11c-.3-.51-.62-1.22-.98-2.12l-2.08-5.26c-.41-1.06-.79-1.88-1.14-2.48-.35-.6-.75-1.01-1.19-1.26-.44-.24-1.03-.37-1.76-.37h-6.82l-.14-1.27h6.43Z"/>
    <path d="M341.98,559.11l-3.23-.77v-.56h9.24v.56l-3.37.77,8.83,13.13-.85-.02,7.52-13.11-3.35-.77v-.56h8.05v.56l-3.29.77-8.05,13.63v10.3l3.31.77v.56h-8.75v-.56l3.31-.77v-10.22l-9.36-13.7Z"/>
    <path d="M383.66,557.77v25.25l3.31.77v.56h-8.75v-.56l3.31-.77v-23.92l-3.31-.77v-.56h5.44ZM396.19,556.96h.22l1.09,7.75-.62.12-2.78-6.19,1.73.4h-14.06v-1.27h12.66l1.77-.81ZM393.32,565.77l-.16,5.28.16,5.26h-.85l-.81-4.6-8.97-.06v-1.19l8.97-.1.81-4.58h.85Z"/>
    <path d="M414.6,557.38c1.88,0,3.61.34,5.2,1.01,1.59.68,2.97,1.62,4.15,2.85s2.09,2.67,2.74,4.33c.65,1.67.97,3.49.97,5.48s-.31,3.81-.94,5.48c-.63,1.67-1.52,3.12-2.66,4.36-1.14,1.23-2.49,2.18-4.05,2.85-1.55.68-3.26,1.01-5.13,1.01s-3.59-.34-5.19-1.01c-1.59-.67-2.98-1.62-4.16-2.84-1.18-1.23-2.09-2.67-2.74-4.34-.65-1.66-.97-3.49-.97-5.47s.31-3.81.94-5.49c.63-1.67,1.51-3.12,2.66-4.35s2.5-2.18,4.06-2.86c1.56-.68,3.27-1.01,5.12-1.01ZM414.9,583.54c2.19,0,4.07-.51,5.62-1.54,1.55-1.02,2.75-2.45,3.58-4.28.83-1.82,1.25-3.93,1.25-6.31,0-2.67-.46-4.97-1.39-6.88-.93-1.92-2.2-3.39-3.82-4.41-1.62-1.02-3.47-1.54-5.56-1.54s-4.05.51-5.61,1.54c-1.56,1.02-2.76,2.45-3.59,4.26-.83,1.82-1.25,3.92-1.25,6.32,0,2.67.46,4.97,1.39,6.88.93,1.92,2.2,3.39,3.82,4.42,1.62,1.02,3.47,1.54,5.56,1.54Z"/>
    <path d="M438.13,557.77v25.25l3.57.77v.56h-9.01v-.56l3.31-.77v-23.92l-3.31-.77v-.56h5.44ZM442.67,570.17c1.76,0,3.2-.48,4.33-1.43,1.13-.95,1.7-2.35,1.7-4.2,0-1.15-.27-2.14-.79-2.96-.53-.82-1.4-1.45-2.62-1.88-1.22-.43-2.87-.65-4.96-.65h-4.17l-.3-1.27h5.95c2.21,0,3.98.3,5.33.88,1.34.59,2.32,1.38,2.93,2.38.61,1,.91,2.12.91,3.36,0,1.1-.25,2.1-.74,3s-1.23,1.65-2.19,2.25c-.97.6-2.14,1.01-3.53,1.24v-.14c.83.04,1.53.2,2.09.47s1.06.71,1.49,1.31c.43.6.85,1.42,1.26,2.45l2.26,5.59c.37.91.7,1.59,1,2.02.3.44.65.72,1.05.85s.92.2,1.56.2v.72c-.98.07-1.77.09-2.37.06s-1.09-.15-1.48-.39-.72-.6-1.02-1.11c-.3-.51-.62-1.22-.98-2.12l-2.08-5.26c-.41-1.06-.79-1.88-1.14-2.48-.35-.6-.75-1.01-1.19-1.26-.44-.24-1.03-.37-1.76-.37h-6.82l-.14-1.27h6.43Z"/>
    <path d="M477.54,583.8v.56h-8.75v-.56l3.31-.77v-23.92l-3.31-.77v-.56h8.75v.56l-3.31.77v23.92l3.31.77Z"/>
    <path d="M485.93,583.03v-23.73l-3.53-.97v-.56h5.59l17.38,23.86-.89,1.05v-23.58l-3.41-.77v-.56h8.03v.56l-3.31.77v25.65h-.71l-18.45-25.23.61-.43v23.94l3.39.77v.56h-8.01v-.56l3.31-.77Z"/>
    <path d="M534.65,559.05h-19.76l1.33-.32-2.36,6.19-.63-.12.87-8.31h.28l2.06,1.53-1.09-.24h18.83l-1.07.24,2.06-1.53h.28l.85,8.29-.63.14-2.34-6.19,1.33.32ZM523.7,558.39h2.12v24.64l3.31.77v.56h-8.75v-.56l3.31-.77v-24.64Z"/>
    <path d="M549.42,583.8v.56h-8.75v-.56l3.31-.77v-23.92l-3.31-.77v-.56h8.75v.56l-3.31.77v23.92l3.31.77Z"/>
    <path d="M585.41,583.03l3.31.77v.56h-8.71v-.56l3.31-.77-1.61-23.41.28.06-11.01,25.07h-.65l-10.65-24.97.26-.04-1.57,23.29,3.29.77v.56h-7.89v-.56l3.31-.77,1.77-23.8-3.47-.89v-.56h5.71l10.3,24.24-.46-.02,10.67-24.22h5.65v.56l-3.55.77,1.71,23.92Z"/>
    <path d="M615.64,583.03l3.23.77v.56h-8.91v-.56l3.41-.77-9.24-23.25h.83l-8.95,23.25,3.35.77v.56h-7.99v-.56l3.27-.77,10.04-25.65h.61l10.34,25.65ZM598.86,573.76v-1.23h12v1.23h-12Z"/>
    <path d="M638.83,559.05h-19.76l1.33-.32-2.36,6.19-.63-.12.87-8.31h.28l2.06,1.53-1.09-.24h18.83l-1.07.24,2.06-1.53h.28l.85,8.29-.63.14-2.34-6.19,1.33.32ZM627.88,558.39h2.12v24.64l3.31.77v.56h-8.75v-.56l3.31-.77v-24.64Z"/>
    <path d="M644.86,584.36v-.56l3.31-.77v-23.92l-3.31-.77v-.56h5.44v26.58h-5.44ZM665.05,564.72l-.63.12-2.78-6.19,1.13.4h-14.12v-1.27h13.29l1.77-.81h.24l1.11,7.75ZM662.08,583.64l3.23-6.39.58.16-1.49,7.95h-.22l-1.77-1.01h-13.77v-1.27h14.44l-1.01.55ZM660.03,565.16l-.16,5.28.16,5.26h-.85l-.81-4.6-9.08-.06v-1.19l9.08-.1.81-4.58h.85Z"/>
    <path d="M697.78,560.28l-9.01,24.48h-.61l-6.19-25.65-3.23-.77v-.56h8.83v.56l-3.43.77,5.33,22.53-.79.12,8.85-24.38h.64l8.37,24.56-1.07.4,5.59-23.23-3.41-.77v-.56h7.93v.56l-3.23.77-6.37,25.65h-.61l-8.31-24.22.73-.26Z"/>
    <path d="M718.97,584.36v-.56l3.31-.77v-23.92l-3.31-.77v-.56h5.44v26.58h-5.44ZM739.16,564.72l-.63.12-2.78-6.19,1.13.4h-14.12v-1.27h13.29l1.77-.81h.24l1.11,7.75ZM736.18,583.64l3.23-6.39.58.16-1.49,7.95h-.22l-1.77-1.01h-13.77v-1.27h14.44l-1.01.55ZM734.14,565.16l-.16,5.28.16,5.26h-.85l-.81-4.6-9.08-.06v-1.19l9.08-.1.81-4.58h.85Z"/>
    <path d="M744.79,584.36v-.56l3.31-.77v-23.92l-3.31-.77v-.56h5.44v26.58h-5.44ZM767.68,570.73c0-3.91-1.24-6.84-3.71-8.78-2.47-1.94-5.93-2.91-10.37-2.91h-5.02l.24-1.27h5.79c3.4,0,6.23.49,8.51,1.46,2.27.97,3.99,2.41,5.15,4.3,1.16,1.9,1.73,4.23,1.73,7.01,0,3-.67,5.53-2,7.58-1.33,2.05-3.15,3.6-5.46,4.65-2.3,1.05-4.9,1.58-7.81,1.58h-5.91l-.24-1.27h5.57c2.74,0,5.12-.42,7.15-1.26,2.03-.84,3.6-2.17,4.71-3.99,1.11-1.82,1.67-4.19,1.67-7.11Z"/>
    <path d="M775.02,584.36v-.56l3.31-.77v-23.92l-3.31-.77v-.56h5.44v26.58h-5.44ZM797.92,570.73c0-3.91-1.24-6.84-3.71-8.78-2.47-1.94-5.93-2.91-10.37-2.91h-5.02l.24-1.27h5.79c3.4,0,6.23.49,8.51,1.46,2.27.97,3.99,2.41,5.15,4.3,1.16,1.9,1.73,4.23,1.73,7.01,0,3-.67,5.53-2,7.58-1.33,2.05-3.15,3.6-5.46,4.65-2.3,1.05-4.9,1.58-7.81,1.58h-5.91l-.24-1.27h5.57c2.74,0,5.12-.42,7.15-1.26,2.03-.84,3.6-2.17,4.71-3.99,1.11-1.82,1.67-4.19,1.67-7.11Z"/>
    <path d="M814,583.8v.56h-8.75v-.56l3.31-.77v-23.92l-3.31-.77v-.56h8.75v.56l-3.31.77v23.92l3.31.77Z"/>
    <path d="M822.39,583.03v-23.73l-3.53-.97v-.56h5.59l17.38,23.86-.89,1.05v-23.58l-3.41-.77v-.56h8.03v.56l-3.31.77v25.65h-.71l-18.45-25.23.61-.43v23.94l3.39.77v.56h-8.01v-.56l3.31-.77Z"/>
    <path d="M873.07,581.58l.77,1.13v.04c-.81.41-1.69.76-2.66,1.06-.97.3-1.98.53-3.05.7s-2.17.25-3.31.25c-2.01,0-3.89-.3-5.63-.9-1.74-.6-3.28-1.48-4.59-2.65-1.31-1.16-2.34-2.59-3.08-4.27-.74-1.69-1.11-3.61-1.11-5.78,0-2.79.58-5.22,1.75-7.28,1.17-2.07,2.85-3.66,5.04-4.79,2.19-1.13,4.79-1.7,7.81-1.7,1.04,0,2.05.09,3.02.26.97.17,2.04.44,3.2.79l-1.21-.06,1.69-1.59h.24l1.33,8.69-.66.14-3.02-6.43,1.79,1.75c-1.32-.82-2.56-1.41-3.7-1.77-1.14-.36-2.38-.54-3.72-.54-1.79,0-3.38.26-4.77.76-1.39.51-2.58,1.26-3.54,2.24s-1.7,2.2-2.2,3.63c-.5,1.43-.75,3.08-.75,4.95,0,2.9.54,5.34,1.62,7.33,1.08,1.99,2.53,3.5,4.36,4.53,1.83,1.03,3.89,1.55,6.18,1.55.85,0,1.72-.08,2.61-.25s1.71-.4,2.46-.71c.75-.3,1.31-.66,1.7-1.07l-.67,1.45v-9.2l-4.07-.81v-.56h8.75v.56l-2.56.77v7.78Z"/>
    <path d="M891.14,584.36v-.56l3.31-.77v-23.92l-3.31-.77v-.56h5.44v26.58h-5.44ZM914.04,570.73c0-3.91-1.24-6.84-3.71-8.78-2.47-1.94-5.93-2.91-10.37-2.91h-5.02l.24-1.27h5.79c3.4,0,6.23.49,8.51,1.46,2.27.97,3.99,2.41,5.15,4.3,1.16,1.9,1.73,4.23,1.73,7.01,0,3-.67,5.53-2,7.58-1.33,2.05-3.15,3.6-5.46,4.65-2.3,1.05-4.9,1.58-7.81,1.58h-5.91l-.24-1.27h5.57c2.74,0,5.12-.42,7.15-1.26,2.03-.84,3.6-2.17,4.71-3.99,1.11-1.82,1.67-4.19,1.67-7.11Z"/>
    <path d="M942.52,583.03l3.23.77v.56h-8.91v-.56l3.41-.77-9.24-23.25h.83l-8.95,23.25,3.35.77v.56h-7.99v-.56l3.27-.77,10.04-25.65h.61l10.34,25.65ZM925.74,573.76v-1.23h12v1.23h-12Z"/>
    <path d="M946.59,559.11l-3.23-.77v-.56h9.24v.56l-3.37.77,8.83,13.13-.85-.02,7.52-13.11-3.35-.77v-.56h8.05v.56l-3.29.77-8.05,13.63v10.3l3.31.77v.56h-8.75v-.56l3.31-.77v-10.22l-9.36-13.7Z"/>
    <path d="M986.89,558.87l-1.63-.46,1.61-1.63h.24l1.27,8.47-.61.1-2.84-6.17,1.37,1.62c-1.02-.9-1.95-1.52-2.79-1.87-.84-.35-1.73-.53-2.67-.53-1.84,0-3.22.45-4.15,1.36-.92.91-1.39,2.01-1.39,3.31,0,.93.18,1.71.54,2.35.36.64.85,1.19,1.48,1.65.63.45,1.34.86,2.13,1.21.79.35,1.62.7,2.48,1.04.87.34,1.73.72,2.59,1.11s1.64.88,2.35,1.46c.71.57,1.29,1.29,1.72,2.13.43.85.65,1.88.65,3.11,0,1.68-.38,3.08-1.13,4.2-.75,1.12-1.8,1.97-3.13,2.55-1.34.57-2.9.86-4.68.86-1.2,0-2.28-.08-3.21-.23s-1.9-.41-2.9-.78l-1.55-6.68h.79l3.67,6.78-2.34-1.6c.95.54,1.86.91,2.74,1.11s1.76.3,2.66.3c1.45,0,2.73-.2,3.83-.59,1.1-.4,1.95-1.01,2.57-1.86.61-.84.92-1.91.92-3.22,0-1.1-.23-2.01-.67-2.75-.45-.73-1.04-1.35-1.79-1.85-.74-.49-1.55-.92-2.42-1.28-.87-.36-1.74-.72-2.6-1.07-.86-.36-1.67-.74-2.44-1.15-.77-.41-1.44-.88-2.02-1.42-.58-.53-1.04-1.18-1.37-1.93-.33-.75-.5-1.65-.5-2.7,0-1.3.3-2.43.9-3.39.6-.97,1.47-1.72,2.6-2.25,1.13-.54,2.47-.8,4.02-.8,1.14,0,2.15.13,3.05.39.89.26,1.78.63,2.67,1.1Z"/>
  </g>
  <g>
    <g>
      <path d="M254.25,71.96l-1.38-.39,1.37-1.38h.2l1.08,7.2-.52.09-2.41-5.25,1.16,1.38c-.87-.77-1.66-1.3-2.37-1.59-.72-.3-1.47-.45-2.27-.45-1.56,0-2.74.39-3.53,1.16-.79.77-1.18,1.71-1.18,2.81,0,.79.15,1.45.45,2,.3.55.72,1.01,1.26,1.4.53.39,1.14.73,1.81,1.03.68.3,1.38.59,2.11.89.74.29,1.48.61,2.2.95.73.34,1.39.75,2,1.24.61.49,1.09,1.09,1.46,1.81.37.72.55,1.6.55,2.65,0,1.43-.32,2.62-.96,3.58-.64.96-1.53,1.68-2.67,2.17-1.14.49-2.46.73-3.98.73-1.02,0-1.93-.06-2.73-.19-.8-.13-1.62-.35-2.46-.67l-1.32-5.68h.68l3.12,5.77-1.99-1.37c.81.46,1.59.78,2.33.95.74.17,1.5.25,2.26.25,1.24,0,2.32-.17,3.26-.51.93-.34,1.66-.86,2.18-1.58.52-.71.78-1.63.78-2.74,0-.93-.19-1.71-.57-2.34-.38-.62-.89-1.15-1.52-1.57-.63-.42-1.32-.78-2.06-1.09-.74-.3-1.48-.61-2.21-.91-.73-.3-1.42-.63-2.07-.98-.65-.35-1.23-.75-1.72-1.21-.49-.45-.88-1-1.16-1.64-.28-.64-.42-1.41-.42-2.29,0-1.1.26-2.07.77-2.89.51-.82,1.25-1.46,2.21-1.91.96-.45,2.1-.68,3.42-.68.97,0,1.83.11,2.59.33.76.22,1.52.53,2.27.94Z"/>
      <path d="M268.32,93.16v.47h-7.44v-.47l2.82-.66v-20.35l-2.82-.66v-.47h7.44v.47l-2.82.66v20.35l2.82.66Z"/>
      <path d="M275.45,92.51v-20.18l-3-.82v-.47h4.76l14.78,20.3-.76.89v-20.06l-2.9-.66v-.47h6.83v.47l-2.82.66v21.81h-.61l-15.69-21.46.52-.37v20.36l2.88.66v.47h-6.82v-.47l2.82-.66Z"/>
      <path d="M311.66,92.99c.96,0,1.91-.1,2.85-.3.95-.2,1.82-.51,2.63-.93l-.96.93,2.21-4.71h.61l-.68,4.74c-.8.36-1.8.66-2.99.89s-2.43.35-3.69.35c-1.78,0-3.42-.25-4.93-.77-1.51-.51-2.82-1.26-3.93-2.25-1.11-.99-1.98-2.2-2.59-3.63-.61-1.44-.92-3.07-.92-4.92,0-2.37.51-4.44,1.53-6.19,1.02-1.75,2.47-3.11,4.36-4.07,1.89-.96,4.13-1.44,6.73-1.44.84,0,1.68.07,2.5.21.82.14,1.74.37,2.75.68l-.95-.07,1.4-1.33h.19l1.15,7.39-.56.12-2.5-5.32,1.16,1.13c-1.15-.64-2.18-1.09-3.1-1.36-.92-.26-1.89-.4-2.93-.4-1.52,0-2.88.22-4.08.66-1.2.44-2.23,1.08-3.09,1.93-.86.85-1.51,1.89-1.96,3.14-.45,1.24-.68,2.66-.68,4.24,0,1.81.27,3.42.81,4.82.54,1.4,1.28,2.58,2.23,3.54.95.96,2.06,1.68,3.32,2.17s2.62.74,4.07.74Z"/>
      <path d="M323.4,93.64v-.47l2.82-.66v-20.35l-2.82-.66v-.47h4.62v22.61h-4.62ZM340.58,76.93l-.54.1-2.36-5.27.96.34h-12.01v-1.08h11.3l1.5-.69h.2l.95,6.6ZM338.05,93.03l2.75-5.43.49.14-1.27,6.77h-.19l-1.5-.86h-11.71v-1.08h12.28l-.86.47ZM336.31,77.3l-.14,4.49.14,4.47h-.72l-.69-3.91-7.73-.05v-1.01l7.73-.08.69-3.9h.72Z"/>
    </g>
    <g>
      <path d="M666.63,92.39l2.58-4.37h.46l-1.11,5.94h-.27l-1.6-.32h-11.47v-.32l6.45-7.76c1.23-1.49,2.18-2.74,2.85-3.78.68-1.03,1.15-1.94,1.41-2.72.27-.77.4-1.5.4-2.17,0-1.39-.42-2.51-1.25-3.35-.83-.84-1.99-1.26-3.47-1.26-.86,0-1.67.15-2.45.46s-1.46.84-2.06,1.59c-.6.75-1.07,1.79-1.44,3.12l-.67-.1c.53-2.23,1.42-3.89,2.67-5,1.25-1.11,2.78-1.66,4.61-1.66,1.21,0,2.27.24,3.16.72.89.48,1.59,1.15,2.08,2.01.49.86.74,1.84.74,2.95,0,.68-.08,1.32-.23,1.93-.15.62-.43,1.27-.84,1.97-.41.7-.98,1.51-1.71,2.44-.74.93-1.69,2.05-2.86,3.36l-5.89,6.6.05-.69h10.6l-.73.41Z"/>
      <path d="M682.62,70.69c1.6,0,2.99.48,4.17,1.46,1.19.97,2.11,2.33,2.77,4.07.66,1.74.99,3.76.99,6.08s-.33,4.35-.99,6.11c-.66,1.75-1.58,3.12-2.77,4.1-1.19.98-2.58,1.47-4.17,1.47s-2.96-.48-4.15-1.46c-1.19-.98-2.12-2.33-2.78-4.08-.66-1.74-1-3.77-1-6.07s.33-4.35,1-6.11c.66-1.75,1.59-3.12,2.78-4.1,1.19-.98,2.58-1.47,4.15-1.47ZM682.68,93.03c1.25,0,2.32-.4,3.2-1.21.89-.8,1.57-1.97,2.05-3.49.48-1.53.72-3.35.72-5.49,0-1.77-.14-3.34-.41-4.72-.28-1.38-.68-2.56-1.21-3.52-.53-.96-1.17-1.69-1.92-2.2-.75-.51-1.59-.76-2.54-.76-1.25,0-2.32.4-3.21,1.21-.89.81-1.58,1.97-2.06,3.49-.48,1.52-.72,3.35-.72,5.48,0,1.77.14,3.34.42,4.73.28,1.38.68,2.56,1.21,3.53.52.97,1.16,1.7,1.91,2.2.75.5,1.6.75,2.55.75Z"/>
      <path d="M707.12,92.39l2.58-4.37h.46l-1.11,5.94h-.27l-1.6-.32h-11.47v-.32l6.45-7.76c1.23-1.49,2.18-2.74,2.85-3.78.68-1.03,1.15-1.94,1.41-2.72.27-.77.4-1.5.4-2.17,0-1.39-.42-2.51-1.25-3.35-.83-.84-1.99-1.26-3.47-1.26-.86,0-1.67.15-2.45.46s-1.46.84-2.06,1.59c-.6.75-1.07,1.79-1.44,3.12l-.67-.1c.53-2.23,1.42-3.89,2.67-5,1.25-1.11,2.78-1.66,4.61-1.66,1.21,0,2.27.24,3.16.72.89.48,1.59,1.15,2.08,2.01.49.86.74,1.84.74,2.95,0,.68-.08,1.32-.23,1.93-.15.62-.43,1.27-.84,1.97-.41.7-.98,1.51-1.71,2.44-.74.93-1.69,2.05-2.86,3.36l-5.89,6.6.05-.69h10.6l-.73.41Z"/>
      <path d="M727.36,92.39l2.58-4.37h.46l-1.11,5.94h-.27l-1.6-.32h-11.47v-.32l6.45-7.76c1.23-1.49,2.18-2.74,2.85-3.78.68-1.03,1.15-1.94,1.41-2.72.27-.77.4-1.5.4-2.17,0-1.39-.42-2.51-1.25-3.35-.83-.84-1.99-1.26-3.47-1.26-.86,0-1.67.15-2.45.46s-1.46.84-2.06,1.59c-.6.75-1.07,1.79-1.44,3.12l-.67-.1c.53-2.23,1.42-3.89,2.67-5,1.25-1.11,2.78-1.66,4.61-1.66,1.21,0,2.27.24,3.16.72.89.48,1.59,1.15,2.08,2.01.49.86.74,1.84.74,2.95,0,.68-.08,1.32-.23,1.93-.15.62-.43,1.27-.84,1.97-.41.7-.98,1.51-1.71,2.44-.74.93-1.69,2.05-2.86,3.36l-5.89,6.6.05-.69h10.6l-.73.41Z"/>
    </g>
  </g>
  <g>
    <path d="M37.08,446.78v37.5c0,2.49.57,4.97,2.68,6.12,2.49,1.34,5.55,1.72,9.95,1.72,1.15,0,1.72.57,1.72,1.72,0,.96-.58,2.87-2.3,2.87-1.53,0-10.33-.57-18.94-.57s-17.6.57-18.94.57c-1.72,0-2.3-1.91-2.3-2.87,0-1.15.38-1.72,1.53-1.72,4.59,0,7.65-.38,9.95-1.72,2.1-1.15,2.68-3.06,2.68-6.12l.19-100.83c0-2.68-.57-4.97-2.68-6.31-2.3-1.34-5.55-1.53-10.14-1.53-1.15,0-1.53-.77-1.53-1.72,0-1.15.58-2.87,2.3-2.87,1.34,0,10.14.38,18.94.38s15.12-.57,20.47-.57c27.74,0,41.71,15.11,41.71,35.59s-12.44,36.16-33.86,36.16c-7.27,0-13.2-1.72-17.99-2.68-2.87-.77-3.44,1.91-3.44,6.89ZM53.35,437.78c14.73,0,24.49-12.05,24.49-32.14s-11.29-30.23-26.98-30.23c-10.9,0-13.77,2.49-13.77,8.61v46.11c0,3.83,5.93,7.65,16.26,7.65Z"/>
    <path d="M106.53,383.26c0-7.84-6.12-8.04-12.63-8.04-1.15,0-1.53-.57-1.53-1.53,0-1.15.38-2.87,2.3-2.87,1.34,0,10.14.57,18.94.57s17.41-.57,18.75-.57c1.91,0,2.3,1.72,2.3,2.87,0,.96-.38,1.53-1.53,1.53-4.59,0-7.65.38-10.14,1.72-2.1,1.34-2.68,3.63-2.68,6.31v40.75c0,4.21.38,6.7,5.17,6.7h32.91c4.78,0,4.97-2.1,4.97-6.51v-40.94c0-7.84-6.12-8.04-12.63-8.04-1.15,0-1.53-.57-1.53-1.53,0-1.15.57-2.87,2.3-2.87,1.34,0,10.14.57,18.94.57s17.41-.57,18.75-.57c1.91,0,2.3,1.72,2.3,2.87,0,.96-.38,1.53-1.53,1.53-4.59,0-7.65.38-10.14,1.72-2.11,1.34-2.68,3.63-2.68,6.31l.19,100.83c0,7.65,6.31,7.84,12.63,7.84,1.15,0,1.53.57,1.53,1.72,0,.96-.38,2.87-2.3,2.87-1.34,0-10.14-.57-18.75-.57s-17.6.57-18.94.57c-1.72,0-2.3-1.91-2.3-2.87,0-1.15.38-1.72,1.53-1.72,6.12,0,12.82,0,12.82-7.84v-39.22c0-4.21,0-8.04-5.17-8.04h-32.91c-3.63,0-4.97.96-4.97,6.89v40.37c0,7.65,6.31,7.84,12.63,7.84,1.15,0,1.53.57,1.53,1.72,0,.96-.38,2.87-2.3,2.87-1.34,0-10.14-.57-18.75-.57s-17.6.57-18.94.57c-1.91,0-2.3-1.91-2.3-2.87,0-1.15.38-1.72,1.53-1.72,6.12,0,12.82,0,12.82-7.84l-.19-100.83Z"/>
    <path d="M280.82,433.38c0,35.78-20.28,64.48-45.54,64.48-23.34,0-43.81-24.49-43.81-63.33,0-35.78,20.28-64.67,45.35-64.67,23.53,0,44.01,24.49,44.01,63.52ZM265.13,431.66c-.77-28.32-10.72-57.21-29.47-57.21s-29.27,25.83-28.51,61.8c.76,28.32,10.14,57.02,29.46,57.02s29.27-25.83,28.51-61.61Z"/>
    <path d="M359.44,370.82c5.55,0,7.84.57,7.46,3.83-.38,2.1-.57,6.89-.96,13.39-.38,7.27,0,12.44-.19,13.78,0,1.15-1.15,1.72-1.91,1.72-1.34,0-2.3-1.15-2.3-2.1-.96-12.63-1.91-18.56-5.74-22.19-2.87-2.87-7.46-4.02-13.39-4.02s-10.71,1.53-10.71,9.95l.19,97c0,4.97.38,7.27,2.87,8.04,2.1.76,7.08,1.72,11.48,1.72,1.15,0,1.72.57,1.72,1.72,0,.96-.57,2.87-2.3,2.87-1.53,0-16.07-.57-20.85-.57-8.8,0-15.5.57-17.03.57-1.72,0-2.3-1.91-2.3-2.87,0-1.15.57-1.72,1.72-1.72,4.4,0,6.32-.19,8.23-1.72,1.91-1.34,2.49-3.64,2.49-6.12l-.19-98.92c0-7.65-4.78-9.95-10.52-9.95s-10.14,1.15-13.2,4.02c-3.83,3.64-4.97,9.57-5.74,22.19-.19.96-1.15,2.1-2.3,2.1-.77,0-2.11-.57-2.11-1.72-.19-1.34.19-6.5-.19-13.78-.19-6.5-.57-11.29-.76-13.39-.58-3.25,1.72-3.83,7.27-3.83,5.93,0,26.02.57,34.63.57s28.89-.57,34.63-.57Z"/>
    <path d="M457.39,433.38c0,35.78-20.28,64.48-45.54,64.48-23.34,0-43.81-24.49-43.81-63.33,0-35.78,20.28-64.67,45.34-64.67,23.53,0,44.01,24.49,44.01,63.52ZM441.7,431.66c-.77-28.32-10.71-57.21-29.46-57.21s-29.27,25.83-28.51,61.8c.77,28.32,10.14,57.02,29.46,57.02s29.27-25.83,28.51-61.61Z"/>
    <path d="M572.17,474.13c10.71,11.29,16.84,12.63,22.39,12.63s8.99-4.21,10.71-9.57c1.15-4.02,6.7-3.44,5.36,1.34-1.34,4.78-5.17,16.45-22.96,16.45-7.84,0-16.07-3.64-24.49-10.52-8.99,8.23-20.28,12.82-35.01,12.82-21.62,0-36.35-16.26-36.35-34.63,0-17.03,12.63-30.61,28.32-37.69-4.02-7.84-6.7-15.88-6.7-26.02,0-16.07,11.48-27.55,29.08-27.55,14.16,0,25.83,9.18,25.83,22.77s-15.12,24.68-31.38,29.66c-.19,0-.57.19-.77.19,2.1,3.44,4.59,7.08,7.27,11.29,10.14,15.88,18.18,26.98,24.68,34.63,4.59-6.31,8.42-14.54,11.29-24.49,1.91-6.7,1.91-11.48-1.53-13.78-2.3-1.53-6.89-1.91-10.9-1.91-1.15,0-1.53-.57-1.53-1.53,0-1.15.58-3.06,2.3-3.06,1.34,0,10.71.57,19.51.57s14.92-.57,16.46-.57c1.72,0,2.3,1.91,2.3,3.06,0,.96-.58,1.53-1.72,1.53-3.44,0-6.5.57-8.99,1.91-5.17,2.87-7.08,7.65-9.37,14.16-3.83,10.91-8.23,20.47-13.78,28.32ZM535.05,487.15c8.8,0,16.45-2.49,23.15-7.27-14.73-14.54-25.45-32.53-35.78-50.32-11.29,6.89-18.18,16.84-18.18,29.27,0,17.22,12.82,28.32,30.8,28.32ZM557.63,393.97c0-10.71-5.74-17.99-15.69-17.99s-18.18,6.51-18.18,16.84,3.83,17.6,10.14,27.74c13.78-5.17,23.72-14.73,23.72-26.59Z"/>
    <path d="M694.02,434.91h-17.41c-3.06,0-4.4.77-4.78,4.4v42.86c0,4.97.38,7.27,2.87,8.04,1.91.76,7.08,1.72,11.48,1.72,1.15,0,1.72.57,1.72,1.72,0,.96-.57,2.87-2.3,2.87-1.53,0-16.07-.57-20.86-.57-8.8,0-15.69.57-17.03.57-1.72,0-2.3-1.91-2.3-2.87,0-1.15.38-1.72,1.72-1.72,4.4,0,6.12-.19,8.23-1.72,1.91-1.34,2.49-3.64,2.49-6.12l-.19-100.83c0-3.06-.58-4.97-2.68-6.31-2.3-1.34-4.4-1.72-7.85-1.72-1.34,0-1.72-.57-1.72-1.53,0-1.15.57-2.87,2.3-2.87,1.34,0,10.71.57,17.03.57,8.61,0,38.27-.57,44.2-.57,5.55,0,7.84.57,7.27,3.83-.19,2.1-.57,6.89-.77,13.39-.38,7.27-.38,10.71-.38,12.05,0,.77-1.15,1.34-1.91,1.34-.96,0-1.91-.96-1.91-1.91-.76-11.1-2.3-16.65-6.12-20.28-3.44-3.44-9.37-4.02-16.26-4.02-13.39,0-14.73.38-15.69,1.15-1.53,1.15-1.53,2.49-1.53,6.89v41.52c.38,3.25,1.72,4.02,5.17,4.02h17.03c2.3,0,4.59-.57,5.93-2.87,1.53-2.1,2.1-5.17,2.87-9.57.19-1.15.77-1.53,1.91-1.53.96.19,2.68,1.15,2.49,2.87-.19,1.34-1.34,5.36-1.34,14.16s.77,13.97.96,15.5c.19,1.72-1.53,2.49-2.49,2.68-1.15.19-1.72-.19-1.91-1.34-.76-4.4-.76-8.23-2.1-10.71-1.34-2.3-3.63-3.06-6.12-3.06Z"/>
    <path d="M734.38,383.26c0-7.84-5.93-8.04-12.44-8.04-1.15,0-1.72-.57-1.72-1.53,0-1.15.57-2.87,2.3-2.87,1.53,0,10.33.57,18.94.57s17.6-.57,18.94-.57c1.72,0,2.3,1.72,2.3,2.87,0,.96-.38,1.53-1.72,1.53-6.31,0-12.63.19-12.63,8.04l.19,100.83c0,7.65,6.12,7.84,12.44,7.84,1.34,0,1.72.57,1.72,1.72,0,.96-.57,2.87-2.3,2.87-1.34,0-10.14-.57-18.94-.57s-17.41.57-18.94.57c-1.72,0-2.3-1.91-2.3-2.87,0-1.15.57-1.72,1.72-1.72,4.4,0,7.65-.38,9.95-1.72,2.3-1.15,2.68-3.64,2.68-6.12l-.19-100.83Z"/>
    <path d="M806.7,370.82c1.72,0,2.3,1.72,2.3,2.87,0,.96-.57,1.53-1.72,1.53-4.4,0-7.65.38-10.14,1.72-2.11,1.34-2.49,3.63-2.49,6.31v98.92c0,4.97,1.15,6.89,3.25,8.04,2.49,1.34,6.89,1.72,13.2,1.72,6.89,0,11.86-.57,15.5-4.02,4.21-3.83,6.12-9.18,9.76-23.53.19-.96,1.34-1.72,2.3-1.72.77,0,1.53.76,1.53,1.72,0,1.91-.76,6.12-1.53,14.54-.77,6.5-.96,11.67-.96,13.78,0,3.25-.96,3.83-6.5,3.83-5.93,0-34.82-.57-43.43-.57s-17.6.57-18.94.57c-1.72,0-2.3-1.91-2.3-2.87,0-1.15.38-1.72,1.53-1.72,6.12,0,12.82,0,12.82-7.84l-.19-100.83c0-7.84-6.12-8.04-12.63-8.04-1.15,0-1.53-.57-1.53-1.53,0-1.15.57-2.87,2.3-2.87,1.34,0,11.29.57,18.94.57,8.61,0,17.41-.57,18.94-.57Z"/>
    <path d="M916.32,493.84c-.57,1.91-1.34,2.49-2.49,2.49-1.34,0-2.11-.19-2.68-2.68l-30.8-107.14c-1.91-6.12-3.44-3.44-3.83,1.15l-9.37,92.6c-.57,5.17.58,7.85,4.97,9.95,2.3,1.34,5.17,1.72,9.57,1.72,1.34,0,1.72.57,1.72,1.72,0,.96-.57,2.87-2.3,2.87-1.53,0-9.57-.57-18.37-.57s-16.84.57-18.37.57c-1.72,0-2.3-1.91-2.3-2.87,0-1.15.57-1.72,1.72-1.72,4.4,0,7.46-.38,9.76-1.72,4.4-2.1,6.89-5.93,7.27-10.52l9.37-92.79c.58-5.17-.38-7.84-4.78-9.95-2.3-1.15-5.17-1.72-9.57-1.72-1.15,0-1.72-.57-1.72-1.53,0-1.15.58-2.87,2.3-2.87,1.53,0,9.57.57,18.37.57,4.78,0,8.61-.57,11.67-.57s4.21,1.53,5.74,6.89l23.15,80.55c2.49,8.61,3.45,8.61,6.12.57l22.39-77.1c2.3-8.23,3.25-10.91,6.12-10.91s7.08.57,12.24.57c8.8,0,13.58-.57,15.12-.57,1.72,0,2.3,1.72,2.3,2.87,0,.96-.57,1.53-1.72,1.53-4.4,0-7.65.38-9.95,1.72-2.3,1.34-2.49,3.25-2.3,5.74l10.71,100.26c.19,3.06.96,6.12,3.25,7.27,2.3,1.34,5.36,1.72,9.76,1.72,1.15,0,1.72.57,1.72,1.72,0,.96-.57,2.87-2.3,2.87-1.53,0-10.14-.57-18.94-.57s-17.41.57-18.94.57c-1.72,0-2.3-1.91-2.3-2.87,0-1.15.38-1.72,1.72-1.72,4.4,0,7.65-.38,9.95-1.72,2.11-1.15,2.49-3.25,2.11-5.74l-10.14-97.38c-.58-5.74-1.91-5.17-3.64,0l-32.33,106.76Z"/>
  </g>
  <g>
    <path d="M99.62,342.23c-.84-.51-1.86-.51-2.02-.34-2.36,1.18-13.16-.51-15.69-2.19-.51-.34-1.52-.51-1.86-.51-.51,0-.68-.34-.68-.51,0-.34-.51-.51-.84-.51-1.01,0-6.75-6.07-8.1-8.44-3.88-7.26-2.7-17.72,2.87-22.95,3.21-3.54,8.27-4.56,11.14-2.87,2.02,1.52,4.73,4.56,4.56,4.89-1.01,1.01-2.02.51-3.04-.84-1.52-1.69-4.05-3.21-6.58-2.7-2.36.51-5.57,3.04-7.93,6.75-1.69,3.88-2.53,9.95-.17,15.02,3.54,7.26,8.27,10.63,14.34,12.15,4.05,1.18,12.15,1.18,17.21,0,3.37-1.01,10.12-3.88,10.97-4.56,0-.34.68-.84,1.52-1.01,1.01-.51,2.02-1.35,2.02-1.52.51-.51,5.23-4.56,5.57-4.56.17,0,2.53-2.02,6.75-6.07,1.35-1.52,2.36-2.36,2.87-2.36s.68-.51.68-.67c0-.34.51-1.01,1.35-1.86,1.69-1.18,15.18-15.86,20.92-22.95,1.86-2.02,3.88-5.06,4.89-6.41,1.18-1.52,2.19-3.04,2.7-3.54.34-.17.84-.67.84-1.01,0-.17,4.56-7.76,5.23-8.27l1.01-2.02c.51-.84,1.01-1.52,1.35-1.52,0,0,.17-1.01.17-1.52,0-.34-1.01-1.01-3.2-1.35-16.7-2.7-29.86,1.52-35.26,10.63-1.52,1.86-1.18,5.06-.68,5.06s.68.34.68.51c0,.34-.68.34-1.18.34-1.01,0-1.35-.84-1.35-3.37.51-3.71,5.57-9.62,11.14-11.81,7.93-3.88,15.18-4.56,27.33-2.53,4.05.67,4.39.67,4.89,0,.17-.51.51-1.01.51-1.35,0-.17.17-1.01.51-1.01,0,0,.67-1.01,1.18-2.19l3.54-6.07c.51-.51,1.52-2.02,2.36-3.04.51-1.52,1.52-3.04,2.7-4.05.84-1.35,1.35-2.36,1.35-2.53,0-.34.17-.34.51-.34.17,0,.51-.17.51-.51,0-.51,4.05-6.24,4.56-6.58.17,0,.51-.17.51-.51,0-.17,3.54-4.22,7.25-8.27,4.89-4.56,10.12-8.61,13.67-10.46.84-.51,2.53-1.18,4.05-1.69,1.01-.51,2.87-1.01,3.37-1.52,2.7-.51,7.59,0,9.79,1.18,2.02,1.01,3.54,3.38,3.04,4.56-.51,2.02-2.53,2.02-2.02.34.34-.84,0-1.35-1.01-2.53-.68-.51-1.52-1.01-2.02-.84-.17,0-1.52.34-2.53.34-2.53.17-6.58,2.19-10.12,4.22-3.54,2.53-9.62,9.62-12.65,14-.68,1.52-1.18,2.02-2.53,3.21-.17.51-.51.84-.51,1.01,0,.34-.68,1.35-1.69,3.04l-4.05,6.07-3.04,4.56-1.01,1.86c0,.17-.84,1.69-2.02,2.7-3.04,5.4-5.57,9.45-5.57,9.62,0,.34,3.71,1.35,9.11,2.53,6.07,1.86,11.3,1.86,14.68,0,2.7-1.18,5.74-4.22,5.74-5.23,0-.84,1.52-1.35,2.02-.84.51.51-1.18,2.53-3.04,4.39-.67,1.01-3.04,2.53-4.55,3.21-5.23,1.86-10.8,1.52-22.44-1.69-3.54-1.01-3.04-.34-5.4,3.04-.51,1.01-1.18,2.02-1.18,2.02-.34,0-.51.17-.51.51,0,.68-6.58,10.12-8.94,12.66-.17.17-.51.67-.51,1.01,0,.17-.17.51-.51.51-.17,0-1.01,1.52-2.02,2.7-1.01,1.52-2.19,3.37-2.7,3.88-.84,1.01-3.37,4.05-4.56,5.74-.34.34-1.35,1.52-2.02,2.02-.51.84-1.35,1.52-1.35,1.52,0,1.86-17.21,18.56-18.73,18.56-.17,0-.68.51-1.52,1.01-.51.67-1.18,1.18-1.69,1.18-.34,0-1.01.84-2.02,1.52-2.87,1.86-8.6,5.57-9.45,5.57-.68,0-1.01,0-1.01.34,0,.17-1.01,1.01-2.19,1.52l-4.89,2.02c-2.19,1.01-7.09,2.19-11.14,2.7-.51.34-1.69,0-2.19-.17ZM125.6,256.35c-.17-.17-.67-.51-1.18-.51-3.54-.51-9.62-6.07-11.47-11.3-1.18-2.87-1.52-4.05-1.52-8.44,0-2.53,0-5.57.34-6.07,2.7-9.28,6.07-14.68,12.15-20.42,3.04-3.04,3.71-3.88,7.76-6.92,4.39-3.21,14-7.76,19.57-9.28,6.58-1.86,7.76-2.36,8.77-2.36.51-.17,3.04-.51,5.06-.67,2.02-.34,4.39-.51,5.06-.51,3.04-.34,15.18,0,17.55.51l7.59,1.18c2.53.51,5.74.84,7.09,1.52,1.18.34,2.7.84,3.21.84,1.52.17,9.11,2.19,10.12,2.7l3.88,1.52c1.69.51,4.05,1.35,4.72,1.86,1.35.51,2.87,1.18,3.54,1.52,2.36.68,6.58,2.53,8.1,3.54,1.01.51,1.86.67,2.02.67,0,0,1.52.51,3.37,1.35,3.04,1.18,4.22,2.02,10.29,4.05,9.95,3.54,13.5,4.22,22.1,4.72,2.53.34,10.63-.68,14.17-1.69,3.04-1.01,9.28-4.05,10.29-5.06.51-.84,1.35-1.35,2.02-1.86,1.35-.67,3.54-3.71,5.06-6.07.84-1.69,2.02-7.76,2.02-9.79,0-1.52,0-2.02.84-.51,1.18,1.69-.51,10.63-2.36,12.32-.17.51-.51,1.01-.51,1.35,0,.67-4.22,5.06-6.58,6.58-2.7,2.02-7.59,4.05-12.32,5.23-3.88,1.35-5.91,1.52-11.14,1.52-3.54,0-7.42-.17-8.44-.51-9.11-2.02-12.65-3.21-15.86-5.06-1.01-.17-2.02-.51-2.87-.67-2.53-.84-4.05-.84-7.09-2.53-.51-.51-1.52-.51-2.02-1.01-.68-.51-2.53-.51-3.21-1.01-1.86-.51-5.06-2.02-9.95-4.39-1.18-.51-2.19-.67-2.53-.67-.17,0-1.18-.51-2.19-1.35-1.35-.17-3.54-1.18-5.4-1.69-1.69-.51-4.22-1.35-5.57-1.86-2.02-1.01-6.75-2.02-13.67-3.54-5.23-1.18-16.2-2.19-22.95-2.19-8.1.51-10.46,1.01-15.19,2.19-3.88.84-12.65,3.04-13.16,3.88-.34.17-1.52.51-2.36.67l-1.18.51c0,.34-1.86.84-3.54,1.86l-3.54,2.02c-.34.17-1.52,1.18-3.37,2.53-4.73,3.21-11.64,10.63-12.32,13.16-.34.51-.51,1.01-1.01,1.18-.51.51-.84.84-.84,1.35s-.51,1.01-1.01,1.69c-.51.51-1.01,1.35-1.01,1.86l-.51,2.02c-2.53,4.72-2.19,14.34.51,18.39.51.84.84,1.52.84,1.86,0,1.01,3.71,5.06,6.75,6.75,3.37,1.86,5.06,2.02,8.44,2.02,4.72-.17,7.59-.68,12.15-3.04,9.79-5.06,16.7-11.14,23.45-24.3,1.35-2.7,1.52-7.26,1.52-10.29.34-2.02.34-3.88.84-3.88.51-.68,2.02.51,2.53,1.86,1.52,3.21.17,9.79-1.86,13.33-.67,1.01-.67,1.35-3.04,4.89-.67,1.01-1.52,2.02-1.69,2.02-.51,0-.51.17-.51.68,0,2.02-13.16,14.68-15.52,14.68l-1.01.51c-2.02,1.52-9.28,4.05-12.82,4.56-3.37.84-8.44.84-9.45,0Z"/>
    <path d="M196.96,342.4l-2.02-1.18c-1.35-.51-3.88-3.54-5.06-5.4-1.35-2.53-1.01-9.62.17-14.17,1.35-2.7,5.06-11.81,5.9-12.32.51-.51,3.04-3.88,3.21-4.39,0-.17.51-1.52,1.52-2.53,1.01-1.01,3.04-3.21,4.56-5.23,1.35-2.02,2.53-3.37,2.53-3.37.34-.17.84-1.01,1.86-1.69,7.42-7.09,12.15-9.62,20.75-12.49,3.88-.67,6.92-.67,8.6.84,1.35,1.18,2.02,2.7,1.35,5.74-.51,2.36-3.04,6.92-5.9,10.12-2.7,2.53-5.23,4.89-8.61,6.07-2.19,1.86-4.55,2.87-7.09,3.88-3.04,1.52-6.24,3.21-9.11,4.22-2.53.51-4.39.34-5.91,3.04-.51.84-1.01,2.02-1.18,2.53-.34.51-.34.84-.51,1.01-3.37,4.39-8.44,16.03-5.9,20.08,1.35,2.53,3.88,3.54,8.44,3.21,2.19-.17,4.05-.51,5.57-1.18l2.87-1.35c2.02-1.01,7.76-5.23,10.63-7.26,8.1-6.41,19.24-18.22,21.77-21.26.67-.84,2.7-3.54,4.05-5.06l8.61-10.46c.51-.51,1.18.84.51,1.86-3.54,4.56-14.68,18.73-22.1,26.32-1.01,1.18-13.33,11.81-14.17,12.82-1.18,1.01-4.05,2.87-6.07,3.88-1.69,1.01-3.71,2.02-4.22,2.02-.34.17-1.01.67-2.02,1.01-1.01,0-1.86.51-2.19.67-1.01.84-10.12.84-10.8,0ZM218.22,303.42c2.53-1.01,4.89-2.19,5.06-2.19,0-.34,2.02-1.52,3.37-2.36,8.1-5.57,10.63-10.12,11.64-14.34.51-1.86.17-2.02-.51-2.53-1.35-.84-5.4-.34-7.59.67-2.02,1.35-5.4,3.38-10.12,7.59-1.86,1.52-3.88,4.56-6.41,8.1,0,.34-1.52,2.53-3.2,4.56-1.86,2.36-3.21,4.55-2.87,4.55.17.51,5.57-1.01,10.63-4.05Z"/>
    <path d="M267.15,339.19c-1.01-2.02-.17-4.89.34-7.09.17-.34.68-2.36-.34-1.52-1.52,1.01-2.7,2.7-4.22,4.22-3.54,3.37-6.41,5.91-10.97,7.09-5.4,1.69-12.49,1.69-14.17-4.05-1.01-3.54-2.02-8.77-.51-12.15l2.53-6.07,3.2-6.58c1.86-3.04,3.88-6.07,6.07-8.77l3.04-4.05c1.86-2.36,3.88-4.05,5.74-6.41,4.05-4.22,8.61-9.11,13.67-12.15,3.21-1.52,7.76-2.7,11.3-3.21,4.56-.51,8.61,1.69,8.94,6.58l.17,4.22c0,.84.34,1.35.34,1.35,1.52.17,4.56-7.09,6.58-8.44,1.52-1.18,4.05-1.01,5.74-.17,1.52.67,1.86,1.69,1.01,3.21-1.69,3.04-4.56,5.4-6.58,8.1-2.02,2.87-3.71,5.91-5.74,8.44-2.36,3.21-4.05,6.75-6.58,9.79-2.53,4.39-5.57,7.93-8.1,12.15-2.36,3.38-4.39,6.92-5.57,11.14-2.02,8.94,5.74,4.56,9.28,1.35,4.05-3.04,7.93-6.41,10.97-10.46,1.18-1.52,2.53-3.04,4.05-4.56,4.05-5.06,8.27-10.29,12.32-15.69,2.53-3.04,3.54-4.05,5.9-7.09.68-1.01,1.18-2.02,2.19-2.7.51-.34,1.01-.51,1.01,0,0,1.01-.51,2.53-1.18,3.21l-10.46,13.16c-4.22,5.57-9.28,11.98-14.34,17.55-3.04,3.21-6.41,7.26-10.12,9.79-2.87,1.86-6.07,4.22-9.62,3.88-2.36-.17-4.89-1.86-5.9-4.05ZM257.53,336.83c3.88-3.21,6.41-5.57,9.11-8.77,4.05-5.06,3.88-4.56,6.07-8.1l7.59-11.98c2.02-2.7,4.05-6.07,4.39-6.07l.17-.51,1.52-2.53,2.02-3.21c1.01-1.86.84-4.39.51-6.41,0-2.02-.51-4.22-2.19-5.57-1.01-1.01-1.86-1.01-3.04-.51-1.52.34-3.88,2.02-4.56,2.53l-1.01.84c-.51,0-17.21,16.2-18.56,17.88l-1.69,2.36c-4.39,5.23-6.92,8.77-9.79,13.33l-1.69,2.87-.84,2.02-1.69,4.56c-.51,1.18-.84,2.19-.84,3.71-.17,1.52-.17,4.89,1.01,5.91,1.52,1.69,3.04,1.18,5.4,1.01,2.7-.34,6.07-1.52,8.1-3.37Z"/>
    <path d="M303.59,341.89c-1.52-.17-4.39-3.21-4.89-5.23-1.18-4.39.51-14,2.87-16.7.17-.51,1.18-1.86,1.69-3.38.85-1.18,1.52-2.7,2.02-3.04.34-.51.84-1.18,1.01-2.19.51-.84.84-1.35,1.01-1.35.34,0,.34-.17.34-.51,0-.51,1.01-1.52,2.02-2.7,2.53-3.38,2.19-2.87,5.57-7.59,6.58-9.62,7.59-11.14,7.59-11.64,0-.34.84-1.52,1.86-2.53,2.53-3.37,5.23-7.42,8.77-12.99l2.36-3.54c1.01-1.52,1.69-2.7,1.52-3.04,0,0-3.88-.17-7.93-.17-5.57,0-7.59,0-7.76-.51-.34-.34-.34-.84.17-.84.34-.17,4.05-.51,8.61-.51s8.44,0,8.61-.17c.34,0,1.52-2.02,3.04-4.05,2.87-4.56,2.87-4.39,6.07-8.44,1.35-1.52,2.53-3.04,2.53-3.21,0-.34.34-.51.51-.84.34,0,.84,0,.84.34h4.05c5.57,0,5.74-.34,3.21,2.53-.68.67-2.19,2.53-3.21,4.05l-3.04,4.72c-1.86,2.87-3.04,4.39-3.37,4.89,0,0,5.06.17,11.14.17,11.14,0,13.16.34,11.64,1.52-.68.51-3.04.51-11.14.51-14.17-.17-13.16-.17-15.35,3.37-1.01,1.52-2.36,2.7-2.53,3.04-.34,0-.51.67-.84,1.18-.17.51-1.69,2.53-3.04,4.89l-5.06,7.09c-1.18,1.69-2.53,3.21-2.7,3.54,0,0-.34.17-.34.51,0,.51-3.71,5.74-4.05,5.74-.17,0-.51.34-.51.84-.51.67-.51,1.01-4.22,6.24-1.35,1.86-3.37,4.89-4.39,6.58-1.35,1.52-2.53,3.37-2.87,3.88-.67,1.01-1.52,2.19-5.06,8.27-1.18,2.36-2.19,4.39-2.19,4.56,0,0-.34,1.35-.84,2.36-1.18,2.19-1.01,7.25,0,9.62,2.02,3.54,8.1,3.21,13.5-.51,3.37-2.02,9.45-7.42,10.97-9.11.51-.51,3.04-3.38,5.57-5.91,2.53-2.7,6.58-7.09,9.11-9.62,3.21-3.71,6.07-6.58,9.28-10.29,1.86-2.36,2.87-3.37,4.56-5.4l4.05-4.56c1.35-1.52,1.86-2.02,2.36-1.18.68.51,0,.17-.84,1.52-.51,1.01-1.52,2.53-2.19,3.21-.51.84-3.37,3.88-6.07,7.42-12.15,14.68-32.23,34.08-32.9,34.08-.34,0-1.01.51-1.52,1.01-1.52,1.52-6.41,3.88-8.44,4.05-1.01,0-2.02.34-2.02.51-.84.34-7.09.34-7.93,0-.17-.17-1.01-.51-1.18-.51Z"/>
    <path d="M375.63,280.65c4.72,0,5.57.34,4.05,2.36-.51.67-.84,1.18-.84,1.52l-1.52,1.52c-2.7,3.21-4.22,5.06-7.09,8.77-2.02,2.36-3.21,4.39-3.21,4.56l-1.52,2.53c-2.53,3.04-5.23,7.42-7.76,11.64-1.18,2.53-2.7,5.4-3.54,6.58-1.01,1.35-1.69,2.53-1.69,2.87,0,0-.34.51-.51,1.01-.84.51-2.36,3.71-4.39,7.09-1.01,2.02-1.18,5.06-.67,6.58.17,1.18,3.21,3.04,4.72,2.7,2.87-.67,7.42-3.54,11.81-8.27,6.58-6.92,9.28-9.95,12.15-13.16,1.69-2.02,3.54-4.05,3.71-4.39.34-.17,3.54-5.57,4.39-6.75.17-.51.68-1.01.68-1.35.34,0,1.35-2.02,2.36-3.71,1.52-2.02,2.53-3.54,2.53-3.88.51-.51,3.04-4.22,4.55-5.74.68-1.01,1.52-2.36,1.52-2.53.17,0,.68-1.01,1.18-2.02,1.52-2.87,3.37-4.89,5.57-6.58,0,0,.34-.51.84-.51h.17c1.01,0,1.86-.34,2.53-.34.84,0,1.52,0,2.36-.17.17-.34.67-.34,1.01.17.51.84,0,1.35-2.87,4.56-6.24,7.93-10.12,13.16-14.17,19.74-.51,1.35-3.71,6.07-4.22,6.41,0,.17-.51,1.01-1.01,2.02-.51,1.01-1.86,3.54-2.53,5.06-1.35,1.18-2.36,3.21-2.36,4.22-.51.84-.68,1.52-1.01,1.52-.51.51-2.7,4.56-3.71,7.93-.51,1.18-1.35,2.53-1.35,4.05s0,2.19,1.86,2.53c.17,0,.51.17,1.01.17h1.18c1.35,0,2.36-.67,3.04-1.18,1.52-.84,3.04-1.86,4.05-3.04,3.54-2.87,6.07-6.07,8.61-9.11l.51-.84c.84-1.01,2.02-2.19,2.53-2.53.51-.51,2.36-3.21,4.89-6.24,2.19-3.04,4.56-5.9,4.72-5.9.84-.51,7.42-10.29,10.63-14.17,1.35-1.52,2.36-2.53,2.53-2.53,1.01,0,.84,1.52-.51,2.87-.17,1.01-1.69,2.53-5.74,7.76-1.52,2.02-3.37,4.56-5.4,6.92-.68,1.01-3.04,3.71-4.72,6.58-2.03,2.19-4.56,5.23-5.06,6.24-3.04,3.54-8.94,9.62-10.46,11.47-5.23,4.05-8.27,6.24-9.79,6.24-.51,0-.84.34-1.01.34,0,.17-1.35.51-2.36.51-1.52,0-2.02-.34-3.21-1.52-1.35-1.35-2.02-3.37-2.02-5.06-.34-4.05,1.01-7.09,2.7-10.63.51-1.52,1.35-2.87,1.35-3.04,0,0-.84.51-1.52,1.52-5.57,5.57-13.5,13.84-13.84,13.84,0,0-1.52.51-2.53,1.35-2.19,2.02-5.06,3.04-7.08,3.04-2.7,0-7.26-2.87-7.26-4.05,0-.34-.34-.84-.51-1.01-.84-.84-.51-6.41.51-8.94.17-1.18,1.52-3.54,1.69-5.06.51-1.18,1.01-2.7,1.35-2.7l1.01-1.86c.51-1.01,1.18-3.04,2.19-4.05.84-1.18,1.52-3.04,2.02-4.05,1.01-2.02,4.56-7.59,4.89-7.76.17-.34.67-.51,1.01-1.35.51-.68,1.01-1.69,1.69-2.53.34-.51,1.35-2.02,2.02-3.54,1.69-2.53,2.7-4.05,6.41-9.28,1.86-1.52,3.37-3.38,3.54-3.88.84-1.18,1.01-1.52,4.89-1.52Z"/>
    <path d="M421.68,340.2c-1.18-1.35-2.53-3.88-2.53-6.41,0-1.69,1.35-6.24,2.02-8.1.51-.51,1.52-2.7,2.53-4.72,1.01-2.02,2.36-4.89,3.37-5.91l1.69-3.21,4.89-6.92c2.19-3.04,4.56-5.57,4.72-6.24,1.86-2.53,6.41-8.94,7.93-10.63,5.57-5.9,7.26-12.49,3.71-12.49-.51,0-3.04-.51-5.23-1.18-2.53-1.01-4.89-1.86-5.06-1.86-.34,0-1.35,1.86-3.04,3.54-1.35,2.02-2.53,3.54-3.04,3.88l-1.35,2.02c-.17.51-1.52,2.02-2.7,3.54l-2.36,3.04-1.69,2.02c-.84,1.01-2.87,3.21-4.05,5.57-2.7,3.54-3.71,4.56-3.71,3.04,0-1.35,4.73-8.44,7.26-11.14,1.01-1.01,3.21-3.88,4.73-6.07,2.02-2.36,3.37-4.56,3.54-4.89l2.36-2.7c.67-1.52,2.02-2.53,2.19-2.53.34-.34-.68-1.52-.17-2.36-.51-.17,0-1.52,1.18-4.05,1.52-3.21,3.54-5.23,7.42-8.6,1.52-1.52,3.21-1.69,3.54-.17.51,1.18-1.52,5.23-4.56,8.77-.34.34-1.52,1.86-2.36,3.04l-1.69,2.53,3.71,1.35,4.39,1.01c1.69,0,4.73,2.02,5.74,3.21.84,1.86.51,6.58-.67,9.62-.34,1.01-2.36,4.89-2.87,6.41-1.01,1.01-4.56,5.74-5.06,6.58-1.01,1.01-8.1,10.8-9.28,12.65,0,.51-.51,1.18-.51,1.18-.34,0-.51.34-.51.51,0,.34-.84,1.86-1.86,3.54-4.72,6.92-8.6,14.68-9.11,18.05-.17,1.69-.17,2.02,1.35,3.54,1.52,1.52,1.69,1.52,3.54,1.18,5.06-.51,6.75-1.69,14.17-8.6,1.69-1.69,3.04-2.7,3.21-2.7l.34-.34c0-.17,1.18-1.69,2.53-3.04l4.72-5.06c1.35-1.69,3.04-3.54,3.88-4.56.67-.51,2.53-2.53,4.22-4.56l3.04-3.54c.34-.17,1.52-1.69,3.37-3.54,1.52-2.02,3.21-4.05,4.05-4.56.51-1.01,1.52-2.19,2.19-3.04,1.52-1.69,2.53-1.69,2.02,0,0,.51-2.19,3.38-4.56,5.91-2.53,2.7-5.23,6.07-6.07,7.09l-2.7,3.04-9.95,10.63c-2.7,3.71-11.64,12.65-14.68,14.85-3.71,2.53-3.54,2.53-7.09,4.05q-3.04,1.18-6.24.34c-2.02-.51-3.88-1.52-4.89-2.02Z"/>
    <path d="M493.72,282.16c0,.51,0,.84-1.35,2.36-1.01,1.52-2.53,3.54-3.04,4.22-.51,1.01-1.01,1.86-1.18,1.86,0,.17-.51.51-.51.67,0,.34-.51,1.35-1.01,2.02-1.01,1.01-5.06,6.41-5.57,7.59-.34.84-6.92,10.97-8.27,12.15-.17.51-1.01,1.52-1.01,2.02l-5.23,7.09c-.34.51-.51.84-.51,1.01,0,.34-.84,1.01-1.52,2.53-4.05,6.41-6.07,11.47-5.4,14,.51,1.01.84,1.18,2.53,1.18,1.86.34,2.36.34,3.54-.51,2.36-1.01,3.04-1.69,4.05-2.19.34-.34.51-.51.84-.51.17,0,1.01-.84,2.19-2.02,1.86-1.52,9.79-8.6,17.88-17.21,1.18-1.35,2.53-3.04,2.7-3.38.34-.17,1.01-1.52,2.87-3.21,2.7-2.87,4.22-5.57,7.25-8.61,2.53-3.04,5.57-7.59,6.58-8.94,1.35-1.52,2.87-1.01,2.02,0-.51.84-1.52,2.87-9.11,11.98-2.02,2.53-5.06,6.07-6.07,7.59-1.52,1.52-3.54,3.71-4.56,5.06-3.2,3.54-16.53,17.21-21.6,20.25-5.23,3.21-5.74,3.88-8.6,3.88-3.21-.34-6.07-2.36-7.59-5.23-.68-2.02-.68-5.74.34-8.6,2.19-5.06,2.53-5.57,2.7-5.57.51,0,.51-.17.51-.51,0-.17.34-.51.34-.51.17,0,.67-1.01,1.18-2.02.51-.67,1.35-2.19,1.86-2.7.51-.51,1.69-2.53,3.04-4.56,1.01-1.86,2.53-4.05,3.04-5.06.51-.51,1.01-1.35,1.18-1.86,2.53-4.56,4.05-6.75,7.76-12.15,2.19-3.21,4.73-6.75,5.57-8.27,2.02-2.87,4.05-4.56,5.23-5.06,2.36-.51,6.92,0,6.92,1.18ZM505.87,256.35c2.53,2.36,1.18,6.41-2.02,9.45-2.02,1.69-2.36,2.02-4.05,1.69-3.37-.17-4.39-2.53-2.87-5.74.84-2.53,2.36-4.39,4.56-5.4,2.36-1.01,3.04-1.01,4.39,0Z"/>
    <path d="M558.85,278.62c3.21.51,5.74,2.02,8.1,5.06,1.52,1.86,1.52,2.36,1.52,6.07,0,2.53-.34,4.39-1.01,5.9-.84,2.53-2.87,6.58-3.88,8.27-.17.51-1.52,2.36-2.19,3.54-.84,1.52-3.04,4.05-4.56,6.07-6.07,7.42-8.44,10.46-8.44,10.63,0,.34-.17.51-.51.51-.17,0-.17.34-.17.51,0,.34-.34.84-.84.84-.51.51-.67,1.01-1.01,1.52-.17.51-1.01,2.02-1.52,3.04-.67,1.18-1.52,2.7-1.69,4.05-1.35,5.57,3.21,6.24,7.09,4.56.17,0,1.01-.84,1.69-1.35,2.36-1.69,6.92-5.23,9.11-8.1l4.89-5.23c.68-1.35,2.02-2.53,2.7-3.54.51-.51,1.01-1.35,1.01-1.35,0-.17.34-.67.84-1.52.67-.51,2.19-2.53,3.71-4.56,3.04-4.05,2.87-3.71,4.89-6.24.67-1.01,1.52-1.86,1.52-2.36,0,0,.68-1.01,2.02-2.02.68-1.18,2.02-2.53,2.53-3.21.17-.34.68-1.35,1.18-1.86.34-1.01,1.01-1.18,1.35-1.18,1.01.17.68,1.52-1.35,3.71-.67,1.01-3.04,4.39-5.23,6.92-1.86,2.7-3.88,5.23-4.05,5.57-.34.51-1.52,1.69-2.87,3.54-4.05,5.23-5.06,6.58-9.62,11.64-6.07,7.09-11.13,11.64-15.35,13.67-1.86,1.35-6.58,1.86-8.44,1.01-1.69-.84-3.54-2.53-4.22-4.05-.51-1.35-.34-5.06.51-6.07.68-1.86,1.52-4.05,1.69-5.4.34-.51,1.01-2.02,1.52-2.53.51-.68.84-1.69.84-2.02,0-.51,4.22-6.24,4.73-7.09.51-.51,4.39-4.72,6.07-7.76,1.35-1.52,2.36-3.04,2.36-3.04.17-.34.51-.51.68-1.01,0-.34,1.52-2.36,3.37-4.56,3.54-5.91,5.23-9.45,5.57-12.99.17-3.54,0-4.05-2.87-5.23-2.7-.84-4.56-.51-7.09,1.18-2.19,1.35-13.83,13.5-16.87,17.04-1.52,1.69-3.54,4.22-4.55,5.23-4.56,5.4-5.91,7.09-7.59,9.45-.84,1.18-2.02,3.04-2.36,3.21-.51.51-.68,1.01-.68,1.01,0,.51-.34,1.35-.84,1.86-.51.51-2.02,2.7-3.54,5.06-1.18,2.19-3.04,4.22-3.2,4.56-.34.51-1.86,2.19-2.87,4.05-2.36,3.54-3.04,4.73-4.05,7.59-.34.51-.84.67-4.05.67-2.36,0-4.05-.17-4.39-.51-.5-.17,1.52-3.71,7.09-12.65.34-.17.84-1.52,1.86-2.7.51-1.01,1.69-3.04,2.87-3.88.68-1.18,1.52-2.53,2.02-3.04.51-1.01.68-1.18,1.01-1.18.17,0,.51-.34.51-.51,0-.34.67-1.35,2.02-2.87.68-1.18,1.52-2.7,1.52-3.04,0,0,.17-.51,1.01-.67l1.01-2.36c.17-1.01.67-1.69,1.52-1.69l1.52-2.87c.51-1.01,1.52-2.7,2.02-3.54.51-1.01,1.69-2.7,2.53-4.56.68-1.69,1.69-3.21,2.19-4.05,3.04-6.24,4.39-9.11,3.04-10.63-1.69-2.02-5.06-.51-9.62,2.87-3.54,2.53-6.58,6.24-9.62,9.79-2.19,2.53-4.05,4.89-5.4,6.07-.51.84-2.53,1.01-1.01-1.18,4.39-5.9,6.41-8.1,9.95-11.98,3.37-3.54,7.59-6.07,10.46-7.26,4.22-2.02,7.59-.34,10.29,2.53,1.35,1.18,1.86,3.04.84,6.07-.34.67-.51,2.53-.84,3.04,0,.67-.68,2.7-1.69,4.56-1.01,3.04-1.01,3.54.17,1.18,1.35-1.18,16.03-16.2,16.7-16.2.34,0,.51-.17,1.01-.51.34-.51,1.01-.67,2.02-1.01.51-.51,2.36-.67,3.37-.51Z"/>
    <path d="M529.65,406.01c-1.01,0-3.54-1.69-4.22-2.7-.34-.51-.84-1.35-1.01-1.35-.51-.51-1.01-3.21-1.01-5.57,0-1.18-.34-2.53-.34-2.7-.17-.34-.17-.51,0-1.01.34-.34.51-1.01.51-1.86,0-3.04,3.54-8.77,7.42-12.15,2.53-2.19,6.07-5.23,11.3-8.27,6.07-3.54,8.44-4.89,12.49-6.07,6.75-2.02,12.82-4.39,14.68-4.89.67-.17,1.52-.51,2.02-.51s1.01-.17,1.52-.67c.51-.34,1.69-.84,2.7-1.01,2.02-.51,2.36-.84,4.56-3.88,1.35-1.52,2.87-3.54,3.04-4.22.51-.84,1.01-1.52,1.35-1.52,0,0,.68-.84,1.18-1.86.51-1.18,2.19-4.05,3.71-5.91,1.18-2.02,2.53-4.22,2.7-4.72.51-.84.84-1.52,1.01-1.52.34,0,.34-.34.34-.51,0-.34.17-.84.67-1.01.34-.34.85-1.35,1.35-1.86.17-.67,1.01-1.69,1.18-2.19.51-.84.51-1.01.34-1.01-.34,0-.51,0-.51.17,0,.51-4.89,5.57-9.28,9.45-3.21,3.04-9.28,6.07-12.66,6.41-3.21.51-5.06-.67-8.27-3.37-1.86-2.02-2.02-2.53-2.36-5.06-.17-1.86.85-7.59,1.52-8.44,0-.17.34-.51.34-.67,0-1.01,4.22-8.44,5.74-11.14l1.52-2.87c0-.17.51-.67,1.01-1.18.84-.84,1.52-1.86,2.36-2.87.51-.67,1.18-1.69,1.69-2.19.84-.51,1.01-1.01,1.01-1.35l.84-1.18,2.53-2.87c2.7-3.04,4.73-5.06,7.93-7.76,1.18-1.01,2.53-2.36,2.7-2.36.51-.68,5.4-4.56,6.92-5.23.67-.34,2.02-1.01,2.7-1.86,1.52-1.01,6.07-2.7,8.94-3.54,3.71-1.01,7.76-.17,10.12,2.02,1.69,1.86,2.02,4.89,1.01,8.1-.34,1.35-.51,2.02-.34,1.52.34-.17,1.01-1.18,1.35-1.69l1.52-2.36c.17-.51,1.52-2.02,2.53-3.71q2.03-2.36,4.05-2.36c1.01,0,2.19,0,2.7-.17,4.05-.84,4.89,0,1.35,3.71-3.88,4.05-6.07,7.09-12.49,16.03l-5.23,7.59c-3.88,4.56-6.07,8.61-8.44,12.82-.17.51-.67,1.01-.67,1.01-.34,0-.84.34-.84.34,0,.17-.68,2.19-2.03,4.05l-4.55,6.58c-1.01,2.02-2.19,3.71-2.53,4.05,0,.17-1.52,2.19-3.04,4.56-1.18,2.02-3.04,5.4-4.05,6.58-.67,1.35-1.52,2.53-1.52,2.87,0,.51,1.01.51,1.52,0,.34-.34,2.02-1.35,3.88-2.36,7.59-3.54,11.3-6.07,16.7-10.12,1.69-1.01,3.21-2.02,3.54-2.02.17,0,.51-.51,1.01-.84.17-.51,2.02-2.02,3.54-3.04,4.05-3.21,11.64-10.8,13.83-14.34.51-.51,1.52-2.02,2.53-3.04,1.01-1.52,3.88-4.56,5.9-7.42,1.69-2.7,4.05-5.23,4.56-5.57.17-.17.51-.51.51-.68,0-.34.17-.84.68-1.01,1.35-1.35,3.54-4.89,4.05-5.4.84-1.01,1.52-.17,1.35.51-.51,1.86-2.02,3.37-3.54,5.4l-3.04,4.05c-1.35,1.52-2.36,3.04-2.53,3.04l-2.36,3.04c-1.52,1.69-2.53,3.71-3.04,3.71-.17.51-1.01.84-1.01,1.01,0,.84-7.08,9.45-10.8,12.65-2.87,2.87-6.58,6.41-7.42,6.58-.17,0-1.01.51-1.52,1.35-1.01.51-1.69,1.18-2.02,1.18-.51,0-.68,0-.68.34,0,.51-7.93,6.07-9.62,7.09l-1.52.84c-1.35,1.01-9.95,5.23-13.5,7.09-2.19,1.18-4.05,2.53-4.89,3.54-1.69,2.02-5.06,6.75-5.06,7.09,0,.51-4.72,7.25-8.1,11.14l-7.09,9.11c-6.75,8.77-7.76,10.63-10.8,13.16l-4.05,3.21c-2.36,2.02-6.41,4.39-10.46,6.58-3.54,1.35-7.26,1.52-9.62.34-1.01-.51-1.69-.84-2.02-.84ZM539.27,402.3s.51-.51,1.01-.51c.85-.34,3.38-2.53,4.56-3.38l2.02-1.52c4.56-3.54,7.59-6.58,9.62-9.79,1.01-1.35,2.02-2.53,2.53-3.04.34-.34,1.35-1.52,2.02-2.87l4.89-6.75c2.02-3.04,4.22-6.07,4.56-6.58,1.01-1.35,1.18-2.02,2.53-3.37.68-1.18,3.21-4.73,3.21-5.06,0-.17-.17-.17-7.09,2.36-4.05,1.18-8.61,3.04-10.63,3.54-5.74,1.52-9.11,3.04-13.16,5.57-1.01.68-2.02,1.18-2.02,1.18-.51,0-9.28,6.58-10.8,8.1-3.38,3.04-3.88,3.37-5.57,7.42-1.35,2.53-1.52,3.71-1.86,6.24-.17,6.07,1.86,9.45,6.07,10.12,1.35.34,3.04.84,3.88.34,1.52-.34,4.22-1.52,4.22-2.02ZM581.62,338.35c1.01-.17,4.72-3.21,6.07-4.22,1.86-1.52,5.9-5.57,5.9-5.91,0-.17.67-.67,3.21-3.71l1.52-1.86c0-.17.34-.51.84-1.01,2.7-2.7,7.09-8.77,10.12-13.16,1.01-1.52,2.02-3.04,2.53-3.21.17-.34.51-.51.51-1.01,0-.34,0-.51.17-.51.34,0,1.01-1.35,1.86-2.36.67-1.18,1.69-2.53,2.19-3.04.34-.51.84-1.01.84-1.18,0-.34.51-1.35,1.01-2.36,2.02-2.7,2.53-3.71,3.04-6.24,1.01-3.88.51-5.91-2.02-6.92q-1.86-.51-3.88-.17c-3.71.51-6.24,1.52-9.62,4.05-5.23,4.05-11.64,10.8-16.2,16.7l-3.04,3.71c-1.35,1.52-2.36,3.04-2.53,3.54-.51.51-1.35,1.86-2.02,2.87-.84,1.01-1.52,2.19-1.52,2.53l-2.53,3.71c-3.04,4.39-4.05,6.41-5.4,8.61-.51,1.35-1.01,2.02-1.01,2.36-.51.17-1.01,1.69-1.18,2.7,0,0-.34,1.35-.84,2.87-.51,1.69-.51,2.19,0,2.7.34.51.51,1.01.34,1.35,0,.51,2.19,1.52,4.05,1.69.68,0,6.07-1.52,7.59-2.53Z"/>
    <path d="M771.93,193.08s.51,0,1.35.34c.67,0,2.19.51,3.54,1.18,4.72,2.53,7.59,6.07,9.11,11.14.67,2.02.67,6.41-.34,10.12,0,1.35-2.53,9.95-4.56,15.52-.51,1.18-3.71,7.26-4.05,7.76l-1.01,2.02c-1.18,2.02-3.71,6.07-4.22,6.41,0,0-.34.17-.34.51,0,0-1.01,2.02-2.7,4.05-1.86,2.02-2.87,4.05-2.87,4.22,0,.34-.17.34-.17.34-.34,0-.84.68-1.01,1.52-.51.67-1.01,1.52-1.35,1.69,0,.34-.67.84-.67,1.01-.34.34-.84,1.35-1.86,2.02-.51,1.35-1.01,2.02-1.18,2.53-.84,1.35-4.56,8.44-5.57,10.12-.51,1.35-1.86,2.02-1.86,2.36,0,0-.51,1.01-1.01,1.69-.17,1.01-.68,2.02-1.01,2.36-.51,1.18-2.19,4.56-2.53,6.07-1.18,5.06-1.18,5.74-1.01,8.27,0,2.02.34,3.54.51,3.88,1.35,1.18,5.57,1.18,9.62-.34,2.36-.67,10.46-5.74,11.47-6.58,0,0,.17-.67.67-1.01,2.02-1.01,5.4-4.22,10.12-8.77,4.39-4.56,6.41-6.92,11.98-12.99l7.09-7.76c1.18-1.86,6.07-6.92,6.75-7.59,1.86-2.36,8.94-11.14,10.46-13.67.51-1.01,1.01-2.02,1.18-2.87,1.01-1.52,8.1-11.81,8.1-12.15.34,0,.51-.51,1.01-1.01.34-.68.84-1.52.84-1.69,2.19-2.02,8.27-10.97,8.27-11.47,0,0,.34-.67,1.01-1.52,1.01-.67,1.86-2.02,2.02-2.53.34-.17.51-.67.84-1.01.68-1.01,1.69-3.04,1.69-3.21,0-.34.34-.84.84-1.01.68-.84,1.69-.84,5.23-.34.34.34.84.34,1.01.34.34,0,.85.51.85,1.01.5,1.18.5,1.52,0,2.02-.34.17-1.35,1.52-2.53,2.7-.84,1.35-2.02,2.53-2.36,2.53-1.01,1.35-3.04,4.39-3.04,4.56,0,0-.17.51-.51.84-.51.51-1.01,1.18-1.18,1.69-.34.51-.84,1.52-1.01,1.86-.34.17-.51.51-.51.68,0,.34-5.06,7.93-6.07,8.94-.34.51-.51,1.18-1.01,1.69-.34.84-.84,1.52-1.35,1.86-.17.51-.51,1.01-.51,1.18,0,.34,0,.51-.51.51q-.17,0-.17.34c0,.17-1.01,1.18-1.86,2.53-.68,1.69-1.52,2.7-1.52,2.7,0,0-.67,1.35-1.69,2.53-4.56,7.09-5.4,7.93-5.4,8.1,0,0-.68,1.01-1.52,2.02-2.19,4.05-2.53,4.39-2.7,5.4,0,.17-.34.51-.51.51,0,0-.51.51-.84.68,0,.51-1.01,1.52-1.52,2.53-.51,1.35-1.01,2.36-1.18,2.53-.34.84-1.35,2.36-4.39,7.42-2.7,3.71-4.73,7.09-12.32,18.73-4.39,7.26-9.62,14.68-10.46,15.35-.51.51-1.01,1.52-1.52,2.36-3.2,4.72-14.17,17.89-15.86,19.4,0,.34-1.01,1.35-2.36,2.87-3.54,4.56-15.86,16.03-19.4,17.21-.34.34-.85.51-1.01.84-.84.51-8.1,4.05-9.62,4.56-3.54,1.01-4.89,1.18-6.58,1.69-4.56.84-11.64.34-14.68-1.18-3.37-1.52-5.9-5.06-5.9-8.44,0-4.39,2.02-9.11,3.54-7.93.51.34.51.84.34,1.35-2.02,2.7-2.36,6.58-1.35,9.62.84,1.52,3.04,3.37,5.06,3.88,1.01.17,2.02.51,2.36.51,1.18.51,9.62.17,11.64-.34,4.05-.67,10.63-4.22,13.67-7.26l3.04-2.36c1.69-1.01,3.04-2.53,3.54-3.04.51-.84,1.18-1.52,2.02-2.36.51-.51.68-1.18.68-1.18,0-.34.34-.51.84-1.01.51-.51,3.04-3.37,6.58-7.93.51-1.01,2.19-2.7,3.54-4.05,1.18-1.18,2.53-3.21,3.04-3.71.51-.51,1.18-1.52,1.69-2.02,1.52-2.02,4.05-4.89,4.89-6.07.51-.51.68-1.35.68-1.35.34-.17,1.35-1.69,3.04-4.22l2.36-3.88c.68-1.01,1.18-1.69,1.18-2.02,0,0,1.35-1.01,2.02-2.19,1.01-1.86,1.86-2.87,1.86-3.04l1.01-1.52c.51-1.01,2.02-2.87,2.7-3.88.84-1.52,1.86-3.04,2.02-3.04,0,0,.34-.17.34-.51l1.52-2.19c.67-1.35,1.52-2.53,1.69-3.04,0-.34.34-.84.51-.84q.34,0,.34-.51s1.01-2.02,2.19-3.54c1.52-1.69,3.54-5.74,5.57-8.27l3.04-5.06c.51-.34.51-.51.51-.84,0,0,.84-.51,1.35-1.01.17-.51.68-1.01.68-1.18,0,0,.34-.51.84-1.01.17-.84.68-1.52,1.01-2.02.17-.51.51-.84,1.01-.84.17,0,.17-.51.51-.67q0-.84-.34-.84c-.17.34-.67.34-.67.84,0,.17-.84,1.01-3.38,4.22-2.53,2.02-3.04,2.87-4.05,4.56l-1.69,2.02c-.51.34-1.52,1.52-2.53,2.87-1.01,1.18-2.03,2.19-2.03,2.19-.34.34-1.52,1.52-2.53,2.87-11.13,12.32-21.6,21.93-27.16,25.31-1.01.17-1.69.67-1.69,1.01-.34,0-1.01.17-1.52.17-.51.34-1.01.51-1.01.51,0,.51-5.06,2.36-5.4,2.02-.17,0-1.01,0-1.69.34-2.36,1.01-6.92-1.35-8.44-3.88-1.01-1.18-1.69-4.72-2.03-7.26-.17-.84-.17-1.86-.5-2.36-.17-1.01.84-5.57,1.86-7.59,2.7-5.57,4.05-7.59,4.22-8.1.34-.17.51-.51.51-.68,0,0,.84-.84,1.01-1.52.51-.84,1.35-2.02,1.86-3.04.51-1.01,1.18-2.02,1.52-2.36,1.52-1.18,2.19-2.53,2.7-3.71.34-.51.84-1.86,1.52-2.53.51-.84,1.01-1.52,1.01-2.02,0-.34,2.53-3.54,2.87-4.05.17,0,.17-.34.51-.84,0-.17.68-1.01,1.18-1.69.34-.51,1.35-1.52,1.52-2.02,2.87-5.06,5.06-8.61,5.4-8.61q.17-.34.17-.51c0-.34.84-1.01,1.35-2.02.51-1.01,1.01-1.52,1.01-1.86,0,0,.51-1.18,1.18-2.19,1.52-2.36,6.07-11.14,7.42-14.17.67-2.02,1.52-5.57,1.69-8.44.51-3.54-1.18-11.14-2.7-13.33-1.52-1.35-2.53-2.02-5.57-3.04-3.37-1.35-6.58-1.35-12.49-.34-2.53.34-9.28,2.36-11.14,3.37-.17.17-1.69.67-2.7,1.52-1.86.67-4.05,1.69-9.11,5.23l-3.04,2.02c-1.01.84-2.53,1.86-3.04,2.53-4.39,2.87-14.17,14-15.69,17.04l-.51.68c-.34,0-.34.34-.34.51,0,.34-.17.51-.51.51,0,0-.17,0-.17.34,0,.51-.34,1.01-.84,1.69-.68.84-1.69,2.53-3.21,5.57-.84,1.01-1.35,2.36-1.35,2.53-.5,0-.67,1.01-1.01,1.86l-.51,1.69c-.17.51-1.18,3.54-1.52,5.06,0,.34-.17,1.01-.17,1.86-.34.51-.34,2.19-.34,3.71,0,3.88.34,5.4,2.02,7.93,1.01,1.18,1.86,1.69,3.88,3.04,2.19.68,3.04,1.01,5.74.68,4.05,0,7.09-.68,11.14-3.04,5.57-2.53,11.98-8.6,16.2-14.68l2.02-3.54c2.53-3.54,5.4-11.81,5.57-15.69.51-3.04-.51-4.22-1.69-2.53q-.51.84-.84,0c-.17-.51.51-2.19,1.35-2.53,2.7-.51,4.05,3.54,2.7,9.11-.68,3.04-4.73,12.49-6.24,13.67-.34.34-.34.84-.34.84,0,.67-4.22,6.07-6.07,8.1-.51.51-.68,1.18-1.01,1.52-1.01,1.69-9.11,6.75-13.16,8.77-4.72,1.86-11.3,2.36-15.18,1.01-2.53-.67-5.74-3.71-6.75-5.74-1.52-3.38-1.86-7.93-.34-12.65.51-1.52.84-3.04.84-3.54.51-2.36,2.53-6.92,4.22-9.95.51-1.01,1.01-2.02,1.01-2.19,0-.34.51-.51.84-.51,0,0,.17,0,.17-.34,0-.67,1.86-3.21,7.42-10.63,1.69-2.19,11.64-12.15,12.15-12.15.17,0,.51-.17.68-.67.51-.51,8.6-6.07,11.64-7.93,2.02-1.01,8.44-3.71,9.45-4.05,0,0,.68-.51,1.01-.51,1.52-.51,6.58-1.52,8.61-1.69,1.52,0,2.53-.34,2.53-.34.17-.17,6.75.34,6.75.51Z"/>
    <path d="M800.1,343.24c-3.04-1.35-5.06-3.88-5.57-8.1-.51-2.36-.51-6.41,0-7.42.17-.17.51-1.01.51-1.52.17-.51.51-2.02,1.18-3.21.51-1.35,1.01-3.04,1.52-4.56,1.35-2.87,3.37-6.92,4.05-7.93.51-.17.84-.68.84-1.18v-.34c.17,0,1.01-1.52,1.52-2.7,1.69-2.53,2.19-3.37,4.73-6.41l2.87-3.21c2.03-2.53,5.57-5.9,9.11-8.94,4.05-3.21,9.62-6.24,14-7.26,1.01-.34,2.19-.51,3.04-.51,3.2-.34,9.28,1.52,10.8,4.56,1.01,1.52,1.52,3.71,1.52,5.74,0,4.56-.51,3.88-1.52,7.59-.68,3.04-6.75,14.17-8.78,17.21l-1.86,2.53c-1.69,2.53-2.19,3.04-3.21,4.05-.84,1.01-.51,2.87.68,4.39,3.04,3.54,4.89,2.19,13.16-4.89,8.6-7.25,20.25-22.27,23.28-25.98,2.53-3.04,2.36-1.52,2.02.17-.51,1.52-14.68,18.73-19.4,23.62-6.58,6.07-10.12,9.62-13.67,10.63-3.37,1.01-4.89.51-6.41-1.35-.51-.17-1.01-1.18-1.01-1.18,0-.34-.17-.84-.67-1.35-.34-.67-.34-.51-2.87,2.02-4.05,5.06-9.62,9.95-10.63,10.12-.51,0-1.01.34-1.18.84-1.01,1.01-6.24,3.54-9.45,4.56-3.37,1.01-6.41,1.52-8.61,0ZM816.63,337.17c0-.34.51-.51,1.01-.51,1.18,0,6.07-4.89,9.62-8.6l4.22-4.56c.51-.51.84-1.35.84-1.86s0-1.18.17-1.69c.51-2.53.84-4.56,1.86-5.91.17-.67.68-1.52.68-1.52,0-.67,5.9-10.12,7.42-11.81.51-.34.68-.84.68-1.01,0-.34.84-1.52,1.35-2.53,1.01-1.86,2.02-2.02,3.04-2.02.17-.34.51-2.02.51-4.39.51-3.71-.34-5.06-2.87-6.24-1.01-.51-2.02-.84-3.54-.84-3.04.34-3.71.51-7.59,2.53-4.05,2.02-5.57,3.37-8.77,6.07-4.39,3.88-11.81,13.16-11.81,14.51,0,.17-.17.51-.51.51-.51,0-9.11,14.68-10.12,18.22,0,.67-.51,1.52-.67,2.19-.51.51-.84,1.01-.84,1.52,0,0-.17,1.35-.68,2.02-2.87,9.45,1.01,12.82,9.11,9.62,3.21-1.01,6.58-3.04,6.92-3.71Z"/>
    <path d="M886.31,280.65c4.72,0,5.57.34,4.05,2.36-.51.67-.84,1.18-.84,1.52l-1.52,1.52c-2.7,3.21-4.22,5.06-7.09,8.77-2.02,2.36-3.21,4.39-3.21,4.56l-1.52,2.53c-2.53,3.04-5.23,7.42-7.76,11.64-1.18,2.53-2.7,5.4-3.54,6.58-1.01,1.35-1.69,2.53-1.69,2.87,0,0-.34.51-.51,1.01-.84.51-2.36,3.71-4.39,7.09-1.01,2.02-1.18,5.06-.67,6.58.17,1.18,3.21,3.04,4.72,2.7,2.87-.67,7.42-3.54,11.81-8.27,6.58-6.92,9.28-9.95,12.15-13.16,1.69-2.02,3.54-4.05,3.71-4.39.34-.17,3.54-5.57,4.39-6.75.17-.51.68-1.01.68-1.35.34,0,1.35-2.02,2.36-3.71,1.52-2.02,2.53-3.54,2.53-3.88.51-.51,3.04-4.22,4.55-5.74.68-1.01,1.52-2.36,1.52-2.53.17,0,.68-1.01,1.18-2.02,1.52-2.87,3.37-4.89,5.57-6.58,0,0,.34-.51.84-.51h.17c1.01,0,1.86-.34,2.53-.34.84,0,1.52,0,2.36-.17.17-.34.67-.34,1.01.17.51.84,0,1.35-2.87,4.56-6.24,7.93-10.12,13.16-14.17,19.74-.51,1.35-3.71,6.07-4.22,6.41,0,.17-.51,1.01-1.01,2.02-.51,1.01-1.86,3.54-2.53,5.06-1.35,1.18-2.36,3.21-2.36,4.22-.51.84-.68,1.52-1.01,1.52-.51.51-2.7,4.56-3.71,7.93-.51,1.18-1.35,2.53-1.35,4.05s0,2.19,1.86,2.53c.17,0,.51.17,1.01.17h1.18c1.35,0,2.36-.67,3.04-1.18,1.52-.84,3.04-1.86,4.05-3.04,3.54-2.87,6.07-6.07,8.61-9.11l.51-.84c.84-1.01,2.02-2.19,2.53-2.53.51-.51,2.36-3.21,4.89-6.24,2.19-3.04,4.56-5.9,4.72-5.9.84-.51,7.42-10.29,10.63-14.17,1.35-1.52,2.36-2.53,2.53-2.53,1.01,0,.84,1.52-.51,2.87-.17,1.01-1.69,2.53-5.74,7.76-1.52,2.02-3.37,4.56-5.4,6.92-.68,1.01-3.04,3.71-4.72,6.58-2.03,2.19-4.56,5.23-5.06,6.24-3.04,3.54-8.94,9.62-10.46,11.47-5.23,4.05-8.27,6.24-9.79,6.24-.51,0-.84.34-1.01.34,0,.17-1.35.51-2.36.51-1.52,0-2.02-.34-3.21-1.52-1.35-1.35-2.02-3.37-2.02-5.06-.34-4.05,1.01-7.09,2.7-10.63.51-1.52,1.35-2.87,1.35-3.04,0,0-.84.51-1.52,1.52-5.57,5.57-13.5,13.84-13.84,13.84,0,0-1.52.51-2.53,1.35-2.19,2.02-5.06,3.04-7.08,3.04-2.7,0-7.26-2.87-7.26-4.05,0-.34-.34-.84-.51-1.01-.84-.84-.51-6.41.51-8.94.17-1.18,1.52-3.54,1.69-5.06.51-1.18,1.01-2.7,1.35-2.7l1.01-1.86c.51-1.01,1.18-3.04,2.19-4.05.84-1.18,1.52-3.04,2.02-4.05,1.01-2.02,4.56-7.59,4.89-7.76.17-.34.67-.51,1.01-1.35.51-.68,1.01-1.69,1.69-2.53.34-.51,1.35-2.02,2.02-3.54,1.69-2.53,2.7-4.05,6.41-9.28,1.86-1.52,3.37-3.38,3.54-3.88.84-1.18,1.01-1.52,4.89-1.52Z"/>
  </g>
  <g>
    <g>
      <path d="M455.5,126.45c-.41-.24-.9-.24-.98-.16-1.14.57-6.36-.24-7.58-1.06-.24-.16-.73-.24-.9-.24-.24,0-.33-.16-.33-.24,0-.16-.24-.24-.41-.24-.49,0-3.26-2.94-3.91-4.08-1.88-3.51-1.3-8.56,1.39-11.09,1.55-1.71,4-2.2,5.38-1.39.98.73,2.28,2.2,2.2,2.36-.49.49-.98.24-1.47-.41-.73-.82-1.96-1.55-3.18-1.3-1.14.24-2.69,1.47-3.83,3.26-.82,1.88-1.22,4.81-.08,7.26,1.71,3.51,4,5.14,6.93,5.87,1.96.57,5.87.57,8.32,0,1.63-.49,4.89-1.88,5.3-2.2,0-.16.33-.41.73-.49.49-.24.98-.65.98-.73.24-.24,2.53-2.2,2.69-2.2.08,0,1.22-.98,3.26-2.94.65-.73,1.14-1.14,1.39-1.14s.33-.24.33-.33c0-.16.24-.49.65-.9.82-.57,7.34-7.66,10.11-11.09.9-.98,1.88-2.45,2.36-3.1.57-.73,1.06-1.47,1.3-1.71.16-.08.41-.33.41-.49,0-.08,2.2-3.75,2.53-4l.49-.98c.24-.41.49-.73.65-.73,0,0,.08-.49.08-.73,0-.16-.49-.49-1.55-.65-8.07-1.3-14.43.73-17.04,5.14-.73.9-.57,2.45-.33,2.45s.33.16.33.24c0,.16-.33.16-.57.16-.49,0-.65-.41-.65-1.63.24-1.79,2.69-4.65,5.38-5.71,3.83-1.88,7.34-2.2,13.21-1.22,1.96.33,2.12.33,2.36,0,.08-.24.24-.49.24-.65,0-.08.08-.49.24-.49,0,0,.33-.49.57-1.06l1.71-2.94c.24-.24.73-.98,1.14-1.47.24-.73.73-1.47,1.3-1.96.41-.65.65-1.14.65-1.22,0-.16.08-.16.24-.16.08,0,.24-.08.24-.24,0-.24,1.96-3.02,2.2-3.18.08,0,.24-.08.24-.24,0-.08,1.71-2.04,3.51-4,2.36-2.2,4.89-4.16,6.6-5.06.41-.24,1.22-.57,1.96-.82.49-.24,1.39-.49,1.63-.73,1.3-.24,3.67,0,4.73.57.98.49,1.71,1.63,1.47,2.2-.24.98-1.22.98-.98.16.16-.41,0-.65-.49-1.22-.33-.24-.73-.49-.98-.41-.08,0-.73.16-1.22.16-1.22.08-3.18,1.06-4.89,2.04-1.71,1.22-4.65,4.65-6.12,6.77-.33.73-.57.98-1.22,1.55-.08.24-.24.41-.24.49,0,.16-.33.65-.82,1.47l-1.96,2.94-1.47,2.2-.49.9c0,.08-.41.82-.98,1.3-1.47,2.61-2.69,4.57-2.69,4.65,0,.16,1.79.65,4.4,1.22,2.94.9,5.46.9,7.09,0,1.3-.57,2.77-2.04,2.77-2.53,0-.41.73-.65.98-.41.24.24-.57,1.22-1.47,2.12-.33.49-1.47,1.22-2.2,1.55-2.53.9-5.22.73-10.84-.82-1.71-.49-1.47-.16-2.61,1.47-.24.49-.57.98-.57.98-.16,0-.24.08-.24.24,0,.33-3.18,4.89-4.32,6.12-.08.08-.24.33-.24.49,0,.08-.08.24-.24.24-.08,0-.49.73-.98,1.3-.49.73-1.06,1.63-1.3,1.88-.41.49-1.63,1.96-2.2,2.77-.16.16-.65.73-.98.98-.24.41-.65.73-.65.73,0,.9-8.32,8.97-9.05,8.97-.08,0-.33.24-.73.49-.24.33-.57.57-.82.57-.16,0-.49.41-.98.73-1.39.9-4.16,2.69-4.57,2.69-.33,0-.49,0-.49.16,0,.08-.49.49-1.06.73l-2.36.98c-1.06.49-3.42,1.06-5.38,1.3-.24.16-.82,0-1.06-.08ZM468.06,84.95c-.08-.08-.33-.24-.57-.24-1.71-.24-4.65-2.94-5.54-5.46-.57-1.39-.73-1.96-.73-4.08,0-1.22,0-2.69.16-2.94,1.3-4.48,2.94-7.09,5.87-9.87,1.47-1.47,1.79-1.88,3.75-3.34,2.12-1.55,6.77-3.75,9.46-4.48,3.18-.9,3.75-1.14,4.24-1.14.24-.08,1.47-.24,2.45-.33.98-.16,2.12-.24,2.45-.24,1.47-.16,7.34,0,8.48.24l3.67.57c1.22.24,2.77.41,3.42.73.57.16,1.3.41,1.55.41.73.08,4.4,1.06,4.89,1.3l1.88.73c.82.24,1.96.65,2.28.9.65.24,1.39.57,1.71.73,1.14.33,3.18,1.22,3.91,1.71.49.24.9.33.98.33,0,0,.73.24,1.63.65,1.47.57,2.04.98,4.97,1.96,4.81,1.71,6.52,2.04,10.68,2.28,1.22.16,5.14-.33,6.85-.82,1.47-.49,4.48-1.96,4.97-2.45.24-.41.65-.65.98-.9.65-.33,1.71-1.79,2.45-2.94.41-.82.98-3.75.98-4.73,0-.73,0-.98.41-.24.57.82-.24,5.14-1.14,5.95-.08.24-.24.49-.24.65,0,.33-2.04,2.45-3.18,3.18-1.3.98-3.67,1.96-5.95,2.53-1.88.65-2.85.73-5.38.73-1.71,0-3.59-.08-4.08-.24-4.4-.98-6.12-1.55-7.66-2.45-.49-.08-.98-.24-1.39-.33-1.22-.41-1.96-.41-3.42-1.22-.24-.24-.73-.24-.98-.49-.33-.24-1.22-.24-1.55-.49-.9-.24-2.45-.98-4.81-2.12-.57-.24-1.06-.33-1.22-.33-.08,0-.57-.24-1.06-.65-.65-.08-1.71-.57-2.61-.82-.82-.24-2.04-.65-2.69-.9-.98-.49-3.26-.98-6.6-1.71-2.53-.57-7.83-1.06-11.09-1.06-3.91.24-5.06.49-7.34,1.06-1.88.41-6.12,1.47-6.36,1.88-.16.08-.73.24-1.14.33l-.57.24c0,.16-.9.41-1.71.9l-1.71.98c-.16.08-.73.57-1.63,1.22-2.28,1.55-5.63,5.14-5.95,6.36-.16.24-.24.49-.49.57-.24.24-.41.41-.41.65s-.24.49-.49.82c-.24.24-.49.65-.49.9l-.24.98c-1.22,2.28-1.06,6.93.24,8.89.24.41.41.73.41.9,0,.49,1.79,2.45,3.26,3.26,1.63.9,2.45.98,4.08.98,2.28-.08,3.67-.33,5.87-1.47,4.73-2.45,8.07-5.38,11.33-11.74.65-1.3.73-3.51.73-4.97.16-.98.16-1.88.41-1.88.24-.33.98.24,1.22.9.73,1.55.08,4.73-.9,6.44-.33.49-.33.65-1.47,2.36-.33.49-.73.98-.82.98-.24,0-.24.08-.24.33,0,.98-6.36,7.09-7.5,7.09l-.49.24c-.98.73-4.48,1.96-6.2,2.2-1.63.41-4.08.41-4.57,0Z"/>
      <path d="M522.74,82.49s.24,0,.65.16c.33,0,1.06.24,1.71.57,2.28,1.22,3.67,2.94,4.4,5.38.33.98.33,3.1-.16,4.89,0,.65-1.22,4.81-2.2,7.5-.24.57-1.79,3.51-1.96,3.75l-.49.98c-.57.98-1.79,2.94-2.04,3.1,0,0-.16.08-.16.24,0,0-.49.98-1.3,1.96-.9.98-1.39,1.96-1.39,2.04,0,.16-.08.16-.08.16-.16,0-.41.33-.49.73-.24.33-.49.73-.65.82,0,.16-.33.41-.33.49-.16.16-.41.65-.9.98-.24.65-.49.98-.57,1.22-.41.65-2.2,4.08-2.69,4.89-.24.65-.9.98-.9,1.14,0,0-.24.49-.49.82-.08.49-.33.98-.49,1.14-.24.57-1.06,2.2-1.22,2.94-.57,2.45-.57,2.77-.49,4,0,.98.16,1.71.24,1.88.65.57,2.69.57,4.65-.16,1.14-.33,5.06-2.77,5.54-3.18,0,0,.08-.33.33-.49.98-.49,2.61-2.04,4.89-4.24,2.12-2.2,3.1-3.34,5.79-6.28l3.42-3.75c.57-.9,2.94-3.34,3.26-3.67.9-1.14,4.32-5.38,5.06-6.6.24-.49.49-.98.57-1.39.49-.73,3.91-5.71,3.91-5.87.16,0,.24-.24.49-.49.16-.33.41-.73.41-.82,1.06-.98,4-5.3,4-5.54,0,0,.16-.33.49-.73.49-.33.9-.98.98-1.22.16-.08.24-.33.41-.49.33-.49.82-1.47.82-1.55,0-.16.16-.41.41-.49.33-.41.82-.41,2.53-.16.16.16.41.16.49.16.16,0,.41.24.41.49.24.57.24.73,0,.98-.16.08-.65.73-1.22,1.3-.41.65-.98,1.22-1.14,1.22-.49.65-1.47,2.12-1.47,2.2,0,0-.08.24-.24.41-.24.24-.49.57-.57.82-.16.24-.41.73-.49.9-.16.08-.24.24-.24.33,0,.16-2.45,3.83-2.94,4.32-.16.24-.24.57-.49.82-.16.41-.41.73-.65.9-.08.24-.24.49-.24.57,0,.16,0,.24-.24.24q-.08,0-.08.16c0,.08-.49.57-.9,1.22-.33.82-.73,1.3-.73,1.3,0,0-.33.65-.82,1.22-2.2,3.42-2.61,3.83-2.61,3.91,0,0-.33.49-.73.98-1.06,1.96-1.22,2.12-1.3,2.61,0,.08-.16.24-.24.24,0,0-.24.24-.41.33,0,.24-.49.73-.73,1.22-.24.65-.49,1.14-.57,1.22-.16.41-.65,1.14-2.12,3.59-1.3,1.79-2.28,3.42-5.95,9.05-2.12,3.51-4.65,7.09-5.06,7.42-.24.24-.49.73-.73,1.14-1.55,2.28-6.85,8.64-7.66,9.38,0,.16-.49.65-1.14,1.39-1.71,2.2-7.66,7.75-9.38,8.32-.16.16-.41.24-.49.41-.41.24-3.91,1.96-4.65,2.2-1.71.49-2.36.57-3.18.82-2.2.41-5.63.16-7.09-.57-1.63-.73-2.85-2.45-2.85-4.08,0-2.12.98-4.4,1.71-3.83.24.16.24.41.16.65-.98,1.3-1.14,3.18-.65,4.65.41.73,1.47,1.63,2.45,1.88.49.08.98.24,1.14.24.57.24,4.65.08,5.63-.16,1.96-.33,5.14-2.04,6.6-3.51l1.47-1.14c.82-.49,1.47-1.22,1.71-1.47.24-.41.57-.73.98-1.14.24-.24.33-.57.33-.57,0-.16.16-.24.41-.49.24-.24,1.47-1.63,3.18-3.83.24-.49,1.06-1.3,1.71-1.96.57-.57,1.22-1.55,1.47-1.79.24-.24.57-.73.82-.98.73-.98,1.96-2.36,2.36-2.94.24-.24.33-.65.33-.65.16-.08.65-.82,1.47-2.04l1.14-1.88c.33-.49.57-.82.57-.98,0,0,.65-.49.98-1.06.49-.9.9-1.39.9-1.47l.49-.73c.24-.49.98-1.39,1.3-1.88.41-.73.9-1.47.98-1.47,0,0,.16-.08.16-.24l.73-1.06c.33-.65.73-1.22.82-1.47,0-.16.16-.41.24-.41q.16,0,.16-.24s.49-.98,1.06-1.71c.73-.82,1.71-2.77,2.69-4l1.47-2.45c.24-.16.24-.24.24-.41,0,0,.41-.24.65-.49.08-.24.33-.49.33-.57,0,0,.16-.24.41-.49.08-.41.33-.73.49-.98.08-.24.24-.41.49-.41.08,0,.08-.24.24-.33q0-.41-.16-.41c-.08.16-.33.16-.33.41,0,.08-.41.49-1.63,2.04-1.22.98-1.47,1.39-1.96,2.2l-.82.98c-.24.16-.73.73-1.22,1.39-.49.57-.98,1.06-.98,1.06-.16.16-.73.73-1.22,1.39-5.38,5.95-10.44,10.6-13.13,12.23-.49.08-.82.33-.82.49-.16,0-.49.08-.73.08-.24.16-.49.24-.49.24,0,.24-2.45,1.14-2.61.98-.08,0-.49,0-.82.16-1.14.49-3.34-.65-4.08-1.88-.49-.57-.82-2.28-.98-3.51-.08-.41-.08-.9-.24-1.14-.08-.49.41-2.69.9-3.67,1.3-2.69,1.96-3.67,2.04-3.91.16-.08.24-.24.24-.33,0,0,.41-.41.49-.73.24-.41.65-.98.9-1.47.24-.49.57-.98.73-1.14.73-.57,1.06-1.22,1.3-1.79.16-.24.41-.9.73-1.22.24-.41.49-.73.49-.98,0-.16,1.22-1.71,1.39-1.96.08,0,.08-.16.24-.41,0-.08.33-.49.57-.82.16-.24.65-.73.73-.98,1.39-2.45,2.45-4.16,2.61-4.16q.08-.16.08-.24c0-.16.41-.49.65-.98s.49-.73.49-.9c0,0,.24-.57.57-1.06.73-1.14,2.94-5.38,3.59-6.85.33-.98.73-2.69.82-4.08.24-1.71-.57-5.38-1.3-6.44-.73-.65-1.22-.98-2.69-1.47-1.63-.65-3.18-.65-6.03-.16-1.22.16-4.48,1.14-5.38,1.63-.08.08-.82.33-1.3.73-.9.33-1.96.82-4.4,2.53l-1.47.98c-.49.41-1.22.9-1.47,1.22-2.12,1.39-6.85,6.77-7.58,8.24l-.24.33c-.16,0-.16.16-.16.24,0,.16-.08.24-.24.24,0,0-.08,0-.08.16,0,.24-.16.49-.41.82-.33.41-.82,1.22-1.55,2.69-.41.49-.65,1.14-.65,1.22-.24,0-.33.49-.49.9l-.24.82c-.08.24-.57,1.71-.73,2.45,0,.16-.08.49-.08.9-.16.24-.16,1.06-.16,1.79,0,1.88.16,2.61.98,3.83.49.57.9.82,1.88,1.47,1.06.33,1.47.49,2.77.33,1.96,0,3.42-.33,5.38-1.47,2.69-1.22,5.79-4.16,7.83-7.09l.98-1.71c1.22-1.71,2.61-5.71,2.69-7.58.24-1.47-.24-2.04-.82-1.22q-.24.41-.41,0c-.08-.24.24-1.06.65-1.22,1.3-.24,1.96,1.71,1.3,4.4-.33,1.47-2.28,6.03-3.02,6.6-.16.16-.16.41-.16.41,0,.33-2.04,2.94-2.94,3.91-.24.24-.33.57-.49.73-.49.82-4.4,3.26-6.36,4.24-2.28.9-5.46,1.14-7.34.49-1.22-.33-2.77-1.79-3.26-2.77-.73-1.63-.9-3.83-.16-6.12.24-.73.41-1.47.41-1.71.24-1.14,1.22-3.34,2.04-4.81.24-.49.49-.98.49-1.06,0-.16.24-.24.41-.24,0,0,.08,0,.08-.16,0-.33.9-1.55,3.59-5.14.82-1.06,5.63-5.87,5.87-5.87.08,0,.24-.08.33-.33.24-.24,4.16-2.94,5.63-3.83.98-.49,4.08-1.79,4.57-1.96,0,0,.33-.24.49-.24.73-.24,3.18-.73,4.16-.82.73,0,1.22-.16,1.22-.16.08-.08,3.26.16,3.26.24Z"/>
    </g>
    <path d="M500.03,195.46c-41.1,0-74.53-39.71-74.53-88.52s33.43-88.52,74.53-88.52,74.53,39.71,74.53,88.52-33.44,88.52-74.53,88.52ZM500.03,20.1c-40.17,0-72.84,38.95-72.84,86.84s32.68,86.84,72.84,86.84,72.85-38.95,72.85-86.84-32.68-86.84-72.85-86.84Z"/>
    <path d="M500.03,203.25c-44.71,0-81.08-43.2-81.08-96.31S455.33,10.63,500.03,10.63s81.08,43.2,81.08,96.31-36.37,96.31-81.08,96.31ZM500.03,12.32c-43.77,0-79.39,42.45-79.39,94.62s35.61,94.62,79.39,94.62,79.39-42.45,79.39-94.62-35.61-94.62-79.39-94.62Z"/>
  </g>
  <g>
    <path d="M231.94,647.52l-1.33,1.03,4.09-5.24h.65l-2.26,5.45c-1.11.4-2.38.72-3.8.95s-2.73.36-3.92.36c-2.3,0-4.27-.4-5.91-1.21-1.64-.81-2.9-1.98-3.77-3.52-.87-1.54-1.31-3.41-1.31-5.61,0-1.96.29-3.8.85-5.52.57-1.73,1.38-3.3,2.42-4.7,1.04-1.41,2.29-2.62,3.73-3.64,1.44-1.02,3.04-1.8,4.8-2.35,1.76-.55,3.63-.82,5.61-.82.74,0,1.44.04,2.1.11.66.07,1.31.18,1.94.34.64.15,1.29.35,1.96.6l-1.17-.08,2.08-1.57h.2l-1.07,8.75h-.61l-1.03-6.17,1.17,1.25c-.95-.75-1.94-1.28-2.96-1.58-1.02-.31-2.15-.46-3.39-.46-1.75,0-3.36.26-4.85.78-1.49.52-2.82,1.26-4,2.21-1.18.95-2.18,2.07-3.01,3.36-.83,1.29-1.46,2.71-1.9,4.25-.44,1.55-.66,3.18-.66,4.9,0,2.12.36,3.89,1.09,5.31.73,1.42,1.74,2.49,3.04,3.19,1.3.71,2.83,1.06,4.57,1.06,1.1,0,2.22-.1,3.36-.31s2.23-.59,3.26-1.14Z"/>
    <path d="M248.94,648.61l2.18-6.55h.36c-.75,1.25-1.51,2.36-2.27,3.34-.76.99-1.5,1.83-2.23,2.52-.73.7-1.43,1.22-2.11,1.59-.68.36-1.32.54-1.91.54-.75,0-1.38-.14-1.87-.43s-.87-.71-1.11-1.27c-.25-.56-.37-1.25-.37-2.05,0-1.08.2-2.25.6-3.48.4-1.24.96-2.45,1.68-3.65.71-1.2,1.55-2.29,2.5-3.27.95-.98,1.98-1.76,3.08-2.34,1.1-.58,2.24-.87,3.42-.87.88,0,1.58.18,2.07.56.5.37.92.88,1.28,1.53l-.77.79c-.19-.6-.47-1.07-.84-1.44-.38-.36-.92-.54-1.62-.54-.98,0-1.93.29-2.86.87-.93.58-1.78,1.34-2.57,2.28-.79.94-1.47,1.96-2.06,3.06-.59,1.1-1.05,2.19-1.38,3.25-.33,1.06-.5,2.01-.5,2.83s.17,1.44.53,1.86c.35.42.89.63,1.62.63.64,0,1.35-.26,2.15-.76.8-.51,1.6-1.19,2.39-2.05.79-.86,1.52-1.85,2.18-2.96.66-1.11,1.17-2.26,1.53-3.45l1.63-5.35,1.19-1.01h.93l-5.18,16.07-.42-.55c.42.05.91.02,1.47-.1.56-.12,1.18-.39,1.88-.79.7-.41,1.48-1.01,2.34-1.81l.43.47c-1.39,1.51-2.59,2.55-3.62,3.14-1.02.58-1.93.87-2.71.87-.59,0-.97-.12-1.11-.35-.15-.23-.13-.61.06-1.12Z"/>
    <path d="M262.37,647.86h1.07l-2.88,10.69,3.47.7-.2.55h-8.21l.2-.55,2.94-.7,6.53-24.42s-.1-.03-.18-.04c-.08-.01-.2-.02-.36-.02-.5,0-1,.13-1.48.39s-.96.65-1.43,1.18c-.47.53-.94,1.21-1.4,2.04l-.54-.26c.58-1.3,1.18-2.31,1.79-3.03.61-.73,1.23-1.24,1.87-1.53.64-.29,1.3-.43,1.99-.43.33,0,.66.03.98.09.32.06.6.13.84.21l-2.06,7.74-.22-.44c.87-1.85,1.77-3.33,2.69-4.45.92-1.12,1.82-1.93,2.71-2.43.89-.5,1.7-.75,2.44-.75,1.28,0,2.24.41,2.88,1.24.63.83.95,1.9.95,3.22s-.19,2.71-.56,4c-.37,1.29-.88,2.49-1.53,3.61-.65,1.12-1.4,2.1-2.26,2.95-.86.85-1.79,1.5-2.79,1.97-1,.47-2.02.7-3.06.7s-1.89-.2-2.67-.6c-.77-.41-1.29-.94-1.54-1.62ZM264.2,645.06c-.09.31-.15.57-.17.78-.02.22-.03.41-.03.57,0,.74.24,1.39.71,1.95.47.56,1.16.84,2.07.84.69,0,1.4-.21,2.13-.63.73-.42,1.44-.99,2.12-1.73.68-.73,1.29-1.58,1.84-2.56.54-.97.98-2.01,1.3-3.12.32-1.11.49-2.25.49-3.41,0-1.23-.21-2.15-.62-2.75-.41-.6-1.04-.9-1.88-.9-.62,0-1.24.17-1.86.51-.61.34-1.21.8-1.79,1.38-.58.58-1.11,1.25-1.6,2-.49.75-.92,1.56-1.3,2.41-.38.85-.67,1.7-.88,2.55l-.54,2.1Z"/>
    <path d="M283.85,645.26c-.09.36-.17.68-.25.97-.07.29-.12.54-.15.75-.03.21-.04.41-.04.58,0,.3.05.52.16.65.11.13.26.19.46.19.34,0,.78-.18,1.31-.54.53-.36,1.09-.86,1.7-1.5.6-.64,1.19-1.4,1.78-2.27l.61.4c-.57.93-1.14,1.74-1.71,2.43-.57.7-1.12,1.28-1.65,1.74-.53.46-1.03.81-1.5,1.05s-.9.36-1.3.36c-.54,0-.96-.15-1.26-.44-.3-.3-.45-.8-.45-1.5,0-.33.04-.72.12-1.17.08-.45.2-.97.36-1.55l4.5-16.07h1.81l-4.5,15.93ZM282.07,633.93l.3-1.15h8.79l-.22,1.15h-8.87Z"/>
    <path d="M303.53,648.69l2.4-7.8h.24c-.94,1.81-1.8,3.31-2.6,4.5-.79,1.19-1.54,2.13-2.23,2.81-.7.68-1.36,1.16-2,1.45-.64.28-1.27.43-1.89.43-.87,0-1.54-.2-1.99-.6-.46-.41-.69-.98-.69-1.74,0-.33.05-.7.14-1.11s.23-.87.42-1.37l4.26-11.65.48.56c-.45-.04-.96.02-1.54.19s-1.22.48-1.94.96c-.72.47-1.52,1.16-2.41,2.04l-.48-.44c.95-1.18,1.83-2.1,2.63-2.75.8-.66,1.53-1.13,2.19-1.39s1.24-.4,1.74-.4c.41,0,.73.12.96.37.23.24.26.59.09,1.02l-4.34,11.92c-.11.3-.19.58-.25.83s-.09.48-.09.7c0,.43.13.76.39.97.26.21.64.32,1.14.32.7,0,1.45-.28,2.25-.85.8-.57,1.6-1.35,2.41-2.35.81-1,1.55-2.16,2.23-3.46.68-1.31,1.25-2.7,1.7-4.18l1.49-4.88h1.81l-4.84,16.01-.28-.49c.42.05.91.02,1.47-.11.56-.13,1.18-.39,1.88-.79.7-.41,1.48-1,2.34-1.8l.44.47c-1.39,1.52-2.59,2.57-3.62,3.15-1.02.57-1.93.86-2.71.86-.65,0-1.05-.1-1.2-.31s-.15-.56,0-1.08Z"/>
    <path d="M319.81,634.13c-.07,0-.14-.03-.24-.04-.09-.01-.22-.02-.38-.02-.5,0-1,.13-1.48.39s-.96.65-1.42,1.18c-.46.53-.93,1.21-1.41,2.04l-.54-.26c.58-1.3,1.18-2.3,1.8-3.02.61-.72,1.25-1.23,1.9-1.52.65-.29,1.32-.43,2.01-.43.22,0,.45.01.68.04s.45.06.65.1c.21.04.38.09.53.14l-2.36,7.68h-.18c.79-1.68,1.63-3.11,2.5-4.31.87-1.19,1.76-2.1,2.66-2.74.9-.64,1.77-.95,2.62-.95.59,0,1.03.14,1.31.41.28.27.42.63.42,1.06,0,.32-.08.59-.23.82-.15.23-.34.41-.58.54-.23.13-.48.19-.74.19-.11,0-.22-.04-.34-.13-.12-.09-.26-.22-.42-.39-.15-.17-.31-.32-.49-.43-.18-.12-.37-.18-.58-.18-.37,0-.79.17-1.27.5s-.97.8-1.49,1.4c-.52.59-1.03,1.29-1.54,2.09-.51.8-.98,1.67-1.42,2.61-.44.94-.81,1.9-1.11,2.9l-1.79,5.89h-1.8l4.7-15.55Z"/>
    <path d="M330.78,648.69l5.22-14.96.54.44c-.44-.03-.94.04-1.51.21s-1.2.48-1.9.95c-.7.47-1.49,1.15-2.36,2.03l-.43-.44c.94-1.19,1.8-2.12,2.6-2.78.79-.66,1.51-1.12,2.15-1.38.64-.26,1.21-.39,1.7-.39.56,0,.9.11,1.04.33.14.22.12.57-.05,1.06l-5.2,15.1-.46-.57c.44.05.93.02,1.48-.11.55-.13,1.17-.39,1.87-.79.7-.41,1.49-1,2.36-1.8l.42.47c-.93,1.02-1.77,1.82-2.53,2.4-.76.58-1.45,1-2.08,1.24s-1.19.37-1.7.37c-.65,0-1.04-.11-1.19-.32-.14-.21-.13-.57.04-1.07ZM337.21,623.38c0-.33.08-.63.24-.89.16-.26.37-.47.63-.63s.58-.23.93-.23c.56,0,1,.16,1.32.49.32.33.49.75.49,1.25,0,.34-.07.65-.22.92-.14.27-.35.48-.62.64-.27.16-.59.24-.96.24-.53,0-.96-.17-1.3-.52-.34-.34-.51-.77-.51-1.29Z"/>
    <path d="M342.84,637.68l-.54-.26c.58-1.3,1.18-2.3,1.8-3.02s1.25-1.23,1.9-1.52c.65-.29,1.32-.43,2.01-.43.22,0,.45.01.67.04.22.03.44.06.64.1.21.04.39.09.55.14l-2.74,8.85h-.22c.79-1.56,1.58-2.92,2.37-4.08.79-1.16,1.57-2.11,2.34-2.86.77-.75,1.54-1.3,2.29-1.68.75-.37,1.5-.55,2.24-.55,1.01,0,1.72.21,2.13.64.42.43.62,1.01.62,1.76,0,.43-.06.89-.19,1.39-.13.5-.3,1.04-.53,1.62l-4.29,11.03-.28-.53c.42.03.91-.02,1.45-.15.54-.13,1.16-.39,1.84-.79.69-.41,1.45-1,2.3-1.78l.44.45c-.93,1.02-1.77,1.82-2.54,2.41-.77.59-1.46,1.01-2.09,1.25-.63.24-1.19.37-1.7.37-.69,0-1.1-.12-1.24-.36s-.08-.68.17-1.31l4.31-11.07c.16-.41.28-.78.36-1.12.08-.34.12-.64.12-.9,0-.45-.13-.78-.38-.99-.25-.21-.64-.32-1.17-.32-.79,0-1.63.29-2.52.86-.89.58-1.76,1.37-2.61,2.37-.85,1.01-1.63,2.16-2.33,3.46-.7,1.3-1.27,2.67-1.71,4.1l-1.49,4.88h-1.8l4.7-15.55c-.07,0-.14-.03-.24-.04-.09-.01-.22-.02-.38-.02-.5,0-1,.13-1.48.39s-.96.65-1.42,1.18c-.46.53-.93,1.21-1.41,2.04Z"/>
    <path d="M367.04,660.19c-1.08,0-2.07-.09-2.97-.27s-1.66-.45-2.3-.81c-.64-.36-1.14-.81-1.49-1.35-.35-.53-.53-1.15-.53-1.86,0-.87.27-1.65.8-2.35s1.37-1.28,2.51-1.76c1.14-.47,2.61-.81,4.42-.99l1.33.04v.36c-1.19.05-2.23.2-3.12.44s-1.64.57-2.24.97c-.6.4-1.05.86-1.36,1.38-.3.52-.46,1.07-.46,1.67,0,.75.22,1.4.64,1.95.43.55,1.05.98,1.87,1.28.81.3,1.78.46,2.91.46,1.4,0,2.57-.2,3.51-.59s1.65-.89,2.12-1.51c.48-.62.72-1.26.72-1.93,0-.43-.09-.81-.26-1.16-.17-.35-.46-.68-.85-.98-.4-.31-.93-.61-1.6-.91-.67-.31-1.49-.62-2.47-.95-1.11-.39-1.96-.76-2.55-1.13-.59-.37-.99-.75-1.2-1.13-.21-.38-.32-.76-.32-1.15,0-.54.14-1.04.41-1.49.27-.45.68-.85,1.22-1.2.54-.35,1.2-.64,1.98-.86l.54.3c-.93.25-1.59.58-1.98.97-.4.4-.59.81-.59,1.23,0,.27.07.52.2.75.13.24.35.47.65.72.3.24.72.48,1.24.72.52.25,1.15.51,1.89.78,1.36.48,2.44.96,3.22,1.46.79.49,1.34,1.01,1.67,1.56.32.54.49,1.14.49,1.81,0,.78-.2,1.51-.58,2.18-.39.68-.94,1.26-1.65,1.76-.71.49-1.55.89-2.54,1.17s-2.08.43-3.28.43ZM371.82,632.39c.83,0,1.53.17,2.09.51.56.35.98.82,1.27,1.44.29.61.43,1.34.43,2.17,0,1.02-.18,2.03-.53,3.03-.35,1.01-.85,1.91-1.5,2.71-.65.8-1.41,1.44-2.28,1.92-.87.48-1.82.72-2.86.72-.83,0-1.54-.17-2.1-.52-.57-.35-.99-.83-1.27-1.45-.28-.61-.42-1.33-.42-2.15,0-1.03.17-2.05.53-3.04.35-1,.85-1.9,1.5-2.7.65-.8,1.41-1.44,2.27-1.92.86-.48,1.82-.72,2.87-.72ZM368.53,644.09c.54,0,1.07-.14,1.59-.43s1-.68,1.45-1.19c.45-.51.84-1.1,1.16-1.77.32-.67.58-1.38.77-2.14.19-.76.29-1.53.29-2.31,0-1.07-.17-1.85-.52-2.33-.34-.48-.85-.72-1.53-.72-.56,0-1.09.14-1.61.43-.52.28-.99.68-1.43,1.19-.44.51-.82,1.1-1.16,1.77-.34.67-.6,1.38-.79,2.13-.19.75-.29,1.53-.29,2.32,0,1.07.17,1.85.53,2.33.35.48.86.72,1.54.72ZM378.37,634.75c-.21,0-.4-.05-.58-.14-.17-.09-.37-.2-.59-.34-.22-.13-.5-.27-.83-.41-.33-.14-.74-.25-1.22-.35s-1.08-.14-1.8-.14l-.63-.72c1.22.17,2.2.23,2.97.19s1.39-.12,1.87-.21.95-.14,1.37-.14c.25,0,.45.06.59.19.14.13.22.32.22.59,0,.2-.04.39-.11.56s-.17.34-.3.47c-.13.13-.27.24-.43.32-.17.08-.34.12-.53.12Z"/>
    <path d="M394.34,645.26c-.09.36-.17.68-.25.97-.07.29-.12.54-.15.75-.03.21-.04.41-.04.58,0,.3.05.52.16.65.11.13.26.19.46.19.34,0,.78-.18,1.31-.54.53-.36,1.09-.86,1.7-1.5.6-.64,1.19-1.4,1.78-2.27l.61.4c-.57.93-1.14,1.74-1.71,2.43-.57.7-1.12,1.28-1.65,1.74-.53.46-1.03.81-1.5,1.05s-.9.36-1.3.36c-.54,0-.96-.15-1.26-.44-.3-.3-.45-.8-.45-1.5,0-.33.04-.72.12-1.17.08-.45.2-.97.36-1.55l4.5-16.07h1.81l-4.5,15.93ZM392.55,633.93l.3-1.15h8.79l-.22,1.15h-8.87Z"/>
    <path d="M406.66,644.8l-1.47,4.88h-1.8l7.74-25.93c-.24-.12-.5-.23-.79-.35-.29-.11-.6-.22-.92-.34-.32-.11-.68-.22-1.06-.33l.1-.36,4.76-.85h.38l-5.95,19.86-.3-.02c.79-1.54,1.58-2.87,2.36-4,.78-1.13,1.55-2.06,2.31-2.8.76-.73,1.52-1.28,2.27-1.64.75-.36,1.49-.53,2.2-.53,1.01,0,1.72.21,2.14.64.42.43.63,1.01.63,1.76,0,.43-.07.89-.2,1.39-.13.5-.31,1.04-.54,1.62l-4.29,11.03-.26-.53c.42.03.91-.02,1.45-.15.54-.13,1.15-.39,1.83-.79.68-.41,1.44-1,2.29-1.78l.44.45c-.91,1.02-1.75,1.82-2.52,2.41-.77.59-1.46,1.01-2.09,1.25-.63.24-1.2.37-1.72.37-.67,0-1.08-.12-1.22-.36s-.08-.68.17-1.31l4.29-11.07c.16-.41.28-.78.37-1.12.09-.34.13-.64.13-.9,0-.45-.13-.78-.38-.99-.25-.21-.64-.32-1.17-.32-.79,0-1.63.29-2.52.86-.89.58-1.76,1.37-2.61,2.37-.85,1.01-1.63,2.16-2.34,3.46-.71,1.3-1.28,2.67-1.72,4.1Z"/>
    <path d="M433.04,633.4c-.71,0-1.42.2-2.1.6-.69.41-1.33.96-1.93,1.68-.6.72-1.13,1.54-1.58,2.47-.45.93-.8,1.94-1.06,3.02-.26,1.08-.39,2.17-.39,3.29,0,1.52.28,2.57.83,3.14.56.57,1.26.86,2.12.86.54,0,1.1-.11,1.68-.34.58-.22,1.17-.64,1.78-1.26.61-.61,1.24-1.5,1.88-2.67h.79c-.77,1.57-1.51,2.78-2.22,3.64-.72.85-1.44,1.44-2.17,1.77-.73.32-1.53.48-2.39.48-.81,0-1.53-.17-2.18-.5-.65-.34-1.16-.86-1.54-1.58-.38-.71-.57-1.64-.57-2.77,0-1.47.18-2.85.56-4.16.37-1.3.88-2.48,1.53-3.54.65-1.06,1.39-1.97,2.21-2.74.83-.77,1.7-1.36,2.61-1.78.91-.42,1.81-.62,2.7-.62.79,0,1.44.14,1.93.42s.86.65,1.09,1.1c.23.46.35.96.35,1.5s-.1,1.05-.29,1.57c-.19.52-.46.97-.82,1.37-.7.3-1.44.61-2.22.92-.78.31-1.59.61-2.44.91-.85.3-1.71.59-2.6.89-.89.3-1.79.59-2.72.88l.06-.89c1.65-.51,3.03-.99,4.15-1.42,1.11-.43,2-.82,2.67-1.18.67-.36,1.17-.7,1.52-1.03.34-.33.57-.66.68-.97.11-.32.17-.64.17-.97,0-.4-.07-.75-.2-1.06s-.35-.56-.65-.74c-.3-.18-.72-.28-1.23-.28Z"/>
    <path d="M470.85,648.85l-.28-.53c.44.03.93-.02,1.47-.15.54-.13,1.15-.39,1.83-.79.68-.41,1.44-1,2.29-1.78l.44.45c-.91,1.02-1.75,1.82-2.52,2.41-.77.59-1.46,1.01-2.09,1.25-.63.24-1.2.37-1.72.37-.71,0-1.13-.12-1.25-.36-.12-.24-.05-.68.2-1.31l4.31-11.09c.14-.4.25-.76.33-1.08.07-.33.11-.61.11-.86,0-.46-.12-.81-.36-1.04-.24-.23-.59-.35-1.07-.35-.72,0-1.46.29-2.25.87-.79.58-1.57,1.37-2.35,2.37-.78,1-1.51,2.13-2.17,3.4-.67,1.27-1.23,2.58-1.7,3.93l-1.65,5.12h-1.83l4.05-12.32c.09-.28.17-.53.23-.75.06-.22.1-.44.13-.65.03-.2.04-.39.04-.54,0-.5-.13-.87-.38-1.09-.25-.23-.61-.34-1.09-.34-.69,0-1.42.29-2.19.86-.77.58-1.54,1.36-2.3,2.36-.76,1-1.47,2.15-2.12,3.45-.66,1.3-1.2,2.68-1.64,4.14l-1.49,4.88h-1.8l4.7-15.55c-.07,0-.14-.03-.24-.04-.09-.01-.22-.02-.38-.02-.5,0-1,.13-1.48.39s-.96.65-1.42,1.18c-.46.53-.93,1.21-1.41,2.04l-.54-.26c.58-1.3,1.18-2.3,1.8-3.02.61-.72,1.25-1.23,1.9-1.52.65-.29,1.32-.43,2.01-.43.22,0,.45.01.68.04s.45.06.65.1c.21.04.38.09.53.14l-2.68,8.65h-.28c.9-1.73,1.73-3.18,2.49-4.35.76-1.16,1.48-2.08,2.15-2.75.67-.68,1.32-1.16,1.94-1.45.62-.29,1.23-.43,1.82-.43.93,0,1.59.2,1.98.61.4.41.59.97.59,1.67,0,.41-.06.87-.18,1.39-.12.52-.28,1.09-.48,1.73l-1.13,3.23h-.26c.85-1.64,1.65-3.02,2.41-4.13.76-1.11,1.49-2,2.2-2.66.71-.66,1.38-1.14,2.02-1.42.64-.28,1.27-.43,1.89-.43.86,0,1.49.2,1.89.61.4.41.6.98.6,1.71,0,.38-.06.81-.17,1.29-.11.48-.28,1.01-.49,1.59l-4.36,11.27Z"/>
    <path d="M489.91,632.39c.99,0,1.83.21,2.51.63.68.43,1.2,1.04,1.57,1.85s.55,1.8.55,2.98c0,1.55-.23,3.05-.69,4.51-.46,1.46-1.11,2.77-1.92,3.93-.82,1.16-1.79,2.08-2.9,2.76-1.11.69-2.32,1.03-3.63,1.03-.98,0-1.81-.21-2.5-.63-.69-.43-1.21-1.04-1.57-1.86-.36-.81-.54-1.8-.54-2.97,0-1.55.23-3.05.69-4.51.46-1.46,1.09-2.77,1.91-3.92.82-1.16,1.78-2.08,2.89-2.77,1.11-.69,2.32-1.03,3.63-1.03ZM485.37,649.19c.81,0,1.57-.24,2.29-.72.72-.48,1.39-1.12,2-1.92.61-.81,1.14-1.72,1.59-2.74.44-1.02.79-2.08,1.03-3.17.25-1.1.37-2.16.37-3.19,0-1.47-.22-2.53-.67-3.18-.45-.66-1.13-.98-2.04-.98-.81,0-1.57.24-2.29.71-.72.48-1.39,1.12-1.99,1.92-.61.81-1.14,1.72-1.59,2.74s-.8,2.08-1.04,3.17c-.25,1.1-.37,2.16-.37,3.19,0,1.46.23,2.51.68,3.18.45.66,1.13.99,2.04.99Z"/>
    <path d="M518.45,648.85l-.28-.53c.44.03.93-.02,1.47-.15.54-.13,1.15-.39,1.83-.79.68-.41,1.44-1,2.29-1.78l.44.45c-.91,1.02-1.75,1.82-2.52,2.41-.77.59-1.46,1.01-2.09,1.25-.63.24-1.2.37-1.72.37-.71,0-1.13-.12-1.25-.36-.12-.24-.05-.68.2-1.31l4.31-11.09c.14-.4.25-.76.33-1.08.07-.33.11-.61.11-.86,0-.46-.12-.81-.36-1.04-.24-.23-.59-.35-1.07-.35-.72,0-1.46.29-2.25.87-.79.58-1.57,1.37-2.35,2.37-.78,1-1.51,2.13-2.17,3.4-.67,1.27-1.23,2.58-1.7,3.93l-1.65,5.12h-1.83l4.05-12.32c.09-.28.17-.53.23-.75.06-.22.1-.44.13-.65.03-.2.04-.39.04-.54,0-.5-.13-.87-.38-1.09-.25-.23-.61-.34-1.09-.34-.69,0-1.42.29-2.19.86-.77.58-1.54,1.36-2.3,2.36-.76,1-1.47,2.15-2.12,3.45-.66,1.3-1.2,2.68-1.64,4.14l-1.49,4.88h-1.8l4.7-15.55c-.07,0-.14-.03-.24-.04-.09-.01-.22-.02-.38-.02-.5,0-1,.13-1.48.39s-.96.65-1.42,1.18c-.46.53-.93,1.21-1.41,2.04l-.54-.26c.58-1.3,1.18-2.3,1.8-3.02s1.25-1.23,1.9-1.52c.65-.29,1.32-.43,2.01-.43.22,0,.45.01.68.04s.45.06.65.1c.21.04.38.09.53.14l-2.68,8.65h-.28c.9-1.73,1.73-3.18,2.49-4.35.76-1.16,1.48-2.08,2.15-2.75.67-.68,1.32-1.16,1.94-1.45.62-.29,1.23-.43,1.82-.43.93,0,1.59.2,1.98.61.4.41.59.97.59,1.67,0,.41-.06.87-.18,1.39-.12.52-.28,1.09-.48,1.73l-1.13,3.23h-.26c.85-1.64,1.65-3.02,2.41-4.13.76-1.11,1.49-2,2.2-2.66.71-.66,1.38-1.14,2.02-1.42.64-.28,1.27-.43,1.89-.43.86,0,1.49.2,1.89.61.4.41.6.98.6,1.71,0,.38-.06.81-.17,1.29-.11.48-.28,1.01-.49,1.59l-4.36,11.27Z"/>
    <path d="M537.26,633.4c-.71,0-1.42.2-2.1.6-.69.41-1.33.96-1.93,1.68-.6.72-1.13,1.54-1.58,2.47-.45.93-.8,1.94-1.06,3.02-.26,1.08-.39,2.17-.39,3.29,0,1.52.28,2.57.83,3.14.56.57,1.26.86,2.12.86.54,0,1.1-.11,1.68-.34.58-.22,1.17-.64,1.78-1.26.61-.61,1.24-1.5,1.88-2.67h.79c-.77,1.57-1.51,2.78-2.22,3.64-.72.85-1.44,1.44-2.17,1.77-.73.32-1.53.48-2.39.48-.81,0-1.53-.17-2.18-.5-.65-.34-1.16-.86-1.54-1.58-.38-.71-.57-1.64-.57-2.77,0-1.47.18-2.85.56-4.16.37-1.3.88-2.48,1.53-3.54.65-1.06,1.39-1.97,2.21-2.74.83-.77,1.7-1.36,2.61-1.78.91-.42,1.81-.62,2.7-.62.79,0,1.44.14,1.93.42s.86.65,1.09,1.1c.23.46.35.96.35,1.5s-.1,1.05-.29,1.57c-.19.52-.46.97-.82,1.37-.7.3-1.44.61-2.22.92-.78.31-1.59.61-2.44.91-.85.3-1.71.59-2.6.89-.89.3-1.79.59-2.72.88l.06-.89c1.65-.51,3.03-.99,4.15-1.42,1.11-.43,2-.82,2.67-1.18.67-.36,1.17-.7,1.52-1.03.34-.33.57-.66.68-.97.11-.32.17-.64.17-.97,0-.4-.07-.75-.2-1.06s-.35-.56-.65-.74c-.3-.18-.72-.28-1.23-.28Z"/>
    <path d="M544.95,637.68l-.54-.26c.58-1.3,1.18-2.3,1.8-3.02s1.25-1.23,1.9-1.52c.65-.29,1.32-.43,2.01-.43.22,0,.45.01.67.04.22.03.44.06.64.1.21.04.39.09.55.14l-2.74,8.85h-.22c.79-1.56,1.58-2.92,2.37-4.08.79-1.16,1.57-2.11,2.34-2.86.77-.75,1.54-1.3,2.29-1.68.75-.37,1.5-.55,2.24-.55,1.01,0,1.72.21,2.13.64.42.43.62,1.01.62,1.76,0,.43-.06.89-.19,1.39-.13.5-.3,1.04-.53,1.62l-4.29,11.03-.28-.53c.42.03.91-.02,1.45-.15.54-.13,1.16-.39,1.84-.79.69-.41,1.45-1,2.3-1.78l.44.45c-.93,1.02-1.77,1.82-2.54,2.41-.77.59-1.46,1.01-2.09,1.25-.63.24-1.19.37-1.7.37-.69,0-1.1-.12-1.24-.36s-.08-.68.17-1.31l4.31-11.07c.16-.41.28-.78.36-1.12.08-.34.12-.64.12-.9,0-.45-.13-.78-.38-.99-.25-.21-.64-.32-1.17-.32-.79,0-1.63.29-2.52.86-.89.58-1.76,1.37-2.61,2.37-.85,1.01-1.63,2.16-2.33,3.46-.7,1.3-1.27,2.67-1.71,4.1l-1.49,4.88h-1.8l4.7-15.55c-.07,0-.14-.03-.24-.04-.09-.01-.22-.02-.38-.02-.5,0-1,.13-1.48.39s-.96.65-1.42,1.18c-.46.53-.93,1.21-1.41,2.04Z"/>
    <path d="M569.24,645.26c-.09.36-.17.68-.25.97-.07.29-.12.54-.15.75-.03.21-.04.41-.04.58,0,.3.05.52.16.65.11.13.26.19.46.19.34,0,.78-.18,1.31-.54.53-.36,1.09-.86,1.7-1.5.6-.64,1.19-1.4,1.78-2.27l.61.4c-.57.93-1.14,1.74-1.71,2.43-.57.7-1.12,1.28-1.65,1.74s-1.03.81-1.5,1.05-.9.36-1.3.36c-.54,0-.96-.15-1.26-.44-.3-.3-.45-.8-.45-1.5,0-.33.04-.72.12-1.17.08-.45.2-.97.36-1.55l4.5-16.07h1.81l-4.5,15.93ZM567.45,633.93l.3-1.15h8.79l-.22,1.15h-8.87Z"/>
    <path d="M590.72,648.69l5.22-14.96.54.44c-.44-.03-.94.04-1.51.21s-1.2.48-1.9.95c-.7.47-1.49,1.15-2.36,2.03l-.43-.44c.94-1.19,1.8-2.12,2.6-2.78.79-.66,1.51-1.12,2.15-1.38s1.21-.39,1.7-.39c.56,0,.9.11,1.04.33.14.22.12.57-.05,1.06l-5.2,15.1-.46-.57c.44.05.93.02,1.48-.11.55-.13,1.17-.39,1.87-.79.7-.41,1.49-1,2.36-1.8l.42.47c-.93,1.02-1.77,1.82-2.53,2.4-.76.58-1.45,1-2.08,1.24s-1.19.37-1.7.37c-.65,0-1.04-.11-1.19-.32-.14-.21-.13-.57.04-1.07ZM597.14,623.38c0-.33.08-.63.24-.89.16-.26.37-.47.63-.63s.58-.23.93-.23c.56,0,1,.16,1.32.49.32.33.49.75.49,1.25,0,.34-.07.65-.22.92-.14.27-.35.48-.62.64-.27.16-.59.24-.96.24-.53,0-.96-.17-1.3-.52-.34-.34-.51-.77-.51-1.29Z"/>
    <path d="M602.78,637.68l-.54-.26c.58-1.3,1.18-2.3,1.8-3.02.61-.72,1.25-1.23,1.9-1.52.65-.29,1.32-.43,2.01-.43.22,0,.45.01.67.04.22.03.44.06.64.1.21.04.39.09.55.14l-2.74,8.85h-.22c.79-1.56,1.58-2.92,2.37-4.08.79-1.16,1.57-2.11,2.34-2.86.77-.75,1.54-1.3,2.29-1.68.75-.37,1.5-.55,2.24-.55,1.01,0,1.72.21,2.13.64.42.43.62,1.01.62,1.76,0,.43-.06.89-.19,1.39-.13.5-.3,1.04-.53,1.62l-4.29,11.03-.28-.53c.42.03.91-.02,1.45-.15.54-.13,1.16-.39,1.84-.79.69-.41,1.45-1,2.3-1.78l.44.45c-.93,1.02-1.77,1.82-2.54,2.41-.77.59-1.46,1.01-2.09,1.25-.63.24-1.19.37-1.7.37-.69,0-1.1-.12-1.24-.36-.14-.24-.08-.68.17-1.31l4.31-11.07c.16-.41.28-.78.36-1.12.08-.34.12-.64.12-.9,0-.45-.13-.78-.38-.99-.25-.21-.64-.32-1.17-.32-.79,0-1.63.29-2.52.86-.89.58-1.76,1.37-2.61,2.37-.85,1.01-1.63,2.16-2.33,3.46-.7,1.3-1.27,2.67-1.71,4.1l-1.49,4.88h-1.8l4.7-15.55c-.07,0-.14-.03-.24-.04-.09-.01-.22-.02-.38-.02-.5,0-1,.13-1.48.39s-.96.65-1.42,1.18c-.46.53-.93,1.21-1.41,2.04Z"/>
    <path d="M645.52,624.35l-7.72,25.33h-5.1l.16-.56,3.29-.69,7.36-24.1-3.02-.68.16-.56h8.31l-.16.56-3.29.7ZM648.16,648.97l5.28-6.37.5.3-3.73,7.8h-.22l-1.45-1.01h-11.88l.38-1.17h12.62l-1.49.45Z"/>
    <path d="M666.83,648.61l2.18-6.55h.36c-.75,1.25-1.51,2.36-2.27,3.34-.76.99-1.5,1.83-2.23,2.52-.73.7-1.43,1.22-2.11,1.59-.68.36-1.32.54-1.91.54-.75,0-1.38-.14-1.87-.43s-.87-.71-1.11-1.27c-.25-.56-.37-1.25-.37-2.05,0-1.08.2-2.25.6-3.48.4-1.24.96-2.45,1.68-3.65.71-1.2,1.55-2.29,2.5-3.27.95-.98,1.98-1.76,3.08-2.34,1.1-.58,2.24-.87,3.42-.87.88,0,1.58.18,2.07.56.5.37.92.88,1.28,1.53l-.77.79c-.19-.6-.47-1.07-.84-1.44-.38-.36-.92-.54-1.62-.54-.98,0-1.93.29-2.86.87-.93.58-1.78,1.34-2.57,2.28-.79.94-1.47,1.96-2.06,3.06-.59,1.1-1.05,2.19-1.38,3.25-.33,1.06-.5,2.01-.5,2.83s.17,1.44.53,1.86c.35.42.89.63,1.62.63.64,0,1.35-.26,2.15-.76.8-.51,1.6-1.19,2.39-2.05.79-.86,1.52-1.85,2.18-2.96.66-1.11,1.17-2.26,1.53-3.45l1.63-5.35,1.19-1.01h.93l-5.18,16.07-.42-.55c.42.05.91.02,1.47-.1.56-.12,1.18-.39,1.88-.79.7-.41,1.48-1.01,2.34-1.81l.43.47c-1.39,1.51-2.59,2.55-3.62,3.14-1.02.58-1.93.87-2.71.87-.59,0-.97-.12-1.11-.35-.15-.23-.13-.61.06-1.12Z"/>
    <path d="M678.04,646.63c.18,0,.36.12.52.35.16.23.38.55.67.96.29.41.6.71.94.89s.7.28,1.08.28c.62,0,1.18-.13,1.68-.4.5-.26.89-.63,1.18-1.1.29-.47.44-1,.44-1.6,0-.4-.06-.8-.19-1.22-.13-.42-.35-.89-.66-1.41-.32-.52-.77-1.13-1.35-1.84-.57-.69-1.01-1.3-1.34-1.83-.32-.53-.55-1.01-.68-1.45-.13-.44-.19-.85-.19-1.25,0-.93.21-1.74.64-2.44s1.02-1.24,1.79-1.63c.76-.38,1.63-.57,2.61-.57.77,0,1.41.11,1.92.33s.9.5,1.16.83c.26.34.39.69.39,1.06,0,.21-.05.41-.14.59-.09.18-.23.32-.4.43-.17.11-.38.16-.63.16-.13,0-.28-.11-.43-.33-.15-.22-.37-.52-.67-.9-.28-.37-.59-.66-.93-.87-.34-.21-.72-.32-1.11-.32-.79,0-1.45.23-1.97.7-.52.47-.78,1.16-.78,2.07,0,.33.07.68.2,1.04.13.36.35.78.67,1.26.31.47.74,1.05,1.28,1.72.56.66,1,1.28,1.33,1.85.33.57.57,1.1.72,1.6.15.49.23.99.23,1.48,0,.89-.24,1.71-.72,2.47s-1.14,1.37-1.98,1.84c-.85.46-1.82.69-2.94.69-.79,0-1.45-.11-1.98-.33s-.92-.5-1.18-.84c-.26-.34-.39-.69-.39-1.05,0-.22.05-.43.16-.61.11-.19.25-.34.44-.45.18-.11.39-.17.61-.17Z"/>
    <path d="M708.09,624.37l-2.9-.72.18-.56h8.29l-.18.56-3.41.72,1.61,23.31h-.79l15.1-23.31-3.02-.72.18-.56h7.76l-.18.56-3.29.72-16.82,25.71h-.58l-1.94-25.71Z"/>
    <path d="M734.98,633.4c-.71,0-1.42.2-2.1.6-.69.41-1.33.96-1.93,1.68-.6.72-1.13,1.54-1.58,2.47-.45.93-.8,1.94-1.06,3.02-.26,1.08-.39,2.17-.39,3.29,0,1.52.28,2.57.83,3.14.56.57,1.26.86,2.12.86.54,0,1.1-.11,1.68-.34.58-.22,1.17-.64,1.78-1.26.61-.61,1.24-1.5,1.88-2.67h.79c-.77,1.57-1.51,2.78-2.22,3.64-.72.85-1.44,1.44-2.17,1.77-.73.32-1.53.48-2.39.48-.81,0-1.53-.17-2.18-.5-.65-.34-1.16-.86-1.54-1.58-.38-.71-.57-1.64-.57-2.77,0-1.47.18-2.85.56-4.16.37-1.3.88-2.48,1.53-3.54.65-1.06,1.39-1.97,2.21-2.74.83-.77,1.7-1.36,2.61-1.78.91-.42,1.81-.62,2.7-.62.79,0,1.44.14,1.93.42s.86.65,1.09,1.1c.23.46.35.96.35,1.5s-.1,1.05-.29,1.57c-.19.52-.46.97-.82,1.37-.7.3-1.44.61-2.22.92-.78.31-1.59.61-2.44.91-.85.3-1.71.59-2.6.89-.89.3-1.79.59-2.72.88l.06-.89c1.65-.51,3.03-.99,4.15-1.42,1.11-.43,2-.82,2.67-1.18.67-.36,1.17-.7,1.52-1.03.34-.33.57-.66.68-.97.11-.32.17-.64.17-.97,0-.4-.07-.75-.2-1.06s-.35-.56-.65-.74c-.3-.18-.72-.28-1.23-.28Z"/>
    <path d="M745.44,660.19c-1.08,0-2.07-.09-2.97-.27s-1.66-.45-2.3-.81c-.64-.36-1.14-.81-1.49-1.35-.35-.53-.53-1.15-.53-1.86,0-.87.27-1.65.8-2.35s1.37-1.28,2.51-1.76c1.14-.47,2.61-.81,4.42-.99l1.33.04v.36c-1.19.05-2.23.2-3.12.44s-1.64.57-2.24.97c-.6.4-1.05.86-1.36,1.38-.3.52-.46,1.07-.46,1.67,0,.75.22,1.4.64,1.95.43.55,1.05.98,1.87,1.28.81.3,1.78.46,2.91.46,1.4,0,2.57-.2,3.51-.59s1.65-.89,2.12-1.51c.48-.62.72-1.26.72-1.93,0-.43-.09-.81-.26-1.16-.17-.35-.46-.68-.85-.98-.4-.31-.93-.61-1.6-.91-.67-.31-1.49-.62-2.47-.95-1.11-.39-1.96-.76-2.55-1.13-.59-.37-.99-.75-1.2-1.13-.21-.38-.32-.76-.32-1.15,0-.54.14-1.04.41-1.49.27-.45.68-.85,1.22-1.2.54-.35,1.2-.64,1.98-.86l.54.3c-.93.25-1.59.58-1.98.97-.4.4-.59.81-.59,1.23,0,.27.07.52.2.75.13.24.35.47.65.72.3.24.72.48,1.24.72.52.25,1.15.51,1.89.78,1.36.48,2.44.96,3.22,1.46.79.49,1.34,1.01,1.67,1.56.32.54.49,1.14.49,1.81,0,.78-.2,1.51-.58,2.18-.39.68-.94,1.26-1.65,1.76-.71.49-1.55.89-2.54,1.17s-2.08.43-3.28.43ZM750.22,632.39c.83,0,1.53.17,2.09.51.56.35.98.82,1.27,1.44.29.61.43,1.34.43,2.17,0,1.02-.18,2.03-.53,3.03-.35,1.01-.85,1.91-1.5,2.71-.65.8-1.41,1.44-2.28,1.92-.87.48-1.82.72-2.86.72-.83,0-1.54-.17-2.1-.52-.57-.35-.99-.83-1.27-1.45-.28-.61-.42-1.33-.42-2.15,0-1.03.17-2.05.53-3.04.35-1,.85-1.9,1.5-2.7.65-.8,1.41-1.44,2.27-1.92.86-.48,1.82-.72,2.87-.72ZM746.93,644.09c.54,0,1.07-.14,1.59-.43s1-.68,1.45-1.19c.45-.51.84-1.1,1.16-1.77.32-.67.58-1.38.77-2.14.19-.76.29-1.53.29-2.31,0-1.07-.17-1.85-.52-2.33-.34-.48-.85-.72-1.53-.72-.56,0-1.09.14-1.61.43-.52.28-.99.68-1.43,1.19-.44.51-.82,1.1-1.16,1.77-.34.67-.6,1.38-.79,2.13-.19.75-.29,1.53-.29,2.32,0,1.07.17,1.85.53,2.33.35.48.86.72,1.54.72ZM756.76,634.75c-.21,0-.4-.05-.58-.14-.17-.09-.37-.2-.59-.34-.22-.13-.5-.27-.83-.41-.33-.14-.74-.25-1.22-.35s-1.08-.14-1.8-.14l-.63-.72c1.22.17,2.2.23,2.97.19s1.39-.12,1.87-.21.95-.14,1.37-.14c.25,0,.45.06.59.19.14.13.22.32.22.59,0,.2-.04.39-.11.56s-.17.34-.3.47c-.13.13-.27.24-.43.32-.17.08-.34.12-.53.12Z"/>
    <path d="M767.04,648.61l2.18-6.55h.36c-.75,1.25-1.51,2.36-2.27,3.34-.76.99-1.5,1.83-2.23,2.52-.73.7-1.43,1.22-2.11,1.59-.68.36-1.32.54-1.91.54-.75,0-1.38-.14-1.87-.43s-.87-.71-1.11-1.27c-.25-.56-.37-1.25-.37-2.05,0-1.08.2-2.25.6-3.48.4-1.24.96-2.45,1.68-3.65.71-1.2,1.55-2.29,2.5-3.27.95-.98,1.98-1.76,3.08-2.34,1.1-.58,2.24-.87,3.42-.87.88,0,1.58.18,2.07.56.5.37.92.88,1.28,1.53l-.77.79c-.19-.6-.47-1.07-.84-1.44-.38-.36-.92-.54-1.62-.54-.98,0-1.93.29-2.86.87-.93.58-1.78,1.34-2.57,2.28-.79.94-1.47,1.96-2.06,3.06-.59,1.1-1.05,2.19-1.38,3.25-.33,1.06-.5,2.01-.5,2.83s.17,1.44.53,1.86c.35.42.89.63,1.62.63.64,0,1.35-.26,2.15-.76.8-.51,1.6-1.19,2.39-2.05.79-.86,1.52-1.85,2.18-2.96.66-1.11,1.17-2.26,1.53-3.45l1.63-5.35,1.19-1.01h.93l-5.18,16.07-.42-.55c.42.05.91.02,1.47-.1.56-.12,1.18-.39,1.88-.79.7-.41,1.48-1.01,2.34-1.81l.43.47c-1.39,1.51-2.59,2.55-3.62,3.14-1.02.58-1.93.87-2.71.87-.59,0-.97-.12-1.11-.35-.15-.23-.13-.61.06-1.12Z"/>
    <path d="M778.25,646.63c.18,0,.36.12.52.35.16.23.38.55.67.96.29.41.6.71.94.89s.7.28,1.08.28c.62,0,1.18-.13,1.68-.4.5-.26.89-.63,1.18-1.1.29-.47.44-1,.44-1.6,0-.4-.06-.8-.19-1.22-.13-.42-.35-.89-.66-1.41-.32-.52-.77-1.13-1.35-1.84-.57-.69-1.01-1.3-1.34-1.83-.32-.53-.55-1.01-.68-1.45-.13-.44-.19-.85-.19-1.25,0-.93.21-1.74.64-2.44.43-.7,1.02-1.24,1.79-1.63.76-.38,1.63-.57,2.61-.57.77,0,1.41.11,1.92.33s.9.5,1.16.83c.26.34.39.69.39,1.06,0,.21-.05.41-.14.59-.09.18-.23.32-.4.43-.17.11-.38.16-.63.16-.13,0-.28-.11-.43-.33-.15-.22-.37-.52-.67-.9-.28-.37-.59-.66-.93-.87-.34-.21-.72-.32-1.11-.32-.79,0-1.45.23-1.97.7-.52.47-.78,1.16-.78,2.07,0,.33.07.68.2,1.04.13.36.35.78.67,1.26.31.47.74,1.05,1.28,1.72.56.66,1,1.28,1.33,1.85.33.57.57,1.1.72,1.6.15.49.23.99.23,1.48,0,.89-.24,1.71-.72,2.47-.48.76-1.14,1.37-1.98,1.84-.85.46-1.82.69-2.94.69-.79,0-1.45-.11-1.98-.33s-.92-.5-1.18-.84c-.26-.34-.39-.69-.39-1.05,0-.22.05-.43.16-.61.11-.19.25-.34.44-.45.18-.11.39-.17.61-.17Z"/>
  </g>
</svg>