<?xml version="1.0" encoding="UTF-8"?>
<svg id="Layer_1" data-name="Layer 1" xmlns="http://www.w3.org/2000/svg" viewBox="0 0 1000 735.05">
  <g>
    <path d="M149.98,604.18c0,1.1-1.1,2.93-2.1,4.02-.37.28-.64.55-.64.82,0,.1-2.1,1.19-2.38,1.19-.64,0-.09-.82,1.01-1.64,2.29-1.74,3.84-6.31,2.75-8.87-1.28-2.93-4.57-4.39-9.51-4.02-2.01,0-5.3.73-6.13,1-.18.1-.55.1-.73.1-.09,0-2.75,1.09-4.21,1.83-.73.27-4.57,2.29-5.49,2.83-.82.55-2.65,1.65-2.93,1.92-.09.18-1.19.82-2.19,1.65-5.58,4.3-12.9,11.52-24.24,22.68-.82.64-1.28,1.65-1.37,1.65,0,.09-.55.55-.83,1.1-.46.37-.73.92-.82,1.1-.27.09-.82.82-1.37,1.65-.73.64-1.37,1.46-1.55,1.74-.55.73-2.01,2.38-3.11,4.02-.73.64-1.28,1.37-1.37,1.37,0,0-.18,0-.18.09,0,.18-.27.55-.37.73-.18.09-.82,1.19-1.55,2.01-.64.82-1.37,1.55-1.46,1.55,0,.1-.82,1.1-1.83,2.47-1.1,1.37-1.92,2.29-1.92,2.56-.09,0-.09.18-.09.27,0,.19-.46.28-.55.74-.27.09-.55.27-.55.55,0,.09-.28.82-.83,1.19-.46.55-1.1,1.37-1.28,1.83-.37.36-1.19,1.46-1.92,2.47-.82.92-2.01,2.47-2.75,3.39-2.74,3.84-6.86,8.69-7.77,9.88-.18.18-1.28,1.28-2.2,2.38-.82.91-1.92,2.01-1.92,2.01-.18,0-.18.18-.18.28,0,.45-.91,1.28-1.1,1.28-.27,0-.37.27-.64.64-.27.46-.73.91-1.1,1.01-.27,0-.46.45-.46.45,0,.1-.27.28-.37.28-.46,0-.46-.73,0-1.37.37-.37.55-.92.64-1.19,0-.37.55-1.1,1-1.74.55-.74,1.19-1.83,1.37-2.47.09-.73.55-1.37.64-1.55.46-.09.73-.83,1.28-1.65.91-2.2,2.28-4.39,2.83-5.03.18-.18.27-.55.27-.73,0-.09.18-.09.27-.09,0,0,.27-.18.27-.46,0-.37,1.1-2.29,1.55-2.47,0,0,.09-.09.09-.55l.27-.92c.46-.18.73-1,1.1-1.64.27-.74.82-1.83,1.37-2.2.27-.55.46-1.28.46-1.28-.18-.28.37-1.47.64-1.47,0,0,.18-.18.18-.27,0-.28.27-.74.37-1.1l.28-1.1c0-.46.27-.55.46-.73.09-.1.27-.55.27-.64,0-.19.09-.74.55-1.28l.27-.91c.09-.55.55-1.28.82-2.11.27-.36.55-1.1.64-1.46,0-.28.46-1.1.73-1.65.37-.55.55-1.28.55-1.56l.09-.36c.18,0,.46-.28.55-.83,0-.27.27-1.1.73-1.83.27-.64.64-2.01.91-3.02.46-1.1.82-2.2,1.01-2.75.27-.55.64-1.46.91-2.29.18-.73.46-1.55.82-2.1.18-.28.27-.64.27-.83l.46-.82c.27-.28.37-.82.37-.92,0-.27.27-.55.46-.73.09-.09.28-.55.09-.64,0-.18.18-.46.27-.55.27-.18.46-.46.46-.73,0-.09-1.37,1.28-3.02,2.93l-5.21,5.3c-2.38,2.38-2.74,2.75-5.21,5.49-3.02,3.29-4.85,5.39-6.5,7.04-.91.92-2.28,2.47-3.11,3.57l-2.38,2.47c-2.74,3.02-4.12,4.21-5.76,6.31-1.74,2.01-4.39,4.76-5.3,6.04-.73.36-3.02,3.84-3.02,3.93l-1.37,2.11c-.73,1.1-1.37,1.74-1.56,2.01,0,.28-2.47,3.2-3.66,4.12-.27.55-1.28,1.56-2.1,2.38-1.37,1.74-1.65,2.01-2.29,2.01-.55,0-.55.18.37-2.01.27-1.01,1.28-2.75,2.38-4.12.82-1.28,1.65-2.65,1.74-2.93.18-.37.46-.55.55-.55.18,0,.18-.1.18-.28,0-.09.37-.55.55-.82.28-.37.37-.55.37-.64l1.55-2.38c.82-1.38,1.65-2.47,1.65-2.56,0,0,.09-.18.27-.18.09,0,.09-.09.09-.37,0-.18.18-.27.46-.27,0,0,.27-.55.64-1.01.18-.64.82-1.46,1.1-2.2.73-1.19,1.28-2.01,2.74-5.03.27-.83.82-1.56,1-1.65.09-.28.64-1.1.92-1.92.55-.83,1-1.65,1.1-2.11,1.01-1.46,3.02-5.21,4.39-7.96.46-1.09,1.1-1.92,1.1-1.92.27-.09.46-.27.46-.64,0-.18.09-.73.37-1.01.46-.55.73-.91.73-1.19s.64-1.55,1.1-1.92l.37-1.01c0-.55.73-1.92.82-1.92.27,0,.27-.09.27-.37,0-.18.18-.45.18-.82.09-.18.27-.73.55-1.01l.37-1.19c1.1-2.2,1.92-5.49,2.93-10.33.55-2.56.64-6.68.09-7.96-.09-.92-2.2-3.02-3.39-3.66-1.55-.74-4.12-1.83-5.12-1.83-1.19-.1-5.85.18-6.86.27-.55,0-1.37.18-2.01.46-.55.09-1.83.55-2.1.55-.55,0-3.02.82-4.12,1.19-.28.18-1.1.46-1.65.55-.09,0-.09.18-.27.18-.37.09-.82.37-1.37.55-.27.27-.37.37-.64.55-.27.09-.46.27-.73.27-2.75,1.65-6.68,4.21-8.05,5.49-.46.36-.82.64-1.01.64-.27,0-6.31,6.22-7.13,7.41-.91,1.37-1.1,1.83-1.74,2.47-.27.27-.46.55-.46.55,0,.18-.64,1.28-1.19,2.47l-1.28,2.93c0,.27-.09.64-.09.82-.18.09-1.01,1.38-1.28,3.02,0,.83-.09,1.74-.09,2.2v1.1c0,.83,0,1.74.09,2.29l.55,1.83.46,1.19.37.46c1.28,1.19,2.11,2.2,3.48,2.56,2.56,1.01,7.23,1.01,10.15-.55,1.19-.36,2.56-1.19,3.84-2.19,1.65-.83,3.29-2.01,4.39-2.84,3.29-2.93,4.76-4.3,8.05-8.78,2.47-3.29,4.3-6.22,5.76-10.06.46-.64,1.37-5.49,1.92-4.21.46,1.19-.37,2.56-.91,4.39-.73,1.46-1.28,2.84-2.11,4.39-.27.37-.82.92-.91,1.47-1.37,2.47-4.39,6.58-6.03,8.5-2.75,3.2-7.14,6.77-10.7,8.69-.73.55-2.1,1.1-2.74,1.47-1.65.82-6.5,1.65-8.96,1.37-.82-.09-1.37-.27-2.2-.91l-1.92-.74c-.09-.09-.37-.36-.64-.82-.27.55-1.01-.37-1.01-1.1-.09-.09-.27-.27-.27-.37-.09,0-.09-.18-.28-.27,0-.18-.09-.28-.27-.46-.64-1.74-1.1-4.12-1.1-5.49,0-.83.18-1.65.27-2.47.18-.64.18-1.19.27-1.65.46-2.47.82-3.57,1.83-5.3l.27-1.01c0-.09.55-1.1,1.1-2.01.64-.83,1.37-1.92,1.46-2.47.27-.45.55-.82.73-.82l1.65-1.92c.82-1.01,2.29-2.65,3.39-3.57,1.1-1.1,2.19-2.11,2.38-2.2.09-.19.82-.73,1.46-1.1.55-.55,1.1-1.01,1.1-1.1.18-.18.27-.18.46-.18.09,0,.64-.37,2.19-1.47.09-.18.37-.27.55-.27.09,0,.27-.19.27-.28,0-.18,0-.27.09-.27.18,0,1.01-.46,1.65-.83l1.01-.55c.27-.27.37-.54.55-.54.36-.46,1.1-.74,1.19-.74.46,0,.82-.27,1.37-.55.55-.27,1.37-.64,2.2-.82.73-.28,1.37-.64,1.64-.64.27-.18.73-.28,1.28-.46l.37-.09.73-.18c5.76-1.1,9.97-1.19,13.81-.37,0,0,.18.09.28,0,.46-.27,3.29,1.1,4.94,2.2,2.38,1.19,4.85,5.3,5.4,7.77l.27,1.37c.37.46.37,4.57,0,4.94-.18.18-.18.46-.18.46,0,.36-.27,2.01-.37,2.56-.27.27-.46.82-.46,1.1-.09.46-.27,1.28-.64,1.92-.27.46-.46,1.37-.73,1.65-.27.55-.37,1.28-1.1,2.93-.37.27-.82,1.37-1.1,2.01l-.82,1.92c-.27.55-.64,1.37-.82,1.92l-.27.82c-.28.19-.37.74-.64,1.1-.18.73-1.1,2.11-1.83,3.29l-1.1,2.2c0,.18-.37.45-.64,1-.27.37-.55.83-.55.92l-1.64,2.93c-.82,1.46-2.2,3.57-2.93,4.48-.37.82-1.37,2.1-1.65,2.65-.82,1.1-.82,1.65,0,.64q3.29-3.66,7.96-8.5c1.01-1.1,2.38-2.47,2.74-3.11,1.28-1.28,4.94-5.39,5.95-6.49.37-.36,1.74-1.74,3.02-3.11,1.19-1.37,3.29-3.57,4.48-4.85,1.28-1.19,2.2-2.47,2.2-2.47,0-.09,1.28-1.09,2.47-2.47,4.66-4.76,4.85-5.03,6.22-7.68.64-1.37,1.65-3.29,2.29-4.12.55-.82,1-1.46,1-1.65l.91-1.46c.46-.74,1.01-1.38,1.01-1.56,0-.09,2.29-3.02,2.74-3.11.55-.28.91-.28,1.1.09.09.27-2.47,6.22-3.2,6.86l-.64.73c-.18.09-.18.55-.18.55,0,.09-1.1,1.46-1.46,1.92-.27.28-.55.64-.73.92-.55.45-1.47,2.65-1.47,3.2-.18.09-.55.92-.82,1.74-.46,1.1-.73,1.92-.73,2.11l-1.1,3.11c-.37,1.83-.92,3.48-.92,3.75-.18.55-.18,1.1-.27,1.1,0,.09-.27.64-.27.92l-1.92,7.59c0,.09-.27.55-.27.64,0,.73-.82,3.02-1.1,3.48-.18.09-.46.36-.46.82,0,.28-.09.83-.37,1.38-.27.36-.73,1.46-1.1,2.01-1.1,3.2-1.64,4.02-1.83,4.02,0,0-.09.09-.09.27,0,.37-1.01,2.2-1.28,2.56-.09,0-.09.27-.27.55,0,.45-.55,1.1-.91,1.55-.28.37-.55.92-.55,1.1.09.09,0,.37-.46.83-.09.27-.64,1.19-.82,1.64-.27.64-.64,1.1-.82,1.1,0,0-.09.09-.09.28,0,.27-2.74,4.21-3.29,4.66-.27.36-.46.64-.46.82l-.64.92c-.46.27-.55.82-.55.82,0,.28.82-.64,1.37-1.46.09-.46.64-1.1.82-1.28.27-.27,1.37-1.46,2.28-2.83.83-1.1,2.38-2.93,2.93-3.75.64-.64,1.37-1.46,1.37-1.46,0-.19.09-.28.27-.74.64-.64,1.74-2.19,2.56-3.11.27-.73,1-1.56,1.28-2.1l1.92-2.29c.27-.46.82-1.01.91-1.38.27-.18.55-.73.82-1,.46-.55,1-.92,1-1.19.09-.19.55-.55,1.1-1.28l.91-1.37c.27-.09,1.28-1.47,2.47-2.75,1.01-1.37,2.2-2.84,2.38-3.11.27-.46.82-1.01,1.37-1.37.27-.55.64-.83.64-1.01,0-.09.27-.55.46-.64.37-.18.64-.55.64-.73,0-.1.18-.55.55-.64.18-.27,1.1-1.37,2.2-2.47,3.84-4.57,11.98-11.8,16.37-16.18,2.01-2.11,3.66-3.57,3.84-3.57l.91-.74,1.64-1.46c.55-.28,1.01-.83,1.1-1.01.27-.27.73-.55,1.37-1.1,1.1-.82,1.37-.91,1.92-1.19,0-.27.27-.46.46-.46,0-.09,1.19-.82,2.47-1.46,1.92-1.56,6.31-3.75,6.86-3.75.09,0,.09-.09.09-.09,0-.18.55-.45,1.01-.55l2.56-.73c3.2-.82,6.31-1.46,8.96-1.37,3.02.27,5.03.73,6.04,1.65.09.27.55.45.64.45.27,0,1.64,2.2,2.1,3.39.27.83.27,2.2,0,4.12ZM59.25,668.39c-.09.18-.09.27-.09.27.09.19.09,0,.37-.09.18-.55,0-.55-.27-.18Z"/>
    <path d="M100.72,643.97c0,.28,0,.46-.73,1.28-.55.83-1.37,1.92-1.65,2.29-.27.55-.55,1.01-.64,1.01,0,.09-.27.27-.27.37,0,.18-.27.73-.55,1.09-.55.55-2.74,3.48-3.02,4.12-.18.46-3.75,5.95-4.48,6.59-.09.27-.55.82-.55,1.1l-2.84,3.84c-.18.28-.27.46-.27.55,0,.18-.46.55-.82,1.37-2.19,3.48-3.29,6.22-2.93,7.59.27.55.46.64,1.37.64,1,.18,1.28.18,1.92-.28,1.28-.55,1.64-.92,2.19-1.19.18-.18.27-.27.46-.27.09,0,.55-.46,1.19-1.1,1-.83,5.3-4.66,9.69-9.33.64-.74,1.37-1.65,1.46-1.83.18-.1.55-.83,1.55-1.74,1.46-1.56,2.29-3.02,3.93-4.66,1.37-1.65,3.02-4.12,3.57-4.85.73-.82,1.55-.55,1.1,0-.28.46-.82,1.56-4.94,6.49-1.1,1.38-2.75,3.29-3.29,4.12-.83.82-1.92,2.01-2.47,2.74-1.74,1.92-8.96,9.33-11.71,10.98-2.84,1.74-3.11,2.11-4.66,2.11-1.74-.19-3.29-1.28-4.12-2.84-.37-1.1-.37-3.11.18-4.66,1.19-2.75,1.37-3.02,1.46-3.02.28,0,.28-.1.28-.28,0-.09.18-.27.18-.27.09,0,.37-.55.64-1.1.27-.37.73-1.19,1.01-1.47.27-.27.91-1.37,1.65-2.47.55-1.01,1.37-2.2,1.64-2.75.27-.27.55-.73.64-1,1.37-2.47,2.2-3.66,4.21-6.59,1.19-1.74,2.56-3.66,3.02-4.48,1.1-1.56,2.2-2.47,2.84-2.75,1.28-.27,3.75,0,3.75.64ZM107.3,629.97c1.37,1.28.64,3.48-1.1,5.12-1.1.92-1.28,1.1-2.19.92-1.83-.1-2.38-1.38-1.56-3.11.46-1.37,1.28-2.38,2.47-2.93,1.28-.55,1.64-.55,2.38,0Z"/>
    <path d="M101.26,676.34c-.82-.09-2.38-1.74-2.65-2.83-.64-2.38.27-7.59,1.55-9.06.09-.27.64-1.01.91-1.83.46-.64.82-1.46,1.1-1.65.18-.27.46-.64.55-1.19.27-.46.46-.73.55-.73.18,0,.18-.09.18-.28,0-.27.55-.82,1.1-1.46,1.37-1.83,1.19-1.56,3.02-4.12,3.57-5.21,4.12-6.03,4.12-6.31,0-.18.46-.82,1-1.37,1.37-1.83,2.83-4.02,4.76-7.04l1.28-1.92c.55-.82.91-1.46.82-1.64,0,0-2.1-.09-4.3-.09-3.02,0-4.12,0-4.21-.28-.18-.18-.18-.46.09-.46.18-.09,2.19-.27,4.66-.27s4.57,0,4.66-.09c.18,0,.82-1.1,1.64-2.2,1.55-2.47,1.55-2.38,3.29-4.57.73-.82,1.37-1.65,1.37-1.74,0-.18.18-.27.27-.46.18,0,.46,0,.46.19h2.19c3.02,0,3.11-.19,1.74,1.37-.37.37-1.19,1.37-1.74,2.2l-1.64,2.56c-1.01,1.56-1.65,2.38-1.83,2.65,0,0,2.74.09,6.04.09,6.03,0,7.13.18,6.31.82-.37.28-1.64.28-6.03.28-7.68-.09-7.14-.09-8.32,1.83-.55.82-1.28,1.46-1.37,1.65-.18,0-.28.36-.46.64-.09.27-.91,1.37-1.65,2.65l-2.74,3.84c-.64.91-1.37,1.74-1.46,1.92,0,0-.18.09-.18.28,0,.27-2.01,3.11-2.2,3.11-.09,0-.27.18-.27.46-.27.36-.27.55-2.29,3.38-.73,1.01-1.83,2.65-2.38,3.57-.73.82-1.37,1.83-1.55,2.1-.37.55-.82,1.19-2.75,4.48-.64,1.28-1.19,2.38-1.19,2.47,0,0-.18.73-.46,1.28-.64,1.19-.55,3.93,0,5.21,1.1,1.92,4.39,1.74,7.32-.27,1.83-1.1,5.12-4.02,5.94-4.94.27-.27,1.65-1.83,3.02-3.2,1.37-1.47,3.57-3.84,4.94-5.21,1.74-2.01,3.29-3.57,5.03-5.58,1.01-1.28,1.56-1.83,2.47-2.93l2.19-2.47c.73-.82,1.01-1.1,1.28-.64.37.27,0,.09-.46.82-.27.55-.82,1.38-1.19,1.74-.27.46-1.83,2.11-3.29,4.02-6.59,7.96-17.47,18.48-17.83,18.48-.18,0-.55.27-.82.55-.82.82-3.48,2.1-4.57,2.19-.55,0-1.1.19-1.1.28-.46.18-3.84.18-4.3,0-.09-.09-.55-.28-.64-.28Z"/>
    <path d="M115.78,676.25c-.09-.27.73-1.83,2.2-3.75.27-.37.73-.92.73-1.1l1.74-2.75c.73-.91,1.1-1.74,1.1-1.92,0-.09.18-.27.27-.27.18,0,.46-.37.82-.92.28-.55.83-1.37,1.1-1.83.46-.37.73-.92.82-1.19.27-.28.82-1.28,1.55-2.2,1.19-1.83,3.02-4.39,3.02-4.57,0,0,.55-.91,1.37-1.92.64-.92,1.37-1.92,1.37-2.01,0-.19,0-.28.09-.46.18,0,2.01-2.56,4.21-5.85l.55-.83c.09,0,.27-.45.37-.73l1.83-2.47c.09,0,.09-.09.09-.28,0-.09,1.28-2.01,1.83-2.56.27-.18.37-.46.37-.55,0-.18.27-.55.55-1.01q.73-.82,1.83-2.56c1.19-1.92,1.65-2.47,4.66-6.86l4.39-6.49c3.02-4.39,3.11-4.66,3.39-4.94.55-.83,1.83-2.75,1.83-3.11,0-.27.27-.45.82-.54.82-.19,1.74,0,2.29.27.18.09.46.09.46.09.09-.09.27,0,.37.18.18.28.18.37-.09.92-.27.28-.55.73-.55.82,0,.19,0,.28-.18.28-.09,0-.55.55-.92,1.1-.27.73-.73,1.1-.82,1.28-.18,0-.18.09-.18.09,0,.18-1.92,3.2-4.39,6.77-2.29,3.57-4.39,6.58-4.39,6.67l-.55.83c-.37.45-.64.82-.64,1,0,.09-.27.55-.55.92-.46.46-.73.82-.73,1.01-.27.36-3.02,4.66-3.38,5.03-.27.28-.46.55-.46.55,0,.28-1.19,2.11-1.47,2.38,0,.09-.55.83-1.1,1.65.55-1.01-1.28,1.65-1.92,2.84-.46.46-2.47,3.75-1.92,2.93l3.66-3.84c.73-.27,1.83-1.28,2.47-1.92,2.38-2.11,5.21-3.48,6.77-3.57,2.19-.18,2.47-.28,3.38.36,1.28.74,1.65,1.83,1.65,3.2s-1.19,4.39-2.74,6.4c-.64,1.1-1.65,2.65-1.92,3.2-1.1,1.92-5.21,7.41-5.85,7.96-.27.27-.46.37-.46.55,0,0-.37.36-.64.82-1.64,1.92-4.12,6.31-4.66,8.05-.27,1.01.37,2.47.91,2.93,1.01.64,2.65.55,3.75-.27.37-.28,1.1-.55,1.19-.55,0,0,.18,0,.18-.19.09-.09,3.11-2.84,3.93-3.38.46-.28,4.39-5.4,6.04-7.32.46-.64,1.1-1.37,1.55-1.65,1.1-1.19,2.47-2.84,2.47-3.29l6.31-7.5c1.1-1.38,1.46-1.28,1.65-1.01.27.18.27.46-.27,1.01-.27.36-.82.82-1.1,1.19-1.65,2.38-6.22,7.59-6.22,7.95,0,0-.55.74-1.37,1.56-.64.64-1.74,1.92-2.19,2.75-.64.64-1.92,2.01-2.56,2.84-.82.82-1.83,1.83-1.92,2.1-.55.92-4.66,4.66-6.04,5.58l-1.1.82c-.73.46-1.92,1.1-3.2,1.28-2.47.28-3.66-.27-4.94-2.74-.27-.83-.27-1.56-.27-2.38-.09-1.74,1.1-3.93,2.11-5.49,1.37-2.47,3.02-4.48,4.66-6.67.27-.28.55-.73.55-.83,0-.18.37-.73.82-1.1.37-.73,1.19-1.28,1.46-1.64.27-.55,1.1-1.38,1.65-2.11.73-.64,1.28-1.37,1.28-1.46,0-.19.27-.55.82-1.1,1.37-1.56,2.84-4.66,2.84-6.31.18-1.28.18-1.37-.55-1.92-1.19-1.38-3.11-.55-7.23,2.74-2.93,2.47-3.02,2.56-3.84,3.57-.82,1.19-1.56,1.74-2.47,3.02-.73.64-1.37,1.46-1.92,2.19-.27.37-2.38,3.39-2.93,3.93-1.1,1.28-1.83,2.11-1.83,2.2,0,.18-.27.55-.64,1.01-.82.82-2.74,3.29-3.57,4.48-.27.55-.73,1.28-1,1.38-.09.27-.37.54-.37.82-.18.27-.28.46-.46.46-.09,0-.09.09-.09.09,0,.27-1.01,1.65-1.1,1.65-.18.18-.27.27-.27.45,0,0-.18.37-.46.64-.37.54-.92,1.37-1.65,2.65-.09.28-.27.37-.37.37-.18,0-.27.18-.27.27,0,.46-1.37,2.11-1.83,2.2-.83.37-3.29,0-3.57-.37Z"/>
    <path d="M198.88,675.98c-.18-.18-.73-.46-1.37-.55-.46-.28-.83-.46-.83-.55,0,0-.46-.18-.82-.28-1.1-.45-3.02-2.74-3.2-3.84,0-.18-.09-.18-.09-.18-.27-.28-.27-3.29,0-3.93.37-.83,1.65-2.65,1.92-2.65.09,0,.27-.09.27-.27,0-.09.09-.28.27-.37l.91-.73c.46-.27,1.01-.37,1.28-.37,0-.18.28-.27.28-.45,0-.1.09-.28.37-.28s.55-.09.73-.27c0-.09.27-.09.37-.09.28,0,.82-.28,1.1-.28,1.92-1.1,9.6-1.83,12.9-1.37l2.2.27c.27,0,1.55.09,2.38.55.91.28,2.29.55,3.02.64,1.46.46,5.58,1.92,5.58,2.2.18.18.27.27.46.27.09,0,.91.19,1.46.46q1.55.83,1.92.28c1.1-1.01,3.75-3.75,3.84-4.02,0-.09.27-.09.46-.09.09,0,.37-.19.37-.28,0-.18.55-.82,1.37-1.65,3.02-3.02,6.04-6.77,6.22-7.04,0-.09.27-.36.37-.55,1-1.37,4.39-5.49,4.66-6.13,0-.28.46-.73.73-.82.27-.19.55-.55.55-.74,0-.09,0-.36.27-.82,1.1-1.37,1.19-1.47,1.19-1.65,0-.09.27-.27.46-.55.82-.64,1.19-1.46,1.65-2.29.27-.46.55-.82.91-1.28l.73-.64-1.01-.18c-1.92-.1-4.76-1.19-6.31-1.74-2.28-1.1-3.02-1.38-3.11-1.65,0-.18-.27-.18-.46-.18-.09,0-.27,0-.27-.1,0-.18-.28-.27-.55-.45-.82-.37-3.66-3.02-4.94-4.39-1.19-1.46-2.2-3.11-2.2-3.39,0-.18-.27-.55-.55-1-.28-.55-.55-.92-.55-1.19l-.28-1.01c-.82-1.38-.82-7.13-.09-9.06,0-.27.09-.91.37-1.74.27-.55.46-1.55.55-1.64.27-.19.55-1.1,1.1-1.83.46-.91.82-1.46.82-1.46.18,0,.27-.46.46-.82.82-1.28,5.21-5.76,6.31-6.31.37-.19.64-.28.64-.46,0-.27,3.75-2.2,4.3-2.2.27,0,.37,0,.37-.27.18-.09.46-.09.55-.09.18.09.46,0,.55-.19.18,0,.82-.27,1.83-.55,1.65-.09,2.2-.09,4.12.19,1.46.27,3.29,1.1,4.39,1.92.92.82,1.92,2.2,1.74,2.47-.09.09,0,.28.18.37.82.27,1.1,4.57.64,5.67-.09.28-.09.55-.09.55.09.1,0,.37-.27.64l-.27.82c0,.27-.46,1.1-.82,2.11-1.37,2.19-6.58,7.68-7.59,7.68,0,0-.27.09-.37.36-.27.46-2.38,1.65-2.65,1.65-.92,0-.27-.64,1.55-2.01,1.46-.83,3.38-1.83,4.76-3.57,2.1-2.11,3.57-4.3,3.48-4.85,0-.09.27-.55.37-.64.18-.46.55-1.28.73-2.1l.27-1.92c.09-.55.09-3.11-1.28-5.21-.28-.36-.64-.82-1.19-1.09-.28-.37-1.01-.92-1.28-1.1-1.37-1.1-6.59-1.47-8.6-.28-.46.28-.73.28-.82.28,0,0-.27.18-.55.27l-1.83,1.37c-2.74,1.92-5.31,4.57-6.86,7.04-.64,1.38-1.92,4.48-1.92,4.76,0,.18-.09.55-.27.82-.27.46-.37.82-.37,1.1v2.47c-.18,2.65.09,5.67,1.19,8.14.46.92.73,1.92.83,2.01.18.28.27.55.55.83.73,1.56,3.84,4.66,6.31,6.31,1.37,1.1,5.39,3.02,6.86,3.2,1.65.37,2.75.37,2.93,0,.27-1.01,3.02-4.66,3.66-5.39.55-.37,1-1.1,1.28-1.47.27-.55.64-1.28,1.1-1.55.82-.83,1.46-1.74,1.46-1.74,0-.19.55-.73,1.01-1.28.55-.37,1.19-1.65,1.92-2.29.55-.74,1.46-1.83,1.92-2.2.92-1.28,2.2-2.75,5.3-6.22,1.92-2.01,4.85-4.94,5.21-4.94.18,0,.18-.09.18-.28,0-.09,0-.27.09-.27.18,0,.55-.28,1-.64.27-.46,1.1-1.01,1.64-1.38,2.29-1.83,4.12-3.02,4.12-3.02.28,0,.64-.45,1.1-.55.64-.55,1.74-.82,3.11-1.55l1.55-.83c.27-.09.91-.27,1.65-.36.64,0,1.19-.19,1.37-.28.28-.18,3.39-.18,4.21,0,1.28.09,2.47.83,3.57,1.47.82,1,1.55,2.19,1.55,2.38-.18.09-.18.27,0,.36.27.19.27,2.47,0,3.75-.55,1.46-1.1,3.02-1.37,3.29-.27.1-.46.37-.46.64,0,.18-.09.27-.27.27-.09,0-.09.18-.09.27-.18,1.1-6.49,8.14-10.61,11.25-.55.55-1.46,1.28-1.92,1.65-1.74,1.37-3.93,3.02-4.94,3.57-.37.27-.91.73-1.19.73-.27.27-.73.55-.82.64l-.82.55c-.46.27-4.85,2.75-5.12,2.75-.09,0-.82.27-1.65.55-.82.45-1.64,1-1.92,1-.09,0-.82.09-1.19.37-.46.18-1.1.46-1.37.46-.18,0-.46.09-.55.36-.73.55-5.67,1.56-8.51,1.83-.55,0-1.1.37-1.92,1.47-.55.73-1.01,1.83-1.37,1.92-.27.46-.55,1.01-.55,1.28-.27.37-2.38,3.84-3.2,4.94l-2.01,2.84c-.82,1-1.83,2.38-1.83,2.38,0,.09-.37.55-.82,1.1-.91,1.19-3.57,4.66-3.84,4.66-.09,0-.55.27-.91,1.09-.55.55-1.1,1.19-1.37,1.38-.27,0-.46.27-.46.36,0,0-.55.74-1.19,1.38-.73.46-1.56,1.1-1.83,1.37l-2.01,2.38c-1,1.1-2.1,1.65-1.92,1.92,0,.1-.18.37-.27.55-.18.1,0,.37.55.64.55.28.91.46.91.55.18.19,3.57,2.11,4.94,2.65.55.09,1.92.82,2.1.91.37.19.64.28.82.28,0,0,.27.18.37.18.46.09,2.38.83,2.75.83.18,0,.55.09.82.27.46.09.73.09.73.28.09,0,.91,0,1.46.09,3.48.46,8.14.27,9.24-.28.09-.09.64-.36,1.37-.55.55-.09,1.37-.36,1.92-.64,2.29-1.1,4.12-2.1,4.39-2.38.09-.09.37-.55.82-.55,5.03-3.57,9.7-8.59,14.36-14.63,1.83-1.92,2.74-3.2,3.02-3.57.73-.82,1.1-.82,1.1-.18,0,.18-.82,1.37-.92,1.65-1.37,2.1-2.74,3.57-2.93,3.75-3.57,4.39-7.13,9.06-13.99,13.99-2.83,1.92-6.86,3.84-9.33,4.39-1.46.28-2.2.28-4.94.37-2.75,0-4.21-.09-6.68-.64-.73-.18-1.64-.46-1.92-.46-.46-.09-.82-.27-1-.36-.09,0-.37-.19-.64-.19s-.55,0-.73-.09c0-.18-.37-.46-.82-.46-.37-.09-2.2-.82-3.84-1.74-1.92-.82-3.38-1.55-3.38-1.55l-1.28-.64-1.1-.74-.91.46c-.46.09-1.37.92-2.38,1.47-.83.55-2.29,1.37-3.29,1.92-.82.27-1.74.82-2.01,1.1-2.38,1.28-8.78,2.93-10.97,2.93-.55,0-1.56.09-2.11.27-2.28.74-10.79.37-12.44-.27ZM211.05,674.42c1-.09,3.75-.82,4.94-1.37l1.01-.37c1.37-.55,4.66-2.1,5.3-2.65.46-.37.82-.55,1.01-.55,0,0,.64-.37,1.37-1.1.64-.55,1.46-.92,1.65-.92q.09,0,.09-.18c0-.09.27-.55.82-.82.46-.28.73-.55.73-.55,0-.28-2.38-1.38-2.75-1.38-.18,0-.27-.09-.46-.27-.09-.09-.91-.37-1.74-.64-.73-.28-1.64-.55-1.92-.74-.27-.09-1.1-.36-3.2-.82-1.46-.37-3.29-.64-4.76-.82-5.4-.37-11.16.18-13.99,1.64-.55.28-1.1.55-1.28.55-.09,0-.55.46-1.37,1.01l-1.19.92c-.46,0-1.37,2.65-1.37,3.48.27,2.74,3.11,4.94,7.41,5.76,2.01.28,7.5.28,8.23.1.09-.1.82-.28,1.46-.28ZM263.09,634.09c1.64-.27,5.03-.91,6.13-1.65l1.56-.54c.55,0,1.1-.1,1.19-.28l1.28-.82c.91-.28,5.49-2.56,6.86-3.39.27-.28,1.1-.73,1.46-1.01.55-.36,1.37-.82,1.65-1.1.27-.36.73-.64.82-.64.18,0,1.37-.73,1.83-1.37.09-.18.37-.28.55-.28.27,0,3.11-2.19,4.39-3.57.37-.46.64-.73.82-.73.27,0,6.86-6.86,6.86-7.13,0-.09.09-.09.28-.37.82-1.1,1.92-2.65,1.92-2.74,0-.19.09-.55.27-.83.55-.55,1.1-3.2,1.1-4.12-.18-1.83-1.64-3.57-3.47-4.12-1.19-.27-3.39-.46-4.66-.27-2.84.55-6.86,2.74-10.24,5.49-2.93,2.2-9.6,9.15-9.79,9.97l-.82,1.01-2.2,3.11c-.64,1.28-1.74,2.75-2.2,3.48-.55.82-1.1,1.46-1.1,1.46,0,.19-2.01,3.29-2.74,4.3l-.09.36c0,.19-.46.83-.82,1.28-.46.82-1.64,2.56-2.93,4.66-.09.09,0,.27.18.09.27-.09,1.19-.28,1.92-.28Z"/>
    <path d="M278.12,677.08c-1.64-.74-2.74-2.11-3.02-4.39-.27-1.28-.27-3.48,0-4.02.09-.09.27-.55.27-.82.09-.28.27-1.1.64-1.74.27-.73.55-1.65.82-2.47.73-1.56,1.83-3.75,2.19-4.3.27-.09.46-.36.46-.64v-.18c.09,0,.55-.82.82-1.47.91-1.37,1.19-1.83,2.56-3.47l1.55-1.74c1.1-1.38,3.02-3.2,4.94-4.85,2.19-1.74,5.21-3.38,7.59-3.93.55-.19,1.19-.28,1.64-.28,1.74-.18,5.03.83,5.85,2.47.55.83.82,2.01.82,3.11,0,2.47-.27,2.1-.82,4.12-.37,1.64-3.66,7.68-4.76,9.33l-1,1.37c-.92,1.37-1.19,1.65-1.74,2.2-.46.55-.28,1.55.37,2.38,1.64,1.92,2.65,1.19,7.13-2.65,4.66-3.93,10.98-12.07,12.62-14.08,1.37-1.65,1.28-.82,1.1.09-.27.83-7.96,10.16-10.52,12.8-3.57,3.29-5.49,5.21-7.41,5.76-1.83.55-2.65.28-3.48-.73-.27-.09-.55-.64-.55-.64,0-.19-.09-.46-.37-.74-.18-.36-.18-.27-1.56,1.1-2.19,2.75-5.21,5.4-5.76,5.49-.27,0-.55.18-.64.45-.55.55-3.38,1.92-5.12,2.47-1.83.55-3.48.82-4.66,0ZM287.08,673.78c0-.18.27-.27.55-.27.64,0,3.29-2.65,5.21-4.66l2.28-2.47c.27-.27.46-.73.46-1s0-.64.09-.92c.27-1.37.46-2.47,1-3.2.09-.37.37-.83.37-.83,0-.36,3.2-5.49,4.02-6.4.27-.18.37-.45.37-.55,0-.18.46-.82.73-1.37.55-1.01,1.1-1.1,1.64-1.1.09-.18.27-1.1.27-2.38.27-2.01-.18-2.75-1.56-3.39-.55-.27-1.1-.45-1.92-.45-1.65.18-2.01.27-4.12,1.37-2.2,1.1-3.02,1.83-4.76,3.29-2.38,2.1-6.4,7.13-6.4,7.86,0,.09-.09.27-.27.27-.27,0-4.94,7.96-5.49,9.88,0,.37-.27.83-.37,1.19-.27.28-.46.55-.46.83,0,0-.09.73-.37,1.1-1.55,5.12.55,6.95,4.94,5.21,1.74-.55,3.57-1.65,3.75-2.01Z"/>
    <path d="M331.23,645.34c.18.83-.37,3.57-.82,4.12-.09.18-.27.45-.27.54,0,.28,0,.55-.27.74-.09.09-.37.55-.55,1.1-.09.36-.27.82-.37.82-.18,0-.27.27-.27.55-.18.27-.55.91-1.1,1.65-.46.55-1.01,1.19-1.01,1.37-.09.28-.27.55-.36.55-.18,0-1.83,2.01-4.3,5.76-3.02,4.39-3.84,5.49-3.93,5.49-.46.28-2.01,3.57-2.28,4.66-.55,1.65-.37,2.47.55,3.02.46.28,1.01.37,1.55.37,1.37,0,4.85-1.19,6.5-2.47.91-.55,1.74-1.1,1.92-1.1.27,0,3.38-2.56,3.57-3.02,0,0,.64-.83,1.37-1.47,2.29-2.47,6.31-7.68,6.31-8.41.37-1.92,2.29-6.31,4.12-9.06.55-.64.91-1.46,1.1-1.74.55-1,2.01-2.74,2.83-3.29,1.1-.73,1.65-.83,2.2-.55.55.36.27,1.65-1.1,3.66-.64,1.01-1.19,1.92-1.19,2.11,0,.09-.27.27-.46.36-.28.19-.55.46-.55.55,0,.46-2.56,4.3-3.29,5.12-.37.37-.64.82-.64.82,0,.1-.27.37-.55.83-.27.36-.55.82-.55,1.1s-.18.55-.18.64c-.37.46-.55,3.2-.27,4.02.55,1.74,2.19,2.01,4.12,1.1,2.93-1.56,7.04-5.49,10.7-10.16,2.1-2.65,2.65-3.48,3.2-4.02l.64.55-2.74,3.75c-.64.91-3.84,4.39-4.21,4.76-.46.27-.82,1.1-1.37,1.55-.46.55-1.28,1.19-1.83,1.65-.55.55-1.19.92-1.37,1.19l-2.74,1.83c-2.75,1.38-5.21.28-5.76-2.74-.09-.74-.37-1.38-.55-1.38,0,0-.37.37-.64.92-.46.55-1.1,1.56-1.65,2.2-.55.73-1.28,1.55-1.37,1.83-.73.91-5.12,5.3-5.49,5.3-.18,0-.46.18-.73.46-.55.55-4.21,2.84-4.48,2.84-.18,0-.55.18-1,.45-3.39,1.83-7.59,1.01-8.51-1.65-.27-1-.27-3.84.09-4.85.55-1.37,1.83-3.84,2.38-4.76,2.38-3.48,3.48-4.85,3.48-4.94.09,0,.64-.83,1.19-1.56.82-1.37,1.28-1.74,2.38-3.02.27-.37.55-.64.55-.64l1.46-2.2c.82-1.1,1.56-2.2,1.56-2.38,0-.09.27-.55.55-.82,1.1-1.47,1.92-5.49,1.1-5.76-.55-.28-1.28-.09-2.1.45-1.19.64-1.92,1.19-2.2,1.47-.27.18-.64.82-.82.82-.09,0-1.37,1.28-2.75,2.75-1.37,1.37-1.65,2.2-2.93,3.57-.27.28-.82.55-.91-.27,1.83-2.2,2.38-3.02,3.48-4.21,2.83-3.47,5.3-4.94,6.59-5.49,2.28-1.01,4.66.09,5.03,2.56Z"/>
    <path d="M350.97,676.62l-1.1-.64c-.73-.28-2.1-1.92-2.74-2.93-.73-1.38-.55-5.21.09-7.68.73-1.47,2.74-6.4,3.2-6.68.28-.27,1.65-2.1,1.74-2.38,0-.09.28-.82.82-1.37.55-.55,1.65-1.74,2.47-2.84.73-1.1,1.37-1.83,1.37-1.83.18-.09.46-.55,1.01-.92,4.02-3.84,6.58-5.21,11.25-6.77,2.11-.37,3.75-.37,4.66.46.73.64,1.1,1.46.73,3.11-.27,1.28-1.65,3.75-3.2,5.49-1.46,1.38-2.84,2.65-4.66,3.29-1.19,1.01-2.47,1.56-3.84,2.1-1.65.83-3.39,1.74-4.94,2.29-1.37.28-2.38.19-3.2,1.65-.27.46-.55,1.1-.64,1.38-.18.27-.18.45-.27.54-1.83,2.38-4.57,8.69-3.2,10.89.73,1.37,2.1,1.92,4.57,1.74,1.19-.09,2.2-.27,3.02-.64l1.55-.73c1.1-.55,4.21-2.84,5.76-3.93,4.39-3.48,10.43-9.88,11.8-11.53.37-.45,1.46-1.92,2.2-2.74l4.66-5.67c.27-.28.64.46.27,1.01-1.92,2.47-7.96,10.15-11.98,14.27-.55.64-7.23,6.4-7.68,6.95-.64.55-2.19,1.56-3.29,2.1-.91.55-2.01,1.1-2.29,1.1-.18.1-.55.37-1.1.55-.55,0-1,.28-1.19.37-.55.46-5.49.46-5.85,0ZM362.49,655.49c1.37-.55,2.65-1.19,2.74-1.19,0-.19,1.1-.83,1.83-1.28,4.39-3.02,5.76-5.49,6.31-7.78.27-1,.09-1.1-.27-1.37-.73-.46-2.93-.18-4.12.37-1.1.73-2.93,1.83-5.49,4.12-1,.82-2.1,2.47-3.48,4.39,0,.18-.82,1.37-1.74,2.47-1.01,1.28-1.74,2.47-1.56,2.47.09.27,3.02-.55,5.76-2.2Z"/>
    <path d="M421.54,676.53c-.46-.28-1.01-.28-1.1-.19-1.28.64-7.13-.27-8.51-1.19-.27-.18-.82-.27-1-.27-.28,0-.37-.18-.37-.28,0-.18-.27-.27-.46-.27-.55,0-3.66-3.29-4.39-4.57-2.11-3.93-1.47-9.6,1.55-12.44,1.74-1.92,4.48-2.47,6.04-1.56,1.1.83,2.56,2.47,2.47,2.65-.55.55-1.1.27-1.65-.46-.82-.92-2.19-1.74-3.57-1.46-1.28.27-3.02,1.64-4.3,3.66-.92,2.1-1.37,5.39-.09,8.14,1.92,3.93,4.48,5.76,7.78,6.58,2.19.64,6.58.64,9.33,0,1.83-.55,5.49-2.11,5.94-2.47,0-.19.37-.46.82-.55.55-.28,1.1-.73,1.1-.83.28-.27,2.84-2.47,3.02-2.47.09,0,1.37-1.1,3.66-3.29.73-.83,1.28-1.28,1.55-1.28s.37-.27.37-.36c0-.19.27-.55.73-1.01.92-.64,8.23-8.6,11.34-12.44,1-1.1,2.1-2.75,2.65-3.48.64-.83,1.19-1.65,1.46-1.92.18-.1.46-.37.46-.55,0-.1,2.47-4.21,2.83-4.48l.55-1.1c.27-.46.55-.82.73-.82,0,0,.09-.55.09-.83,0-.18-.55-.55-1.74-.73-9.05-1.46-16.19.82-19.11,5.76-.82,1.01-.64,2.75-.37,2.75s.37.18.37.27c0,.18-.37.18-.64.18-.55,0-.73-.45-.73-1.83.27-2.01,3.02-5.21,6.04-6.4,4.3-2.1,8.23-2.47,14.81-1.37,2.2.37,2.38.37,2.65,0,.09-.28.27-.55.27-.73,0-.09.09-.55.28-.55,0,0,.36-.55.64-1.19l1.92-3.29c.27-.27.82-1.1,1.28-1.65.28-.82.82-1.65,1.47-2.19.46-.74.73-1.28.73-1.38,0-.18.09-.18.27-.18.09,0,.27-.09.27-.28,0-.27,2.2-3.38,2.47-3.57.09,0,.27-.09.27-.27,0-.09,1.92-2.29,3.93-4.48,2.65-2.47,5.49-4.66,7.41-5.67.46-.27,1.37-.64,2.2-.91.55-.28,1.55-.55,1.83-.82,1.46-.28,4.12,0,5.3.64,1.1.55,1.92,1.83,1.65,2.47-.28,1.1-1.37,1.1-1.1.18.18-.46,0-.73-.55-1.37-.37-.28-.82-.55-1.1-.46-.09,0-.82.18-1.37.18-1.37.09-3.57,1.19-5.49,2.29-1.92,1.38-5.21,5.21-6.86,7.59-.37.83-.64,1.1-1.37,1.74-.09.28-.27.46-.27.55,0,.18-.37.73-.92,1.65l-2.19,3.29-1.64,2.47-.55,1c0,.1-.46.92-1.1,1.47-1.65,2.93-3.02,5.12-3.02,5.21,0,.18,2.01.73,4.94,1.37,3.29,1.01,6.13,1.01,7.96,0,1.46-.64,3.11-2.29,3.11-2.84,0-.45.82-.73,1.1-.45.27.27-.64,1.37-1.65,2.38-.37.55-1.65,1.37-2.47,1.74-2.84,1-5.85.82-12.17-.92-1.92-.55-1.65-.18-2.93,1.65-.27.55-.64,1.1-.64,1.1-.18,0-.27.09-.27.27,0,.37-3.57,5.49-4.85,6.86-.09.09-.27.37-.27.55,0,.09-.09.27-.27.27-.09,0-.55.83-1.1,1.47-.55.82-1.19,1.83-1.46,2.1-.46.55-1.83,2.2-2.47,3.11-.18.18-.73.82-1.1,1.1-.27.45-.73.82-.73.82,0,1.01-9.33,10.06-10.15,10.06-.09,0-.37.28-.82.55-.27.37-.64.64-.92.64-.18,0-.55.46-1.1.83-1.55,1-4.66,3.02-5.12,3.02-.37,0-.55,0-.55.18,0,.09-.55.55-1.19.83l-2.65,1.09c-1.19.55-3.84,1.19-6.03,1.47-.27.18-.92,0-1.19-.09ZM435.63,629.97c-.09-.09-.37-.27-.64-.27-1.92-.28-5.21-3.29-6.22-6.13-.64-1.55-.82-2.19-.82-4.57,0-1.37,0-3.02.18-3.29,1.46-5.03,3.29-7.96,6.59-11.07,1.64-1.65,2.01-2.11,4.21-3.75,2.38-1.74,7.59-4.21,10.61-5.03,3.57-1.01,4.21-1.28,4.76-1.28.27-.09,1.64-.28,2.74-.37,1.1-.18,2.38-.27,2.74-.27,1.65-.19,8.23,0,9.51.27l4.12.64c1.37.28,3.11.46,3.84.83.64.18,1.46.45,1.74.45.82.1,4.94,1.19,5.49,1.47l2.1.82c.91.28,2.2.74,2.56,1.01.73.28,1.56.64,1.92.82,1.28.37,3.57,1.38,4.39,1.92.55.27,1.01.36,1.1.36,0,0,.82.28,1.83.74,1.65.64,2.29,1.09,5.58,2.19,5.39,1.92,7.31,2.29,11.98,2.56,1.37.18,5.76-.37,7.68-.92,1.65-.55,5.03-2.2,5.58-2.75.27-.45.73-.73,1.1-1,.73-.37,1.92-2.01,2.74-3.29.46-.91,1.1-4.21,1.1-5.3,0-.82,0-1.1.46-.27.64.91-.27,5.76-1.28,6.67-.09.27-.28.55-.28.73,0,.37-2.29,2.75-3.57,3.57-1.46,1.1-4.12,2.2-6.67,2.84-2.11.73-3.2.83-6.03.83-1.92,0-4.02-.1-4.57-.28-4.94-1.1-6.86-1.74-8.6-2.75-.55-.09-1.1-.27-1.55-.36-1.37-.46-2.2-.46-3.84-1.38-.28-.27-.82-.27-1.1-.54-.37-.28-1.37-.28-1.74-.55-1.01-.28-2.75-1.1-5.39-2.38-.64-.28-1.19-.37-1.37-.37-.09,0-.64-.28-1.19-.73-.73-.09-1.92-.64-2.93-.92-.91-.27-2.29-.73-3.02-1.01-1.1-.55-3.66-1.09-7.41-1.92-2.83-.64-8.78-1.19-12.44-1.19-4.39.28-5.67.55-8.23,1.19-2.1.46-6.86,1.65-7.13,2.11-.18.09-.82.27-1.28.36l-.64.28c0,.18-1.01.46-1.92,1.01l-1.92,1.09c-.18.1-.82.64-1.83,1.38-2.56,1.74-6.31,5.76-6.68,7.13-.18.27-.27.55-.55.64-.28.27-.46.46-.46.73s-.27.55-.55.92c-.27.27-.55.73-.55,1.01l-.27,1.09c-1.37,2.56-1.19,7.78.27,9.97.27.46.46.83.46,1.01,0,.55,2.01,2.75,3.66,3.66,1.83,1.01,2.75,1.1,4.57,1.1,2.56-.09,4.12-.36,6.58-1.65,5.3-2.74,9.05-6.03,12.71-13.17.73-1.47.82-3.93.82-5.58.18-1.09.18-2.1.46-2.1.27-.37,1.1.27,1.37,1.01.82,1.74.09,5.3-1,7.22-.37.55-.37.73-1.65,2.65-.37.55-.82,1.1-.92,1.1-.27,0-.27.09-.27.37,0,1.1-7.14,7.96-8.41,7.96l-.55.27c-1.1.82-5.03,2.2-6.95,2.47-1.83.46-4.57.46-5.12,0Z"/>
    <path d="M481.13,675.43c-.64-.73-1.37-2.11-1.37-3.48,0-.92.73-3.39,1.1-4.39.27-.27.82-1.46,1.37-2.56.55-1.1,1.28-2.65,1.83-3.2l.91-1.74,2.65-3.75c1.19-1.65,2.47-3.02,2.56-3.39,1.01-1.37,3.48-4.85,4.3-5.76,3.02-3.2,3.93-6.77,2.01-6.77-.27,0-1.65-.27-2.84-.64-1.37-.55-2.65-1.01-2.74-1.01-.18,0-.73,1.01-1.65,1.92-.73,1.09-1.37,1.92-1.64,2.1l-.73,1.1c-6.31,10.15-6.86,11.34-12.62,19.57-4.94,7.04-13.35,14.63-16.37,16.01-2.2.91-1.37-.55-.64-.83,3.66-1.28,10.52-8.32,15.91-15.27,5.76-7.68,11.53-18.29,12.35-19.48,1.1-1.28,1.83-2.47,1.92-2.65l1.28-1.46c.37-.82,1.1-1.37,1.19-1.37.18-.19.18-1.01-.09-1.28-.27-.09,0-.82.64-2.19.82-1.74,1.92-2.84,4.02-4.66.82-.83,1.74-.92,1.92-.09.27.64-.82,2.83-2.47,4.76-.18.18-.82,1-1.28,1.64l-.91,1.38,2.01.73,2.38.55c.92,0,2.56,1.1,3.11,1.74.46,1.01.27,3.57-.37,5.21-.18.55-1.28,2.65-1.56,3.48-.55.55-2.47,3.11-2.74,3.57-.55.55-4.39,5.85-5.03,6.86,0,.27-.27.64-.27.64-.18,0-.27.18-.27.27,0,.19-.46,1.01-1,1.92-2.56,3.75-4.66,7.96-4.94,9.79-.09.92-.09,1.1.73,1.92.82.83.92.83,1.92.64,2.74-.28,3.66-.92,7.68-4.66.91-.92,1.65-1.47,1.74-1.47l.18-.18c0-.09.64-.92,1.37-1.65l2.56-2.75c.73-.91,1.65-1.92,2.1-2.47.37-.27,1.37-1.37,2.29-2.47l1.65-1.92c.18-.1.82-.92,1.83-1.92.83-1.1,1.74-2.19,2.2-2.47.27-.55.82-1.19,1.19-1.65.82-.91,1.37-.91,1.1,0,0,.28-1.19,1.83-2.47,3.2-1.38,1.46-2.84,3.29-3.29,3.84l-1.47,1.65-5.39,5.76c-1.46,2.01-6.31,6.86-7.96,8.05-2.01,1.37-1.92,1.37-3.84,2.19q-1.65.64-3.39.19c-1.1-.28-2.1-.83-2.65-1.1Z"/>
    <path d="M502.97,677.08c-1.64-.74-2.74-2.11-3.02-4.39-.27-1.28-.27-3.48,0-4.02.09-.09.27-.55.27-.82.09-.28.27-1.1.64-1.74.27-.73.55-1.65.82-2.47.73-1.56,1.83-3.75,2.2-4.3.27-.09.46-.36.46-.64v-.18c.09,0,.55-.82.82-1.47.92-1.37,1.19-1.83,2.56-3.47l1.55-1.74c1.1-1.38,3.02-3.2,4.94-4.85,2.2-1.74,5.22-3.38,7.6-3.93.54-.19,1.19-.28,1.64-.28,1.74-.18,5.03.83,5.85,2.47.55.83.83,2.01.83,3.11,0,2.47-.28,2.1-.83,4.12-.36,1.64-3.66,7.68-4.76,9.33l-1.01,1.37c-.91,1.37-1.19,1.65-1.73,2.2-.46.55-.28,1.55.36,2.38,1.65,1.92,2.65,1.19,7.13-2.65,4.66-3.93,10.98-12.07,12.62-14.08,1.37-1.65,1.28-.82,1.1.09-.28.83-7.96,10.16-10.52,12.8-3.57,3.29-5.49,5.21-7.41,5.76-1.83.55-2.65.28-3.48-.73-.27-.09-.55-.64-.55-.64,0-.19-.09-.46-.36-.74-.19-.36-.19-.27-1.56,1.1-2.2,2.75-5.21,5.4-5.76,5.49-.27,0-.55.18-.64.45-.55.55-3.39,1.92-5.12,2.47-1.83.55-3.48.82-4.66,0ZM511.93,673.78c0-.18.27-.27.55-.27.64,0,3.29-2.65,5.21-4.66l2.29-2.47c.28-.27.46-.73.46-1s0-.64.09-.92c.28-1.37.46-2.47,1.01-3.2.09-.37.37-.83.37-.83,0-.36,3.2-5.49,4.02-6.4.28-.18.37-.45.37-.55,0-.18.46-.82.73-1.37.55-1.01,1.1-1.1,1.65-1.1.09-.18.28-1.1.28-2.38.27-2.01-.19-2.75-1.56-3.39-.55-.27-1.1-.45-1.92-.45-1.65.18-2.01.27-4.12,1.37-2.2,1.1-3.02,1.83-4.76,3.29-2.38,2.1-6.4,7.13-6.4,7.86,0,.09-.09.27-.28.27-.27,0-4.94,7.96-5.49,9.88,0,.37-.28.83-.37,1.19-.27.28-.46.55-.46.83,0,0-.09.73-.36,1.1-1.56,5.12.55,6.95,4.94,5.21,1.74-.55,3.57-1.65,3.75-2.01Z"/>
    <path d="M573.56,640.13c2.01.55,3.93,3.57,3.93,6.03,0,.73-.1,1.56-.28,1.83-.09.27-.36,1.19-.27,1.1.82-.83,1.37-1.1,3.02-2.93,2.38-2.29,4.85-4.48,6.22-5.21.09-.09,1.19-.37,2.19-.55,1.38-.27,1.74-.27,3.29.18q2.01.64,2.56,1.74c.55,1.28,1.01,3.57.55,5.12-.55,2.47-2.84,6.67-6.4,11.53-.82,1.19-2.1,2.74-2.38,3.29-.37.64-1.19,1.47-1.74,2.2-2.2,2.75-4.39,6.95-4.66,9.06-.27,1.92,0,2.19,1.47,2.19.82,0,1.65-.18,2.1-.27.64-.46,3.02-1.92,3.84-2.75,1.65-1.28,5.3-4.94,6.03-5.94.55-.64,1.1-1.37,1.1-1.37,0-.09.28-.28.37-.55,0-.09,6.77-9.15,7.59-10.25.64-1.1,1.65-2.19,1.74-2.38.73-.91,1.1-.82.82,0,0,.73-7.96,11.25-9.15,12.8-.45.28-1,.92-1.09,1.37-2.65,3.39-6.59,7.23-8.79,8.51-.73.37-1.37.82-1.37.82-.18,0-.46.28-.82.55-.73.37-1.38.55-2.75.55-1.65,0-2.11-.18-2.93-.73-1.1-.64-1.47-1.74-1.47-4.12.1-1.37.28-2.01,1.19-3.57.18-.28.27-.64.45-1.1.37-.55,3.02-4.21,3.29-4.39.09,0,.28-.27.37-.36.27-.83.73-1.37,2.38-3.75.91-1.37,1.74-2.47,1.74-2.56,0,0,.46-.73,1.09-1.56,1.01-.91,3.02-4.39,3.57-6.03.27-1.1.73-3.02.82-3.93,0-.82.27-2.47-.82-2.93-.55-.27-1.47-.36-2.01-.27-.73,0-1.37.18-1.37.27,0,.19-.19.19-.28.19-.45,0-3.57,2.47-4.66,3.66-1.64,1.65-3.2,3.29-4.12,4.39-.45.55-1,1.1-1.28,1.38-.27.18-.82,1.1-1.19,1.83-.55.91-1.1,1.46-1.28,1.65,0,0-.55.82-.92,1.65l-1.28,1.92c-1.19,1.37-2.19,2.84-3.38,4.48-1.56,2.11-3.29,4.02-4.57,6.22-.37.55-.83,1.19-1.1,1.47,0,.18-.09.45-.09.55,0,.18-.46.73-1.01,1.37-.55.82-.92,1.37-.92,1.56,0,.09-.18.54-.45.82l-.55.82c0,.64-.83.83-3.02.92-1.92.18-2.2,0-2.2-.37,0-.18.45-.82,1-1.55.55-.64,1.19-1.74,1.74-2.75.46-.55,1.92-2.84,3.48-4.94,1.47-2.2,2.56-3.93,2.56-3.93,0-.19,1.83-2.93,2.65-3.84,1.1-1.28,5.03-7.31,6.04-8.96,1.46-3.02,2.56-5.58,2.74-6.67,0-1.1-.18-1.38-.82-1.92-.73-.82-.83-.82-2.2-.82s-1.83.09-3.02.91c-1.65.83-5.94,4.94-7.04,6.59-.28.27-.92,1.28-1.37,1.83-1.1.91-3.93,4.76-5.58,6.86-.46.64-.82,1.19-.82,1.38-.19,0-.55.55-1.01.91-.37.74-.64,1.28-.82,1.28-.1.09-3.02,4.39-3.84,5.76-.82,1.38-1.74,3.02-2.56,3.93-.45.55-1.37,1.65-2.1,2.93-.64.92-1.47,1.92-1.65,1.92s-.18.28-.18.37c0,.46-.64,1.01-1.65,1.01-.28,0-.91.09-1.65.27-.64,0-1.19,0-1.37-.18-.64-.28-.37-1.37.82-3.02.73-.92,1.38-1.74,1.38-1.92l.82-1.09c.55-.64,1.37-1.65,1.83-2.47.55-.82,1.83-2.47,2.47-3.38q2.11-2.75,3.84-5.4c1.01-1.09,1.83-2.19,1.83-2.19.09-.1.09-.28.09-.37,0,0,.55-1.01,1.37-2.11,1.28-2.01,1.92-2.83,2.38-3.66.09-.27.36-.82.82-1.55,2.47-4.12,3.11-6.4,2.29-7.5-.55-.55-2.01-.19-2.75,0-1.1.09-2.01.36-2.84,1.1-1.37.82-2.65,2.19-3.57,3.29-1.64,1.65-3.02,2.84-4.39,4.48-.73.82-2.56,2.93-3.39,3.75-1.37,1.19-1.47.37-.82-.46.54-.64,1-1.37,1.37-1.73.73-1.01,3.75-4.39,7.04-7.41,1.56-1.65,2.47-2.65,3.75-3.02.37-.19.83-.46,1.1-.55,1.38-.83,3.29-1.28,4.76-.73,2.93,1.09,3.2,2.47,1.38,7.95-.1,1.01-.55,1.83-.64,1.92-.19.28-.55,1.1-.46,1.1.18,0,.73-.64,1.28-1.37.64-.92,1.47-1.74,1.65-1.92.09,0,.36-.55.64-1.1,1.01-1.19,5.76-5.85,6.03-5.85.19,0,.28,0,.46-.19,0-.09.64-.54,1.46-.91,1.83-.55,2.93-.55,4.3-.18Z"/>
    <path d="M638.71,675.98c-.18-.18-.73-.46-1.37-.55-.46-.28-.83-.46-.83-.55,0,0-.46-.18-.82-.28-1.1-.45-3.02-2.74-3.2-3.84,0-.18-.09-.18-.09-.18-.27-.28-.27-3.29,0-3.93.37-.83,1.65-2.65,1.92-2.65.09,0,.27-.09.27-.27,0-.09.09-.28.27-.37l.92-.73c.46-.27,1.01-.37,1.28-.37,0-.18.28-.27.28-.45,0-.1.09-.28.36-.28s.55-.09.73-.27c0-.09.28-.09.37-.09.28,0,.82-.28,1.1-.28,1.92-1.1,9.6-1.83,12.9-1.37l2.2.27c.27,0,1.55.09,2.38.55.91.28,2.29.55,3.02.64,1.46.46,5.58,1.92,5.58,2.2.18.18.27.27.45.27.09,0,.92.19,1.47.46q1.56.83,1.92.28c1.1-1.01,3.75-3.75,3.84-4.02,0-.09.27-.09.45-.09.1,0,.37-.19.37-.28,0-.18.55-.82,1.37-1.65,3.02-3.02,6.04-6.77,6.22-7.04,0-.09.28-.36.37-.55,1-1.37,4.39-5.49,4.66-6.13,0-.28.45-.73.73-.82.27-.19.55-.55.55-.74,0-.09,0-.36.27-.82,1.1-1.37,1.19-1.47,1.19-1.65,0-.09.28-.27.46-.55.82-.64,1.19-1.46,1.65-2.29.27-.46.55-.82.92-1.28l.73-.64-1.01-.18c-1.92-.1-4.76-1.19-6.31-1.74-2.29-1.1-3.02-1.38-3.11-1.65,0-.18-.28-.18-.46-.18-.09,0-.27,0-.27-.1,0-.18-.28-.27-.55-.45-.83-.37-3.66-3.02-4.94-4.39-1.19-1.46-2.2-3.11-2.2-3.39,0-.18-.27-.55-.54-1-.28-.55-.55-.92-.55-1.19l-.28-1.01c-.82-1.38-.82-7.13-.09-9.06,0-.27.09-.91.37-1.74.27-.55.45-1.55.55-1.64.27-.19.54-1.1,1.1-1.83.45-.91.82-1.46.82-1.46.18,0,.27-.46.46-.82.82-1.28,5.21-5.76,6.31-6.31.37-.19.64-.28.64-.46,0-.27,3.75-2.2,4.3-2.2.27,0,.37,0,.37-.27.18-.09.45-.09.54-.09.19.09.46,0,.55-.19.19,0,.83-.27,1.83-.55,1.65-.09,2.2-.09,4.12.19,1.46.27,3.29,1.1,4.39,1.92.91.82,1.92,2.2,1.74,2.47-.09.09,0,.28.18.37.83.27,1.1,4.57.64,5.67-.09.28-.09.55-.09.55.09.1,0,.37-.27.64l-.28.82c0,.27-.45,1.1-.82,2.11-1.38,2.19-6.58,7.68-7.59,7.68,0,0-.27.09-.37.36-.27.46-2.38,1.65-2.65,1.65-.92,0-.28-.64,1.55-2.01,1.47-.83,3.39-1.83,4.76-3.57,2.1-2.11,3.57-4.3,3.48-4.85,0-.09.27-.55.36-.64.18-.46.55-1.28.73-2.1l.28-1.92c.09-.55.09-3.11-1.28-5.21-.28-.36-.64-.82-1.19-1.09-.28-.37-1.01-.92-1.28-1.1-1.37-1.1-6.58-1.47-8.59-.28-.46.28-.73.28-.83.28,0,0-.27.18-.55.27l-1.83,1.37c-2.75,1.92-5.3,4.57-6.86,7.04-.64,1.38-1.92,4.48-1.92,4.76,0,.18-.09.55-.27.82-.28.46-.37.82-.37,1.1v2.47c-.18,2.65.09,5.67,1.19,8.14.46.92.73,1.92.83,2.01.18.28.27.55.55.83.73,1.56,3.84,4.66,6.31,6.31,1.38,1.1,5.4,3.02,6.86,3.2,1.65.37,2.75.37,2.93,0,.28-1.01,3.02-4.66,3.66-5.39.55-.37,1.01-1.1,1.28-1.47.27-.55.63-1.28,1.09-1.55.83-.83,1.47-1.74,1.47-1.74,0-.19.55-.73,1.01-1.28.54-.37,1.19-1.65,1.92-2.29.55-.74,1.46-1.83,1.92-2.2.92-1.28,2.2-2.75,5.3-6.22,1.92-2.01,4.85-4.94,5.21-4.94.18,0,.18-.09.18-.28,0-.09,0-.27.09-.27.19,0,.55-.28,1.01-.64.28-.46,1.1-1.01,1.65-1.38,2.29-1.83,4.12-3.02,4.12-3.02.28,0,.64-.45,1.1-.55.64-.55,1.74-.82,3.11-1.55l1.56-.83c.27-.09.92-.27,1.65-.36.64,0,1.19-.19,1.37-.28.28-.18,3.39-.18,4.21,0,1.28.09,2.47.83,3.57,1.47.83,1,1.56,2.19,1.56,2.38-.18.09-.18.27,0,.36.28.19.28,2.47,0,3.75-.55,1.46-1.1,3.02-1.37,3.29-.28.1-.46.37-.46.64,0,.18-.09.27-.27.27-.1,0-.1.18-.1.27-.18,1.1-6.49,8.14-10.61,11.25-.55.55-1.46,1.28-1.92,1.65-1.74,1.37-3.93,3.02-4.94,3.57-.37.27-.92.73-1.19.73-.28.27-.74.55-.83.64l-.82.55c-.46.27-4.85,2.75-5.12,2.75-.09,0-.83.27-1.65.55-.82.45-1.65,1-1.92,1-.09,0-.83.09-1.19.37-.46.18-1.1.46-1.38.46-.18,0-.45.09-.55.36-.73.55-5.67,1.56-8.5,1.83-.55,0-1.1.37-1.92,1.47-.55.73-1.01,1.83-1.38,1.92-.27.46-.55,1.01-.55,1.28-.27.37-2.38,3.84-3.2,4.94l-2.01,2.84c-.82,1-1.83,2.38-1.83,2.38,0,.09-.36.55-.82,1.1-.92,1.19-3.57,4.66-3.84,4.66-.09,0-.55.27-.91,1.09-.55.55-1.1,1.19-1.37,1.38-.28,0-.46.27-.46.36,0,0-.55.74-1.19,1.38-.74.46-1.56,1.1-1.83,1.37l-2.01,2.38c-1.01,1.1-2.11,1.65-1.92,1.92,0,.1-.19.37-.28.55-.18.1,0,.37.55.64.55.28.92.46.92.55.18.19,3.57,2.11,4.94,2.65.55.09,1.92.82,2.11.91.37.19.64.28.82.28,0,0,.28.18.37.18.46.09,2.38.83,2.75.83.18,0,.54.09.82.27.46.09.73.09.73.28.09,0,.92,0,1.47.09,3.48.46,8.14.27,9.23-.28.1-.09.64-.36,1.38-.55.55-.09,1.37-.36,1.92-.64,2.29-1.1,4.12-2.1,4.39-2.38.09-.09.36-.55.82-.55,5.03-3.57,9.7-8.59,14.36-14.63,1.83-1.92,2.74-3.2,3.02-3.57.73-.82,1.1-.82,1.1-.18,0,.18-.83,1.37-.92,1.65-1.37,2.1-2.75,3.57-2.93,3.75-3.57,4.39-7.13,9.06-13.99,13.99-2.84,1.92-6.86,3.84-9.33,4.39-1.46.28-2.2.28-4.94.37-2.75,0-4.21-.09-6.68-.64-.73-.18-1.64-.46-1.92-.46-.46-.09-.82-.27-1.01-.36-.09,0-.36-.19-.64-.19s-.55,0-.73-.09c0-.18-.37-.46-.82-.46-.37-.09-2.2-.82-3.84-1.74-1.92-.82-3.39-1.55-3.39-1.55l-1.28-.64-1.1-.74-.91.46c-.46.09-1.38.92-2.38,1.47-.83.55-2.29,1.37-3.29,1.92-.83.27-1.74.82-2.01,1.1-2.38,1.28-8.78,2.93-10.97,2.93-.55,0-1.56.09-2.11.27-2.29.74-10.79.37-12.44-.27ZM650.88,674.42c1.01-.09,3.75-.82,4.94-1.37l1.01-.37c1.37-.55,4.66-2.1,5.3-2.65.46-.37.82-.55,1.01-.55,0,0,.64-.37,1.37-1.1.64-.55,1.47-.92,1.65-.92q.09,0,.09-.18c0-.09.27-.55.82-.82.46-.28.74-.55.74-.55,0-.28-2.38-1.38-2.75-1.38-.18,0-.27-.09-.46-.27-.09-.09-.91-.37-1.74-.64-.73-.28-1.65-.55-1.92-.74-.28-.09-1.1-.36-3.2-.82-1.47-.37-3.29-.64-4.76-.82-5.39-.37-11.16.18-13.99,1.64-.55.28-1.09.55-1.28.55-.09,0-.55.46-1.37,1.01l-1.19.92c-.46,0-1.38,2.65-1.38,3.48.28,2.74,3.11,4.94,7.41,5.76,2.01.28,7.5.28,8.23.1.09-.1.83-.28,1.47-.28ZM702.92,634.09c1.65-.27,5.03-.91,6.13-1.65l1.56-.54c.55,0,1.1-.1,1.19-.28l1.28-.82c.92-.28,5.49-2.56,6.86-3.39.27-.28,1.1-.73,1.46-1.01.55-.36,1.37-.82,1.65-1.1.28-.36.73-.64.82-.64.19,0,1.38-.73,1.83-1.37.09-.18.36-.28.54-.28.28,0,3.11-2.19,4.39-3.57.37-.46.64-.73.82-.73.28,0,6.86-6.86,6.86-7.13,0-.09.09-.09.28-.37.82-1.1,1.92-2.65,1.92-2.74,0-.19.09-.55.27-.83.55-.55,1.1-3.2,1.1-4.12-.18-1.83-1.65-3.57-3.48-4.12-1.19-.27-3.38-.46-4.66-.27-2.84.55-6.86,2.74-10.24,5.49-2.93,2.2-9.61,9.15-9.79,9.97l-.82,1.01-2.2,3.11c-.64,1.28-1.74,2.75-2.2,3.48-.55.82-1.1,1.46-1.1,1.46,0,.19-2.01,3.29-2.74,4.3l-.09.36c0,.19-.46.83-.83,1.28-.46.82-1.65,2.56-2.93,4.66-.09.09,0,.27.18.09.28-.09,1.19-.28,1.92-.28Z"/>
    <path d="M730.84,674.88c-.54-1.1-.09-2.65.19-3.84.09-.18.36-1.28-.19-.82-.82.55-1.46,1.46-2.29,2.29-1.92,1.83-3.48,3.2-5.94,3.84-2.93.92-6.77.92-7.68-2.19-.55-1.92-1.1-4.76-.27-6.59l1.37-3.29,1.74-3.57c1.01-1.65,2.11-3.29,3.29-4.76l1.64-2.2c1.01-1.28,2.11-2.2,3.11-3.48,2.2-2.29,4.66-4.94,7.4-6.58,1.74-.83,4.21-1.47,6.13-1.74,2.47-.28,4.66.91,4.85,3.57l.09,2.29c0,.45.19.73.19.73.82.09,2.47-3.84,3.57-4.57.82-.64,2.2-.55,3.11-.09.82.37,1.01.92.55,1.74-.92,1.65-2.47,2.93-3.57,4.39-1.1,1.56-2.01,3.2-3.11,4.57-1.28,1.74-2.2,3.66-3.57,5.3-1.37,2.38-3.02,4.3-4.39,6.59-1.28,1.83-2.38,3.75-3.02,6.03-1.1,4.85,3.11,2.47,5.03.73,2.2-1.65,4.3-3.48,5.95-5.67.64-.82,1.37-1.64,2.19-2.47,2.2-2.74,4.48-5.58,6.68-8.5,1.37-1.65,1.92-2.2,3.2-3.84.37-.55.64-1.1,1.19-1.46.28-.19.55-.28.55,0,0,.55-.27,1.37-.64,1.74l-5.67,7.13c-2.28,3.02-5.03,6.49-7.77,9.51-1.65,1.74-3.48,3.93-5.49,5.3-1.56,1.01-3.29,2.29-5.21,2.11-1.28-.09-2.65-1.01-3.2-2.2ZM725.63,673.6c2.1-1.74,3.47-3.02,4.94-4.76,2.2-2.75,2.11-2.47,3.29-4.39l4.11-6.49c1.1-1.46,2.2-3.29,2.38-3.29l.09-.27.82-1.37,1.1-1.74c.55-1.01.46-2.38.27-3.48,0-1.1-.27-2.29-1.19-3.02-.54-.55-1-.55-1.64-.28-.83.18-2.11,1.1-2.47,1.37l-.55.46c-.27,0-9.32,8.78-10.06,9.7l-.91,1.28c-2.38,2.84-3.75,4.76-5.3,7.22l-.92,1.56-.46,1.1-.91,2.47c-.28.64-.46,1.19-.46,2.01-.09.83-.09,2.65.55,3.2.82.92,1.65.64,2.93.55,1.46-.18,3.29-.83,4.39-1.83Z"/>
    <path d="M779.11,651.65c0,.28-1.19,1.83-2.47,3.2-1.37,1.46-2.83,3.29-3.29,3.84l-1.47,1.65-5.39,5.76c-1.46,2.01-6.31,6.58-7.95,7.77-2.11,1.38-2.65,1.65-4.66,2.47-1.47.64-5.85,1.1-7.87.46-2.47-.18-4.94-2.2-5.03-4.12,0-1.1.09-2.93.54-3.29.1,0,.28-1.1.55-1.56.54-1.19,2.19-2.2,3.11-2.2,1.28,0,2.19,1.56,1.37,2.75-.55,1.01-1.92,1.83-2.84,1.83-.82.09-1.28.27-1.28.37-.64,1.09-.92,3.57.55,4.39,2.38,1.28,3.84,1.1,4.85.73,1.92-1,4.48-4.02,5.85-5.76,2.38-3.02,3.2-4.39,4.12-6.59.28-.46.55-1,.55-1.1l.19-.55c.54-2.38,1.28-5.21,1.28-9.32,0-1.38,0-1.28-.18-1.28-.1,0,0-.09-.37.55-.28.46-1.19,1.38-2.11,2.47-2.1,2.47-2.1,1.01-.73-.54.73-1.1,1.37-1.92,1.65-2.2.64-.92,1.28-1.65,1.56-1.74,0-.18.18-.73.45-1.1.09-.46.55-1.56,1.19-2.93,1.56-3.57,2.47-5.3,4.12-6.13,2.11-1.37,3.02.28,1.83,3.11-.82,1.83-4.11,4.3-4.39,4.57,0,0-.82.55-1.01.91l-.27,1.01v4.94c0,1.92.27,3.11.27,5.03-.55,6.86-1.92,9.79-4.85,12.9-1.37,1.56-2.56,2.56-3.66,3.2,1.46-.36,3.75-1,7.59-4.57l3.29-3.29,2.56-2.75c.73-.91,1.64-1.92,2.1-2.47.37-.27,1.38-1.37,2.29-2.47l1.65-1.92c.18-.1.82-.92,1.83-1.92.82-1.1,1.74-2.19,2.2-2.47.27-.55.82-1.19,1.19-1.65.82-.91,1.37-.91,1.1,0Z"/>
    <path d="M919.57,609.12c0,.82-.92,3.2-1.65,3.57-.64.73-.92.18-.37-.83.28-.55.55-1.46.64-2.19.19-.92.19-1.19-.36-1.47-1.1-.73-3.02-.73-5.76,0-.28,0-.82.09-1.28.28-1.19.27-4.48,1.73-5.3,2.28-.46.28-.83.55-1.01.55l-1.19.74c-.55.27-1.28.82-1.28.82-.09,0-.37.09-.64.37l-1.28.82c-1.46,1.1-6.58,4.94-7.22,5.67-.27.27-.73.64-.82.64,0,0-.74.55-1.38,1.28l-3.29,2.84c-5.12,4.39-11.43,11.25-16.47,17.28-1.09,1.28-1.92,2.38-2.19,2.47l-1.56,1.92c-.82,1.01-1.46,1.65-1.65,1.65-.09,0-.09.18-.09.27,0,.28-1.28,1.83-2.47,3.02-.18.28-.46.55-.46.55,0,.28-2.47,3.57-2.74,3.75-.1,0-.28.09-.28.36,0,.19-.82,1.38-2.01,2.75-1.1,1.56-2.93,3.84-4.02,5.21-4.48,5.67-9.15,10.7-11.8,12.8-.82.55-1.46,1.1-1.64,1.28-.09.27-.28.37-.55.37-.09,0-.55.27-.92.55-.82.73-3.57,1.55-4.39,1.37-1.28-.28-2.75-1.47-3.2-2.47-.09-.37-.27-2.2-.27-3.84,0-2.65.18-3.48.73-5.21.64-2.2,2.75-6.58,3.39-7.31.27-.37,1.56-2.01,1.56-2.2,0,0,.27-.37.54-.64s.64-.83.92-1.28c.27-.28.55-.64.55-.83l.27-.36c.28-.28.83-.83,1.28-1.56.54-.55,1.19-1.47,1.64-1.92.28-.37.83-.92.92-1.38.27-.36,3.75-4.21,3.75-4.48,0-.19.09-.28.37-.46.18-.09.28-.28.28-.55,0-.09.27-.37.45-.37.28-.18.37-.45.37-.55,0-.18.18-.45.27-.45.19,0,.55-.37.83-.83.46-.55,1-1.37,1.28-1.65.37-.36.64-.82.64-.82,0-.27,2.11-2.75,2.38-2.84.09-.18.09-.27.09-.27,0-.46,2.11-3.29,2.38-3.29.09,0,.28-.27.28-.55l.55-.82c.09-.28.64-1.1,1.1-1.83.36-.64.82-1.19.91-1.19,0,0,.19-.19.19-.46s.09-.64.36-1.1c1.56-2.01,4.3-7.96,4.85-10.43,1.19-4.76,1.38-7.96.55-11.25-.27-1.37-.82-2.75-1.28-3.29-.64-1.19-2.56-3.02-3.29-3.29-.37-.1-.64-.37-.64-.37-.18-.18-1.1-.55-2.19-1.01-3.29-.91-8.42-.91-13.35.19-1.92.36-4.21,1.09-4.66,1.37-.28,0-1.19.37-2.2.82-2.84,1.1-3.11,1.19-4.48,1.92-.45.27-1.28.64-1.92.91-2.47,1.38-7.68,4.66-9.33,6.22-.46.36-.82.64-1,.64-.28,0-6.31,6.22-7.14,7.41-.91,1.37-1.09,1.83-1.74,2.47-.27.27-.45.55-.45.55,0,.18-.64,1.28-1.19,2.47l-1.28,2.93c0,.27-.09.64-.09.82-.18.09-1,1.38-1.28,3.02,0,.83-.09,1.74-.09,2.2v1.1c0,.83,0,1.74.09,2.29l.55,1.83c.18.37.27.83.46,1.19l.36.46c1.28,1.19,2.11,2.2,3.48,2.56,2.56,1.01,7.23,1.01,10.16-.55,1.19-.36,2.56-1.19,3.84-2.19,1.65-.83,3.29-2.01,4.39-2.84,3.29-2.93,4.76-4.3,8.04-8.78,2.47-3.29,4.3-6.22,5.76-10.06.46-.64,1.38-5.49,1.92-4.21.45,1.19-.37,2.56-.92,4.39-.73,1.46-1.28,2.84-2.11,4.39-.27.37-.82.92-.91,1.47-1.38,2.47-4.39,6.58-6.04,8.5-2.74,3.2-7.13,6.77-10.7,8.69-.73.55-2.1,1.1-2.74,1.47-1.65.82-6.5,1.65-8.97,1.37-.82-.09-1.37-.27-2.2-.91l-1.92-.74c-.09-.09-.36-.36-.64-.82-.27.55-1.01-.37-1.01-1.1-.09-.09-.27-.27-.27-.37-.09,0-.09-.18-.27-.27,0-.18-.1-.28-.28-.46-.64-1.74-1.1-4.12-1.1-5.49,0-.83.19-1.65.28-2.47.18-.64.18-1.19.27-1.65.46-2.47.83-3.57,1.83-5.3l.28-1.01c0-.09.55-1.1,1.1-2.01.64-.83,1.37-1.92,1.46-2.47.27-.45.55-.82.73-.82l1.65-1.92c.83-1.01,2.29-2.65,3.39-3.57,1.1-1.1,2.2-2.11,2.38-2.2.09-.19.82-.73,1.46-1.1.55-.55,1.1-1.01,1.1-1.1.19-.18.28-.18.46-.18.09,0,.64-.37,2.2-1.47.09-.18.37-.27.55-.27.09,0,.27-.19.27-.28,0-.18,0-.27.09-.27.19,0,1.01-.46,1.65-.83,1.38-.82,7.87-4.02,9.61-4.85,1.1-.36,4.12-1.37,4.94-1.46.18-.19.83-.28,1.37-.46.55-.09,1.28-.28,1.56-.37.28,0,.82-.18,1.19-.27.46,0,1.65-.28,2.65-.28,2.29-.27,5.85-.18,7.22.09,2.75.46,7.13,2.47,8.69,3.84,1.19,1.1,3.29,4.3,3.57,5.49.27.74.37,1.38.55,1.56.09.09.27,1.65.36,3.39.19,4.12-.64,10.15-1.64,12.62-.92,2.2-1.92,4.39-2.2,4.66-.09.28-.64,1.01-.92,1.65-.45.73-1,1.56-1.28,1.83l-1.1,1.65c-.36.64-.82,1.19-.82,1.19-.55.55-5.3,7.13-6.4,9.06-.73,1-1.83,2.47-2.47,3.02-.28.27-.46.55-.46.73,0,.27-2.29,3.29-2.84,3.57-.27.28-.46.55-.46.64,0,.19-1.19,1.65-2.56,3.48-1.37,1.74-2.65,3.29-2.75,3.39-1.83,2.2-2.2,2.75-2.2,3.02-.18.46-1,1.37-2.47,3.29-1.37,1.55-3.02,4.57-4.02,6.86-.64,1.65-1.09,4.76-.82,5.95.18.73.27.73,1.37.73,2.38,0,5.49-2.11,10.34-7.04,2.84-2.93,2.84-3.29,6.31-7.13l2.19-2.47c.1,0,.1-.18.1-.27,0-.28,4.39-5.94,4.66-6.03.18,0,.18-.19.18-.28,0-.27.37-.73.82-1.28.37-.37.64-.82.64-.82,0-.28.82-1.19,1.37-1.65.27-.28.46-.55.46-.64,0-.19.36-.55.82-1.01l.82-1.19c.1-.28.28-.46.37-.46.18,0,.46-.37.55-.82.28-.37.82-1.1,1.28-1.38.37-.36.92-1.1,1.1-1.37.09-.37.55-.92.92-1.19.27-.46,1.64-1.92,3.02-3.57,3.02-3.48,2.65-2.93,5.49-6.03,4.3-4.57,10.15-10.34,13.63-13.35,3.11-2.75,3.93-3.39,5.76-4.76,1.19-1.01,2.47-1.92,2.75-2.11.27-.27,1.37-.92,2.29-1.46.82-.74,2.1-1.56,2.75-1.83.54-.27,1.09-.64,1.28-.82.27-.27.55-.37.64-.37.27,0,1-.27,1.65-.73,1.64-.82,3.02-1.37,3.75-1.46.27,0,1.1-.28,1.92-.55,2.47-.55,4.76-.55,5.85.09,1.01.73,1.38,1.28,1.38,2.2Z"/>
    <path d="M870.59,676.62l-1.1-.64c-.73-.28-2.11-1.92-2.75-2.93-.73-1.38-.55-5.21.09-7.68.74-1.47,2.75-6.4,3.2-6.68.27-.27,1.64-2.1,1.74-2.38,0-.09.27-.82.82-1.37s1.65-1.74,2.47-2.84c.74-1.1,1.38-1.83,1.38-1.83.18-.09.46-.55,1-.92,4.02-3.84,6.59-5.21,11.25-6.77,2.1-.37,3.75-.37,4.66.46.73.64,1.1,1.46.73,3.11-.28,1.28-1.65,3.75-3.2,5.49-1.46,1.38-2.84,2.65-4.66,3.29-1.19,1.01-2.47,1.56-3.84,2.1-1.65.83-3.39,1.74-4.94,2.29-1.37.28-2.38.19-3.2,1.65-.28.46-.55,1.1-.64,1.38-.18.27-.18.45-.28.54-1.83,2.38-4.57,8.69-3.2,10.89.73,1.37,2.11,1.92,4.57,1.74,1.19-.09,2.2-.27,3.02-.64l1.56-.73c1.09-.55,4.21-2.84,5.76-3.93,4.39-3.48,10.43-9.88,11.8-11.53.36-.45,1.46-1.92,2.19-2.74l4.66-5.67c.28-.28.64.46.28,1.01-1.92,2.47-7.96,10.15-11.98,14.27-.55.64-7.22,6.4-7.68,6.95-.64.55-2.2,1.56-3.29,2.1-.91.55-2.01,1.1-2.28,1.1-.19.1-.55.37-1.1.55-.55,0-1.01.28-1.19.37-.55.46-5.49.46-5.85,0ZM882.11,655.49c1.38-.55,2.65-1.19,2.75-1.19,0-.19,1.1-.83,1.83-1.28,4.39-3.02,5.76-5.49,6.31-7.78.28-1,.09-1.1-.28-1.37-.73-.46-2.92-.18-4.11.37-1.1.73-2.93,1.83-5.49,4.12-1.01.82-2.11,2.47-3.48,4.39,0,.18-.82,1.37-1.74,2.47-1,1.28-1.74,2.47-1.56,2.47.1.27,3.02-.55,5.76-2.2Z"/>
    <path d="M871.67,711.1c-.55,0-1.92-.92-2.29-1.47-.18-.27-.46-.73-.55-.73-.27-.27-.54-1.74-.54-3.02,0-.64-.19-1.37-.19-1.47-.09-.18-.09-.27,0-.55.19-.18.28-.54.28-1,0-1.65,1.92-4.76,4.02-6.58,1.38-1.19,3.29-2.84,6.13-4.48,3.29-1.92,4.57-2.65,6.77-3.29,3.66-1.1,6.95-2.38,7.96-2.65.37-.09.83-.28,1.1-.28s.55-.09.82-.36c.28-.19.92-.46,1.47-.55,1.1-.28,1.28-.46,2.47-2.11.73-.82,1.56-1.92,1.65-2.29.27-.46.55-.82.73-.82,0,0,.37-.46.64-1.01.28-.64,1.19-2.2,2.01-3.2.64-1.1,1.37-2.29,1.46-2.56.28-.46.46-.82.55-.82.18,0,.18-.19.18-.28,0-.18.1-.45.37-.55.18-.18.46-.73.73-1,.09-.37.55-.92.64-1.19.27-.46.27-.55.18-.55-.18,0-.28,0-.28.09,0,.27-2.65,3.02-5.03,5.12-1.74,1.64-5.03,3.29-6.86,3.48-1.74.27-2.75-.37-4.48-1.83-1-1.09-1.09-1.37-1.28-2.74-.09-1.01.46-4.12.82-4.57,0-.09.19-.28.19-.37,0-.55,2.29-4.57,3.11-6.03l.83-1.56c0-.09.27-.36.54-.64.46-.46.83-1,1.28-1.55.27-.37.64-.92.91-1.19.46-.28.55-.55.55-.74l.46-.64,1.37-1.55c1.47-1.65,2.56-2.75,4.3-4.21.64-.55,1.37-1.28,1.46-1.28.28-.36,2.93-2.47,3.75-2.84.37-.18,1.1-.55,1.47-1,.82-.55,3.29-1.47,4.85-1.92,2.01-.55,4.21-.09,5.49,1.1.91,1.01,1.1,2.65.55,4.39-.19.73-.28,1.1-.19.82.19-.09.55-.64.74-.91l.82-1.28c.09-.27.82-1.1,1.37-2.01q1.1-1.28,2.2-1.28c.55,0,1.19,0,1.47-.09,2.19-.46,2.65,0,.73,2.01-2.11,2.2-3.29,3.84-6.77,8.69l-2.83,4.12c-2.11,2.47-3.29,4.66-4.57,6.95-.09.27-.37.55-.37.55-.18,0-.46.18-.46.18,0,.09-.36,1.19-1.1,2.2l-2.47,3.57c-.55,1.1-1.19,2.01-1.37,2.2,0,.09-.83,1.19-1.65,2.47-.64,1.1-1.65,2.93-2.2,3.57-.36.73-.82,1.37-.82,1.56,0,.27.55.27.82,0,.19-.19,1.1-.74,2.11-1.28,4.12-1.92,6.13-3.29,9.05-5.49.92-.55,1.74-1.1,1.92-1.1.09,0,.27-.27.54-.46.1-.27,1.1-1.1,1.92-1.64,2.2-1.74,6.31-5.85,7.5-7.78.27-.27.82-1.1,1.37-1.65.55-.82,2.1-2.47,3.2-4.02.92-1.47,2.2-2.84,2.47-3.02.09-.09.27-.27.27-.36,0-.19.09-.46.37-.55.73-.73,1.92-2.65,2.2-2.93.45-.55.82-.09.73.27-.28,1.01-1.1,1.83-1.92,2.93l-1.65,2.2c-.74.82-1.28,1.65-1.38,1.65l-1.28,1.65c-.82.91-1.37,2.01-1.65,2.01-.09.28-.55.46-.55.55,0,.46-3.84,5.12-5.85,6.86-1.55,1.55-3.57,3.48-4.02,3.57-.1,0-.55.27-.83.73-.55.28-.92.64-1.1.64-.27,0-.36,0-.36.19,0,.27-4.3,3.29-5.21,3.84l-.83.46c-.73.55-5.39,2.84-7.31,3.84-1.19.64-2.2,1.38-2.65,1.92-.91,1.1-2.74,3.66-2.74,3.84,0,.28-2.56,3.93-4.39,6.04l-3.84,4.94c-3.66,4.76-4.21,5.76-5.85,7.13l-2.2,1.74c-1.28,1.1-3.48,2.38-5.67,3.57-1.92.74-3.93.83-5.21.19-.55-.28-.91-.46-1.1-.46ZM876.88,709.08s.28-.27.55-.27c.46-.18,1.83-1.37,2.47-1.83l1.1-.83c2.47-1.92,4.12-3.57,5.21-5.3.55-.73,1.1-1.37,1.37-1.64.19-.19.74-.83,1.1-1.56l2.65-3.66c1.1-1.65,2.29-3.29,2.47-3.57.55-.74.64-1.1,1.37-1.83.37-.64,1.74-2.56,1.74-2.74,0-.09-.09-.09-3.84,1.28-2.2.64-4.66,1.65-5.76,1.92-3.11.83-4.94,1.65-7.13,3.02-.55.37-1.1.64-1.1.64-.27,0-5.03,3.57-5.85,4.39-1.83,1.65-2.11,1.83-3.02,4.02-.73,1.37-.83,2.01-1.01,3.39-.09,3.29,1.01,5.12,3.29,5.49.73.18,1.65.46,2.1.18.83-.18,2.29-.82,2.29-1.1ZM899.84,674.42c.55-.09,2.56-1.74,3.29-2.29,1.01-.82,3.2-3.02,3.2-3.2,0-.09.37-.37,1.74-2.01l.82-1c0-.1.18-.28.46-.55,1.46-1.47,3.84-4.76,5.49-7.13.55-.83,1.1-1.65,1.37-1.74.1-.19.28-.28.28-.55,0-.19,0-.28.09-.28.18,0,.55-.73,1.01-1.28.36-.64.91-1.37,1.19-1.65.18-.27.45-.55.45-.64,0-.18.28-.73.55-1.28,1.09-1.47,1.37-2.01,1.64-3.39.55-2.11.28-3.2-1.1-3.75q-1-.28-2.1-.09c-2.01.27-3.39.82-5.21,2.19-2.84,2.2-6.31,5.85-8.78,9.06l-1.65,2.01c-.73.83-1.28,1.65-1.37,1.92-.28.28-.74,1.01-1.1,1.56-.46.55-.83,1.19-.83,1.37l-1.37,2.01c-1.65,2.38-2.2,3.48-2.93,4.66-.27.73-.55,1.1-.55,1.28-.27.09-.55.92-.64,1.47,0,0-.18.73-.46,1.55-.27.92-.27,1.19,0,1.47.19.27.28.55.19.73,0,.27,1.19.82,2.19.92.37,0,3.29-.83,4.12-1.38Z"/>
    <path d="M943.99,674.88c-.54-1.1-.09-2.65.19-3.84.09-.18.36-1.28-.19-.82-.82.55-1.46,1.46-2.29,2.29-1.92,1.83-3.48,3.2-5.94,3.84-2.93.92-6.77.92-7.68-2.19-.55-1.92-1.1-4.76-.27-6.59l1.37-3.29,1.74-3.57c1.01-1.65,2.11-3.29,3.29-4.76l1.64-2.2c1.01-1.28,2.11-2.2,3.11-3.48,2.2-2.29,4.66-4.94,7.4-6.58,1.74-.83,4.21-1.47,6.13-1.74,2.47-.28,4.66.91,4.85,3.57l.09,2.29c0,.45.19.73.19.73.82.09,2.47-3.84,3.57-4.57.82-.64,2.2-.55,3.11-.09.82.37,1.01.92.55,1.74-.92,1.65-2.47,2.93-3.57,4.39-1.1,1.56-2.01,3.2-3.11,4.57-1.28,1.74-2.2,3.66-3.57,5.3-1.37,2.38-3.02,4.3-4.39,6.59-1.28,1.83-2.38,3.75-3.02,6.03-1.1,4.85,3.11,2.47,5.03.73,2.2-1.65,4.3-3.48,5.95-5.67.64-.82,1.37-1.64,2.19-2.47,2.2-2.74,4.48-5.58,6.68-8.5,1.37-1.65,1.92-2.2,3.2-3.84.37-.55.64-1.1,1.19-1.46.28-.19.55-.28.55,0,0,.55-.27,1.37-.64,1.74l-5.67,7.13c-2.28,3.02-5.03,6.49-7.77,9.51-1.65,1.74-3.48,3.93-5.49,5.3-1.56,1.01-3.29,2.29-5.21,2.11-1.28-.09-2.65-1.01-3.2-2.2ZM938.78,673.6c2.1-1.74,3.47-3.02,4.94-4.76,2.2-2.75,2.11-2.47,3.29-4.39l4.11-6.49c1.1-1.46,2.2-3.29,2.38-3.29l.09-.27.82-1.37,1.1-1.74c.55-1.01.46-2.38.27-3.48,0-1.1-.27-2.29-1.19-3.02-.54-.55-1-.55-1.64-.28-.83.18-2.11,1.1-2.47,1.37l-.55.46c-.27,0-9.32,8.78-10.06,9.7l-.91,1.28c-2.38,2.84-3.75,4.76-5.3,7.22l-.92,1.56-.46,1.1-.91,2.47c-.28.64-.46,1.19-.46,2.01-.09.83-.09,2.65.55,3.2.82.92,1.65.64,2.93.55,1.46-.18,3.29-.83,4.39-1.83Z"/>
    <path d="M992.26,651.65c0,.28-1.19,1.83-2.47,3.2-1.37,1.46-2.83,3.29-3.29,3.84l-1.47,1.65-5.39,5.76c-1.46,2.01-6.31,6.58-7.95,7.77-2.11,1.38-2.65,1.65-4.66,2.47-1.47.64-5.85,1.1-7.87.46-2.47-.18-4.94-2.2-5.03-4.12,0-1.1.09-2.93.54-3.29.1,0,.28-1.1.55-1.56.54-1.19,2.19-2.2,3.11-2.2,1.28,0,2.19,1.56,1.37,2.75-.55,1.01-1.92,1.83-2.84,1.83-.82.09-1.28.27-1.28.37-.64,1.09-.92,3.57.55,4.39,2.38,1.28,3.84,1.1,4.85.73,1.92-1,4.48-4.02,5.85-5.76,2.38-3.02,3.2-4.39,4.12-6.59.28-.46.55-1,.55-1.1l.19-.55c.54-2.38,1.28-5.21,1.28-9.32,0-1.38,0-1.28-.18-1.28-.1,0,0-.09-.37.55-.28.46-1.19,1.38-2.11,2.47-2.1,2.47-2.1,1.01-.73-.54.73-1.1,1.37-1.92,1.65-2.2.64-.92,1.28-1.65,1.56-1.74,0-.18.18-.73.45-1.1.09-.46.55-1.56,1.19-2.93,1.56-3.57,2.47-5.3,4.12-6.13,2.11-1.37,3.02.28,1.83,3.11-.82,1.83-4.11,4.3-4.39,4.57,0,0-.82.55-1.01.91l-.27,1.01v4.94c0,1.92.27,3.11.27,5.03-.55,6.86-1.92,9.79-4.85,12.9-1.37,1.56-2.56,2.56-3.66,3.2,1.46-.36,3.75-1,7.59-4.57l3.29-3.29,2.56-2.75c.73-.91,1.64-1.92,2.1-2.47.37-.27,1.38-1.37,2.29-2.47l1.65-1.92c.18-.1.82-.92,1.83-1.92.82-1.1,1.74-2.19,2.2-2.47.27-.55.82-1.19,1.19-1.65.82-.91,1.37-.91,1.1,0Z"/>
  </g>
  <g>
    <path d="M126.51,354.12v67.55l8.86,2.07v1.49h-23.4v-1.49l8.86-2.07v-63.99l-8.86-2.07v-1.49h14.54ZM160.05,351.95h.58l2.92,20.75-1.64.32-7.43-16.55,4.61,1.06h-37.62v-3.4h33.86l4.72-2.18ZM152.36,375.51l-.43,14.11.43,14.06h-2.28l-2.18-12.31-23.99-.16v-3.18l23.99-.27,2.18-12.26h2.28Z"/>
    <path d="M209.3,353.06c5.02,0,9.66.91,13.9,2.71,4.24,1.8,7.94,4.34,11.09,7.61,3.15,3.27,5.59,7.14,7.32,11.6,1.73,4.46,2.6,9.34,2.6,14.65s-.84,10.2-2.52,14.67c-1.68,4.48-4.05,8.36-7.11,11.65-3.06,3.29-6.67,5.84-10.83,7.64-4.16,1.8-8.73,2.71-13.72,2.71s-9.61-.9-13.88-2.71c-4.26-1.8-7.97-4.34-11.12-7.62-3.15-3.27-5.59-7.14-7.32-11.6-1.74-4.46-2.6-9.34-2.6-14.64s.84-10.2,2.52-14.67c1.68-4.47,4.05-8.36,7.11-11.65,3.06-3.29,6.68-5.84,10.85-7.64,4.17-1.8,8.74-2.71,13.69-2.71ZM210.09,423.05c5.87,0,10.89-1.37,15.04-4.11,4.16-2.74,7.35-6.55,9.58-11.43,2.23-4.88,3.34-10.51,3.34-16.88,0-7.15-1.24-13.28-3.72-18.42-2.48-5.13-5.88-9.06-10.22-11.81-4.33-2.74-9.29-4.11-14.89-4.11s-10.84,1.37-15.02,4.11c-4.18,2.75-7.37,6.55-9.61,11.41-2.23,4.87-3.34,10.5-3.34,16.91,0,7.14,1.24,13.28,3.72,18.41,2.48,5.13,5.88,9.07,10.22,11.81,4.33,2.74,9.29,4.11,14.89,4.11Z"/>
    <path d="M272.23,354.12v67.55l9.55,2.07v1.49h-24.09v-1.49l8.86-2.07v-63.99l-8.86-2.07v-1.49h14.54ZM284.38,387.29c4.7,0,8.57-1.27,11.59-3.82,3.02-2.55,4.54-6.3,4.54-11.25,0-3.08-.71-5.71-2.12-7.9-1.42-2.2-3.75-3.87-7-5.04-3.26-1.17-7.68-1.75-13.27-1.75h-11.15l-.8-3.4h15.92c5.91,0,10.66.79,14.25,2.36,3.59,1.58,6.2,3.7,7.83,6.37,1.63,2.67,2.44,5.67,2.44,9,0,2.94-.66,5.61-1.99,8.01-1.33,2.41-3.28,4.42-5.86,6.02-2.58,1.61-5.73,2.72-9.45,3.31v-.37c2.23.11,4.1.52,5.6,1.24,1.5.73,2.83,1.89,3.98,3.5,1.15,1.61,2.27,3.8,3.37,6.55l6.05,14.97c.99,2.44,1.88,4.25,2.68,5.42.8,1.16,1.73,1.93,2.81,2.28,1.08.35,2.47.53,4.17.53v1.91c-2.62.18-4.73.23-6.34.16-1.61-.07-2.93-.42-3.95-1.04-1.03-.61-1.94-1.61-2.73-2.97-.8-1.37-1.67-3.25-2.63-5.65l-5.57-14.06c-1.1-2.83-2.11-5.04-3.05-6.63-.94-1.59-2-2.72-3.19-3.37s-2.75-.98-4.69-.98h-18.26l-.37-3.4h17.19Z"/>
    <path d="M377.67,423.74v1.49h-23.4v-1.49l8.86-2.07v-63.99l-8.86-2.07v-1.49h23.4v1.49l-8.86,2.07v63.99l8.86,2.07Z"/>
    <path d="M400.12,421.67v-63.47l-9.44-2.6v-1.49h14.96l46.49,63.84-2.39,2.81v-63.09l-9.13-2.07v-1.49h21.49v1.49l-8.86,2.07v68.61h-1.91l-49.35-67.5,1.64-1.17v64.05l9.07,2.07v1.49h-21.44v-1.49l8.86-2.07Z"/>
    <path d="M530.44,357.52h-52.85l3.56-.85-6.32,16.56-1.7-.32,2.33-22.23h.74l5.52,4.09-2.92-.64h50.36l-2.86.64,5.52-4.09h.74l2.29,22.18-1.7.37-6.26-16.56,3.56.85ZM501.15,355.77h5.68v65.9l8.87,2.07v1.49h-23.4v-1.49l8.86-2.07v-65.9Z"/>
    <path d="M569.97,423.74v1.49h-23.4v-1.49l8.87-2.07v-63.99l-8.87-2.07v-1.49h23.4v1.49l-8.86,2.07v63.99l8.86,2.07Z"/>
    <path d="M666.23,421.67l8.87,2.07v1.49h-23.3v-1.49l8.86-2.07-4.3-62.61.74.16-29.45,67.08h-1.75l-28.5-66.81.69-.11-4.19,62.3,8.81,2.07v1.49h-21.12v-1.49l8.86-2.07,4.73-63.68-9.29-2.39v-1.49h15.28l27.54,64.85-1.22-.05,28.55-64.8h15.12v1.49l-9.5,2.07,4.56,63.99Z"/>
    <path d="M747.11,421.67l8.65,2.07v1.49h-23.83v-1.49l9.13-2.07-24.73-62.19h2.23l-23.93,62.19,8.97,2.07v1.49h-21.38v-1.49l8.75-2.07,26.85-68.61h1.64l27.65,68.61ZM702.21,396.9v-3.29h32.1v3.29h-32.1Z"/>
    <path d="M809.14,357.52h-52.85l3.56-.85-6.32,16.56-1.7-.32,2.34-22.23h.74l5.52,4.09-2.92-.64h50.36l-2.87.64,5.52-4.09h.75l2.28,22.18-1.7.37-6.26-16.56,3.55.85ZM779.84,355.77h5.68v65.9l8.86,2.07v1.49h-23.4v-1.49l8.86-2.07v-65.9Z"/>
    <path d="M825.27,425.23v-1.49l8.86-2.07v-63.99l-8.86-2.07v-1.49h14.54v71.11h-14.54ZM879.29,372.7l-1.7.32-7.43-16.55,3.02,1.06h-37.78v-3.4h35.55l4.72-2.18h.64l2.97,20.75ZM871.33,423.32l8.65-17.09,1.54.42-3.98,21.28h-.58l-4.73-2.71h-36.82v-3.4h38.63l-2.71,1.49ZM865.86,373.87l-.42,14.11.42,14.06h-2.28l-2.18-12.31-24.31-.16v-3.18l24.31-.27,2.18-12.26h2.28Z"/>
    <path d="M129.43,488.17l-24.09,65.48h-1.64l-16.56-68.61-8.65-2.07v-1.49h23.61v1.49l-9.18,2.07,14.27,60.29-2.12.32,23.67-65.22h1.7l22.39,65.7-2.87,1.06,14.97-62.14-9.13-2.07v-1.49h21.22v1.49l-8.65,2.07-17.03,68.61h-1.64l-22.23-64.79,1.96-.69Z"/>
    <path d="M186.1,552.59v-1.49l8.86-2.07v-64l-8.86-2.07v-1.49h14.54v71.11h-14.54ZM240.12,500.06l-1.7.32-7.43-16.56,3.02,1.06h-37.78v-3.4h35.55l4.72-2.18h.64l2.97,20.75ZM232.16,550.68l8.65-17.09,1.54.43-3.98,21.28h-.58l-4.72-2.71h-36.83v-3.4h38.63l-2.71,1.49ZM226.7,501.22l-.43,14.12.43,14.06h-2.28l-2.18-12.31-24.3-.16v-3.18l24.3-.27,2.18-12.26h2.28Z"/>
    <path d="M255.19,552.59v-1.49l8.86-2.07v-64l-8.86-2.07v-1.49h14.54v71.11h-14.54ZM316.43,516.13c0-10.47-3.31-18.3-9.92-23.48-6.61-5.18-15.87-7.77-27.75-7.77h-13.43l.64-3.4h15.49c9.09,0,16.68,1.3,22.76,3.9,6.09,2.6,10.68,6.44,13.77,11.52,3.1,5.08,4.64,11.33,4.64,18.76,0,8.03-1.79,14.78-5.36,20.27-3.58,5.49-8.44,9.63-14.59,12.44-6.16,2.82-13.13,4.22-20.91,4.22h-15.81l-.64-3.4h14.91c7.32,0,13.7-1.12,19.13-3.37,5.43-2.25,9.63-5.8,12.6-10.67,2.97-4.86,4.46-11.2,4.46-19.02Z"/>
    <path d="M336.07,552.59v-1.49l8.86-2.07v-64l-8.86-2.07v-1.49h14.54v71.11h-14.54ZM397.3,516.13c0-10.47-3.31-18.3-9.92-23.48-6.62-5.18-15.87-7.77-27.76-7.77h-13.42l.64-3.4h15.49c9.09,0,16.68,1.3,22.77,3.9,6.08,2.6,10.67,6.44,13.77,11.52,3.1,5.08,4.64,11.33,4.64,18.76,0,8.03-1.79,14.78-5.36,20.27-3.57,5.49-8.44,9.63-14.59,12.44-6.16,2.82-13.12,4.22-20.9,4.22h-15.81l-.64-3.4h14.91c7.32,0,13.7-1.12,19.13-3.37,5.43-2.25,9.63-5.8,12.6-10.67,2.97-4.86,4.46-11.2,4.46-19.02Z"/>
    <path d="M440.34,551.1v1.49h-23.4v-1.49l8.86-2.07v-64l-8.86-2.07v-1.49h23.4v1.49l-8.86,2.07v64l8.86,2.07Z"/>
    <path d="M462.78,549.03v-63.47l-9.44-2.6v-1.49h14.97l46.48,63.84-2.39,2.81v-63.1l-9.13-2.07v-1.49h21.49v1.49l-8.86,2.07v68.61h-1.91l-49.35-67.5,1.64-1.17v64.05l9.07,2.07v1.49h-21.44v-1.49l8.86-2.07Z"/>
    <path d="M598.37,545.16l2.07,3.02v.11c-2.16,1.1-4.53,2.05-7.11,2.84-2.58.8-5.31,1.42-8.18,1.86-2.86.44-5.82.66-8.86.66-5.37,0-10.4-.8-15.07-2.41-4.67-1.61-8.76-3.97-12.28-7.08-3.52-3.11-6.27-6.93-8.26-11.43-1.98-4.51-2.97-9.67-2.97-15.47,0-7.47,1.56-13.96,4.69-19.47,3.13-5.52,7.62-9.79,13.48-12.81,5.85-3.03,12.81-4.54,20.88-4.54,2.8,0,5.49.23,8.09.69,2.6.46,5.46,1.17,8.57,2.12l-3.24-.16,4.51-4.25h.63l3.56,23.24-1.75.37-8.06-17.19,4.78,4.67c-3.54-2.2-6.84-3.77-9.9-4.73-3.06-.96-6.38-1.43-9.95-1.43-4.78,0-9.03.68-12.76,2.04-3.73,1.37-6.89,3.36-9.48,6-2.58,2.63-4.54,5.87-5.89,9.71-1.34,3.84-2.01,8.25-2.01,13.24,0,7.75,1.44,14.28,4.32,19.61,2.89,5.32,6.78,9.37,11.68,12.12,4.9,2.76,10.41,4.14,16.53,4.14,2.27,0,4.59-.22,6.98-.66,2.39-.44,4.58-1.07,6.58-1.88,1.99-.81,3.51-1.77,4.53-2.87l-1.8,3.87v-24.62l-10.88-2.18v-1.49h23.4v1.49l-6.84,2.07v20.8Z"/>
    <path d="M646.71,552.59v-1.49l8.86-2.07v-64l-8.86-2.07v-1.49h14.54v71.11h-14.54ZM707.95,516.13c0-10.47-3.31-18.3-9.92-23.48-6.62-5.18-15.87-7.77-27.76-7.77h-13.42l.63-3.4h15.49c9.09,0,16.68,1.3,22.77,3.9s10.67,6.44,13.77,11.52c3.09,5.08,4.64,11.33,4.64,18.76,0,8.03-1.79,14.78-5.36,20.27-3.57,5.49-8.44,9.63-14.59,12.44-6.16,2.82-13.12,4.22-20.9,4.22h-15.82l-.63-3.4h14.91c7.32,0,13.7-1.12,19.13-3.37,5.43-2.25,9.63-5.8,12.6-10.67,2.97-4.86,4.46-11.2,4.46-19.02Z"/>
    <path d="M784.15,549.03l8.65,2.07v1.49h-23.83v-1.49l9.13-2.07-24.73-62.19h2.23l-23.93,62.19,8.97,2.07v1.49h-21.39v-1.49l8.76-2.07,26.85-68.61h1.65l27.64,68.61ZM739.25,524.25v-3.29h32.1v3.29h-32.1Z"/>
    <path d="M795.03,485.03l-8.65-2.07v-1.49h24.73v1.49l-9.02,2.07,23.61,35.13-2.28-.05,20.11-35.08-8.97-2.07v-1.49h21.54v1.49l-8.81,2.07-21.54,36.46v27.54l8.86,2.07v1.49h-23.4v-1.49l8.86-2.07v-27.33l-25.05-36.67Z"/>
    <path d="M902.85,484.4l-4.35-1.22,4.3-4.35h.63l3.4,22.66-1.65.27-7.59-16.5,3.66,4.35c-2.73-2.4-5.21-4.08-7.46-5.01-2.25-.94-4.62-1.41-7.14-1.41-4.92,0-8.61,1.21-11.09,3.63-2.48,2.42-3.72,5.37-3.72,8.84,0,2.48.48,4.57,1.44,6.29.95,1.71,2.27,3.18,3.95,4.4,1.68,1.22,3.59,2.3,5.71,3.24,2.12.94,4.33,1.86,6.63,2.79,2.33.92,4.64,1.91,6.92,2.97,2.29,1.06,4.38,2.36,6.29,3.9,1.91,1.54,3.44,3.44,4.59,5.7,1.15,2.27,1.72,5.04,1.72,8.33,0,4.49-1.01,8.25-3.02,11.25-2.01,3.01-4.81,5.28-8.38,6.82-3.58,1.54-7.75,2.31-12.52,2.31-3.22,0-6.09-.2-8.6-.61-2.51-.41-5.09-1.1-7.75-2.1l-4.14-17.88h2.12l9.82,18.15-6.26-4.3c2.55,1.45,4.99,2.44,7.32,2.97,2.34.53,4.7.8,7.11.8,3.89,0,7.3-.53,10.24-1.6,2.94-1.06,5.22-2.71,6.87-4.96s2.47-5.12,2.47-8.62c0-2.94-.6-5.39-1.8-7.35-1.2-1.96-2.8-3.61-4.78-4.94-1.98-1.32-4.14-2.47-6.47-3.43-2.34-.95-4.65-1.91-6.96-2.86-2.3-.96-4.47-1.98-6.52-3.08-2.06-1.1-3.86-2.36-5.42-3.8-1.56-1.43-2.78-3.15-3.66-5.17-.88-2.01-1.32-4.42-1.32-7.21,0-3.47.81-6.49,2.41-9.08,1.61-2.58,3.93-4.59,6.95-6.02,3.03-1.44,6.61-2.15,10.75-2.15,3.04,0,5.75.34,8.14,1.03,2.39.69,4.77,1.67,7.14,2.95Z"/>
  </g>
  <g>
    <path d="M138.95,234.3l6.98-5.51,1.17.92-14.75,18.7-1.17-.92,4.03-8.45-64.15-19.1,1.38-1.75,34.01,57.3,7.18-5.76,1.17.92-13.24,16.79-1.17-.92,3.8-8.16-37.24-63.58,1.02-1.29,70.99,20.78ZM91.69,254.2l-2.58-2.04,19.88-25.21,2.58,2.04-19.88,25.21Z"/>
    <path d="M116,163.18l44.3,51,8.57-4.7.97,1.12-18.19,15.8-.97-1.12,5.33-7.37-41.96-48.32-8.05,4.25-.98-1.12,10.98-9.54ZM146.92,180.25c3.55-3.08,5.64-6.58,6.25-10.48.61-3.91-.7-7.73-3.95-11.47-2.02-2.33-4.28-3.85-6.79-4.58-2.51-.73-5.37-.46-8.59.79-3.22,1.25-6.95,3.71-11.17,7.38l-8.41,7.3-2.83-2.04,12.02-10.44c4.46-3.87,8.56-6.39,12.31-7.56,3.74-1.17,7.11-1.27,10.08-.33,2.98.95,5.56,2.68,7.74,5.19,1.93,2.22,3.18,4.67,3.75,7.35.58,2.68.42,5.48-.48,8.39-.89,2.91-2.55,5.81-4.96,8.69l-.24-.28c1.75-1.38,3.44-2.29,5.04-2.73,1.61-.44,3.38-.43,5.3.04,1.92.46,4.2,1.38,6.84,2.74l14.38,7.33c2.35,1.19,4.21,1.97,5.57,2.33,1.37.36,2.57.32,3.62-.12,1.05-.44,2.21-1.21,3.49-2.33l1.25,1.44c-1.86,1.85-3.42,3.27-4.68,4.28-1.26,1-2.48,1.61-3.66,1.81-1.18.21-2.52.06-4.01-.45-1.49-.5-3.39-1.36-5.69-2.54l-13.43-6.97c-2.68-1.42-4.9-2.42-6.65-3.01-1.75-.58-3.29-.74-4.61-.45-1.32.28-2.72,1.06-4.19,2.34l-13.78,11.97-2.51-2.32,12.98-11.28Z"/>
    <path d="M212.1,97.77l-44.84,27.98,2.57-2.6,3.41,17.39-1.61.63-9.79-20.1.63-.39,6.84.54-2.81,1,42.72-26.66-2.09,2.06,2.52-6.39.63-.39,13.68,17.61-1.24,1.21-14.08-10.73,3.47-1.16ZM186.32,111.8l4.82-3.01,34.89,55.91,8.61-2.94.79,1.26-19.85,12.39-.79-1.26,6.42-6.45-34.89-55.91Z"/>
    <path d="M244.3,78.19l27.41,61.74,8.94-1.7.6,1.36-21.39,9.49-.6-1.36,7.26-5.49-25.96-58.49-8.94,1.7-.6-1.36,13.29-5.9ZM274.07,62.6l.53-.24,11.09,17.78-1.38.96-13.51-12.12,4.65-.9-34.39,15.27-1.38-3.11,30.94-13.74,3.43-3.9ZM276.59,87.26l5.34,13.07,6.1,12.68-2.09.92-6.98-10.37-21.99,9.59-1.29-2.91,21.82-9.97-2.99-12.08,2.09-.93Z"/>
    <path d="M364.16,82.67l-11.07-39-9.09.43-.41-1.43,20.42-5.79.41,1.43-7.96,4.41,11.03,38.85c1.73,6.1,2.14,11.45,1.22,16.06-.91,4.62-3,8.46-6.27,11.52-3.27,3.06-7.59,5.35-12.97,6.88-5.72,1.63-10.88,1.95-15.47.97-4.6-.97-8.54-3.29-11.82-6.96-3.28-3.67-5.83-8.7-7.65-15.1l-10.59-37.32-9.09.43-.41-1.43,22.51-6.39.41,1.43-7.96,4.41,10.55,37.17c1.52,5.34,3.61,9.62,6.29,12.83,2.68,3.21,5.91,5.3,9.69,6.27,3.79.96,8.13.75,13.03-.64,4.63-1.31,8.32-3.22,11.08-5.74,2.76-2.51,4.52-5.7,5.26-9.55.75-3.85.37-8.44-1.14-13.74Z"/>
    <path d="M397.97,35.05l9.49,66.88-14.39,2.04-.21-1.47,8.48-3.29-8.99-63.36-9.06-.81-.21-1.47,23.17-3.28.21,1.47-8.48,3.29ZM442.94,99.64l-.68.1-5.16-2-32.68,4.63-.48-3.36,36.41-5.16-4.35,2.17,6.41-18.65,1.58.2-1.05,22.07Z"/>
    <path d="M505.27,93.26l.02,1.49-23.4.3-.02-1.49,8.84-2.18-.82-63.99-8.89-1.95-.02-1.49,23.4-.3.02,1.49-8.83,2.19.82,63.99,8.89,1.95Z"/>
    <path d="M598.88,99.49l8.56,3.08-.17,1.48-23.14-2.71.18-1.48,9.04-1.03,3-62.69.72.24-37.04,63.2-1.74-.2-20.55-69.67.7-.03-11.39,61.39,8.51,3.08-.17,1.48-20.98-2.45.17-1.48,9.04-1.02,12.08-62.7-8.95-3.45.18-1.48,15.18,1.77,19.83,67.61-1.2-.2,35.88-61.04,15.02,1.76-.17,1.48-9.68.95-2.9,64.09Z"/>
    <path d="M674.72,120.27l7.73,4.39-.41,1.43-22.89-6.62.41-1.43,9.34.55-6.47-66.61,2.14.62-40.27,53.09,8.04,4.48-.41,1.43-20.55-5.94.41-1.43,8.99.44,44.87-58.44,1.58.45,7.49,73.6ZM638.49,83.98l.92-3.16,30.84,8.92-.92,3.16-30.84-8.93Z"/>
    <path d="M743.13,145.79l.62,3.61-.04.1c-2.42.11-4.97-.02-7.65-.36-2.68-.35-5.42-.91-8.21-1.7-2.79-.79-5.57-1.81-8.34-3.07-4.9-2.23-9.13-5.05-12.71-8.45-3.58-3.41-6.33-7.25-8.24-11.55-1.91-4.29-2.84-8.9-2.77-13.83.07-4.93,1.3-10.02,3.71-15.31,3.1-6.79,7.21-12.05,12.35-15.77,5.14-3.72,11-5.75,17.58-6.07,6.58-.32,13.55,1.19,20.88,4.53,2.54,1.16,4.9,2.49,7.08,3.98,2.18,1.5,4.48,3.32,6.92,5.49l-2.88-1.49,5.87-1.99.58.26-6.41,22.63-1.75-.39-.21-18.99,2.41,6.23c-2.31-3.47-4.66-6.27-7.05-8.4-2.39-2.14-5.2-3.95-8.46-5.43-4.35-1.98-8.5-3.13-12.46-3.44-3.96-.31-7.66.2-11.1,1.53-3.45,1.32-6.57,3.46-9.39,6.39-2.82,2.94-5.26,6.67-7.32,11.21-3.21,7.05-4.61,13.6-4.2,19.64.41,6.04,2.28,11.33,5.59,15.87,3.31,4.54,7.75,8.08,13.32,10.62,2.06.94,4.27,1.7,6.62,2.29,2.36.58,4.61.93,6.77,1.01,2.16.09,3.93-.15,5.31-.73l-3.24,2.78,10.21-22.4-9-6.49.61-1.35,21.3,9.7-.62,1.36-7.09-.96-8.62,18.93Z"/>
    <path d="M754.34,160.39l.82-1.24,8.53,3.17,35.38-53.33-6.24-6.62.83-1.23,12.11,8.03-39.31,59.25-12.12-8.03ZM793.79,184.26l16.65-9.46,1.05,1.2-15.08,15.53-.48-.32-2.44-4.87-30.69-20.36,1.88-2.83,32.19,21.36-3.07-.26ZM816.57,140.03l-8.16,11.53-7.42,11.95-1.9-1.26,4.99-11.46-20.16-13.57,1.76-2.65,20.4,13.21,8.59-9.01,1.9,1.26ZM828.4,146.48l-1.59-.67,2.96-17.91,1.93,2.56-31.48-20.88,1.87-2.83,29.63,19.65,5.14.8.53.35-8.99,18.93Z"/>
    <path d="M868.17,155.39l-45.87,49.59,5.61,8.01-1.01,1.09-17.68-16.36,1.01-1.09,7.91,4.5,43.46-46.98-5.1-7.54,1.01-1.09,10.67,9.87ZM854.57,187.99c3.46,3.2,7.15,4.89,11.11,5.07,3.95.18,7.61-1.54,10.97-5.18,2.09-2.26,3.36-4.67,3.81-7.24.45-2.57-.12-5.39-1.72-8.46-1.6-3.07-4.45-6.5-8.55-10.3l-8.18-7.57,1.72-3.03,11.69,10.81c4.34,4.01,7.29,7.81,8.86,11.41,1.57,3.59,2.05,6.92,1.43,9.99-.62,3.06-2.06,5.82-4.32,8.26-1.99,2.16-4.3,3.67-6.9,4.53-2.61.87-5.41,1.01-8.4.44-2.99-.57-6.05-1.9-9.18-3.98l.25-.27c1.56,1.59,2.65,3.16,3.26,4.71.61,1.56.79,3.31.54,5.27-.25,1.96-.91,4.33-1.97,7.1l-5.72,15.09c-.93,2.46-1.5,4.39-1.71,5.79-.21,1.4-.04,2.59.51,3.59.55.99,1.45,2.07,2.7,3.21l-1.3,1.41c-2.04-1.65-3.63-3.05-4.76-4.19-1.13-1.14-1.87-2.29-2.2-3.45-.33-1.15-.33-2.49.01-4.03.34-1.54.98-3.52,1.91-5.93l5.46-14.1c1.12-2.82,1.87-5.14,2.27-6.94.39-1.8.37-3.35-.05-4.63-.43-1.28-1.36-2.59-2.78-3.91l-13.4-12.4,2.03-2.75,12.62,11.67Z"/>
    <path d="M910.42,201.89l-3.57-8.15,1.18-.9,14.93,19.71-1.18.9-7.1-5.94-13.75,40.03-1.33-1.85,40.1-5.15-3.76-8.4,1.18-.9,13.01,17.17-1.18.9-6.97-5.77-42.07,4.84-21.95,16.63,3.7,8.31-1.18.9-14.13-18.65,1.18-.9,7,5.81,21.78-16.5,14.11-42.11Z"/>
  </g>
</svg>