<?xml version="1.0" encoding="UTF-8"?>
<svg id="Layer_1" data-name="Layer 1" xmlns="http://www.w3.org/2000/svg" viewBox="0 0 1000 450.12">
  <g>
    <path d="M101.42,232.78v32.36c0,2.15.5,4.29,2.31,5.28,2.15,1.16,4.79,1.49,8.59,1.49.99,0,1.49.5,1.49,1.49,0,.83-.5,2.48-1.98,2.48-1.32,0-8.92-.5-16.35-.5s-15.19.5-16.35.5c-1.49,0-1.98-1.65-1.98-2.48,0-.99.33-1.49,1.32-1.49,3.96,0,6.61-.33,8.59-1.49,1.82-.99,2.31-2.64,2.31-5.28l.16-87.02c0-2.31-.49-4.29-2.31-5.45-1.98-1.16-4.79-1.32-8.75-1.32-.99,0-1.32-.66-1.32-1.49,0-.99.5-2.48,1.98-2.48,1.15,0,8.75.33,16.35.33s13.04-.5,17.67-.5c23.94,0,36,13.04,36,30.71s-10.73,31.21-29.22,31.21c-6.28,0-11.39-1.49-15.52-2.31-2.48-.66-2.97,1.65-2.97,5.94ZM115.46,225.02c12.71,0,21.14-10.4,21.14-27.74s-9.74-26.09-23.28-26.09c-9.41,0-11.89,2.15-11.89,7.43v39.79c0,3.3,5.12,6.61,14.04,6.61Z"/>
    <path d="M161.36,177.96c0-6.77-5.28-6.93-10.9-6.93-.99,0-1.32-.5-1.32-1.32,0-.99.33-2.48,1.98-2.48,1.15,0,8.75.5,16.35.5s15.03-.5,16.18-.5c1.65,0,1.98,1.49,1.98,2.48,0,.83-.33,1.32-1.32,1.32-3.96,0-6.61.33-8.75,1.49-1.82,1.16-2.31,3.14-2.31,5.45v35.17c0,3.63.33,5.78,4.46,5.78h28.4c4.13,0,4.29-1.82,4.29-5.61v-35.34c0-6.77-5.28-6.93-10.9-6.93-.99,0-1.32-.5-1.32-1.32,0-.99.5-2.48,1.98-2.48,1.15,0,8.75.5,16.35.5s15.02-.5,16.18-.5c1.65,0,1.98,1.49,1.98,2.48,0,.83-.33,1.32-1.32,1.32-3.96,0-6.61.33-8.75,1.49-1.82,1.16-2.31,3.14-2.31,5.45l.16,87.02c0,6.6,5.45,6.77,10.9,6.77.99,0,1.32.5,1.32,1.49,0,.83-.33,2.48-1.98,2.48-1.16,0-8.75-.5-16.18-.5s-15.19.5-16.35.5c-1.49,0-1.98-1.65-1.98-2.48,0-.99.33-1.49,1.32-1.49,5.28,0,11.06,0,11.06-6.77v-33.85c0-3.63,0-6.93-4.46-6.93h-28.4c-3.14,0-4.29.83-4.29,5.94v34.84c0,6.6,5.45,6.77,10.9,6.77.99,0,1.32.5,1.32,1.49,0,.83-.33,2.48-1.98,2.48-1.16,0-8.75-.5-16.18-.5s-15.19.5-16.35.5c-1.65,0-1.98-1.65-1.98-2.48,0-.99.33-1.49,1.32-1.49,5.28,0,11.06,0,11.06-6.77l-.16-87.02Z"/>
    <path d="M311.78,221.22c0,30.88-17.5,55.64-39.3,55.64-20.15,0-37.81-21.14-37.81-54.65,0-30.88,17.5-55.81,39.13-55.81,20.31,0,37.98,21.14,37.98,54.82ZM298.24,219.73c-.66-24.44-9.25-49.37-25.43-49.37s-25.26,22.29-24.6,53.33c.66,24.44,8.75,49.21,25.43,49.21s25.26-22.29,24.6-53.17Z"/>
    <path d="M379.64,167.23c4.79,0,6.77.5,6.44,3.3-.33,1.82-.5,5.94-.83,11.56-.33,6.27,0,10.73-.16,11.89,0,.99-.99,1.49-1.65,1.49-1.16,0-1.98-.99-1.98-1.82-.83-10.9-1.65-16.02-4.95-19.15-2.48-2.48-6.44-3.47-11.56-3.47s-9.25,1.32-9.25,8.59l.16,83.72c0,4.29.33,6.27,2.48,6.93,1.82.66,6.11,1.49,9.91,1.49.99,0,1.49.5,1.49,1.49,0,.83-.5,2.48-1.98,2.48-1.32,0-13.87-.5-18-.5-7.6,0-13.38.5-14.7.5-1.48,0-1.98-1.65-1.98-2.48,0-.99.5-1.49,1.49-1.49,3.8,0,5.45-.17,7.1-1.49,1.65-1.16,2.15-3.14,2.15-5.28l-.16-85.37c0-6.61-4.13-8.59-9.08-8.59s-8.75.99-11.39,3.47c-3.3,3.14-4.29,8.26-4.95,19.15-.16.83-.99,1.82-1.98,1.82-.66,0-1.82-.5-1.82-1.49-.16-1.16.16-5.61-.16-11.89-.16-5.61-.5-9.74-.66-11.56-.5-2.81,1.49-3.3,6.27-3.3,5.12,0,22.46.5,29.89.5s24.93-.5,29.89-.5Z"/>
    <path d="M464.17,221.22c0,30.88-17.5,55.64-39.3,55.64-20.15,0-37.81-21.14-37.81-54.65,0-30.88,17.5-55.81,39.13-55.81,20.31,0,37.98,21.14,37.98,54.82ZM450.63,219.73c-.66-24.44-9.25-49.37-25.43-49.37s-25.26,22.29-24.6,53.33c.66,24.44,8.75,49.21,25.43,49.21s25.26-22.29,24.6-53.17Z"/>
    <path d="M563.24,256.39c9.25,9.74,14.53,10.9,19.32,10.9s7.76-3.63,9.25-8.26c.99-3.47,5.78-2.97,4.62,1.16-1.16,4.13-4.46,14.2-19.82,14.2-6.77,0-13.87-3.14-21.14-9.08-7.76,7.1-17.5,11.06-30.22,11.06-18.66,0-31.37-14.04-31.37-29.89,0-14.7,10.9-26.42,24.44-32.53-3.47-6.77-5.78-13.71-5.78-22.46,0-13.87,9.91-23.78,25.1-23.78,12.22,0,22.29,7.93,22.29,19.65s-13.04,21.3-27.08,25.59c-.16,0-.49.16-.66.16,1.82,2.97,3.96,6.11,6.28,9.74,8.75,13.71,15.69,23.28,21.3,29.89,3.96-5.45,7.26-12.55,9.74-21.14,1.65-5.78,1.65-9.91-1.32-11.89-1.98-1.32-5.94-1.65-9.41-1.65-.99,0-1.32-.5-1.32-1.32,0-.99.49-2.64,1.98-2.64,1.16,0,9.25.5,16.84.5s12.88-.5,14.2-.5c1.49,0,1.98,1.65,1.98,2.64,0,.83-.49,1.32-1.49,1.32-2.97,0-5.61.5-7.76,1.65-4.46,2.48-6.11,6.61-8.09,12.22-3.3,9.41-7.1,17.67-11.89,24.44ZM531.2,267.62c7.6,0,14.2-2.15,19.98-6.27-12.71-12.55-21.96-28.07-30.88-43.43-9.74,5.94-15.69,14.53-15.69,25.26,0,14.86,11.06,24.44,26.58,24.44ZM550.69,187.21c0-9.25-4.95-15.52-13.54-15.52s-15.69,5.61-15.69,14.53,3.3,15.19,8.75,23.94c11.89-4.46,20.47-12.71,20.47-22.95Z"/>
    <path d="M668.41,222.54h-15.03c-2.64,0-3.8.66-4.13,3.8v36.99c0,4.29.33,6.27,2.48,6.93,1.65.66,6.11,1.49,9.91,1.49.99,0,1.49.5,1.49,1.49,0,.83-.5,2.48-1.98,2.48-1.32,0-13.87-.5-18-.5-7.6,0-13.54.5-14.69.5-1.49,0-1.98-1.65-1.98-2.48,0-.99.33-1.49,1.49-1.49,3.8,0,5.28-.17,7.1-1.49,1.65-1.16,2.15-3.14,2.15-5.28l-.16-87.02c0-2.64-.49-4.29-2.31-5.45-1.98-1.16-3.8-1.49-6.77-1.49-1.16,0-1.49-.5-1.49-1.32,0-.99.5-2.48,1.98-2.48,1.15,0,9.25.5,14.69.5,7.43,0,33.02-.5,38.14-.5,4.79,0,6.77.5,6.27,3.3-.16,1.82-.5,5.94-.66,11.56-.33,6.27-.33,9.25-.33,10.4,0,.66-.99,1.16-1.65,1.16-.83,0-1.65-.83-1.65-1.65-.66-9.58-1.98-14.37-5.29-17.5-2.97-2.97-8.09-3.47-14.03-3.47-11.56,0-12.71.33-13.54.99-1.32.99-1.32,2.15-1.32,5.94v35.83c.33,2.81,1.49,3.47,4.46,3.47h14.7c1.98,0,3.96-.5,5.12-2.48,1.32-1.82,1.82-4.46,2.48-8.26.16-.99.66-1.32,1.65-1.32.83.16,2.31.99,2.15,2.48-.16,1.16-1.15,4.62-1.15,12.22s.66,12.05.83,13.38c.16,1.49-1.32,2.15-2.15,2.31-.99.16-1.48-.16-1.65-1.16-.66-3.8-.66-7.1-1.82-9.25-1.16-1.98-3.14-2.64-5.28-2.64Z"/>
    <path d="M703.24,177.96c0-6.77-5.12-6.93-10.73-6.93-.99,0-1.49-.5-1.49-1.32,0-.99.5-2.48,1.98-2.48,1.32,0,8.92.5,16.35.5s15.19-.5,16.35-.5c1.49,0,1.98,1.49,1.98,2.48,0,.83-.33,1.32-1.49,1.32-5.45,0-10.9.16-10.9,6.93l.17,87.02c0,6.6,5.28,6.77,10.73,6.77,1.15,0,1.49.5,1.49,1.49,0,.83-.5,2.48-1.98,2.48-1.15,0-8.75-.5-16.35-.5s-15.03.5-16.35.5c-1.49,0-1.98-1.65-1.98-2.48,0-.99.5-1.49,1.49-1.49,3.8,0,6.61-.33,8.59-1.49,1.98-.99,2.31-3.14,2.31-5.28l-.17-87.02Z"/>
    <path d="M765.65,167.23c1.49,0,1.98,1.49,1.98,2.48,0,.83-.5,1.32-1.49,1.32-3.8,0-6.61.33-8.75,1.49-1.82,1.16-2.15,3.14-2.15,5.45v85.37c0,4.29.99,5.94,2.81,6.93,2.15,1.16,5.94,1.49,11.39,1.49,5.94,0,10.24-.5,13.38-3.47,3.63-3.3,5.28-7.93,8.42-20.31.17-.83,1.16-1.49,1.98-1.49.66,0,1.32.66,1.32,1.49,0,1.65-.66,5.28-1.32,12.55-.66,5.61-.83,10.07-.83,11.89,0,2.81-.83,3.3-5.61,3.3-5.12,0-30.05-.5-37.48-.5s-15.19.5-16.35.5c-1.49,0-1.98-1.65-1.98-2.48,0-.99.33-1.49,1.32-1.49,5.29,0,11.06,0,11.06-6.77l-.16-87.02c0-6.77-5.28-6.93-10.9-6.93-.99,0-1.32-.5-1.32-1.32,0-.99.49-2.48,1.98-2.48,1.16,0,9.74.5,16.35.5,7.43,0,15.03-.5,16.35-.5Z"/>
    <path d="M860.26,273.4c-.49,1.65-1.16,2.15-2.15,2.15-1.15,0-1.82-.17-2.31-2.31l-26.58-92.47c-1.65-5.28-2.97-2.97-3.3.99l-8.09,79.92c-.5,4.46.49,6.77,4.29,8.59,1.98,1.16,4.46,1.49,8.25,1.49,1.16,0,1.49.5,1.49,1.49,0,.83-.49,2.48-1.98,2.48-1.32,0-8.26-.5-15.85-.5s-14.53.5-15.85.5c-1.49,0-1.98-1.65-1.98-2.48,0-.99.5-1.49,1.49-1.49,3.8,0,6.44-.33,8.42-1.49,3.8-1.82,5.94-5.12,6.27-9.08l8.09-80.08c.5-4.46-.33-6.77-4.13-8.59-1.98-.99-4.46-1.49-8.26-1.49-.99,0-1.49-.5-1.49-1.32,0-.99.5-2.48,1.98-2.48,1.32,0,8.25.5,15.85.5,4.13,0,7.43-.5,10.07-.5s3.63,1.32,4.95,5.94l19.98,69.52c2.15,7.43,2.97,7.43,5.28.5l19.32-66.54c1.98-7.1,2.81-9.41,5.28-9.41s6.11.5,10.57.5c7.6,0,11.72-.5,13.05-.5,1.49,0,1.98,1.49,1.98,2.48,0,.83-.49,1.32-1.49,1.32-3.8,0-6.6.33-8.59,1.49-1.98,1.16-2.15,2.81-1.98,4.95l9.25,86.52c.16,2.64.83,5.28,2.81,6.27,1.98,1.16,4.62,1.49,8.42,1.49.99,0,1.49.5,1.49,1.49,0,.83-.5,2.48-1.98,2.48-1.32,0-8.75-.5-16.35-.5s-15.02.5-16.35.5c-1.49,0-1.98-1.65-1.98-2.48,0-.99.33-1.49,1.49-1.49,3.8,0,6.61-.33,8.59-1.49,1.82-.99,2.15-2.81,1.82-4.95l-8.75-84.05c-.5-4.95-1.65-4.46-3.14,0l-27.91,92.14Z"/>
  </g>
  <g>
    <path d="M155.39,142.55c-.73-.44-1.6-.44-1.75-.29-2.04,1.02-11.36-.44-13.54-1.89-.44-.29-1.31-.44-1.6-.44-.44,0-.58-.29-.58-.44,0-.29-.44-.44-.73-.44-.87,0-5.82-5.24-6.99-7.28-3.35-6.26-2.33-15.29,2.47-19.8,2.77-3.06,7.14-3.93,9.61-2.47,1.75,1.31,4.08,3.93,3.93,4.22-.87.87-1.75.44-2.62-.73-1.31-1.46-3.49-2.77-5.68-2.33-2.04.44-4.8,2.62-6.84,5.82-1.45,3.35-2.18,8.59-.14,12.96,3.06,6.26,7.13,9.17,12.38,10.48,3.49,1.02,10.48,1.02,14.85,0,2.91-.87,8.74-3.35,9.46-3.93,0-.29.58-.73,1.31-.87.87-.44,1.75-1.16,1.75-1.31.44-.44,4.51-3.93,4.81-3.93.14,0,2.18-1.75,5.82-5.24,1.16-1.31,2.04-2.04,2.47-2.04s.58-.44.58-.58c0-.29.44-.87,1.16-1.6,1.45-1.02,13.1-13.69,18.05-19.8,1.6-1.75,3.35-4.37,4.22-5.53,1.02-1.31,1.89-2.62,2.33-3.06.29-.15.73-.58.73-.87,0-.15,3.93-6.7,4.51-7.13l.87-1.75c.44-.73.87-1.31,1.16-1.31,0,0,.14-.87.14-1.31,0-.29-.87-.87-2.77-1.16-14.41-2.33-25.77,1.31-30.43,9.17-1.31,1.6-1.02,4.37-.58,4.37s.58.29.58.44c0,.29-.58.29-1.02.29-.87,0-1.16-.73-1.16-2.91.44-3.2,4.8-8.3,9.61-10.19,6.84-3.35,13.1-3.93,23.59-2.18,3.49.58,3.79.58,4.22,0,.15-.44.44-.87.44-1.16,0-.14.14-.87.44-.87,0,0,.58-.87,1.02-1.89l3.06-5.24c.44-.44,1.31-1.75,2.04-2.62.44-1.31,1.31-2.62,2.33-3.49.73-1.16,1.17-2.04,1.17-2.18,0-.29.14-.29.43-.29.15,0,.44-.15.44-.44,0-.44,3.49-5.39,3.93-5.68.14,0,.44-.15.44-.44,0-.15,3.06-3.64,6.26-7.13,4.22-3.93,8.74-7.43,11.8-9.03.73-.44,2.18-1.02,3.49-1.46.87-.44,2.48-.87,2.91-1.31,2.33-.44,6.55,0,8.45,1.02,1.75.87,3.06,2.91,2.62,3.93-.43,1.75-2.18,1.75-1.75.29.29-.73,0-1.16-.87-2.18-.58-.44-1.31-.87-1.75-.73-.14,0-1.31.29-2.18.29-2.18.15-5.68,1.89-8.74,3.64-3.06,2.18-8.3,8.3-10.92,12.09-.58,1.31-1.02,1.75-2.18,2.77-.15.44-.44.73-.44.87,0,.29-.58,1.16-1.46,2.62l-3.49,5.24-2.62,3.93-.87,1.6c0,.15-.73,1.46-1.75,2.33-2.62,4.66-4.8,8.15-4.8,8.3,0,.29,3.2,1.16,7.86,2.18,5.24,1.6,9.76,1.6,12.67,0,2.33-1.02,4.95-3.64,4.95-4.51,0-.73,1.31-1.16,1.75-.73.44.44-1.02,2.18-2.62,3.79-.58.87-2.62,2.18-3.93,2.77-4.51,1.6-9.32,1.31-19.37-1.46-3.06-.87-2.62-.29-4.66,2.62-.44.87-1.02,1.75-1.02,1.75-.29,0-.44.14-.44.44,0,.58-5.68,8.74-7.72,10.92-.15.15-.44.58-.44.87,0,.15-.14.44-.44.44-.14,0-.87,1.31-1.75,2.33-.87,1.31-1.89,2.91-2.33,3.35-.73.87-2.91,3.49-3.93,4.95-.29.29-1.16,1.31-1.75,1.75-.44.73-1.16,1.31-1.16,1.31,0,1.6-14.85,16.02-16.16,16.02-.15,0-.58.44-1.31.87-.44.58-1.02,1.02-1.46,1.02-.29,0-.87.73-1.75,1.31-2.47,1.6-7.43,4.81-8.15,4.81-.58,0-.87,0-.87.29,0,.15-.87.87-1.89,1.31l-4.22,1.75c-1.89.87-6.12,1.89-9.61,2.33-.44.29-1.46,0-1.89-.14ZM177.81,68.43c-.15-.15-.58-.44-1.02-.44-3.06-.44-8.3-5.24-9.9-9.76-1.02-2.48-1.31-3.49-1.31-7.28,0-2.18,0-4.81.29-5.24,2.33-8.01,5.24-12.67,10.48-17.62,2.62-2.62,3.2-3.35,6.7-5.97,3.79-2.77,12.09-6.7,16.89-8.01,5.68-1.6,6.7-2.04,7.57-2.04.43-.15,2.62-.44,4.37-.58,1.75-.29,3.79-.44,4.37-.44,2.62-.29,13.1,0,15.14.44l6.55,1.02c2.18.44,4.95.73,6.12,1.31,1.02.29,2.33.73,2.76.73,1.31.15,7.86,1.89,8.74,2.33l3.35,1.31c1.46.44,3.49,1.16,4.08,1.6,1.16.44,2.47,1.02,3.06,1.31,2.04.58,5.68,2.18,6.99,3.06.87.44,1.6.58,1.75.58,0,0,1.31.44,2.91,1.16,2.62,1.02,3.64,1.75,8.88,3.49,8.59,3.06,11.65,3.64,19.07,4.08,2.18.29,9.17-.58,12.23-1.46,2.62-.87,8.01-3.49,8.88-4.37.44-.73,1.17-1.16,1.75-1.6,1.16-.58,3.06-3.2,4.37-5.24.73-1.46,1.75-6.7,1.75-8.45,0-1.31,0-1.75.73-.44,1.02,1.46-.43,9.17-2.04,10.63-.15.44-.44.87-.44,1.16,0,.58-3.64,4.37-5.68,5.68-2.33,1.75-6.55,3.49-10.63,4.51-3.35,1.16-5.1,1.31-9.61,1.31-3.06,0-6.41-.15-7.28-.44-7.86-1.75-10.92-2.77-13.69-4.37-.87-.14-1.75-.44-2.48-.58-2.18-.73-3.49-.73-6.11-2.18-.44-.44-1.31-.44-1.75-.87-.58-.44-2.18-.44-2.77-.87-1.6-.44-4.37-1.75-8.59-3.79-1.02-.44-1.89-.58-2.18-.58-.14,0-1.02-.44-1.89-1.16-1.16-.14-3.06-1.02-4.66-1.46-1.45-.44-3.64-1.16-4.8-1.6-1.75-.87-5.82-1.75-11.8-3.06-4.51-1.02-13.98-1.89-19.8-1.89-6.99.44-9.03.87-13.1,1.89-3.35.73-10.92,2.62-11.36,3.35-.29.15-1.31.44-2.04.58l-1.02.44c0,.29-1.6.73-3.06,1.6l-3.06,1.75c-.29.15-1.31,1.02-2.91,2.18-4.08,2.77-10.05,9.17-10.63,11.36-.29.44-.44.87-.87,1.02-.44.44-.73.73-.73,1.16s-.44.87-.87,1.46c-.44.44-.87,1.16-.87,1.6l-.44,1.75c-2.18,4.08-1.89,12.38.44,15.87.44.73.73,1.31.73,1.6,0,.87,3.2,4.37,5.82,5.82,2.91,1.6,4.37,1.75,7.28,1.75,4.08-.15,6.55-.58,10.48-2.62,8.45-4.37,14.41-9.61,20.24-20.97,1.16-2.33,1.31-6.26,1.31-8.88.29-1.75.29-3.35.73-3.35.44-.58,1.75.44,2.18,1.6,1.31,2.77.14,8.45-1.6,11.5-.58.87-.58,1.16-2.62,4.22-.58.87-1.31,1.75-1.46,1.75-.44,0-.44.15-.44.58,0,1.75-11.36,12.67-13.4,12.67l-.87.44c-1.75,1.31-8.01,3.49-11.07,3.93-2.91.73-7.28.73-8.15,0Z"/>
    <path d="M239.41,142.69l-1.75-1.02c-1.16-.44-3.35-3.06-4.37-4.66-1.16-2.18-.87-8.3.15-12.23,1.16-2.33,4.37-10.19,5.1-10.63.44-.44,2.62-3.35,2.77-3.79,0-.15.44-1.31,1.31-2.18.87-.87,2.62-2.77,3.93-4.51,1.17-1.75,2.18-2.91,2.18-2.91.29-.14.73-.87,1.6-1.46,6.41-6.12,10.49-8.3,17.91-10.77,3.35-.58,5.97-.58,7.43.73,1.16,1.02,1.75,2.33,1.16,4.95-.43,2.04-2.62,5.97-5.09,8.74-2.33,2.18-4.51,4.22-7.43,5.24-1.89,1.6-3.93,2.48-6.12,3.35-2.62,1.31-5.39,2.77-7.86,3.64-2.18.44-3.79.29-5.1,2.62-.44.73-.87,1.75-1.02,2.18-.29.44-.29.73-.43.87-2.91,3.79-7.28,13.83-5.1,17.33,1.17,2.18,3.35,3.06,7.28,2.77,1.89-.15,3.49-.44,4.81-1.02l2.47-1.16c1.75-.87,6.7-4.51,9.17-6.26,6.99-5.53,16.6-15.73,18.78-18.35.58-.73,2.33-3.06,3.49-4.37l7.43-9.03c.44-.44,1.02.73.44,1.6-3.06,3.93-12.67,16.16-19.07,22.71-.87,1.02-11.5,10.19-12.23,11.07-1.02.87-3.49,2.48-5.24,3.35-1.46.87-3.2,1.75-3.64,1.75-.29.15-.87.58-1.75.87-.87,0-1.6.44-1.89.58-.87.73-8.74.73-9.32,0ZM257.76,109.06c2.18-.87,4.22-1.89,4.37-1.89,0-.29,1.75-1.31,2.91-2.04,6.99-4.81,9.17-8.74,10.05-12.38.44-1.6.14-1.75-.44-2.18-1.16-.73-4.66-.29-6.55.58-1.75,1.16-4.66,2.91-8.74,6.55-1.6,1.31-3.35,3.93-5.53,6.99,0,.29-1.31,2.18-2.77,3.93-1.6,2.04-2.77,3.93-2.47,3.93.14.44,4.8-.87,9.17-3.49Z"/>
    <path d="M299.98,139.93c-.87-1.75-.14-4.22.29-6.12.15-.29.58-2.04-.29-1.31-1.31.87-2.33,2.33-3.64,3.64-3.06,2.91-5.53,5.1-9.46,6.12-4.66,1.46-10.78,1.46-12.23-3.49-.87-3.06-1.75-7.57-.44-10.48l2.18-5.24,2.77-5.68c1.6-2.62,3.35-5.24,5.24-7.57l2.62-3.49c1.6-2.04,3.35-3.49,4.95-5.53,3.49-3.64,7.43-7.86,11.79-10.48,2.77-1.31,6.7-2.33,9.76-2.77,3.93-.44,7.42,1.46,7.72,5.68l.15,3.64c0,.73.29,1.16.29,1.16,1.31.15,3.93-6.12,5.68-7.28,1.31-1.02,3.49-.87,4.95-.15,1.31.58,1.6,1.46.87,2.77-1.46,2.62-3.93,4.66-5.68,6.99-1.75,2.48-3.2,5.1-4.95,7.28-2.04,2.77-3.49,5.82-5.68,8.44-2.18,3.79-4.8,6.84-6.99,10.48-2.04,2.91-3.79,5.97-4.8,9.61-1.75,7.72,4.95,3.93,8.01,1.16,3.49-2.62,6.84-5.53,9.46-9.03,1.02-1.31,2.18-2.62,3.5-3.93,3.49-4.37,7.13-8.88,10.63-13.54,2.18-2.62,3.06-3.49,5.1-6.12.58-.87,1.02-1.75,1.89-2.33.44-.29.87-.44.87,0,0,.87-.44,2.18-1.02,2.77l-9.03,11.36c-3.64,4.8-8.01,10.34-12.38,15.14-2.62,2.77-5.53,6.26-8.74,8.44-2.48,1.6-5.24,3.64-8.3,3.35-2.04-.14-4.22-1.6-5.1-3.49ZM291.68,137.89c3.35-2.77,5.53-4.81,7.86-7.57,3.49-4.37,3.35-3.93,5.24-6.99l6.55-10.34c1.75-2.33,3.49-5.24,3.79-5.24l.14-.44,1.31-2.18,1.75-2.77c.87-1.6.73-3.79.44-5.53,0-1.75-.44-3.64-1.89-4.8-.87-.87-1.6-.87-2.62-.44-1.31.29-3.35,1.75-3.93,2.18l-.87.73c-.44,0-14.85,13.98-16.02,15.43l-1.46,2.04c-3.79,4.51-5.97,7.57-8.45,11.5l-1.46,2.47-.73,1.75-1.45,3.93c-.44,1.02-.73,1.89-.73,3.2-.15,1.31-.15,4.22.87,5.1,1.31,1.46,2.62,1.02,4.66.87,2.33-.29,5.24-1.31,6.99-2.91Z"/>
    <path d="M331.43,142.26c-1.31-.14-3.79-2.77-4.22-4.51-1.02-3.79.44-12.09,2.48-14.41.14-.44,1.02-1.6,1.45-2.91.73-1.02,1.31-2.33,1.75-2.62.29-.44.73-1.02.87-1.89.44-.73.73-1.16.87-1.16.29,0,.29-.14.29-.44,0-.44.87-1.31,1.75-2.33,2.18-2.91,1.89-2.47,4.8-6.55,5.68-8.3,6.55-9.61,6.55-10.05,0-.29.73-1.31,1.6-2.18,2.18-2.91,4.51-6.41,7.57-11.21l2.04-3.06c.87-1.31,1.45-2.33,1.31-2.62,0,0-3.35-.14-6.84-.14-4.8,0-6.55,0-6.7-.44-.29-.29-.29-.73.14-.73.29-.15,3.5-.44,7.43-.44s7.28,0,7.42-.15c.29,0,1.31-1.75,2.62-3.49,2.47-3.93,2.47-3.79,5.24-7.28,1.16-1.31,2.18-2.62,2.18-2.77,0-.29.29-.44.44-.73.29,0,.73,0,.73.29h3.49c4.81,0,4.95-.29,2.77,2.18-.58.58-1.89,2.18-2.77,3.49l-2.62,4.08c-1.6,2.48-2.62,3.79-2.91,4.22,0,0,4.37.15,9.61.15,9.61,0,11.36.29,10.05,1.31-.58.44-2.62.44-9.61.44-12.23-.14-11.36-.14-13.25,2.91-.87,1.31-2.04,2.33-2.18,2.62-.29,0-.44.58-.73,1.02-.14.44-1.45,2.18-2.62,4.22l-4.37,6.12c-1.02,1.46-2.18,2.77-2.33,3.06,0,0-.29.15-.29.44,0,.44-3.2,4.95-3.49,4.95-.15,0-.44.29-.44.73-.44.58-.44.87-3.64,5.39-1.16,1.6-2.91,4.22-3.79,5.68-1.16,1.31-2.18,2.91-2.47,3.35-.58.87-1.31,1.89-4.37,7.13-1.02,2.04-1.89,3.79-1.89,3.93,0,0-.29,1.16-.73,2.04-1.02,1.89-.87,6.26,0,8.3,1.75,3.06,6.99,2.77,11.65-.44,2.91-1.75,8.15-6.41,9.46-7.86.44-.44,2.62-2.91,4.81-5.1,2.18-2.33,5.68-6.12,7.86-8.3,2.77-3.2,5.24-5.68,8.01-8.88,1.6-2.04,2.47-2.91,3.93-4.66l3.49-3.93c1.16-1.31,1.6-1.75,2.04-1.02.58.44,0,.15-.73,1.31-.44.87-1.31,2.18-1.89,2.77-.44.73-2.91,3.35-5.24,6.41-10.48,12.67-27.81,29.41-28.39,29.41-.29,0-.87.44-1.31.87-1.31,1.31-5.53,3.35-7.28,3.49-.87,0-1.75.29-1.75.44-.73.29-6.12.29-6.84,0-.14-.14-.87-.44-1.02-.44Z"/>
    <path d="M393.61,89.4c4.08,0,4.8.29,3.49,2.04-.43.58-.73,1.02-.73,1.31l-1.31,1.31c-2.33,2.77-3.64,4.37-6.12,7.57-1.75,2.04-2.77,3.79-2.77,3.93l-1.31,2.18c-2.18,2.62-4.51,6.41-6.7,10.05-1.02,2.18-2.33,4.66-3.06,5.68-.87,1.16-1.46,2.18-1.46,2.47,0,0-.29.44-.44.87-.73.44-2.04,3.2-3.78,6.12-.87,1.75-1.02,4.37-.58,5.68.14,1.02,2.77,2.62,4.08,2.33,2.48-.58,6.41-3.06,10.19-7.13,5.68-5.97,8.01-8.59,10.49-11.36,1.46-1.75,3.06-3.49,3.2-3.79.29-.15,3.06-4.81,3.79-5.82.14-.44.58-.87.58-1.16.29,0,1.16-1.75,2.04-3.2,1.31-1.75,2.18-3.06,2.18-3.35.44-.44,2.62-3.64,3.93-4.95.58-.87,1.31-2.04,1.31-2.18.14,0,.58-.87,1.02-1.75,1.31-2.48,2.91-4.22,4.8-5.68,0,0,.29-.44.73-.44h.15c.87,0,1.6-.29,2.18-.29.73,0,1.31,0,2.04-.14.14-.29.58-.29.87.14.44.73,0,1.16-2.47,3.93-5.39,6.84-8.74,11.36-12.23,17.04-.44,1.16-3.2,5.24-3.64,5.53,0,.15-.43.87-.87,1.75-.44.87-1.6,3.06-2.18,4.37-1.16,1.02-2.04,2.77-2.04,3.64-.44.73-.58,1.31-.87,1.31-.44.44-2.33,3.93-3.2,6.84-.44,1.02-1.16,2.18-1.16,3.49s0,1.89,1.6,2.18c.14,0,.44.15.87.15h1.02c1.16,0,2.04-.58,2.62-1.02,1.31-.73,2.62-1.6,3.49-2.62,3.06-2.47,5.24-5.24,7.43-7.86l.44-.73c.73-.87,1.75-1.89,2.18-2.18.44-.44,2.04-2.77,4.22-5.39,1.89-2.62,3.93-5.1,4.08-5.1.73-.44,6.41-8.88,9.17-12.23,1.16-1.31,2.04-2.18,2.18-2.18.87,0,.73,1.31-.44,2.48-.14.87-1.46,2.18-4.95,6.7-1.31,1.75-2.91,3.93-4.66,5.97-.58.87-2.62,3.2-4.08,5.68-1.75,1.89-3.93,4.51-4.37,5.39-2.62,3.06-7.72,8.3-9.03,9.9-4.51,3.49-7.13,5.39-8.45,5.39-.43,0-.73.29-.87.29,0,.14-1.16.44-2.04.44-1.31,0-1.75-.29-2.77-1.31-1.16-1.16-1.75-2.91-1.75-4.37-.29-3.49.87-6.12,2.33-9.17.43-1.31,1.16-2.48,1.16-2.62,0,0-.73.44-1.31,1.31-4.8,4.81-11.65,11.94-11.94,11.94,0,0-1.31.44-2.18,1.16-1.89,1.75-4.37,2.62-6.12,2.62-2.33,0-6.26-2.48-6.26-3.49,0-.29-.29-.73-.44-.87-.73-.73-.44-5.53.44-7.72.14-1.02,1.31-3.06,1.45-4.37.44-1.02.87-2.33,1.17-2.33l.87-1.6c.44-.87,1.02-2.62,1.89-3.49.73-1.02,1.31-2.62,1.75-3.49.87-1.75,3.93-6.55,4.22-6.7.14-.29.58-.44.87-1.16.44-.58.87-1.46,1.46-2.18.29-.44,1.16-1.75,1.75-3.06,1.46-2.18,2.33-3.49,5.53-8.01,1.6-1.31,2.91-2.91,3.06-3.35.73-1.02.87-1.31,4.22-1.31Z"/>
    <path d="M433.36,140.8c-1.02-1.16-2.18-3.35-2.18-5.53,0-1.46,1.16-5.39,1.75-6.99.44-.44,1.31-2.33,2.18-4.08.87-1.75,2.04-4.22,2.91-5.1l1.46-2.77,4.22-5.97c1.89-2.62,3.93-4.81,4.08-5.39,1.6-2.18,5.53-7.72,6.84-9.17,4.81-5.1,6.26-10.77,3.2-10.77-.44,0-2.62-.44-4.51-1.02-2.18-.87-4.22-1.6-4.37-1.6-.29,0-1.16,1.6-2.62,3.06-1.16,1.75-2.18,3.06-2.62,3.35l-1.16,1.75c-.15.44-1.31,1.75-2.33,3.06l-2.04,2.62-1.46,1.75c-.73.87-2.47,2.77-3.49,4.81-2.33,3.06-3.2,3.93-3.2,2.62,0-1.16,4.08-7.28,6.26-9.61.87-.87,2.76-3.35,4.08-5.24,1.75-2.04,2.91-3.93,3.06-4.22l2.04-2.33c.58-1.31,1.75-2.18,1.89-2.18.29-.29-.58-1.31-.14-2.04-.44-.14,0-1.31,1.02-3.49,1.31-2.77,3.06-4.51,6.41-7.43,1.31-1.31,2.77-1.46,3.06-.14.44,1.02-1.31,4.51-3.93,7.57-.29.29-1.31,1.6-2.04,2.62l-1.45,2.18,3.2,1.16,3.79.87c1.45,0,4.08,1.75,4.95,2.77.73,1.6.44,5.68-.58,8.3-.29.87-2.04,4.22-2.47,5.53-.87.87-3.93,4.95-4.37,5.68-.87.87-6.99,9.32-8.01,10.92,0,.44-.44,1.02-.44,1.02-.29,0-.44.29-.44.44,0,.29-.73,1.6-1.6,3.06-4.08,5.97-7.43,12.67-7.86,15.58-.14,1.46-.14,1.75,1.16,3.06,1.31,1.31,1.45,1.31,3.06,1.02,4.37-.44,5.83-1.46,12.23-7.43,1.46-1.46,2.62-2.33,2.77-2.33l.29-.29c0-.15,1.02-1.46,2.18-2.62l4.08-4.37c1.16-1.46,2.62-3.06,3.35-3.93.58-.44,2.18-2.18,3.64-3.93l2.62-3.06c.29-.15,1.31-1.46,2.91-3.06,1.31-1.75,2.77-3.49,3.5-3.93.43-.87,1.31-1.89,1.89-2.62,1.31-1.46,2.18-1.46,1.75,0,0,.44-1.89,2.91-3.93,5.1-2.18,2.33-4.51,5.24-5.24,6.12l-2.33,2.62-8.59,9.17c-2.33,3.2-10.05,10.92-12.67,12.81-3.2,2.18-3.06,2.18-6.12,3.49q-2.62,1.02-5.39.29c-1.75-.44-3.35-1.31-4.22-1.75Z"/>
    <path d="M495.53,90.71c0,.44,0,.73-1.16,2.04-.87,1.31-2.18,3.06-2.62,3.64-.44.87-.87,1.6-1.02,1.6,0,.15-.44.44-.44.58,0,.29-.44,1.16-.87,1.75-.87.87-4.37,5.53-4.81,6.55-.29.73-5.97,9.46-7.13,10.48-.14.44-.87,1.31-.87,1.75l-4.51,6.12c-.29.44-.44.73-.44.87,0,.29-.73.87-1.31,2.18-3.49,5.53-5.24,9.9-4.66,12.09.44.87.73,1.02,2.18,1.02,1.6.29,2.04.29,3.06-.44,2.04-.87,2.62-1.46,3.49-1.89.29-.29.44-.44.73-.44.14,0,.87-.73,1.89-1.75,1.6-1.31,8.45-7.43,15.43-14.85,1.02-1.16,2.18-2.62,2.33-2.91.29-.15.87-1.31,2.47-2.77,2.33-2.48,3.64-4.81,6.26-7.43,2.18-2.62,4.81-6.55,5.68-7.72,1.16-1.31,2.47-.87,1.75,0-.44.73-1.31,2.48-7.86,10.34-1.75,2.18-4.37,5.24-5.24,6.55-1.31,1.31-3.06,3.2-3.93,4.37-2.76,3.06-14.27,14.85-18.64,17.47-4.51,2.77-4.95,3.35-7.42,3.35-2.77-.29-5.24-2.04-6.55-4.51-.58-1.75-.58-4.95.29-7.43,1.89-4.37,2.18-4.81,2.33-4.81.44,0,.44-.15.44-.44,0-.15.29-.44.29-.44.15,0,.58-.87,1.02-1.75.44-.58,1.16-1.89,1.6-2.33s1.46-2.18,2.62-3.93c.87-1.6,2.18-3.49,2.62-4.37.43-.44.87-1.16,1.02-1.6,2.18-3.93,3.49-5.82,6.7-10.48,1.89-2.77,4.08-5.82,4.81-7.13,1.75-2.48,3.49-3.93,4.51-4.37,2.04-.44,5.97,0,5.97,1.02ZM506.02,68.43c2.18,2.04,1.02,5.53-1.75,8.15-1.75,1.46-2.04,1.75-3.49,1.46-2.91-.15-3.79-2.18-2.47-4.95.73-2.18,2.04-3.79,3.93-4.66,2.04-.87,2.62-.87,3.79,0Z"/>
    <path d="M551.74,87.65c2.77.44,4.95,1.75,6.99,4.37,1.31,1.6,1.31,2.04,1.31,5.24,0,2.18-.29,3.79-.87,5.1-.73,2.18-2.48,5.68-3.35,7.13-.14.44-1.31,2.04-1.89,3.06-.73,1.31-2.62,3.49-3.93,5.24-5.24,6.41-7.28,9.03-7.28,9.17,0,.29-.14.44-.44.44-.14,0-.14.29-.14.44,0,.29-.29.73-.73.73-.44.44-.58.87-.87,1.31-.15.44-.87,1.75-1.31,2.62-.58,1.02-1.31,2.33-1.46,3.49-1.17,4.81,2.77,5.39,6.12,3.93.14,0,.87-.73,1.45-1.16,2.04-1.46,5.97-4.51,7.86-6.99l4.22-4.51c.58-1.16,1.75-2.18,2.33-3.06.44-.44.87-1.16.87-1.16,0-.15.29-.58.73-1.31.58-.44,1.89-2.18,3.2-3.93,2.62-3.49,2.48-3.2,4.22-5.39.58-.87,1.31-1.6,1.31-2.04,0,0,.58-.87,1.75-1.75.58-1.02,1.75-2.18,2.18-2.77.15-.29.58-1.16,1.02-1.6.29-.87.87-1.02,1.16-1.02.87.15.58,1.31-1.16,3.2-.58.87-2.62,3.79-4.51,5.97-1.6,2.33-3.35,4.51-3.49,4.81-.29.44-1.31,1.46-2.48,3.06-3.49,4.51-4.37,5.68-8.3,10.05-5.24,6.12-9.61,10.05-13.25,11.79-1.6,1.16-5.68,1.6-7.28.87-1.46-.73-3.06-2.18-3.64-3.49-.44-1.16-.29-4.37.44-5.24.58-1.6,1.31-3.49,1.46-4.66.29-.44.87-1.75,1.31-2.18.44-.58.73-1.46.73-1.75,0-.44,3.64-5.39,4.08-6.12.44-.44,3.79-4.08,5.24-6.7,1.16-1.31,2.04-2.62,2.04-2.62.15-.29.44-.44.58-.87,0-.29,1.31-2.04,2.91-3.93,3.06-5.1,4.51-8.15,4.8-11.21.14-3.06,0-3.49-2.47-4.51-2.33-.73-3.93-.44-6.12,1.02-1.89,1.16-11.94,11.65-14.56,14.71-1.31,1.46-3.06,3.64-3.93,4.51-3.93,4.66-5.1,6.12-6.55,8.15-.73,1.02-1.75,2.62-2.04,2.77-.44.44-.58.87-.58.87,0,.44-.29,1.16-.73,1.6-.43.44-1.75,2.33-3.06,4.37-1.02,1.89-2.62,3.64-2.76,3.93-.29.44-1.6,1.89-2.48,3.49-2.04,3.06-2.62,4.08-3.49,6.55-.29.44-.73.58-3.49.58-2.04,0-3.49-.14-3.78-.44-.44-.15,1.31-3.2,6.11-10.92.29-.15.73-1.31,1.6-2.33.44-.87,1.46-2.62,2.48-3.35.58-1.02,1.31-2.18,1.75-2.62.44-.87.58-1.02.87-1.02.15,0,.44-.29.44-.44,0-.29.58-1.16,1.75-2.48.58-1.02,1.31-2.33,1.31-2.62,0,0,.14-.44.87-.58l.87-2.04c.14-.87.58-1.46,1.31-1.46l1.31-2.47c.44-.87,1.31-2.33,1.75-3.06.44-.87,1.46-2.33,2.18-3.93.58-1.46,1.45-2.77,1.89-3.49,2.62-5.39,3.79-7.86,2.62-9.17-1.46-1.75-4.37-.44-8.3,2.48-3.06,2.18-5.68,5.39-8.3,8.44-1.89,2.18-3.5,4.22-4.66,5.24-.44.73-2.18.87-.87-1.02,3.78-5.1,5.53-6.99,8.59-10.34,2.91-3.06,6.55-5.24,9.03-6.26,3.64-1.75,6.55-.29,8.88,2.18,1.16,1.02,1.6,2.62.73,5.24-.29.58-.44,2.18-.73,2.62,0,.58-.58,2.33-1.46,3.93-.87,2.62-.87,3.06.14,1.02,1.16-1.02,13.83-13.98,14.42-13.98.29,0,.43-.15.87-.44.29-.44.87-.58,1.75-.87.44-.44,2.04-.58,2.91-.44Z"/>
    <path d="M526.55,197.59c-.87,0-3.06-1.46-3.64-2.33-.29-.44-.73-1.16-.87-1.16-.44-.44-.87-2.77-.87-4.81,0-1.02-.29-2.18-.29-2.33-.14-.29-.14-.44,0-.87.29-.29.44-.87.44-1.6,0-2.62,3.06-7.57,6.41-10.48,2.18-1.89,5.24-4.51,9.76-7.13,5.24-3.06,7.28-4.22,10.77-5.24,5.82-1.75,11.07-3.79,12.67-4.22.58-.14,1.31-.44,1.75-.44s.87-.15,1.31-.58c.44-.29,1.46-.73,2.33-.87,1.75-.44,2.04-.73,3.93-3.35,1.16-1.31,2.47-3.06,2.62-3.64.44-.73.87-1.31,1.17-1.31,0,0,.58-.73,1.02-1.6.44-1.02,1.89-3.49,3.2-5.1,1.02-1.75,2.18-3.64,2.33-4.08.44-.73.73-1.31.87-1.31.29,0,.29-.29.29-.44,0-.29.14-.73.58-.87.29-.29.73-1.16,1.16-1.6.14-.58.87-1.46,1.02-1.89.44-.73.44-.87.29-.87-.29,0-.44,0-.44.15,0,.44-4.22,4.81-8.01,8.15-2.77,2.62-8.01,5.24-10.92,5.53-2.77.44-4.37-.58-7.14-2.91-1.6-1.75-1.75-2.18-2.04-4.37-.14-1.6.73-6.55,1.31-7.28,0-.14.29-.44.29-.58,0-.87,3.64-7.28,4.95-9.61l1.31-2.48c0-.15.44-.58.87-1.02.73-.73,1.31-1.6,2.04-2.48.43-.58,1.02-1.46,1.45-1.89.73-.44.87-.87.87-1.16l.73-1.02,2.18-2.47c2.33-2.62,4.08-4.37,6.84-6.7,1.02-.87,2.18-2.04,2.33-2.04.44-.58,4.66-3.93,5.97-4.51.58-.29,1.75-.87,2.33-1.6,1.31-.87,5.24-2.33,7.72-3.06,3.2-.87,6.7-.15,8.74,1.75,1.46,1.6,1.75,4.22.87,6.99-.29,1.16-.43,1.75-.29,1.31.29-.15.87-1.02,1.16-1.46l1.31-2.04c.14-.44,1.31-1.75,2.18-3.2q1.75-2.04,3.49-2.04c.87,0,1.89,0,2.33-.15,3.49-.73,4.22,0,1.16,3.2-3.35,3.49-5.24,6.12-10.78,13.83l-4.51,6.55c-3.35,3.93-5.24,7.43-7.28,11.07-.14.44-.58.87-.58.87-.29,0-.73.29-.73.29,0,.14-.58,1.89-1.75,3.49l-3.93,5.68c-.87,1.75-1.89,3.2-2.18,3.49,0,.15-1.31,1.89-2.62,3.93-1.02,1.75-2.62,4.66-3.5,5.68-.58,1.16-1.31,2.18-1.31,2.48,0,.44.87.44,1.31,0,.29-.29,1.75-1.16,3.35-2.04,6.55-3.06,9.76-5.24,14.41-8.74,1.46-.87,2.77-1.75,3.06-1.75.14,0,.44-.44.87-.73.14-.44,1.75-1.75,3.06-2.62,3.49-2.77,10.05-9.32,11.94-12.38.44-.44,1.31-1.75,2.18-2.62.87-1.31,3.35-3.93,5.1-6.41,1.46-2.33,3.49-4.51,3.93-4.81.14-.14.44-.44.44-.58,0-.29.14-.73.58-.87,1.17-1.16,3.06-4.22,3.5-4.66.73-.87,1.31-.15,1.16.44-.44,1.6-1.75,2.91-3.06,4.66l-2.62,3.49c-1.16,1.31-2.04,2.62-2.18,2.62l-2.04,2.62c-1.31,1.46-2.18,3.2-2.62,3.2-.14.44-.87.73-.87.87,0,.73-6.12,8.15-9.32,10.92-2.47,2.47-5.68,5.53-6.41,5.68-.15,0-.87.44-1.31,1.16-.87.44-1.46,1.02-1.75,1.02-.44,0-.58,0-.58.29,0,.44-6.84,5.24-8.3,6.12l-1.31.73c-1.16.87-8.59,4.51-11.65,6.12-1.89,1.02-3.49,2.18-4.22,3.06-1.46,1.75-4.37,5.82-4.37,6.12,0,.44-4.08,6.26-6.99,9.61l-6.11,7.86c-5.83,7.57-6.7,9.17-9.32,11.36l-3.5,2.77c-2.04,1.75-5.53,3.79-9.03,5.68-3.06,1.16-6.26,1.31-8.3.29-.87-.44-1.46-.73-1.75-.73ZM534.85,194.38s.44-.44.87-.44c.73-.29,2.91-2.18,3.93-2.91l1.75-1.31c3.93-3.06,6.55-5.68,8.3-8.45.87-1.16,1.75-2.18,2.18-2.62.29-.29,1.17-1.31,1.75-2.48l4.22-5.82c1.75-2.62,3.64-5.24,3.93-5.68.87-1.16,1.02-1.75,2.18-2.91.58-1.02,2.77-4.08,2.77-4.37,0-.14-.15-.14-6.12,2.04-3.49,1.02-7.43,2.62-9.17,3.06-4.95,1.31-7.86,2.62-11.36,4.81-.87.58-1.75,1.02-1.75,1.02-.44,0-8.01,5.68-9.32,6.99-2.91,2.62-3.35,2.91-4.81,6.41-1.16,2.18-1.31,3.2-1.6,5.39-.14,5.24,1.6,8.15,5.24,8.74,1.17.29,2.62.73,3.35.29,1.31-.29,3.64-1.31,3.64-1.75ZM571.39,139.2c.87-.14,4.08-2.77,5.24-3.64,1.6-1.31,5.1-4.81,5.1-5.1,0-.15.58-.58,2.76-3.2l1.31-1.6c0-.15.29-.44.73-.87,2.33-2.33,6.12-7.57,8.74-11.36.87-1.31,1.75-2.62,2.18-2.77.14-.29.44-.44.44-.87,0-.29,0-.44.15-.44.29,0,.87-1.16,1.6-2.04.58-1.02,1.45-2.18,1.89-2.62.29-.44.73-.87.73-1.02,0-.29.44-1.16.87-2.04,1.75-2.33,2.18-3.2,2.62-5.39.87-3.35.44-5.1-1.75-5.97q-1.6-.44-3.35-.14c-3.2.44-5.39,1.31-8.3,3.49-4.51,3.49-10.05,9.32-13.98,14.41l-2.62,3.2c-1.16,1.31-2.04,2.62-2.18,3.06-.44.44-1.16,1.6-1.75,2.48-.73.87-1.31,1.89-1.31,2.18l-2.18,3.2c-2.62,3.79-3.49,5.53-4.66,7.43-.44,1.16-.87,1.75-.87,2.04-.43.14-.87,1.46-1.02,2.33,0,0-.29,1.16-.73,2.47-.44,1.46-.44,1.89,0,2.33.29.44.44.87.29,1.16,0,.44,1.89,1.31,3.49,1.46.58,0,5.24-1.31,6.55-2.18Z"/>
    <path d="M735.64,13.83s.44,0,1.16.29c.58,0,1.89.44,3.06,1.02,4.08,2.18,6.55,5.24,7.86,9.61.58,1.75.58,5.53-.29,8.74,0,1.16-2.18,8.59-3.93,13.4-.43,1.02-3.2,6.26-3.49,6.7l-.87,1.75c-1.02,1.75-3.2,5.24-3.64,5.53,0,0-.29.15-.29.44,0,0-.87,1.75-2.33,3.49-1.6,1.75-2.47,3.49-2.47,3.64,0,.29-.15.29-.15.29-.29,0-.73.58-.87,1.31-.44.58-.87,1.31-1.16,1.46,0,.29-.58.73-.58.87-.29.29-.73,1.16-1.6,1.75-.44,1.16-.87,1.75-1.02,2.18-.73,1.16-3.93,7.28-4.81,8.74-.43,1.16-1.6,1.75-1.6,2.04,0,0-.44.87-.87,1.46-.14.87-.58,1.75-.87,2.04-.44,1.02-1.89,3.93-2.18,5.24-1.02,4.37-1.02,4.95-.87,7.13,0,1.75.29,3.06.44,3.35,1.16,1.02,4.81,1.02,8.3-.29,2.04-.58,9.03-4.95,9.9-5.68,0,0,.14-.58.58-.87,1.75-.87,4.66-3.64,8.74-7.57,3.79-3.93,5.53-5.97,10.34-11.21l6.12-6.7c1.02-1.6,5.24-5.97,5.83-6.55,1.6-2.04,7.72-9.61,9.03-11.79.44-.87.87-1.75,1.02-2.48.87-1.31,6.99-10.19,6.99-10.48.29,0,.44-.44.87-.87.29-.58.73-1.31.73-1.46,1.89-1.75,7.13-9.46,7.13-9.9,0,0,.29-.58.87-1.31.87-.58,1.6-1.75,1.75-2.18.29-.14.44-.58.73-.87.58-.87,1.46-2.62,1.46-2.77,0-.29.29-.73.73-.87.58-.73,1.46-.73,4.51-.29.29.29.73.29.87.29.29,0,.73.44.73.87.44,1.02.44,1.31,0,1.75-.29.15-1.16,1.31-2.18,2.33-.73,1.16-1.75,2.18-2.04,2.18-.87,1.16-2.62,3.79-2.62,3.93,0,0-.14.44-.44.73-.44.44-.87,1.02-1.02,1.46-.29.44-.73,1.31-.87,1.6-.29.14-.44.44-.44.58,0,.29-4.37,6.84-5.24,7.72-.29.44-.44,1.02-.87,1.46-.29.73-.73,1.31-1.16,1.6-.14.44-.44.87-.44,1.02,0,.29,0,.44-.44.44q-.14,0-.14.29c0,.15-.87,1.02-1.6,2.18-.58,1.46-1.31,2.33-1.31,2.33,0,0-.58,1.16-1.46,2.18-3.93,6.12-4.66,6.84-4.66,6.99,0,0-.58.87-1.31,1.75-1.89,3.49-2.18,3.79-2.33,4.66,0,.15-.29.44-.44.44,0,0-.44.44-.73.58,0,.44-.87,1.31-1.31,2.18-.43,1.16-.87,2.04-1.02,2.18-.29.73-1.16,2.04-3.79,6.41-2.33,3.2-4.08,6.12-10.63,16.16-3.79,6.26-8.3,12.67-9.03,13.25-.44.44-.87,1.31-1.31,2.04-2.77,4.08-12.23,15.43-13.69,16.75,0,.29-.87,1.16-2.04,2.47-3.06,3.93-13.69,13.83-16.75,14.85-.29.29-.73.44-.87.73-.73.44-6.99,3.49-8.3,3.93-3.06.87-4.22,1.02-5.68,1.46-3.93.73-10.05.29-12.67-1.02-2.91-1.31-5.1-4.37-5.1-7.28,0-3.79,1.75-7.86,3.06-6.84.44.29.44.73.29,1.16-1.75,2.33-2.04,5.68-1.16,8.3.73,1.31,2.62,2.91,4.37,3.35.87.15,1.75.44,2.04.44,1.02.44,8.3.15,10.05-.29,3.5-.58,9.17-3.64,11.8-6.26l2.62-2.04c1.46-.87,2.62-2.18,3.06-2.62.44-.73,1.02-1.31,1.75-2.04.44-.44.58-1.02.58-1.02,0-.29.29-.44.73-.87.43-.44,2.62-2.91,5.68-6.84.44-.87,1.89-2.33,3.06-3.49,1.02-1.02,2.18-2.77,2.62-3.2.44-.44,1.02-1.31,1.45-1.75,1.31-1.75,3.5-4.22,4.22-5.24.43-.44.58-1.16.58-1.16.29-.15,1.16-1.46,2.62-3.64l2.04-3.35c.58-.87,1.02-1.46,1.02-1.75,0,0,1.16-.87,1.75-1.89.87-1.6,1.6-2.48,1.6-2.62l.87-1.31c.44-.87,1.75-2.48,2.33-3.35.73-1.31,1.6-2.62,1.75-2.62,0,0,.29-.15.29-.44l1.31-1.89c.58-1.16,1.31-2.18,1.46-2.62,0-.29.29-.73.44-.73q.29,0,.29-.44s.87-1.75,1.89-3.06c1.31-1.46,3.06-4.95,4.8-7.13l2.62-4.37c.44-.29.44-.44.44-.73,0,0,.73-.44,1.16-.87.14-.44.58-.87.58-1.02,0,0,.29-.44.73-.87.14-.73.58-1.31.87-1.75.15-.44.44-.73.87-.73.15,0,.15-.44.44-.58q0-.73-.29-.73c-.15.29-.58.29-.58.73,0,.15-.73.87-2.91,3.64-2.18,1.75-2.62,2.47-3.49,3.93l-1.46,1.75c-.44.29-1.31,1.31-2.18,2.48-.87,1.02-1.75,1.89-1.75,1.89-.29.29-1.31,1.31-2.18,2.48-9.61,10.63-18.64,18.93-23.44,21.84-.87.15-1.45.58-1.45.87-.29,0-.87.15-1.31.15-.44.29-.87.44-.87.44,0,.44-4.37,2.04-4.66,1.75-.14,0-.87,0-1.46.29-2.04.87-5.97-1.16-7.28-3.35-.87-1.02-1.45-4.08-1.75-6.26-.15-.73-.15-1.6-.44-2.04-.15-.87.73-4.8,1.6-6.55,2.33-4.81,3.49-6.55,3.64-6.99.29-.15.44-.44.44-.58,0,0,.73-.73.87-1.31.44-.73,1.17-1.75,1.6-2.62.44-.87,1.02-1.75,1.31-2.04,1.31-1.02,1.89-2.18,2.33-3.2.29-.44.73-1.6,1.31-2.18.43-.73.87-1.31.87-1.75,0-.29,2.18-3.06,2.47-3.49.14,0,.14-.29.44-.73,0-.14.58-.87,1.02-1.46.29-.44,1.16-1.31,1.31-1.75,2.48-4.37,4.37-7.43,4.66-7.43q.15-.29.15-.44c0-.29.73-.87,1.16-1.75.44-.87.87-1.31.87-1.6,0,0,.44-1.02,1.02-1.89,1.31-2.04,5.24-9.61,6.41-12.23.58-1.75,1.31-4.81,1.46-7.28.44-3.06-1.02-9.61-2.33-11.5-1.31-1.16-2.18-1.75-4.81-2.62-2.91-1.16-5.68-1.16-10.77-.29-2.18.29-8.01,2.04-9.61,2.91-.15.15-1.46.58-2.33,1.31-1.6.58-3.49,1.46-7.86,4.51l-2.62,1.75c-.87.73-2.18,1.6-2.62,2.18-3.79,2.48-12.23,12.09-13.54,14.71l-.44.58c-.29,0-.29.29-.29.44,0,.29-.14.44-.44.44,0,0-.14,0-.14.29,0,.44-.29.87-.73,1.46-.58.73-1.46,2.18-2.77,4.81-.73.87-1.16,2.04-1.16,2.18-.44,0-.58.87-.87,1.6l-.43,1.46c-.15.44-1.02,3.06-1.31,4.37,0,.29-.14.87-.14,1.6-.29.44-.29,1.89-.29,3.2,0,3.35.29,4.66,1.75,6.84.87,1.02,1.6,1.46,3.35,2.62,1.89.58,2.62.87,4.95.58,3.49,0,6.11-.58,9.61-2.62,4.8-2.18,10.34-7.43,13.98-12.67l1.75-3.06c2.18-3.06,4.66-10.19,4.8-13.54.44-2.62-.44-3.64-1.46-2.18q-.43.73-.73,0c-.15-.44.44-1.89,1.16-2.18,2.33-.44,3.49,3.06,2.33,7.86-.58,2.62-4.08,10.77-5.39,11.79-.29.29-.29.73-.29.73,0,.58-3.64,5.24-5.24,6.99-.44.44-.58,1.02-.87,1.31-.87,1.46-7.86,5.82-11.36,7.57-4.08,1.6-9.76,2.04-13.1.87-2.18-.58-4.95-3.2-5.82-4.95-1.31-2.91-1.6-6.84-.29-10.92.44-1.31.73-2.62.73-3.06.44-2.04,2.18-5.97,3.64-8.59.44-.87.87-1.75.87-1.89,0-.29.44-.44.73-.44,0,0,.14,0,.14-.29,0-.58,1.6-2.77,6.41-9.17,1.45-1.89,10.05-10.48,10.48-10.48.14,0,.44-.15.58-.58.43-.44,7.42-5.24,10.05-6.84,1.75-.87,7.28-3.2,8.15-3.49,0,0,.58-.44.87-.44,1.31-.44,5.68-1.31,7.43-1.46,1.31,0,2.18-.29,2.18-.29.15-.14,5.82.29,5.82.44Z"/>
    <path d="M759.96,143.42c-2.62-1.16-4.37-3.35-4.81-6.99-.43-2.04-.43-5.53,0-6.41.15-.15.44-.87.44-1.31.14-.44.44-1.75,1.02-2.77.44-1.16.87-2.62,1.31-3.93,1.16-2.48,2.91-5.97,3.49-6.84.44-.15.73-.58.73-1.02v-.29c.15,0,.87-1.31,1.31-2.33,1.46-2.18,1.89-2.91,4.08-5.53l2.48-2.77c1.75-2.18,4.8-5.1,7.86-7.72,3.49-2.77,8.3-5.39,12.09-6.26.87-.29,1.89-.44,2.62-.44,2.77-.29,8.01,1.31,9.32,3.93.87,1.31,1.31,3.2,1.31,4.95,0,3.93-.44,3.35-1.31,6.55-.58,2.62-5.82,12.23-7.57,14.85l-1.6,2.18c-1.45,2.18-1.89,2.62-2.77,3.49-.73.87-.44,2.48.58,3.79,2.62,3.06,4.22,1.89,11.36-4.22,7.43-6.26,17.47-19.22,20.09-22.42,2.18-2.62,2.04-1.31,1.75.15-.44,1.31-12.67,16.16-16.74,20.38-5.68,5.24-8.74,8.3-11.79,9.17-2.91.87-4.22.44-5.53-1.16-.44-.15-.87-1.02-.87-1.02,0-.29-.14-.73-.58-1.16-.29-.58-.29-.44-2.48,1.75-3.49,4.37-8.3,8.59-9.17,8.74-.44,0-.87.29-1.02.73-.87.87-5.39,3.06-8.15,3.93-2.91.87-5.53,1.31-7.43,0ZM774.23,138.18c0-.29.44-.44.87-.44,1.02,0,5.24-4.22,8.3-7.43l3.64-3.93c.44-.44.73-1.16.73-1.6s0-1.02.15-1.46c.44-2.18.73-3.93,1.6-5.1.15-.58.58-1.31.58-1.31,0-.58,5.1-8.74,6.41-10.19.44-.29.58-.73.58-.87,0-.29.73-1.31,1.17-2.18.87-1.6,1.75-1.75,2.62-1.75.14-.29.44-1.75.44-3.79.43-3.2-.29-4.37-2.48-5.39-.87-.44-1.75-.73-3.06-.73-2.62.29-3.2.44-6.55,2.18-3.49,1.75-4.8,2.91-7.57,5.24-3.79,3.35-10.19,11.36-10.19,12.52,0,.15-.14.44-.43.44-.44,0-7.86,12.67-8.74,15.73,0,.58-.44,1.31-.58,1.89-.44.44-.73.87-.73,1.31,0,0-.15,1.16-.58,1.75-2.47,8.15.87,11.07,7.86,8.3,2.77-.87,5.68-2.62,5.97-3.2Z"/>
    <path d="M834.36,89.4c4.08,0,4.81.29,3.5,2.04-.44.58-.73,1.02-.73,1.31l-1.31,1.31c-2.33,2.77-3.64,4.37-6.12,7.57-1.75,2.04-2.77,3.79-2.77,3.93l-1.31,2.18c-2.18,2.62-4.51,6.41-6.7,10.05-1.02,2.18-2.33,4.66-3.06,5.68-.87,1.16-1.46,2.18-1.46,2.47,0,0-.29.44-.44.87-.73.44-2.04,3.2-3.79,6.12-.87,1.75-1.02,4.37-.58,5.68.15,1.02,2.77,2.62,4.08,2.33,2.48-.58,6.41-3.06,10.19-7.13,5.68-5.97,8.01-8.59,10.48-11.36,1.46-1.75,3.06-3.49,3.2-3.79.29-.15,3.06-4.81,3.79-5.82.15-.44.58-.87.58-1.16.29,0,1.16-1.75,2.04-3.2,1.31-1.75,2.18-3.06,2.18-3.35.44-.44,2.62-3.64,3.93-4.95.58-.87,1.31-2.04,1.31-2.18.14,0,.58-.87,1.02-1.75,1.31-2.48,2.91-4.22,4.8-5.68,0,0,.29-.44.73-.44h.15c.87,0,1.6-.29,2.18-.29.73,0,1.31,0,2.04-.14.15-.29.58-.29.87.14.44.73,0,1.16-2.47,3.93-5.39,6.84-8.74,11.36-12.23,17.04-.44,1.16-3.2,5.24-3.64,5.53,0,.15-.44.87-.87,1.75-.44.87-1.6,3.06-2.18,4.37-1.17,1.02-2.04,2.77-2.04,3.64-.44.73-.58,1.31-.87,1.31-.44.44-2.33,3.93-3.2,6.84-.44,1.02-1.16,2.18-1.16,3.49s0,1.89,1.6,2.18c.14,0,.44.15.87.15h1.02c1.16,0,2.04-.58,2.62-1.02,1.31-.73,2.62-1.6,3.5-2.62,3.06-2.47,5.24-5.24,7.42-7.86l.44-.73c.73-.87,1.75-1.89,2.18-2.18.43-.44,2.04-2.77,4.22-5.39,1.89-2.62,3.93-5.1,4.08-5.1.73-.44,6.41-8.88,9.17-12.23,1.17-1.31,2.04-2.18,2.18-2.18.87,0,.73,1.31-.44,2.48-.15.87-1.46,2.18-4.95,6.7-1.31,1.75-2.91,3.93-4.66,5.97-.58.87-2.62,3.2-4.08,5.68-1.75,1.89-3.93,4.51-4.37,5.39-2.62,3.06-7.72,8.3-9.03,9.9-4.51,3.49-7.13,5.39-8.44,5.39-.44,0-.73.29-.87.29,0,.14-1.16.44-2.04.44-1.31,0-1.75-.29-2.77-1.31-1.16-1.16-1.75-2.91-1.75-4.37-.29-3.49.87-6.12,2.33-9.17.44-1.31,1.16-2.48,1.16-2.62,0,0-.73.44-1.31,1.31-4.8,4.81-11.65,11.94-11.94,11.94,0,0-1.31.44-2.18,1.16-1.89,1.75-4.37,2.62-6.12,2.62-2.33,0-6.26-2.48-6.26-3.49,0-.29-.29-.73-.44-.87-.73-.73-.43-5.53.44-7.72.14-1.02,1.31-3.06,1.46-4.37.43-1.02.87-2.33,1.16-2.33l.87-1.6c.44-.87,1.02-2.62,1.89-3.49.73-1.02,1.31-2.62,1.75-3.49.87-1.75,3.93-6.55,4.22-6.7.14-.29.58-.44.87-1.16.44-.58.87-1.46,1.46-2.18.29-.44,1.16-1.75,1.75-3.06,1.45-2.18,2.33-3.49,5.53-8.01,1.6-1.31,2.91-2.91,3.06-3.35.73-1.02.87-1.31,4.22-1.31Z"/>
  </g>
  <g>
    <path d="M34.08,335.28l3.23.77v.56h-8.91v-.56l3.41-.77-9.24-23.25h.83l-8.95,23.25,3.35.77v.56h-7.99v-.56l3.27-.77,10.04-25.65h.62l10.33,25.65ZM17.29,326.02v-1.23h12v1.23h-12Z"/>
    <path d="M46,310.03v25.25l3.57.77v.56h-9.01v-.56l3.31-.77v-23.92l-3.31-.77v-.56h5.44ZM50.54,322.42c1.76,0,3.2-.48,4.33-1.43,1.13-.95,1.7-2.35,1.7-4.21,0-1.15-.27-2.14-.79-2.95-.53-.82-1.4-1.45-2.62-1.88-1.22-.44-2.87-.66-4.96-.66h-4.17l-.3-1.27h5.95c2.21,0,3.98.29,5.33.88,1.34.59,2.32,1.38,2.93,2.38.61,1,.91,2.12.91,3.36,0,1.1-.25,2.1-.74,3s-1.23,1.65-2.19,2.25c-.97.6-2.14,1.01-3.53,1.24v-.14c.83.04,1.53.19,2.09.47.56.27,1.06.71,1.49,1.31.43.6.85,1.42,1.26,2.45l2.26,5.59c.37.91.71,1.59,1,2.02.3.44.65.72,1.05.85.4.13.92.2,1.56.2v.71c-.98.07-1.77.09-2.37.06s-1.09-.15-1.48-.39c-.38-.23-.72-.6-1.02-1.11-.3-.51-.62-1.21-.98-2.11l-2.08-5.26c-.41-1.06-.79-1.88-1.14-2.48-.35-.59-.75-1.01-1.19-1.26-.44-.24-1.03-.37-1.75-.37h-6.82l-.14-1.27h6.43Z"/>
    <path d="M86.48,311.3h-19.76l1.33-.32-2.36,6.19-.63-.12.87-8.31h.28l2.06,1.53-1.09-.24h18.83l-1.07.24,2.06-1.53h.28l.85,8.29-.64.14-2.34-6.19,1.33.32ZM75.54,310.64h2.12v24.64l3.31.77v.56h-8.75v-.56l3.31-.77v-24.64Z"/>
    <path d="M97.95,310.03v25.25l3.31.77v.56h-8.75v-.56l3.31-.77v-23.92l-3.31-.77v-.56h5.44ZM110.49,309.21h.22l1.09,7.76-.61.12-2.78-6.19,1.73.4h-14.07v-1.27h12.66l1.76-.81ZM107.61,318.02l-.16,5.28.16,5.26h-.85l-.81-4.6-8.97-.06v-1.19l8.97-.1.81-4.58h.85Z"/>
    <path d="M138,326.51v-15.15l-3.31-.77v-.56h7.93v.56l-3.31.77v15.1c0,2.37-.4,4.33-1.2,5.9-.8,1.57-1.94,2.73-3.43,3.5-1.49.77-3.28,1.15-5.36,1.15-2.22,0-4.11-.41-5.66-1.23-1.55-.82-2.73-2.06-3.54-3.71-.81-1.65-1.21-3.72-1.21-6.21v-14.5l-3.31-.77v-.56h8.75v.56l-3.31.77v14.44c0,2.08.32,3.83.95,5.26.63,1.43,1.58,2.51,2.85,3.24,1.26.73,2.85,1.1,4.75,1.1,1.8,0,3.32-.31,4.57-.93,1.25-.62,2.21-1.59,2.87-2.9.66-1.31.99-3,.99-5.06Z"/>
    <path d="M152.56,311.36v25.25h-5.44v-.56l3.31-.77v-23.92l-3.31-.77v-.56h8.75v.56l-3.31.77ZM165.81,337.62h-.26l-1.81-1.01h-12.34v-1.27h13.75l-1.73.58,3.35-6.57.58.16-1.55,8.11Z"/>
    <path d="M190.07,336.05v.56h-8.75v-.56l3.31-.77v-23.92l-3.31-.77v-.56h8.75v.56l-3.31.77v23.92l3.31.77Z"/>
    <path d="M226.05,335.28l3.31.77v.56h-8.71v-.56l3.31-.77-1.61-23.41.28.06-11.01,25.07h-.65l-10.65-24.97.26-.04-1.57,23.29,3.29.77v.56h-7.9v-.56l3.31-.77,1.76-23.8-3.47-.89v-.56h5.71l10.3,24.24-.46-.02,10.67-24.22h5.65v.56l-3.55.77,1.71,23.92Z"/>
    <path d="M256.28,335.28l3.23.77v.56h-8.91v-.56l3.41-.77-9.24-23.25h.83l-8.95,23.25,3.35.77v.56h-7.99v-.56l3.27-.77,10.04-25.65h.62l10.33,25.65ZM239.5,326.02v-1.23h12v1.23h-12Z"/>
    <path d="M284.31,333.83l.77,1.13v.04c-.81.41-1.69.76-2.66,1.06s-1.98.53-3.05.69c-1.07.17-2.17.25-3.31.25-2.01,0-3.89-.3-5.63-.9-1.74-.6-3.28-1.48-4.59-2.65-1.32-1.16-2.34-2.59-3.08-4.28-.74-1.69-1.11-3.61-1.11-5.78,0-2.79.58-5.22,1.75-7.28,1.17-2.06,2.85-3.66,5.04-4.79,2.19-1.13,4.79-1.7,7.81-1.7,1.04,0,2.05.09,3.02.26.97.17,2.04.44,3.2.79l-1.21-.06,1.69-1.59h.24l1.33,8.69-.65.14-3.02-6.43,1.79,1.74c-1.32-.82-2.56-1.41-3.7-1.76-1.15-.36-2.39-.54-3.72-.54-1.79,0-3.38.25-4.77.76-1.39.51-2.58,1.26-3.54,2.24-.97.99-1.7,2.19-2.2,3.63s-.75,3.08-.75,4.95c0,2.9.54,5.34,1.62,7.33,1.08,1.99,2.53,3.5,4.36,4.53,1.83,1.03,3.89,1.55,6.18,1.55.85,0,1.72-.08,2.61-.25.89-.16,1.71-.4,2.46-.7.75-.3,1.31-.66,1.7-1.07l-.67,1.45v-9.2l-4.07-.81v-.56h8.75v.56l-2.56.77v7.77Z"/>
    <path d="M291.47,336.61v-.56l3.31-.77v-23.92l-3.31-.77v-.56h5.44v26.58h-5.44ZM311.66,316.97l-.63.12-2.78-6.19,1.13.4h-14.12v-1.27h13.29l1.77-.81h.24l1.11,7.76ZM308.69,335.89l3.23-6.39.58.16-1.49,7.95h-.22l-1.77-1.01h-13.77v-1.27h14.44l-1.01.56ZM306.64,317.41l-.16,5.28.16,5.26h-.85l-.81-4.6-9.08-.06v-1.19l9.08-.1.81-4.58h.85Z"/>
    <path d="M322.73,310.03v25.25l3.57.77v.56h-9.01v-.56l3.31-.77v-23.92l-3.31-.77v-.56h5.43ZM327.28,322.42c1.76,0,3.2-.48,4.33-1.43,1.13-.95,1.7-2.35,1.7-4.21,0-1.15-.27-2.14-.79-2.95-.53-.82-1.4-1.45-2.62-1.88-1.22-.44-2.87-.66-4.96-.66h-4.17l-.3-1.27h5.95c2.21,0,3.98.29,5.33.88,1.34.59,2.32,1.38,2.93,2.38.61,1,.91,2.12.91,3.36,0,1.1-.25,2.1-.74,3s-1.23,1.65-2.19,2.25c-.97.6-2.14,1.01-3.53,1.24v-.14c.83.04,1.53.19,2.09.47.56.27,1.06.71,1.49,1.31.43.6.85,1.42,1.26,2.45l2.26,5.59c.37.91.7,1.59,1,2.02.3.44.65.72,1.05.85.4.13.92.2,1.56.2v.71c-.98.07-1.77.09-2.37.06s-1.09-.15-1.48-.39c-.38-.23-.72-.6-1.02-1.11s-.62-1.21-.98-2.11l-2.08-5.26c-.41-1.06-.79-1.88-1.14-2.48-.35-.59-.75-1.01-1.19-1.26-.44-.24-1.03-.37-1.75-.37h-6.82l-.14-1.27h6.43Z"/>
    <path d="M342.93,311.36l-3.23-.77v-.56h9.24v.56l-3.37.77,8.83,13.13-.85-.02,7.52-13.11-3.35-.77v-.56h8.05v.56l-3.29.77-8.05,13.63v10.29l3.31.77v.56h-8.75v-.56l3.31-.77v-10.22l-9.36-13.71Z"/>
    <path d="M384.6,310.03v25.25l3.31.77v.56h-8.75v-.56l3.31-.77v-23.92l-3.31-.77v-.56h5.44ZM397.14,309.21h.22l1.09,7.76-.62.12-2.78-6.19,1.73.4h-14.06v-1.27h12.66l1.76-.81ZM394.26,318.02l-.16,5.28.16,5.26h-.85l-.81-4.6-8.97-.06v-1.19l8.97-.1.81-4.58h.85Z"/>
    <path d="M415.55,309.63c1.88,0,3.61.34,5.2,1.01s2.97,1.62,4.15,2.85c1.18,1.22,2.09,2.67,2.74,4.33.65,1.67.97,3.49.97,5.47s-.31,3.81-.94,5.48c-.63,1.67-1.51,3.13-2.66,4.35-1.14,1.23-2.49,2.18-4.05,2.86-1.55.67-3.26,1.01-5.13,1.01s-3.59-.34-5.19-1.01c-1.59-.68-2.98-1.62-4.16-2.85-1.18-1.22-2.09-2.67-2.74-4.33-.65-1.67-.97-3.49-.97-5.47s.31-3.81.94-5.48c.63-1.67,1.51-3.13,2.66-4.35,1.15-1.23,2.5-2.18,4.06-2.86,1.56-.67,3.27-1.01,5.12-1.01ZM415.84,335.79c2.19,0,4.07-.51,5.62-1.54,1.55-1.02,2.75-2.45,3.58-4.27.83-1.83,1.25-3.93,1.25-6.31,0-2.67-.46-4.97-1.39-6.88-.93-1.92-2.2-3.39-3.82-4.41-1.62-1.02-3.47-1.54-5.56-1.54s-4.05.51-5.61,1.54c-1.56,1.02-2.76,2.45-3.59,4.26-.83,1.82-1.25,3.92-1.25,6.32,0,2.67.46,4.97,1.39,6.88.92,1.92,2.2,3.39,3.82,4.41,1.62,1.02,3.47,1.54,5.56,1.54Z"/>
    <path d="M439.07,310.03v25.25l3.57.77v.56h-9.01v-.56l3.31-.77v-23.92l-3.31-.77v-.56h5.43ZM443.62,322.42c1.76,0,3.2-.48,4.33-1.43,1.13-.95,1.7-2.35,1.7-4.21,0-1.15-.27-2.14-.79-2.95-.53-.82-1.4-1.45-2.62-1.88-1.22-.44-2.87-.66-4.96-.66h-4.17l-.3-1.27h5.95c2.21,0,3.98.29,5.33.88,1.34.59,2.32,1.38,2.93,2.38.61,1,.91,2.12.91,3.36,0,1.1-.25,2.1-.74,3s-1.23,1.65-2.19,2.25c-.97.6-2.14,1.01-3.53,1.24v-.14c.83.04,1.53.19,2.09.47.56.27,1.06.71,1.49,1.31.43.6.85,1.42,1.26,2.45l2.26,5.59c.37.91.7,1.59,1,2.02.3.44.65.72,1.05.85.4.13.92.2,1.56.2v.71c-.98.07-1.77.09-2.37.06s-1.09-.15-1.48-.39c-.38-.23-.72-.6-1.02-1.11s-.62-1.21-.98-2.11l-2.08-5.26c-.41-1.06-.79-1.88-1.14-2.48-.35-.59-.75-1.01-1.19-1.26-.44-.24-1.03-.37-1.75-.37h-6.82l-.14-1.27h6.43Z"/>
    <path d="M478.49,336.05v.56h-8.75v-.56l3.31-.77v-23.92l-3.31-.77v-.56h8.75v.56l-3.31.77v23.92l3.31.77Z"/>
    <path d="M486.88,335.28v-23.72l-3.53-.97v-.56h5.6l17.38,23.86-.89,1.05v-23.59l-3.41-.77v-.56h8.03v.56l-3.31.77v25.65h-.71l-18.45-25.23.61-.43v23.94l3.39.77v.56h-8.01v-.56l3.31-.77Z"/>
    <path d="M535.59,311.3h-19.76l1.33-.32-2.36,6.19-.63-.12.87-8.31h.28l2.06,1.53-1.09-.24h18.83l-1.07.24,2.06-1.53h.28l.85,8.29-.64.14-2.34-6.19,1.33.32ZM524.65,310.64h2.12v24.64l3.31.77v.56h-8.75v-.56l3.31-.77v-24.64Z"/>
    <path d="M550.37,336.05v.56h-8.75v-.56l3.31-.77v-23.92l-3.31-.77v-.56h8.75v.56l-3.31.77v23.92l3.31.77Z"/>
    <path d="M586.36,335.28l3.31.77v.56h-8.71v-.56l3.31-.77-1.61-23.41.28.06-11.01,25.07h-.65l-10.65-24.97.26-.04-1.57,23.29,3.29.77v.56h-7.9v-.56l3.31-.77,1.76-23.8-3.47-.89v-.56h5.71l10.3,24.24-.46-.02,10.67-24.22h5.65v.56l-3.55.77,1.71,23.92Z"/>
    <path d="M616.59,335.28l3.23.77v.56h-8.91v-.56l3.41-.77-9.24-23.25h.83l-8.95,23.25,3.35.77v.56h-7.99v-.56l3.27-.77,10.04-25.65h.61l10.34,25.65ZM599.8,326.02v-1.23h12v1.23h-12Z"/>
    <path d="M639.77,311.3h-19.76l1.33-.32-2.36,6.19-.63-.12.87-8.31h.28l2.06,1.53-1.09-.24h18.82l-1.07.24,2.06-1.53h.28l.85,8.29-.63.14-2.34-6.19,1.33.32ZM628.82,310.64h2.12v24.64l3.31.77v.56h-8.75v-.56l3.31-.77v-24.64Z"/>
    <path d="M645.8,336.61v-.56l3.31-.77v-23.92l-3.31-.77v-.56h5.44v26.58h-5.44ZM666,316.97l-.63.12-2.78-6.19,1.13.4h-14.12v-1.27h13.29l1.77-.81h.24l1.11,7.76ZM663.02,335.89l3.23-6.39.58.16-1.49,7.95h-.22l-1.76-1.01h-13.77v-1.27h14.44l-1.01.56ZM660.98,317.41l-.16,5.28.16,5.26h-.85l-.81-4.6-9.08-.06v-1.19l9.08-.1.81-4.58h.85Z"/>
    <path d="M698.73,312.53l-9.01,24.48h-.62l-6.19-25.65-3.23-.77v-.56h8.83v.56l-3.43.77,5.34,22.53-.79.12,8.85-24.38h.63l8.37,24.56-1.07.4,5.59-23.23-3.41-.77v-.56h7.93v.56l-3.23.77-6.37,25.65h-.62l-8.31-24.22.73-.26Z"/>
    <path d="M719.91,336.61v-.56l3.31-.77v-23.92l-3.31-.77v-.56h5.43v26.58h-5.43ZM740.11,316.97l-.64.12-2.78-6.19,1.13.4h-14.12v-1.27h13.29l1.76-.81h.24l1.11,7.76ZM737.13,335.89l3.23-6.39.58.16-1.49,7.95h-.22l-1.77-1.01h-13.77v-1.27h14.44l-1.01.56ZM735.09,317.41l-.16,5.28.16,5.26h-.85l-.81-4.6-9.08-.06v-1.19l9.08-.1.81-4.58h.85Z"/>
    <path d="M745.74,336.61v-.56l3.31-.77v-23.92l-3.31-.77v-.56h5.44v26.58h-5.44ZM768.63,322.98c0-3.91-1.24-6.84-3.71-8.78-2.47-1.94-5.93-2.91-10.37-2.91h-5.02l.24-1.27h5.79c3.4,0,6.24.49,8.51,1.46,2.27.97,3.99,2.41,5.15,4.3,1.16,1.9,1.73,4.24,1.73,7.01,0,3-.67,5.53-2,7.58-1.34,2.05-3.15,3.6-5.46,4.65-2.3,1.05-4.91,1.58-7.81,1.58h-5.91l-.24-1.27h5.58c2.74,0,5.12-.42,7.15-1.26,2.03-.84,3.6-2.17,4.71-3.99,1.11-1.82,1.67-4.19,1.67-7.11Z"/>
    <path d="M775.97,336.61v-.56l3.31-.77v-23.92l-3.31-.77v-.56h5.43v26.58h-5.43ZM798.86,322.98c0-3.91-1.24-6.84-3.71-8.78-2.47-1.94-5.93-2.91-10.37-2.91h-5.02l.24-1.27h5.79c3.4,0,6.24.49,8.51,1.46s3.99,2.41,5.15,4.3c1.16,1.9,1.74,4.24,1.74,7.01,0,3-.67,5.53-2,7.58-1.34,2.05-3.15,3.6-5.46,4.65-2.3,1.05-4.91,1.58-7.82,1.58h-5.91l-.24-1.27h5.57c2.74,0,5.12-.42,7.15-1.26,2.03-.84,3.6-2.17,4.71-3.99,1.11-1.82,1.67-4.19,1.67-7.11Z"/>
    <path d="M814.95,336.05v.56h-8.75v-.56l3.31-.77v-23.92l-3.31-.77v-.56h8.75v.56l-3.31.77v23.92l3.31.77Z"/>
    <path d="M823.34,335.28v-23.72l-3.53-.97v-.56h5.59l17.38,23.86-.89,1.05v-23.59l-3.41-.77v-.56h8.03v.56l-3.31.77v25.65h-.72l-18.45-25.23.61-.43v23.94l3.39.77v.56h-8.01v-.56l3.31-.77Z"/>
    <path d="M874.02,333.83l.77,1.13v.04c-.81.41-1.69.76-2.66,1.06s-1.98.53-3.05.69c-1.07.17-2.18.25-3.31.25-2.01,0-3.89-.3-5.63-.9-1.75-.6-3.28-1.48-4.59-2.65-1.31-1.16-2.34-2.59-3.08-4.28-.74-1.69-1.11-3.61-1.11-5.78,0-2.79.58-5.22,1.76-7.28,1.17-2.06,2.85-3.66,5.04-4.79,2.19-1.13,4.79-1.7,7.8-1.7,1.04,0,2.05.09,3.02.26.97.17,2.04.44,3.2.79l-1.21-.06,1.69-1.59h.24l1.33,8.69-.66.14-3.02-6.43,1.79,1.74c-1.32-.82-2.56-1.41-3.7-1.76-1.15-.36-2.38-.54-3.72-.54-1.78,0-3.38.25-4.77.76-1.4.51-2.58,1.26-3.54,2.24-.97.99-1.7,2.19-2.2,3.63-.5,1.44-.75,3.08-.75,4.95,0,2.9.54,5.34,1.62,7.33,1.08,1.99,2.53,3.5,4.36,4.53,1.83,1.03,3.89,1.55,6.18,1.55.85,0,1.72-.08,2.61-.25.89-.16,1.71-.4,2.46-.7.75-.3,1.31-.66,1.7-1.07l-.67,1.45v-9.2l-4.07-.81v-.56h8.75v.56l-2.56.77v7.77Z"/>
    <path d="M892.09,336.61v-.56l3.31-.77v-23.92l-3.31-.77v-.56h5.44v26.58h-5.44ZM914.98,322.98c0-3.91-1.24-6.84-3.71-8.78-2.47-1.94-5.93-2.91-10.37-2.91h-5.02l.24-1.27h5.79c3.4,0,6.23.49,8.51,1.46,2.27.97,3.99,2.41,5.15,4.3,1.16,1.9,1.74,4.24,1.74,7.01,0,3-.67,5.53-2,7.58-1.34,2.05-3.16,3.6-5.46,4.65-2.3,1.05-4.91,1.58-7.82,1.58h-5.91l-.24-1.27h5.57c2.74,0,5.12-.42,7.15-1.26,2.03-.84,3.6-2.17,4.71-3.99,1.11-1.82,1.67-4.19,1.67-7.11Z"/>
    <path d="M943.47,335.28l3.23.77v.56h-8.91v-.56l3.41-.77-9.24-23.25h.83l-8.95,23.25,3.35.77v.56h-7.99v-.56l3.27-.77,10.04-25.65h.61l10.34,25.65ZM926.69,326.02v-1.23h12v1.23h-12Z"/>
    <path d="M947.53,311.36l-3.23-.77v-.56h9.24v.56l-3.37.77,8.83,13.13-.85-.02,7.52-13.11-3.35-.77v-.56h8.05v.56l-3.29.77-8.05,13.63v10.29l3.31.77v.56h-8.75v-.56l3.31-.77v-10.22l-9.36-13.71Z"/>
    <path d="M987.84,311.12l-1.63-.46,1.61-1.63h.24l1.27,8.47-.61.1-2.84-6.17,1.37,1.63c-1.02-.9-1.95-1.52-2.79-1.87-.84-.35-1.73-.53-2.67-.53-1.84,0-3.22.45-4.15,1.36-.93.91-1.39,2.01-1.39,3.3,0,.93.18,1.71.54,2.35.36.64.85,1.19,1.48,1.65.63.46,1.34.86,2.13,1.21.79.35,1.62.7,2.48,1.04.87.34,1.74.71,2.59,1.11.85.4,1.64.88,2.35,1.46.72.58,1.29,1.29,1.72,2.13.43.85.64,1.88.64,3.12,0,1.68-.38,3.08-1.13,4.2-.75,1.12-1.8,1.97-3.14,2.55-1.33.58-2.89.86-4.68.86-1.2,0-2.28-.08-3.21-.23-.94-.15-1.9-.41-2.9-.78l-1.55-6.69h.79l3.67,6.78-2.34-1.61c.95.54,1.87.91,2.74,1.11.87.2,1.76.3,2.66.3,1.45,0,2.73-.2,3.83-.6,1.1-.4,1.95-1.01,2.57-1.85.61-.84.92-1.91.92-3.22,0-1.1-.23-2.01-.68-2.75-.45-.73-1.04-1.35-1.79-1.85-.74-.5-1.55-.92-2.42-1.28-.87-.36-1.74-.72-2.6-1.07-.86-.36-1.67-.74-2.44-1.15-.77-.41-1.44-.88-2.02-1.42-.58-.54-1.04-1.18-1.37-1.93-.33-.75-.5-1.65-.5-2.7,0-1.3.3-2.43.9-3.39.6-.97,1.47-1.72,2.6-2.25,1.13-.54,2.47-.8,4.02-.8,1.14,0,2.15.13,3.04.39.89.26,1.78.62,2.67,1.1Z"/>
  </g>
  <g>
    <g>
      <path d="M118.29,416.6c-.12-.12-.46-.29-.86-.34-.29-.17-.52-.29-.52-.34,0,0-.29-.12-.52-.17-.69-.29-1.89-1.72-2.01-2.41,0-.11-.06-.11-.06-.11-.17-.17-.17-2.07,0-2.47.23-.52,1.03-1.66,1.2-1.66.06,0,.17-.06.17-.17,0-.06.06-.17.17-.23l.57-.46c.29-.17.63-.23.8-.23,0-.12.17-.17.17-.29,0-.06.06-.17.23-.17s.34-.06.46-.17c0-.06.17-.06.23-.06.17,0,.52-.17.69-.17,1.2-.69,6.02-1.15,8.09-.86l1.38.17c.17,0,.97.06,1.49.34.57.17,1.43.34,1.89.4.92.29,3.5,1.21,3.5,1.38.12.12.17.17.29.17.06,0,.57.12.92.29q.98.52,1.2.17c.69-.63,2.35-2.35,2.41-2.52,0-.06.17-.06.29-.06.06,0,.23-.11.23-.17,0-.12.34-.52.86-1.03,1.89-1.89,3.79-4.24,3.9-4.42,0-.06.17-.23.23-.34.63-.86,2.75-3.44,2.93-3.84,0-.17.29-.46.46-.52.17-.12.34-.34.34-.46,0-.06,0-.23.17-.52.69-.86.74-.92.74-1.03,0-.06.17-.17.29-.34.52-.4.75-.92,1.03-1.44.17-.29.34-.52.57-.8l.46-.4-.63-.11c-1.2-.06-2.98-.75-3.96-1.09-1.43-.69-1.89-.86-1.95-1.03,0-.12-.17-.12-.29-.12-.06,0-.17,0-.17-.06,0-.11-.17-.17-.34-.29-.52-.23-2.3-1.89-3.1-2.75-.75-.92-1.38-1.95-1.38-2.12,0-.12-.17-.34-.34-.63-.17-.34-.35-.57-.35-.74l-.17-.63c-.52-.86-.52-4.47-.06-5.68,0-.17.06-.57.23-1.09.17-.34.29-.98.35-1.03.17-.11.34-.69.69-1.15.29-.57.52-.92.52-.92.12,0,.17-.29.29-.52.52-.8,3.27-3.61,3.96-3.96.23-.12.4-.17.4-.29,0-.17,2.35-1.38,2.7-1.38.17,0,.23,0,.23-.17.11-.06.29-.06.34-.06.12.06.29,0,.35-.12.11,0,.52-.17,1.15-.34,1.03-.06,1.38-.06,2.58.12.92.17,2.07.69,2.75,1.2.58.52,1.2,1.38,1.09,1.55-.06.06,0,.17.11.23.52.17.69,2.87.4,3.56-.06.17-.06.34-.06.34.06.06,0,.23-.17.4l-.17.52c0,.17-.29.69-.52,1.32-.86,1.38-4.13,4.82-4.76,4.82,0,0-.17.06-.23.23-.17.29-1.49,1.03-1.66,1.03-.58,0-.17-.4.97-1.26.92-.52,2.12-1.15,2.98-2.24,1.32-1.32,2.24-2.7,2.18-3.04,0-.06.17-.34.23-.4.11-.29.34-.8.46-1.32l.17-1.2c.06-.34.06-1.95-.8-3.27-.17-.23-.4-.52-.74-.69-.17-.23-.63-.57-.8-.69-.86-.69-4.13-.92-5.39-.17-.29.17-.46.17-.52.17,0,0-.17.12-.34.17l-1.15.86c-1.72,1.2-3.33,2.87-4.3,4.42-.4.86-1.2,2.81-1.2,2.98,0,.11-.06.34-.17.52-.17.29-.23.52-.23.69v1.55c-.12,1.66.06,3.56.74,5.1.29.57.46,1.2.52,1.26.12.17.17.34.34.52.46.98,2.41,2.93,3.96,3.96.86.69,3.38,1.89,4.3,2.01,1.03.23,1.72.23,1.84,0,.17-.63,1.89-2.93,2.29-3.38.34-.23.63-.69.8-.92.17-.34.4-.8.69-.98.52-.52.92-1.09.92-1.09,0-.12.34-.46.63-.8.34-.23.74-1.03,1.2-1.43.34-.46.92-1.15,1.21-1.38.57-.8,1.38-1.72,3.32-3.9,1.21-1.26,3.04-3.1,3.27-3.1.11,0,.11-.06.11-.17,0-.06,0-.17.06-.17.11,0,.34-.17.63-.4.17-.29.69-.63,1.03-.86,1.43-1.15,2.58-1.89,2.58-1.89.17,0,.4-.29.69-.34.4-.34,1.09-.52,1.95-.98l.98-.52c.17-.06.57-.17,1.03-.23.4,0,.75-.11.86-.17.17-.12,2.12-.12,2.64,0,.8.06,1.55.52,2.24.92.52.63.98,1.38.98,1.49-.11.06-.11.17,0,.23.17.12.17,1.55,0,2.35-.34.92-.69,1.89-.86,2.06-.17.06-.29.23-.29.4,0,.11-.06.17-.17.17-.06,0-.06.12-.06.17-.12.69-4.07,5.1-6.65,7.05-.34.34-.92.8-1.2,1.03-1.09.86-2.47,1.89-3.1,2.24-.23.17-.57.46-.75.46-.17.17-.46.34-.52.4l-.52.34c-.29.17-3.04,1.72-3.21,1.72-.06,0-.52.17-1.03.34-.52.29-1.03.63-1.2.63-.06,0-.52.06-.74.23-.29.12-.69.29-.86.29-.11,0-.29.06-.34.23-.46.34-3.56.97-5.33,1.15-.34,0-.69.23-1.2.92-.34.46-.63,1.15-.86,1.2-.17.29-.34.63-.34.8-.17.23-1.49,2.41-2.01,3.1l-1.26,1.78c-.52.63-1.15,1.49-1.15,1.49,0,.06-.23.34-.52.69-.57.75-2.24,2.93-2.41,2.93-.06,0-.34.17-.57.69-.34.34-.69.75-.86.86-.17,0-.29.17-.29.23,0,0-.34.46-.75.86-.46.29-.98.69-1.15.86l-1.26,1.49c-.63.69-1.32,1.03-1.2,1.2,0,.06-.12.23-.17.34-.12.06,0,.23.34.4.34.17.57.29.57.34.12.11,2.24,1.32,3.1,1.66.34.06,1.21.52,1.32.58.23.11.4.17.52.17,0,0,.17.12.23.12.29.06,1.49.52,1.72.52.12,0,.34.06.52.17.29.06.46.06.46.17.06,0,.57,0,.92.06,2.18.29,5.1.17,5.79-.17.06-.06.4-.23.86-.34.34-.06.86-.23,1.2-.4,1.43-.69,2.58-1.32,2.75-1.49.06-.06.23-.34.52-.34,3.16-2.24,6.08-5.39,9.01-9.18,1.15-1.21,1.72-2.01,1.89-2.24.46-.52.69-.52.69-.12,0,.12-.52.86-.57,1.03-.86,1.32-1.72,2.24-1.84,2.35-2.24,2.75-4.47,5.68-8.78,8.78-1.78,1.21-4.3,2.41-5.85,2.75-.92.17-1.38.17-3.1.23-1.72,0-2.64-.06-4.19-.4-.46-.12-1.03-.29-1.2-.29-.29-.06-.52-.17-.63-.23-.06,0-.23-.12-.4-.12s-.34,0-.46-.06c0-.11-.23-.29-.52-.29-.23-.06-1.38-.52-2.41-1.09-1.2-.52-2.12-.98-2.12-.98l-.8-.4-.69-.46-.57.29c-.29.06-.86.57-1.49.92-.52.34-1.43.86-2.06,1.2-.52.17-1.09.52-1.26.69-1.49.8-5.51,1.84-6.88,1.84-.34,0-.97.06-1.32.17-1.43.46-6.77.23-7.8-.17ZM125.92,415.62c.63-.06,2.35-.52,3.1-.86l.63-.23c.86-.34,2.92-1.32,3.33-1.66.29-.23.52-.34.63-.34,0,0,.4-.23.86-.69.4-.34.92-.57,1.03-.57q.06,0,.06-.12c0-.06.17-.34.52-.52.29-.17.46-.34.46-.34,0-.17-1.49-.86-1.72-.86-.12,0-.17-.06-.29-.17-.06-.06-.57-.23-1.09-.4-.46-.17-1.03-.34-1.2-.46-.17-.06-.69-.23-2.01-.52-.92-.23-2.06-.4-2.98-.52-3.38-.23-7,.11-8.78,1.03-.34.17-.69.34-.8.34-.06,0-.34.29-.86.63l-.75.57c-.29,0-.86,1.66-.86,2.18.17,1.72,1.95,3.1,4.65,3.61,1.26.17,4.7.17,5.16.06.06-.06.52-.17.92-.17ZM158.55,390.33c1.03-.17,3.16-.58,3.84-1.03l.98-.34c.34,0,.69-.06.74-.17l.8-.52c.57-.17,3.44-1.6,4.3-2.12.17-.17.69-.46.92-.63.35-.23.86-.52,1.03-.69.17-.23.46-.4.52-.4.12,0,.86-.46,1.15-.86.06-.12.23-.17.34-.17.17,0,1.95-1.38,2.75-2.24.23-.29.4-.46.52-.46.17,0,4.3-4.3,4.3-4.47,0-.06.06-.06.17-.23.52-.69,1.2-1.66,1.2-1.72,0-.12.06-.34.17-.52.34-.34.69-2.01.69-2.58-.11-1.15-1.03-2.24-2.18-2.58-.75-.17-2.12-.29-2.93-.17-1.78.34-4.3,1.72-6.42,3.44-1.84,1.38-6.02,5.74-6.14,6.25l-.52.63-1.38,1.95c-.4.8-1.09,1.72-1.38,2.18-.34.52-.69.92-.69.92,0,.12-1.26,2.06-1.72,2.7l-.06.23c0,.12-.29.52-.52.8-.29.52-1.03,1.6-1.84,2.92-.06.06,0,.17.12.06.17-.06.74-.17,1.2-.17Z"/>
      <path d="M176.11,415.91c-.34-.69-.06-1.66.11-2.41.06-.12.23-.8-.11-.52-.52.34-.92.92-1.44,1.44-1.2,1.15-2.18,2.01-3.73,2.41-1.84.57-4.24.57-4.82-1.38-.35-1.2-.69-2.98-.17-4.13l.86-2.06,1.09-2.24c.63-1.03,1.32-2.06,2.07-2.98l1.03-1.38c.63-.8,1.32-1.38,1.95-2.18,1.38-1.43,2.93-3.1,4.65-4.13,1.09-.52,2.64-.92,3.84-1.09,1.55-.17,2.93.58,3.04,2.24l.06,1.43c0,.29.12.46.12.46.52.06,1.55-2.41,2.24-2.87.52-.4,1.38-.34,1.95-.06.52.23.63.58.34,1.09-.57,1.03-1.55,1.84-2.24,2.75-.69.98-1.26,2.01-1.95,2.87-.8,1.09-1.38,2.29-2.24,3.33-.86,1.49-1.89,2.7-2.75,4.13-.8,1.15-1.49,2.35-1.89,3.79-.69,3.04,1.95,1.55,3.16.46,1.38-1.03,2.7-2.18,3.73-3.56.4-.52.86-1.03,1.38-1.55,1.38-1.72,2.81-3.5,4.19-5.33.86-1.03,1.2-1.38,2.01-2.41.23-.34.4-.69.74-.92.17-.11.35-.17.35,0,0,.34-.17.86-.4,1.09l-3.56,4.47c-1.43,1.89-3.16,4.07-4.88,5.97-1.03,1.09-2.18,2.47-3.44,3.33-.98.63-2.07,1.43-3.27,1.32-.8-.06-1.66-.63-2.01-1.38ZM172.84,415.11c1.32-1.09,2.18-1.89,3.1-2.98,1.38-1.72,1.32-1.55,2.07-2.75l2.58-4.07c.69-.92,1.38-2.07,1.49-2.07l.06-.17.52-.86.69-1.09c.34-.63.29-1.49.17-2.18,0-.69-.17-1.43-.75-1.89-.34-.34-.63-.34-1.03-.17-.52.12-1.32.69-1.55.86l-.34.29c-.17,0-5.85,5.51-6.31,6.08l-.57.8c-1.49,1.78-2.35,2.98-3.33,4.53l-.57.98-.29.69-.58,1.55c-.17.4-.29.74-.29,1.26-.06.52-.06,1.66.35,2.01.52.57,1.03.4,1.84.34.92-.12,2.06-.52,2.75-1.15Z"/>
      <path d="M206.4,401.34c0,.17-.75,1.15-1.55,2.01-.86.92-1.78,2.06-2.06,2.41l-.92,1.03-3.38,3.61c-.92,1.26-3.96,4.13-4.99,4.88-1.32.86-1.66,1.03-2.93,1.55-.92.4-3.67.69-4.93.29-1.55-.12-3.1-1.38-3.16-2.58,0-.69.06-1.84.34-2.06.06,0,.17-.69.34-.98.34-.74,1.38-1.38,1.95-1.38.8,0,1.38.98.86,1.72-.34.63-1.21,1.15-1.78,1.15-.52.06-.8.17-.8.23-.4.69-.57,2.24.34,2.75,1.49.8,2.41.69,3.04.46,1.2-.63,2.81-2.52,3.67-3.61,1.49-1.89,2.01-2.75,2.58-4.13.17-.29.34-.63.34-.69l.12-.34c.34-1.49.8-3.27.8-5.85,0-.86,0-.8-.12-.8-.06,0,0-.06-.23.34-.17.29-.74.86-1.32,1.55-1.32,1.55-1.32.63-.46-.34.46-.69.86-1.2,1.03-1.38.4-.57.8-1.03.98-1.09,0-.12.12-.46.29-.69.06-.29.34-.98.74-1.84.98-2.24,1.55-3.33,2.58-3.84,1.32-.86,1.89.17,1.15,1.95-.52,1.15-2.58,2.7-2.75,2.87,0,0-.52.34-.63.57l-.17.63v3.1c0,1.2.17,1.95.17,3.15-.34,4.3-1.2,6.14-3.04,8.09-.86.98-1.6,1.61-2.29,2.01.92-.23,2.35-.63,4.76-2.87l2.06-2.07,1.61-1.72c.46-.57,1.03-1.2,1.32-1.55.23-.17.86-.86,1.43-1.55l1.03-1.2c.11-.06.52-.57,1.15-1.2.52-.69,1.09-1.38,1.38-1.55.17-.34.52-.74.75-1.03.52-.58.86-.58.69,0Z"/>
      <path d="M294.5,374.67c0,.52-.57,2.01-1.03,2.24-.4.46-.57.12-.23-.52.17-.34.34-.92.4-1.38.11-.58.11-.75-.23-.92-.69-.46-1.89-.46-3.61,0-.17,0-.52.06-.8.17-.75.17-2.81,1.09-3.33,1.43-.29.17-.52.34-.63.34l-.75.46c-.34.17-.8.52-.8.52-.06,0-.23.06-.4.23l-.8.52c-.92.69-4.13,3.1-4.53,3.56-.17.17-.46.4-.52.4,0,0-.46.34-.86.8l-2.06,1.78c-3.21,2.75-7.17,7.05-10.32,10.84-.69.8-1.21,1.49-1.38,1.55l-.98,1.2c-.52.63-.92,1.03-1.03,1.03-.06,0-.06.12-.06.17,0,.17-.8,1.15-1.55,1.89-.12.17-.29.34-.29.34,0,.17-1.55,2.24-1.72,2.35-.06,0-.17.06-.17.23,0,.12-.52.86-1.26,1.72-.69.98-1.84,2.41-2.52,3.27-2.81,3.56-5.74,6.71-7.4,8.03-.52.34-.92.69-1.03.8-.06.17-.17.23-.34.23-.06,0-.34.17-.57.34-.52.46-2.24.98-2.75.86-.8-.17-1.72-.92-2.01-1.55-.06-.23-.17-1.38-.17-2.41,0-1.66.12-2.18.46-3.27.4-1.38,1.72-4.13,2.12-4.59.17-.23.98-1.26.98-1.38,0,0,.17-.23.34-.4s.4-.52.58-.8c.17-.17.34-.4.34-.52l.17-.23c.17-.17.52-.52.8-.98.34-.34.75-.92,1.03-1.2.17-.23.52-.57.57-.86.17-.23,2.35-2.64,2.35-2.81,0-.12.06-.17.23-.29.11-.06.17-.17.17-.34,0-.06.17-.23.29-.23.17-.12.23-.29.23-.34,0-.12.12-.29.17-.29.11,0,.34-.23.52-.52.29-.34.63-.86.8-1.03.23-.23.4-.52.4-.52,0-.17,1.32-1.72,1.49-1.78.06-.11.06-.17.06-.17,0-.29,1.32-2.06,1.49-2.06.06,0,.17-.17.17-.34l.34-.52c.06-.17.4-.69.69-1.15.23-.4.52-.74.57-.74,0,0,.12-.12.12-.29s.06-.4.23-.69c.98-1.26,2.7-4.99,3.04-6.54.75-2.98.86-4.99.34-7.05-.17-.86-.52-1.72-.8-2.06-.4-.75-1.61-1.89-2.07-2.06-.23-.06-.4-.23-.4-.23-.12-.11-.69-.34-1.38-.63-2.06-.58-5.28-.58-8.37.11-1.2.23-2.64.69-2.92.86-.17,0-.75.23-1.38.52-1.78.69-1.95.74-2.81,1.2-.29.17-.8.4-1.2.57-1.55.86-4.82,2.92-5.85,3.9-.29.23-.52.4-.63.4-.17,0-3.96,3.9-4.47,4.65-.57.86-.69,1.15-1.09,1.55-.17.17-.29.34-.29.34,0,.12-.4.8-.74,1.55l-.8,1.84c0,.17-.06.4-.06.52-.12.06-.63.86-.8,1.89,0,.52-.06,1.09-.06,1.38v.69c0,.52,0,1.09.06,1.43l.34,1.15c.11.23.17.52.29.75l.23.29c.8.74,1.32,1.38,2.18,1.61,1.61.63,4.53.63,6.37-.34.75-.23,1.61-.75,2.41-1.38,1.03-.52,2.06-1.26,2.75-1.78,2.07-1.84,2.98-2.7,5.05-5.51,1.55-2.06,2.7-3.9,3.61-6.31.29-.4.86-3.44,1.2-2.64.29.75-.23,1.61-.57,2.75-.46.92-.8,1.78-1.32,2.75-.17.23-.52.57-.57.92-.86,1.55-2.75,4.13-3.78,5.33-1.72,2.01-4.47,4.24-6.71,5.45-.46.34-1.32.69-1.72.92-1.03.52-4.07,1.03-5.62.86-.52-.06-.86-.17-1.38-.57l-1.2-.46c-.06-.06-.23-.23-.4-.52-.17.34-.63-.23-.63-.69-.06-.06-.17-.17-.17-.23-.06,0-.06-.11-.17-.17,0-.12-.06-.17-.17-.29-.4-1.09-.69-2.58-.69-3.44,0-.52.12-1.03.17-1.55.11-.4.11-.74.17-1.03.29-1.55.52-2.24,1.15-3.33l.17-.63c0-.06.34-.69.69-1.26.4-.52.86-1.2.92-1.55.17-.29.35-.52.46-.52l1.03-1.2c.52-.63,1.43-1.66,2.12-2.24.69-.69,1.38-1.32,1.49-1.38.06-.11.52-.46.92-.69.34-.34.69-.63.69-.69.11-.12.17-.12.29-.12.06,0,.4-.23,1.38-.92.06-.12.23-.17.34-.17.06,0,.17-.12.17-.17,0-.12,0-.17.06-.17.12,0,.63-.29,1.03-.52.86-.52,4.93-2.52,6.02-3.04.69-.23,2.58-.86,3.1-.92.12-.11.52-.17.86-.29.34-.06.8-.17.98-.23.17,0,.52-.12.75-.17.29,0,1.03-.17,1.66-.17,1.44-.17,3.67-.12,4.53.06,1.72.29,4.47,1.55,5.45,2.41.75.69,2.07,2.7,2.24,3.44.17.46.23.86.34.98.06.06.17,1.03.23,2.12.12,2.58-.4,6.37-1.03,7.92-.57,1.38-1.2,2.75-1.38,2.92-.06.17-.4.63-.57,1.03-.29.46-.63.98-.8,1.15l-.69,1.03c-.23.4-.52.74-.52.74-.34.34-3.33,4.47-4.02,5.68-.46.63-1.15,1.55-1.55,1.89-.17.17-.29.34-.29.46,0,.17-1.44,2.06-1.78,2.24-.17.17-.29.34-.29.4,0,.12-.75,1.03-1.61,2.18-.86,1.09-1.66,2.07-1.72,2.12-1.15,1.38-1.38,1.72-1.38,1.89-.11.29-.63.86-1.55,2.06-.86.98-1.89,2.87-2.52,4.3-.4,1.03-.69,2.98-.52,3.73.12.46.17.46.86.46,1.49,0,3.44-1.32,6.48-4.42,1.78-1.84,1.78-2.06,3.96-4.47l1.38-1.55c.06,0,.06-.12.06-.17,0-.17,2.75-3.73,2.93-3.78.12,0,.12-.12.12-.17,0-.17.23-.46.52-.8.23-.23.4-.52.4-.52,0-.17.52-.75.86-1.03.17-.17.29-.34.29-.4,0-.11.23-.34.52-.63l.52-.74c.06-.17.17-.29.23-.29.12,0,.29-.23.35-.52.17-.23.52-.69.8-.86.23-.23.57-.69.69-.86.06-.23.35-.57.58-.75.17-.29,1.03-1.2,1.89-2.24,1.89-2.18,1.66-1.84,3.44-3.79,2.7-2.87,6.37-6.48,8.55-8.37,1.95-1.72,2.47-2.12,3.61-2.98.75-.63,1.55-1.2,1.72-1.32.17-.17.86-.57,1.43-.92.52-.46,1.32-.98,1.72-1.15.34-.17.69-.4.8-.52.17-.17.34-.23.4-.23.17,0,.63-.17,1.03-.46,1.03-.52,1.89-.86,2.35-.92.17,0,.69-.17,1.21-.34,1.55-.34,2.98-.34,3.67.06.63.46.86.8.86,1.38Z"/>
      <path d="M263.82,417l-.69-.4c-.46-.17-1.32-1.2-1.72-1.84-.46-.86-.34-3.27.06-4.82.46-.92,1.72-4.01,2.01-4.19.17-.17,1.03-1.32,1.09-1.49,0-.06.17-.52.52-.86.34-.34,1.03-1.09,1.55-1.78.46-.69.86-1.15.86-1.15.12-.06.29-.34.63-.57,2.52-2.41,4.13-3.27,7.05-4.24,1.32-.23,2.35-.23,2.92.29.46.4.69.92.46,1.95-.17.8-1.03,2.35-2.01,3.44-.92.86-1.78,1.66-2.92,2.06-.75.63-1.55.98-2.41,1.32-1.03.52-2.12,1.09-3.1,1.43-.86.17-1.49.11-2.01,1.03-.17.29-.34.69-.4.86-.12.17-.12.29-.17.34-1.15,1.49-2.87,5.45-2.01,6.82.46.86,1.32,1.2,2.87,1.09.75-.06,1.38-.17,1.89-.4l.98-.46c.69-.34,2.64-1.78,3.61-2.47,2.75-2.18,6.54-6.19,7.4-7.23.23-.29.92-1.2,1.38-1.72l2.93-3.56c.17-.17.4.29.17.63-1.2,1.55-4.99,6.37-7.51,8.95-.34.4-4.53,4.02-4.82,4.36-.4.34-1.38.98-2.07,1.32-.57.34-1.26.69-1.43.69-.12.06-.34.23-.69.34-.34,0-.63.17-.74.23-.34.29-3.44.29-3.67,0ZM271.04,403.75c.86-.34,1.66-.75,1.72-.75,0-.11.69-.52,1.15-.8,2.75-1.89,3.61-3.44,3.96-4.88.17-.63.06-.69-.17-.86-.46-.29-1.84-.11-2.58.23-.69.46-1.84,1.15-3.44,2.58-.63.52-1.32,1.55-2.18,2.75,0,.12-.52.86-1.09,1.55-.63.8-1.09,1.55-.98,1.55.06.17,1.89-.34,3.61-1.38Z"/>
      <path d="M264.51,438.62c-.34,0-1.2-.57-1.43-.92-.12-.17-.29-.46-.34-.46-.17-.17-.34-1.09-.34-1.89,0-.4-.12-.86-.12-.92-.06-.11-.06-.17,0-.34.12-.12.17-.34.17-.63,0-1.03,1.2-2.98,2.52-4.13.86-.74,2.06-1.78,3.84-2.81,2.06-1.2,2.87-1.66,4.24-2.06,2.3-.69,4.36-1.49,4.99-1.66.23-.06.52-.17.69-.17s.34-.06.52-.23c.17-.12.57-.29.92-.34.69-.17.8-.29,1.55-1.32.46-.52.98-1.2,1.03-1.43.17-.29.35-.52.46-.52,0,0,.23-.29.4-.63.17-.4.75-1.38,1.26-2.01.4-.69.86-1.43.92-1.61.17-.29.29-.52.34-.52.12,0,.12-.11.12-.17,0-.12.06-.29.23-.34.11-.12.29-.46.46-.63.06-.23.34-.57.4-.75.17-.29.17-.34.11-.34-.11,0-.17,0-.17.06,0,.17-1.66,1.89-3.16,3.21-1.09,1.03-3.15,2.06-4.3,2.18-1.09.17-1.72-.23-2.81-1.15-.63-.69-.69-.86-.8-1.72-.06-.63.29-2.58.52-2.87,0-.06.12-.17.12-.23,0-.34,1.43-2.87,1.95-3.79l.52-.97c0-.06.17-.23.34-.4.29-.29.52-.63.8-.98.17-.23.4-.57.57-.74.29-.17.34-.34.34-.46l.29-.4.86-.97c.92-1.03,1.6-1.72,2.7-2.64.4-.34.86-.8.92-.8.17-.23,1.84-1.55,2.35-1.78.23-.12.69-.34.92-.63.52-.34,2.06-.92,3.04-1.2,1.26-.34,2.64-.06,3.44.69.57.63.69,1.66.34,2.75-.12.46-.17.69-.12.52.12-.06.34-.4.46-.57l.52-.8c.06-.17.52-.69.86-1.26q.69-.8,1.38-.8c.34,0,.74,0,.92-.06,1.38-.29,1.66,0,.46,1.26-1.32,1.38-2.06,2.41-4.24,5.45l-1.78,2.58c-1.32,1.55-2.07,2.92-2.87,4.36-.06.17-.23.34-.23.34-.12,0-.29.12-.29.12,0,.06-.23.75-.69,1.38l-1.55,2.24c-.34.69-.74,1.26-.86,1.38,0,.06-.52.74-1.03,1.55-.4.69-1.03,1.84-1.38,2.24-.23.46-.52.86-.52.98,0,.17.34.17.52,0,.11-.11.69-.46,1.32-.8,2.58-1.2,3.84-2.06,5.68-3.44.57-.34,1.09-.69,1.2-.69.06,0,.17-.17.34-.29.06-.17.69-.69,1.2-1.03,1.38-1.09,3.96-3.67,4.7-4.88.17-.17.52-.69.86-1.03.35-.52,1.32-1.55,2.01-2.52.57-.92,1.38-1.78,1.55-1.89.06-.06.17-.17.17-.23,0-.11.06-.29.23-.34.46-.46,1.2-1.66,1.38-1.84.29-.34.52-.06.46.17-.17.63-.69,1.15-1.2,1.84l-1.03,1.38c-.46.52-.8,1.03-.86,1.03l-.8,1.03c-.52.58-.86,1.26-1.03,1.26-.06.17-.34.29-.34.34,0,.29-2.41,3.21-3.67,4.3-.98.98-2.24,2.18-2.52,2.24-.06,0-.34.17-.52.46-.34.17-.57.4-.69.4-.17,0-.23,0-.23.12,0,.17-2.7,2.06-3.27,2.41l-.52.29c-.46.34-3.38,1.78-4.59,2.41-.74.4-1.38.86-1.66,1.2-.57.69-1.72,2.29-1.72,2.41,0,.17-1.61,2.47-2.75,3.79l-2.41,3.1c-2.29,2.98-2.64,3.61-3.67,4.47l-1.38,1.09c-.8.69-2.18,1.49-3.56,2.24-1.2.46-2.46.52-3.27.12-.34-.17-.57-.29-.69-.29ZM267.77,437.36s.17-.17.35-.17c.29-.11,1.15-.86,1.55-1.15l.69-.52c1.55-1.2,2.58-2.24,3.27-3.33.34-.46.69-.86.86-1.03.11-.12.46-.52.69-.98l1.66-2.29c.69-1.03,1.43-2.07,1.55-2.24.34-.46.4-.69.86-1.15.23-.4,1.09-1.61,1.09-1.72,0-.06-.06-.06-2.41.8-1.38.4-2.92,1.03-3.61,1.2-1.95.52-3.1,1.03-4.47,1.89-.34.23-.69.4-.69.4-.17,0-3.15,2.24-3.67,2.75-1.15,1.03-1.32,1.15-1.89,2.52-.46.86-.52,1.26-.63,2.12-.06,2.06.63,3.21,2.07,3.44.46.12,1.03.29,1.32.12.52-.12,1.43-.52,1.43-.69ZM282.17,415.62c.35-.06,1.61-1.09,2.07-1.43.63-.52,2.01-1.89,2.01-2.01,0-.06.23-.23,1.09-1.26l.52-.63c0-.06.11-.17.29-.34.92-.92,2.41-2.98,3.44-4.47.34-.52.69-1.03.86-1.09.06-.12.17-.17.17-.34,0-.12,0-.17.06-.17.12,0,.34-.46.63-.8.23-.4.57-.86.75-1.03.11-.17.29-.34.29-.4,0-.12.17-.46.34-.8.69-.92.86-1.26,1.03-2.12.34-1.32.17-2.01-.69-2.35q-.63-.17-1.32-.06c-1.26.17-2.12.52-3.27,1.38-1.78,1.38-3.96,3.67-5.51,5.68l-1.03,1.26c-.46.52-.8,1.03-.86,1.2-.17.17-.46.63-.69.98-.29.34-.52.74-.52.86l-.86,1.26c-1.03,1.49-1.38,2.18-1.84,2.92-.17.46-.35.69-.35.8-.17.06-.34.57-.4.92,0,0-.12.46-.29.97-.17.58-.17.75,0,.92.11.17.17.34.11.46,0,.17.75.52,1.38.57.23,0,2.06-.52,2.58-.86Z"/>
      <path d="M309.88,415.91c-.34-.69-.06-1.66.12-2.41.06-.12.23-.8-.12-.52-.52.34-.92.92-1.43,1.44-1.21,1.15-2.18,2.01-3.73,2.41-1.84.57-4.24.57-4.82-1.38-.34-1.2-.69-2.98-.17-4.13l.86-2.06,1.09-2.24c.63-1.03,1.32-2.06,2.06-2.98l1.03-1.38c.63-.8,1.32-1.38,1.95-2.18,1.38-1.43,2.93-3.1,4.65-4.13,1.09-.52,2.64-.92,3.84-1.09,1.55-.17,2.92.58,3.04,2.24l.06,1.43c0,.29.11.46.11.46.52.06,1.55-2.41,2.24-2.87.52-.4,1.38-.34,1.95-.06.52.23.63.58.34,1.09-.57,1.03-1.55,1.84-2.24,2.75-.69.98-1.26,2.01-1.95,2.87-.8,1.09-1.38,2.29-2.24,3.33-.86,1.49-1.89,2.7-2.75,4.13-.8,1.15-1.49,2.35-1.89,3.79-.69,3.04,1.95,1.55,3.16.46,1.38-1.03,2.7-2.18,3.73-3.56.4-.52.86-1.03,1.38-1.55,1.38-1.72,2.81-3.5,4.19-5.33.86-1.03,1.2-1.38,2.01-2.41.23-.34.4-.69.75-.92.17-.11.34-.17.34,0,0,.34-.17.86-.4,1.09l-3.56,4.47c-1.43,1.89-3.15,4.07-4.87,5.97-1.03,1.09-2.18,2.47-3.44,3.33-.98.63-2.06,1.43-3.27,1.32-.8-.06-1.66-.63-2.01-1.38ZM306.61,415.11c1.32-1.09,2.18-1.89,3.1-2.98,1.38-1.72,1.32-1.55,2.06-2.75l2.58-4.07c.69-.92,1.38-2.07,1.49-2.07l.06-.17.52-.86.69-1.09c.34-.63.29-1.49.17-2.18,0-.69-.17-1.43-.75-1.89-.34-.34-.63-.34-1.03-.17-.52.12-1.32.69-1.55.86l-.34.29c-.17,0-5.85,5.51-6.31,6.08l-.58.8c-1.49,1.78-2.35,2.98-3.33,4.53l-.57.98-.29.69-.57,1.55c-.17.4-.29.74-.29,1.26-.06.52-.06,1.66.34,2.01.52.57,1.03.4,1.84.34.92-.12,2.06-.52,2.75-1.15Z"/>
      <path d="M340.16,401.34c0,.17-.74,1.15-1.55,2.01-.86.92-1.78,2.06-2.06,2.41l-.92,1.03-3.38,3.61c-.92,1.26-3.96,4.13-4.99,4.88-1.32.86-1.66,1.03-2.92,1.55-.92.4-3.67.69-4.93.29-1.55-.12-3.1-1.38-3.16-2.58,0-.69.06-1.84.34-2.06.06,0,.17-.69.34-.98.34-.74,1.38-1.38,1.95-1.38.8,0,1.38.98.86,1.72-.34.63-1.2,1.15-1.78,1.15-.52.06-.8.17-.8.23-.4.69-.57,2.24.34,2.75,1.49.8,2.41.69,3.04.46,1.2-.63,2.81-2.52,3.67-3.61,1.49-1.89,2.01-2.75,2.58-4.13.17-.29.34-.63.34-.69l.11-.34c.34-1.49.8-3.27.8-5.85,0-.86,0-.8-.11-.8-.06,0,0-.06-.23.34-.17.29-.75.86-1.32,1.55-1.32,1.55-1.32.63-.46-.34.46-.69.86-1.2,1.03-1.38.4-.57.8-1.03.98-1.09,0-.12.11-.46.29-.69.06-.29.34-.98.75-1.84.98-2.24,1.55-3.33,2.58-3.84,1.32-.86,1.89.17,1.15,1.95-.52,1.15-2.58,2.7-2.75,2.87,0,0-.52.34-.63.57l-.17.63v3.1c0,1.2.17,1.95.17,3.15-.34,4.3-1.2,6.14-3.04,8.09-.86.98-1.61,1.61-2.3,2.01.92-.23,2.35-.63,4.76-2.87l2.07-2.07,1.6-1.72c.46-.57,1.03-1.2,1.32-1.55.23-.17.86-.86,1.44-1.55l1.03-1.2c.12-.06.52-.57,1.15-1.2.52-.69,1.09-1.38,1.38-1.55.17-.34.52-.74.74-1.03.52-.58.86-.58.69,0Z"/>
    </g>
    <g>
      <path d="M810.93,366.07c1.49.29,2.41.8,3.27,1.66.98,1.03,1.2,1.61,1.2,2.98,0,.98-.06,1.32-.4,2.06-.34.69-.52.86-.8.86-.17,0-.23-.06-.23-.23s0-.34.06-.34c.12-.12.17-.29.17-.52.11-.17.17-.63.29-.98.17-.75,0-1.95-.52-2.64-.8-1.15-2.35-2.01-4.13-2.06-1.03-.11-3.61.17-4.13.4-.86.52-2.41,1.2-2.52,1.2-.06,0-.4.17-.69.46-.34.23-.69.4-.75.4-.11,0-.46.29-.86.63-.46.34-1.15.86-1.55,1.2-.52.34-1.15.86-1.38,1.09-.29.34-.52.52-.63.52-.17,0-2.29,2.24-3.5,3.61-1.2,1.49-1.38,1.55-2.01,2.35-.23.34-.69.75-.74.86-.17.17-.29.34-.29.4,0,.12-.52.8-1.09,1.38-.17.17-.34.46-.34.52-.11.12-.63.8-1.2,1.55-.63.69-1.15,1.32-1.15,1.38,0,.11-.4.8-1.89,2.58-.06.29-.23.46-.23.52,0,.12-.12.17-.17.17-.11,0-.11.12-.11.29,0,.06-.06.23-.23.34-.11,0-.46.57-.86,1.09-.86,1.38-1.32,2.07-1.55,2.35-.11.17-.34.52-.52.86-.17.4-.46.74-.52.86-.17.23-1.49,2.24-1.89,2.98-.12.17-.29.52-.46.86-.52.8-2.06,3.61-2.81,5.16l-.52.97c-.11.06-.29.4-.46.75-.17.46-.34.69-.34.69-.06,0-.17.11-.17.17,0,.12-.4,1.2-1.03,2.41-.57,1.32-1.2,2.52-1.38,2.87-.17.34-.57,1.26-1.03,2.06-1.03,2.3-1.2,2.75-1.44,3.44-.11.34-.17.69-.34.86-.12.12-.17.34-.29.52-.23.8-1.21.52-1.03-.34.34-1.72.46-2.75.63-5.79.06-2.47.17-4.36.23-4.99.11-.34.11-1.09.17-1.89,0-.75.11-1.78.17-2.3.12-.52.17-1.15.17-1.2,0-.46.29-2.7.46-3.61.06-.46.17-.98.17-1.32.06-.23.17-.57.17-.86.06-.17.23-1.2.4-2.29.17-1.15.46-2.41.52-2.75.11-.46.17-1.03.29-1.38,0-.34.06-.86.17-1.03.06-.29.17-.46.17-.52-.12-.29.23-2.06.52-2.87.06-.06.06-.23.06-.4.12-.29.8-2.75,1.03-3.73.52-1.61,1.15-3.44,1.21-3.78.11-.17.29-.4.34-.58,0-.17.29-.63.46-1.03.92-2.06.92-2.24.75-2.24-.06,0-.17,0-.17.06,0,.12-.34.63-.75,1.03-.34.52-.69.97-.69,1.03,0,0-.29.29-.52.63-.29.23-.69.69-.86,1.03-.17.23-.34.52-.46.52l-.06.23c0,.17-.12.34-.17.34-.12,0-.29.29-.46.52-.17.34-.34.63-.52.69-.06,0-.17.17-.17.34,0,.12-.23.46-.4.69-.29.34-.46.63-.46.69,0,.17-.34.63-.57,1.15l-1.2,1.89c-.63.92-.69,1.09-1.32,2.06-.17.34-.52.86-.69,1.26-.17.34-.34.69-.4.69-.12,0-.17.11-.17.17,0,.12-.11.29-.17.29-.12.06-.29.23-.29.52-.06.23-.23.57-.4.75-.17.17-.34.52-.46.69-.06.29-.17.46-.23.46-.17,0-.8,1.09-.8,1.38,0,0-.17.34-.4.69-.29.34-.46.58-.46.69,0,.06,0,.17-.06.17-.12,0-.17.06-.17.17,0,.06-.29.52-.63.92-.23.46-.52.8-.52.8,0,.17-1.43,2.24-1.72,2.47-.06.12-.17.29-.17.34l-.69.98c-.34.52-.75,1.09-1.03,1.43-.17.29-.4.52-.52.63-.17,0-.23.17-.23.23,0,.11-1.38,1.89-1.89,2.52-.12.06-.52.52-.98,1.03-.92,1.09-2.41,2.58-3.96,3.96-1.61,1.43-1.78,1.72-1.89,1.72-.06,0-.4.17-.75.52-1.03.92-1.38,1.2-1.55,1.2,0,0-.11,0-.11.06,0,.11-.4.34-.92.69-.46.34-.86.63-.98.69,0,.12-.06.12-.23.12s-.46.23-.8.4c-.23.29-.58.46-.69.46-.17,0-.34.06-.4.23-.17.17-.98.52-2.35,1.2-1.26.52-4.64,1.15-4.82.8-.06-.12-.23-.17-.52-.17-.86,0-2.3-.69-2.64-1.32-.12-.06-.17-.17-.29-.17-.57,0-1.89-2.24-2.12-3.61-.29-1.61.57-4.3,1.38-4.13.23,0,.23.12.23.46,0,.23-.06.52-.23.57-.34.29-.63,1.84-.46,2.87,0,.52.17.92.29,1.03.06.06.06.23.06.4,0,.11.34.52.8.98.34.4.69.86.69.92,0,0,.06.11.23.11.12,0,.29.06.29.17.06.17.17.23.34.23s.34.12.34.17c.06,0,.57.17,1.03.34,1.2.29,2.81.17,4.19-.34,1.89-.69,4.59-2.06,5.79-2.98.86-.69,1.6-1.2,1.78-1.2.11,0,.17-.17.29-.29.06-.17.23-.34.34-.34.06,0,.34-.17.69-.52.23-.23.57-.4.69-.4.06,0,.17-.11.17-.17,0-.17,1.03-1.2,1.2-1.2s4.53-4.47,4.53-4.59c0-.06.17-.23.34-.34.12-.06.29-.17.29-.23,0-.12.17-.46.4-.69,1.15-1.2,1.32-1.38,1.66-2.01l.4-.57c.11-.11.46-.52.69-.86.29-.34.69-.86.86-1.15.29-.23.46-.52.46-.57,0-.12.17-.29.23-.46.17-.17.35-.34.35-.4,0-.17.11-.29.11-.29.06,0,.17,0,.17-.06,0-.12.52-.86,1.03-1.72l1.38-2.06c.52-.86.52-.98.74-1.15.29-.34.8-1.26,1.2-2.24.29-.4.52-.86.63-1.03.17-.06.34-.4.52-.86l.74-1.2c.17-.34.34-.69.34-.69,0-.06.17-.34.34-.57.17-.29.52-.8.8-1.32.23-.4.52-.75.52-.75.06,0,.23-.29.4-.63.52-1.03.8-1.55.86-1.55.12,0,.17-.17.17-.23,0-.12.11-.17.17-.29.17-.06.29-.23.29-.34,0-.17,0-.34.06-.34.12,0,.34-.34.52-.74.29-.34.52-.8.52-.8.11-.06.29-.34.46-.57.34-.63,2.3-3.27,2.81-3.9.29-.34.52-.57.52-.69,0-.06.17-.23.34-.4.17-.17.34-.46.34-.46,0-.17.29-.4,1.32-1.26.69-.63,1.2.4.69,1.38-.17.23-.29.4-.29.52.12,0,0,.34-.06.69,0,.34-.12.69-.12.74.12.29-.57,3.56-1.2,6.31-.06.34-.34,1.26-.4,2.24-.17.86-.46,2.06-.52,2.75-.17.57-.29,1.26-.34,1.55,0,.23-.11.57-.11.86-.58,3.1-.92,5.56-1.03,6.77l-.23,1.72c0,.63-.12,1.15-.12,1.2,0,.17-.06.86-.17,1.55-.23,2.24-.52,4.59-.69,5.79,0,.4-.06.92-.06,1.09-.12.17-.17.52-.17.8,0,.23-.11.69-.17,1.09-.12.34-.17.69-.12.69,0,.11-.06.46-.17.86-.06.34-.23.98-.23,1.2-.12.63-.12.52.34-.4.34-.52.86-1.66,1.2-2.41,1.03-2.18,1.89-3.96,2.47-4.93.29-.52.46-.92.46-1.03,0-.06.23-.52.52-1.03.23-.4.69-1.2.92-1.72.34-.52.63-1.03.69-1.09.12-.11.17-.29.17-.34,0-.11.17-.34.29-.63,1.03-1.43,1.2-1.78,1.2-1.89,0-.06.17-.4.34-.69.23-.23.4-.52.4-.52,0-.06.12-.34.29-.52l1.55-2.29c.06-.29.23-.52.34-.63l.4-.57c.17-.29.34-.52.52-.63.12,0,.17-.17.17-.23,0-.17.29-.52.52-.86l.52-.8s.12-.17.17-.34c.46-.52,2.52-3.16,2.7-3.44.06-.17.52-.69.92-1.26l.86-1.15c0-.06.34-.52.8-1.09.52-.52,1.03-1.15,1.21-1.49.23-.23.57-.69.86-.92.34-.34,1.03-1.15,1.6-1.84.63-.69,1.15-1.21,1.21-1.21.17-.06.29-.17.34-.34.12-.06.46-.4.8-.75.23-.34.74-.86,1.09-1.15.29-.34.63-.52.63-.52.06,0,.34-.23.57-.52.34-.4.98-.86,2.58-1.95,2.35-1.55,4.59-2.52,6.83-2.92,1.2-.17,2.12-.12,3.32.06Z"/>
      <path d="M783.24,417l-.69-.4c-.46-.17-1.32-1.2-1.72-1.84-.46-.86-.35-3.27.06-4.82.46-.92,1.72-4.01,2.01-4.19.17-.17,1.03-1.32,1.09-1.49,0-.06.17-.52.52-.86.34-.34,1.03-1.09,1.55-1.78.46-.69.86-1.15.86-1.15.11-.06.29-.34.63-.57,2.52-2.41,4.13-3.27,7.05-4.24,1.32-.23,2.35-.23,2.93.29.46.4.69.92.46,1.95-.17.8-1.03,2.35-2.01,3.44-.92.86-1.78,1.66-2.93,2.06-.74.63-1.55.98-2.41,1.32-1.03.52-2.12,1.09-3.1,1.43-.86.17-1.49.11-2.01,1.03-.17.29-.34.69-.4.86-.11.17-.11.29-.17.34-1.15,1.49-2.87,5.45-2.01,6.82.46.86,1.32,1.2,2.87,1.09.75-.06,1.38-.17,1.89-.4l.98-.46c.69-.34,2.64-1.78,3.61-2.47,2.75-2.18,6.54-6.19,7.4-7.23.23-.29.92-1.2,1.38-1.72l2.93-3.56c.17-.17.4.29.17.63-1.2,1.55-4.99,6.37-7.51,8.95-.34.4-4.53,4.02-4.82,4.36-.4.34-1.38.98-2.07,1.32-.57.34-1.26.69-1.43.69-.12.06-.34.23-.69.34-.34,0-.63.17-.74.23-.34.29-3.44.29-3.67,0ZM790.46,403.75c.86-.34,1.66-.75,1.72-.75,0-.11.69-.52,1.15-.8,2.75-1.89,3.61-3.44,3.96-4.88.17-.63.06-.69-.17-.86-.46-.29-1.84-.11-2.58.23-.69.46-1.84,1.15-3.44,2.58-.63.52-1.32,1.55-2.18,2.75,0,.12-.52.86-1.09,1.55-.63.8-1.09,1.55-.97,1.55.06.17,1.89-.34,3.61-1.38Z"/>
      <path d="M812.37,397.38c.12.52-.23,2.24-.52,2.58-.06.12-.17.29-.17.34,0,.17,0,.34-.17.46-.06.06-.23.34-.34.69-.06.23-.17.52-.23.52-.11,0-.17.17-.17.34-.11.17-.34.58-.69,1.03-.29.34-.63.75-.63.86-.06.17-.17.34-.23.34-.11,0-1.15,1.26-2.7,3.61-1.89,2.75-2.41,3.44-2.46,3.44-.29.17-1.26,2.24-1.44,2.92-.34,1.03-.23,1.55.34,1.89.29.17.63.23.98.23.86,0,3.04-.74,4.07-1.55.57-.34,1.09-.69,1.2-.69.17,0,2.12-1.61,2.24-1.89,0,0,.4-.52.86-.92,1.44-1.55,3.96-4.82,3.96-5.28.23-1.2,1.44-3.96,2.58-5.68.34-.4.57-.92.69-1.09.34-.63,1.26-1.72,1.78-2.06.69-.46,1.03-.52,1.38-.34.34.23.17,1.03-.69,2.3-.4.63-.75,1.2-.75,1.32,0,.06-.17.17-.29.23-.17.11-.34.29-.34.34,0,.29-1.6,2.7-2.06,3.21-.23.23-.4.52-.4.52,0,.06-.17.23-.35.52-.17.23-.34.52-.34.69s-.12.34-.12.4c-.23.29-.34,2.01-.17,2.52.34,1.09,1.38,1.26,2.58.69,1.84-.98,4.42-3.44,6.71-6.37,1.32-1.66,1.66-2.18,2.01-2.52l.4.34-1.72,2.35c-.4.57-2.41,2.75-2.64,2.98-.29.17-.52.69-.86.98-.29.34-.8.75-1.15,1.03-.34.34-.75.57-.86.74l-1.72,1.15c-1.72.86-3.27.17-3.61-1.72-.06-.46-.23-.86-.35-.86,0,0-.23.23-.4.57-.29.34-.69.98-1.03,1.38-.34.46-.8.98-.86,1.15-.46.57-3.21,3.33-3.44,3.33-.11,0-.29.11-.46.29-.34.34-2.64,1.78-2.81,1.78-.12,0-.34.12-.63.29-2.12,1.15-4.76.63-5.33-1.03-.17-.63-.17-2.41.06-3.04.34-.86,1.15-2.41,1.49-2.98,1.49-2.18,2.18-3.04,2.18-3.1.06,0,.4-.52.75-.98.52-.86.8-1.09,1.49-1.89.17-.23.34-.4.34-.4l.92-1.38c.52-.69.97-1.38.97-1.49,0-.06.17-.34.35-.52.69-.92,1.2-3.44.69-3.61-.34-.17-.8-.06-1.32.29-.74.4-1.2.75-1.38.92-.17.12-.4.52-.52.52-.06,0-.86.8-1.72,1.72-.86.86-1.03,1.38-1.84,2.24-.17.17-.52.34-.58-.17,1.15-1.38,1.49-1.89,2.18-2.64,1.78-2.18,3.33-3.1,4.13-3.44,1.44-.63,2.93.06,3.16,1.61Z"/>
      <path d="M831.99,415.91c-.34-.69-.06-1.66.11-2.41.06-.12.23-.8-.11-.52-.52.34-.92.92-1.44,1.44-1.2,1.15-2.18,2.01-3.73,2.41-1.84.57-4.24.57-4.82-1.38-.35-1.2-.69-2.98-.17-4.13l.86-2.06,1.09-2.24c.63-1.03,1.32-2.06,2.07-2.98l1.03-1.38c.63-.8,1.32-1.38,1.95-2.18,1.38-1.43,2.93-3.1,4.65-4.13,1.09-.52,2.64-.92,3.84-1.09,1.55-.17,2.93.58,3.04,2.24l.06,1.43c0,.29.12.46.12.46.52.06,1.55-2.41,2.24-2.87.52-.4,1.38-.34,1.95-.06.52.23.63.58.34,1.09-.57,1.03-1.55,1.84-2.24,2.75-.69.98-1.26,2.01-1.95,2.87-.8,1.09-1.38,2.29-2.24,3.33-.86,1.49-1.89,2.7-2.75,4.13-.8,1.15-1.49,2.35-1.89,3.79-.69,3.04,1.95,1.55,3.16.46,1.38-1.03,2.7-2.18,3.73-3.56.4-.52.86-1.03,1.38-1.55,1.38-1.72,2.81-3.5,4.19-5.33.86-1.03,1.2-1.38,2.01-2.41.23-.34.4-.69.74-.92.17-.11.35-.17.35,0,0,.34-.17.86-.4,1.09l-3.56,4.47c-1.43,1.89-3.16,4.07-4.88,5.97-1.03,1.09-2.18,2.47-3.44,3.33-.98.63-2.07,1.43-3.27,1.32-.8-.06-1.66-.63-2.01-1.38ZM828.72,415.11c1.32-1.09,2.18-1.89,3.1-2.98,1.38-1.72,1.32-1.55,2.07-2.75l2.58-4.07c.69-.92,1.38-2.07,1.49-2.07l.06-.17.52-.86.69-1.09c.34-.63.29-1.49.17-2.18,0-.69-.17-1.43-.75-1.89-.34-.34-.63-.34-1.03-.17-.52.12-1.32.69-1.55.86l-.34.29c-.17,0-5.85,5.51-6.31,6.08l-.57.8c-1.49,1.78-2.35,2.98-3.33,4.53l-.57.98-.29.69-.58,1.55c-.17.4-.29.74-.29,1.26-.06.52-.06,1.66.35,2.01.52.57,1.03.4,1.84.34.92-.12,2.06-.52,2.75-1.15Z"/>
      <path d="M852.07,414.93c.17-1.2.34-2.12.52-2.24.06-.06.06-.17.06-.23,0-.11-.17.06-.34.23-.75.8-3.04,2.58-3.73,3.04-.4.23-1.2.57-2.24,1.03-.57.34-1.89.34-2.41,0-.4-.17-1.2-1.15-1.55-1.66-.34-.58-.4-1.89-.23-2.75.17-.69.74-2.24,1.09-2.75.17-.23.69-1.26,1.15-2.24.23-.34.58-1.03.86-1.43l.52-.86c0-.11.06-.17.06-.17.11,0,.29-.12.29-.29.06-.23.34-.57.74-.92.12-.17.46-.63.8-.98,1.6-2.12,5.16-5.33,5.85-5.33.12,0,.17-.06.17-.17.11-.17,1.72-.92,2.41-1.2,3.96-1.03,5.51.69,4.99,2.87,2.75-4.07,5.28-7.17,4.76-6.54l.52-.8c.23-.4.86-1.2,2.81-4.13.69-1.03.8-.86,1.15-1.43.23-.34.58-.8.69-1.03.17-.29.34-.46.34-.46.06,0,.17-.06.17-.17,0-.06.06-.34.23-.52.17-.17.46-.4.52-.69.86-1.26,3.04-4.47,3.1-4.47.12,0,.12-.06.12-.17,0-.06.17-.34.4-.57l.46-.52h1.09c.86,0,1.15.06,1.15.23.06.17-1.32,2.35-1.84,2.93,0,.11-.17.29-.23.34l-.17.29c0,.17-1.15,1.78-1.38,2.06-.17.17-.34.4-.46.57-.17.29-.52.8-.86,1.15-.23.4-.52.69-.52.75,0,0-.23.46-.57.86-.34.46-.63.86-.63.98,0,.06-.06.17-.17.17-.06,0-.06.06-.06.17l-.8,1.09-1.72,2.52c-1.2,1.78-2.29,3.33-2.46,3.67-.29.29-.52.63-.52.69,0,.11-.12.17-.12.17-.06,0-.4.52-1.09,1.55l-.8,1.15-.92,1.38c-.29.34-.34.57-.46.69,0,0-.34.4-.57.92-.86,1.21-1.49,2.18-1.72,2.41-.12.17-.63.8-1.38,2.06-.8,1.15-1.66,2.41-1.72,2.41-.12,0-.12.17-.12.29,0,.06-.17.23-.34.4-.06.11-.23.29-.23.34,0,.11-.17.46-.46.8-1.61,2.24-2.58,4.53-2.41,5.68.29,1.72,3.44.17,4.59-.86.23-.17.4-.34.52-.34.06-.11.4-.52.86-.97.34-.52,1.09-1.38,1.72-1.95.52-.63,1.03-1.2,1.2-1.32.75-1.03,1.89-2.41,2.75-3.33,4.7-5.28,4.7-5.33,4.82-5.51.35-.46.52-.8.69-.8.23,0,.23.8.06.8,0,.06-.34.52-.57.86-.34.34-2.35,2.64-2.75,3.16-.52.63-1.32,1.32-1.66,1.72-.34.52-.86,1.15-1.09,1.38-.34.29-.98.98-1.49,1.55-.4.63-1.26,1.55-1.78,2.06l-1.2,1.38c-.52.8-2.07,2.18-2.7,2.52-2.12,1.32-3.67,1.38-4.53.98-.52-.4-1.38-1.49-1.2-2.47ZM849.66,414.19l.57-.52c.63-.52,1.2-.98,2.58-2.24,1.2-1.2,1.49-2.18,2.24-3.38l1.38-2.12c1.38-2.07,2.7-3.79,2.87-4.13.06-.29.4-.98.69-1.55.52-1.32.69-2.41.4-2.75l-.52-.46c-.58-.52-2.12-.34-2.75.11-.23.06-.4.23-.4.23-.46,0-4.47,3.38-5.45,4.42-.23.34-.75.92-1.09,1.26-.35.34-.8.98-1.09,1.38l-.69.98c-.06.06-.17.17-.17.23,0,.12-.17.34-.4.63-1.15,1.55-2.24,3.5-2.58,4.7-.17.34-.35.98-.46,1.32-.57,1.89-.4,3.5.34,3.78.69.23,3.38-.97,4.53-1.89Z"/>
      <path d="M874.5,415.91c-.34-.69-.06-1.66.11-2.41.06-.12.23-.8-.11-.52-.52.34-.92.92-1.44,1.44-1.2,1.15-2.18,2.01-3.73,2.41-1.84.57-4.24.57-4.82-1.38-.35-1.2-.69-2.98-.17-4.13l.86-2.06,1.09-2.24c.63-1.03,1.32-2.06,2.07-2.98l1.03-1.38c.63-.8,1.32-1.38,1.95-2.18,1.38-1.43,2.93-3.1,4.65-4.13,1.09-.52,2.64-.92,3.84-1.09,1.55-.17,2.93.58,3.04,2.24l.06,1.43c0,.29.12.46.12.46.52.06,1.55-2.41,2.24-2.87.52-.4,1.38-.34,1.95-.06.52.23.63.58.34,1.09-.57,1.03-1.55,1.84-2.24,2.75-.69.98-1.26,2.01-1.95,2.87-.8,1.09-1.38,2.29-2.24,3.33-.86,1.49-1.89,2.7-2.75,4.13-.8,1.15-1.49,2.35-1.89,3.79-.69,3.04,1.95,1.55,3.16.46,1.38-1.03,2.7-2.18,3.73-3.56.4-.52.86-1.03,1.38-1.55,1.38-1.72,2.81-3.5,4.19-5.33.86-1.03,1.2-1.38,2.01-2.41.23-.34.4-.69.74-.92.17-.11.35-.17.35,0,0,.34-.17.86-.4,1.09l-3.56,4.47c-1.43,1.89-3.16,4.07-4.88,5.97-1.03,1.09-2.18,2.47-3.44,3.33-.98.63-2.07,1.43-3.27,1.32-.8-.06-1.66-.63-2.01-1.38ZM871.23,415.11c1.32-1.09,2.18-1.89,3.1-2.98,1.38-1.72,1.32-1.55,2.07-2.75l2.58-4.07c.69-.92,1.38-2.07,1.49-2.07l.06-.17.52-.86.69-1.09c.34-.63.29-1.49.17-2.18,0-.69-.17-1.43-.75-1.89-.34-.34-.63-.34-1.03-.17-.52.12-1.32.69-1.55.86l-.34.29c-.17,0-5.85,5.51-6.31,6.08l-.57.8c-1.49,1.78-2.35,2.98-3.33,4.53l-.57.98-.29.69-.58,1.55c-.17.4-.29.74-.29,1.26-.06.52-.06,1.66.35,2.01.52.57,1.03.4,1.84.34.92-.12,2.06-.52,2.75-1.15Z"/>
    </g>
  </g>
  <rect x="396.36" y="401.67" width="283.31" height="3.37"/>
</svg>