<?xml version="1.0" encoding="UTF-8"?>
<svg id="Layer_1" data-name="Layer 1" xmlns="http://www.w3.org/2000/svg" viewBox="0 0 1000 563.61">
  <path d="M414.66,87.84c0,.15,0,.3,0,.45h.45c.05-.43-.15-.38-.45-.45Z"/>
  <path d="M470.4,103.57c.32-.18.42-.44.45-.45-.22.16-.39.41-.45.45Z"/>
  <path d="M420.51,104.02c.54-.17.72.29,1.35-.45-1.08-.09-1.02.31-1.35.45Z"/>
  <path d="M440.59,103.98c.19,0,.36.01.55.02-.15-.09-.36-.08-.55-.02Z"/>
  <path d="M444.02,101.23l-3.73.54,1.36-1.56,5.6-3.39c.72-.61-.5-.52-.83-.38-2.34.96-4.28,3.52-7.03,3.08l.9.67-1.35,2.47c4.23,0,8.04-2.23,12.14-2.7l-.22-.9-6.83,2.16Z"/>
  <path d="M415.56,90.98l-1.8,3.15c.72-.37,1.55-.38,1.36-1.33,2.7.55.04.95-.07,2.18l-.62-.36c-.47.21.09.33.16.72.22,1.23-.31,2.27,1.39,2.43-.41,1.38-.12,3.64,1.62,3.19l-.18.77.85.31-.03,2.44-1.34.23.9,2.02c1.17.57.71-.91,1.12-.91l2.92.91c-.02-.58-1.27-.9-1.79-1.14-.29-.13-.58-.23-.91-.22-.12-.11.47-.73.45-.89,0-.02-.3-.08-.35-.33-.23-1.14-.44-2.23-1-3.27l4.94.45c.1.08-1.09,1.93-1.35,2.25.68.06,1.25.42,2.01.47,4.88.3,9.49-2.17,14.18-3.17.06-.88-.9-.37-1.37-.25-1.6.42-3.2,1.09-4.81,1.48-1.45.36-4.45,1.24-5.73,1.28-.45.01-1.6-.19-2.24-.26-.41-.04-.31-.83-.21-1.1.14-.37,4.92-5.13,5.58-5.65,1.88-1.48,6.63-3.53,8.99-3.62,1.01-.04,1.6.44,2.28.49.81.06,1.44-.56,2.2-.48.54.06.95.63,1.59.47l-.46-.89,2.7-.47v-1.33s-1.79.23-1.79.23l.4-.62-1.09-.95c1.9,1.33,4.7,1.37,6.97,1.34l-4.6-1.01-1.24-.78c2.55-.61,5.3-1.85,7.88-2.23,1.27-.19,3.2.59,3.8-.91l-6.5-.46-3.83-.88,8.75.92c2.1.06,4.23-.14,6.33-.04,1.44.07,3.38,1.32,4.7-.21l-16.39-1.14c-1.59-.78-3.31-.24-4.94-.45-1.51-.2-3.15-.97-4.74-.88-.18-1.43,1.84-1.54,2.95-1.77,1.16-.24,4.45-.91,5.38-.92.76,0,1.91.99,2.78,1.26,1.92.6,3.94.29,5.74.55,1.94.28,4.54,1.54,6.3,1.32,1.35-.16,2.71-1.32,4.26-.87.93,3.57,1.99,7.32,5.44,9.23l-.02,3.33c-.6,0-1.2-.01-1.8,0,.36.84.69.24,1.36.65.83.5.45,2.16-.01,2.93l.89.47c-2.85-.66-4.58,1.9-7.19,2.25.34-1.04,2.07-1.89,2.48-2.68.23-.43.61-1.43-.24-1.36l-1.54,2.28c-1.71.42-2.62,2.07-4.14,3.05-1.71,1.1-4.44,1.32-6.45,1.86-.26-.25.47-1.47.69-1.78,1.04-1.48,9.11-7.41,10.78-7.65,1-.15,2.3.01,3.37,0-.44-1.03-2.06-.55-3.15-.45.23-1.32,2.39-.5,2.7-.67.87-.48.36-1.16-.23-1.58-2.9,1.57-6.37,1.91-9.66,1.8l.45-1.35-7.64-.45c-.09.92,1.1,0,.9.9-1.42-.38-.57,1.45-1.61,1.76l-4.68.04c-.1.78,1.03.44,1.57.45.83.02,1.95.13,2.71.01.78-.12,1.11-.94,1.71-.85.73.1,1.68.9,2.55.85-.32.65-1.02,1.33-1.57,1.8-1.5,1.29-2.98,1.75-4.28,3.14-.82.88-1.85,1.9-1.84,3.1-1.48.17-3.26.79-4.69.94-.95.1-2.15.02-3.4-.01.02,0,.04.01.05.02.36.3-.55.74-.9.45-.21-.17.01-.39.3-.49-.48,0-.96,0-1.44.02-2.35.13-4.64-.06-6.95.46l.45-1.35c-1.21-.11-3.17.24-3.15,1.8,2.48-.07,5,.29,7.4-.47l2.49.47c-2.97-.16-5.99,1.4-8.78,1.78l-3.35.46c2.99.6,5.32-.71,7.97-1.25,2.49-.51,5.52-1.18,8.01-1.44,1.61-.17,3.04.75,4.7.44l-2.25-.9c1.55.02,3.6-.08,5.08-.54,1.67-.51,4.38-2.37,5.93-2.61.27-.04.74-.12.68.23-.92.4-1.76,2.41-2.23,2.72-.96.63-3.49.12-4.06,1.55,1.16.37,2.45-.56,3.37-.48.3.03,3.19,1.61,3.33,1.35-.11-1.19.65-.74,1.39-1.07.98-.45,2.03-.97,2.92-1.59l-2.49,3.81.71,1.13c3.19-.8,6-2.41,8.75-4.04-.28.1-.83-.05-1.35.21-2.31,1.14-4.54,2.85-7.19,2.49.56-.89,1.46-1.77,2.24-2.48,1.86-1.71,2.88-2.15,4.97-3.12,2.09-.97,3.78-2.31,6.28-2.49.09,2.1-1.73,3.02-3.15,4.05.21-.07.61.03.9,0-.7,1.02-1.56,1.72-.21,2.69,1.7-.52,3.1-.87,4.25-2.25-1.37.26-2.6,1.07-4.05.9l2.93-4.05c1.2.6,1.87,1.21,3.36.9.31,1.09-1.12,1.87-1.35,2.25-.13.22-.9,1.9-.92,2.02-.37,3.12,5.52,1.19,6.57-.66,1.43-.41,4.37,5.89,4.92,7.17.62,1.46,2.07,4.49,1.36,5.86-.51.98-3.29,1.77-3.76,3.88-.2.92-.2,4.04.46,4.57.28.22.97-.25.81.52-2.8-.15-5.89,1.07-6.05-2.71l-1.14-1.78c-.09.84.59,1.36.82,2.1.3.97.1,2.8,1.72,3.26.74.21,1.74-.67,2.61-.44.79,2.2,6.46,1.36,8.45.82,1.94-.52,2.73-1.68,5.06-2.13,6.21-1.19,11.68-.8,17.61-3.52.66-.3,1.2-.96,1.92-1.22.93-.91.31-.81-.47-.47-.69.3-3.22,1.9-3.58,1.59.06-.25.31-.73.45-.9-.63.31-1.75.44-2.43.94l-.05-.5,3.6-2.69-.68,1.8c1.59-.78,2.03-2.34,3.35-3.61,2-1.91,5.03-4.31,7.75-4.84.96-.19,2.03-.32,2.39.81l-5.55,2.32-1.65,1.73c1.04-.73,2.12-1.36,3.28-1.89,2.23-1.02,3.01-1.45,5.41-.81.5.13.25.88.74,1.13-1.11,1.33-2.92.89-4.26,1.14-2.17.4-5.65,2.7-6.98,4.48l3.14-1.57c-.77,1.4-2.15,1.47-3.14,2.02-.03.02-.29.31-.45.45-.28.25-.61,1.09-1.13,1.35l-.22-.22c.42-.29.61-.75.9-1.12-1.13.51-2.14,1.63-2.53,1.74-1.05.3-2.57.19-3.88.61-1.16.37-2.19,1.22-3.35,1.6-2.15.7-4.62.57-6.87,1-.1.78,1.03.44,1.57.45,2.5.06,3.87-.09,6.2-.99.56-.22,1.01-.78,1.65-1.05.92-.39,4.11-1.16,2.25.45-1.14.99-6.23,4.38-7.48,4.66-1.4.31-3.76.23-5.09-.37-.18.95.09.92.89,1.12.65.17,1.89,0,1.81.67-1.32.67-2.79.71-4.07,1.1-1.73.54-3.62,1.5-5.22,1.97-1.19.35-3.44-.18-4.2,1.42,4.54-1.34,10.04-1,14.39-2.92.38-.17,1.51-.53,1.12-1.12-1.89,1.01-4.71,1.76-6.84,2.15-.49.09-1.57.47-1.48-.35,2.09-.48,4.24-.96,6.3-1.57,1.04-.3,1.63-.77,2.47-1.13,1.13-.48.08.91.44.89l.25-1.31c1.27-.43,2.67-.74,3.89-1.3,1.45-.66,5.09-3.52,6.2-3.55.76-.02,2.57,1.06,3.61,1.2,2.76.36,4.69-.33,7.16-1.33l.71,1.11-.24,6.53c.89-.58.58-1.24.68-2.02.24-1.86.22-3.31,0-5.17l1.8,2.7c-.32-1.45-.17-3.3-1.32-4.27.29-.73,1.36-.9,1.67-1.23,1.37-1.44,2.52-4.25,3.48-5.31.43-.48,1.42-.41,1.51-1.63.06-.86-1.62-3.44-2.47-3.68-1.28-.37-2.59.25-2.89-1.85-1.26.34-1.99.42-2.46-.94l-2.45.25c.58-.62,1.27-1.14,1.73-1.86.83-1.3.75-2.71,1.64-3.76h.22c.14.63-.35.99-.45,1.57-.07.43-.3,1.7.45,1.57.31-3.77,1.6-7.43,1.35-11.24l-1.41,6.46-.38.54-.91-.26c.53,2.47-.52,2.61-1.55,4.07-.39.56-.93,1.8-1.25,2.12-.37.37-1.56.67-1.92,1.45l-.45-.9c-1.39,2.65-4.21,2.86-6.97,2.7-.08.55.43.49.9.9.03.03.44-.07.45.23-.08.25-.42.19-.45.22-.3.42-.31.93-1.11.91l-6.08-.69c1.34.96,3.2.91,4.81,1.49.39.14.88.09.58.76-.27.6-2.48,2.34-3.17,2.67-.99.49-2.86.64-3.36,1.59-.2.37-.36,1.22-.2,1.35.25.19,1.06-.34.88.46-1.27-.08-3.17.89-4.27.89-.63,0-1.21-.53-2.23-.44-1.92.17-6.29,1.51-8.35,2.04-1.96.51-3.86,1.26-5.83,1.56.48-1.6-1.01-1.03-.9-2.25l-.9.9c-1.91-5.09,2.45-6.89,6.55-8.07.73-.21,1.32.46,1.09-.92l-4.04.9c.1-3.03-1.62-6.62-3.06-9.3-1.55-2.9-2.78-3.83-5.03-5.98.21.55.14,1.12.87,1.57,0,.88-4.33,2.24-5.37,2.02-.57-.56,1.46-3.18,2.02-3.59.59.38.82,1,1.2,1.5.34.46.88,1.42.82.08l-1.36-3.36c-1.82.14-3.29-.08-4.47-1.59,1.99-2.28,3.02,1.65,4.92.67-.09,1.45.49,1.86,1.37,2.7-.45-1.15-1-2.35-.9-3.6l-1.35.26c-.93-.95-2.21-1.97-1.39-3.36l-.88-.29.02-1.56h2.7c.01.97-.02,1.95,0,2.92.01.54-.33,1.68.45,1.57.04-1.72-.04-3.46-.02-5.19.01-1.07.57-2.02.02-3.36-1.24.82-2.86.47-3.59-.9l3.59-.45c-.02-.75.03-1.79.44-2.42.27-.43.88-.12.94-.53.21-1.56.05-2.33,1.12-3.77,1.16-1.57,1.6-.59,2.68-.65.86-.04,5.38-1.78,6.08-2.28.45-.32.54-1.24,1.12-1.58l1.86,1.73,3.3,1.19c-1.37-1.12-2.73-2-4.08-3.14-.54-.46-1.19-.03-.87-1.59-1.47-.33-2.27,1.96-3.59.23l1.35-.45c-1.59-1.13-.54-3.03-1.1-4.74-.46-1.39-2.13-1.94-2.43-3.9-.13-.86.53-1.58.41-2.59-.11-.9-1.09-1.08-.92-2.02.84.27,1.75-.41,2.4-.36.87.07,2.86,1.8,2.55-.09-1.81-.63-4.2-.65-5.99.08-1.07.44-1.86,2.3-3.46,2.17-.05.72-.2,1.03.68.91,1.16-.16,1.81-1.27,2.68-1.37,2.38-.28,1.09,1.52,1.09,2.49,0,.6.69,1.84.46,1.99-.12.08-.52-.06-.75.12-.23.19-.34.85-.78,1.26-.73.7-1.38,1.27-2.27,1.78l.68-1.34-2.25.45c.55-1.48,0-3.51-.67-4.95-1.12-2.45-4.03-2.88-6.06-4.3l.44-1.54,1.35.45c0-.55-1.43-1.03-.45-1.58.8-.45,1.62-.05,2.42-.28.73-.21,1.57-1.77,2.36-2.16.35-.08,1.19.41,1.51.66.9.7.93,2.1,2.26,2.01.27-.27-2.51-2.5-2.7-2.92-.31-.68.2-.62.58-.75.59-.21,1.74-.18,1.66-.82l-2.7.45c-.05-.79.02-1.74.43-2.42.33-.55,1.25.1.91-1.17-2.3.39-1.62,4.24-1.84,4.45-.12.11-.58.08-.82.28-.46.38-1.3,1.44-1.66,1.51-.34.06-.77-.32-1.21-.29-.9.06-2.25.62-2.11,1.7l-3.59-4.05c0,.8.7,1.57,1.15,2.22.35.52,1.85,2.09,1.88,2.48.03.49-.86,1.56-.58,2.04.65,1.11,4.28,1.44,5.66,3.35.9,1.25,1.79,4.43.9,5.81-.22.34-.59.22-.79.41-.17.16-.09.57-.21.66-.25.2-1.07.19-1.59.45-1.17.57-1.17,1.34-2.97.93-.84-.19-3.26-2.04-4.05-2.7-.48-.4-.94-.44-.74-1.28,1.37.89,4.35,1.76,5.39,0-3.32.29-6.42-.2-8.54-2.92l2.25-1.12c-1.62-.23-2.61-.74-3.53-2.09-.79-1.15-2.43-5.34-2.25-6.58.13-.87,1.8-2.89-.06-2.57-1.03,3.22-.11,5.67,1,8.67.99,2.7,1.61,4.17,3.72,6.17,1.35,1.29.9.98,1.79,2.26.25.36,2,.82,2.65,1.32.38.3.21.67.57.92,3.2,2.23,5-.5,7.81-1.82-.24,2.07-1.57,3.2-.45,5.39l.89-4.23,1.35-.27c-.57,1.06-1.22,2.02-.83,3.3.03.09.84,1.51.91,1.56.25.2,1.7.31,2.31.61.69.35.92.86,1.43,1.28.47.39,1.06.38,1.13.43.04.03.18.85-.23.9-3.21.38-4.66-.45-6.29-3.14l.32,1.72c2.3.95.74,1.72.14,2.78-.65,1.15-1.41,2.71-1.64,3.98-2.08.71-3.73,1.65-5.77.27-2.97-2.01-1.77-6.36-2.71-9.2.31-.26,2.31.53,2.25-.45-1.88-.23-3.61-2.5-4.94-3.15-.18-.09-.78.09-1.34-.22-.47-.26-.88-1-1.35-1.36.07-.12.15-.22.22-.22.11,0,1.64.73,2.02.9-.57-.65-.66-.98-1.66-1.26l-14.07-3.24c-.08-.84.97-.42,1.48-.35.78.11,1.61.61,2.57.35l-.76-.81-9.58-.98,4.49,1.35-3.35-.47-3.39.47,2.46.02,4.28.88c-1.71-.25-3.59.23-5.17.26-2.13.04-5.19-.45-7.21-.28-1.46.12-4.45,1.42-4.7-.88-1.14-.43-1.17,1.31-1.61,1.37l-5.13-.02,1.35,1.35c-2.29.58-4.59,1.23-6.85,1.91-.46.14-1.35.17-1.24.78l11.89-3.16c4.24.21,8.89.06,13.07.45,1.85.17,3.63,1.28,5.6.92l-1.57.45-6.52.68c1.83.88,3.98-.34,5.63-.26,1.45.07,3.01.87,4.24,1.18.45.11.85-.26,1.14-.21,2.52.48,4.58,1.42,6.85,2.56,2.36,1.19,4.65,3.08,6.89,3.92,2.31.87,4.42,5.05,4.93,7.41-.88-.15-.92-1.48-1.57-1.8-1.39-.67.62,2.19-.9.9-.48-1.14-2.14-3.94-.22-3.6v-.45s-1.3-.05-1.3-.05l-1.17-2.2.22,2.24c-1.16-.66-2,.07-2.9.01-1.61-.1-3.3-.39-4.95-.48-1.88-.09-4.02.3-5.8-.44-.44-.18-.18-1.18-1.19-.9.19-.97.98-.74,1.57-.9,3.45-.97,4.09-.44,7.11-.54.2,0,1.84-.28,1.65-.8-1.59.45-3.43-.49-4.72-.49-.87,0-1.63.57-2.7.52-2.31-.11-5.3-.65-7.65-.92-2.61-.3-5.7-.27-7.85-2.04l3.59-1.12c-1.7.03-4.68-.51-4.94,1.8,1.17.29,2.15.16,2.5,1.37.44.01.88-.04,1.31-.02.55.02,1.68-.34,1.58.45-1.51.36-2.92-.38-4.25-.47-2.71-.18-5.21.26-7.89-.88l1.8-2.25c-3.27.94-6.46,1.88-9.89,2.25.36-.79,1.72-2.07,2.54-2.17.48-.06.98.47,1.65.33,2.64-.56,5.22-1.83,8.16-.83l.49-.95c.74.01,1.48.04,2.22.02.55-.01,1.68.34,1.57-.45-1.73-.03-3.46.03-5.19.01-1.84-.01-1.16.01-2.75.36-3.54.78-7,.36-10.49,2.32.58-.17,1.59-.24,2.25-.45-.81,1.74-2.88,1.83-4.49,2.25l1.35-1.35c-1.13.54-3.05.57-3.19,2.23l-4-.88c-.23.71.46,1.43.38,1.96-.13.91-1.46,1.44.06,2.77.94.82,2.6.19,2.25,1.57-1.32,0-3.9,2.26-4.06,3.36-.39,2.72-.33,5.85,3.16,5.18ZM466.58,93.68c.29,0,.29.45,0,.45s-.29-.45,0-.45ZM454.67,93.23l1.78-.25,2.71.47c-1.18,1.47-3.42,1.38-4.49-.22ZM451.07,101.77c.32-.65,1.02-1.33,1.57-1.8,1.36-1.16,5.98-4.66,7.42-5.2.53-.2.75.36,1.13.71.65-.48.59-.71.22-1.35h4.5l-1.81,1.56c-4.22,2.29-8.1,5.45-13.02,6.08ZM513.33,127.39l-.22-.22,2.02-1.57.22.22c-.52.76-1.34,1.01-2.02,1.57ZM529.29,117.06c.3-.36.74.55.45.9-.3.36-.74-.55-.45-.9ZM522.32,119.3c.29,0,.29.45,0,.45s-.29-.45,0-.45ZM519.11,125.96l-2.41.08,2.09-1.76,3.76.42-3.44,1.27ZM525.56,126.14c-1.34.68-2.87.94-4.37.8l5.39-2.25c.16.85-.38,1.12-1.03,1.44ZM528.84,124.25l-1.35.45v-.9s1.35,0,1.35,0v.45ZM533.75,115.29l-.05,1.92-1.72,3-.23-1.3c.63.41.76.7.69-.28-.12-1.6-1.05-2.76-1.36-4.26l2.67.93ZM531.31,119.75c.29,1.99-.69,3.41-2.92,3.14.47-.88,1.24-1.35,1.8-2.25-1.91,1.04-3.85,3.01-6.15,3.52-1.17.26-2.54-.02-3.74.08l2.7-1.12-2.7.22c.76-1.71,3.27-1.75,4.95-1.8l-.22-.9-2.02-.23c1.59-1.64,4.04-2.25,6.29-2.02l-.9,1.8,2.7-1.35c-.59.51-.7,1.47-.9,1.8.45-.24.8-.5,1.13-.9ZM530.64,117.95c-.3.36-.74-.55-.45-.9.3-.36.74.55.45.9ZM529.96,114.36l.67.67-.22.22-.67-.67.22-.22ZM518.5,114.36c.18.16-2.09,2.43-2.25,2.25-.28-.82,1.77-2.67,2.25-2.25ZM515.58,116.61c.29,0,.29.45,0,.45s-.29-.45,0-.45ZM514.68,116.16c.29,0,.29.45,0,.45s-.29-.45,0-.45ZM510.41,121.1c.36.3-.55.74-.9.45-.36-.3.55-.74.9-.45ZM508.16,122c-.18-.16.75-1.08.9-.9-.03.28.06.84,0,.9-.06.06-.61-.03-.9,0ZM491.08,126.94l2.7-.45v.45s-2.7.45-2.7.45v-.45ZM491.08,77.95l-.9.9c-.12-.94-.05-1.02.9-.9ZM486.14,68.96c1.68.91,2.99,1.87,2.69,4.05-.85-.18-3.06-3.64-2.69-4.05ZM487.15,73.68l1.24-.23c.07,1.37-.6,3.04-2.25,2.7l.22-1.83.93-.03-.14-.61ZM483.66,76.6l-1.57-1.57.22-.22c.23.56,1,.37,1.1.47.1.1-.08.87.47,1.1l-.22.22ZM485.24,75.7c-.45.52-2.32-1.63-2.68-2.06.4-1.69,1.82-2.18,2.91-3.33l2.02,2.69c-1.37.06-2.12,1.49-2.25,2.7ZM486.13,77.05l2.03-.9-.23,1.35,1.8.67c-1.26,1.46-3.33.45-3.6-1.12ZM457.82,69.41h1.35v.45h-1.35v-.45ZM453.03,70.7c-1.31.44-3.48-1.37-5.1-.84l.48-1.32,2.17.02.72,1.3c1.38-2.27,4.63-1.34,6.07.45-1.04.35-2.69-.36-3.39-.31-.29.02-.57.58-.95.71ZM454,71.2c-.29,0-.29-.45,0-.45s.29.45,0,.45ZM463.36,75.32c-1.11-.65-2.36-.83-3.3-1.65l2.38.32,2.57.8c-.04-.71-.89-.7-1.25-1.02-.1-.09-.4-1.23-1.22-1.23h-6.97c1.55-2.44,6.27-1.22,8.41-.1.3.16,2.21,1.42,2.3,1.53.31.4,0,1.39,1.2,2.17.42.28-.84-2.62.89-.44l.69,3.58c-1.87-1.32-3.71-2.81-5.69-3.97ZM471.3,81.09l-1.76-4.31.86-.63c.61,1.71,1.2,3.03.9,4.94ZM474,95.48l1.12-.45.67,1.12-.67.68h-1.12s0-1.35,0-1.35ZM476.7,98.17c-.86-.1-1.52.03-2.25.45v-1.35c.94-.06,1.95-.16,2.25.9ZM478.05,91.43h1.35v1.8c-.16.18-1.67-1.14-1.35-1.8ZM475.8,91.43c1.11-.19,1.39.99,1.8,1.8-1.4.2-2-.44-1.8-1.8ZM475.35,94.58h-1.35s0-2.25,0-2.25h.9c-.1.85.03,1.52.45,2.25ZM473.32,88.29l1.12,1.12-.22.22-1.12-1.12.22-.22ZM470.4,86.94h1.8s0,1.35,0,1.35c-.65.33-1.97-1.19-1.8-1.35ZM427.47,73c.29,0,.29.45,0,.45s-.29-.45,0-.45ZM413.76,90.08c-.27-1.44.03-.56.65-.63.65-.07,1.31-.42,2.05-.27l-2.7.9ZM420.03,84.44c.54-.35,2.77-.41,3.62-.65l-5.39,2.92c.81-.37,1.33-1.98,1.77-2.27ZM418.26,83.57c.49-.69.96-.78,1.79-.67v.45c-.64-.26-1.8.61-1.79.23ZM420.96,83.34v-.45h1.35v.45h-1.35ZM433.3,84.22c1.63-.16,3.33.58,4.58-.83l4.66,1.3h-2.7c-.11,1.03.89,1.75,1.8,1.8.11.57-1.28.9-1.59.92-.72.04-1.23-.45-1.78-.46-1.01-.01-3.03.97-4.12,1.25-2.84-.83-5.46,1.07-8.24,1.44.26-.92,1.38-.99,2.14-1.23,2.3-.71,4.9-1.19,7.3-1.47l-1.56-.43-11.27,2.67-2.9.02,4.49-2.5.9-1.1-2.89.43c-.4,1.15-1.04,1.14-2.16,1.49-.43.13-1.31.8-1.24-.12,3.63-1.33,6.67-4.44,10.79-4.5l-2.25.9c1.13,1.88,4.31.6,6.05.43ZM430.4,83.79c1.53-2.05,4.91-1.62,7.19-2.25-.43.68-.41,1.99-1.17,2.21l-6.03.04ZM442.98,86.49c.36.3-.55.74-.9.45-.36-.3.55-.74.9-.45ZM422.3,90.09c-.09,1.43-5.48,2.55-5.84,2.25-.18-.98.1-.89.89-1.12,1.71-.49,3.09-1.44,4.95-1.13ZM421.18,92.78c-.29,0-.29-.45,0-.45s.29.45,0,.45ZM417.14,99.97c-.29,0-.29-.45,0-.45s.29.45,0,.45ZM426.58,98.18c-1.48,1.26-1.95,1.19-3.83.89l.9.45c-.43,1.43-4.63,1.08-5.57.47-.44-.28-.32-.81-.68-1.15,1.46-2.06,4.24-1.57,6.45-2.04,1.75-.38,3.41-1.13,5.19-1.32l-2.47,2.7ZM433.42,92.88c-1.65.47-3.63,2.34-5.04.35l.68,1.34c-1.03.13-1.93.67-2.94.88-2.16.45-6.44,1.1-8.53.93-.73-.06-1.09.02-1.56-.69.4-.95,1.16-1.53,2.12-1.92,1.16-.47,3.36-.46,3.75-.75.37-.27.19-.92.71-1.15.99-.44,2.41-.32,3.42-.54,2-.45,4-1.06,5.94-1.7,1.67.25-.2.67-.67.45-.12.78,1.07.49,1.5.38.87-.24,1.47-1.02,2.22-1.37,1.74-.82,3.36-.93,5.27-.8-.83,1.31.91,1.85.9,3.14-2.59.5-5.18.72-7.77,1.45ZM443.88,91.43l-1.57-.9-.46.45c.22-1.24-1.58-1.99,0-3.14.82.4.29,1.05.45,1.35.39.74,1.76,1.1,1.57,2.25ZM449.72,86.94l-2.7.45v-.45s2.7-.45,2.7-.45v.45ZM444.33,83.79h1.8v.45h-1.8v-.45ZM447.93,86.04c-1.1-.34-2.42.38-3.29.35-.25,0-.64-.26-1.01-.33-.82-.17-1.3.41-1.1-.92,1.61.31,4.46-.83,5.39.9ZM442.53,83.34c.09.83-.99.44-1.48.35-.94-.17-2.2-.54-3.02-1.03.74-.99.71-.47,1.49-.15,1.01.42,1.76,1.08,3,.82ZM420.51,77.05c2.51.19,4.94-1.29,7.4-1.37,2.12-.07,4.01,1.06,6.08,1.37l-.46.9c1.15.38,2.44-.56,3.36-.47.49.05.85.48.91.48h12.81l-2.04.89c-8.32.83-16.54,2.68-24.79,3.51l-2.39-.8c1.29.29,2.01-1.09,3-1.29,1.24-.26,2.11.97,2.84-.95l-4.65.97v-.46s2.64-.95,2.64-.95c1.84.04,3.54-.36,5.39-.46.56-.03,1.67.35,1.57-.45-3.29-.33-7.38.45-10.56,0-.07-.01-1.32-.49-1.12-.9ZM414.67,79.49c-.07-.28.45-1.31.66-1.57.81-.98,6.4.8,7.87.48l-4.78,3.11-3.75-2.01ZM416.46,84.44l2.25.25-2,3.17c-.46.55-1.07.33-1.6.42-.04,0-.09.31-.23.32-.14,0-.18-.31-.22-.32-.27-.05-.61.03-.9,0v-.45c.29.02.64-.06.9,0-.05-1.53.74-2.43,1.8-3.4ZM413.37,85.42c.27-.87,1.74-1.51,2.42-2.08l-2.03,3.59c-.77.13-.51-1.13-.39-1.52Z"/>
  <path d="M470.4,103.57c-.07.04-.16.08-.24.13.11-.05.2-.1.24-.13Z"/>
  <path d="M469.5,104.02c.15-.08.4-.2.61-.3-.26.13-.53.25-.61.3Z"/>
  <path d="M419.61,104.47c.84.24.84-.43.9-.45-.27.11-.94-.24-.9.45Z"/>
  <path d="M469.5,104.02c-.27.14-.42.44-.45.45.27-.16.37-.4.45-.45Z"/>
  <path d="M468.6,72.55c-.13-.14-.1-.3-.45-.45.15.17.42.4.45.45Z"/>
  <polygon points="515.36 114.58 515.8 114.81 515.8 114.36 515.36 114.58"/>
  <path d="M468.6,73c.92-.22.09-.35,0-.45.07.11-.07.38,0,.45Z"/>
  <path d="M475.8,103.57c.27-.05.61.03.9,0v-.9c-.56-.02-.67.63-.9.9Z"/>
  <path d="M513.56,121.55c.2-.1.36-.24.45-.45-.26.13-.3.28-.45.45Z"/>
  <path d="M518.5,122c.07-.11-.07-.35,0-.45-.24.17-.32.34-.45.45.07-.07.4.07.45,0Z"/>
  <path d="M420.96,74.8c.35-.17.52-.23.9-.45-.33.1-.71-.03-.9.45Z"/>
  <path d="M518.05,122.45c.08-.07-.07-.38,0-.45-.2.17-.28.22-.45.45.13-.06.37.07.45,0Z"/>
  <path d="M534.23,69.85l-.42-1.31.9-.27c.29-.55-.54-1.93-.45-1.98.16-.09.57.05.77-.12.56-.47.9-2.69.11-3.29l.9.23-.48-2.46.89-.28-.38-.82.84-.07c-.95-1.39.18-2.51.04-4.02l.89.24c-.44-.33-.45-.74-.37-1.24.86-5.6,2.83-10.98,3.97-16.52.11-.13,1.08.8,1.47,1,7.21,3.62,13.97,9.15,19.55,14.84,1.49,1.52,3.74,6.56,4.14,8.67.13.7-.1,1.5.02,2.22.13.78,1.24,4.41.82,4.7l-.81.07.42,1.31-9.67,3.15c-3.42-.5-6.74-.48-10.23.1l-5.27,1.47c.35.42,1.13-.74,1.35.07.06.24-.14.63.24.63,4.08-2.08,8.08-1.94,12.55-1.85l.49.95c.88-.16,2.35-.92,3.14-.92.29,0,1.69.31,1.56.89-1.03-.18-1.92.4-2.9.47-1.83.13-5.01-.76-6.09.88.75.21,1.41-.44,2.02-.44.87,0,1.69.59,3.13.42,1.55-.18,4.39-1.89,5.55-.76.15.15-.07.59.37.78.36.15,3.27.91,3.55.91.61,0,1.88-1.18,2.46-1.58l-1.35.23c.66-1.09-.24-2.41.21-3.15.63-1.05,1.82-.98,2.92-.88.52,2.71,1.19,6.18-.89,8.33-1.38-.16-2.64.38-3.9.53-.84.1-1.75-.23-3,.18-.63.2-.13.76-2.2,1.39-1.19.36-2.27.97-3.48,1.25-.08.91.8.23,1.24.12,2.31-.56,4.5-1.16,6.85-1.47.06,1.37-.79,2.43-.92,3.8-.3,3.17.11,6.74.49,9.88-1.41.54-1.76,2.57-2.52,3.81-.9,1.46-1.99,2.83-2.89,4.3.53.27,1.27-.79,1.55-1.15,1.24-1.57,1.9-3.17,2.75-4.89.09-.17.79-1.85,1.1-1.15-.69,2.6-2.19,5.29-3.67,7.57-2.36,3.65-5.65,6.62-7.36,10.62-.18.43-.23.9-.21,1.36l-1.35-.9-.45,1.35c-.14-1.16-1.3-2.07-1.62-3.14-.21-.71.23-1.05.18-1.51-.13-1.2-9.18-10.48-10.71-12.2-1.18-1.33-2.4-3.19-3.58-4.51-1.33-1.48-4.01-3.49-4.97-4.92-.36-.53-.52-.95-.43-1.6h-.9s-.05.83-.05.83c-1.98-.19-2.7,1.37-4,2.55.96.89.9-.46,1.32-.92.49-.54,1.13-.6,1.6-1.1l-.45,1.34,2.47-1.34c-.25.51-.46,1.92-.35,2.39.35,1.52,1.42,3.71,1.25,5.45-.29,3.06-2.15,5.14-2.62,7.29-.36,1.65.1,3.81-.08,5.54.78.11.44-1.03.45-1.57.02-1.12-.15-2.47.08-3.52.2-.89,1.17-2.04,1.51-2.99,1.09-3.04.98-4.83.64-7.86-.06-.5-.15-1.71.24-2.04,1.44,1.59,2.52,3.49,3.82,5.17,1.86,2.42,3.69,4.39,5.65,6.94,3.82,4.99,8.84,11.34,10.64,17.23.39,1.29,1.43,5.68,2.38,6.16.93.19.75-.47.69-1.14-.12-1.22-.77-2.47-.9-3.6-1.04-8.78,7.43-13.85,11.15-20.73,2.22-4.11,4.11-12.46,3.68-17.03-.14-1.45-.91-2.78-.92-4.25,4.56-.83,4.68-6.48,4.53-10.31,1.89-.49,3.28-2.16,5.36-2.28.13,1.21-.46,2.14-.45,3.37,0,.63-.13.85.65.65,2.94-.74,4.4-3.15,6.54-4.25.71-.37,2.35-.23,2.7-1.35.34-1.09-2.72-1.81-3.47-1.92-1.21-.17-2.36.03-3.48-.11-1.49-.19-2.96-1.37-4.73-.89-.36,1.54,1.29,1.99,1.8,3.14-2.81,1.12-6.02.31-8.54,1.8,0-1.73.01-3.46-.01-5.19-.09-5.79-2.25-9.95-5.62-14.57-.92-1.25-2.98-2.29-4.15-3.27-.19-.16-.19-.72-.55-1-4.12-3.28-9.34-4.93-12.83-8.77-.62-.68-2.17-2.56-2.56-3.29-.81-1.53-.58-3.35-1.47-4.82-.87.7-1.85,2.36-1.93,3.45-.15,1.78.74,4.79-.18,7.03l-7.56,28.87c-.11.66,1.41,1.97,1.81,1.56ZM564.65,76.1l-3.44-1.98,5.84-1.57c.26,2.12-.04,3.54-2.4,3.55ZM563.45,81.99c-.36-.3.55-.74.9-.45.36.3-.55.74-.9.45ZM565.48,90.08c.29,0,.29.45,0,.45s-.29-.45,0-.45ZM566.15,93.23c-.06.06-.61-.03-.9,0-.18-.17.75-1.08.9-.9-.03.28.06.84,0,.9ZM534.01,67.16c.29,0,.29.45,0,.45s-.29-.45,0-.45Z"/>
  <path d="M517.15,58.62c-.2.23,2.13,4.67,1.35,5.84.81.1.68-1.53.93-1.79,1.55.6,3.58-.56,5.14-.49,1.57.07,2.77.64,3.3,2.14.14.4,0,.84.07,1.04.63.44.32.6.45.9.03.06.27.11.37.34.16.39.02.78.08,1.01.02.07.75.15.45.67-.05.19-.37.32-.45.23.35.46.88,1.01.9,1.57l-1.35-.67.45,1.35-4.69-.42-.29-.89-2.21.42c-.22-1.37,1.52-1.21,1.8-2.25-.33-.05-2,.47-2.27.67-.36.27-.32.84-.52,1.04-.42.42-2.01.4-2.16,1.44,1.46.65,5.55-.22,4.51,1.76.89.13,1.68.63,2.54.83.36.08,2.05-.75,1.03,1,.44-.09,1.29-.03,1.8,0,0-.16.13-.3.22-.42.3.03.21.4.23.42.16.15.89.24,0,.45.38.47.45,1.01,1.35.9-.16,2.19-1.45.98-2.49.91-1.12-.08-2.24.02-3.36-.02.45-.72,1.15-1.11,1.8-1.8-.56.17-3.02,1.01-3.15.9l.68-1.34-1.4,1.36c-1.93.32-2.9,1.55-4.23,2.44-1.07.72-2.33,1.02-3.13,2.26l1.8-.67c-.5,2.96-1.41,5.52-.45,8.54,1.08.05.8.15.88-.68.14-1.41.48-2.71.91-4.05.02-1.38-.21-1.24-.47-.02-.2.93-.32,2.56-1.32,2.95.01-1.71.35-4.41.98-5.98.39-.98,2.33-2.24,2.84-3.45l1.04,1.13-.81,1.12c.53.42,2.4-1.66,3.36-1.8,1.4-.21,3.18.48,4.42.34,1.15-.13,2.35-1.1,3.44-.33-.08-.55.39-.92.47-1.35-.26-.05-.61.03-.9,0v-.45s.9,0,.9,0l-2.7-3.15,12.78,1.77.71-1.32-11.71-1.55c-.77-.49-1.83-5.89-2.58-7.31-1.86-3.56-6.67-3.87-9.54-1.48.2-1.32-.12-2.05-.69-3.15-.15-.28-.4-1.71-1.11-.9Z"/>
  <path d="M528.84,74.8c-.07-.07.08-.38,0-.45-.05-.04-.29.01-.45,0-.01.56.43.42.45.45Z"/>
  <path d="M526.59,74.35c-.35.07-.42.44-.45.45.12-.13.25-.11.45-.45Z"/>
  <path d="M531.99,76.15c.29.06.57-.05.91.2.96.74,2,4.42,3.8,4.76.43.08,1.27.22,1.13-.46-.98.53-3.23-1.77-2.7-2.25,2.35-.01,4.36-.79,6.29-2.02,0-.53-1.4-.14-1.82-.02-1.1.33-2.15.57-3.13.88-.59.18-1.12.73-1.57,1.14-1.44-.89-.79-3.06-2.92-2.68-.02.15.02.3,0,.45Z"/>
  <path d="M524.35,67.16l2.7,1.35c.1-.69-.63-.38-1.12-.92-.16-.17-.14-.58-.36-.78-.24-.22-.73.05-.78-.33-.17-1.13.34-1.51,1.36-1.57-1.5-1.88-3.6-2.72-5.63-.91-.68.61-.67,1.42,0,1.35.28-.02,1.31-1.58,1.85-1.75l1.97.41c-.4,1.17-.59,2.42-.9,3.6l.45,1.35.45-1.8Z"/>
  <path d="M528.84,67.61c-.02-.07-.29-.13-.36-.35-.14-.4-.02-.78-.09-1-.01-.05-.28-.41-.45-.9-.54-.37-1.15-.49-1.8-.45.91,1.14,1.85,2.48,2.7,3.6-.08-.1.08-.66,0-.9Z"/>
  <path d="M439.18,107.63c-1.48.1-3.02-.15-4.5,0-2.04.21-3.5,1.07-5.85.87-1.06-.09-2.67-1.3-3.38.46l22.23-1.37.45,1.38c.19.31,2.55.79,3.18.87,7.23.84,11.97-.4,18.85-.9,1.53-.11,3.19.12,4.74.02l-3.15.45c-.19,1.08.16,1,1.14.92,1.17-.1,3.09-.92,4.03-.9.57,0,1.06.59,1.72.39.46-.14.9-1,1.65-.86.11-.58-1.25-.88-1.59-.91-1.04-.09-1.7.41-2.66.49l-.29-.85c-1.02-.45-2.02.27-2.89.36-7.5.76-14.17,2.28-21.58.93-.93-.17-1.82.33-2.45-.69.63-1.03,1.53-.51,2.45-.69l5.64-1.33c-1.26.04-2.54-.08-3.81.01-1.97.14-3.96.35-5.88.42-.83.03-2.43.19-3.1,0-.24-.07-.82-.53-.48-.88.49-.49,1.23-.21,1.13-.9-1.52-.16-2.72.94-1.8,2.25-1.37-.32-2.58.38-3.8.47Z"/>
  <path d="M516.25,109.18c.57-.29,1.24-.15,1.81-.44.39-.2,1.43-1.42,1.73-1.87l1.64-4.2c-.92,1-.99,2.47-1.81,3.58-.65.88-1.24.97-1.9,1.5-.14.12-.05.57-.18.67-.26.21-1.07.16-1.6.45-1.36.75-2.63,1.69-4.17,2.17-.69.21-1.08-.23-1.49-.16-1.07.2-2.11.72-3.21.81-2.11.16-4.3-.87-6.54-.46-.34,1.4,1.07.87,2.02.9.92.03,1.3-.33,1.12.9-2.05-.21-3.99-.66-6.09-.47-1.23.12-2.39.67-3.59.9-1.05.2-2.49-.47-2.91.91,1.09-.08,2.29.13,3.36-.01.92-.12,1.92-.85,2.73-.9.69-.04,1.32.39,2.01.46h-1.81c0,2.07,4.07,1.37,5.64,1.37.58,0,1.05-.35,1.41-.37.77-.04,1.86.66,2.84.35.17-.89-.08-.99-.89-1.11-1.51-.23-2.97.27-4.5.21l1.57-.9h9.22c.05-.85-1.25-.31-1.96-.52-.38-.11-.66-.67-.95-.69-.42-.03-2.39,1-2.49-.14,1.31-.35,3.54-.19,4.65-.52,1.58-.46,3.13-1.79,4.33-2.41ZM501.42,113.91h-1.35v-.45h1.35v.45ZM505.02,112.56c-.36-.3.55-.74.9-.45.36.3-.55.74-.9.45Z"/>
  <path d="M478.49,132.34c-.09-.1,0-.54-.45-.45-.06.4.34.35.45.45Z"/>
  <path d="M474.9,127.84c-.09-2.38-1.49-3.04-2.7-4.5.06.08,0,.53.24.87.85,1.19,1.65,2.42,2.46,3.63Z"/>
  <path d="M478.94,133.24s.39-.06.39-.23c-.07-.19-.32-.15-.39-.22.06.1-.04.3,0,.45Z"/>
  <path d="M478.94,132.79c-.17-.18-.25-.27-.45-.45.21.25.43.42.45.45Z"/>
  <path d="M468,118.02c.83-.24,2.14-.05,3.08-.07.54,0,1.68.33,1.57-.45-1.5.28-2.71-.7-4.19-.38-1.96.42-5.46,3.48-7.34,3.9-3.33.73-4.55-.01-4.91-3.32-.07-.62.8-.92-.63-.65.12,3.39,1.24,5.45,4.94,4.94.07-.01.5-.34,1.35-.45,1.43-.76,4.92-3.17,6.14-3.53Z"/>
  <path d="M477.6,132.11c.07-.29.43-.21.45-.23.14-.19.53-.82.45-.9l-1.35.25c-.93-1.02-1.49-2.26-2.24-3.4.01.31.17.92-.22.9-2.3-1.06-3.75-2.69-5.16-4.75.31-1.51,1.89-1.74,2.68-.65-.06-.08.06-.58-.2-.91-.35-.44-1-.27-1.15-.66l2.08-1.98,2.21.84,2.45,2.94c-1.24-1.87-1.7-4.07-4.29-4.28-1.79-.15-2.87,2.74-4.08,3.11-1.52.46-2.75-1.24-4.01-1.32-.49-.03-2.53.37-3.35.47-.74.4-.74.26-1.35.45-.76.23-1.47.46-2.26.67-.42.11-1.01.13-.89.68,1.32-.06,1.62-.32,2.07.91.79.07,1.66.1,2.43.25.53.1,1.47-.03,1.35.64-2.13.71-4.63,1.33-6.89.83-.22-.05-1.94-.82-2.02-.9-.11-.11-1.29-2.67-1.35-2.92-.42-1.94-.4-2.79,1.72-2.4l-1.8-.45.68-2.24-1.15,2.22-4.47-.42c-.1.6,1.21.85,1.58.89.96.1,1.95-.04,2.91,0-.26,2.34.19,5.09,2.26,6.5,2.09,1.43,8.29,1.13,9.01-1.99,1.02.7,1.94-.2,3.11-.01l-.23,1.35,1.8-1.79c1.9,2.45,3.75,4.58,6.52,6.07l-2.25,1.57c.03.31-.19.92.22.9l2.7-2.24,1.12,1.57c-.23.42-.74.52-1.03.76-.31.25-1.36.72-.99,1.26l2.25-1.34c.37-.01.19.58.44.89.38.46.98.47,1.36.91.45.02.14-.63.22-.9-.65.17-1.51-.46-1.35-1.12ZM466.13,123.33c-.65.12-1.32.42-1.82.47-1.31.13-2.78-.83-4.25-.45l4.3-1.36,2.45.46c.09,1.17.07.75-.68.88Z"/>
  <path d="M472.43,130.54l-4.27,4.27,2.61-1.21,1.89-2.16c-.03-.31.19-.92-.22-.9Z"/>
  <path d="M522.55,144.47c-.03.14.03.3,0,.45.04-.06.27-.19.45-.45-.06.06-.29-.04-.45,0Z"/>
  <path d="M518.95,147.85c-.9.78-2.77.65-3.6,1.8l2.82-.78c.5-.24,1.27-.47,1.68-.8.33-.27,1.08-1.33,1.57-1.82.32-.32.9-.35,1.05-.52.23-.25,0-.71.07-.81l-.45-.45c-.38.47-2.77,3.05-3.15,3.37Z"/>
  <path d="M517.4,157.98c-1.52,4.16-3.76,8.78-7.21,11.67-1.39,1.16-3.36,2.07-4.72,3.37l3.59-1.57c0,.61-.8.63-1.36,1.11-.49.41-1.02.87-.88,1.59,4.29-2.72,6.88-6.43,9.08-10.92.95-1.95,2.31-4.91,2.96-6.93.59-1.83,1.66-5.73,1.9-7.54.12-.89-.18-.72-.9-.68-.34,1.77-.45,4.36-.98,5.99-.32.99-1.04,2.75-1.47,3.92Z"/>
  <path d="M524.11,139.97c-.43.87-.7,2.38-1.12,3.15.06-.06.29.04.45,0,.05-.12-.08-.36.22-.45.16,0,.32.35.22.45.22-.39.27-.48.45-.9l-.45-.22.45-.22c-.09-.65,1.09-3.02-.23-1.8Z"/>
  <path d="M523.45,143.13c-.05.12.08.36-.22.45-.16,0-.32-.35-.22-.45-.04.08-.84,1.28-.9,1.35.14-.03.31.04.45,0,.04-.17-.06-.36.22-.45.16,0,.32.35.22.45.05-.07.45-.13.68-.44.25-.35.15-.78.22-.91-.06.06-.29-.04-.45,0Z"/>
  <path d="M524.68,142.02c-.02-.14-.32-.19-.33-.24v.45s.35-.06.33-.21Z"/>
  <path d="M533.78,86.94c-.45,1.34,1.67,1.01,2.47.9.99-.14,2.12-1.05,3.24-1.25,2.04-.37,3.53.57,5.53.36l-2.02.45c-.73.6.59.52.91.47,3.27-.56,6.57-.98,9.86-1.38.69.19,1.41-.84,1.58-.89h-1.35s0-.22,0-.22v-.22s1.35,0,1.35,0h-3.6s1.35.9,1.35.9c-2.55.08-4.77.65-7.4.44-1.25-.1-3.85-.97-4.93-.89-.85.06-2.21.71-3.19.89-1.16.22-2.6.09-3.81.47Z"/>
  <path d="M556.71,85.59v-.45h-1.35s0,.45,0,.45c.33-.1.93.07,1.35,0Z"/>
  <path d="M515.36,54.57c-2.31-.42-2.59,1.37-3.6,2.92,1.03.79,1.42-1.11,2-1.6.67-.56,1.25-.47,2.05-.42-.08.85-1.56.61-2.04,1.33-.35.53-.18,1.22-.2,1.82,1.64.28,2.79-.82,4.07-1.61-.12-.56.17-2.18-.09-2.39-.15-.12-.6.08-.85-.32-.42-.67-.68-2.21-.88-3.05-.12-.49-.55-.38-.89-.28-.09,1.33.57,2.3.45,3.6Z"/>
  <path d="M512.21,44.23c.57,2.98,3.57,4.1,1.21,7.08-.11.15-.57.06-.66.19-.2.27-.45,1.68-.55,2.17,1.22-.29,1.76-2.44,2.7-2.7.04-.54.41-1.02.36-1.49-.12-1.3-1.8-4.58-3.06-5.25Z"/>
  <path d="M446.37,177.76c.71-.03,1.29-.46,1.79-.47.85,0,1.91,1.08,2.77,1.27,1.8.39,5.15-.08,7.03-.46.37-.08,1.34-.26,1.21-.81-2.7-.3-5.2.71-7.89.47-1.21-.11-1.42-.81-2.22-.93-1.5-.23-7.97-.22-9.37.08-.44.09-1.57.93-1.64.82l-.23-.89-2.25,2.25c.77.14,1.83-1.2,2.23-1.21,2.75-.12,5.72,0,8.58-.12Z"/>
  <path d="M510.86,73.9c1.81-.3,3.41-1.09,4.27-2.7l.23,1.35,1.8-1.35c-.35.61-.1,1.66-.17,2.03-.12.58-1.78,1.69.17,1.57l.4-4.45-1.3-.72,1.34-1.35-1.12-.67c-.52.51-1.19.84-.79,1.59-1.24.19-3.22,2.31-3.54,3.76l-1.3.94Z"/>
  <path d="M520.75,81.09l2.54-1.73c.3-.09,1.46-.13,1.51-.07l-.03-.88c-1.79.44-3.09.96-4.01,2.68Z"/>
  <path d="M524.79,79.3c.06.08-.14.55.08.79.07.08,1.85.93,2.02.96,1.16.23,1.37-.87,2.17-.87.47,0,1.83.73,2.03,1.15.46,1-1.16.07-.9,1.8,1.26.52,1.98,1.42,2.19,2.8.13.86-.39,1.58-.63,2.35-.53,1.69,1.01,1.21,1.16-.64.25-3.07-.58-5.58-2.48-7.91-.2-.25-.16-.7-.28-.82-.11-.11-2.53-.15-3.1-.5l1.35.9c-.83,1.94-2.23.1-3.6,0Z"/>
  <path d="M503.22,49.18l-.25-1.35c2.27-2.37,4.5-1.57,4.3,1.8l-.67-.9-2.02,1.57c0,1.66,1.17-.05,1.65-.15l1.49.15c-.42.38-.54.92-.88,1.36-.36.47-2.82,2.35-2.26,2.91.83.18,1.07-.45,1.57-.9,1.54-1.35,2.17-2.69,3.37-4.27.02-1.61-1.14.4-.9.68h-.45c-.27-4.71-3.31-6.24-6.23-2.03l1.28,1.13Z"/>
  <path d="M464.77,53.24c.26,0,3.68-1.23,3.83-1.37.05-.04-.03-.61,0-.9-1.57.83-3.16,1.07-4.93.88.15-.73-.45-1.42-.45-2.01,0-.46.39-.91.42-1.37.29-3.86.7-7.07,3.83-9.66.58-.48,1.34-.71,1.81-1.34.51.26-.15,1.56-.33,1.92-.6,1.23-2.32,3-2.54,4.23-.58,3.16,6.5,7.71,7.59,2.84-1.15-.22-1.45,1.37-2.46,1.36-1.07-.01-3.2-1.1-3.74-2.13-1.58-2.99,1.54-4.57,2.07-7.2.13-.64.33-1.88-.13-2.38-1.1.32-1.26,1.27-1.68,1.69-.88.87-3.49,2.79-3.87,4-.15.49,0,1.12-.16,1.64-.91,3.04-2.96,7.94.76,9.77Z"/>
  <path d="M498.33,35.98c-.26.9-.14,5.39.42,5.98l1.77.03c.1-.79-1.08-.34-1.31-1.16-.15-.53.04-1.18-.05-1.74-.17-1.01-.87-2.37.09-3.31,1-.98,4.31-1.01,4.03-4.06,1.93-.97,3.11-.49,4.88.41l-.4,1.5,2.76,2.67.12,1.65c1.79-1.47-.96-4.24-2.47-4.49l.87-1.12c-1.42-1.99-5.03-3.14-6.48-.67-.37.64-.4,1.73-.9,2.25-.67.71-2.92.68-3.32,2.07Z"/>
  <path d="M479.84,133.69c2.08.01,4.27,1.55,6.08,1.79,2.35.31,4.84-.35,7.09-.97l3.91-2.61c-1.7-.43-2.52.88-3.72,1.44-1.26.58-3.66,1.1-5.05,1.24-2.04.19-4.76-.8-6.95-1.11-.45-.06-1.39-.72-1.35.22Z"/>
  <path d="M470.85,34.12c-.45.5-1.08.74-.9,1.57l4.33-3.98,3.31-.51-.45-.87c1.94-.47,3.09-2.56,5.2-2.73,1.18-.1,3.57.77,4.24-.89l-4.05.45.23-1.34c-.54.62-1.24.21-1.19,1.26-2.32.59-6,2.87-8.01,4.38-.85.64-2,1.86-2.72,2.67Z"/>
  <path d="M503.44,98.62l1.32-.89c1.56,1.34,3.14,2.21,3.41,4.49l.9-.23c-.44-1.39-.44-2.77-1.82-3.59-.41-.25-1.02-.13-1.26-.3-.21-.16-.34-1.29-.99-1.49l-5.38-2.48c.1,1.82,3.26,2.26,3.86,3.14.38.56-.53,1.37-.04,1.35Z"/>
  <path d="M501.43,151.91l-2.26-.24c.13.77.87.81,1.45,1.02,1.94.69,5.33,1.49,7.09.1l-5.39-.23c.37-1.66,1.72-1.97,2.71-2.91,1.29-1.23,2.57-2.54,3.81-3.83.3-.31,1.24-.9.9-1.35l-8.31,7.43Z"/>
  <path d="M494.91,110.3c-.83-.1-2.78-1.34-2.48.46,1.26.03,2.54-.05,3.81.01,2.57.12,4.13-.05,6.78-.25.81-.06,1.56.31,2.19.25.86-.08,2.66-.64,3.63-.9.61-.16,1.38.06,1.57-.9-1.75.21-3.91,1.11-5.62,1.16-.37.01-.84-.27-1.32-.27-1.74-.01-3.65.33-5.19-.44v1.35c-1.07-.74-2.19-.33-3.36-.46Z"/>
  <path d="M450.38,154.34c-.73.04-1.27.44-1.81.48-.79.06-1.39-.53-2.19-.47-.54.04-4.51,1.25-3.85,1.81.71.31,1.34-.42,1.57-.45,2.54-.28,5.88,0,8.54,0,.24,0,1.55-.61,1.12-1.35-1.12.06-2.27-.08-3.39-.02Z"/>
  <path d="M523.38,105.53c1.36-2.05,2.55-5.33,2.76-7.8l.9,3.6v-5.84l-.9,1.35-.9-2.7c-.1,1.58.86,3.05.38,4.65-.11.36-.59.63-.74,1.06-.95,2.78-1.5,5.12-3.69,7.32.53.48,1.92-1.24,2.18-1.64Z"/>
  <path d="M486.44,177.21c-1.01-.22-2.3-1.43-3.3-1.65-1.32-.28-2.8.1-4.19-.52-.02,1.96,2.01,1.17,3.28,1.44,2.56.54,3.8,2.08,6.74,1.62.33-.05,1.35-.27,1.21-.81-1.21-.1-2.57.18-3.74-.08Z"/>
  <path d="M457.37,74.8c.14-.11-.5-.85-.67-.9-1.17-.32-5.16,0-6.74,0-.07,0-.62.64-1.12.45.28,2.37,3.1,1.64,4.71,1.81.56.06,1.09.4,1.79.45.59.04,1.22-.01,1.82-.02.54,0,1.68.33,1.57-.45-2.51.13-5.03-.24-7.45-.88-.76-.2-1.31.44-1.09-.92l7.19.45Z"/>
  <path d="M476.02,113.89c-.97-.12-1.6.45-2.25.45-1.02,0-1.8-.81-2.92.69l5.18-.23c.16.02,2.71,1.34,2.83,1.45.14.13,1.6,2.54,1.79,2.93.47.96,1.08,3.92,1.67,4.17.2.08.74.11.67-.22-1.4-1.36-1.2-3.31-2.16-5.03-.22-.39-1.33-2.07-1.54-2.28-.22-.21-3.02-1.89-3.27-1.92Z"/>
  <path d="M497.82,81.09c1.25-.12,2.74.84,3.85.91.8.05,1.48-.62,2.16-.43.54.15.88,1.08,1.47,1.26,1.2.35,3.99.02,4.66-1.29l-4.94.45,1.35-1.35-4.27.73-4.04-1.18-.22.9Z"/>
  <path d="M489.88,131.36l3.9-1.72c-1.41-.25-2.55.66-3.83.89-.84.15-3.84.57-4.49.47-1.05-.16-2.89-1.64-3.81-2.26-.64.7,2.58,3.03,3.36,3.15,1.65.26,3.21-.62,4.88-.53Z"/>
  <path d="M514.45,90.08c-1.35.16-1.32,1.19-2,1.82-.5.46-1.48.69-1.85,1.33-.35.6.35.93.04,1.34-1.54-.92-2.19,1.56-2.93,2.7,1.35.2,1.38-1.56,2.25-2.05.56-.32,1.06.29,1.36.07.48-.35.37-1.15.67-1.6.35-.54,2.89-3.17,2.46-3.6Z"/>
  <path d="M504.39,43.31c-.36-.06-1.49-1.03-1.62-.87-.19,1.14.16.73.59.98.87.5,1.28,1.15,2.54.81.61-2.55,1.89-4.98-.2-7.19-.46-.48-.82-1.04-1.58-.89-.28,1.3,1.3,1.46,1.71,1.88,1.21,1.24-.19,5.49-1.44,5.28Z"/>
  <path d="M492.2,57.72c.95-1.07.6-1.94.21-3.14-1.46-.16-1.46-.1-1.33,1.34l1.35.22c-.71,1.64-2.44,2.52-3.84,1.14-.91-.89-.18-2.06-1.55-1.82.19,3.02,3,4.7,5.17,2.25Z"/>
  <path d="M510.89,34.3c.37.3,1.56.7,2.19,1.19,1.34,1.04,1.86,1.75,1.76,3.48l-1.52,3.01c4.03-3.25,1.73-7.52-2.47-8.99.04.37-.1,1.2.03,1.31Z"/>
  <path d="M504.34,55.02c-.12.13-.18.28-.22.45.15-.01.3,0,.45,0l-.23-.45Z"/>
  <path d="M504.12,55.92c-.3.64.12.91-1.03,1.45-1.48.69-2.45.28-3.92-.1-.29.93.52,1.15,1.21,1.26,2.14.35,2.64-.15,3.96-1.71.34-.4,1.26-1.03.22-1.35.1.45-.44.42-.45.45Z"/>
  <path d="M496.24,60.85c.27-.39.82-1.35.93-1.76.27-.98-.01-2.53.63-2.96,1.44-.8,3.05.28,4.29.28.31,0,1.89-.38,2.02-.49.06-.04-.04-.29,0-.45-.6.05-1.09.44-1.56.44-1.11,0-5.08-2.04-5.58-.17-.32,1.18-.05,2.27-.71,3.78-.34.79-1.01,1.22-1.13,2.01.17.57,1-.53,1.11-.69Z"/>
  <path d="M502.32,61.99c-.95.49-2.67,3.47-2.69,4.72.99-.31,1.05-1.52,1.58-2.24,1.4-1.85,2.69-2.05,4.93-2.27.64-.06,1.41-.27.68-.88-.37-.31-3.84.33-4.5.67Z"/>
  <path d="M505.02,67.84c-.87.45-2.99.07-2.7,1.57,2.64-.38,5.83-1.27,5.84-4.49-1.53.29-2.18,2.43-3.14,2.92Z"/>
  <path d="M424.1,185.83c.11.86.37,3.36,1.15,3.58.71.19,1.25-.24,1.77-.24.51,0,1,.43,1.74.22.82-.23,1.08-1.45,1.63-1.98l-1.62,1.1-1.52-.64-1.8-3.82c-.33,1.69.66,2.84,1.35,4.27l-1.12.22-1.57-2.69Z"/>
  <path d="M493.78,32.09c1.24.03,1.8-1.53,3.01-1.74,1.73-.31,4.37,2.73,5.53-.05-1.5.72-4.65-1.12-5.54-.86-.46.14-3.29,2.39-3,2.65Z"/>
  <path d="M460.51,118.4l2.4-.07,6.59-3.07-.22-.9-6.37,3.07c-.93.36-2.75-.63-2.4.97Z"/>
  <path d="M485.69,41.99c.36,1.65,3.63.51,4,.97.1.13-.01.56.15.7.29.25.76.28,1.03.56.42.44,1.91,2.82,2.47,2.26-1.1-3.45-4.2-4.71-7.64-4.49Z"/>
  <path d="M541.29,77.59l-1.66,1.26c2.97-.5,6.4-.85,8.99-2.47l-7.33,1.21Z"/>
  <path d="M509.29,46.93v-2.69c1.06.95.92,3.62,2.92,3.15.42-1.7-.86-1.15-1.45-2.37-.26-.53-.4-1.08-.35-1.67-2.54.32-2.88,1.85-1.12,3.59Z"/>
  <path d="M475.57,42.43c1.4-1.31.37-4.26,2.46-4.73.68-.16,1.53.79,2.26-.44l-2.46-.21-1.55.48c.06,1.26-.45,2.28-.85,3.42-.25.74-.92.7.13,1.48Z"/>
  <path d="M455.92,156.97c-1.94.41-1.04,2-1.27,3.45-.18,1.14-.77,2.23-.88,3.39,1.59-.92,1.49-3.33,2.01-4.96.48-1.52,1.14-2.96,1.58-4.48l-1.44,2.61ZM455.34,158.41c-.29,0-.29-.45,0-.45s.29.45,0,.45Z"/>
  <path d="M479.39,31.65c1.25-.34,2.93-.28,4.07-.65.89-.29,2.06-1.47,2.97-1.98,2.84-1.56,5.43-1.51,7.79.83.88-.9-3.14-2.61-3.83-2.69-3.58-.43-5.08,2.73-8.16,3.49-.64.16-2.41-.49-2.84,1Z"/>
  <path d="M488.38,65.36c-.26,1.08,1.35,1.65,2.1,1.71.73.06,3.11-.83,3.64-1.36l1.23-2.59c-1.63,2.61-3.97,3.49-6.97,2.25Z"/>
  <path d="M500.3,46.48c-1.61,1.6-2.3,3.26-.21,4.7,1.29.89,2.27.78,3.13-.66-1.9.51-3.88.5-3.6-2.02l.68-2.03Z"/>
  <path d="M506.81,151.22l4.95-1.12,4.49-2.92-4.92,2.49c-1.14.15-2.25.49-3.38.67-.83.13-1.33-.47-1.13.88Z"/>
  <path d="M560.98,57.27l1.79,6.3,1.13,2.68c-.42-3-1.09-6.56-2.92-8.99Z"/>
  <path d="M512.66,35.69c-.61-.1-.66,1.17-.79,1.68-.16.63-.09,1.2-.34,1.91-.49,1.37-1.86,1.49-2.46,2.7,3.16-.39,3.63-3.7,3.59-6.29Z"/>
  <path d="M496.03,177.06c.93,1.37,1.94.33,2.93.24,1.23-.12,1.95.05,3.25-.34.43-.13,1.61-.32,1.23-1.02l-3.61.88-3.8.24Z"/>
  <path d="M556.71,51.2c-1.29-1.55-2.54-3.16-3.84-4.7-.44-.52-.75-1.08-1.55-.92l2.8,3.94,2.59,1.68Z"/>
  <path d="M569.29,97.73c-1.54.94-1.75,2.94-2,4.52l-3.85,7.17c1.86-1.7,2.6-4.45,4.14-6.42l1.7-5.27Z"/>
  <path d="M478.94,69.41c-2.32.6-2.44-1.83-4.04-2.7,0,1.96,2.53,5.26,4.04,2.7Z"/>
  <path d="M495.57,41.54c.32-1.8-.33-2.5-1.55-3.62l-1.6-2.67c-.54,2.09,1.29,2.84,2.01,4.05.41.67.29,2.11,1.13,2.24Z"/>
  <path d="M474.45,63.11c-1.4.12-2.43.92-3.85,1.33-.74.21-1.31-.46-1.09.92,1.83.21,4-.61,4.94-2.25Z"/>
  <path d="M426.05,68.43c1.12-.65,2.63-1.6,3.45-2.62-1.94-.53-2.28,1.11-3.35,1.82-.65.43-1.18.28-1.59.65.67.87.7.6,1.49.15Z"/>
  <path d="M491.41,89.71l1.91.15-5.39-1.57c.06,1.68,2.3,2.2,3.48,1.43Z"/>
  <path d="M477.62,41.78c1.03-.59,1.98-1.4,3.1-1.84.72-.28,1.88.12,1.82-.65-2.19-1.04-3.5,1.01-5.29,1.9l-2.35,3.49,2.72-2.9Z"/>
  <path d="M434.44,167.85c-.07-.93-1.71-.26-2.43-.49-.66-.2-.59-1.1-.78-1.23l-1.73-.3c1.75,1.99,1.94,3.29,4.94,2.02Z"/>
  <path d="M494.45,108.07c.89.12.72-.18.68-.91-1.05.55-4.63-1.62-4.95-1.35-.77.67.54.98.9,1.11.94.34,2.5,1.03,3.37,1.15Z"/>
  <path d="M426.8,107.17c-1.39-.16-3.1.43-4.27-.45l.23.9-1.8.45h3.81s2.04-.9,2.04-.9Z"/>
  <path d="M440.06,157.51c-2.68,2.09-5.59,4.02-7.42,6.97l6.07-5.16,1.34-1.8Z"/>
  <path d="M422.06,179.56l-.65-2.27c-.9,1.81.69,3.1.45,4.94l1.35-.45-1.15-2.22Z"/>
  <path d="M555.81,41.54c-.06-.04-.52,0-.87-.23-1.03-.7-1.72-2.63-3.17-.89l3.82,2.02c.39.05.26-.87.22-.89Z"/>
  <path d="M514.24,66.71c.46-.89,1.04-1.36-.23-1.8.07.89-.64,1.25-1.13,1.8-.65.73-.94.56,0,1.35.76.2,1.1-.85,1.35-1.34Z"/>
  <path d="M485.26,51.63c.62.43.08,1.69,2.23,1.14l-3.59-2.7c-.37,2,.58,1,1.37,1.55Z"/>
  <path d="M496.03,42.88c-.1,1.94,3.42,2.86,3.59.45-1.4.92-2.34.25-3.59-.45Z"/>
  <path d="M474,112.11c-1.76-.04-3.93-.06-5.39,1.12l3.81-.23,1.58-.89Z"/>
  <path d="M517.69,88.87c.05.33.28,1.35.81,1.21l.02-3.8,1.56-4.73c-1.7,1.37-1.43,3.79-2.47,5.62-.1.58,0,1.14.09,1.71Z"/>
  <path d="M571.54,92.33l-.46-5.15-.88-2.49c.09,2.03.34,4.32.71,6.29.1.53-.03,1.47.64,1.35Z"/>
  <path d="M491.98,34.34c-1.02-.17-1.71.42-2.56.81-.95.44-.59.39-.58,1.43.72-.5,1.31-.88,2.13-1.26.64-.29,1.26.34,1.02-.99Z"/>
  <path d="M489.05,161.55v.45c1.11-.63,2.13-1.54,3.24-2.16.39-.22,1.19-.95,1.49-.31-1.25,1.6-3.13,2.2-4.05,4.04-2.5,1.51-4.69,3.58-7.63,4.28l1.8-2.47c-1.45-.88-1.21.21-1.78.91-.87,1.06-2.31,1.82-3.32,2.53-.84.6-4.38,3.22-5.01,3.08-.37-.08-.89-.66-.23-1.13.93-.67,1.93-.48,2.7-.89,1.37-.72,2.76-2.69,4.2-3.45l.52-1.28c-1.7,1.17-3.27,3.01-5.16,3.83-1.7.74-3.55.71-5.09,1.2-3.68,1.18-7.21,2.9-10.99,3.85-2.59.65-5.29.84-7.87,1.58-.77.22-1.49.17-1.23,1.23l12.36-3.15-.45,1.35,3.82-1.35-.9-.9c1,.29,1.87-.73,2.54-.82.37-.05.77.29,1.2.26.73-.06,1.32-.51,2.34-.35.69.1.95.64,1.44.82,1.64.6,3.29,1.21,5.08,1,.09-.93-.52-2.1.9-1.8l.48,2.67,1.77.03c.25-1.05-1.09-1.37-1.31-2.08-.3-.99.37-1.44.41-1.75.06-.44-1.22.8-.9-.44,2.65-2.33,6.57-3.26,9.43-5.41,1-.75,1.99-2.01,2.93-2.92.97-.94,2.38-1.51,2.93-3.14-2.39-.9-3.76,1.73-5.63,2.69ZM464.78,173.69c-.29,0-.29-.45,0-.45s.29.45,0,.45ZM475.34,172.58c-.21-.11-.57-.58-.44-.68l1.8-.45.45,1.58c0,.21-1.41-.23-1.8-.44Z"/>
  <path d="M468.16,137.28h.45c-.22-.92-.35-.1-.45,0Z"/>
  <path d="M467.93,139.08c1.45-1.62,3.07-2.95,4.95-4.04,1.41-1.45.4-.82-.36-.36-1.38.82-2.65,1.62-3.91,2.6-.03.02.06.53-.45.45.05.58-.54.98-.23,1.35Z"/>
  <path d="M468.16,137.73v-.45c-.63.58-.03.18,0,.45Z"/>
  <polygon points="465.01 112.11 460.96 112.33 462.97 113 465.01 112.11"/>
  <path d="M491.93,52.73l.95-2.2c-.96.92-2.08,1.27-3.14,2.02l2.2.18Z"/>
  <path d="M474,29.4s.17-.95-.22-.9l-5.62,4.72,4.97-3.59c.21-.26.78-.16.87-.23Z"/>
  <path d="M495.58,25.8c-1.64.31-2.96-.65-4.49-.9l1.65,1.27,2.84-.37Z"/>
  <path d="M475.44,32.86c-.15.95-.09,1.89-.09,2.84l.9-.22c-1.05-1.28-.22-2.63.45-3.82-.93-.29-1.15.53-1.26,1.21Z"/>
  <polygon points="484.34 42.44 482.56 43.13 480.74 45.13 482.32 44.23 484.34 42.44"/>
  <path d="M432.64,182.23c-1,.5-1.62,2.1-1.8,3.15,1-.5,1.62-2.09,1.8-3.15Z"/>
  <path d="M494.68,91.88c-.6.61,2.08,2.41,2.7,2.25-.51-1.12-1.78-1.57-2.7-2.25Z"/>
  <path d="M469.95,55.02c.63-.63-1.87-2.04-2.24-2.25-.42,1,2.13,2.36,2.24,2.25Z"/>
  <path d="M492.43,79.75l2.47,1.8c.39.06.26-.87.22-.9-.14-.12-2.24-.81-2.7-.9Z"/>
  <path d="M513.99,77.87l.46-.37c-.43-.09-.45.12-.46.37Z"/>
  <path d="M513.99,77.87l-.94.75c.25-.05.51-.09.69-.19.23-.13.24-.36.25-.56Z"/>
  <path d="M512.21,79.29l.85-.68c-.45.09-.89.2-.85.68Z"/>
  <path d="M554.72,111.24c-.37.81-1.09,1.88.19,2.22l.9-3.6c-.46-.06-.94,1.03-1.09,1.38Z"/>
  <path d="M486.61,162.24c-.62.43-2,.32-2.27,1.56.96.2,1.6-.84,2.26-1.11.36-.15.77.23.83.17.15-.16.53-1.37.96-1.75-1.72-.46-1.18.72-1.78,1.13Z"/>
  <path d="M483.22,108.51c.52-.02,1.24.29,1.12-.45-.82.02-1.65-.03-2.47,0-.52.02-1.24-.29-1.12.45.82-.02,1.65.03,2.47,0Z"/>
  <path d="M446.58,73.9v-.45s-2.7-.45-2.7-.45v.45c.92.18,1.73.63,2.7.45Z"/>
  <path d="M460.96,56.82l.45-2.7h-.45c-.18.92-.63,1.73-.45,2.7h.45Z"/>
  <path d="M462.54,141.33c-.87,1.32-2.05,2.51-2.93,3.81-.25.36-.9,1.16-.67,1.58l2.86-3.43.73-1.96Z"/>
  <path d="M422.75,69.18l-1.58.67-1.56,1.81c1.14-.7,2.27-1.44,3.14-2.47Z"/>
  <path d="M498.25,149.22l.47,1.55,1.13-3.14c-.63.7-.58,1.27-1.6,1.59Z"/>
  <rect x="500.97" y="80.2" width="2.7" height=".45"/>
  <rect x="442.08" y="65.36" width="2.7" height=".45"/>
  <rect x="421.86" y="169.2" width=".45" height="2.7"/>
  <path d="M499.17,79.29v-.45c-.64.13-2.25-1.13-2.24-.68.66.76,1.16,1.34,2.24,1.12Z"/>
  <path d="M529.74,93.68v-1.35c-1.92-.35-.28,1.65,0,1.35Z"/>
  <path d="M491.08,112.11v-1.35c-.28-.31-1.93,1.7,0,1.35Z"/>
  <path d="M518.95,104.02h-1.35c-.34,1.94,1.66.25,1.35,0Z"/>
  <path d="M477.91,120.56c-.31-.2-1.29-.74-1.66-.58l2.69,2.02c.19-.93-.44-1.05-1.03-1.44Z"/>
  <polygon points="504.12 79.74 507.26 78.62 505.35 78.96 504.12 79.74"/>
  <path d="M491.53,175.49v.45c.69-.28,2.25.52,2.24.23-.57-.84-1.3-.73-2.24-.67Z"/>
  <rect x="434.89" y="70.76" width="1.8" height=".45"/>
  <path d="M498.29,154.61c.25-.33.88-1.18.66-1.59l-2.68,3.17-.92,1.77c.94-1.03,2.11-2.25,2.94-3.35Z"/>
  <polygon points="423.2 167.4 422.31 167.4 422.31 168.75 422.75 168.75 423.2 167.4"/>
  <path d="M416.46,73.45c-.18-.22-1.19.79-.9,1.35.18.22,1.19-.79.9-1.35Z"/>
  <path d="M424.1,181.33h1.35c-.39-1.11-1-1.03-1.35,0Z"/>
  <path d="M457.82,153.91l1.26-3.46,3.91-6.88c-2.2,2.73-4.02,5.83-5.25,9.14-.15.4-.91,1.2.08,1.2Z"/>
  <path d="M438.93,70.53c0-.38-1.16.49-1.79.23v.45c.83.1,1.31.02,1.79-.67Z"/>
  <path d="M461.18,60.42c-.31-.6.09-1.46-.67-1.35-.27,1.34.8,1.88,1.57,2.69.38-.53-.69-.92-.91-1.34Z"/>
  <rect x="511.31" y="81.09" width="1.35" height=".45"/>
  <rect x="518.5" y="65.36" width=".45" height="1.35"/>
  <path d="M529.52,135.49c-.69.49-.78.96-.67,1.79h.45c-.26-.64.61-1.8.23-1.79Z"/>
  <rect x="464.56" y="143.13" width=".45" height="1.35"/>
  <path d="M481.19,129.64c-.35-.29-1.26.15-.9.45.35.29,1.26-.15.9-.45Z"/>
  <polygon points="482.54 164.7 483.89 164.03 483.66 163.81 482.54 164.26 482.54 164.7"/>
  <path d="M510.86,76.6c-.29.35.15,1.26.45.9.29-.35-.15-1.26-.45-.9Z"/>
  <path d="M491.53,158.63l-.22-.22-1.57,1.12.22.22c.44-.55,1.19-.52,1.57-1.12Z"/>
  <path d="M494.45,156.16l-2.47,2.02c.4.22,1.27-.41,1.59-.66.26-.2,1.21-.99.88-1.36Z"/>
  <path d="M461.42,65.58c.59.54.94,1.3,1.79,1.12v-.45s-1.57-.9-1.57-.9l-.22.22Z"/>
  <path d="M464.56,146.27c.29-.35-.15-1.26-.45-.9-.29.35.15,1.26.45.9Z"/>
  <polygon points="511.76 143.13 510.41 143.8 510.63 144.02 511.76 143.57 511.76 143.13"/>
  <polygon points="419.61 73 419.61 72.55 418.26 73.23 418.48 73.45 419.61 73"/>
  <path d="M535.13,89.63c.35.29,1.26-.15.9-.45-.35-.29-1.26.15-.9.45Z"/>
  <path d="M503.67,79.3c-.35-.29-1.26.15-.9.45.35.29,1.26-.15.9-.45Z"/>
  <path d="M460.51,58.62c.29-.35-.15-1.26-.45-.9-.29.35.15,1.26.45.9Z"/>
  <path d="M466.58,138.63l-3.37,4.27,2.02-2.02.22,1.8c.62-.85-.02-1.98.06-2.42.11-.58,1.4-.97,1.07-1.63Z"/>
  <polygon points="525.92 139.53 524.8 141.1 525.02 141.33 526.14 139.75 525.92 139.53"/>
  <path d="M527.49,135.93c.29-.35-.15-1.26-.45-.9-.29.35.15,1.26.45.9Z"/>
  <path d="M462.76,42.43l.45-1.8h-.45c.02.67-.55,1.14-.45,1.8h.45Z"/>
  <path d="M461.86,44.23c.29-.35-.15-1.26-.45-.9-.29.35.15,1.26.45.9Z"/>
  <path d="M512.66,108.06c.35.29,1.26-.15.9-.45-.35-.29-1.26.15-.9.45Z"/>
  <path d="M556.71,84.24c-.35-.29-1.26.15-.9.45.35.29,1.26-.15.9-.45Z"/>
  <polygon points="510.86 108.51 510.86 108.96 512.21 108.29 511.98 108.07 510.86 108.51"/>
  <path d="M490.63,113.91c-.35-.29-1.26.15-.9.45.35.29,1.26-.15.9-.45Z"/>
  <path d="M461.64,53.22c-.29,0-.29.45,0,.45s.29-.45,0-.45Z"/>
  <path d="M471.53,53.67c.29,0,.29-.45,0-.45s-.29.45,0,.45Z"/>
  <path d="M445.45,66.26c.29,0,.29-.45,0-.45s-.29.45,0,.45Z"/>
  <path d="M474.22,46.03c.29,0,.29-.45,0-.45s-.29.45,0,.45Z"/>
  <path d="M420.28,107.61c.29,0,.29-.45,0-.45s-.29.45,0,.45Z"/>
  <path d="M460.74,46.03c.29,0,.29-.45,0-.45s-.29.45,0,.45Z"/>
  <path d="M461.19,45.13c.29,0,.29-.45,0-.45s-.29.45,0,.45Z"/>
  <path d="M423.43,68.96c.29,0,.29-.45,0-.45s-.29.45,0,.45Z"/>
  <path d="M495.35,129.19c-.29,0-.29.45,0,.45s.29-.45,0-.45Z"/>
  <path d="M477.82,129.64c-.29,0-.29.45,0,.45s.29-.45,0-.45Z"/>
  <path d="M536.71,89.18c.29,0,.29-.45,0-.45s-.29.45,0,.45Z"/>
  <path d="M519.62,80.19c-.29,0-.29.45,0,.45s.29-.45,0-.45Z"/>
  <path d="M534.01,89.63c.29,0,.29-.45,0-.45s-.29.45,0,.45Z"/>
  <path d="M417.59,73.45c.29,0,.29-.45,0-.45s-.29.45,0,.45Z"/>
  <path d="M463.89,148.07c.29,0,.29-.45,0-.45s-.29.45,0,.45Z"/>
  <path d="M439.61,65.81c.29,0,.29-.45,0-.45s-.29.45,0,.45Z"/>
  <path d="M510.19,152.12c-.29,0-.29.45,0,.45s.29-.45,0-.45Z"/>
  <path d="M497.15,152.57c-.29,0-.29.45,0,.45s.29-.45,0-.45Z"/>
  <path d="M508.84,152.57c-.29,0-.29.45,0,.45s.29-.45,0-.45Z"/>
  <path d="M440.96,65.81c.29,0,.29-.45,0-.45s-.29.45,0,.45Z"/>
  <path d="M496.25,153.91c-.29,0-.29.45,0,.45s.29-.45,0-.45Z"/>
  <path d="M495.35,155.26c-.29,0-.29.45,0,.45s.29-.45,0-.45Z"/>
  <path d="M457.14,157.06c.29,0,.29-.45,0-.45s-.29.45,0,.45Z"/>
  <path d="M510.19,77.05c-.29,0-.29.45,0,.45s.29-.45,0-.45Z"/>
  <path d="M516.48,76.6c.29,0,.29-.45,0-.45s-.29.45,0,.45Z"/>
  <path d="M481.87,165.15c.29,0,.29-.45,0-.45s-.29.45,0,.45Z"/>
  <path d="M427.47,166.05c.29,0,.29-.45,0-.45s-.29.45,0,.45Z"/>
  <path d="M525.92,93.68c.29,0,.29-.45,0-.45s-.29.45,0,.45Z"/>
  <path d="M501.64,174.14c-.29,0-.29.45,0,.45s.29-.45,0-.45Z"/>
  <path d="M422.53,183.13c.29,0,.29-.45,0-.45s-.29.45,0,.45Z"/>
  <path d="M453.1,90.53c-.54.01-1.68-.33-1.57.45,2.02.03,4.06-.03,6.08-.02,1.88,0,3.67.23,5.74-.07.33-.05,1.36-.28,1.21-.81-.87-.19-1.7.19-2.48.25-.84.06-1.83.19-2.67.22-2.09.08-4.21-.06-6.31-.02Z"/>
  <path d="M430.19,99.99l-2.49.88,5.58-.43,1.16-1.37c-.84-.23-1.08.67-1.64.83-.81.24-1.77-.05-2.62.08Z"/>
  <path d="M456.88,87.91l7.47,1.28,1.56-.9c-1.38-.11-2.91.16-4.26-.01-.77-.1-1.61-.71-2.26-.72-.65-.01-1.63.42-2.51.35Z"/>
  <path d="M466.36,91.88l-4.05-.45c.62,1.17,3.48,2.11,4.05.45Z"/>
  <path d="M460.06,87.39h3.36s2.94-.9,2.94-.9c-1.61.05-3.09.36-4.72.45-.56.03-1.67-.35-1.57.45Z"/>
  <path d="M434.89,98.62c.28-.03.84.06.9,0,.3-.3.27-1.86,0-2.25h-.45l-.45,2.25Z"/>
  <rect x="449.73" y="91.43" width="2.7" height=".45"/>
  <path d="M468.6,89.19c-.26-.27-1.32.55-1.8.45v.45s1.8,0,1.8,0c-.03-.28.06-.83,0-.9Z"/>
  <path d="M451.07,88.73h1.35c.31-.25-1.69-1.94-1.35,0Z"/>
  <path d="M446.58,94.13v-.45c-.64.26-1.8-.61-1.79-.23.49.69.96.78,1.79.67Z"/>
  <rect x="447.03" y="90.98" width="1.35" height=".45"/>
  <path d="M447.03,94.58c.35.29,1.26-.15.9-.45-.35-.29-1.26.15-.9.45Z"/>
  <path d="M443.88,103.12c-.35-.29-1.26.15-.9.45.35.29,1.26-.15.9-.45Z"/>
  <path d="M438.71,99.97c-.29,0-.29.45,0,.45s.29-.45,0-.45Z"/>
  <rect x="465.75" y="90.06" width=".31" height=".95" transform="translate(72.63 356.23) rotate(-45.04)"/>
  <rect x="434.29" y="95" width=".31" height=".95" transform="translate(59.75 335.2) rotate(-45.01)"/>
  <path d="M429.05,85.59l-1.35-.45c-.57.67,1.69,2.47,1.35.45Z"/>
  <rect x="435.79" y="86.04" width="1.8" height=".45"/>
  <path d="M33.77,410.76h-.56l-9.13,23.31-2.97.7v.5h7.27v-.5l-3.05-.7,3.24-8.42h9.19l3.35,8.42-3.1.7v.5h8.1v-.5l-2.94-.7-9.39-23.31ZM29,424.54l4.09-10.63,4.23,10.63h-8.31Z"/>
  <path d="M67.17,433.68c-.27-.39-.57-1.01-.91-1.84l-2.06-5.09c-.37-.94-.76-1.68-1.14-2.23-.39-.55-.84-.94-1.35-1.19-.42-.2-.94-.31-1.52-.37,1.09-.22,2.04-.56,2.83-1.05.88-.55,1.54-1.23,1.99-2.05.45-.82.68-1.72.68-2.72,0-1.13-.28-2.15-.83-3.06-.55-.91-1.44-1.63-2.66-2.16-1.22-.54-2.83-.8-4.84-.8h-8.3v.51l3.01.7v21.75l-3.01.7v.5h8.19v-.5l-3.25-.7v-10.53h4.62c.66,0,1.19.11,1.6.33.4.22.76.6,1.08,1.14.32.54.66,1.29,1.04,2.25l1.89,4.78c.32.82.62,1.45.89,1.92.27.46.58.8.93,1.01.35.21.8.32,1.34.35.55.02,1.27,0,2.16-.05v-.65c-.58,0-1.05-.06-1.42-.18-.37-.12-.68-.38-.96-.77ZM58.13,422.39h-4.13v-10.12h2c1.9,0,3.4.2,4.51.6,1.11.39,1.9.97,2.38,1.71.48.75.72,1.64.72,2.69,0,1.68-.51,2.96-1.54,3.82-1.03.86-2.34,1.3-3.94,1.3Z"/>
  <polygon points="91.27 409.95 89.69 411.12 73.96 411.12 72.37 409.95 72.12 409.95 71.33 417.51 71.91 417.61 73.94 412.28 80.85 412.28 80.85 434.08 77.84 434.78 77.84 435.28 85.79 435.28 85.79 434.78 82.78 434.08 82.78 412.28 89.71 412.28 91.72 417.61 92.3 417.49 91.52 409.95 91.27 409.95"/>
  <polygon points="112.62 410.38 111.02 411.12 101.23 411.12 99.51 411.12 96.28 411.12 96.28 411.63 99.3 412.33 99.3 434.08 96.28 434.78 96.28 435.28 104.24 435.28 104.24 434.78 101.23 434.08 101.23 423.73 108.49 423.78 109.23 427.96 110.01 427.96 109.86 423.18 110.01 418.39 109.23 418.39 108.49 422.55 101.23 422.63 101.23 412.28 110.89 412.28 113.25 417.54 113.81 417.43 112.82 410.38 112.62 410.38"/>
  <path d="M134.62,411.63l3.01.7v13.78c0,1.87-.3,3.41-.9,4.6-.6,1.19-1.47,2.07-2.61,2.63-1.14.57-2.52.85-4.16.85-1.73,0-3.17-.33-4.32-1-1.15-.67-2.01-1.65-2.59-2.95-.58-1.3-.87-2.89-.87-4.78v-13.13l3.01-.7v-.51h-7.95v.51l3.01.7v13.18c0,2.26.37,4.14,1.1,5.65.73,1.5,1.81,2.62,3.22,3.37,1.41.75,3.13,1.12,5.15,1.12,1.9,0,3.53-.35,4.88-1.05,1.35-.69,2.39-1.76,3.12-3.18.73-1.43,1.09-3.21,1.09-5.36v-13.73l3.01-.7v-.51h-7.21v.51Z"/>
  <polygon points="161.02 434.13 150.87 434.13 150.87 412.33 153.88 411.63 153.88 411.12 145.93 411.12 145.93 411.63 148.94 412.33 148.94 434.08 145.93 434.78 145.93 435.28 149.82 435.28 150.87 435.28 161.04 435.28 162.68 436.2 162.91 436.2 164.32 428.83 163.8 428.68 161.02 434.13"/>
  <polygon points="811.23 411.63 814.24 412.33 814.24 434.08 811.23 434.78 811.23 435.28 819.18 435.28 819.18 434.78 816.17 434.08 816.17 412.33 819.18 411.63 819.18 411.12 811.23 411.12 811.23 411.63"/>
  <polygon points="850.34 412.33 853.56 411.63 853.56 411.12 848.43 411.12 838.93 432.67 829.78 411.12 824.59 411.12 824.59 411.63 827.74 412.44 826.14 434.08 823.13 434.78 823.13 435.28 830.3 435.28 830.3 434.78 827.31 434.08 828.7 413.41 838.18 435.64 838.78 435.64 848.57 413.35 850 434.08 846.98 434.78 846.98 435.28 854.9 435.28 854.9 434.78 851.89 434.08 850.34 412.33"/>
  <path d="M869.98,410.76h-.56l-9.13,23.31-2.97.7v.5h7.27v-.5l-3.05-.7,3.24-8.42h9.19l3.35,8.42-3.1.7v.5h8.1v-.5l-2.94-.7-9.39-23.31ZM865.21,424.54l4.09-10.63,4.23,10.63h-8.31Z"/>
  <path d="M899.22,424.99l3.7.74v7.55c-.27.17-.57.33-.93.48-.68.27-1.42.49-2.24.64-.81.15-1.6.23-2.37.23-2.08,0-3.95-.47-5.62-1.41-1.67-.94-2.99-2.31-3.97-4.12-.98-1.81-1.47-4.03-1.47-6.66,0-1.69.23-3.19.68-4.5.46-1.3,1.13-2.41,2-3.3.88-.9,1.95-1.57,3.22-2.04,1.27-.46,2.71-.69,4.34-.69,1.21,0,2.34.16,3.38.49.68.21,1.41.53,2.16.92l2.31,4.94.6-.13-1.21-7.9h-.22l-1.32,1.25c-.71-.19-1.39-.36-2.02-.47-.88-.16-1.8-.23-2.75-.23-2.74,0-5.11.51-7.09,1.54-1.99,1.02-3.52,2.48-4.58,4.35-1.06,1.88-1.6,4.08-1.6,6.62,0,1.97.34,3.72,1.01,5.26.67,1.53,1.61,2.83,2.8,3.88s2.59,1.86,4.18,2.41c1.59.55,3.29.82,5.12.82,1.03,0,2.04-.07,3.01-.23.97-.15,1.9-.36,2.78-.63.88-.27,1.68-.59,2.42-.96v-.04l-.7-1.03v-7.07l2.33-.7v-.5h-7.95v.5Z"/>
  <polygon points="927.27 434.13 916.3 434.13 916.3 423.17 923.64 423.22 924.38 427.41 925.16 427.41 925.01 422.63 925.16 417.83 924.38 417.83 923.64 422 916.3 422.07 916.3 412.28 926.78 412.28 929.14 417.54 929.72 417.43 928.71 410.38 928.49 410.38 926.89 411.12 916.3 411.12 914.8 411.12 911.36 411.12 911.36 411.63 914.37 412.33 914.37 434.08 911.36 434.78 911.36 435.28 914.8 435.28 916.3 435.28 927.32 435.28 928.92 436.2 929.12 436.2 930.48 428.97 929.95 428.83 927.27 434.13"/>
  <path d="M952.95,433.68c-.27-.39-.57-1.01-.91-1.84l-2.06-5.09c-.37-.94-.76-1.68-1.14-2.23-.39-.55-.84-.94-1.35-1.19-.42-.2-.94-.31-1.52-.37,1.09-.22,2.04-.56,2.83-1.05.88-.55,1.54-1.23,1.99-2.05.45-.82.68-1.72.68-2.72,0-1.13-.28-2.15-.83-3.06-.55-.91-1.44-1.63-2.66-2.16-1.22-.54-2.83-.8-4.84-.8h-8.3v.51l3.01.7v21.75l-3.01.7v.5h8.19v-.5l-3.25-.7v-10.53h4.62c.66,0,1.19.11,1.6.33.4.22.76.6,1.08,1.14.32.54.66,1.29,1.04,2.25l1.89,4.78c.32.82.62,1.45.89,1.92.27.46.58.8.93,1.01.35.21.8.32,1.34.35.55.02,1.27,0,2.16-.05v-.65c-.58,0-1.05-.06-1.42-.18-.37-.12-.68-.38-.96-.77ZM943.91,422.39h-4.13v-10.12h2c1.9,0,3.4.2,4.51.6,1.11.39,1.9.97,2.38,1.71.48.75.72,1.64.72,2.69,0,1.68-.51,2.96-1.54,3.82-1.03.86-2.34,1.3-3.94,1.3Z"/>
  <polygon points="971.57 411.12 971.57 411.63 974.62 412.33 968.13 423.64 960.53 412.33 963.6 411.63 963.6 411.12 955.2 411.12 955.2 411.63 958.13 412.33 966.65 424.79 966.65 434.08 963.63 434.78 963.63 435.28 971.59 435.28 971.59 434.78 968.58 434.08 968.58 424.72 975.9 412.33 978.89 411.63 978.89 411.12 971.57 411.12"/>
  <polygon points="238.41 512.88 236.8 513.62 227.01 513.62 225.3 513.62 222.07 513.62 222.07 514.13 225.08 514.83 225.08 536.58 222.07 537.28 222.07 537.78 230.02 537.78 230.02 537.28 227.01 536.58 227.01 526.23 234.28 526.28 235.02 530.46 235.79 530.46 235.65 525.68 235.79 520.89 235.02 520.89 234.28 525.05 227.01 525.13 227.01 514.78 236.68 514.78 239.04 520.04 239.6 519.93 238.6 512.88 238.41 512.88"/>
  <path d="M263.63,516.77c-1.07-1.11-2.33-1.98-3.77-2.59-1.44-.61-3.02-.92-4.72-.92s-3.23.31-4.65.92c-1.42.61-2.65,1.48-3.69,2.6-1.04,1.12-1.85,2.44-2.42,3.96s-.86,3.18-.86,4.99.29,3.46.88,4.98c.59,1.51,1.42,2.83,2.49,3.94,1.07,1.11,2.33,1.97,3.78,2.58,1.45.61,3.02.92,4.71.92s3.25-.31,4.66-.92c1.41-.61,2.64-1.48,3.68-2.6,1.04-1.12,1.85-2.44,2.42-3.96.57-1.52.86-3.18.86-4.99s-.29-3.46-.88-4.98c-.59-1.51-1.42-2.83-2.49-3.94ZM263.78,531.76c-.76,1.66-1.84,2.96-3.25,3.88-1.41.93-3.12,1.4-5.11,1.4s-3.59-.46-5.06-1.4c-1.47-.93-2.63-2.27-3.47-4.01-.84-1.74-1.26-3.83-1.26-6.26,0-2.17.38-4.09,1.14-5.74.76-1.66,1.85-2.95,3.26-3.88,1.42-.93,3.12-1.4,5.1-1.4s3.59.46,5.06,1.4c1.47.93,2.63,2.27,3.47,4.01.84,1.74,1.26,3.83,1.26,6.26,0,2.16-.38,4.08-1.14,5.73Z"/>
  <path d="M289.7,536.18c-.27-.39-.57-1.01-.91-1.84l-2.06-5.09c-.37-.94-.76-1.68-1.14-2.23-.39-.55-.84-.94-1.35-1.19-.42-.2-.94-.31-1.52-.37,1.09-.22,2.04-.56,2.83-1.05.88-.55,1.54-1.23,1.99-2.05.45-.82.68-1.72.68-2.72,0-1.13-.28-2.15-.83-3.06-.55-.91-1.44-1.63-2.66-2.16s-2.83-.8-4.84-.8h-8.3v.51l3.01.7v21.75l-3.01.7v.5h8.19v-.5l-3.25-.7v-10.53h4.62c.66,0,1.19.11,1.6.33.4.22.76.6,1.08,1.14.32.54.66,1.29,1.04,2.25l1.89,4.78c.32.82.62,1.45.89,1.92.27.46.58.8.93,1.01.35.21.8.32,1.34.35.55.02,1.27,0,2.16-.05v-.65c-.58,0-1.05-.06-1.42-.18-.37-.12-.68-.38-.96-.77ZM280.66,524.89h-4.13v-10.12h2c1.9,0,3.4.2,4.51.6,1.11.39,1.9.97,2.38,1.71.48.75.72,1.64.72,2.69,0,1.68-.51,2.96-1.54,3.82-1.03.86-2.34,1.3-3.94,1.3Z"/>
  <polygon points="304.4 514.13 307.41 514.83 307.41 536.58 304.4 537.28 304.4 537.78 312.36 537.78 312.36 537.28 309.34 536.58 309.34 514.83 312.36 514.13 312.36 513.62 304.4 513.62 304.4 514.13"/>
  <polygon points="333.74 514.13 336.85 514.83 336.85 534.2 321.86 513.62 316.78 513.62 316.78 514.13 319.98 515.01 319.98 536.58 316.97 537.28 316.97 537.78 324.26 537.78 324.26 537.28 321.17 536.58 321.17 515.97 337.39 538.14 338.04 538.14 338.04 514.83 341.05 514.13 341.05 513.62 333.74 513.62 333.74 514.13"/>
  <polygon points="364.74 512.45 363.16 513.62 347.42 513.62 345.84 512.45 345.59 512.45 344.8 520.01 345.37 520.11 347.41 514.78 354.32 514.78 354.32 536.58 351.3 537.28 351.3 537.78 359.26 537.78 359.26 537.28 356.25 536.58 356.25 514.78 363.17 514.78 365.19 520.11 365.77 519.99 364.99 512.45 364.74 512.45"/>
  <polygon points="369.75 514.13 372.76 514.83 372.76 536.58 369.75 537.28 369.75 537.78 377.71 537.78 377.71 537.28 374.69 536.58 374.69 514.83 377.71 514.13 377.71 513.62 369.75 513.62 369.75 514.13"/>
  <polygon points="408.86 514.83 412.09 514.13 412.09 513.62 406.95 513.62 397.46 535.17 388.31 513.62 383.11 513.62 383.11 514.13 386.27 514.94 384.66 536.58 381.65 537.28 381.65 537.78 388.83 537.78 388.83 537.28 385.84 536.58 387.23 515.91 396.71 538.14 397.31 538.14 407.1 515.84 408.52 536.58 405.51 537.28 405.51 537.78 413.43 537.78 413.43 537.28 410.42 536.58 408.86 514.83"/>
  <path d="M428.5,513.26h-.56l-9.13,23.31-2.97.7v.5h7.27v-.5l-3.05-.7,3.24-8.42h9.19l3.35,8.42-3.1.7v.5h8.1v-.5l-2.94-.7-9.39-23.31ZM423.73,527.03l4.09-10.63,4.23,10.63h-8.31Z"/>
  <polygon points="459.44 512.45 457.86 513.62 442.13 513.62 440.55 512.45 440.29 512.45 439.5 520.01 440.08 520.11 442.11 514.78 449.02 514.78 449.02 536.58 446.01 537.28 446.01 537.78 453.96 537.78 453.96 537.28 450.95 536.58 450.95 514.78 457.88 514.78 459.89 520.11 460.47 519.99 459.7 512.45 459.44 512.45"/>
  <polygon points="480.37 536.63 469.4 536.63 469.4 525.67 476.74 525.72 477.48 529.91 478.25 529.91 478.11 525.13 478.25 520.33 477.48 520.33 476.74 524.5 469.4 524.57 469.4 514.78 479.88 514.78 482.24 520.04 482.82 519.93 481.8 512.88 481.59 512.88 479.98 513.62 469.4 513.62 467.9 513.62 464.46 513.62 464.46 514.13 467.47 514.83 467.47 536.58 464.46 537.28 464.46 537.78 467.9 537.78 469.4 537.78 480.42 537.78 482.02 538.7 482.22 538.7 483.57 531.47 483.05 531.33 480.37 536.63"/>
  <polygon points="521.53 514.13 524.63 514.83 520 534.06 512.91 513.26 512.33 513.26 504.74 534.18 500.16 514.83 503.28 514.13 503.28 513.62 495.26 513.62 495.26 514.13 498.2 514.83 503.82 538.14 504.38 538.14 512.18 516.94 519.46 538.14 520.01 538.14 525.8 514.83 528.74 514.13 528.74 513.62 521.53 513.62 521.53 514.13"/>
  <polygon points="547.74 536.63 536.77 536.63 536.77 525.67 544.11 525.72 544.85 529.91 545.62 529.91 545.48 525.13 545.62 520.33 544.85 520.33 544.11 524.5 536.77 524.57 536.77 514.78 547.24 514.78 549.61 520.04 550.18 519.93 549.17 512.88 548.96 512.88 547.35 513.62 536.77 513.62 535.27 513.62 531.83 513.62 531.83 514.13 534.84 514.83 534.84 536.58 531.83 537.28 531.83 537.78 535.27 537.78 536.77 537.78 547.78 537.78 549.39 538.7 549.59 538.7 550.94 531.47 550.42 531.33 547.74 536.63"/>
  <path d="M571.96,514.95c-2.07-.88-4.65-1.33-7.74-1.33h-8.93v.51l3.01.7v21.75l-3.01.7v.5h9.03c2.64,0,5.01-.48,7.11-1.43,2.09-.95,3.74-2.37,4.96-4.23,1.21-1.86,1.82-4.16,1.82-6.89,0-2.52-.52-4.65-1.58-6.37-1.05-1.73-2.61-3.03-4.68-3.91ZM574.6,531.86c-1.01,1.65-2.44,2.86-4.28,3.62-1.85.76-4.01,1.14-6.5,1.14h-3.57v-21.85h3.07c4.04,0,7.18.88,9.43,2.64,2.25,1.76,3.37,4.42,3.37,7.98,0,2.66-.51,4.81-1.51,6.46Z"/>
  <path d="M599.45,514.95c-2.07-.88-4.65-1.33-7.74-1.33h-8.93v.51l3.01.7v21.75l-3.01.7v.5h9.03c2.64,0,5.01-.48,7.11-1.43,2.09-.95,3.74-2.37,4.96-4.23,1.21-1.86,1.82-4.16,1.82-6.89,0-2.52-.52-4.65-1.58-6.37-1.05-1.73-2.61-3.03-4.68-3.91ZM602.08,531.86c-1.01,1.65-2.44,2.86-4.28,3.62-1.85.76-4.01,1.14-6.5,1.14h-3.57v-21.85h3.07c4.04,0,7.18.88,9.43,2.64,2.25,1.76,3.37,4.42,3.37,7.98,0,2.66-.51,4.81-1.51,6.46Z"/>
  <polygon points="610.27 514.13 613.28 514.83 613.28 536.58 610.27 537.28 610.27 537.78 618.22 537.78 618.22 537.28 615.21 536.58 615.21 514.83 618.22 514.13 618.22 513.62 610.27 513.62 610.27 514.13"/>
  <polygon points="639.6 514.13 642.71 514.83 642.71 534.2 627.72 513.62 622.64 513.62 622.64 514.13 625.85 515.01 625.85 536.58 622.83 537.28 622.83 537.78 630.12 537.78 630.12 537.28 627.04 536.58 627.04 515.97 643.25 538.14 643.9 538.14 643.9 514.83 646.91 514.13 646.91 513.62 639.6 513.62 639.6 514.13"/>
  <path d="M666.29,527.49l3.7.74v7.55c-.27.17-.57.33-.93.48-.68.27-1.42.49-2.24.64-.81.15-1.6.23-2.37.23-2.08,0-3.95-.47-5.62-1.41-1.67-.94-2.99-2.31-3.97-4.12-.98-1.81-1.47-4.03-1.47-6.66,0-1.69.23-3.19.68-4.5.46-1.3,1.13-2.41,2-3.3.88-.89,1.95-1.57,3.22-2.04,1.27-.46,2.71-.69,4.34-.69,1.21,0,2.34.16,3.38.49.68.21,1.41.53,2.17.92l2.31,4.94.6-.13-1.21-7.9h-.22l-1.32,1.25c-.71-.19-1.39-.36-2.02-.47-.88-.16-1.8-.23-2.75-.23-2.74,0-5.11.51-7.09,1.54-1.99,1.02-3.52,2.48-4.58,4.35-1.06,1.88-1.6,4.08-1.6,6.62,0,1.97.34,3.72,1.01,5.26.67,1.53,1.61,2.83,2.8,3.88,1.2,1.06,2.59,1.86,4.18,2.41,1.59.55,3.29.82,5.12.82,1.03,0,2.04-.07,3.01-.23.97-.15,1.9-.36,2.78-.63.88-.27,1.68-.59,2.42-.96v-.04l-.7-1.03v-7.07l2.33-.7v-.5h-7.95v.5Z"/>
  <path d="M705.01,514.95c-2.07-.88-4.65-1.33-7.74-1.33h-8.93v.51l3.01.7v21.75l-3.01.7v.5h9.03c2.65,0,5.01-.48,7.11-1.43,2.09-.95,3.74-2.37,4.96-4.23,1.21-1.86,1.82-4.16,1.82-6.89,0-2.52-.52-4.65-1.58-6.37-1.05-1.73-2.61-3.03-4.68-3.91ZM707.64,531.86c-1.01,1.65-2.44,2.86-4.28,3.62-1.85.76-4.01,1.14-6.5,1.14h-3.57v-21.85h3.07c4.04,0,7.18.88,9.43,2.64,2.25,1.76,3.37,4.42,3.37,7.98,0,2.66-.51,4.81-1.51,6.46Z"/>
  <path d="M725.65,513.26h-.56l-9.13,23.31-2.97.7v.5h7.27v-.5l-3.05-.7,3.24-8.42h9.19l3.35,8.42-3.1.7v.5h8.1v-.5l-2.94-.7-9.39-23.31ZM720.89,527.03l4.09-10.63,4.23,10.63h-8.31Z"/>
  <polygon points="752.18 514.13 755.23 514.83 748.74 526.14 741.14 514.83 744.21 514.13 744.21 513.62 735.81 513.62 735.81 514.13 738.75 514.83 747.26 527.29 747.26 536.58 744.25 537.28 744.25 537.78 752.2 537.78 752.2 537.28 749.19 536.58 749.19 527.22 756.51 514.83 759.5 514.13 759.5 513.62 752.18 513.62 752.18 514.13"/>
  <path d="M775.37,526.45c-.65-.52-1.36-.96-2.14-1.32-.77-.36-1.56-.7-2.35-1.01-.78-.31-1.53-.63-2.25-.95-.72-.32-1.37-.68-1.94-1.1s-1.02-.91-1.34-1.5c-.32-.58-.49-1.3-.49-2.14,0-1.18.42-2.18,1.26-3,.84-.82,2.1-1.24,3.77-1.24.85,0,1.66.16,2.42.48.51.21,1.05.54,1.63.98l2.23,4.86.56-.09-1.15-7.7h-.22l-1.28,1.29c-.38-.15-.75-.29-1.13-.4-.81-.24-1.73-.35-2.77-.35-1.41,0-2.62.24-3.65.73-1.03.49-1.82,1.17-2.36,2.05-.55.88-.82,1.91-.82,3.09,0,.95.15,1.77.45,2.45.3.69.71,1.27,1.24,1.76.53.49,1.14.92,1.84,1.29.7.37,1.44.72,2.22,1.05.78.33,1.57.65,2.36.98.79.32,1.53.71,2.2,1.16.67.45,1.22,1.01,1.62,1.68.41.67.61,1.5.61,2.5,0,1.19-.28,2.17-.84,2.93-.56.76-1.34,1.33-2.34,1.69-1,.36-2.16.54-3.48.54-.82,0-1.62-.09-2.42-.27-.24-.05-.47-.13-.72-.21l-2.98-5.51h-.72l1.41,6.08c.9.34,1.78.57,2.63.71.85.14,1.83.2,2.92.2,1.62,0,3.04-.26,4.26-.78,1.21-.52,2.16-1.3,2.85-2.32.68-1.02,1.03-2.3,1.03-3.83,0-1.12-.2-2.06-.59-2.83-.39-.77-.91-1.41-1.56-1.94Z"/>
  <path d="M109.21,234.89c-5,0-30,.48-37.26.48-5.32,0-13.23-.48-14.36-.48-1.45,0-1.94,1.45-1.94,2.42,0,.81.32,1.29,1.45,1.29,2.9,0,4.68.32,6.61,1.45,1.77,1.13,2.26,2.74,2.26,5.32l.16,85c0,2.1-.48,4.03-2.1,5.16-1.78,1.29-3.23,1.45-6.94,1.45-1.13,0-1.45.48-1.45,1.45,0,.81.48,2.42,1.94,2.42,1.13,0,6.94-.48,14.36-.48,4.03,0,16.29.48,17.58.48,1.45,0,1.94-1.61,1.94-2.42,0-.97-.48-1.45-1.45-1.45-3.71,0-8.06-.81-9.68-1.45-2.1-.65-2.42-2.58-2.42-6.77v-36.13c.32-3.06,1.45-3.71,4.03-3.71h14.68c2.1,0,4.03.65,5.16,2.58,1.13,2.1,1.13,5.32,1.77,9.03.16.97.65,1.29,1.61,1.13.81-.16,2.26-.81,2.1-2.26-.16-1.29-.81-5.81-.81-13.07s.97-10.81,1.13-11.94c.16-1.45-1.29-2.26-2.1-2.42-.97,0-1.45.32-1.61,1.29-.65,3.71-1.13,6.29-2.42,8.07-1.13,1.94-3.06,2.42-5,2.42h-14.36c-2.9,0-4.03-.64-4.35-3.39v-35c0-3.71,0-4.84,1.29-5.81.81-.65,1.94-.97,13.23-.97,5.81,0,10.81.48,13.71,3.39,3.23,3.06,4.52,7.74,5.16,17.1,0,.81.81,1.61,1.61,1.61.65,0,1.61-.48,1.61-1.13,0-1.13,0-4.03.32-10.16.16-5.48.48-9.52.65-11.29.48-2.74-1.45-3.23-6.13-3.23Z"/>
  <path d="M181.64,312.48c-.81,0-1.78.48-1.94,1.29-3.23,11.94-5,16.61-8.55,19.84-3.23,2.9-7.26,3.39-13.06,3.39-5.32,0-11.13-.32-13.06-1.45-1.77-.97-2.42-2.58-2.42-6.77v-35.65c0-5,.97-5.81,4.03-5.81h14.68c2.1,0,4.19.64,5.32,2.58,1.13,2.1,1.13,6.29,1.61,10,.16.97.81,1.29,1.61,1.13.97-.16,2.42-.81,2.1-2.26-.16-1.29-.81-6.77-.81-14.03s.81-10.32.97-11.45c.32-1.45-1.13-2.26-2.1-2.42-.81,0-1.45.32-1.61,1.29-.64,4.84-1.29,10-7.26,10h-14.36c-2.9,0-4.03-.65-4.35-3.39v-33.39c0-3.71,0-4.84,1.29-5.81.81-.65,2.9-.97,14.36-.97,15.81,0,17.26,5,18.23,19.68,0,.81.81,1.61,1.78,1.61.48,0,1.29-.32,1.29-.97.16-1.45.32-3.39.48-9.52.16-5.48.32-9.52.65-11.29.32-2.74-.81-3.23-5.64-3.23s-30.81.48-38.23.48c-5.16,0-13.06-.48-14.36-.48-1.45,0-1.94,1.45-1.94,2.42,0,.81.48,1.29,1.45,1.29,2.9,0,4.68.32,6.77,1.45,1.77,1.13,2.1,2.74,2.1,5.32v85c0,6.61-5.16,6.61-10.48,6.61-.97,0-1.45.48-1.45,1.45,0,.81.48,2.42,1.94,2.42,1.29,0,8.71-.48,15.97-.48s33.39.48,38.23.48,5.64-.48,5.64-3.23c0-1.77.16-6.13.81-11.61.81-7.1,1.61-10.65,1.61-12.26,0-.81-.65-1.29-1.29-1.29Z"/>
  <path d="M214.07,336.99c-3.39,0-5.64-.16-7.74-1.29-3.06-1.45-3.71-4.35-2.9-7.1l3.23-11.77c1.13-3.87,2.26-4.84,5-4.84h19.84c4.52,0,6.77.81,8.23,5l3.71,13.23c.48,2.26.65,4.52-.64,5.32-2.1,1.13-3.71,1.45-7.58,1.45-.97,0-1.29.48-1.29,1.45,0,.81.32,2.42,1.94,2.42,1.13,0,8.55-.48,15.81-.48s11.29.48,12.42.48c1.45,0,1.94-1.61,1.94-2.42,0-.97-.32-1.45-1.29-1.45-1.94,0-4.03-.32-5.81-1.77-2.26-1.61-3.06-4.68-4.19-8.23l-24.19-83.87c-2.42-8.39-2.58-10.65-4.68-10.65-1.94,0-2.26,2.58-4.68,11.13l-23.55,84.68c-1.45,5.48-4.19,8.71-10.16,8.71-.97,0-1.29.48-1.29,1.45,0,.81.32,2.42,1.94,2.42,1.13,0,3.23-.48,10.65-.48s13.55.48,14.68.48c1.61,0,1.94-1.61,1.94-2.42,0-.97-.32-1.45-1.29-1.45ZM209.87,304.89l12.1-45c.48-1.77.81-2.74,1.13-2.74s.48.97.97,2.9l11.61,41.94c.97,4.19-1.13,4.84-4.35,4.84h-19.52c-1.94,0-2.26-.32-1.94-1.94Z"/>
  <path d="M253.92,249.41c.32,6.13,0,10.48.16,11.61,0,.97,1.13,1.45,1.78,1.45.97,0,1.77-.97,1.94-1.77.64-10.65,1.61-15.65,4.84-18.71,2.58-2.42,6.13-3.39,11.13-3.39s8.87,1.94,8.87,8.39l.16,83.39c0,2.1-.48,4.03-2.1,5.16-1.61,1.29-3.23,1.45-6.93,1.45-.97,0-1.45.48-1.45,1.45,0,.81.48,2.42,1.94,2.42,1.29,0,6.94-.48,14.35-.48,4.03,0,16.29.48,17.58.48,1.45,0,1.94-1.61,1.94-2.42,0-.97-.48-1.45-1.45-1.45-3.71,0-7.9-.81-9.68-1.45-2.1-.65-2.42-2.58-2.42-6.77l-.16-81.78c0-7.1,4.19-8.39,9.03-8.39s8.87.97,11.29,3.39c3.23,3.06,4.03,8.06,4.84,18.71,0,.81.81,1.77,1.94,1.77.65,0,1.61-.48,1.61-1.45.16-1.13-.16-5.48.16-11.61.32-5.48.48-9.52.81-11.29.32-2.74-1.61-3.23-6.29-3.23s-21.78.48-29.2.48-24.19-.48-29.19-.48c-4.68,0-6.61.48-6.13,3.23.16,1.77.48,5.81.65,11.29Z"/>
  <path d="M328.93,238.6c5.48,0,10.48.16,10.48,6.77l.16,72.1c0,10.97,4.52,24.84,26.45,24.84,20.81,0,26.77-13.23,26.77-25l-.16-68.71c0-8.07,6.61-10,13.39-10,1.13,0,1.45-.48,1.45-1.29,0-.97-.48-2.42-1.94-2.42-1.13,0-8.06.48-15.48.48s-14.19-.48-15.48-.48c-1.45,0-1.94,1.45-1.94,2.42,0,.81.48,1.29,1.45,1.29,6.77,0,13.23,1.94,13.23,10l.16,67.42c0,11.13-4.35,22.1-18.23,22.1s-17.9-8.55-17.9-22.26l-.16-70.49c0-6.61,5.32-6.77,10.65-6.77,1.13,0,1.45-.48,1.45-1.29,0-.97-.48-2.42-1.94-2.42-1.13,0-8.55.48-15.97.48s-14.68-.48-15.97-.48c-1.45,0-1.94,1.45-1.94,2.42,0,.81.48,1.29,1.45,1.29Z"/>
  <path d="M493.78,336.83c-3.71.32-6.13.48-9.52-.97-3.23-1.45-5.81-5.81-7.26-9.36l-8.71-22.26c-2.58-6.45-4.68-10-7.58-11.61,11.94-3.55,20.48-14.68,20.48-27.74,0-17.26-11.77-30-35.32-30-4.52,0-9.84.48-17.26.48s-14.68-.32-15.97-.32c-1.45,0-1.94,1.45-1.94,2.42,0,.81.48,1.45,1.45,1.45,3.71,0,6.45.16,8.39,1.29,1.94,1.13,2.26,3.06,2.26,5.32l-.16,85c0,2.58-.32,4.19-2.26,5.16-1.94,1.13-4.52,1.45-8.23,1.45-.97,0-1.45.48-1.45,1.45,0,.81.48,2.42,1.94,2.42,1.29,0,8.55-.48,15.97-.48s14.68.48,15.97.48c1.45,0,1.94-1.61,1.94-2.42,0-.97-.32-1.45-1.45-1.45-3.71,0-6.29-.32-8.23-1.45-1.77-.97-2.26-3.06-2.26-5.16v-30.32c0-4.03.48-6.94,3.06-6.94,2.26,0,4.68.16,7.42.32,4.52.81,9.03,5.32,11.77,12.9l8.71,21.77c3.87,11.45,17.74,14.68,27.42,12.42,1.45-.32,2.1-1.61,2.1-2.42,0-.97-.32-1.45-1.29-1.45ZM448.29,289.73c-7.74,0-12.74,0-13.71-2.26v-41.45c0-5.16,2.26-7.26,11.45-7.26,13.23,0,22.74,8.07,22.74,25.48,0,14.35-8.23,25.48-20.49,25.48Z"/>
  <path d="M530.24,238.6c1.13,0,1.45-.48,1.45-1.29,0-.97-.48-2.42-1.94-2.42-1.13,0-8.55.48-15.97.48s-14.68-.48-15.97-.48c-1.45,0-1.94,1.45-1.94,2.42,0,.81.48,1.29,1.45,1.29,5.48,0,10.48.16,10.48,6.77l.16,85c0,2.1-.32,4.19-2.26,5.16-1.94,1.13-4.68,1.45-8.39,1.45-.97,0-1.45.48-1.45,1.45,0,.81.48,2.42,1.94,2.42,1.29,0,8.71-.48,15.97-.48s14.84.48,15.97.48c1.45,0,1.94-1.61,1.94-2.42,0-.97-.32-1.45-1.45-1.45-5.32,0-10.48-.16-10.48-6.61l-.16-85c0-6.61,5.32-6.77,10.65-6.77Z"/>
  <path d="M582.83,237.31c0,.81.48,1.29,1.45,1.29,3.71,0,6.13.48,8.23,1.45,3.55,1.77,5.16,4.03,5.16,8.55v57.74c0,1.77-.48,2.42-1.45.16l-29.19-65.49c-1.94-4.35-2.9-6.13-5.48-6.13s-5.16.48-9.19.48c-7.26,0-14.19-.48-15.48-.48-1.45,0-1.94,1.45-1.94,2.42,0,.81.48,1.29,1.45,1.29,3.71,0,6.13.48,8.23,1.45,3.55,1.77,5,4.03,5.16,8.55l.16,78.55c0,3.87-1.61,6.61-5.16,8.39-2.1,1.13-4.68,1.45-8.39,1.45-.97,0-1.45.48-1.45,1.45,0,.81.48,2.42,1.94,2.42,1.29,0,8.23-.48,15.48-.48s14.36.48,15.48.48c1.45,0,1.94-1.61,1.94-2.42,0-.97-.32-1.45-1.29-1.45-3.87,0-6.13-.32-8.23-1.45-3.71-1.77-5.16-4.03-5.16-8.39l-.16-78.55c0-3.87.97-3.87,3.23,1.29l39.03,87.58c.81,1.94,1.29,3.23,3.23,3.23s2.58-2.74,2.58-5l-.16-87.1c0-4.03,1.45-6.77,5.16-8.55,2.1-.97,4.52-1.45,8.39-1.45.97,0,1.29-.48,1.29-1.29,0-.97-.48-2.42-1.94-2.42-1.13,0-8.06.48-15.48.48s-14.19-.48-15.48-.48c-1.45,0-1.94,1.45-1.94,2.42Z"/>
  <path d="M655.1,342.32c13.55,0,23.23-4.36,24.19-8.23.81-3.39.16-14.03-.16-21.94,0-2.26.48-4.84,2.26-5.81,1.29-.81,3.06-1.45,5.16-1.45,1.13,0,1.45-.48,1.45-1.29,0-.97-.48-2.42-1.94-2.42-1.13,0-5.32.48-12.74.48s-16.29-.48-17.58-.48c-1.45,0-1.94,1.45-1.94,2.42,0,.81.48,1.29,1.45,1.29,3.71,0,7.9.32,10,1.45,1.77.97,2.1,2.74,2.1,5.32,0,9.03.65,19.68-.48,22.1-.48,1.29-1.61,4.68-8.39,4.68-16.94,0-29.19-19.35-29.19-49.68,0-32.42,10.65-51.29,25.48-51.29,4.52,0,10.81,2.26,13.23,7.9,3.06,7.1,2.26,19.19,3.23,21.29.32.64,1.61,1.13,2.58,1.13.81,0,2.26-.32,2.74-.97.32-.16,2.42-22.42,2.42-25,0-3.23-9.68-8.07-23.71-8.07-22.1,0-39.19,20.16-39.19,55s15.97,53.55,39.03,53.55Z"/>
  <path d="M795.43,237.15c0-.97-.48-2.26-2.1-2.26-1.94,0-3.87.32-11.29.32s-13.23-.48-14.35-.48c-1.45,0-1.94,1.61-1.94,2.58,0,.81.32,1.29,1.29,1.29,3.39,0,6.29.32,8.23,1.61,2.1,1.45,2.26,3.55.97,6.13l-15.32,31.13c-1.77,3.55-2.42,3.87-4.19,0l-15.97-32.9c-.97-1.94-1.45-3.71-.32-4.68,1.29-1.13,3.87-1.29,7.74-1.29.97,0,1.45-.65,1.45-1.45s-.48-2.42-1.94-2.42c-1.29,0-8.71.48-16.13.48-7.42.16-11.45-.32-12.58-.32-1.45,0-1.94,1.45-1.94,2.42,0,.81.32,1.29,1.29,1.29,1.94,0,4.03.32,5.81,1.77,2.42,1.77,3.55,4.84,5.16,8.23l18.06,35.97c2.58,4.84,2.74,7.1,2.74,11.45l.16,34.36c0,2.1-.48,4.03-2.1,5.16-1.61,1.29-3.23,1.45-6.94,1.45-.97,0-1.45.48-1.45,1.45,0,.81.48,2.42,1.94,2.42,1.29,0,7.1-.48,14.35-.48,4.03,0,16.45.48,17.58.48,1.45,0,1.94-1.61,1.94-2.42,0-.97-.32-1.45-1.45-1.45-3.71,0-7.9-.81-9.68-1.45-1.94-.65-2.42-2.58-2.42-6.77l-.16-32.74c0-5.97.32-9.03,2.58-13.39l17.42-35.32c1.45-2.9,3.39-5.64,5.81-6.94,1.94-1.13,4.19-1.61,6.29-1.61.97,0,1.45-.81,1.45-1.61Z"/>
  <path d="M864.32,287.64c0-32.9-17.26-53.55-37.1-53.55-21.13,0-38.23,24.35-38.23,54.52,0,32.74,17.26,53.39,36.94,53.39,21.29,0,38.39-24.19,38.39-54.36ZM802.22,290.06c-.64-30.32,8.39-52.1,24.03-52.1s24.19,24.36,24.84,48.23c.65,30.16-8.39,51.94-24.03,51.94s-24.19-24.19-24.84-48.07Z"/>
  <path d="M944.33,237.31c0-.97-.48-2.42-1.94-2.42-1.13,0-8.07.48-15.48.48s-14.19-.48-15.48-.48c-1.45,0-1.94,1.45-1.94,2.42,0,.81.48,1.29,1.45,1.29,6.77,0,13.23,1.94,13.23,10l.16,67.42c0,11.13-4.35,22.1-18.23,22.1s-17.9-8.55-17.9-22.26l-.16-70.49c0-6.61,5.32-6.77,10.65-6.77,1.13,0,1.45-.48,1.45-1.29,0-.97-.48-2.42-1.94-2.42-1.13,0-8.55.48-15.97.48s-14.68-.48-15.97-.48c-1.45,0-1.94,1.45-1.94,2.42,0,.81.48,1.29,1.45,1.29,5.48,0,10.48.16,10.48,6.77l.16,72.1c0,10.97,4.52,24.84,26.45,24.84,20.81,0,26.78-13.23,26.78-25l-.16-68.71c0-8.07,6.61-10,13.39-10,1.13,0,1.45-.48,1.45-1.29Z"/>
  <path d="M485.84,435.81c-1.82,2.22-8.79,11.22-13.94,15.56-4.95,4.24-6.06,5.05-7.88,2.93-.71-.91-.91-2.02-.4-2.63.61-.61.91-.91,1.92-2.42l1.11-1.52c1.21-1.82,4.85-8.49,5.25-10.31.61-2.22.91-1.82.91-4.55,0-1.21-.3-2.53-.91-3.44-.91-1.82-4.55-2.93-6.47-2.73-.51,0-1.21.1-1.82.3-2.63.61-5.96,2.42-8.39,4.34-.59.51-1.18,1.03-1.76,1.56-.15.09-.32.26-.55.51-1.26,1.18-2.39,2.34-3.15,3.29l-1.72,1.92c-1.15,1.39-1.61,2.01-2.2,2.9-1.32,1.45-2.59,2.78-3.97,4.38-1.52,1.52-3.94,4.14-5.46,5.76-1.52,1.52-3.03,3.23-3.33,3.54-.91,1.01-4.55,4.24-6.57,5.46-3.23,2.22-6.87,2.42-8.08.3-.61-1.41-.71-4.45,0-5.76.3-.61.51-1.41.51-1.41,0-.1.61-1.31,1.31-2.73,2.12-3.64,2.63-4.35,3.03-4.95.2-.3.91-1.42,1.72-2.32.61-1.01,1.82-2.83,2.63-3.94,2.22-3.13,2.22-3.33,2.53-3.74,0-.3.2-.51.3-.51.2,0,2.42-3.13,2.42-3.44,0-.2.2-.3.2-.3.1-.2.91-1.11,1.62-2.12l3.03-4.24c.81-1.42,1.72-2.63,1.82-2.93.2-.3.3-.71.51-.71.1-.2.91-.91,1.52-1.82,1.31-2.12.71-2.12,9.19-2.02,4.85,0,6.26,0,6.67-.3.91-.71-.3-.91-6.97-.91-3.64,0-6.67-.1-6.67-.1.2-.3.91-1.21,2.02-2.93l1.82-2.83c.61-.91,1.52-2.02,1.92-2.42,1.52-1.72,1.41-1.52-1.92-1.52h-2.42c0-.2-.3-.2-.5-.2-.1.2-.3.3-.3.51,0,.1-.71,1.01-1.52,1.92-1.92,2.42-1.92,2.32-3.64,5.05-.91,1.21-1.62,2.42-1.82,2.42-.1.1-2.42.1-5.15.1s-4.95.2-5.15.3c-.3,0-.3.3-.1.5.1.3,1.31.3,4.65.3,2.42,0,4.75.1,4.75.1.1.2-.3.91-.91,1.82l-1.41,2.12c-2.12,3.33-3.74,5.76-5.25,7.78-.61.61-1.11,1.31-1.11,1.52,0,.25-.41.9-2.7,4.27-.07.08-.15.17-.23.27-1.82,2.22-8.79,11.22-13.94,15.56-4.95,4.24-6.06,5.05-7.88,2.93-.71-.91-.91-2.02-.4-2.63.61-.61.91-.91,1.92-2.42l1.11-1.52c1.21-1.82,4.85-8.49,5.25-10.31.61-2.22.91-1.82.91-4.55,0-1.21-.3-2.53-.91-3.44-.91-1.82-4.55-2.93-6.47-2.73-.5,0-1.21.1-1.82.3-2.63.61-5.96,2.42-8.39,4.34-2.12,1.82-4.24,3.84-5.46,5.35l-1.72,1.92c-1.48,1.77-1.81,2.3-2.76,3.73l-.69.82c0,.5-1.52,2.32-2.73,3.64-.51.3-1.21,1.11-1.72,1.82-1.82,2.12-6.16,7.78-6.67,8.08-.91.61-4.24,3.64-4.34,3.74,0,.2-.2.2-.2.2-.1,0-.91.3-1.31.61-1.21.91-3.03,1.01-4.14.3-.61-.51-1.31-2.12-1.01-3.23.61-1.92,3.33-6.77,5.15-8.89.3-.51.71-.91.71-.91,0-.2.2-.3.51-.61.71-.61,5.25-6.67,6.47-8.79.3-.61,1.41-2.32,2.12-3.54,1.72-2.22,3.03-5.56,3.03-7.07s-.4-2.73-1.82-3.54c-1.01-.71-1.31-.61-3.74-.4-1.72.1-4.85,1.62-7.48,3.94-.71.71-1.92,1.82-2.73,2.12l-4.04,4.24c-.61.91,1.62-2.73,2.12-3.23.71-1.31,2.73-4.24,2.12-3.13.61-.91,1.21-1.72,1.21-1.82.3-.3,1.62-2.32,1.62-2.63,0,0,.2-.3.51-.61.4-.4,3.43-5.15,3.74-5.56,0-.2.3-.61.81-1.11.3-.4.61-.91.61-1.01,0-.2.3-.61.71-1.11l.61-.91c0-.1,2.32-3.44,4.85-7.38,2.73-3.94,4.85-7.27,4.85-7.48,0,0,0-.1.2-.1.1-.2.61-.61.91-1.42.4-.61.91-1.21,1.01-1.21.2,0,.2-.1.2-.3,0-.1.3-.61.61-.91.3-.61.3-.71.1-1.01-.1-.2-.3-.3-.4-.2,0,0-.3,0-.51-.1-.61-.3-1.62-.51-2.53-.3-.61.1-.91.3-.91.61,0,.4-1.41,2.53-2.02,3.43-.3.3-.4.61-3.74,5.46l-4.85,7.17c-3.33,4.85-3.84,5.46-5.15,7.58q-1.21,1.92-2.02,2.83c-.3.51-.61.91-.61,1.11,0,.1-.1.4-.4.61-.61.61-2.02,2.73-2.02,2.83,0,.2,0,.3-.1.3l-2.02,2.73c-.1.3-.3.81-.4.81l-.61.91c-2.42,3.64-4.45,6.47-4.65,6.47-.08.16-.09.26-.1.39-3.96,4.77-9.95,11.83-14.48,15.68-.91.81-3.03,2.42-3.13,2.73-.3.2-.61.51-.81.51-.1,0-.4,0-.4.3,0,.1-.51.4-1.11.71-.4.3-1.52,1.11-2.42,1.52-2.42,1.72-5.86,3.54-8.18,4.14-1.31.3-2.53.61-2.83.61-1.52.4-7.78.3-9.4-.2-.81-.1-2.02-.4-2.42-.4-.51-.2-1.52-.3-2.12-.51l-1.41-.3c-.1-.1-1.01-.4-2.12-.71-1.01-.3-1.82-.51-1.92-.51,0,.2-.61-.1-1.41-.4-.71-.3-2.22-.81-3.33-1.21-2.42-.91-2.83-1.21-4.24-1.82-.61-.3-1.21-.81-1.52-.81-.1,0-1.01-.3-1.82-.71-.71-.3-1.62-.61-1.82-.61-.4,0-.1-.81.5-.91.1,0,1.62-1.11,3.03-2.02l3.64-2.42c7.07-4.85,16.67-12.83,22.43-20.61.61-.91,1.52-2.12,1.92-2.53.5-.5,1.11-1.41,1.41-1.82l1.21-1.52c.4-.51.91-1.11,1.01-1.52.2-.5.61-.91.81-1.21q.4-.3.71.1c.2.3.51.61.61.81.2.1.61.61,1.11.91,1.01,1.21,3.13,2.22,5.86,2.83,1.52.51,2.63.61,5.46.51,2.02,0,3.84-.2,4.14-.2.3-.1.71-.3,1.01-.3,2.12-.61,3.33-.91,3.94-1.31l1.82-.91c2.02-.91,3.03-1.52,3.54-2.12.1-.2.61-.51,1.01-.61.81-.3,5.66-5.15,6.97-6.97,2.12-2.93,3.94-6.87,4.55-9.4.2-.61.51-1.82.61-2.73.51-2.02.3-6.06-.3-8.79-.61-2.32-1.82-4.85-2.83-6.57-.91-1.31-4.75-4.95-5.05-4.95-.1,0-.3-.2-.3-.3-.1-.3-.61-.61-1.21-.91-.61-.3-1.01-.61-1.21-.91-.1-.2-.3-.3-.61-.3-.1,0-.4-.2-.91-.51l-.61-.4,1.21-1.11c2.63-2.22,6.37-2.83,8.49-1.31.51.4.91,1.01.91,1.31s.2.81.51,1.11q.4.4.71-.2c0-.3-.1-1.01-.41-1.92-.5-1.11-.81-1.41-2.02-2.02-1.62-.91-3.33-.91-5.56-.1-1.41.4-3.54,1.21-3.64,1.52-.2.1-.5.3-.91.4-.3.3-.91.61-1.21.81-.81.4-.91.4-2.42,0-.91-.3-2.02-.61-2.12-.81-3.94-1.52-15.05-2.42-22.43-1.21-3.64.5-4.45.61-7.88,1.52-3.94,1.11-10.31,2.93-10.81,3.33l-2.22,1.11c-2.73,1.21-8.39,3.94-10,5.15-.81.4-1.41.91-1.52.91-.2,0-2.02,1.31-2.12,1.52,0,.1-.2.3-.3.3-.91,0-8.18,7.98-8.18,8.79,0,.1-.2.61-.61,1.01-.61.91-2.02,3.64-2.02,4.24,0,.3-.1.61-.3.91-.3.81-.71,5.66-.4,5.96.1.1.3.61.3,1.01,0,1.11.61,2.93,1.82,4.85,1.31,2.12,5.46,5.15,7.38,5.36.3,0,.81.1.91.3.3.1,3.94.1,5.46,0,1.52-.3,4.55-1.11,5.15-1.52.3-.3.61-.51.81-.51,2.53-.61,10.31-6.97,12.43-10.31.4-.61.91-1.31,1.21-1.62l.4-.61c0-.2.3-.81.61-1.21.51-.61.91-1.41,1.11-2.02.3-.4.61-1.21.71-1.62.3-.51.51-1.11.51-1.21.1-.2.1-.61.3-.81.61-1.62.71-2.43.71-3.44,0-1.82-.3-2.63-.91-2.63-.4,0-.91.91-.4,1.52.1.3.1.81,0,1.11l-.51,1.62c0,.5-.3,1.41-.4,1.82-1.52,3.23-2.42,5.05-2.93,5.66-.4.4-.61.91-.61,1.01,0,.2-.4.61-.71,1.11-.5.4-1.41,1.31-2.02,2.22-1.82,2.32-5.86,5.66-9.5,7.58-1.11.61-3.84,1.52-6.06,2.12-1.82.3-5.36.2-6.87-.4-3.33-1.41-6.06-4.24-6.77-7.27-.3-.61-.51-1.21-.61-1.41-.3-.4,0-5.15.3-5.76l.3-1.01c0-.61,1.92-4.55,2.53-5.35.3-.3.81-.91,1.21-1.52,1.21-1.52,3.64-4.65,5.76-6.37.61-.4,1.11-.91,1.11-1.01.1,0,.3-.2.4-.2,0,0,.51-.1.81-.4.71-.81,4.55-2.93,7.58-4.45,1.31-.71,2.42-1.31,2.53-1.52l2.42-.91c1.21-.4,7.78-2.83,13.94-4.34,5.66-1.41,9.3-1.72,15.16-1.72,5.46-.1,6.26.2,10.2.91,1.01.2,2.12.91,2.22.91.51,0,2.42.61,2.73.91.2,0-.1.5-3.44,3.54-2.63,2.42-9.09,10.41-9.09,11.21,0,.1-.3.4-.61.91-.3.3-1.11,1.21-1.52,2.12-1.72,2.73-2.02,3.13-3.54,5.46-2.22,3.44-3.64,5.86-3.64,6.16,0,.2-.1.2-.3.2-.1,0-.1.1-.1.3,0,.1-.2.4-.3.61-.51.61-3.64,5.56-6.36,9.7-.81,1.21-1.52,2.22-1.52,2.42,0,.1-.2.3-.2.4-.1,0-1.01,1.21-2.12,2.73-3.64,5.76-7.68,11.22-10.91,15.05-.91.91-6.16,6.16-6.77,6.67-.2.1-.91.91-1.82,1.62-.91.61-2.42,2.02-3.64,2.73-1.11.81-2.02,1.72-2.32,1.82-.1.2-.3.2-.4.2-.2,0-.51.3-.61.4-.2.2-.91.81-1.72,1.21q-1.52.81-3.64,0c-.1-.1-.4-.1-.61-.1-.1,0-.71-.3-1.52-.61-.61-.3-1.62-.61-2.22-.81-.5,0-1.21-.3-1.52-.3-1.41-.4-2.93-.91-3.64-.91-.61-.1-1.82-.3-2.73-.4-.91-.2-2.32-.2-3.03-.2-.61,0-1.41-.1-1.41-.1-.3,0-2.73,0-4.24.1-3.03.3-6.67,2.12-7.68,3.94-.2.3-.5,1.21-.5,1.82-.1.91,0,1.41.81,2.42.4.61,1.01,1.41,1.31,1.52l.91.61c.3.3,2.12.91,3.54,1.21,1.52.3,5.86.5,7.88.2,1.21-.2,2.42-.3,3.03-.51,1.82-.3,7.68-1.92,8.18-2.42.1-.1.4-.3.61-.3.61,0,3.33-1.21,4.34-1.82.81-.61,1.41-.61,3.23.3.61.3,1.21.51,1.52.51.1,0,.71.3,1.21.61.4.1,1.31.61,1.92.71l1.72.61c.3.3.91.51,1.21.51s.61.1.71.3c.3.3,2.32.91,3.94,1.31.81.2,1.72.5,2.02.61.4.3,5.86,1.82,7.07,2.02.2.1.81.1,1.21.3,3.94.81,11.11.61,13.64-.3.51,0,.91-.2,1.11-.2.1-.1,1.52-.61,2.83-1.01,2.02-.91,3.23-1.52,7.17-3.94.3-.2.91-.61,1.31-1.11l.91-.61c.2,0,.5-.1.61-.4.2-.2.91-.61,1.52-1.21,1.52-1.11,3.64-3.03,8.08-7.78.33-.35.63-.68.93-1-.8,1.01-1.41,2.11-1.71,2.41-.1.3-.4.91-.91,1.31-.3.5-.91,1.41-1.21,2.02-.4.61-.71,1.01-.91,1.01-.1,0-.3.2-.3.3,0,.2-.4,1.11-1.21,2.12l-1.92,3.03c0,.2-.51.81-.81,1.21-1.62,2.12-2.53,3.84-2.42,4.14.3.4,3.03.81,3.94.4.51-.1,2.02-1.92,2.02-2.42,0-.1.1-.3.3-.3.1,0,.3-.1.4-.4.81-1.41,1.41-2.32,1.82-2.93.3-.3.51-.71.51-.71,0-.2.1-.3.3-.51.1,0,1.21-1.52,1.21-1.82,0,0,0-.1.1-.1.2,0,.3-.2.5-.51,0-.3.3-.61.4-.91.3-.1.81-.91,1.11-1.52.91-1.31,3.03-4.04,3.94-4.95.4-.51.71-.91.71-1.11,0-.1.81-1.01,2.02-2.42.61-.61,2.93-3.94,3.23-4.34.61-.81,1.31-1.72,2.12-2.43,1.01-1.41,1.82-2.02,2.73-3.33.91-1.11,1.01-1.21,4.24-3.94,4.55-3.64,6.67-4.55,7.98-3.03.81.61.81.71.61,2.12,0,1.82-1.62,5.25-3.13,6.97-.61.61-.91,1.01-.91,1.21,0,.1-.61.91-1.41,1.62-.61.81-1.52,1.72-1.82,2.32-.3.4-1.21,1.01-1.62,1.82-.5.4-.91,1.01-.91,1.21,0,.1-.3.61-.61.91-1.82,2.42-3.64,4.65-5.15,7.38-1.11,1.72-2.42,4.14-2.32,6.06,0,.91,0,1.72.3,2.63,1.41,2.73,2.73,3.33,5.46,3.03,1.41-.2,2.73-.91,3.54-1.41l1.21-.91c1.52-1.01,6.06-5.15,6.67-6.16.1-.3,1.21-1.41,2.12-2.32.71-.91,2.12-2.42,2.83-3.13.22-.4.59-.9.98-1.4-.24.48-.47.96-.67,1.4-.3.91-.61,1.92-.91,2.73-.4.71-.61,1.62-.71,1.92,0,.3-.2.81-.3.91-.3.61-.3,3.03,0,4.45.3,2.53,1.52,4.04,3.33,4.85,1.31.91,3.13.61,5.15,0,1.92-.61,5.05-2.12,5.66-2.73.1-.3.4-.51.71-.51.61-.1,3.94-3.03,6.36-6.06,1.52-1.52,1.52-1.62,1.72-1.21.3.3.4.61.4.81,0,0,.3.61.61.71.91,1.11,1.82,1.42,3.84.81,2.12-.61,4.24-2.73,8.18-6.37.59-.61,1.43-1.56,2.39-2.66-.22.37-.48.84-.77,1.24-.3.91-.91,1.72-1.01,2.02-1.41,1.62-2.42,7.38-1.72,10,.3,1.21,2.02,3.03,2.93,3.13.1,0,.61.2.71.3.51.2,4.24.2,4.75,0,0-.1.61-.3,1.21-.3,1.21-.1,4.14-1.52,5.05-2.42.3-.3.71-.61.91-.61.31,0,7.36-6.75,13.92-13.85-.46.91-.97,1.96-1.39,2.83-.3.91-.61,1.92-.91,2.73-.41.71-.61,1.62-.71,1.92,0,.3-.2.81-.3.91-.3.61-.3,3.03,0,4.45.3,2.53,1.52,4.04,3.33,4.85,1.31.91,3.13.61,5.15,0,1.92-.61,5.05-2.12,5.66-2.73.1-.3.4-.51.71-.51.61-.1,3.94-3.03,6.37-6.06,1.52-1.52,1.52-1.62,1.72-1.21.3.3.4.61.4.81,0,0,.3.61.61.71.91,1.11,1.82,1.42,3.84.81,2.12-.61,4.24-2.73,8.18-6.37,2.83-2.93,11.32-13.24,11.62-14.15.2-1.01.3-1.92-1.21-.1ZM324.84,415.91l1.62-2.53c0-.51,2.02-4.24,3.54-6.67,1.01-1.52,1.92-2.93,1.92-3.03l1.11-1.72c.4-.71,1.31-2.12,1.82-2.83.3-.81.71-1.52.91-1.72.1-.1.71-.91,1.01-1.52.51-.71,1.21-2.12,1.82-2.83.61-.91,1.72-2.42,2.32-3.54l1.52-2.42c.4-.91,2.12-3.33,2.73-4.04,1.21-1.72,3.94-4.55,4.35-4.55.2,0,.61.3.91.61.3.3.91.71,1.52,1.01.91.51,2.93,2.12,3.03,2.63,0,.1.2.3.3.4.2.2,1.72,3.23,2.12,4.24.51.91,1.11,3.94.91,4.14,0,0,0,.3.2.71.4,1.11.3,5.05-.2,6.97-.4,1.52-1.01,3.23-1.92,5.15l-3.33,5.76c-.2,0-.61.81-1.21,1.52-.61.91-2.02,2.63-3.33,3.84-1.21,1.31-2.63,2.73-2.93,3.13-.61.81-3.74,3.64-4.04,3.64l-1.21.61c-.81.51-1.21.81-1.82.61-1.72,1.11-7.27.51-10.31-.71-1.11-.51-2.02-1.41-3.23-2.63l-1.62-1.52,1.52-2.73ZM280.29,455.31c-2.32.91-6.97,2.63-8.18,2.93-.51,0-1.11.1-1.72.3-1.01.3-3.74.71-6.16.91-1.82.1-4.55-.2-5.96-.51-2.22-.71-2.73-1.01-3.44-1.82-.81-1.01-.81-1.21-.61-2.12.1-1.52.91-2.42,3.03-3.13,2.42-1.42,6.67-1.82,11.21-1.21l3.64.4c.3,0,.61.2.71.2.2.1.81.3,1.52.4,1.11.2,4.45,1.21,6.06,1.82.3.2.81.3,1.21.3.81,0,.2.61-1.31,1.52ZM401.16,450.66c-.1.3-.1.71-.1,1.01s-.2.81-.5,1.11l-2.53,2.73c-2.12,2.22-5.05,5.15-5.76,5.15-.3,0-.61.1-.61.3-.2.4-2.22,1.62-4.14,2.22-4.85,1.92-7.17-.1-5.46-5.76.3-.4.4-1.21.4-1.21,0-.3.2-.61.51-.91.1-.4.4-.91.4-1.31.61-2.12,5.76-10.91,6.06-10.91.2,0,.3-.2.3-.3,0-.81,4.45-6.37,7.07-8.69,1.92-1.62,2.83-2.43,5.25-3.64,2.32-1.21,2.73-1.31,4.55-1.52.91,0,1.52.2,2.12.51,1.52.71,2.02,1.52,1.72,3.74,0,1.41-.2,2.42-.3,2.63-.61,0-1.21.1-1.82,1.21-.3.61-.81,1.31-.81,1.52,0,.1-.1.4-.4.61-.91,1.01-4.45,6.67-4.45,7.07,0,0-.3.5-.4.91-.61.81-.81,2.02-1.11,3.54ZM462.2,450.66c-.1.3-.1.71-.1,1.01s-.2.81-.51,1.11l-2.53,2.73c-2.12,2.22-5.05,5.15-5.76,5.15-.3,0-.61.1-.61.3-.2.4-2.22,1.62-4.14,2.22-4.85,1.92-7.17-.1-5.46-5.76.3-.4.4-1.21.4-1.21,0-.3.2-.61.51-.91.1-.4.4-.91.4-1.31.61-2.12,5.76-10.91,6.06-10.91.2,0,.3-.2.3-.3,0-.81,4.45-6.37,7.07-8.69,1.92-1.62,2.83-2.43,5.25-3.64,2.32-1.21,2.73-1.31,4.55-1.52.91,0,1.52.2,2.12.51,1.52.71,2.02,1.52,1.72,3.74,0,1.41-.2,2.42-.3,2.63-.61,0-1.21.1-1.82,1.21-.3.61-.81,1.31-.81,1.52,0,.1-.1.4-.4.61-.91,1.01-4.45,6.67-4.45,7.07,0,0-.3.5-.4.91-.61.81-.81,2.02-1.11,3.54Z"/>
  <path d="M558.09,434.4c-.61-3.44-2.73-5.46-6.67-6.06-1.72-.3-5.15-.1-7.27.2-2.12.4-6.57,1.92-8.39,2.83-1.82.91-1.62,1.11-2.83-2.22-1.11-2.73-1.52-4.85-1.72-7.27l-.1-1.72,1.52-.71c2.12-1.21,2.42-1.42,3.94-2.43l1.62-1.11,4.45-3.13c2.22-1.72,2.73-2.02,3.33-2.93l1.31-1.31c.51-.3.81-.81.81-.91,0-.2.1-.51.41-.61.2-.2.5-.81.81-1.21,1.21-2.93.4-5.05-2.42-6.87-1.82-1.21-3.64-1.52-5.66-1.21-.61,0-1.31.3-1.82.5l-1.01.4c-.81,0-4.44,2.93-5.35,4.14-1.01,1.31-2.53,4.85-3.03,6.47-.61,2.12-.91,5.46-.71,8.08l.1,2.22-.71.3-1.52.61-1.11.51c-.3,0-9.19,4.55-10.41,5.25l-1.82,1.52-2.02,1.52c-2.22,2.02-3.74,3.54-5.46,6.06-.91,1.41-1.62,2.63-1.62,2.73l-.2.3c-.3.2-1.01,1.52-1.62,3.33-.61,1.82-.91,5.15-.5,6.97.3,1.41,1.41,3.64,2.42,5.35.91,1.52,2.42,3.03,2.93,3.03.3,0,.4.1.4.3,0,.3,3.23,2.83,5.05,3.94,1.52.91,1.92,1.21,2.12,1.62.3,1.72.61,2.83.71,2.83.2,0,.3.4.5.91.1.3.61,1.01.91,1.31l1.31,1.52c.81.91,2.12,1.82,3.33,2.32l1.41.4,2.73.91s.1-.1.1-.3c0-.3-.61-.91-.91-.91l-2.42-.71c-3.33-1.52-5.15-3.64-5.46-6.57l-.1-1.52.91.1c2.53.61,3.44.61,4.85.81,1.52,0,4.34-.3,5.15-.51l.61-.1,1.62-.51,1.52-.4c1.11-.3,5.15-2.42,7.27-3.64l2.12-1.21c.3.4-.71,6.97-1.31,8.18l-.3.91c0,.3-1.52,3.23-1.82,3.54l-.91,1.31c-2.12,3.03-7.88,6.67-12.73,7.88-3.94,1.11-8.69.61-12.63-1.01-3.43-1.52-5.25-2.93-6.77-5.35-2.42-3.64-2.63-5.86-.51-8.18,1.21-1.41,1.11-2.73-.1-2.63-.91.2-2.02,1.52-2.12,2.93-.3,1.82-.3,3.54,0,4.24.61,2.12,2.22,4.85,3.33,6.06,1.21,1.21,4.85,3.54,5.56,3.54.2,0,.3,0,.5.1.1.2,1.62.61,4.65,1.42,2.93.71,7.27.71,11.52,0,6.57-1.11,11.42-4.85,14.45-10.81.4-1.21,1.01-2.73,1.31-3.43l.61-2.22c.2-.71.3-3.74,0-5.25l-.1-1.82-.2-1.21,1.11-.91c3.74-3.23,6.67-6.06,8.29-8.39.5-.4.81-.91.91-.91,0,0,.2-.1.3-.4l.51-.81c2.73-4.24,3.64-7.07,3.03-10ZM531.21,417.93l.51-2.63c.3-3.43.71-5.15,2.22-8.28l.61-1.11.61-.91c1.11-1.62,4.14-4.35,5.76-4.95,1.72-.81,3.03-.91,4.75-.3,1.21.3,2.53,1.31,3.03,2.22.91,1.72-.2,4.24-2.93,6.97-2.22,2.12-2.53,2.42-4.24,3.64-.71.51-1.21.81-1.21.91,0,.2-.1.2-.3.2-.1,0-.4.1-.61.3l-.61.3-2.12,1.31-2.42,1.41-1.52.71c-1.21.91-1.62.91-1.52.2ZM515.45,455.51c.2.1.2.4,0,.61-.1.3-.3,1.52-.4,2.53-.2,2.12-.3,2.73-.5,2.12,0-.1-.1-.3-.3-.3-.4,0-3.33-2.12-4.65-3.43-.91-.81-1.82-1.82-2.12-2.32l-.81-1.01c-.1-.3-1.01-2.42-1.31-3.33-.2-1.11-.2-5.35.3-6.36.4-2.02,2.73-6.06,3.64-6.97l.3-.5.61-.91,1.31-1.52c.61-.91,2.42-2.73,3.23-3.33,2.12-1.92,3.64-3.03,5.56-4.24l2.42-1.62.3-.3,1.21-.61c1.52-.91,4.85-2.73,5.15-2.73.2,0,.51.71.61,1.62l.51,2.32.3.71.4,1.21,2.02,5.66-1.11.61-1.62,1.21-1.72,1.01c-.71.61-5.46,5.15-6.37,6.26l-1.01,1.52-.91,1.01-.3.51-.91,1.62c-1.72,2.42-4.14,8.39-3.84,8.99ZM540.81,456.83l-.81.51c-1.31,1.01-6.06,3.33-8.79,4.24-4.04,1.31-8.49,1.62-11.92.71-1.52-.3-1.72-.4-1.72-1.01,0-1.82,1.41-6.26,3.03-9.7l.81-1.52.41-.91.81-.91.61-1.21,1.01-1.72c.3-.4.61-.91.81-.91q.1,0,.1-.3c0-.61,6.57-7.07,7.88-7.98.3-.2.61-.51.61-.61,0-.51.91,0,1.21.61l1.11,1.92c.91,1.41,2.42,4.45,2.73,5.66.3.4.4.71.61.71,0,0,.1.3.1.61s0,.61.2.81c.1,0,.3.71.4,1.52l.51,1.62.4,1.41.2,1.52.3,2.12c.3,1.92.1,2.83-.61,2.83ZM555.36,442.28l-2.93,3.94-1.31,1.72-2.32,2.42-1.62,1.52c-1.11,1.01-3.23,2.73-3.33,2.52l-.61-2.42c-.91-3.43-1.11-3.64-1.41-4.34l-.4-.91c0-.3-.81-2.12-1.11-2.73l-.4-.91c-.51-1.11-2.42-4.75-3.54-6.57l-1.01-1.82c0-.4,4.55-3.03,6.97-3.94l1.31-.4c.81-.3.91-.3,2.12-.61l1.41-.5h2.83q2.73.2,4.14.91c1.31.81,2.42,2.02,2.83,3.33.81,2.12.2,5.76-1.62,8.79Z"/>
  <path d="M624.18,425.2s.4-.61.71-1.21c1.41-2.02,1.11-2.42,3.23-1.82,6.97,1.92,10.31,2.12,13.44,1.01.91-.4,2.32-1.31,2.73-1.92,1.11-1.11,2.12-2.32,1.82-2.63-.3-.3-1.21,0-1.21.51,0,.61-1.82,2.42-3.43,3.13-2.02,1.11-5.15,1.11-8.79,0-3.23-.71-5.46-1.31-5.46-1.52,0-.1,1.52-2.53,3.33-5.76.71-.61,1.21-1.52,1.21-1.62l.61-1.11,1.82-2.73,2.42-3.64c.61-1.01,1.01-1.62,1.01-1.82,0-.1.2-.3.3-.61.81-.71,1.11-1.01,1.52-1.92,1.82-2.63,5.46-6.87,7.58-8.39,2.12-1.21,4.55-2.42,6.06-2.53.61,0,1.41-.2,1.52-.2.3-.1.81.2,1.21.5.61.71.81,1.01.61,1.52-.3,1.01.91,1.01,1.21-.2.3-.71-.61-2.12-1.82-2.73-1.31-.71-4.24-1.01-5.86-.71-.3.3-1.41.61-2.02.91-.91.3-1.92.71-2.42,1.01-2.12,1.11-5.25,3.54-8.18,6.26-2.22,2.42-4.34,4.85-4.34,4.95,0,.2-.2.3-.3.3-.3.2-2.73,3.64-2.73,3.94,0,.2-.2.3-.3.3-.2,0-.3,0-.3.2,0,.1-.3.71-.81,1.52-.71.61-1.31,1.52-1.62,2.42-.51.61-1.11,1.52-1.41,1.82l-2.12,3.64c-.3.71-.71,1.31-.71,1.31-.2,0-.3.51-.3.61,0,.2-.2.51-.3.81-.3.4-.51.4-2.93,0-7.27-1.21-11.62-.81-16.37,1.52-3.33,1.31-6.37,4.85-6.67,7.07,0,1.52.2,2.02.81,2.02.3,0,.71,0,.71-.2,0-.1-.1-.3-.41-.3s-.5-1.92.41-3.03c3.23-5.46,11.11-7.98,21.12-6.36,1.31.2,1.92.61,1.92.81,0,.3-.1.91-.1.91-.2,0-.51.4-.81.91l-.61,1.21c-.4.3-3.13,4.85-3.13,4.95,0,.2-.3.51-.51.61-.3.3-.91,1.21-1.62,2.12-.61.81-1.82,2.63-2.93,3.84-3.43,4.24-11.52,13.03-12.53,13.74-.51.5-.81.91-.81,1.11,0,.1-.1.4-.41.4s-.91.5-1.72,1.41c-2.53,2.42-3.94,3.64-4.04,3.64-.2,0-3.03,2.42-3.33,2.73,0,.1-.61.61-1.21.91-.51.1-.91.4-.91.61-.5.4-4.55,2.12-6.57,2.73-3.03.71-7.88.71-10.31,0-3.64-.91-6.47-2.93-8.59-7.27-1.41-3.03-.91-6.67.1-8.99,1.41-2.22,3.33-3.74,4.75-4.04,1.52-.3,3.03.61,3.94,1.62.61.81,1.21,1.11,1.82.51.1-.2-1.52-2.02-2.73-2.93-1.72-1.01-4.75-.4-6.67,1.72-3.33,3.13-4.04,9.4-1.72,13.74.81,1.42,4.24,5.05,4.85,5.05.2,0,.51.1.51.3,0,.1.1.3.4.3.2,0,.81.1,1.11.3,1.52,1.01,7.98,2.02,9.4,1.31.1-.1.71-.1,1.21.2.3.1,1.01.3,1.31.1,2.42-.3,5.36-1.01,6.67-1.62l2.93-1.21c.71-.3,1.31-.81,1.31-.91,0-.2.2-.2.61-.2.5,0,3.94-2.22,5.66-3.33.61-.4,1.01-.91,1.21-.91.3,0,.71-.3,1.01-.71.51-.3.81-.61.91-.61.91,0,11.21-10,11.21-11.11,0,0,.51-.4.81-.91.4-.3,1.01-1.01,1.21-1.21.71-1.01,2.22-2.83,2.73-3.44.3-.3,1.01-1.41,1.62-2.32.61-.71,1.11-1.62,1.21-1.62.2,0,.3-.2.3-.3,0-.2.2-.51.3-.61,1.41-1.52,5.35-7.17,5.35-7.58,0-.2.1-.3.3-.3Z"/>
  <path d="M681.77,388.32c-5.15-.3-7.27-.71-13.24-2.83-3.64-1.21-4.34-1.72-6.16-2.42-1.11-.51-2.02-.81-2.02-.81-.1,0-.61-.1-1.21-.4-.91-.61-3.43-1.72-4.85-2.12-.4-.2-1.31-.61-2.12-.91-.4-.3-1.82-.81-2.83-1.11l-2.32-.91c-.61-.3-5.15-1.52-6.06-1.62-.3,0-1.21-.3-1.92-.5-.81-.4-2.73-.61-4.24-.91l-4.55-.71c-1.41-.3-8.69-.51-10.51-.3-.4,0-1.82.1-3.03.3-1.21.1-2.73.3-3.03.4-.61,0-1.31.3-5.25,1.41-3.33.91-9.09,3.64-11.72,5.56-2.42,1.82-2.83,2.32-4.65,4.14-3.64,3.44-5.66,6.67-7.27,12.23-.2.3-.2,2.12-.2,3.64,0,2.63.2,3.33.91,5.05,1.11,3.13,4.75,6.47,6.87,6.77.3,0,.61.2.71.3.61.51,3.64.51,5.66,0,2.12-.3,6.47-1.82,7.68-2.73l.61-.3c1.41,0,9.3-7.58,9.3-8.79,0-.3,0-.4.3-.4.1,0,.61-.61,1.01-1.21,1.41-2.12,1.41-2.32,1.82-2.93,1.21-2.12,2.02-6.06,1.11-7.98-.3-.81-1.21-1.52-1.52-1.11-.3,0-.3,1.11-.5,2.32,0,1.82-.1,4.55-.91,6.16-4.04,7.88-8.18,11.52-14.04,14.55-2.73,1.41-4.45,1.72-7.27,1.82-2.02,0-3.03-.1-5.05-1.21-1.82-1.01-4.04-3.43-4.04-4.04,0-.2-.2-.61-.51-1.11-1.62-2.42-1.82-8.18-.3-11.01l.3-1.21c0-.3.3-.81.61-1.11.3-.4.61-.71.61-1.01s.2-.51.5-.81c.3-.1.4-.4.61-.71.4-1.52,4.55-5.96,7.37-7.88,1.11-.81,1.82-1.42,2.02-1.52l2.12-1.21c1.01-.61,2.12-.91,2.12-1.11l.71-.3c.51-.1,1.21-.3,1.41-.4.3-.51,5.56-1.82,7.88-2.32,2.83-.71,4.24-1.01,9.09-1.31,4.04,0,10.61.61,13.74,1.31,4.14.91,6.97,1.52,8.18,2.12.81.3,2.32.81,3.33,1.11,1.11.3,2.42.91,3.23,1.01.61.51,1.21.81,1.31.81.2,0,.81.1,1.52.4,2.93,1.42,4.85,2.32,5.96,2.63.4.3,1.52.3,1.92.61.3.3.91.3,1.21.61,1.82,1.01,2.73,1.01,4.24,1.52.51.1,1.11.3,1.72.4,1.92,1.11,4.04,1.82,9.5,3.03.61.2,2.93.3,5.05.3,3.13,0,4.34-.1,6.67-.91,2.83-.71,5.76-1.92,7.38-3.13,1.41-.91,3.94-3.54,3.94-3.94,0-.2.2-.51.3-.81,1.11-1.01,2.12-6.37,1.41-7.38-.5-.91-.5-.61-.5.3,0,1.21-.71,4.85-1.21,5.86-.91,1.41-2.22,3.23-3.03,3.64-.4.3-.91.61-1.21,1.11-.61.61-4.34,2.42-6.16,3.03-2.12.61-6.97,1.21-8.49,1.01Z"/>
  <path d="M657.95,412.57c-1.31.61-2.22,1.72-2.73,3.23-.91,1.92-.3,3.33,1.72,3.44,1.01.2,1.21,0,2.42-1.01,1.92-1.82,2.73-4.24,1.21-5.66-.81-.61-1.21-.61-2.63,0Z"/>
  <path d="M692.72,452.78c.91-1.52,4.14-6.26,4.24-6.36.2,0,.51-.61.91-1.41.51-.4.91-1.01,1.11-1.01,0-.2.4-.81.91-1.52,1.82-2.32,4.95-6.57,6.16-7.58.51-.61,1.21-1.72,1.52-2.02,1.21-1.82,5.96-6.37,7.78-7.27,1.31-.91,1.82-1.01,3.33-1.01s1.62,0,2.42.91c.71.61.91.91.91,2.12-.2,1.21-1.41,4.04-3.03,7.37-1.11,1.82-5.46,8.49-6.67,9.9-.91,1.01-2.93,4.04-2.93,4.24,0,0-1.21,1.92-2.83,4.35-1.72,2.32-3.33,4.85-3.84,5.46-.61,1.11-1.31,2.32-1.92,3.03-.61.81-1.11,1.52-1.11,1.72,0,.4.3.61,2.42.4,2.42-.1,3.33-.3,3.33-1.01l.61-.91c.3-.3.51-.81.51-.91,0-.2.4-.81,1.01-1.72.61-.71,1.11-1.31,1.11-1.52,0-.1.1-.4.1-.61.3-.3.81-1.01,1.21-1.62,1.41-2.42,3.33-4.55,5.05-6.87,1.31-1.82,2.42-3.44,3.74-4.95l1.41-2.12c.4-.91,1.01-1.82,1.01-1.82.2-.2.81-.81,1.41-1.82.4-.81,1.01-1.82,1.31-2.02.3-.3.91-.91,1.41-1.52,1.01-1.21,2.73-3.03,4.55-4.85,1.21-1.31,4.65-4.04,5.15-4.04.1,0,.3,0,.3-.2,0-.1.71-.3,1.52-.3.61-.1,1.62,0,2.22.3,1.21.5.91,2.32.91,3.23-.1,1.01-.61,3.13-.91,4.34-.61,1.82-2.83,5.66-3.94,6.67-.71.91-1.21,1.72-1.21,1.72,0,.1-.91,1.31-1.92,2.83-1.82,2.63-2.32,3.23-2.63,4.14-.1.1-.3.4-.4.4-.3.2-3.23,4.24-3.64,4.85-.2.51-.3.91-.51,1.21-1.01,1.72-1.21,2.42-1.31,3.94,0,2.63.4,3.84,1.62,4.55.91.61,1.41.81,3.23.81,1.52,0,2.22-.2,3.03-.61.4-.3.71-.61.91-.61,0,0,.71-.51,1.52-.91,2.42-1.41,6.77-5.66,9.7-9.4.1-.5.71-1.21,1.21-1.52,1.31-1.72,10.1-13.34,10.1-14.15.3-.91-.1-1.01-.91,0-.1.2-1.21,1.42-1.92,2.63-.91,1.21-8.39,11.21-8.39,11.32-.1.3-.4.5-.4.61,0,0-.61.81-1.21,1.52-.81,1.11-4.85,5.15-6.67,6.57-.91.91-3.54,2.53-4.24,3.03-.51.1-1.41.3-2.32.3-1.62,0-1.92-.3-1.62-2.42.3-2.32,2.73-6.97,5.15-10,.61-.81,1.52-1.72,1.92-2.42.3-.61,1.72-2.32,2.63-3.64,3.94-5.35,6.47-10,7.07-12.73.51-1.72,0-4.24-.61-5.66q-.61-1.21-2.83-1.92c-1.72-.51-2.12-.51-3.64-.2-1.11.2-2.32.51-2.42.61-1.52.81-4.24,3.23-6.87,5.76-1.82,2.02-2.42,2.32-3.33,3.23-.1.1.2-.91.3-1.21.2-.3.3-1.21.3-2.02,0-2.73-2.12-6.06-4.34-6.67-1.52-.4-2.73-.4-4.75.2-.91.4-1.62.91-1.62,1.01-.2.2-.3.2-.51.2-.3,0-5.56,5.15-6.67,6.47-.3.61-.61,1.21-.71,1.21-.2.2-1.11,1.11-1.82,2.12-.61.81-1.21,1.52-1.41,1.52-.1,0,.3-.91.51-1.21.1-.1.61-1.01.71-2.12,2.02-6.06,1.72-7.58-1.52-8.79-1.62-.61-3.74-.1-5.25.81-.3.1-.81.4-1.21.61-1.41.4-2.42,1.52-4.14,3.33-3.45,3.16-6.62,6.69-7.63,7.99l-5.1,5.95c-3.03,3.33-5.56,6.06-6.37,6.77-.71.61-2.12,2.32-2.83,2.93-4.75,4.55-7.17,6.67-9.19,7.88-3.33,2.12-5.15,2.12-6.36,1.31-1.21-.71-1.92-3.03,1.82-9.09l1.72-2.73c.4-.4.71-1.01.71-1.01,0-.2.3-.81.81-1.41,1.62-2.22,4.85-7.07,4.85-7.27l.3-.4c.3-.3,1.21-1.72,3.64-5.05,2.12-3.13,4.55-6.97,4.55-7.07,0-.2.2-.3.3-.3.3-.2,2.32-3.23,2.32-3.64,0-.2.1-.3.3-.3.1,0,.3-.2.3-.5l.61-.91.71-.91c.2-.3.81-1.01,1.21-1.92,1.72-2.32,2.42-3.54,2.73-3.94,0-.2.2-.51.3-.51.2-.1.61-.71,1.11-1.52l3.94-5.86c1.62-2.42,3.13-4.75,3.44-5.05,2.73-4.35,3.64-5.76,4.14-6.16.91-.91.3-1.21-2.73-1.52l-1.21-.2-1.11,1.21c-.61.81-1.31,1.82-1.92,2.43-.51.61-.91,1.52-1.21,1.82l-.81,1.11-.61.91-4.24,6.67-4.35,6.37c-.2.3-.3.4-.3.61-.3.3-3.03,4.34-3.03,4.55l-.91,1.21c-.81.91-1.41,1.62-2.32,3.13-.3.3-.61.91-.71,1.11l-3.64,5.56c-.2.2-1.11,1.42-1.82,2.73-.81,1.21-1.62,2.32-1.62,2.42,0,.03,0,.04,0,.06-.14.2-.29.41-.44.63-.34.43-.86,1.14-1.38,1.9-.41.54-.82,1.08-1.21,1.55-1.82,1.82-2.73,3.44-4.34,5.15-1.11,1.01-1.52,1.82-1.72,1.92-.1.2-.91,1.21-1.62,2.02-4.85,5.15-9.6,9.4-10.71,10.31-.71.71-1.21,1.21-1.31,1.21-.2,0-.3.1-.51.3-.61.3-1.01.71-2.42,1.31-.71.51-1.01.51-2.12.3-1.01,0-1.21-.1-1.52-.71-.4-1.52.81-4.55,3.23-8.39.4-.91.91-1.31.91-1.52,0-.1.1-.3.3-.61l3.13-4.24c0-.3.51-.91.61-1.21.81-.71,4.75-6.77,4.95-7.27.3-.71,2.73-3.94,3.33-4.55.3-.4.61-1.01.61-1.21,0-.1.3-.3.3-.4.1,0,.4-.51.71-1.11.3-.4,1.21-1.62,1.82-2.53.81-.91.81-1.11.81-1.41,0-.71-2.73-1.01-4.14-.71-.71.3-1.92,1.31-3.13,3.03-.51.91-2.02,3.03-3.33,4.95-2.22,3.23-3.13,4.55-4.65,7.27-.1.3-.41.81-.71,1.11-.3.61-1.21,1.92-1.82,3.03-.81,1.21-1.52,2.42-1.82,2.73-.3.3-.81,1.21-1.11,1.62-.3.61-.61,1.21-.71,1.21,0,0-.2.2-.2.3,0,.2,0,.3-.3.3-.1,0-.3.3-1.62,3.33-.61,1.72-.61,3.94-.2,5.15.91,1.72,2.63,2.93,4.55,3.13,1.72,0,2.02-.4,5.15-2.32,3.03-1.82,11.01-10,12.93-12.12.61-.81,1.82-2.12,2.73-3.03.23-.35.64-.87,1.12-1.47-.98,1.66-2.02,3.47-2.02,3.59,0,.1-.3.61-.71,1.01-1.11,1.41-3.33,6.36-3.54,7.78-.1.91,0,1.31.51,2.52,1.31,3.23,5.56,4.35,8.79,2.73.91-.4,3.13-1.92,3.43-2.22,0,0,.71-.51,1.31-1.11.61-.4,2.73-1.82,3.94-3.03,3.94-3.64,4.24-4.34,7.58-7.68,1.82-1.82,4.04-4.45,4.85-5.35.71-.91,4.55-4.95,6.37-7.07.09-.11.15-.22.23-.33.27-.31.51-.58.69-.78,1.52-1.82,3.03-3.13,4.85-4.95,1.01-1.21,2.42-2.73,3.94-3.64.91-.81,1.92-1.11,3.13-1.21.81-.2,2.42-.61,3.03,0,.91,1.21.2,3.74-2.53,8.29-.51.81-.81,1.41-.91,1.72-.5.91-1.21,1.82-2.63,4.04-.91,1.21-1.52,2.32-1.52,2.32,0,.1,0,.3-.1.4,0,0-.91,1.21-2.02,2.42q-1.92,2.93-4.24,5.96c-.71,1.01-2.12,2.83-2.73,3.74-.51.91-1.41,2.02-2.02,2.73l-.91,1.21c0,.2-.71,1.11-1.52,2.12-1.31,1.82-1.62,3.03-.91,3.33.2.2.81.2,1.52.2.81-.2,1.52-.3,1.82-.3,1.11,0,1.82-.61,1.82-1.11,0-.1,0-.4.2-.4s1.11-1.11,1.82-2.12c.81-1.42,1.82-2.63,2.32-3.23.91-1.01,1.92-2.83,2.83-4.35Z"/>
</svg>