<?xml version="1.0" encoding="UTF-8"?>
<svg id="Layer_1" data-name="Layer 1" xmlns="http://www.w3.org/2000/svg" viewBox="0 0 879.07 1000">
  <path d="M456.7,560.03c-.3.07-.63-.29-1.23.32-.26,0-.62-.54-.77-.46,3.28-1.99,6.09-4.64,10.05-5.54l-2.6,2.63c-2.7.04-3.79,1.92-5.45,3.05Z"/>
  <path d="M618.03,719.88c-.17,1.21-.47,1.98-.6,2.78.17-1.17.5-2.1.6-2.78Z"/>
  <path d="M418.18,581.12c-.49.19-1.06.24-1.23.32.38-.12,1.18-.29,1.23-.32Z"/>
  <path d="M163.86,681.5c-.29.07-1.33,1.34-.77-.46.19-.05.63.54.77.46Z"/>
  <path d="M416.17,580.98c.14-.08.59.51.77.46-.22.1-.81.66-1.69,1.09.37-.39.6-1.37.91-1.55Z"/>
  <path d="M618.62,717.1c-.16,1.26-.49,2.05-.6,2.78.14-1.04.57-2.49.6-2.78Z"/>
  <path d="M315.38,622.73c-.2.05-.26.74-.46.77-.22.04-.59-.52-.77-.46.43-.13.83-.2,1.23-.32Z"/>
  <path d="M169.38,677.45c-.48.18-.44.34-1.23.32.24-.21.28-.73.46-.77.19-.05.64.54.77.46Z"/>
  <path d="M314.15,623.05c-.46.16-1.18.28-1.23.32.47-.15.9-.21,1.23-.32Z"/>
  <path d="M413.25,582.39c.12-.08.71.02,1.23-.32.21-.04.63.54.77.46-.96.48-1.98.97-2.92,1.41.37-.23.55-1.32.91-1.55Z"/>
  <path d="M617.43,722.66c-.04.24-.08,1.4-.14,2,.06-.46,0-1.08.14-2Z"/>
  <path d="M66.88,656.64c-.53.29-1.11.25-1.23.32.19-.02.24-.7.46-.77.18-.06.63.54.77.46Z"/>
  <path d="M170.29,675.9c.09-.05.49.33.77.46-.52.31-.38.61-1.69,1.09.37-.23.57-1.37.91-1.55Z"/>
  <path d="M428.16,576.58c-.52.22-1.05.23-1.23.32.2-.05.25-.72.46-.77.2-.05.57.51.77.46Z"/>
  <path d="M740.69,386.38c-.3.11-.69.06-1.23.32-.25,0-.63-.54-.77-.46.82-.42,1.83-2.17,3.76-1.95.25.23-1.37,1.85-1.76,2.09Z"/>
  <path d="M705.27,908.03c-.05-.2.51-.57.46-.77.05.26,1.35,1.33-.46.77Z"/>
  <path d="M636.99,678.9c-.25,9.16-10.9,28.48-14.34,38.81-1.59,4.78-1.47,6.7-3.83,11.43-.87,1.75-.94,4.88-1.89,6.78l2.45-.63-.59,2.77-2.6,2.64,2.46-.63c-1.43,2.09-.63,4.58-.86,7.11-.72,7.94-1.45,16.31-.91,24.19.02-.25-1.49-2.95-1.34-3.92-.32-.12-.97,2.14-.98,2.55-1.06-14.45.92-30.94,2.74-45.33-.04.44.58,1.31-.14,2,.85.77,1.11.22,1.45-.7,2.31-6.26,2.68-15.88,5.88-20.5,6.11-8.84,8.38-16.82,12.5-26.57ZM624.56,707.04l-1.96,5.1.77.45,1.96-5.1-.77-.45Z"/>
  <path d="M705.73,907.25c-.05-.21-.72-.25-.77-.46s.51-.57.46-.77c.03.22.22.75.32,1.23Z"/>
  <path d="M175.98,675.09c.09-.23.4-.76.46-.77.27-.07.71.56.54.84-.4.32-.64.15-1-.07Z"/>
  <path d="M451.64,563.3c-2,.89-5.76,2.21-6.92,2.8-.79.4-1.72,1.46-2.31,2.2-1.34-2.66-.84-1.07-2.38-.36-.57-2.08,2.16-1.78,3.29-1.33.56-3.04,4.97-3.01,7.54-3.76.19-.05.63.54.77.46Z"/>
  <path d="M21.25,675.62c-.34-.47-1.73-.84-2.33-1.38l1.7-1.08-2.87-2.22c2.02-.92,3.42.93,5.42.65.95-.13,7.35-3.15,8.84-3.88.72-.35,3.39-1.58,1.65-2.52l-9.67,5.77c-1.24-.6-2.01-.76-.87-2.1,2.18-2.55,9.15-3.55,11.75-5.34,2.14-1.47,3.71-4.15,5.74-5.73.19-.15,3.53-1.05,2.01.15l-3.06,3.42c3.06-.81,6.26-1.3,9.38-1.79,5.34-.82,9.48-1.14,14.7-2.78.35-.11.73-.12,1.23-.32.28.02.55.48.77.46-1.58.92-3.72,1.97-4.53,3.34-3.63-1.14-17.46,1.75-21.56,3.67-2.29,1.07-4.45,3.71-6.96,4.8,4.23,1.9,9.14,2.99,13.38,4.8,11.91,5.09,23.06,11.43,34.65,17.32,2.15,1.09,5,1.1,7.02,3.05l-2.96-3.83c4.28,2.25,7.14,5.69,11.55,7.9,2.31,1.16,4.35,1.42,7.02,3.06-4.84,1.13-31.88-14.15-38.26-17.32l-9.82-3.74c7.75,4.15,15.06,9.44,22.84,13.52,6.42,3.36,14.77,7.02,21.52,9.82.6.25.88.94,1.22,1.1.89.42,3.01-.76,4.14-.86,1.41-1.6-.5-1.83-1.64-2.53.06-.01.23-.79.96-.48,5.09,3.94,12.17-2.29,17.12-4.47,10.53-4.64,18.87-9.25,28.78-14.35.64.25.85.43,1.23-.32,6.09-1.65,11.06-4.7,16.59-6.9-7.46-5-16.21-7.22-24.01-11.5-.81-.44-1.58-1.03-2.66-1.62-1.16-.63-2.22-.41-1.65-2.54l10.84,6.39-5.64-5.49-10.16-4.87,4.19,3.51c-2.04,1.95-2.1-.2-2.39-.37l-13.54-7.99c2.69-1.93,5.72,1.59,8.26,2.75,2.97,1.35,7.34,2.48,10.2,3.92,8.42,4.25,15.16,10.74,23.57,15.04,1.79.91,5.17.23,3.01,2.77,5.36-2.14,12.28-3.39,17.74-6.29l3.39-2.11c-1.39.5-2.41-.4-3.54-1.02-16.77-9.24-32.92-20.17-49.53-29.21-1.26-.68-3.47-1.68-4.04-2.95,2.14-.41,5.81.97,7.71,1.89,9.91,4.82,19.06,11.76,28.14,17.71,5.12,3.35,10.23,5.01,15.26,7.9,2.69,1.54,4.96,4.4,7.86,5.22,3.49-.57,6.18-3,9.38-4.36,7.64-3.23,15.57-6.13,23.17-9.39,24.33-10.41,48.46-21.23,72.38-32.32,24.27-11.25,48.97-21.79,73.73-32.19,22.15-9.3,44-19.21,66.37-27.62,15.02-5.65,29.02-13.39,43.96-19.22,10.89-4.25,22.12-7.78,33.02-13.04,22.34-10.79,44.66-19.66,67.1-29.87,4.02-1.83,3.63-2.81,6.15-4.18,1.62-.88,4.81-1.01,6.77-1.74,12.52-4.65,24.82-9.55,37.42-13.94l-2.32-1.37,4.96-4.94,5.49-9.25c-1.2-1.43-2.31.52-2.93,1.37-.83,1.15-1.22,2.71-2.32,3.72l-4.64,1.07c4.34-3.78,10.84-12.21,10.71-18.09-.02-1.02-1.37-1.12-1.1-1.8.33-.83.91-2.39,1.93-1.46-.73,4.11.18,8.52-2.06,12.35l2.74-4.64c.17-.06.91,1.27,1.09,1.69,1.57-4,2.19-8.26,4.85-11.76l-1.95-.11.44-1.76-.85-4.72-1.35,3.96-1.01.92c.75-1.62.33-4.07.79-5.45.61-1.85,1.97-3.11,2.45-5.22.44-1.96-.83-8.74-.88-11.59-.05-2.94,1.09-7.39.55-9.98-.7-3.33-3.54-8.49-4.5-11.96-1.16-4.19-1.64-8.8-3.93-12.77-1.72-2.98-5.29-5.53-6.89-7.74-.11-.15.36-2.07-.63-2.46l-.92,1.55c-3.04-5.96-7.7-10.6-11.96-15.61-1.21-1.43-.3-3.01-3.66-2.99l1.3-1.33c-1.24-.92-2.57-.31-3.9-1.23-1.59-1.1-3.18-3.83-4.93-5.03.59-1.44,2.25.28,3.16.83,8.4,5.04,20.32,20.32,26.05,28.72,6.22,9.13,8.2,18.85,11.84,29.1.8-.47.57-2.59.48-3.4-.31-2.7-2.37-9.39-2.27-11.21.04-.8,1.15-.78.89-1.45-3.76.21-2.41-4.77-3.08-7.19-1.26-4.56-4.63-8.12-7.13-11.99l.82-2.04c-2.68.38-3.14-3.05-4.74-4.77-5.96-6.36-11.23-8.91-17.7-13.81-4.46-3.38-6.29-6.43-12.28-9.26-1.95-.92-6.22-1.65-7.88-2.63-3.57-2.1-7.4-6.24-11.95-8.08-1.41-.57-2.58.34-4-.23-3.65-1.47-7.51-4.96-11.23-6.65l7.87,2.56-3.87-2.29,2.46-.63-4.32-1.51,2.46-.63-8.83-6.25.53,3.48c-3.05-3.78-5.92-5.47-9.94-7.96-2.6-1.61-4.43-2.04-6.41-3.19-1.73-1.01-3.99-3.74-4.39-5.82l7.63,5.64c4.5,3.37,13.68,5.86,17.72,8.79,5.79,4.19,7.93,9.05,16.02,13.68,2.18,1.25,3.99,2.35,6.13,3.62,15.15,8.93,28.12,14.32,40.67,27.57,11.24,11.87,16.37,24.46,18.94,40.4,1.72,10.66,2.99,31.61-.72,41.53-.64,1.72-1.97,3.1-2.46,4.57-1.05,3.14-1.42,6.99-2.7,9.88-.35.81-1.29,3.24-2.42,2.26.72-1.31,2.26-4.56,2.26-5.85,0-.33-.57-.37-.62-.48-2.41,6.15-5.18,13.8-9.19,19.08-.67.88-1.88,1.21-2.37,2.27,31.55-10.98,62.16-22.92,94.46-31.93,5.21-.17,10.13-3.44,15.23-4.56l-.3,1.38-11.38,4.23c-6.21-.85-11.27,4.18-16.28,5.6-9.09,2.57-19.78,5.19-29.39,8.14-2.92.9-6.86,2.13-9.68,3.17-7.75,2.84-14.52,11.96-23.45,10.13-4.47,4.64-15.23,4.89-21.87,7.55-4.27,1.71-3.75,3.23-6.43,5.6-1.31,1.16-7.36,2.83-7.15,4.07l3,.2-5.99,2.21c-.79-.42.4-1.24.53-1.77l1,.06c.03-.45-.2-.63-.54-.84.62-.95,1.83-1.2,1.76-2.09-4.41-.14-7.42,2.77-11.37,4.26-5.75,2.17-12.37,3.84-18.15,5.96-27.37,10.03-54.59,23.27-80.08,36.3-1.82-1.78-2.5.07-4.25.59-13.79,4.12-23.45,9.1-35.96,15.78-10.86,5.79-26.11,8.34-37.94,13.17-11.26,4.6-19.72,11.03-31.53,15.25-19.07,6.81-38.68,16.43-57.73,25.44l-7.16,1.5c3.11-2.42,7.9-3.2,11.59-4.69,1.96-.79,3.88-1.91,5.84-2.79.8-.35,2.99-.19,2.15-1.84l-19.08,7.56c-.72.13-.95,1.06-1.28,1.3-.04.03-.71-.56-1-.07-.17.59.55.79.54.84-.19,1.62-7.42,3.29-9.13,4.06-7.64,3.45-15.08,8.38-22.49,12.01-9.1,4.45-19.05,6.16-28.2,10.25-9.2,4.11-17.71,8.29-27.03,12.22-3.51,1.48-11.19,4.96-13.44,7.67-.28,0-.68-.63-1.23.32l-5.01-.34,1.4,2.91c-1.51-.42-2.39-2.61-4.32-1.5l1.71,1.52-2.15,1.88-1.88-2.17c-.45,2.55-2.71,2.08-3.1,3.96-.76-.87-4.32-.11-5.62.28-6.43,1.93-10.24,4.77-15.72,7.82-1.91,1.07-6,1.56-7.8,2.84-.35.25-.95,1.16-.3,1.38l5.38-2.04c.66.24.05,1-.3,1.4-1.76,2.01-6.2,1.22-7.76,4.29l.21-3-2.56,1.61-1.83-2.12c-.38.44-.58,1.22-.92,1.55-.04.03-.7-.56-1-.07-.09.51.18.63.54.84-.13.32.15,1.03-.18,1.45-.65.84-3.93,1.22-4.56,3.05l1.37-2.32c-.52-.27-1.01-.69-1.55-.92.87-.52,1.67-.87,2.69-1.03l-.16-.6c-1.27.09-2.24.74-3.3,1.17-1.1.46-1.49,1-1.69,1.09-.28.12-1.63-.23-2.23.25l.16.6c.55-.36,1.17-.09,1.62-.08-1.84,1.62-1.5,3.11-4.29,3.73.28-.16.56-1.12.91-1.55l-.77-.45c-.37.42-.58,1.31-.91,1.55-.2.14-3.54.47-4.7.86-2.94,1-5.01,2.53-8.61,2.24l-1.14,1.93c.55-1.78-.41-.55-.77-.46-.06.02-.71-.56-1-.07-.17.59.55.79.54.84-.25,1.88-18.2,9.15-21.25,10.47-3.44,1.5-6.02,3.1-9.36,4.34-9.37,3.49-25.5,7.52-32.3,14.79-.73.78-1.64,1.39-1.93,2.53.07,2.77,1.65,1.88,3.6,2.61l.5-1.69c2.94,3.59,7.74-1.7,11.11-2.84,31.72-10.67,62.25-24.68,92.56-39.32.88-.43,1.99-.95,2.92-1.41.46-.23,2.91-.4,3.92-1.34l-.16-.6c-.61.48-2.72.32-2.85.4.6-.37,1.21-1.44,2.41-2.07,6.16-3.21,13.21-5.44,19.47-8.5,2.49.21-1.74,2.34-2,2.44-1.19.47-2.5.53-3.67,1.06-3.86,1.74-7.54,3.89-11.3,5.8-.14.07-.64-.28-1-.07-.27.52.52.79.54.85s-.55.68-.06,1c.47.07.7-.53.84-.54,2.41-.21,4.73-1.2,6.98-2.2,8.89-3.97,17.33-9.81,26.66-12.38l-4.67,3.5,11.83-5.02-7.15,1.52c3.75-2.67,8.49-5.2,12.58-7.18.13-.06.79-.17,1.23-.32.2-.07.74.34,1,.07l-.09-1.62c2.54-.98,1.8.39,4.23-.11l-1.09-1.68c3.48.04,6.92-4.67,9.73-2.54l.26-1.92,3.99.19,1.14-1.93c-.55,1.79.45.53.77.46,2.15-.51,3.65-1.85,5.59-2.48.91-.3,2.34-.32,3.48-.52.57-.1.71-.15,1.23-.32.05-.02.71.55,1,.07.08-.5-.17-.63-.54-.84,1.72-1.17,3.25-2.66,5.45-3.04l-1,1.21c-1.57,1.43-.13,1.21.86.78,1.96-.87,3.88-1.96,5.85-2.87.75-.35,1.1-1.16,1.29-1.25,1.12-.5,3.05-1.27,4.15-1.73,1.55-.64,1.75.46,4.15-1.73.66-.02,1.34.14,2,.14-.69.63-2.16,1.86-1.76,2.09.95-.43,1.89-.32,2.85-.4-1.21,1.2-1.88,1.85-3.8,2.02-1.39.12-1.78-1.39-3.35-.5-.06,1.15,1.97-.16,1.54.91-.79,1.96-1.42.24-3.06.76-2,.63-3.31,1.38-6.02,2.17-18.34,5.38-36.95,18.16-54.36,25.86-13.65,6.03-27.79,11.32-41.46,17.36-2.59,1.15-8.99,5.46-11.07,5.42-.65-.01-1.32-1.58-2.78-.59l1.09,1.68-4.01-.27,1.09,1.67c-6.04,2.71-12.34,4.8-18.43,7.43-1.78.77-3.3,2.4-5.08,3.2-13.66,6.1-28.31,8.92-42.1,14.87-3.11,1.34-12.43,7.17-14.74,7.76-2.05.52-2.2.71-3.62,1.2l1.24,4.6c-4.72,15.67-10.6,31.16-16.62,46.28-1.27,3.2-1.65,6.97-3.74,9.82l-1.41-2.91-2.42,5.87-2.32-1.37c1.56-3.01,3.76-5.84,5.21-8.89,5.39-11.36,10.76-26.05,15.13-38.03,1.79-4.92,2.97-10.46,4.94-15.38-2.59.89-6.97.22-9.86,1.41l-4.14-2.37c.92-1.15.18-3.38.69-4.26.81-1.39,4.29-2.71,4.76-5.04l1.08,1.7c1.5-.92,1.92-2.77,2.7-3.67,2.64-3.04,8.46-3.66,12.03-5.38-1.81-1.71-4.3-1.61-6.25-2.6-16.61-8.44-33.49-20.75-50.02-28.55-3.91-1.84-9.69-1.51-12.11-5.02-.45,1.47-6.27,3.17-3.14,4.43l60.72,30.58c-4.04,2.37-7.52-1.8-11.03-3.35-10.96-4.83-22.36-8.52-32.87-14.21.6-.21,1.18-1.05,2.14-.76,1.55.47,4.61,4.55,7.43,2.24-3.17-.79-5.68-2.63-8.57-3.98-.85-.4-1.96-.27-2.8-.67-2.94-1.41-5.71-4.3-8.97-4.22l1.31-1.3-3.88-2.29.64,2.46c-1.88-1.13-3.7-2.29-5.73-3.15-1.18-.5-3.71-1.72-4.15.45ZM55.5,690.09c-.3.5.48.96.77.46.3-.5-.48-.96-.77-.46ZM60.05,691.21l-2.78-.59-.45.77,2.32,1.37.91-1.55ZM74.44,771.17c-.3.5.48.96.77.46.3-.5-.48-.96-.77-.46ZM72.02,777.04c-.3.5.48.96.77.46s-.48-.96-.77-.46ZM164.68,678.33c-.3.5.48.96.77.46.3-.5-.48-.96-.77-.46ZM172.46,688.14c-.3.5.48.96.77.46.3-.5-.48-.96-.77-.46ZM226.13,651.98c-.3.5.48.96.77.46.3-.5-.48-.96-.77-.46ZM226.53,663.69c-.3.5.48.96.77.46.3-.5-.48-.96-.77-.46ZM286.36,625.95l.16.6,1.84-.48-.16-.6-1.84.48ZM289.27,624.55l.16.6,3.07-.79-.16-.6-3.07.79ZM293.42,622.82l.16.6,1.84-.48-.16-.6-1.84.48ZM368.69,588.96c-.3.5.48.96.77.46s-.48-.96-.77-.46ZM452.89,554.13l.16.6,4.3-1.11-.16-.6-4.3,1.11ZM587,496.56c-.3.5.48.96.77.46.3-.5-.48-.96-.77-.46ZM592.38,494.52c.51,1.16,2.43-.09,3.18-.39.72-.29,2.84-.97,2.81-1.81l-5.99,2.2ZM646.48,411.66c-.3.5.48.96.77.46.3-.5-.48-.96-.77-.46ZM646.2,415.67c-.3.5.48.96.77.46s-.48-.96-.77-.46ZM646.46,420.52l.21-3-.6.16-.37,2.39.77.45ZM648.06,417.81c-.3.5.48.96.77.46.3-.5-.48-.96-.77-.46ZM647.93,419.82l.34,3.85.6-.16c-.49-1.32.32-2.57-.34-3.85l-.6.16ZM647.96,425.06c-.3.5.48.96.77.46.3-.5-.48-.96-.77-.46ZM646.94,442.71c1.63-5.1,2.47-10.49,1.5-15.8l-1.08,3.56c.48,4.01-2.01,8.59-.42,12.25ZM618.13,486.23l4.22-2.72-5.54,1.42c-.49.62,1.23,1.33,1.31,1.3ZM655.47,470.7l-4.38,2.11.16.6c1.82-.65,4.22-.38,4.99-2.27l-.77-.45Z"/>
  <path d="M738.68,386.24c-.35.19-.54,1.3-.91,1.55-.18.12-1.46-.21-2-.14.3-.21.48-.94,1.29-1.34.65-.32,1.47.01,1.62-.07Z"/>
  <path d="M38.74,684.9c-2.93-.1-3.1-1.13-5.48-2.16-2.43-1.04-9.88-3.46-11.62-4.93-.8-.67-.31-2.08-.39-2.18,5.67,3.6,11.66,5.98,17.48,9.27Z"/>
  <path d="M687.43,932.97c-1.95,2.01-3.81,3.19-6.72,3.21-1.78,0-7.51-1.28-8.23-2.63-.08-.15.49-.55.46-.77,2.28,1.23,4.79,2.19,7.45,2.17,2.75-.02,4.45-1.84,7.04-1.97Z"/>
  <path d="M770.62,390.47c6.83,1.45,13.56.76,20.5,1.89,3.91.63,8.66,1.7,12.51,2.7.92.24,3.12.18,3.02,1.54l-18.68-3.73c-6-.01-11.98-1.07-17.81-1.63l.46-.77Z"/>
  <path d="M312.92,623.36c-.38.26-.56,1.34-.91,1.55-.14.08-.6-.52-.77-.46.1-.03.37-.68,1.69-1.09Z"/>
  <path d="M618.62,717.1c0-.07-.36-.55-.32-1.23-.01.06.4.59.32,1.23Z"/>
  <path d="M641.11,549.87c-.24-.34-.46-.85-.32-1.23.47.84.29,1.17.32,1.23Z"/>
  <path d="M451.78,561.3l-.91,1.55-.09-1.62c.26-.26.8.14,1,.07Z"/>
  <path d="M453.01,560.98c-.17.25-.28.53-.46.77-.29-.05-.66-.54-.77-.46.43-.14,1.13-.27,1.23-.32Z"/>
  <path d="M401.41,584.79c-.85.38-1.18.28-1.23.32.25-.01.75-.51,1.23-.32Z"/>
  <path d="M400.18,585.11c-.58.35-1.14.26-1.23.32.39-.09.65-.29,1.23-.32Z"/>
  <path d="M191.25,675.75c-.39.36-.58,1.34-.91,1.55-.12.08-1.91,0-2.85.37-1.26.49-2.37,1.21-3.52,1.62-.69.24-2.88,1.15-3.24.17,3.58-1.71,6.59-3.16,10.53-3.71Z"/>
  <path d="M672.94,932.77c-.76-.41-2.83-1.45-3.1-1.83-.07-.09-.18-2.57.53-1.78,1.04,1.02,2.37,2.26,2.57,3.6Z"/>
  <path d="M452.56,561.75c.3.05.6.51.77.46-.09.04-.67.64-1.69,1.09.24-.14.59-1.09.91-1.55Z"/>
  <path d="M650.86,948.97c.08.14-.51.58-.46.77-.33-.54-.61-.7-1.09-1.69.23.37,1.34.56,1.55.91Z"/>
  <path d="M194.17,674.34c-.36.23-.55,1.31-.91,1.55-.19.12-1.46-.21-2-.14,1.93-1.78,2.45-1.13,2.92-1.41Z"/>
  <path d="M454.7,559.89c-.33.49-.57,1.06-.91,1.55-.31-.07-.6-.51-.77-.46.23-.12,1.12-.75,1.69-1.09Z"/>
  <path d="M549.06,523.74c.14-.08.58.51.77.46-.17.08-.97.7-1.69,1.09.36-.21.55-1.33.91-1.55Z"/>
  <path d="M700.97,848.11l-.77-.46.84-.54c.49.29-.1.96-.07,1Z"/>
  <path d="M454.56,561.89c-.49.18-1.04.24-1.23.32.17-.25.28-.53.46-.77.3.07.64.52.77.46Z"/>
  <path d="M645.15,926.82c.09.49,1.12,1.38,1.09,1.69-.03.44-.9,1.14-.91,1.55-.08-1.26-.22-1.49-.18-3.24Z"/>
  <path d="M696.61,841.36c-.21-.32-1.12-.55-1.55-.91l.85-.54c1.21.02.6,1.35.7,1.46Z"/>
  <polygon points="148.63 686.08 147.4 686.4 147.86 685.62 148.63 686.08"/>
  <path d="M838.95,398.44c1.72.74,3.24,1.54,5.1,1.97l-4.46.49c2.18,1.09,4.09,1.22,6.27,2.65,1.24.82,1.79,2.02.24,2.23-3.03-1.27-6.4-3.24-9.35-4.44-3.23-1.32-7.73-3.33-10.92-4.19-3.04-.82-7.13-.17-10.01-1.93.8-.82,2.26-1.02,3.36-.94,6.36.46,13.55,3.33,19.78,4.17Z"/>
  <path d="M199.41,674.3c-.22-.21-.73-.3-.77-.46s.37-.48.46-.77l.32,1.23Z"/>
  <path d="M455.47,560.35c.62,0,.66.07,1.23-.32,1.64-.39,3.31-.81,4.92-1.27-.37.33-.53,1.19-.91,1.55-1.64.34-4.69,1.06-6.15,1.59.36-.45.55-1.18.91-1.55Z"/>
  <path d="M384.04,591.24c-.51.33-1.13.25-1.23.32.35-.07.7-.23,1.23-.32Z"/>
  <path d="M311.23,624.45c-.22.07-.24.69-.46.77-.17.07-.58-.51-.77-.46.5-.17.91-.21,1.23-.32Z"/>
  <path d="M462.86,558.44c-.27.07-1.18.28-1.23.32.45-.13.74-.24,1.23-.32Z"/>
  <path d="M619.18,709.08c.15,3.66-.34,3.81-.87,6.79.21-3.17-.13-3.29.87-6.79Z"/>
  <path d="M645.29,924.81c.77.75-.18,1.8-.14,2,.02-.84.08-1.25.14-2Z"/>
  <path d="M382.81,591.56c-.37.25-.54,1.29-.91,1.55-.09.06-.71,0-1.23.32-.22.04-.62-.54-.77-.46.7-.27.54-.92,2.92-1.41Z"/>
  <path d="M464.09,558.12c-.24.19-.27.72-.46.77-.2.06-.57-.51-.77-.46.27-.05.8-.57,1.23-.32Z"/>
  <path d="M310,624.77c-.18.05-.22.57-.46.77-.22.04-.54-.49-.77-.46.48-.17.93-.21,1.23-.32Z"/>
  <path d="M379.89,592.97c-.34.18-.53,1.27-.91,1.55-.05.04-.94.23-1.23.32-.24.07-1.17.31-1.23.32-.25.01-.57-.51-.77-.46,1.3-.54,2.73-1.18,4.15-1.73Z"/>
  <path d="M616.87,771.37c.06.82.13,2.88.18,3.24-.08-.22-.67-.23-.77-.46-.06-.14-.08-.67-.32-1.23-.01-.38.89-1.11.91-1.55Z"/>
  <path d="M526.31,532.23c-.43-.41-1.79-.57-1.32-1.3,3.43-2.72,7.59-3.33,11.22-4.85,14.26-5.96,28.6-11.1,42.86-17.02,30.3-12.58,61.41-24.24,92.53-35.62,15.39-5.63,30.59-11.72,46.26-16.55l-3-1.47c-5.81.71-11.23,4.57-17.16,4.7l5.56-2.73c2.85-.02,6.31-2.01,9.36-3.14,1.4-.52,1.2-1.95,3.63.09.18-.01-.13-1.37.5-1.76,2.54-1.57,12.77-2.94,16.63-4.26,2.94-1,5.58-3.35,8.91-3.62l-9.67,5.74-15.92,3.15,1.84,3.07,19.65-5c.18,2.16-1.59,4.56-2.03,6.43-1.06,4.48.91,5.28,1.12,6.6.11.65-2.7,2.39.18,3.24-.81,1.83-.88,1.66-2.46.69-1.24.1,2.34,13.26,2.86,14.63,2.87,7.5,12.18,23,19.25,26.59,7.59,3.85,17.66,2.13,23.63-3.85l-12.25-.44c-8-1.49-14.82-5.54-19.73-11.98-.62-.81-2.26-2.29-1.57-3.2,2.62,1.29,3.36,4.37,5.45,6.14,7.86,6.65,17.74,9.48,28.04,7.85.9-.14,1.42-1.05,1.97-1.18,1.1-.25,2.38.28,4.17-.38,1.17-.43,3.76-1.89,4.54-2.73,1.05-1.13,1.83-4.36,3.34-3.59-1.22,2.42-2.9,4.85-5.27,6.26-1.5.88-5.21,1.53-6.6,2.38-2.63,1.61-3.6,4.18-7.68,5.86-17.09,7.03-26.8-5.89-34.3-19.3-3.44-6.15-9.03-18.85-7.22-25.66.49-1.85.59-1.89.98-4.23.35-2.1.67-4.04.91-6.16.08-.71.86-1.6-.7-1.76-1.91-.21-4.98,1.83-6.62,2.33-9.95,3.07-20.24,7.89-30.1,10.48-14.66,3.85-28,10.35-42.29,16.71-4.19,1.86-11.16,4.99-14.83,4.85,3.24-2.29,6.71-2.67,10.35-4.38,1.44-.68,3.43-1.27,4.23-2.67-1.3-.71-2.13.89-2.99,1.13-.55.15-1.42-.38-2.29-.08-6.02,2.07-12.23,5.55-18.46,7.38l9.16-1.38c-2.43,1.71-5.58,2.87-8.72,3.29-2.01.27-1.48-2.74-2.5,1.46-1.62-1.22-2.13.31-3.42.7-5.42,1.63-9.36,2.51-14.25,4.63-.62-.1-.95.28-1.23.32-.16.02-.84-.65-1.23.32-.17.06-.86-.16-1.59.11-1.66.61-3.5,1.96-5.17,2.71.92,2.55,1.35,8.52,3.17,10.26.72.69,1.99.48,2.95,1.14,5.99,4.15,10.01,15.02,16.51,18.07,1.05.49,2.33.23,3.52,1.04,4.52,3.09,10.33,10.75,13.48,15.28l-1-.07c-.16.43-.54.76-.69,1.16-5.86-10.6-14.39-13.93-22.78-22.01-.85-.81-1.13-2.09-1.88-2.8-2.56-2.42-6.82-3.3-9.02-6.53.05,0,.22-.71.84-.54,2.26.61,3.34,3.18,5.35,4.19.82-.97-.68-1.84-1.33-2.6-1.05-1.23-1.75-2.11-3.09-3.15-2.4-1.87-.08,3.22-2.64.02-.73-1.69-.73,1.09-.68,1.17-.09-.2-2.37-3.5-2.55-3.64-.97-.78-2.31-1.41-3.58-1.02.21-2.05,3.28.58,3.53-1.56.1-.82-.91-3.16-1.15-4.3-.4-1.98.87-3.28-1.3-3.93-.56.92-1.47,1.61-2.42,2.1-11.36,5.9-25.05,10.92-36.81,14.94-4.78,1.63-6.48,1.27-11.02,4.45-.7-.01-.91.26-1.23.32-.94.18-2.28-.43-2.69,1.02-.8.72,1.68.59,1.78.53-2.79,1.52-11.39,6.78-14.13,6.27.94-.73,1.4-1.84,3.14-1.8l-.16-.6-2.85.4-1.09-1.69c-.75,1.02-1.76,1.65-2.6,2.64-.85-.12-1,.28-1.23.32-1.34.23-1.84-.46-2.92,1.41ZM538.07,528.21c-.3.5.48.96.77.46.3-.5-.48-.96-.77-.46Z"/>
  <path d="M737.26,464.7c.03-.27,1.1-2.48,1.76-2.09,1.05,2.44.33,5.31.7,7.72.14.9,1.51,3.69,1.8,4.74.51,1.86-.36,3.05,1.28,4.94,3.85,4.16,8.56,6.47,13.3,9.37-.19.16-.22.69-.45.71l-4.33-1.45,9.74,4.7c.98-1.25-1.36-1.81-2.28-2.39-.88-.55-1.8-1.04-2.68-1.58.19-.16.22-.69.45-.72,7.73,5.63,13.08,4.51,21.46,4.25-.34.32-.57,1.07-.91,1.55-.13.01-.7-.57-1-.07l.54.84c-7.32-.14-21.49-.95-27.16-5.8-1.99-1.7-3.23-4.61-5.45-6.13-.49,1.78,1.17,3.06,1.95,4.42.54.95,1.38,3.02-.74,1.5-2.54-5.24-5.62-10.96-7.59-16.45-.21-.58-1.04-1-1.1-1.33-.03-.19.7-2.32.9-3.51.36-2.21-.2-3.06-.18-3.24ZM737.85,470.78c-.3.5.48.96.77.46s-.48-.96-.77-.46Z"/>
  <path d="M528.32,532.37c-.17.24-.29.53-.46.77l-.77-.46c.39-.94.91-.33,1.23-.32Z"/>
  <path d="M788.12,382.02c-.53-.21-1.12-.83-1.55-.91,1.02-1.82,9.5,1.46,11.64.61.05,1.46-2.23.81-3.07.8-2.37-.05-4.72-.7-7.02-.5Z"/>
  <path d="M372.82,596.1c-.19.22-.25.57-.46.77-.25-.16-.52-.3-.77-.46.54-.21,1.01-.23,1.23-.32Z"/>
  <path d="M770.16,391.24c-.65-.06-2.51.64-3.46.57-.81-.06-1.26-1.39-2.38-1.81-1.71-.64-5.39.08-7.41-.54l-.87-.83c13.37,1.27,26.66-.76,40.02-.03l4.97-1.07c-13.74,1.46-26.6-5.81-40.41-4.03l4.97-1.06,21.38,1.49-11.89-2.84c-7.26-1.24-15.11-1.98-22.03,1.12-2.13.95-2.05,2.48-3.68,3.38-3.95,2.17-9.08,2.91-12.96,5.86-2.16,1.65-3.73,3.94-5.74,5.73-.93.82-3.39,1.71-3.82,2.41-.56.94.54,3.17-.69,4.29l-3.08-1.8-.2-3.26c-1.33,4.14-4.17,8.02-4.14,12.55.02,3.54,2.34,10.18,4.79,12.88l-2.04.85-2.37-3.98c.07,3.79,2.09,6.69,2.67,10.47l3.23,6.06c-5.87-2.4-5.76-9.22-6.67-14.38-.16-.91-1.1-1.5-1.17-1.97-.37-2.59-.49-10.76-.17-13.41,2-16.43,13.4-26.51,29.22-29.23,3.57-.61,7.85-.58,11.56-.96,3.52-.36,5.31-.22,8.43-.39,3.96-.21,8.15-1.04,12.25-.86l1.44,1.76c-1.31-.66-2.93-.41-4.35-.3-1.14.08-3.34.09-.97,1.34,2.77.24,6.84.26,9.43.83,1.07.24,2.01.92,2.53,1.02-.19.35-.43.64-.07,1l.77.46c.25.07.68-.6.84-.55,14.83,4.77,32.72,8.66,48.33,10.55,1.32.16,3.54-.46,4.53-.23.61.14-.82,2.76.56,3.46l1.38-1.35,1.37,1.86,1.43-1.21c4.07,1.34,9.85,4.37,13.53,4.34.89,0,1.07,1.49,2.06,1.76-.81,2.88-2.36-.09-4.09.66-.57.25-2.7,2.26-3.19,2.9-8.21,10.75-16.38,21.52-23.61,32.96l-2.52,9.5c2.38-3.71,7.16-7.07,9.46-10.58.78-1.19.81-2.57,1.32-3.41.68-1.12,1.99-1.97,2.79-3.6.88-1.77.71-3.88,2.14-5.48l-1.06,5.21c-.8,1.71-1.36,4.26-2.29,5.81-6.76,11.34-17.83,21.31-26,31.69-4.37,5.56-11.42,14.59-14.79,20.45-.62,1.08-3.08,6.37-3.07,7.08.06,2.45,2.78,1.58,4.13.61,1.7-1.22,2.21-1.43.82.64l-4.8,1.85-2.95-2.74c1.59-1.59,2.64-4.3,3.87-6.55.53-.96,2.28-2.54.82-3.16-1.05,1.79-2.72,3.71-4.27,5.07-4.57,4-11.65,5.22-17.39,5.11.17-.25.28-.53.46-.77,1.62-.17,3.15-.29,4.69-.89.19-.31-1.9-.91-2.55-.98,1.74-.85,2.39-1.56,4.1-.14-.46-1.75,3.56-3.27,3.73-2.54l-.75.88.85.67c.02-3.44,3.09-3.63,5.12-5.49l5.11-5.61-20.28,7.88-6.32.95,22.89-7.92c2.07-2.49,5.79-4.49,6.21-7.67l3.21-.3c-1.27,1.76-2.2,3.6-3.97,4.96,1.93.95,3.62-3.4,4.37-3.56l1.45.68.22-2.95-2.07.86c1.6-2.22,2.85-4.57,4.88-6.51l.63,2.46c6.88-6.06,13.05-13.45,17.07-21.79,1.71-3.54,1.96-8.12,4.56-11.35-1.72-.54-2.31.61-3.16,1.75-.69.92-1.01,3.3-2.36,2.3l6.85-11.61c.17.19.69.22.72.45l-1.91,5.1,7.17-10.38-5.97,4.82c-.18-.21-.72-.25-.74-.46l3.74-4.52-1.14-1.81c3.71-5.6,8.26-10.89,12.61-15.97.07-.08.7.13.96-.19.96-1.15,1.9-4.31,3.32-3.54-1.52,1.32-1.72,4.19-2.46,5.36-1.13,1.79-7.14,5.93-8.75,8.41l-3.05,5.99,9.13-7.86,5.63-7.43-2.46.64c2.03-2.84,4.94-5.25,8.11-6.69-1.13-1.26-2.13-.09-2.99-.24-5.13-.9-9.49-1.11-14.59-1.79-12.23-5.27-27.87-8.4-40.56-8.42-2.45,0-4.96-.54-7.42-.58l-1.39,1.7c-.18-.61-.53-1.16-1.12-1.42-.57-.25-10.71-.13-12.48-.09-1.97.04-3.49.07-5.36.84-.11.04-1.85-.56-.46.77ZM727.46,391.1c-3.53-.38-4.29,4.67-6.11,6.83l6.11-6.83ZM728.52,387.55c-.85.31-1.02,2.32-.14,2,.85-.31,1.02-2.32.14-2ZM724.04,396.9c-.3.5.48.96.77.46.3-.5-.48-.96-.77-.46ZM735.76,387.65c-1.83,1.27-5.58,3.69-6.93,4.95-.63.59-2.34,2.38-.88,2.96l9.81-7.78c1.02.26,1.36-.94,1.69-1.09.5-.01.78-.04,1.23-.32.34-.12,1.34.15,2.22-.2,4.98-2.01,8.97-5.26,14.14-6.32l-12.33.51c-4.07,2.48-10.05,2.87-12.18,7.46.03.2,2.59-.1,3.23-.18ZM771.68,378.06c-.3.5.48.96.77.46.3-.5-.48-.96-.77-.46ZM787.98,384.02c-.74.89-1.39,1.91.23,2.18,1.52.25,4.74.43,6.1-.53l-6.33-1.65ZM835.22,394.15l-2.32-1.37-.45.77,2.32,1.37.45-.77ZM840,394.89l-3.55-1.05-.45.77,3.55,1.05.45-.77ZM795.51,484.45l-1.83,3.09.77.45,1.83-3.09-.77-.45ZM801.17,478.4l-4.43,5.73,3.59-2.61.83-3.13ZM807.97,470.41c-.3.5.48.96.77.46.3-.5-.48-.96-.77-.46Z"/>
  <path d="M529.23,530.82c.14-.07.47.39.77.46-.36.44-.65,1.41-.91,1.55-.15.08-.5-.45-.77-.46.35-.48.58-1.05.91-1.55Z"/>
  <path d="M641.11,549.87c5.15,10.76,5.46,22.68,6.45,34.76-.36,8.38,0,16.69-.52,25.07-.04.74-1.11,2.58.46,1.84,1.68-4.18,2.25-8.73,2.78-13.19.84-7.01,1.23-14.69,0-21.68-1.43-8.05-4.21-18.65-7.34-26.3-.34-.83-.84-1.97-.46-2.83,2.09,3,2.33,2.89,3.4,6.69,2.85,10.14,6.9,21.42,6.79,32.35-.09,8.65-1.53,17.66-3.92,25.94-1.04,3.62-2.72,9.4-4,12.52-.08-.3-.71-.68-.73-1.43-.04-2.57,1.44-6.58,1.11-9.5l-.4-12.03-2.21,25.83c.7,3.46,1.93-2.16,2.22-2.87,1.44,5.6-3.34,16.56-3.96,23-.43,4.48.93,5.53-.41,10.93-.3-1.14-1.6,1.06-.46.77-.52.29-.03,3.9.04,5.24l-1-.07c-1.22,1.23-.33,2.27-.37,2.39-.9,3.09-2.29,6.22-2.48,9.5l-1.77-.52,3.27-11.67-.15-4.22c-.27,3.74-7.06,14.29-6.57,16.83.1.52,1.55.64,1.09,1.32-3.02,1.54-6.82,7.11-8.18,10.3,3.59-9.9,7.83-19.73,13.12-29.21-2.73-3.39-.02-4.39,1.09-7.59,5.84-16.91,3.3-40.01,5.22-57.84.47-1.42,2.11-1.47,2.29-3.11.59-5.16-.18-16.84-1.09-22.08-1.75-10.09-8.31-23.47-18.02-27.84.61-1.45,2.22.29,3.16.83,6.29,3.6,8.87,8.39,12.29,14.55l-.75-6.7ZM644.61,595.23c-.15.25-.1,5.68.2,5.85.29,0,.53-.03.6-.16.15-.25.1-5.67-.2-5.85-.29,0-.53.03-.6.16ZM642.56,630.54c-.3.5.48.96.77.46.3-.5-.48-.96-.77-.46Z"/>
  <path d="M531.24,530.96c-.23.12-.25.72-.46.77-.18.05-.46-.39-.77-.46.19-.23.27-.55.46-.77.28.04.51.43.77.46Z"/>
  <path d="M370.22,598.74c-.05.22-.31.59-.46.77-.24-.05-.48-.34-.77-.46.21-.07.25-.72.46-.77.18-.05.47.4.77.46Z"/>
  <path d="M368.99,599.06c-.46.15-.8.2-1.23.32.22-.22.26-.66.46-.77.24.15.51.35.77.46Z"/>
  <path d="M63.65,656.81c-2.71-.72-4.35-2.04-7.89-.73l-2.91-.42c-.64-2.02,6.1-1.36,6.87-1.47.36-.06,3.02-1.38,3.49-1.5,1.08-.26,2.86.37,4.18-.45l-3.65-4.31-.8-4.05c1.91,5.1,7.12,11.27,12.61,6.91,2.05-1.63-2.44-1.83-1.18-3.29l4.78.73-15.87-9.36c-.17-.1-.48-1.7-1.48-1.92l.45-.77c1.46.35,2.28,2.03,3.24,2.55.39.21.89-.12,1.02-.04l15.48,9.13c1.98-1.22,4.58-1.45,6.6-2.39,2.29-1.08,4.67-3.16,6.78-4.26,2.08-1.08,12.01-4.73,11.72-6.72l-2.86-2.21,4.05,1.69c1.31-1.86,3.14-.8,4.57-1.31,5-1.78,14.88-9.13,19.84-7.05,2.84,1.19,5.69,3.62,8.54,5.05,8.8,4.43,17.46,9.59,26.88,12.64l-.14,2.13c9.17,3.28,17.07,9.37,25.61,14.01.52,1.49-.76,1.55-2.07.87-3.9-2.05-7.85-4.57-11.67-6.84-13.84-8.21-28.44-15.43-43.58-21.62-3.54-1.45-7.14-5.34-11.41-3.54-3.35,1.41-7.61,4.54-11.05,5.51-1.54.43-2.82-.69-3.48.51,6.55,2.49,14.57,3.23,20.94,6.13,2.19,1,7.81,3.65,9.49,4.75.49.32.79,1.22,1.38,1.58,1.53.93,3.08,1.83,4.6,2.76.93.57,3.23,1.13,2.25,2.37l-13.54-7.99c-3.45-2.03-11.59-4.93-15.93-5.77-3.07-.6-6.47.2-9.56-1.44-3.11.45-5.26,2.62-8.15,4.01-1.3.62-2.82.63-4.25,1.35-4.16,2.09-7.4,5.7-12.4,6.62l11.96,1.85c2.32,1.22.18,1.42-.98,1.29-1.45-.16-4.25-.54-5.51-1-2.41-.89-2.61-.26-.43.88,1.4.73,2.86.72,4.31,1.41,3.14,1.49,5.99,3.45,9.37,4.53l-5.28-5.2c1.88,1.19,3.94,2.15,5.76,3.43,8.68,6.09,20.82,14.61,30.42,18.76,2.54,1.1,5.91,1.75,8.61,2.63.92.3,3.11.3,2.1,1.79-2.63-1.24-6.23-1.35-8.79-2.25-1.72-.61-2.99-1.77-4.57-2.46-.87-.38-1.98-.27-2.79-.67-4.48-2.25-7.73-6.14-12.31-8.26l7.05,8.36,1.05,2.67c-1.98-.46-2.17-2.48-3.12-3.44-3.48-3.52-9.31-8.74-13.51-11.63-2.11-1.46-3.95-1.39-5.91-2.35-3.13-1.52-5.73-3.71-9.37-4.52l2.18,3.37c-2.36-1.56-5.05-2.75-7.4-4.32-1.56-1.04-2.23-2.7-4.1-3.53-2.69-1.2-7.54-1.09-8.26,2.46l7.65,2.95c-3.06.78-6.17-2.09-9.12-2.26-1.14-.07-1.97.86-2.68,1.04-.42.11-.8.2-1.23.32-.41.12-.8.18-1.23.32-.31.1-.72.14-1.23.32-1.31.45-1.58,1.06-1.69,1.09-.29.1-.7.11-1.23.32-.72-.04-1.17.33-1.23.32ZM90.12,652.61l-2.32-1.37-.45.77,2.32,1.37.45-.77ZM135.72,628.38c-1.29-1.02-2.58-1.44-4.11-1.92-.82-.26-1.89-.81-2.22.27,1.22,1.15,2.62,1.15,4.01,1.56,1,.3,1.82,1.41,2.31.09ZM136.27,629.23c-.3.5.48.96.77.46.3-.5-.48-.96-.77-.46Z"/>
  <path d="M227.77,654.51c-.14.29-.49.65-.46.77-.05-.13-.97-.43-.32-1.23l.77.46Z"/>
  <path d="M371.59,596.42l-.06,1c.35-.08.59-.3.84-.54.26.16.76.37.77.46s-.66,1.34-.91,1.55c-.05.04-.6.11-1.23.32-.26-.03-.49-.4-.77-.46.07-.3.08-.59-.04-.88-.39-.27-.62.4-.74.42-.33.08-.48-.13-1.23.32-.25-.16-.55-.27-.77-.46,1-2.27,3.01-1.28,4.15-1.73Z"/>
  <path d="M532.47,530.64c-.21.05-.25.72-.46.77-.19.05-.48-.43-.77-.46.8-.41,1.18-.28,1.23-.32Z"/>
  <path d="M366.67,597.69l-.77-.46c.12-.04.33-.75.82-.5.17.33-.12.87-.05.96Z"/>
  <path d="M228.09,655.74c-.13.01-.37.62-.84.54-.49-.31.08-.95.06-1,.03.15.55.25.77.46Z"/>
  <path d="M607.11,517.3c.84,5.55,4.58,10.76,7.57,15.44.4.62,2.22,1.72.48,1.84-4.12-4.46-6.83-10.47-9.4-15.97-.39-.83-.09-1.96-.2-2.22.09.15,1.33.88,1.55.91Z"/>
  <path d="M228.23,653.74c3.69-.12,3.66,1.64-.14,2l-.32-1.23c.12-.25.29-.57.46-.77Z"/>
  <path d="M625.73,823.55c-1.85-2.76-1.38-2.28-2.04-5.38,1.96,2.78,1.35,2.39,2.04,5.38Z"/>
  <path d="M657.58,753.65l3.03,23.17c-1.27.73-.79-1.97-.86-2.4-.33-2.03-.41-4.22-.69-6.09-.05-.35-.85-.67-.9-1.01-.38-2.73-.28-5.96-.52-8.76-.12-1.44-.99-3.19-.97-3.36.04-.39.72-1.02.91-1.55Z"/>
  <path d="M610.83,498.62c.26-.1.67-.07,1.23-.32,4.13.68,7.81,3.13,11.82,3.85l-.53,1.77c-3.42-2.16-7.18-3.12-11.1-3.61-1.08-.13-3.24.58-2.65-1.37.23-.09.71-.13,1.23-.32Z"/>
  <path d="M365.9,597.23l-.07,1,.84-.54c.16.19.53.25.77.46l.32,1.23c-1.4.36-1.84.32-3.24.18,0-.25.64-.84-.32-1.23.2-.09.3-.65,1.69-1.09Z"/>
  <path d="M364.21,598.32c-.21.22-.3.73-.46.77-.21.05-.57-.51-.77-.46.47-.16,1.05-.24,1.23-.32Z"/>
  <path d="M612.16,491.06c-.16.25-.3.52-.46.77.01-.05-.83-.34-.54-.84.4-.32.63-.15,1,.07Z"/>
  <path d="M246.09,651.76c-.21.06-.25.72-.46.77l-.54-.84c.29-.49.96.1,1,.07Z"/>
  <path d="M151.37,681.44c-.34.09-.51-.05-1.23.32-1.29-.51-2.56-1.68-3.87-2.29l2.71-1.07,2.45,2.03c.35.41.13.63-.06,1Z"/>
  <path d="M247.78,650.67c-.36.42-.62,1.38-.91,1.55-.14.08-.59-.51-.77-.46.64-.44.44-.61,1.69-1.09Z"/>
  <path d="M534.15,529.55c-.35.47-.56,1.19-.91,1.55-.3-.03-.58-.51-.77-.46.44-.29.52-1.88,1.69-1.09Z"/>
  <path d="M356.55,604.24c-.32.09-.25.33-1.23.32.59-.45,1.18-.28,1.23-.32Z"/>
  <path d="M354.54,604.1c.15-.08.51.45.77.46-.79.61-.98.67-1.69,1.09l.91-1.55Z"/>
  <path d="M639.92,659.77s.47-.72.46-.77c-.01.05.83.34.54.84-.29.49-.95-.09-1-.07Z"/>
  <path d="M266.06,642.67l.91-1.55.77.45c-.35.42-.63,1.39-.91,1.55-.14.08-.58-.51-.77-.46Z"/>
  <path d="M623.8,688.86c-.19.46-1.21,3.37-1.51,4.33.51-1.72.89-2.63,1.51-4.33Z"/>
  <path d="M308.77,625.09c-.15.02-1,.24-1.23.32.48-.17.93-.21,1.23-.32Z"/>
  <path d="M779.24,492.59c-.06,0-.4.29-1.23.32.42-.39,1.02-.21,1.23-.32Z"/>
  <path d="M43.84,686.86c-1.9.67-3.26-.92-5.1-1.97,2.65.09,2.88.76,5.1,1.97Z"/>
  <path d="M622.3,693.19c-.48,1.56-1.12,4.4-1.65,6.33.54-2.77.89-3.75,1.65-6.33Z"/>
  <path d="M276.36,639.36c-.2.05-.25.72-.46.77-1.36-1.31.19-.69.46-.77Z"/>
  <path d="M620.2,804.63c1.34,4.6,2.49,8.84,3.49,13.54-1.8-2.55-3.54-7.85-3.9-11.15-.13-1.22-.02-1.34.41-2.39Z"/>
  <path d="M352.86,605.19c.27.02.63.54.77.46-.51.31-.46.6-1.69,1.09.38-.35.54-1.22.91-1.55Z"/>
  <path d="M277.59,639.04c-.24.16-.26.72-.46.77s-.57-.51-.77-.46c.34-.1.84-.54,1.23-.32Z"/>
  <path d="M351.94,606.74c-.65.26-.71.22-1.23.32.06,0,1.18-.27,1.23-.32Z"/>
  <path d="M652.89,786.36l3.29-41.86-1.31-12.79c.75-.84,2.59,2,2.67,2.27.18.63-.67,2.15-.48,3.07l.89,5.35c1.53-3.08,1.33-6.78,2.25-10.09.26-.94.37-3.11,1.82-2.11-.81,5.3-3.22,11.32-4.01,16.46-.35,2.29.87,4.79-.44,7l-1-.07c-1.05.63.12,1.44.09,1.61-1.53,8.99-1.3,19.65-1.16,28.84.02,1.53-.78,3.75-.74,4.46-.43-.36-1.3-.58-1.55-.91-.04-.05.03-.53-.32-1.23Z"/>
  <path d="M639.96,665.01c.24,4.56.39,4.51-1.01,8.79.18-.67-.53-5.74-.36-6.47.16-.68,1.07-1.54,1.37-2.32Z"/>
  <path d="M350.71,607.05c-.24.05-1.34,1.36-.77-.46.2-.05.52.47.77.46Z"/>
  <polygon points="347.79 608.46 348.25 607.69 348.79 608.53 347.79 608.46"/>
  <path d="M290.95,632.31c-.37.24-.55,1.32-.91,1.55-.13.08-2.23-.08-2.85.4l-.16-.6c1.39-.33,2.51-1,3.92-1.34Z"/>
  <path d="M307.54,625.41c-.48.15-1.18.27-1.23.32.49-.16.94-.22,1.23-.32Z"/>
  <path d="M70.26,654.45c.26-.06.97.51,1.23-.32l.09,1.61c-1.23.71-1.97.08-3.01-.21.22-.12.22-.61.46-.77.05-.04.97-.26,1.23-.32Z"/>
  <path d="M629.66,378.27c.04.07-.24.89.1,1.59,6.77,13.58,10.49,25.71,13.1,40.62.28,1.62.61,2.31-.68,3.78-2.38-4.68-1.94-10.32-2.93-15.32-1.77-8.87-7.05-23.58-11.13-31.58.42.36,1.33.59,1.55.91Z"/>
  <path d="M292.18,631.99c-.5.35-1.11.24-1.23.32.43-.11.76-.22,1.23-.32Z"/>
  <path d="M295.1,630.59c-.38.27-.55,1.31-.91,1.55-.24.16-1.47-.25-2-.14,1.54-1.06.69-.95,2.92-1.41Z"/>
  <path d="M614.86,771.23c-.03-.23-.27-.6-.32-1.23,0,.06.25,1.05.32,1.23Z"/>
  <path d="M620.65,699.52c-.14.52-.31,1.69-.6,2.78.11-1.6.39-1.73.6-2.78Z"/>
  <path d="M620.05,702.3c-.03.1.17.82-.14,2-.02-1.01.08-1.25.14-2Z"/>
  <path d="M296.33,630.27c-.52.34-1.16.26-1.23.32.34-.07.59-.27,1.23-.32Z"/>
  <path d="M657.09,708.49c-.31.78-1,1.52-1.37,2.32l.77.45c.27-.7,1.41-1.98,1.37-2.32-1.9,7.08-2.21,14.65-3.57,21.59-1.98,10.18-5.67,20.61-5.76,31.02-.05,6.19,1.7,19.38,4.35,24.8-.2.52.2.88.32,1.23.05.16-.37.71-.07,1l1.62-.09c.04.83,2.62,9.3,3.15,10.67,1.75,4.6,5.12,12.41,10.81,11.65-.46-1.91-1.71-3.49-2.45-5.27-.31-.74-1.54-2.67-.39-3.18,1.2,2.11,2.42,5.91,4.11,7.5,1.76,1.65,4.95,1.22,6.83,3.13l-5.9-1.25c-1.27.21-2.53.38-3.8.56-.81.11-1.37-1.1-2.01,1.09,2.41,1.1,3.47,4.28,5.63,5.5,2.64,1.49,6.48,2.3,8.98,4.18,1.84,1.39,7.97,9.26,9.89,8.94l.2-3c1.67,3.36,2.95,7.43,6.62,9.12l-2.01-.14c-.62.92.45,1.82.64,2.46.23.77-.48,2.33,1.02,2.69.72.79.59-1.68.53-1.78,2.34,2.45,3.33,2.21,3.59,6.29.06.94-.09,4.62-.77,4.69l-1.51-.78c-.21.36-.62.71-.69,1.13-.28,1.72,7.32,8.73,8.7,10.88l-4.97-15.45c4.16,5.89,5.63,12.67,8.61,19.11,4.39,9.49,9.45,15.74,11.4,26.59,2.12,11.79,3.64,32.31-5.39,41.08l1.25,1.39-1.39,2.27-1.32-1.3.47,2.47c.12.42-.59,1.44-.96,1.96-1.87,2.64-5.24,5.77-7.04,8.39-2.5,3.63-3.87,8.42-6.93,11.33-3.04,2.89-4,.62-6.25,1.2-1.41.36-3.44,2.18-5.22,2.65-3.91,1.02-13.69.04-17.42-1.39-5.05-1.94-12.37-5.6-16.76-8.8-1.06-.77-2.44-2.08-3.15-3.15-.75-1.14-.41-2.06-.47-2.15,1.84.57.47-.67.46-.77-.17-1.81-.59-2.25-1.34-3.92l-.6.16c.48.61.32,2.72.4,2.85-3.12-6.42-1.69-7.18-2.99-13.01-.53-2.36-.78-1.78-.99-4.99,0,.08.83.72.71,1.46,1.09.64.16-2.48.2-3,.2-2.25.88-5.27,1.33-7.56l-2.28,3.87c.02-.2-.48-.81-.38-1.52,1.14-7.55,7.03-18.8,12.5-23.99,1.74-1.65,13.28-5.32,15.78-4.97,2.45.34-.84,1.69-.14,1.99.12.05,1.7-.2,2.62-.03,3.9.73,7.91,1.75,11.2,4.01l-2.91,1.41c6.35,2.75,10.13,8.51,14.36,13.69,1.18-.53-.12-2.42-.4-3.18-.42-1.12-1.3-2.2-1.35-3.59l3.81,5.9c.54-.19,1.7-4.53,1.62-5.36-.09-.89-1.12-1.4-1.26-1.95-.27-1.04.85-4.09.54-5.73-.18-.96-4.66-10.78-5.36-11.74-1.65-2.3-7.7-9-9.99-9.89l-1.82,1.12c-15.72-8.25-27.48-21.48-39.79-33.7-8-7.95-15.81-11.82-18.59-23.75,2.8,4.16,4.64,8.8,8.16,12.66,2.46,2.7,5.44,5.09,8.17,7.41.39-.06.11-1.16-.09-1.62-1.54-3.68-8.67-11.48-11.49-15.41-.64-.89-.7-2.22-1.37-2.95-3.36-3.66-1.56-3.79-3.21-8.34-1.21-3.34-5.03-7.57-2.89-10.97-1.97.3-1.57-2.78-2.84.3-1.15-3.93-.75-4.33-1.09-7.92-.83-8.63-3.22-17.1-4.24-25.48.19.55.85,1.12,1.09,1.69.02.61.31,1.04.32,1.23.03.75.18.79.32,1.23.08.24-.54,1.83.77.46,1.47,10.74,7.27,32.8,12.13,42.48,1.09,2.17,7.87,13.59,9.09,14.72,1.72,1.59,4.12,2.3,5.95,3.72,2.17,1.69,3.34,4.95,6.47,5.87-.83-5.17-4.97-8.89-6.91-13.64-.3-.74-1.54-2.67-.39-3.18l11.48,20.34-1.29,1.31c-.46-1.61-1.14-2.73-2.88-2.87l.68-1.5c-4.26-.17-6.58-3.45-9.09-6.44l-2.11.82c2.46,2.48,3.86,5.82,7.6,6.57l-2.68,1.02c-.65,1.13,7.04,8.79,8.78,9.87l-1.36-6.54,3.7,1.77c-2.11,3.08,1.41,8.56,4.13,10.65,1.81,1.4,4.88,3.6,6.72,4.81,1.91,1.25,6.16,1.96,8.4,3.05,4.05,1.99,7.94,5.07,12.01,7.13l-4.83-8.27c-2.98-2.87-3.17-6.87-5.33-10.44-1.31-2.17-3.26-4.62-4.86-6.63-1.33-1.66-1.39-2.24.61-.81,2.63,3.94,5.51,7.69,7.98,11.73,3.05,4.99,6.19,12.76,10,17.11,3.26,3.73,6.34,5.12,9.06,10.13,1.55,2.87,1.81,6.11,3.17,9.02l1-8.79c.02,2.03.8,4.48.83,6.35.02,1.46-.77,2.86-.72,4.12.07,1.76.45,4.89.72,6.7-1.81-.56-.51.52-.46.77.1.5.18.76.32,1.23.69,2.35,1.46,5.14,1.51,7.81.06,3.41-.49,7.77-1.21,11.14l.18-8.25-.58-3.46-4.26,8.97-1.06-1.69c-.77,1.44-2.48,1.75-3.57,2.79-3.79,3.64-4.88,9.04-8.05,13.32l2.92-1.41c1.32.46.22,1.78-.39,2.33-.82.75-3.11.07-4.49.5-.81.25-1.42,1.17-1.94,1.29-.28.07-5.03-.38-5.71-.52-6.96-1.48-14.5-6.26-15.34-13.8-.17-1.5-.18-7.99.15-9.23.78-2.98,2.85-5.32,4.24-7.99,1.56,2.92,4.05-.36,6.7-.72,1.88-.25,4.91.13,6.55,1.24l-4.91.03-2.79.64c2.92.67,3.32.88,5.31,2.92,1.16,1.19,2.32.83.73,2.74-3.04-4.8-12.67-6.31-11.78,1.4,5.32-1.66,8.87-2.89,13.19,1.52-1.34,3.28-1.95-.42-3.84-1.11-2.82-1.03-8.09.16-8.88,3.4-.35,1.44,1.62,3.34.13,4.89l-1.72-4.15c-1.32,2.37.41,5.27,1.78,7.11.46.62,1.36.83,1.67,1.18,1.11,1.27,1.32,1.44,2.64,2.6.06.05-.16.83.67,1.44,6.74,4.99,11.77,6.22,16.28-1.88-.03-.2-1.58-.16-2-.14,1.56-1.61,4.42-6.67,4.09-8.61-.2-1.18-1.26-1.89-1.44-2.58-.17-.68.36-1.73,0-2.95-1.13-3.78-2.66-4.46-5.66-6.42-.93-.61-3.23-1.11-2.25-2.37,4.24,2.31,8.12,3.98,8.62,9.26l1.36-2.32.47,10.7c2.53-3.49,6.43-4.67,6.63-9.61-2.78-.08-2.15-4.34-5.2-5.2-.72,1.29.96,2.22,1.13,2.99.09.37.4,4.63-.84,4.48-.54-1.23-.5-3.24-1.12-4.29-.49-.82-1.53.08-1.54-.91l1.91-1.49c-3.36-2.71-5.84-7.27-9.43-9.77-2.1-1.46-7.91-.81-5.9-3.31-2.59-2.36-5.34-2-8.11-.24l5.85-.2c.7,2.48-1.33,1.14-2.26,1.29-11.05,1.71-14.98,8.62-20.02,17.91l1.65-6.33-5.02,8.51c.78,1.06,2.7-2.78,3.23-.18.37,1.8-3.85,2.21-4.28,3.73l2.46-.64c-.76,1.32-1.82,2.48-1.92,4.11-.15,2.43,4.12,12.54,5.61,14.96,3.85,6.3,10.2,10.4,16.14,14.54l-3.73-4.28c7.14,4.36,15.67,8.26,23.84,4.64,2.56-1.13,4.63-2.87,5.88-5.41,1.18-2.41.82-6.66,4.6-6.12l-.27,4.01c1.76-5.94,4.2-11.69,6-17.64.87-2.88-.75-2.97-.63-3.86.29-2.14,2.14-7.47,3.47-9.08.41-.5,1.87-2.04,2.63-1.26-.96,3.1-2.44,5.76-4.8,8.03l1.22,1.43-1.46,1.02c2.44,3.17-2.49,9.68-2.33,14.06l-4.38,11.3c3.57-6.16,7.68-11.79,10.78-18.2.78-1.6,1.93-3.85,2.54-5.29.72-1.69.8-3.62,1.57-5.29.99.4.36,2.7.19,3.56-.3,1.51-.42,2.73-1.52,4,1.18.97,1.9-1.37,2.38-2.26,2.82-5.21,4.05-13.42,3.99-19.4-.07-6.64-1.19-16.1-2.95-22.18-.78-2.69-.63-6.19-3.5-7.32,0,.95-.62,2.51-.01,3.13,1.9,1.93.75,1.58-.65.65l.27-5.02c-2.28-.47-7.88-9.88-8.02-11.03.79.69,2.02.95,2.28,2.37,2.11,1.52,1.25-.55.71-1.5-2.39-4.27-7.11-9.25-10.63-12.68l7.94,11.09c.11.3-.31.59-.3.71-1.57-1.37-4.21-3.87-5.41-5.49-.69-.93-2.03-5.16-3.12-4.66l-.94,1.31c-3.15-.86-2.29-4.65-3.67-7.12-2.01-3.61-7.69-7.1-5.09-11.48l1.78,3.15,4.81,3.35-.8-5.04-7.06-6.38c.82-1.61,1.87.32,2.57.98,1.16,1.07,2.31,2.1,3.16,3.45,1.67-1.84.2-1.62-.43-2.81-.68-1.27-1.65-4.37-2.02-4.76-1.37-1.43-4.41-2.96-5.96-4.69-.68.82,1,2.56,1.55,3.21,1,1.17,1.69,2.19,3.27,2.77-3.67,2.68-4.47-2.9-6.33-4.6-3.94-3.63-8.07-6.53-12.06-10.67-13.03-13.53-20.27-30.73-22.76-48.89-2.44-17.83,3.89-30.17,5.8-47.14.17-1.5.35-3.09-.12-4.56l-2.98,2.41c3.6-7.28,4.77-15.4,5.46-23.39,1.46-.05.82,2.23.8,3.07-.05,1.85-.79,4.68-.04,6.24ZM620.85,798.23l.79,3.07.6-.16-.79-3.07-.6.16ZM682.95,829.13l-5.73-4.43,2.84,3.53,2.9.89ZM680.52,875.7c-2.69-1.07-4.81-3.4-7.14-4.72-1.01-.58-1.38-1.29-2.61.01,1.62,1.08,3.46,1.88,5.08,2.95,1.68,1.11,2.28,3.8,4.66,1.76ZM646.71,918.87c-.3.5.48.96.77.46.3-.5-.48-.96-.77-.46ZM651.73,910.35c-.3.5.48.96.77.46.3-.5-.48-.96-.77-.46ZM655.56,907.4c-.3.5.48.96.77.46.3-.5-.48-.96-.77-.46ZM651.54,915.98l-1.83,3.09.77.45,1.83-3.09-.77-.45ZM657.52,911.16l1.29-3.67,9.64-8.65c-2.12.4-6.34,1.81-7.62,3.47-.49.64-.24,1.55-.47,1.91-1.41,2.22-5.02,4.02-2.84,6.94ZM698.46,846.79c-.11-.42-2.02-2.72-2.45-2.65l.43,5.47c1.83,1.9,2.14-2.34,2.01-2.82ZM694.77,885.14c-2.86-5.02-6.7-7.49-11.79-10.08l7.76,6.85c.86.82,2.35,5.14,4.02,3.23ZM697.73,857.15c-.3.5.48.96.77.46.3-.5-.48-.96-.77-.46ZM651.1,939.72l-.93,2.39c3.19.84,3.13,6.27,6.25,8.04l-2.99-6.77-2.33-3.66ZM665.8,916.57c-.3.5.48.96.77.46.3-.5-.48-.96-.77-.46ZM665.89,918.19c-.85.31-1.02,2.32-.14,2,.85-.31,1.02-2.32.14-2ZM652.5,951.5c-.3.5.48.96.77.46.3-.5-.48-.96-.77-.46ZM654.19,950.41c-.3.5.48.96.77.46.3-.5-.48-.96-.77-.46ZM666.06,930.28c-.3.5.48.96.77.46.3-.5-.48-.96-.77-.46ZM658.6,953.53l-3.09-1.83-.45.77,3.09,1.83.45-.77ZM668.93,932.5c-.31-.85-2.32-1.02-2-.14.31.85,2.32,1.02,2,.14ZM660.43,950.44l-2.32-1.37-.45.77,2.32,1.37.45-.77ZM696.55,885.67c-.3.5.48.96.77.46.3-.5-.48-.96-.77-.46ZM669.02,934.11c-.3.5.48.96.77.46.3-.5-.48-.96-.77-.46ZM699.73,889.11l-1.48-1.91-.6.16,1.63,2.53.45-.77ZM662.01,956.59l-2.32-1.37-.45.77,2.32,1.37.45-.77ZM663.07,953.04l-1.55-.91-.52,2.76,8.44,5.04c.99-1.31-1.35-1.72-2.27-2.36-1.61-1.11-3.1-2.54-4.86-3.02l.76-1.51ZM702.41,896.96c-.08-.22-2.09-2.25-2.64-2.6-.86.14,1.46,4.23,1.73,4.14.25-.53.96-1.42.91-1.54ZM712.05,877.08c-.3.5.48.96.77.46.3-.5-.48-.96-.77-.46ZM703.14,901.03c-.3.5.48.96.77.46.3-.5-.48-.96-.77-.46ZM701.25,916.61c-.3.5.48.96.77.46.3-.5-.48-.96-.77-.46ZM678.69,960.17c-.31-.85-2.32-1.02-2-.14.31.85,2.32,1.02,2,.14ZM682.87,963.68c-1.23-1.21-2.52-.86-3.88-1.06-1.02-.15-2.48-.94-2.9.19,1.18.67,2.56.73,3.86.96,1.01.18,2.46,1.12,2.93-.09Z"/>
  <path d="M298.33,630.41c-.65.02-1.37-.19-2-.14,1.05-.68,1.74-2.05,3.76-1.95.41.23-1.07,1.46-1.76,2.09Z"/>
  <path d="M617.36,775.83c-.05-.2-.72-.25-.77-.46-.05-.2.52-.59.46-.77.03.23.24.66.32,1.23Z"/>
  <path d="M619.91,704.3c.05,2.75-.01,2.26-.73,4.78-.12-2.85.1-2.37.73-4.78Z"/>
  <path d="M306.31,625.72c-.33.3-.57,1.07-.91,1.55-1.51-.08-2.66.32-4.08.72l-.16-.6c1.79-.35,3.44-1.08,5.15-1.66Z"/>
  <path d="M304.48,628.82c-.37.43-.55,1.11-.91,1.55-.04.05-.83-.1-1.23.32-.59.07-1.35-.14-2-.14,1.59-1.45,1.68-1.84,4.15-1.73Z"/>
  <path d="M67.8,655.09c.28.1.5.38.77.46-.38.21-.91.66-1.69,1.09.3-.17.54-1.16.91-1.55Z"/>
  <path d="M329.75,607.21c-.4.31-.72.51-1.23.32l.46-.77.77.46Z"/>
  <path d="M302.34,630.69c.65-.07.77-.18,1.23-.32.84-.25,3.44-1.09,2.53-1.63-.56.36-1.15.1-1.62.08.36-.42.57-1.07.91-1.55,1.4.07,1.43.51,2.47.97-.27-1.04.87-1.99,1.68-2.69.53-.09.97-.28,1.23-.32.52-.08.77-.18,1.23-.32.24-.07.88.22,1.62-.08.82-.34.99-1.1,1.3-1.33.04-.03.71.56,1,.07l-.54-.84c6.61-1.93,11.99-3.21,18.33-6.55,3.27-1.72,6.08-4.46,9.71-5.61l-5.24.04c-1.64.22,1.1-1.72,1.19-1.76,1.15-.5,4.28,1.74,4.56-2.68l1.28,1.31c-.44-1.17.5-1.61,1.42-2.14,5.16-3.03,10.85-4.86,16.35-6.7-.53,1.87.67.44.77.46.27.03.5.43.77.46.07,3.06-3.19,2.5-4.93,1.27l.86,2.07c-1.36.33-2.58.95-3.92,1.34.34-.3.56-1.09.91-1.55l-.38-.23c-1.63,0-1.82,1.12-2.53,1.64-.41.3-.81.33-1.69,1.09-2.41-.14-1.96.85-2.92,1.41-.75.44-.97.58-1.69,1.09-.09.07-.65-.25-.81.04s.38.67.35.74c-.18.51-.67,1.01-.91,1.55.06.4,1.11.11,1.61-.1,5.86-2.4,14.1-5.7,19.39-8.89.87-.53,1.17-.59,1.88-1.5.58.12.84-.19,1.23-.32.63.06.86-.22,1.23-.32.95-.25,3.4-1.1,2.53-1.63-.44.13-1.33.31-1.62.08-.05-.04.14-.95-.32-1.23.49-.19,1.77-.93,2.92-1.41-.56,1.81.53.51.77.46.52-.1.77-.19,1.23-.32.39-.11.65-.05,1.23-.32,1.1-.5,1.11-.73,1.69-1.09.52-.09.87-.24,1.23-.32,2.39-.49,4.05-1.48,6.38-1.98l-.16-.6c-1.34.6-2.77.51-4.08.72,4.05-2.62,10.11-4.68,14.91-5.81-.47.29-4.03,3.17-2.28,3.87.66-1.87,5.93-1.89,4.75-4.5,10.93-4.94,23.78-8.72,34.5-15.14.82-.49,1.34-1.25,1.75-2.09,1.77.77,1.74.93.63,2.47l.39.22c7.56-2.61,16.14-4.37,22.04-9.95.34-.07.94.27,1.62-.06.84-.41.99-1.12,1.29-1.35.04-.03.71.56,1,.07.08-.5-.18-.63-.54-.84.91-.71,6.04-4.45,5.97-4.82l-4.23.11c2.43-.29,3.53-2.8,5.59-.82-.62-3.14,4.42-2,4.12-4.96l1.24,1.24c4.46-5.3,11.82-5.78,17.23-9.62,1.72,1.3-.31,1.5-1.14,1.94-2.47,1.32-5.22,2-7.67,3.35-1.04.57-1.73,1.65-2.71,2.23-4.76,2.8-10.42,5.14-13.47,10.08l12.81-5.02,8.89-5.08,1.26,1.29c1.24-.05,1.66-1.44,1.92-1.55-.07.04-1.05-.38-1.62.08l-.16-.6,3.53-1.57c.28.19-1.53,1.97-1.76,2.09,8.8-3.58,18.22-7,27.08-10.77.98-.42,1.82-1.56,2.84-1.92.8-.7,1.85,1.48,2.12.82.08-.21-.3-1.22.38-2.39.22.21.59.25.77.46.09.1-.26.79-.02.93.42.07.6-.43.79-.48.44-.1.57-.04,1.23-.32,1.17-.48,1.34-.91,1.69-1.09.18-.09.71,0,1.23-.32.08-.05.61.32,1.23-.32.26.03.49.4.77.46-7.83,6.09-24.24,10.28-34.01,14.42-13.05,5.53-25.69,12.2-38.74,17.73-11.32,4.8-22.2,8.24-33.1,12.87.55-1.78-.41-.55-.77-.46s-1.8-.52-.46.77c-.28.13-.57,1.43-1.91,1.53-.59.05-1.32-1.66-2.78-.65-.42.61,3.07.19,1.09,1.67-1.99,1.49-3.81,1.14-5.15,1.67l3.14-1.8-.16-.6c-1.18.41-2.6.46-3.71.96-.78.35-1.03,1.16-1.28,1.3-.79.44-1.1.72-1.69,1.09-.5.09-.77.18-1.23.32-1.74.51-3.34,1.36-5.15,1.66l.16.6c.78-.6,3.87-.58,4.08-.72-24.48,11.48-49.53,20.67-74.72,32.14-8.66,3.94-28.07,15.46-36.19,16.15.38-.37.54-1.16.91-1.55ZM384.45,594.09l.16.6,3.07-.79-.16-.6-3.07.79ZM390.42,589.27c-.3.5.48.96.77.46.3-.5-.48-.96-.77-.46ZM404.04,587.39l3.14-1.8-.16-.6c-1.53.46-3.19.3-3.76,1.95l.77.45ZM435.6,571.06l.16.6,1.84-.48-.16-.6-1.84.48Z"/>
  <path d="M638.95,673.8c-.66,2.01-1.08,3.01-1.97,5.1.09-3.07,1.48-3.27,1.97-5.1Z"/>
  <path d="M657.09,708.49c.69-1.75,1.56-3.7,2.13-5.47.79-2.45-.03-5.8,2.79-7.28.57.34-.83,2.4-1.12,3.57-.18.74.13,1.72-.14,2.66-.63,2.14-2.36,5.03-2.88,6.98-.02-.19-.67-.23-.77-.46Z"/>
  <path d="M549.83,524.2c.19-.05.22-.6.46-.77.42,0,1.07.3,1.62-.08l.16.6c-.59.48-1.97.13-2.23.25Z"/>
  <path d="M401.24,227.96l1.82.38,2.89-4.99c3.81,2.49-1.94,7.71-3.35,11.03-4.94,11.65-9.94,23.14-15.3,34.79-2.22,4.82-3.42,11.83-5.65,16.59-1.78,3.8-5.8,7.85-7.71,13.11-7.14,19.64-15.19,39.25-22.2,58.88-1.61,4.5-2.42,9.82-4.29,14.23-.37.87-1.13,3.22-2.33,2.24,1.44-3.03,2.08-6.32,2.74-9.57.46-2.26-.07-2.28-1.04-.39-.48,4.04-2.96,7.5-4.36,10.97-4.49,11.14-7.59,23.86-12.16,34.63-1.77,4.17-4.59,7.06-6.39,10.84-5.98,12.51-10.75,26.24-16.03,39.57-2.23,5.63-8.7,24.39-11.17,27.78-2.23,3.05-2.1,2.66-3.68,6.24-7.2,16.4-14.13,32.95-19.15,50.22l-.51-4.46-1.65,1.08c-1.93,5.73-4.58,11.21-6.77,16.84-1.14,2.92-1.27,6.95-4,8.57l1.31.98c-4.76,9.92-9.27,20.66-13.91,30.83-2.51,5.5-4.52,9.5-6.15,15.13-.37,1.28-2.47,2.59-2.99,3.96l2.14-1.86.77.45-4.26,8.9c-1.71-.72-4.68.16-2.62-2.53-1.33-1.25-.97,1.73-2.46.64,2.12-5.03,3.5-10.43,5.55-15.49,2.16-5.35,5.4-10.6,7.66-15.81,7.26-16.71,13.59-34.26,22.53-50.43,2.32-4.2,4.47-8.34,6.51-12.84,10.46-23.01,18.28-47.61,28.2-70.94,3.1.99,4.03-5.86,5.12-8.53,5.02-12.22,11.15-24.06,16.14-36.32,7.21-17.7,11.96-37.55,20.7-54.57,4.15-8.08,6.48-14.89,9.78-23.51,13.78-36.03,31.04-71.61,46.28-106.65ZM310.31,449.15c-.3.5.48.96.77.46.3-.5-.48-.96-.77-.46ZM301.5,465.86c-.3.5.48.96.77.46.3-.5-.48-.96-.77-.46ZM300.68,469.03c-1.08,2.05-3.5,4.21-1.65,6.33.63-1.25.76-2.56,1.22-3.93.32-.95,1.95-1.78.43-2.4Z"/>
  <path d="M569.64,824.89c-3.14,4.2-7.59-1.48-11.06-1.36-1.15.04-1.74,1.6-3.06,1.28-2.52-.61-6.29-3.48-8.68-4.56-22.07-9.93-43.13-21.33-64.45-32.2-8.58-4.37-17.29-7.18-25.87-11.44-10.12-5.02-20.03-10.61-30.28-15.43-13.34-6.27-27.86-10.11-41.12-16.94-5.82-3-11.69-6.79-17.22-9.82-1.23-.67-3.9.07-5.12-.4-1.24-.48-1.34-2.37-2.25-2.95-5.65-3.6-15.14-6.87-21.38-9.86-8.1-3.87-23.7-13.07-31.29-14.49-5.9-1.1-14.29-6.82-20.19-9.55-5.94-2.75-12.44-5.12-18.42-7.8-6.58-2.96-13.32-5.45-19.37-9.4v-4.6s13.91,5.56,13.91,5.56c29.6,14.94,60.66,26.77,90.18,41.8,15.69,7.99,32.46,19.78,49.53,24.12,5.04,1.28,13.51,6.33,18.68,8.81,20.79,9.99,41.36,20.94,62.32,30.43,15.18,6.87,30.34,13.23,45.33,20.56,11.7,5.72,23.74,10.3,35.56,15.76,1.49.69,2.82,1.69,4.25,2.47ZM259.49,682.1c-.3.5.48.96.77.46.3-.5-.48-.96-.77-.46Z"/>
  <path d="M597.06,429.98c-.04-.25-.23-.69-.32-1.23-.01.06.66.71.32,1.23Z"/>
  <path d="M464.13,232.62c.46.95.91,2,1.41,2.92-2.87-2.44-1.67-1.54-2.96-3.83.13.23,1.1.63,1.55.91Z"/>
  <path d="M463.04,230.94c.07.12-.53.65-.46.77-.22-.4-.68-.96-1.09-1.69.21.36,1.33.55,1.55.91Z"/>
  <path d="M576.84,384.67c-3.27-2.61-8.61-7.18-10.56-10.4,4.16,2.77,8.3,5.96,10.56,10.4Z"/>
  <path d="M566.29,374.27c-3.52-2.35-5.61-3.29-8.83-6.25,1.38-.26,7.81,4.55,8.83,6.25Z"/>
  <path d="M447.78,189.59c-.07-.32-.22-.71-.32-1.23.47.44.81.49.32,1.23Z"/>
  <path d="M543.38,361.8c-.7-.76-1.33-1.53-1.87-2.14,1.7.2,1.76,2.03,1.87,2.14Z"/>
  <path d="M440.58,154.04c-.88-4.65.31-6.83.13-10.76-.04-.99-1.33-1.06-1.04-1.89.75-2.1,1.95-4.34,2.57-6.48,1.15-3.97.95-7.71,4.43-10.66,1.93,2.33-.92,4.42-1.67,6.66-.52,1.57-.26,5.41-.11,7.25.09,1.14.1,3.34,1.34.97-.07-1.43-.2-3.26.09-4.62,2.31-10.62,5.58-21.57,6.35-32.48.08-1.11-.82-7.54,1.11-4.88,1.4,1.93,1.29,10.17,1.07,12.85-1.42,16.73-10.08,32.5-7.24,49.77,2.52,15.32,7.7,34.49,12.12,49.37,1.22,4.12,6.77,21.63,8.98,23.93,3.2,3.33,10.03,7.1,12.64,9.87,1.86,1.97,3.79,11.06,5.82,14.25.71,1.11,1.8,1.62,2.9,2.21-.5,3.03-3.37-.46-3.46.56-.1,1.05,1.11,3.52,1.28,4.92.23,1.79-.13,4.36.21,5.85,1.23,5.46,7.21,13.19,6.35,18.38,1.17,1.36,2.52,2.5,3.58,4,2.72,3.82,2.86,8.45,7.92,10.1-1.04,1.35-4.06-.15-4.97-.99-1.08-1.01-4.58-10.34-5.13-10.18-1.33,3.18,1.13,6.8,2.42,9.55,4.43,4.7,9.83,8.35,15.46,11.43l-.57-3.46c2.58,4.75,5.45,9.38,9.52,12.99l-1.13,1.87c4.18,5.81,6.77,12.81,10.38,19.01,6.29,10.82,16.91,16.69,25.52,24.59-3.7.69-11.34-7.81-14.29-10.42-1.89-1.68-3.72-3.53-6.01-4.68l4.37,6.75c-8.4-9.69-9.54-13.9-15.38-24.58-2.54-4.65-9.41-17.52-12.96-20.28-4.8-3.73-12.54-6.84-15.89-12.31-2.64-4.3-3.64-8.5-2.84-13.38-.37-.43-1.38-.86-2.13-1.73-5.9-6.84-4.78-17.42-9.13-23.92-1.17-1.75-2.97-3.13-4.16-4.83-3.35-4.76-6.33-9.93-10.49-14.03,1.13-1.72,3.36,1.85,3.98,2.58,4.51,5.36,8.85,11.9,12.74,17.71l.13-4.63c-1.76-9.64-11.9-15.9-18.64-22.1-1.04-.96-.85-1.97-1.21-2.64,1.11.94,2.11,2.07,3.06,2.82.74.58,2.56,2.27,3.12.83-2.25-3.38-4.31-4.51-7.6-6.57-.48-.98-.89-1.32-1.09-1.69-.31-.57-1.01-3.59-1.63-2.53.46.58.04,1.55.08,1.62-7.49-13.11-16.79-32.94-17.97-48.19-.13-1.67.73-4.85.51-5.71-2.08-8.01-4.43-12.97-3.45-22.07.04.19.52.68.68,1.44.34,1.64-.17,4.11.21,5.88l1.74,4.14.1-27.58-1.55,4.34c.12,3.98-.76,7.95-1.18,11.79ZM447.46,188.36c-.38-.36-1.07-.57-1.55-.91-.44.07,0,2.6,1.02,2.68.5.15.62-.21.85-.54,1.46,7.08,3.93,16.79,7.1,23.43,2.46,5.16,6.26,9.54,8.38,14.9l1.38.3c-.27-.8-.33-1.68-.6-2.47-2.14-6.28-5.36-12.29-6.84-18.57-.53-2.24-.43-4.44-.9-6.34-3.91-15.63-8.8-31.05-10.87-47.07l-.54,7.36c.54,9.1.84,18.33,2.58,27.22ZM445.83,185.83c-.3.5.48.96.77.46.3-.5-.48-.96-.77-.46ZM446.64,191.53l.48,1.84.6-.16-.48-1.84-.6.16ZM471.42,237.96l10.32,10.79-1.59-5.49-8.73-5.3ZM472.59,241.27c-.3.5.48.96.77.46.3-.5-.48-.96-.77-.46ZM489.05,277.06l.48,1.84.6-.16-.48-1.84-.6.16Z"/>
  <path d="M543.38,361.8c5.59,5.62,16.58,10.41,23.43,15.94,3.9,3.15,7.76,7.31,11.36,10.85l-1.33-3.92,11.13,13.86-1.48-4.87-3.14-4.11,2.16,1.09c3.46,5.27,6.01,11.63,8.25,17.56,3.64,9.61,6.6,19.38,6.78,29.75.11,6.09-.6,12.35-1.28,18.38,1.48,1.04,1.27-1.13,1.45-2.02.32-1.57.8-3.08.43-4.71l1.38.96-4.52,23.81,4.52-4.07,3.1-7.08,1.76,2.17c-1.45,4.26-2.11,6.03-5.85,8.68-2.36,1.67-3.93.72-3.86,5.31.02,1.27,2.63,7.55,1.04,7.93-1.48-.5-1.21-1.7-1.99-2.8-.15-.21-1-.15-1.22-.62-.21-.44-.35-8.71-.24-9.79.69-7.19,5.21-20.41,3.85-27.24-1.25-6.29-1.22-11.08-2.05-16.86l1.95,3.76c-.78-2.13.17-4.71-1.35-6.54-.23.52-.82,1.11-.92,1.55-2.35-14.9-6.86-25.99-17.42-37.18-4.63-4.9-12.11-12.14-17.52-15.82-5.94-4.04-12.59-6.38-17.64-11.87-.67-.73-.7-1.99-.78-2.08ZM579.89,390.12c-.3.5.48.96.77.46.3-.5-.48-.96-.77-.46ZM580.98,391.81c-.3.5.48.96.77.46s-.48-.96-.77-.46ZM598.9,458.71c-.3.5.48.96.77.46.3-.5-.48-.96-.77-.46Z"/>
  <path d="M179.81,712.82l-3.52,13.05c-1.73.67-.37-1.14-.15-1.92.59-2.19.94-5.86,1.39-7.25.39-1.22,1.75-2.58,2.28-3.87Z"/>
  <path d="M177.53,716.69c-1.53,4.26-3.25,8.56-4.89,12.77l1.14.66c-5.65,5.21-5.05,13.63-7.86,20.41,1.89,1.39,1.23.73,2.23-.2.9-.84,2.04-1.52,2.61-2.64,1.18-2.32-.05-6.06,2.33-7.55l-3.69.95,5-4.86-1.15-1.79,2.86-2.96-2.14,1.86-.77-.45,1.74-4.72,2,.15c1.89-6.07,4.36-11.94,6.23-18.02,1.3-4.22,1.57-8.11,3.61-12.74.73-1.65,2.01-3.07,2.75-4.65.77-1.64.94-2.99,1.5-4.32.37-.87,1.14-3.22,2.33-2.24-2.07,2.63-2.22,6.04-3.29,9.05-5.48,15.5-12.06,32.57-16.74,48.29-.25.83-.98,2.54.13,2.92.51-2.07,2.18-2.74,3.28-3.86.49-.5-.84-.71-1.04-1.27-.76-2.16,2.82-6.4,3.7-8.54,6.03-14.64,10.81-31.5,15.91-46.76.49-1.46.38-3.71,1-4.86.65-1.2,2.68-1.9,2.64-.01-.03,1.45-2.35,5.67-2.93,7.97-2.21,8.73-5.69,17.81-7.81,26.95l-6.4,14.45,2.45-.64c-1.03,2.39-1.54,6.15-2.73,8.31-3.36,6.09-8.96,15.53-16.18,16.6l-1.99,3.45.14-2.01c-3.41.09-6.08,2.2-7.1-2.1-1.12,2.38-5.31,1.57-6.79,2.93-1.33,1.23-2.23,3.28-3.79,4.39-2.2-2.74,3.34-6.51,5.24-8.94,1.21-1.54,2.01-4.17,3.22-5.31,2.43-2.28,2.09,2.46,2.33,3.92.55.47.83-.42,1.09-.93,1.69-3.36,5.6-16.16,6.34-20.01.3-1.57.35-3.01-.22-4.53l2.23-.25c-1.09,4.79-1.39,10-4.2,14.21l2.45-.64-2.06,7.1,3.28,1.45,5.57-25.06,12.27-31.71,1.41,2.91c1.41-.61.4-6.87,3.52-4.19l-8.46,23.18-1-.07c-1.76,1.79-1.09,3.41-1.28,3.94ZM182.79,698.93l-2.74,4.64.77.45,2.74-4.64-.77-.45ZM153.75,751.7l-1.37,2.32.77.45,1.37-2.32-.77-.45ZM159.3,752.89c-.16.04-.57,1.09-.91,1.55.1.48,2.63-.19,2.46-.63-.52-.24-1.38-.96-1.55-.91ZM164.05,748.39l-2.74,4.64,1.55.91,1.96-5.1-.77-.45ZM177.77,739.27c-.3.5.48.96.77.46.3-.5-.48-.96-.77-.46Z"/>
  <path d="M511.98,262.94c1.48,3.68,6.52,7.78,9.11,11.1,2.28,2.92,5.9,7.22,7.73,9.84.39.57,1.8,3.63,1.76,4.12-.46,1.22-.83,1.44-1.81.47-4.44-4.41-5.95-11.87-11.02-15.86,1.14,4.82,4.4,11.83,7.36,15.82-.26-.71-2.25-.84-2-.14-.24-1.09.08-1.72.03-2-.02-.12-1.17-.02-1.69-.54-1.77-1.77-4.47-12.51-6.1-15.48-.75-1.36-3.15-4.67-4.28-5.79.14-.48.68-1.02.91-1.55Z"/>
  <path d="M474.92,129.44c-.01.41-.9,1.13-.91,1.55-.2-.87-.7-3.54.2-3-.12.73.71,1.37.71,1.46Z"/>
  <path d="M430.23,88.46l-.91,1.55c.05-.18-.62-.6-.55-.84l1.46-.71Z"/>
  <path d="M436.58,72.39l-3.83,2.96c8.9,7.44,5.18,19.91-2.56,26.98-3.12,2.85-8.67,3.89-9.2,8.86l-.25-2.23-3.99,2.34,3,.2c-2.73,3.32-8.84,4.57-12.7,2.91-4.19-1.8-11.09-7.26-13.95-10.8-4.98-6.15-12.03-26.23-9.16-33.78.53-1.4,1.85-1.64,2.41-2.56.6-.99.24-2.85,1.3-3.92l-3.51,4.19c1.75-5.07,3.03-13.33,7.08-17.05.58-.53,1.71-.46,2.36-1.04,4.3-3.86,6.95-5.77,11.4-9.24,1.61-1.25,2.86-3.48,4.74-4.52.91-.5,6.93-2.11,7.31-.92-2.18,1.47-5.43,1.03-7.47,2.84-.96.85-2.66,2.57-2.27,3.93,1.41-.99,3.78-.28,4.78-.54,5.41-1.42,8.38-2.02,14.38-1.49,6.21.55,11.6,2.22,17.31,4.77.79-.78-.74-2.19-1.26-2.62-3.9-3.19-7.07-2.38-11.36-4.35l-11.47.06c1.35-.3,4.27-2.23,5.12-2.25,11.57-.27,20.37,6.22,26.83,15.34,1.89,2.67,3.28,6.3,5.36,9.18,3.03,4.17,7.34,8.42,10.04,13.1,3.17,5.5,5.25,14.97,8.17,20.21,4.31,7.74,10.59,15.56,13.92,23.97,4.94,12.52,2.3,24.89,1.18,37.76l-2.07-.13c-4.59,7.34-4.39,16.22-3.42,24.51,2.86,4.32,5.21,10.22,7.99,14.35,3.36,4.98,7.41,9.71,10.35,15.05,8.3,15.04,6.52,22.16,7.15,38.19.14,3.65.52,13.37,1.7,16.3-.72-.69-1.76.61-1.69,1.09-1.41-7.54-1.95-16.67-2.34-24.33.37.17.59.43,1,.07.29-.5-.55-.79-.54-.84.17-1.28.59-2.04.59-3.76-.04-17.98-7.25-26.52-17.14-40.2-1.54-2.13-2.03-5.75-3.36-7.66-1.12-1.61-2.77-2.43-3.85-4.26-2.13-3.64-2.55-13.5-2.17-17.81.85-9.56,7-17.62,4.75-27.47l-2.07.86c.41-2.04.59-4.96.45-7.01-.26-3.82-1.28-7.19-2.03-10.61-.27-1.23.32-3.08-.51-4.48-1.25-.04-1.6,2.15-1.89,3.11-1.46,4.9-.96,11.74-3.67,16.04-.61.97-.62-1.54-1.54-.91.53,1.9-.44,4.16-.28,5.98.19,2.15,2.1,4.5,2.34,7.27.29,3.42-.77,7.76-.76,11.35.02,10.4.85,19.84,4.18,29.76l-1.86-2.14c-.29-4.6-2.27-9.37-2.82-13.71-.47-3.72-.63-9.65-.76-13.58-.12-3.55.25-7.98.43-11.6l-2.07.86c.12-2.34-.66-5.65-.64-7.71.05-3.3.72-6.51,1.04-9.78.07-.75.08-1.44.14-2,1.02-10.5-1.63-15.23-1.57-24.67-3.15-3.16-5.23-14.68-7.67-19.87-.78-1.65-2.04-3.51-3.46-4.69,1.73-1.94,2.54,3.07,3.78,3.3l1.7-1.11c1.73,7.09,3.37,14.03,6.63,20.6l.25-4c-2.82-3.07-.99-6.75-1.69-9.41-.6-2.28-2.9-4.82-3.77-6.9-3.29-7.93-3.87-10.58-9.22-17.97-2.83-3.91-5.85-8.32-8.83-12.16-6.49-8.36-17.29-10.68-27.44-11.23-3.46-.19-16.63,1.38-18.7,3.71-.42.47-.22,1.42-.86,1.91-2.14,1.64-5.03,1.8-6.04,5.84l1.78.51c-2.63,1.46-4.85,4.83-5.6,7.55l-1.8-.4c-1.64,2.78-2.12,6.48-1.18,9.18.09-.42.72-1.08.92-1.85.38-1.48-.31-3.12.73-4.48l-.02,8.86c-.76.2-1.43-1.93-1.63-2.53-2.66,12.78,3.29,34.98,19.26,35.23,6.16.1,10.55-2.41,14.59-6.88,1-1.1,1.09-3.33,3.72-3.59.46-.69-1-.8-1.17-1.3-.23-.69,1.43-2.2,1.67-3.09l1.46-.71c.07-.25-.59-.66-.55-.84.23-.92,1.44-2.07,1.82-3.1l-.77-.45-2.14,1.86c1.73-1.93,3-3.63,3.65-6.19-.18,1.63.3,4.1-.02,6.24-.83,5.52-2.13,10.98-5.52,15.53l4.07-3.29c4.5-7.49,8.05-12.46,2.38-20.03-.42-.56-.2-2.4-2.72-1.61l1.31-1.3c-3.94-2.48-9.81-6.34-14.59-4.41-.85.34-5.21,3.08-5.63,3.59-.71.88-.48,3.42-1.79,4.52-2.23-5.26,6.96-12.76,11.95-9.65l-.64-2.46c4.24,2.72,7.93,4.92,12.98,4.52.5-.04,1.85.18,2,.14ZM385.01,69.61c-.3.5.48.96.77.46.3-.5-.48-.96-.77-.46ZM392.77,56.46c-.3.5.48.96.77.46.3-.5-.48-.96-.77-.46ZM397.79,47.94c-.3.5.48.96.77.46s-.48-.96-.77-.46ZM387.46,87.03l-.36-4.17v5.25c1.95,4.24,3.48,8.32,6.21,12.18,5.07,7.19,11.94,15.06,21.44,10.87-.49-.83-2.53-.53-3.4-.46-4.56.33-6.58.44-10.44-3.18-1.18-1.11-1.3-2.92-2.19-4.03-1.26-1.57-3.09-2.81-4.49-4.75-2.57-3.56-3.91-8.28-6.77-11.71ZM401.82,103.01c-.31-.85-2.32-1.02-2-.14.31.85,2.32,1.02,2,.14ZM418.49,106.58l-10.91-.35-5.43-2c3.62,2.42,8.78,4.51,13.2,4.11,1.3-.12,2.65-.36,3.15-1.76ZM408.65,109.12l-4.32-1.51-.45.77,4.32,1.51.45-.77ZM411.38,113.34c-.3.5.48.96.77.46.3-.5-.48-.96-.77-.46ZM421.78,102.78c-.3.5.48.96.77.46.3-.5-.48-.96-.77-.46ZM424.61,99.76l-1.37,2.32.77.45,1.37-2.32-.77-.45ZM428.95,92.4c-.3.5.48.96.77.46.3-.5-.48-.96-.77-.46ZM475,108.09l.79,3.07.6-.16-.79-3.07-.6.16ZM478.05,104.68c-.3.5.48.96.77.46.3-.5-.48-.96-.77-.46ZM478,108.3l-.68,21.5,1.44-8.25c1.98-5.25,3.51-8.75-.76-13.26ZM479.15,106.36l1.57,3.53.6-.16-1.57-3.53-.6.16ZM475.8,113.79c-.3.5.48.96.77.46.3-.5-.48-.96-.77-.46ZM482.88,110.65l1.57,3.53.6-.16-1.57-3.53-.6.16ZM486.41,120.57l2.2,14.85c.7-.53.66-2.57.69-3.46.07-2.72-.25-5.67-1.09-8.25-.41-1.28-.18-2.61-1.8-3.14ZM475.58,146c-.3.5.48.96.77.46.3-.5-.48-.96-.77-.46Z"/>
  <path d="M508.41,238.92c.02.24-.47.52-.46.77-1.88-.87-1.65-4.64-3.79-5.91l-1.93-7.38,6.18,12.51Z"/>
  <path d="M474.78,131.44c-1.27,1.33-.68-.03-.77-.46,0,.16.73.26.77.46Z"/>
  <path d="M524.66,289.2c-.07-.02-.81.86-1.54.11-.5-.41.02-.86,0-1.02.03.09,1.45.93,1.55.91Z"/>
  <path d="M433.7,79.04c-.2.52-.87,1.17-.91,1.55.04-.15-1.14-1.01-.09-1.61l1,.07Z"/>
  <path d="M525.11,288.42c.25.34,1.12.54,1.55.91l-.45.77c-.54-.21-1.08-.79-1.55-.91.04,0,.47-.73.46-.77Z"/>
  <path d="M511.06,264.48c-.17.56-.12,1.07.08,1.62l-.6.16c-.46-.71-.15-1.66-.25-2.23.02.15.54.23.77.46Z"/>
  <path d="M434.58,72.25c-2.36-.57-3.56-3.32-5.29-4.19-2.41-1.21-8.88-2.04-11.63-1.64-5.77.84-8.09,10.3-8.78,10.49-.23.06-1.64-1.09-2.32-1.37l2.02-3.48.55-4.4c-1.64,4.08-5.07,9.21-2.73,13.5.27.49,3.03,4.2,3.27,4.4.2.16,4.27,1.71,4.88,1.88,4.75,1.31,5.35-12.11,6.4-13.31,1.42-1.61,2.35.49,2.45,1.99.47,6.56-3.97,15.54-11.59,13.55-1.97-.51-7.24-5.88-7.91-7.87-.67-1.99.56-9.56,1.56-11.57,2.42-4.83,11.07-9.51,16.47-10.11,5.41-.6,6.77.63,11.25,2.92.8.41,1.97.19,2.78.66,3.82,2.23,10.63,14.07,12.04,18.53.86,2.74.26,5.34,2.04,8l-2.63-2.6c-1.86-9.46-8.26-22.87-18.39-25.51-1.84-.48-7.19-.4-9.22-.12-.9.12-3.48.31-3.55,1.5,2.45-.31,5.02.11,7.4.7,4.34,1.06,12.19,3.67,14.42,7.47,1,1.7-.19,1.92-1.48.71.27-.07.34-.73.07-1l-1.94-1.14-.13,2.01ZM421.68,78.21l-1.96,5.1.77.45,1.96-5.1-.77-.45Z"/>
  <path d="M674.08,672.61c1.19.95-.53,2.39-1.05,3.55l-.54-.84,1.6-2.71Z"/>
  <path d="M696.88,547.3c4.12,8.32,4.68,37.81,3.09,47.44-1.16,7.05-4.22,14.1-5.77,21.18-2.01,9.15-2.39,19.1-6.28,27.87-1.4,3.16-4.06,6.13-5.4,9.27-2.04,4.79-2.63,13.17-4.55,18.24-.3.78-1.56,3.99-2.79,3.02.6-3.09,2.09-6.04,2.97-8.97.25-.82.98-2.54-.13-2.92l-3.93,10.2c-.28-.1-.5-.38-.77-.46.77-2.04,2.69-5.74,1.33-7.56-.98,3.16-4.8,4.94-6.39,7.25-1.09,1.59-.82,4.58-2.61,6.22l-.71-2.11,7.98-15.51,1.86,2.14c5.15-8.73,7.86-19.32,10.15-29.19.86-3.73,1.12-6.1,1.78-9.65.54-2.91,2.23-5.79,1.77-8.99,1.06-2.22,1.29-1.68.93.41-.4,2.34-.37,4.52-1.21,6.89s-.48,2.8.84.44c2.1-5.24,2.28-10.68,3.34-15.99.16-.79.84-1.43.92-1.85.35.93.17,5.3,1.63,2.53.53-4.96,2.31-9.69,3.18-14.6,1.07-6.05,1.31-13.78,1.01-19.95-.42-8.6-3.37-16.91-2.23-25.35ZM691.73,621.47l-3.12,10.97-.45,5.69c1.95-4.36,2.6-9.12,3.68-13.74.22-.94,1.07-2.49-.1-2.92ZM678.7,661.25c-.3.5.48.96.77.46s-.48-.96-.77-.46Z"/>
  <path d="M673.03,676.16c4.32.42,1.04,2.1-.04,3.66-1.1,1.6-1.96,3.35-2.98,4.99l.14-2.01c-2.09-.62-2.86,1.62-4.2,2.78-1.75,1.52-3.13,2.33-4.77,4.44-1.35,1.74-1.24,2.38-1.94,3.56-.28.48-1.65,2.01-2.4,1.18,1.39-2.13,2.48-4.49,3.86-6.63.77-1.19,2.11-1.76,2.62-2.6.89-1.47-.25-3.67.96-5.15l1.41,2.91c1.64-2.67,3.14-5.45,4.79-8.12.69-1.11,1.34-3.44,2.83-3.03-.96,2.56-2.58,5.68-3.79,8.2l3.32-2.78c.35-.41.07-1.12.19-1.4Z"/>
  <path d="M693.3,604.66c-.1-.28-.95-1.75-1.08-1.69l-1.69,1.09c1.03-3.02,1.93-6.97,2.32-10.12.76-6.01.93-15.1.46-21.12-.23-2.88-1.13-6.24-1.61-8.75-.47-2.48.17-7.07-.44-9.42-1.06-4.1-5.09-10.16-6.93-14.29-1.5-3.39-2.45-8.72-4.59-11.28-3.08-3.68-8.07-7.62-11.57-11.45-6.25-6.84-11.44-12.49-18.01-18.98-2.58-2.54-3.87-5.54-7.76-6.46l-1.4,1.28c-1.75-2.32-.53-3.21,2.07-3.45,3.14-.29,5.09,1.36,7.64,2.91l-3.3-.75c-1.89-1.79-1.17.9-.63,1.43,1.67,1.63,4.55,2.1,5.83,4.38l4.92,1.05-7.74-4.57,2.86-.45c5.44,4.85,12.06,8.47,16.74,14.09l.59-2.77c2.73,7.31,8.98,11.19,13.88,16.76,5.41,6.14,14.12,17,13.02,25.19-2.12-4.29-2.31-8.29-5.32-12.74-2.89-4.27-6.81-8.4-9.99-12.52l-5.02-3.96c1.06,4.02,4.85,6.45,6.51,10.13,1.87,4.17,3.04,11.11,4.64,15.21,1.14,2.92,4.36,6.95,5.25,10.13,1.01,3.65,1.68,10.22,2.22,13.83,1.73,11.67.32,25.62-1.86,37.26ZM655.07,499.68l-.91,1.55,3.87,2.28.45-.77-3.41-3.06ZM673.82,513.87c-4.9-4.09-8.79-9.55-14.43-12.68.9,5.19,6.92,9.42,11.27,11.86.95.53,2.55,2.28,3.16.83ZM675.09,518.79l-4.18-3.51-.45.77c1.73.82,2.44,2.77,4.19,3.51l.45-.77ZM676.91,524.56c-.3.5.48.96.77.46.3-.5-.48-.96-.77-.46ZM679.23,525.93c-.3.5.48.96.77.46.3-.5-.48-.96-.77-.46ZM680.32,527.62c-.3.5.48.96.77.46.3-.5-.48-.96-.77-.46Z"/>
  <path d="M131.88,744.54c.25-.68-.32-5.67,1.73-4.71-.57,3.03-.54,6.26-1.48,9.24-.9,2.86-2.32,6.19-4.55,8.06l3.41,3.05c2.77-2.07,5.04-4.78,7.73-6.93,1-.8,2.25-.92,2.92-1.41.91-.67,1.35-1.53,2.07-2.14.76-.65,1.63-2.15,2.61-1.33-.94,3.46-3.97,3.96-6.05,5.79-1.62,1.42-3.14,3.02-4.75,4.48-1.13,1.03-1.97,1.28-.12,2.07,1.36-.06,1.94-.91,2.85-1.69,6.53-5.62,11.56-13.29,16.8-20.11,1.04.23.4,2.45.19,2.89-.43.88-1.7,1.48-2.4,2.55-2.68,4.09-10.87,16.31-15.11,17.73-1.76.59-4.72-.06-6.92,1.15-2.87,1.58-8.27,5.61-11.13,7.72-2.1,1.55-3.52,5.2-7.04,4.49l5.2-5.28-5.37,2.04,6.11-6.82-4.69.89c1.66-.67,3.28-2.23,4.29-3.69,3.38-4.87,5.86-20.26,6.89-26.77,1-6.28.99-12.75,2.32-18.97,1.31-.08,1.12,2.18,1.13,2.99.14,11.25-4.44,27.13-6.53,38.43-.19,1.01-1.09,2.46.1,2.93,2.32-5.37,7.89-11.42,9.82-16.64ZM119.65,767.06c-.85.31-1.02,2.32-.14,2,.85-.31,1.02-2.32.14-2ZM129.31,761.28l-2.3-2.32c-1.62-.91-4.53,5.44-6.45,6.54.45,2.37,8.95-3.53,8.75-4.23Z"/>
  <path d="M106.39,725.85c.86.82.97,2.24.94,3.37-.28,8.82-5.64,31.29-8.8,39.67-1,2.66-2.94,4.71-3.32,7.75,8.58-.6,16.52-12.31,17.84-20.02,1.09-6.42.58-14.09,1.5-20.73.45-3.3.88-7.1,2.33-10.11,2.51,1.01.97,1.26.46,2.82-1.21,3.65.37,3.32.42,4.6.07,1.57-.81,3.83-.91,5.38-.57,9.66-1.24,19.32-5.45,28.31l1.77.52c.15.55-4.71,3.68-5.68,4.69-1.22,1.26-4.11,5.92-5.25,6.45-.28.13-1.92-1.21-2.38.83-2.08-.71-1.84-1.91.37-2.4l-.77-.46c-3.8,1.54-5.4,2.79-7.11,6.77l-1.86-2.14c-4.55,5.21-10.47,7.89-17.26,5.51l.17-3.07c.95,1.51,4.29,2.6,5.82,2.21.61-.16,1.51-1.46,2.46-1.89,5.88-2.66,11.95-4.75,13.83-11.61,3.66-13.41,5.71-28.69,8.95-42.34l1.95-4.11Z"/>
  <path d="M448.16,59.56c.07.35-.45,1.94-.4,2.72l-9.87-8.92-7.02-3.13,2.18,3.37c-1.44-.73-2.75-1.85-4.25-2.47-1.83-.75-7.85-2.45-9.47-2.26-.6.07-4.91,2.15-5.63,2.2-.7.05-.76-1.3-1.53-.95.56,3.21-3.74,4.07-5.62,6.31-1.34,1.6-5.01,6.23-5.93,7.77-.87,1.48-.51,3.37-1.67,4.75-2.61-4.95,4.35-10.76,7.75-14.5.93-1.03,2.59-1.8,3.3-2.69.92-1.16.56-2.59,1.08-3.19.34-.39,8.29-1.6,9.45-1.55,4.2.19,12.62,2.56,16.29,4.57,2.43,1.33,3.57,3.29,5.7,4.53,1.72,1,5.19,1.29,5.64,3.42Z"/>
  <path d="M819.35,436.96c-1.24-.98-1.8,1.33-2.37,2.25-1.41,2.29-2.65,4.68-4.12,6.92l-4.05,3.39c3.9-5.11,8.34-11.12,11.09-16.97,1.57-3.34,1.13-7.52,4.11-10.57l-.74,4.78c1.66-1.4,1.46-4.19,2.22-5.47.42-.71,1.46-1.25,2.12-1.95,1.12-1.18.58-2.67,2.68-.95-1.1,1.58-1.85,3.53-2.95,5.08-.81,1.14-2,1.76-2.6,2.63-4.45,6.4-3.98,13.05-8.66,19.87-4.89,7.11-10.23,12.05-16.26,18.38-6.12,6.42-14.86,11.41-23.25,14.16.03-.97,1.96-1.68,2.75-2.05,4.02-1.88,6.07-3.12,9.72-5.57,9.92-6.64,19.91-16.44,26.77-26.16,1.39-1.97,1.68-5.79,3.52-7.76Z"/>
  <path d="M79.41,661.94l-.45.77c5.56,2.48,10.95,5.99,16.33,8.64,10.03,4.93,22.25,9.1,31.56,15.43,1.37.93,2.64,1.2,2.77,3.22l-6.87-2.49,4,.28c-2.25-1.15-4.34-2.8-6.59-3.93-10.93-5.51-22.82-9.91-33.54-15.52-4.25-2.22-8.02-5.72-12.85-6.58-.61-1.42,1.96-.72,2.45-.67,1.92.17,4.02.96,6.02.45l-2.85.4Z"/>
  <path d="M628.43,505.67c.33-.04,1.01-1.84,2.48-.52l.14-1.91c1.44-.51,13.32,11.25,14.99,13.53,1.11,1.51,3.27,3.87,1.8,5.77l-2.16-1.38c1.16-2.38-2.58-6.1-4.47-7.73-.7-.61-1.87-1.7-2.37-.37l6.82,6.12c-.23,1.16-3.08-.11-3.45-.35-2.33-1.47-5.27-6.51-8.47-7.74l4.32,1.51c.79-.77-.75-2.21-1.26-2.62-2.18-1.77-4.77-2.91-7.11-4.4l2.96,3.83-6.96-4.11c.65-1.62,1.61.51,2.75.38Z"/>
  <path d="M153.53,702.54c2.27.81,1.04,1.22.99,2.67-.18,5.75-.88,13.16-1.67,18.83-.86,6.19-2.37,12.24-4.89,17.99-2.16-.8-1.17-1.13-.99-2.67.31-2.7,1.12-4.84,2.45-7.22l4.11-29.6Z"/>
  <path d="M797.06,426.97l-1.3-1.31c13.48-4.78,25.79-12.66,39.95-15.55l-2.6,2.63c-17.55,3.59-32.39,13.8-48.24,21.6-.22.11-3.49,1.17-2-.11l14.18-7.26Z"/>
  <path d="M70.38,670.17l-.63-2.46c1.6,2.47,4.07,1.73,6.27,2.68,8.49,3.67,16.74,8.33,24.88,12.52,2.78,1.43,5.37,3.4,8.14,4.85l-6.73-1.92c-10.06-5.55-19.93-11.12-30.76-14.96-3.62-1.28-7.7-1.78-11.16-2.63-.53-.13-3.42-2.39-4.18-2.97-.68-.51-2.13-.13-1.44-2.24,4.76,3.88,10.51,4.31,15.62,7.12Z"/>
  <path d="M678.57,613.7c0-.17-.73-.26-.77-.46,1.21-1.29.68-.23.77.46Z"/>
  <path d="M678.54,608.46c1.13-2.35.87-3.2.75-5.77l2.16-7.12-2.14,13.35c-.02-.19-.67-.23-.77-.46Z"/>
  <path d="M679.31,608.92c1.26,2.07-.92,1.95-1.37,2.32.26-.7,1.4-1.98,1.37-2.32Z"/>
  <path d="M678.54,608.46c-.39.8-.96,1.53-1.37,2.32-1.58-1.51-1.18-5.53.1-7.25l-2.54-.97,2.31-.72.21-12.4c1.52-.02.75,2.24.78,3.08.11,3.66-.73,13.28.52,15.94Z"/>
  <path d="M677.17,610.79c.21.2.55.27.77.46-1.01.83-.12,1.9-.14,2-.09.44-.71,1.01-.91,1.55l.77.45c.2-.51.91-1.22.91-1.55.28,2.01.15,4.85-2.2,5.5l1.77.49c-2.99,5.18-2.56,12.48-4.49,17.91-.64,1.81-1.48,3.82-3.82,3.29,1.44-3.87,3.86-9.35,4.5-13.3.87-5.37.2-11.68,2.83-16.81Z"/>
  <path d="M822.33,423.06c-3.43,4.46-9.31,5.62-13.99,8.09-3.58,1.9-7.26,4.44-10.79,6.48l-6.92,1.15,8.87-3.78,8.98-5.88,13.86-6.06Z"/>
  <path d="M566.63,357.77c-2-1.73-4.23-3.5-6.51-4.89-.53-1.4.74-1.59,2.07-.87,1.83.99,4.47,1.77,5.63,2.52,3.2,2.06,11.38,10.73,14.41,13.98,8.4,9.01,18.85,33.21,22.83,45.3,1.11,3.38,1.59,7.06,2.7,10.46l.11,6.86-1.06-2.97c-.03-2.19-.08-7.3-2.61-7.69l1.24-1.15c-2.94-1.11-2-4.44-2.64-6.53-3.04-9.96-8.44-21.42-14.47-29.79,3.14-2.44-4.51-12.36-6.95-14.31-1.08-.87-2.27-.56-3.11-1.13-2.92-2.01-9.09-7.6-11.62-9.78.51.58,2.54,1.51,3.48,2.05.94.54,2.56,2.28,3.17.83l-8.06-5.8c-.96,1.17.76,1.31,1.63,2.2.19.19-.24.69-.22.72Z"/>
  <path d="M740.9,435.54l4.96,3.97-1.27-4.92c4.3,3.95,6.37,11.36,3.67,16.77-2.34-.8-.96-1.31-.98-2.67-.05-4.73-2.27-8.41-6.14-10.92-1.25-.81-1.76-1.96-.24-2.22Z"/>
  <path d="M653.09,667.53c1.48,1.31.27,2.43-.04,3.62-2.81,10.61-5.2,21.39-9.26,31.59-1.11-.37-.38-2.1-.13-2.91.94-3.1,2.11-6.15,2.94-9.29,1.42-5.36,2.37-11.59,4.04-16.79.62-1.94,2.11-3.91,2.45-6.21Z"/>
  <path d="M121.66,685.82c-1.3,1.46-2.4.3-3.62-.04-9.55-2.69-19.16-7.34-27.76-12.21l5.18,1c8.54,4.13,16.93,8.69,26.2,11.25Z"/>
  <path d="M765.36,444.02c-.36.05-.66.92-.99.96-.68.08-1.57-.74-2.5-.72-1.47.03-3.89,1.83-4.8-.74,6.15-.64,13.9.53,18.27-4.71.81-5.18-1.5-7.53-6.51-8.22-6.17-.85-13.86,5.71-19.98,6.51-.78-1.76,2.12-1.66,3.36-2.24,5.13-2.44,15.04-6.83,20.49-4.53,1.77.75,3.27,2.48,5.26,2.58,1.63.09,4.96-2.71,7.22-2.55l-6.41,3.15c-1.78,1.49-1.45,3.86-2.41,5.71-2.39,4.61-6.78,4.19-11,4.79Z"/>
  <path d="M97.05,732.86l-.57,4.41c-4.76,9.4-6.25,20.13-11.05,29.42l.82-4.47c3.36-9.9,6.1-19.96,10.8-29.36Z"/>
  <path d="M463.38,173.75l-.46.77c.39-1.2.28-.47.46-.77Z"/>
  <path d="M463.38,173.75c.35-.6.87-1.19,1-1.87-.84-5.08-.04-11.82,1.39-16.79.25-.88-.01-3.07,1.46-2.02-2.13,7.3-2.11,13.72-1.8,21.16.04.99-.66,2.09-.64,2.44-.22-.22-.66-.26-.77-.46.02-.7-.25-.91-.32-1.23-.02-.11.64-.85-.32-1.23Z"/>
  <path d="M467.51,189.75c-.05-.2-.72-.25-.77-.46-.05-.2.51-.57.46-.77.1.41.21.83.32,1.23Z"/>
  <path d="M467.51,189.75c1,3.82,2.76,7.66,3.63,11.53-1.61-.54-1.38-1.86-1.8-3.14-.83-2.57-1.35-4.99-2.29-7.61.05-.31.5-.59.46-.77Z"/>
  <path d="M462.93,174.53c.06.21.67.23.77.46.1.22,0,.68.32,1.23,0,.23-.37.48-.46.77-.93-1.36-1.58.42-.63-2.46Z"/>
  <path d="M464.79,176.67c.18,2.88,1.63,8.81,2.4,11.85-1.82-.56-.5.54-.46.77.11.54.11.66.32,1.23-.34,1.9-.38,1.62-.05,3.63.53,3.24,1.61,7.77,3.93,10.14l.91-1.55c.97,1.89,1.07,5.98-1.66,3.05-2.22-2.38-4.51-10.42-5.06-13.79-.45-2.77-.51-13.48-1.56-15.02l1.23-.32Z"/>
  <path d="M99.18,667.34l-1.41-2.91,12.84,6.53c-.43,1.13-2.75-.05-3.7-.35-2.61-.83-9.84-2.43-11.34-3.34-.91-.55-1.41-1.92-2.61-2.65-1.46-.88-3.38-.5-4.75-1.67,3.52-1.89,7.85,2.7,10.97,4.39Z"/>
  <path d="M673.54,558.57c-.05-.21-.72-.25-.77-.46-.05-.2.51-.57.46-.77.19.5.21.91.32,1.23Z"/>
  <path d="M673.86,559.8c.35,1.16,1.69,2.66,1.9,3.45.27,1.02-.43,3.36.54,4.78l-1.72-4.15-1.86-2.14c.33,5.99,1.95,11.85,1.99,17.86,0,.93.82,2.81-1.15,1.94l-2.12-22.09-3.04-8.07c.57-.14,2.41,3.69,1.79.52-.67-.9-1.58-1.02-1.79-2.28-.56-3.43-8.13-13.51-10.94-16.75-1.23-1.42-6.92-5.87-7.34-6.97-.09-.23.98-1.45.28-2.37l2.23-.24-2.19-3.38c1.74.87,1.81,2.84,3.35,4.05,1.68,1.33,4.01,2.16,5.79,3.43-1.95,1.81-2.41-.26-3.88-1.3-.76-.54-2.68-2.21-3.22-.81l4.57,3.74-1.3,1.32,3.24,1.38-1.35.73c5.28,5.18,10.57,12.41,13.72,19.13.79,1.69,1.24,4.12,1.85,5.76-1.82-.57-.49.57-.46.77.11.6.12.65.32,1.23.07.2-.55,1.83.77.46Z"/>
  <path d="M673.86,559.8c-.05-.2-.72-.25-.77-.46s.51-.57.46-.77c.16.47.21.87.32,1.23Z"/>
  <path d="M721.11,407.18l2.91,10.08,3.72,10.52c-2.08-.57-1.78-1.79-2.4-2.99-1.9-3.69-2.73-7.01-4.15-10.74l-.08-6.87Z"/>
  <path d="M811.42,406.2c-1.02,1.23-2.34.46-3.54.27-2.52-.39-5.05-1.03-7.58-1.39-1.22-.17-2.51.27-3.91.1-4.98-.63-8.72-4.1-14.37-2.27l-3.54-1c3.4-.51,7.07-.55,10.47-.09,4.08.55,8.19,1.09,12.26,1.73,3.29.52,7.12,1.38,10.2,2.66Z"/>
  <path d="M157.32,735.02c-1.19-.46-.29-1.92-.1-2.92,1.3-6.99,4.89-13.41,4.55-20.53l1.73,3.82-6.18,19.64Z"/>
  <path d="M677.05,925.8c2.2,3.96,5.45.52,5.43-3.04,0-1-1.31-2.71-.17-3.23-.15,1.33,1.39,2.51,1.56,3.2.29,1.19-1.49,3.2-.04,3.95l1.85-9.33c2.06,4.32.07,10.95-4.67,12.41-2.21.68-5.77.56-5.88-2.47l1.92-1.49Z"/>
  <path d="M573.53,374.37c-.62,1.46-2.2-.29-3.16-.82-2.16-1.18-3.88-2.49-6.41-2.97-3.99-3.7-8.46-6.93-12.53-10.52-.65-.58-2.85-2.22-2.07-3.07,4.23,2.43,7.7,7.08,11.45,9.84,3.83,2.82,8.75,4.83,12.72,7.55Z"/>
  <path d="M707.37,879.3c2.39,5.81,5.27,20.65,4.86,27.26-.09,1.48.05,2.63-1.08,3.89-2.52-.93-.84-1.33-.67-2.76,1.35-10.83-4.43-33.81-12.59-41.4-2.63-2.45-7.25-4.47-10.69-5.45.43-1.13,2.96-.23,3.63.07,5.39,2.48,7.88,4.92,11.25,9.54,1.7,2.32,4.22,6.25,5.29,8.84Z"/>
  <path d="M84.38,688.87c-.61,1.46-2.21-.29-3.16-.82-1.79-1-3.79-2.05-5.47-3.18-1.3-.88-2.01-2.18-3.31-3.08-2.82-1.94-8.8-3.5-8.81-7.24,2.37.76,3.49,2.98,5.3,4.21,2.21,1.5,4.9,2.56,7.07,4.08,2.65,1.85,4.92,4.83,8.39,6.04Z"/>
  <path d="M659.71,647.44l1.01-8.46,1.51-3.67,1.64-18.8c.66,1.42.48,2.41.38,3.84-.66,9.2-.26,18.59-4.54,27.09Z"/>
  <path d="M142.54,715.87c2.56,1.01.89,1.3.47,2.81-2.24,8.07-2.26,16.51-5.98,24.2-1.18-.49.09-2.65.39-3.71.59-2.08,1.56-4.36,1.96-6.41,1.01-5.22.3-11.97,3.15-16.89Z"/>
  <path d="M604.64,349.94c-.61,1.46-2.22-.29-3.16-.82-2.62-1.48-5.04-3.39-8.01-4.11-3.3-3.08-7.53-4.95-11.34-7.3-.93-.57-3.23-1.13-2.25-2.37l24.77,14.61Z"/>
  <path d="M669.48,634.43l-1.41,7.25c-2.45,5.94-3.9,12.38-7.19,17.93l1.01-5.18,7.59-20Z"/>
  <path d="M585.92,340.99c-.61,1.45-2.21-.29-3.16-.83-2.61-1.47-5.11-3.23-7.75-4.62-1.39-.73-2.89-.69-4.3-1.41-3.8-1.93-6.71-4.43-10-6.99.71-1.53,2.1.26,2.9.89,1.82,1.44,2.82,2.76,5.25,3.95,1.43.7,2.93.68,4.3,1.41,4.35,2.32,8.44,5.25,12.78,7.59Z"/>
  <path d="M545.53,319.25l-.46.77-15.87-9.36c-2.96-1.75-5.96-3.38-8.55-6.32-3.61-4.1-4.54-9.24-5.97-14.23-.32-1.11-.81-3.09-1.1-4.26-.6-2.47-1.78-5.68-2.09-8.02-.1-.8-.31-2.94.48-3.4.56,4.56,2.22,8.51,3.36,12.91.37,1.45.06,3.16.62,5.09.79,2.73,5.46,12.6,7.52,13.81l22.06,13.01Z"/>
  <path d="M547.26,323.4l-.46.77-11.22-6.62c-.1-.06-1.14.26-2-.13-1.49-.68-2.81-1.77-4.26-2.52-.14-.37,1.91-.96,2.07-.86l15.87,9.36Z"/>
  <path d="M642.28,707.07l-3.13,15.57-3.32,7.74c-1.13-.43.05-2.75.35-3.7,2.09-6.54,3.61-13.23,6.1-19.62Z"/>
  <path d="M829.28,404.21c-1.26,2.68-1.01.98-2.22.29-4.4-2.49-9.09-5.08-13.85-6.64l3.63.07,12.45,6.28Z"/>
  <path d="M338.69,606.22c1.65.94-.35,1.63-1.09,2.16-2.75,1.97-5.89,3.4-8.34,5.83l-20.74,8.65,19.76-9.9,10.4-6.73Z"/>
  <path d="M747.41,481.11c.89-1.67,1.85.44,2.55.98,2.29,1.76,4.46,3.49,7.11,4.69l12.51,2.71c-8.46,1.23-16.17-2.63-22.17-8.39Z"/>
  <path d="M503.5,263.15c-1.94-.5-1.8-1.88-2.48-2.97-2.55-4.06-5.15-8.38-7.55-12.49-3.48-5.95-7.1-12.11-9.56-18.53l17.73,28.89,1.86,5.1Z"/>
  <path d="M569.32,347.89l-7.25-2.42-4.97-3.95-3.13-4.77c4.41,4.8,9.64,8.03,15.34,11.14Z"/>
  <path d="M121.28,704.55c.36-.11.97.45,1.43.57l.15-1.8,2.41.33.46-1.41,1.15,1.27c.89-4.53.79-1.02,2.49-1.59l20.4-8.91c-.57,1.34-1.87,1.69-3.01,2.32-2.17,1.21-5.34,2.98-7.51,3.96-5.95,2.68-16.02,7.06-22.01,9.03-1.4.46-2.36-2.47-3.5.74-.28-.37-.63-.85-1.1-.88-.99-.07-2.69,1.34-3.22.16,4.43-.75,7.7-4.11,11.51-6.26l-.37,1.1-3.75,3.26c.59,1.19,2.46-.08,3.18-.48.46-.25.69-1.22,1.3-1.41Z"/>
  <polygon points="718.57 913.78 716.87 906.02 716.51 896.93 719.19 910.02 718.57 913.78"/>
  <path d="M531.59,288.07l.4,2.85,6.33,10.51c-3.34-1.75-5.96-6.18-6.78-9.73-.3-1.32-1.07-2.39.05-3.62Z"/>
  <path d="M737.11,403.05c-1.44-.77-1.86-.59-.87-2.11,2.46-3.8,9.38-6.96,13.67-8.08l-3.84,2.92c-4.04.68-6.8,4.01-8.96,7.27Z"/>
  <path d="M741.61,448.48c2.18.44.95,2.95.46,4.15-.67,1.63-1.77,2.99-2.27,4.52-.47,1.41.41,3.13-.71,4.44l-.03-6.22,2.55-6.89Z"/>
  <path d="M541.18,335.46c-1,1.69-1.6-.42-2.14-1.09-1.72-2.14-3.34-4.66-5.41-6.48-3.88-3.42-8.59-5.76-12.41-9.92-4.76-5.19-9.17-13.48-12.28-19.8l12.11,17.87c3.58,4.88,9.16,7.81,13.57,11.59,2.75,2.37,4.16,5.29,6.57,7.82Z"/>
  <path d="M655.98,828.87l-5.23-3.57c-1.32-4.04-5.03-7.33-5.82-11.29,4.65,4.29,5.66,11.3,11.05,14.87Z"/>
  <path d="M344.85,378.23l-2.92,11.58-4.77,12.06.33-4.97c4.05-5.45,4.05-12.85,7.36-18.66Z"/>
  <polygon points="742.94 440.92 739.05 439.63 733.02 432.98 742.94 440.92"/>
  <path d="M622.37,454.3l.07,4.9-1.09,3.89c-1.52-2.48-.14-6.36,1.02-8.79Z"/>
  <polygon points="663.77 716.61 663.8 710.37 666.78 696.48 666.24 704.49 663.77 716.61"/>
  <path d="M836.41,388.59l-8.24-.16c-4.48-1.47-9.61-.8-13.67-3.38l5,.31,16.91,3.23Z"/>
  <path d="M610.47,492.15c-.98,3.3-3.15,1.65-4.99,2.27-1.12.38-2.13,1.62-3.38,2.15-2.52,1.05-5.16,2.08-7.83,2.71l5.08-3.21,11.13-3.92Z"/>
  <path d="M97.09,656.72l11.29,5.62-5.18-1c-1.14-.41-2.06-1.38-3.1-1.85-1.83-.82-5.15-.31-3.01-2.77Z"/>
  <path d="M677.46,815.45c.61-1.46,2.21.29,3.16.83,2.71,1.53,5.24,2.29,5.44,5.82l-2.81-3.21-5.79-3.43Z"/>
  <path d="M764.08,403.31c-1.42,2.09-4.68,2.34-6.59,3.71-1.13.81-1.7,1.78-2.61,2.6-.72.65-1.66,2.14-2.61,1.33,1.86-4.47,7.39-6.42,11.81-7.64Z"/>
  <path d="M587.94,364.09c-1.71-.43-1.13-2.2-1.98-3.1-1.06-1.13-2.8-1.67-4.07-2.56l2.23-.24-1.41-2.92,4.43,5.42.8,3.4Z"/>
  <path d="M664.72,801.68c-1.28-.75-2.14-2.88-2.67-4.23-1.24-3.16-2.22-7.02-3.37-10.29l5.26,11.11.77,3.41Z"/>
  <polygon points="609.28 457.02 607.22 460.43 607.64 463.35 605.32 461.98 607.52 456.49 609.28 457.02"/>
  <path d="M496.8,272.76l7.94,21.9-2.43-4.62c-1.39-4.73-3.31-9.24-5.18-13.76-.53-1.28-1.67-2.06-.32-3.52Z"/>
  <polygon points="786.2 397.47 780.14 395.57 787.99 395.51 786.2 397.47"/>
  <path d="M625.63,540.74c-.34,1.09-2.96-.04-3.69-.33-1.5-.59-2.84-1.36-4.18-2.24l7.87,2.56Z"/>
  <path d="M611.97,754.91c1.08.88.6,2.31.58,3.46-.13,5.52-.55,11.08-.77,16.6l1.67,22.54c-2.78-10.62-2.27-21.89-2.49-32.82l1.01-9.77Z"/>
  <path d="M657.15,655.32c1.18.49-.09,2.65-.39,3.71-.78,2.73-1.64,5.46-2.45,8.18l.29-4.99,2.55-6.89Z"/>
  <path d="M555.15,348.92c-.6,1.44-2.25-.28-3.16-.83-2.59-1.55-3.49-2.24-5.43-4.51-.65-.76-2.15-1.64-1.33-2.61,2.93,3.42,5.73,6.01,9.92,7.94Z"/>
  <path d="M408.85,94.64c-.51,1.39-2.5-.29-3.21-.81-1.14-.85-2.29-1.44-1.75-3.16l4.96,3.97Z"/>
  <path d="M233.38,652.09c7.72-3.64,15.58-7.14,23.81-9.42-.03.93-1.99,1.75-2.75,2.07-2.74,1.13-6.4,1.87-9.09,2.93-2.98,1.18-5.85,2.81-8.8,4.04-.74.31-2.67,1.54-3.18.39Z"/>
  <path d="M659.26,648.22c1.32.49.21,1.31-.09,2.31-.42,1.4-.41,2.8-1.56,4.01-1.32-.49-.21-1.31.09-2.31.42-1.4.41-2.8,1.56-4.01Z"/>
  <path d="M454.2,79.66l-1.37,2.32-2.32-1.37c.39-1.02.84-1.37,1.91-1.48l1.77.53Z"/>
  <path d="M705.11,927.76c1.5,2.82-.2,6.98-.7,10.02l-.06-4.9.76-5.12Z"/>
  <polygon points="470.21 139.18 466.92 151.84 468.44 138.65 470.21 139.18"/>
  <path d="M746.37,466.94l2.16,6.99,3.79,5.91c-2.94-2.35-4.74-5.81-5.94-9.29-.45-1.29-1.09-2.39,0-3.61Z"/>
  <path d="M663.94,615.51l-.61-11.32-1.83-5.76c1.78,1.12,2.25,4.31,2.61,6.22.6,3.24.93,7.74-.17,10.87Z"/>
  <path d="M813.72,384.6c-1.82,1.11-4.83-.11-7.01-.48-2.44-.42-5.17-.51-7.33-1.73l7.01.47,7.34,1.73Z"/>
  <path d="M690.84,605.29c.99.37.37,2.76.19,3.56-.33,1.48-.34,2.73-1.52,4l1.33-7.56Z"/>
  <path d="M575.06,352.32l-1.98.76c-.61-1.38-1.81-2.08-3.11-2.73l.45-.77,4.64,2.74Z"/>
  <path d="M703.05,940.1c1.71,1.86-.14,3.79-1.2,5.55l-.77-.45,1.96-5.1Z"/>
  <rect x="657.94" y="829.16" width=".89" height="5.39" transform="translate(-392.61 976.27) rotate(-59.46)"/>
  <path d="M139.34,680.6l-.91,1.55c-.83-1.47-1.82-2.37-3.41-3.06l.45-.77,3.87,2.28Z"/>
  <path d="M753.89,399.38c.77-1.89,3.17-1.61,4.99-2.27l.16.6c-1.73.55-3.15,2.17-5.15,1.66Z"/>
  <polygon points="459.72 116.3 460.59 121.65 459.73 127.77 459.1 120.06 459.72 116.3"/>
  <path d="M458.33,95.65l1.63,10.41-.21,3.99c-.63-2.97-1.38-6.42-1.71-9.4-.17-1.48-.48-3.69.29-5Z"/>
  <rect x="665.88" y="687.69" width="5.39" height=".89" transform="translate(-263.82 914.34) rotate(-59.46)"/>
  <path d="M625.5,420.69c.04.08-.68,1.8-1.3,1.31l-1.6-8.77c1.04-.16,1.29,2.18,1.42,2.91.19,1.08-.22,2.27.18,3.26.32.77,1.21,1.1,1.29,1.28Z"/>
  <path d="M393.39,584.23l-5.46,2.99-14.89,5.87,6.31-3.52c4.82-1.21,9.18-4.74,14.04-5.34Z"/>
  <rect x="601.56" y="376.47" width=".89" height="5.39" transform="translate(-30.45 705.02) rotate(-59.46)"/>
  <rect x="132.44" y="746.53" width="5.39" height=".89" transform="translate(-576.9 483.84) rotate(-59.46)"/>
  <path d="M398.5,69.75l.11,6.86,4.52,13.6c-1.61-.54-1.39-1.86-1.8-3.14-1.09-3.39-3-7.63-3.49-10.91-.3-1.98-.66-4.69.67-6.4Z"/>
  <rect x="661.17" y="527.9" width=".89" height="4.49" transform="translate(-131.16 830.63) rotate(-59.46)"/>
  <path d="M615.39,386.54c-.79,1.54-1.99-.15-2.54-.99-.63-.95-1.24-2.98-1.72-4.15l4.27,5.13Z"/>
  <path d="M606.1,381.06c1.02-.27,2.06,2.82,1.41,2.91l-2.32-1.37c.34-.46.75-1.5.91-1.55Z"/>
  <path d="M624.53,434.71c1.18.41.36,1.2.31,2.21-.06,1.31.72,2.44-.73,3.8-1.24-.43-.3-1.27-.22-2.23.11-1.3-.23-2.63.64-3.78Z"/>
  <path d="M671.73,625.32l.77.45-1.05,3.55c-1.3-1.31-.76-2.69.28-4.01Z"/>
  <path d="M680.73,571.15l-.67,3.78-1.43-5.54c.32-.45,2.71,1.3,2.81,1.42.41.48.45,1.05.59,1.64l-1.31-1.3Z"/>
  <path d="M622.78,488.97c-.82,2.28-2.67,1.03-4.53,1.49l-.16-.6,4.69-.89Z"/>
  <path d="M612.98,746.12c1.02.64.23,3.08.09,4.24-.15,1.29.26,2.63-.65,3.77l-.44-4.15,1-3.86Z"/>
  <path d="M664.99,693.33c1.51.62-.09,1.44-.42,2.4-.46,1.32-.72,2.64-1.23,3.93-1.07-.33-.52-1.4-.27-2.22.48-1.53.9-2.82,1.92-4.11Z"/>
  <path d="M539.08,301.88l2.32,1.37-.91,1.55-2.39-.37-.16-.6c1.55-.15.89-.8,1.14-1.94Z"/>
  <rect x="829.41" y="453.68" width="4.49" height=".89" transform="translate(17.96 939.7) rotate(-59.46)"/>
  <polygon points="404.56 98.37 402.24 96.99 402.7 96.23 406.32 96.28 406.48 96.88 404.56 98.37"/>
  <path d="M671.14,546.72l1.95,3.76-.6.16c-.12-1.35-1.12-1.79-2.26-2.37l.92-1.54Z"/>
  <path d="M192.21,670.58l5.99-2.2c.03.84-2.09,1.52-2.81,1.81-.75.3-2.67,1.55-3.18.39Z"/>
  <path d="M677.94,466.22l.77.45c.17,1.02-4.47,3.36-4.6,2.5.64-1.79,2.92-1.16,3.83-2.96Z"/>
  <polygon points="611.02 379.79 610.11 381.34 608.25 379.19 608.7 378.42 611.02 379.79"/>
  <path d="M439.56,58.5c-.83,1.61-1.86-.32-2.57-.98-1.22-1.14-2.73-2.05-2.93-3.84l5.5,4.81Z"/>
  <path d="M478.5,217.11c.03.09-.68,1.8-1.3,1.31l-1.12-3.65-3.04-6.1,5.46,8.44Z"/>
  <path d="M205.97,666.7c-.09.03-1.8-.68-1.31-1.3,2.18-1.23,7.12-1.44,6.86-4.33l2.05.72-7.6,4.9Z"/>
  <polygon points="599.13 376.95 598.68 377.72 598.28 377.5 594.49 374.21 594.95 373.44 599.13 376.95"/>
  <rect x="691.12" y="934.72" width="3.59" height=".89" transform="translate(-464.6138 1056.8217) rotate(-59.463)"/>
  <path d="M566.07,510.82l.77.45c.17,1.02-4.47,3.36-4.6,2.5.64-1.79,2.92-1.16,3.83-2.96Z"/>
  <path d="M276.41,635.74l5.99-2.2c.03.84-2.09,1.52-2.81,1.81-.75.3-2.67,1.55-3.18.39Z"/>
  <path d="M591.67,368.38l-.45.77c-1.02.17-3.36-4.47-2.5-4.6,1.79.64,1.16,2.92,2.96,3.83Z"/>
  <path d="M677.07,577.34c1.27,1.04.19,2.69.72,4.08l-.6.16c-.33-1.57-1.28-2.94-.11-4.23Z"/>
  <polygon points="268.34 638.8 265.2 640.6 259.27 641.79 268.34 638.8"/>
  <path d="M630.57,748.15l-.13,13.48c-1-4.29-1.08-9.21.13-13.48Z"/>
  <rect x="106.72" y="652" width=".89" height="3.59" transform="translate(-510.4 413.91) rotate(-59.46)"/>
  <rect x="807.11" y="393.25" width=".89" height="3.59" transform="translate(56.99 889.88) rotate(-59.46)"/>
  <rect x="111.05" y="653.51" width=".89" height="3.59" transform="translate(-509.57 418.38) rotate(-59.46)"/>
  <rect x="121.88" y="659.9" width=".89" height="3.59" transform="translate(-509.74 430.85) rotate(-59.46)"/>
  <polygon points="815.43 406.47 814.52 408.02 812.2 406.65 812.65 405.88 815.43 406.47"/>
  <path d="M463.12,96.39c-1.27-.07-1.97-2.83-1.41-2.91,1.27.07,1.97,2.83,1.41,2.91Z"/>
  <path d="M483.05,227.09c-1.65-.57-1.49-2.23-1.95-3.76l.6-.16c.21,1.47,1.96,2.39,1.35,3.91Z"/>
  <rect x="658.11" y="661.71" width="3.59" height=".89" transform="translate(-245.71 894.09) rotate(-59.46)"/>
  <polygon points="96.98 713.52 104.2 711 100.16 713.12 96.98 713.52"/>
  <path d="M459.68,111.06c.53-.2,1.25,2.56.17,3.23-.53.2-1.25-2.56-.17-3.23Z"/>
  <rect x="811.05" y="394.98" width=".89" height="2.69" transform="translate(57.82 893.9) rotate(-59.46)"/>
  <rect x="822.67" y="441.87" width="2.69" height=".89" transform="translate(24.37 927.31) rotate(-59.46)"/>
  <path d="M532.12,297.77l-.45.77c-1.57-.55-2.14-2.12-3.41-3.06l.45-.77,3.41,3.06Z"/>
  <rect x="668.89" y="631.81" width="2.69" height=".89" transform="translate(-214.87 888.29) rotate(-59.46)"/>
  <rect x="803.34" y="453.42" width="2.69" height=".89" transform="translate(4.91 916.34) rotate(-59.46)"/>
  <rect x="816.33" y="400.18" width=".89" height="2.69" transform="translate(55.94 901.01) rotate(-59.46)"/>
  <rect x="118.4" y="658.29" width=".89" height="2.69" transform="translate(-509.69 426.84) rotate(-59.46)"/>
  <rect x="167.46" y="746.05" width="2.69" height=".89" transform="translate(-559.92 512.6) rotate(-59.46)"/>
  <rect x="574.33" y="375.32" width=".89" height="2.69" transform="translate(-41.69 680.35) rotate(-59.46)"/>
  <rect x="641.69" y="704.45" width="2.69" height=".89" transform="translate(-290.82 900.59) rotate(-59.46)"/>
  <polygon points="104.61 652.81 104.16 653.58 99.06 651.62 99.51 650.85 104.61 652.81"/>
  <polygon points="673.06 617.75 673.83 618.21 672.32 622.53 671.55 622.08 673.06 617.75"/>
  <rect x="557.96" y="350.02" width=".89" height="2.69" transform="translate(-27.94 653.8) rotate(-59.46)"/>
  <path d="M609.11,453.78c.04.16-.68,1.03-.91,1.55-.47.15-1.1-2.39-.63-2.46.46.34,1.51.75,1.55.91Z"/>
  <polygon points="560.71 350.11 560.26 350.88 559.86 350.66 556.85 347.83 557.3 347.06 560.71 350.11"/>
  <path d="M663.37,786.28l-2.45-8.22c1.12-.12,1.17,2.09,1.4,2.92.23.83,1.53,5.18,1.04,5.31Z"/>
  <path d="M621.06,403.45l.63,2.46c-1.75-.75-1.8-.95-.63-2.46Z"/>
  <path d="M666.72,471.08c.16-.04,1.03.68,1.55.91.15.47-2.39,1.1-2.46.63.34-.46.75-1.51.91-1.55Z"/>
  <rect x="468.67" y="132.88" width="2.69" height=".89" transform="translate(116.37 470.41) rotate(-59.46)"/>
  <rect x="633.5" y="659.97" width="2.69" height=".89" transform="translate(-256.54 871.66) rotate(-59.46)"/>
  <rect x="837.02" y="444.08" width="2.69" height=".89" transform="translate(29.53 940.75) rotate(-59.46)"/>
  <rect x="805.94" y="450.78" width="2.69" height=".89" transform="translate(8.47 917.28) rotate(-59.46)"/>
  <path d="M662.72,720.17l.77.45c-.87.9-.8,4.9-.97,5.17-.08.13-.32.16-.6.16-.71-.43.34-5.63.8-5.78Z"/>
  <path d="M617.75,393.15c.49-.14.84,2.04,1.02,2.69.22.79,1.2,2.83.18,3.23-.27-1.04-.48-2.08-.85-3.09-.42-1.15-2.07-1.04-.36-2.83Z"/>
  <path d="M399.6,94.4l-.45.77c-1.54-.67-2.27-1.29-2.41-2.98.38-.65,1.5,2.01,2.86,2.21Z"/>
  <path d="M681.2,593.34l-.77-.45c.85-.84.35-5.01,1.11-4.55.45,1.05.46,4.72-.34,5.01Z"/>
  <polygon points="681.44 584.09 682.21 584.55 681.84 586.94 681.23 587.1 681.44 584.09"/>
  <path d="M795.13,391.37c.32.88-1.69.71-2-.14-.32-.88,1.69-.71,2,.14Z"/>
  <path d="M681.12,582.86c-1.23-.5-.17-1.62-.36-2.86-.16-1.06-1.47-3.09-.39-3.84.25,2.12,2.06,4.63.75,6.69Z"/>
  <path d="M676.89,582.97l.6-.16c.54,1.64-.03,3.41.65,5.08l-.6.16-.65-5.08Z"/>
  <path d="M219.2,661.98c.88-.32.71,1.69-.14,2-.88.32-.71-1.69.14-2Z"/>
  <polygon points="786.24 429.43 794.7 426.59 790.71 428.95 786.24 429.43"/>
  <polygon points="231.87 656.41 240.32 653.58 235.11 656.25 231.87 656.41"/>
  <path d="M658.92,664.71c.88-.32.71,1.69-.14,2-.88.32-.71-1.69.14-2Z"/>
  <path d="M171.95,733.22c.88-.32.71,1.69-.14,2-.88.32-.71-1.69.14-2Z"/>
  <path d="M164.88,736.36c.88-.32.71,1.69-.14,2-.88.32-.71-1.69.14-2Z"/>
  <path d="M839.19,389.19c.32.88-1.69.71-2-.14-.32-.88,1.69-.71,2,.14Z"/>
  <path d="M156.87,735.8c.88-.32.71,1.69-.14,2-.88.32-.71-1.69.14-2Z"/>
  <path d="M631.16,745.37c.88-.32.71,1.69-.14,2-.88.32-.71-1.69.14-2Z"/>
  <path d="M802.39,455.12c.88-.32.71,1.69-.14,2-.88.32-.71-1.69.14-2Z"/>
  <path d="M175.43,683.1l-.77-.45c.77-1.89,3.17-1.61,4.99-2.27l.16.6-4.38,2.11Z"/>
  <path d="M668.64,542.11l-.45.77c-1.24-.5-1.46-1.96-2.64-2.6l.45-.77,2.64,2.6Z"/>
  <path d="M754.9,390.59l.77.45c-.28,1.63-4.49,2.46-4.92,1.27l.45-.77c1.53.96,2.84.59,3.69-.95Z"/>
  <path d="M130.96,754.95c.88-.32.71,1.69-.14,2-.88.32-.71-1.69.14-2Z"/>
  <path d="M552.6,316.11l-.45.77c-1.24-.5-1.46-1.96-2.64-2.6l.45-.77,2.64,2.6Z"/>
  <path d="M668.28,535.64c.32.88-1.69.71-2-.14-.32-.88,1.69-.71,2,.14Z"/>
  <path d="M661.97,701.99c.88-.32.71,1.69-.14,2-.88.32-.71-1.69.14-2Z"/>
  <path d="M555.55,319.95c.32.88-1.69.71-2-.14s1.69-.71,2,.14Z"/>
  <polygon points="653.02 534.99 651.1 533.84 649.75 529.93 653.02 534.99"/>
  <path d="M407.52,577.97l.77.45c-.77,1.89-3.17,1.61-4.99,2.27l-.16-.6,4.38-2.11Z"/>
  <path d="M550.15,339.71c.32.88-1.69.71-2-.14s1.69-.71,2,.14Z"/>
  <path d="M560.06,324.69c.32.88-1.69.71-2-.14-.32-.88,1.69-.71,2,.14Z"/>
  <path d="M345.44,375.45c.88-.32.71,1.69-.14,2-.88.32-.71-1.69.14-2Z"/>
  <path d="M409.76,577.72c1.95-.96,3.8-1.91,5.99-2.2.32,1.12-1.58.91-2.31,1.23-.98.42-2.9,2.18-3.68.97Z"/>
  <path d="M663.32,717.39c.88-.32.71,1.69-.14,2-.88.32-.71-1.69.14-2Z"/>
  <path d="M567.76,324.02c.32.88-1.69.71-2-.14-.32-.88,1.69-.71,2,.14Z"/>
  <path d="M813.2,479.24c.88-.32.71,1.69-.14,2-.88.32-.71-1.69.14-2Z"/>
  <path d="M818.22,470.72c.88-.32.71,1.69-.14,2-.88.32-.71-1.69.14-2Z"/>
  <path d="M471.8,113.51c1.29-.11,1.07,2.18,1.19,2.97.37,2.42,1.12,4.76,1.39,6.86.1.8.31,2.94-.48,3.4l-2.1-13.24Z"/>
  <polygon points="662.43 474.81 661.66 474.35 664.19 472.72 664.35 473.33 662.43 474.81"/>
  <path d="M643.97,810.31l-.45.77c-1.65-.57-1.48-2.23-1.95-3.76l.6-.16,1.8,3.14Z"/>
  <polygon points="663.9 836.67 663.44 837.44 661.81 834.91 662.42 834.76 663.9 836.67"/>
  <path d="M666.85,840.5c.32.88-1.69.71-2-.14-.32-.88,1.69-.71,2,.14Z"/>
  <polygon points="471.25 112.66 470.48 112.21 471.15 110.72 469.84 109.74 470.3 108.98 471.78 110.89 471.25 112.66"/>
  <path d="M624.47,487.89c.88-.32.71,1.69-.14,2-.88.32-.71-1.69.14-2Z"/>
  <polygon points="576.17 345.14 576.77 344.99 578.66 349.75 578.05 349.9 576.17 345.14"/>
  <path d="M466.21,98.22c.32.88-1.69.71-2-.14-.32-.88,1.69-.71,2,.14Z"/>
  <polygon points="677.33 921.8 678.1 922.26 677.73 924.65 677.12 924.8 677.33 921.8"/>
  <path d="M128.61,666.97c.32.88-1.69.71-2-.14-.32-.88,1.69-.71,2,.14Z"/>
  <polygon points="88.31 719.36 87.54 718.9 90.07 717.27 90.22 717.87 88.31 719.36"/>
  <path d="M622.96,451.52c.88-.32.71,1.69-.14,2-.88.32-.71-1.69.14-2Z"/>
  <polygon points="462.36 78.21 461.91 78.98 460.27 76.45 460.88 76.3 462.36 78.21"/>
  <path d="M456.07,81.8c.32.88-1.69.71-2-.14-.32-.88,1.69-.71,2,.14Z"/>
  <polygon points="453.67 69.95 453.21 70.72 450.26 66.89 450.71 66.12 453.67 69.95"/>
  <polygon points="581.83 370.92 581.37 371.69 579.74 369.16 580.34 369 581.83 370.92"/>
  <path d="M590.04,356.99c.32.88-1.69.71-2-.14-.32-.88,1.69-.71,2,.14Z"/>
  <polygon points="448.08 63.52 448.53 62.75 450.16 65.28 449.56 65.43 448.08 63.52"/>
  <path d="M586.19,377.67c-.94,1.65-1.63-.34-2.15-1.09-.87-1.24-1.83-2.51-2.12-4.05l4.27,5.13Z"/>
  <path d="M580.22,382.49c.32.88-1.69.71-2-.14-.32-.88,1.69-.71,2,.14Z"/>
  <path d="M591.17,363.91c.32.88-1.69.71-2-.14-.32-.88,1.69-.71,2,.14Z"/>
  <path d="M595.36,367.43c.32.88-1.69.71-2-.14-.32-.88,1.69-.71,2,.14Z"/>
  <path d="M392.16,76.96l2.37,9.23.18,3.23c-.94-4.14-2.59-8.16-2.56-12.46Z"/>
  <path d="M444.06,63.24c.32.88-1.69.71-2-.14-.32-.88,1.69-.71,2,.14Z"/>
  <path d="M442.2,61.1c.32.88-1.69.71-2-.14-.32-.88,1.69-.71,2,.14Z"/>
  <path d="M557.78,514.27c.88-.32.71,1.69-.14,2-.88.32-.71-1.69.14-2Z"/>
  <path d="M608.06,375.96c.32.88-1.69.71-2-.14-.32-.88,1.69-.71,2,.14Z"/>
  <path d="M536.03,522.83c.3-.5,1.07-.05.77.46-.3.5-1.07.05-.77-.46Z"/>
  <path d="M615.79,389.39c.3-.5,1.07-.05.77.46-.3.5-1.07.05-.77-.46Z"/>
  <path d="M62.83,659.98c.3-.5,1.07-.05.77.46-.3.5-1.07.05-.77-.46Z"/>
  <path d="M530.65,524.88c.3-.5,1.07-.05.77.46s-1.07.05-.77-.46Z"/>
  <path d="M549.25,518.11c.3-.5,1.07-.05.77.46-.3.5-1.07.05-.77-.46Z"/>
  <path d="M554.63,516.07c.3-.5,1.07-.05.77.46-.3.5-1.07.05-.77-.46Z"/>
  <path d="M602.24,369.92c.3-.5,1.07-.05.77.46-.3.5-1.07.05-.77-.46Z"/>
  <path d="M599.6,367.32c.3-.5,1.07-.05.77.46-.3.5-1.07.05-.77-.46Z"/>
  <path d="M597.32,371.19c.3-.5,1.07-.05.77.46-.3.5-1.07.05-.77-.46Z"/>
  <path d="M559.55,514.8c.3-.5,1.07-.05.77.46-.3.5-1.07.05-.77-.46Z"/>
  <path d="M600.96,446.37c.3-.5,1.07-.05.77.46s-1.07.05-.77-.46Z"/>
  <path d="M496.23,539c.3-.5,1.07-.05.77.46-.3.5-1.07.05-.77-.46Z"/>
  <path d="M597.74,365.17c.3-.5,1.07-.05.77.46s-1.07.05-.77-.46Z"/>
  <path d="M591.27,365.53c.3-.5,1.07-.05.77.46-.3.5-1.07.05-.77-.46Z"/>
  <rect x="624.46" y="424.51" width=".62" height="1.9" transform="translate(-86.46 169.52) rotate(-14.46)"/>
  <path d="M392.29,74.95c.3-.5,1.07-.05.77.46-.3.5-1.07.05-.77-.46Z"/>
  <path d="M624.72,429.08c.3-.5,1.07-.05.77.46-.3.5-1.07.05-.77-.46Z"/>
  <rect x="577.27" y="378.94" width=".62" height="1.9" transform="translate(-76.57 156.29) rotate(-14.46)"/>
  <path d="M623.75,443.12c.3-.5,1.07-.05.77.46s-1.07.05-.77-.46Z"/>
  <path d="M622.69,446.67c.3-.5,1.07-.05.77.46-.3.5-1.07.05-.77-.46Z"/>
  <path d="M622.87,449.9c.3-.5,1.07-.05.77.46-.3.5-1.07.05-.77-.46Z"/>
  <path d="M639.01,443.77c.3-.5,1.07-.05.77.46s-1.07.05-.77-.46Z"/>
  <path d="M624.35,503.99c.3-.5,1.07-.05.77.46-.3.5-1.07.05-.77-.46Z"/>
  <path d="M616.11,535.65c.3-.5,1.07-.05.77.46-.3.5-1.07.05-.77-.46Z"/>
  <path d="M555.24,350.54c.3-.5,1.07-.05.77.46-.3.5-1.07.05-.77-.46Z"/>
  <path d="M424.66,571.9c.3-.5,1.07-.05.77.46s-1.07.05-.77-.46Z"/>
  <path d="M656.51,476.01c.3-.5,1.07-.05.77.46s-1.07.05-.77-.46Z"/>
  <path d="M555.98,345.76c.3-.5,1.07-.05.77.46-.3.5-1.07.05-.77-.46Z"/>
  <path d="M668.96,470.83c.3-.5,1.07-.05.77.46-.3.5-1.07.05-.77-.46Z"/>
  <path d="M671.87,469.42c.3-.5,1.07-.05.77.46-.3.5-1.07.05-.77-.46Z"/>
  <path d="M422.2,572.54c.3-.5,1.07-.05.77.46-.3.5-1.07.05-.77-.46Z"/>
  <path d="M553.34,343.16c.3-.5,1.07-.05.77.46s-1.07.05-.77-.46Z"/>
  <path d="M648.84,522.61c.3-.5,1.07-.05.77.46-.3.5-1.07.05-.77-.46Z"/>
  <path d="M690.93,461.88c.3-.5,1.07-.05.77.46s-1.07.05-.77-.46Z"/>
  <rect x="693.44" y="461" width="1.9" height=".62" transform="translate(-93.21 188.05) rotate(-14.46)"/>
  <rect x="556.65" y="321.91" width=".62" height="1.9" transform="translate(-62.99 149.34) rotate(-14.46)"/>
  <path d="M553.54,328.67c.3-.5,1.07-.05.77.46s-1.07.05-.77-.46Z"/>
  <path d="M550.44,326.84c.3-.5,1.07-.05.77.46-.3.5-1.07.05-.77-.46Z"/>
  <rect x="396.54" y="581.88" width="4.44" height=".62" transform="translate(-132.77 118.04) rotate(-14.46)"/>
  <path d="M742.96,391.37c2.47-.6,4.91-1.33,7.38-1.91.83-.2,2.8-1.22,3.23-.18-2.47.6-4.91,1.33-7.38,1.91-.83.2-2.8,1.22-3.23.18Z"/>
  <path d="M552.69,317.73c.3-.5,1.07-.05.77.46-.3.5-1.07.05-.77-.46Z"/>
  <path d="M664.64,532.97c.3-.5,1.07-.05.77.46-.3.5-1.07.05-.77-.46Z"/>
  <path d="M668.37,537.26c.3-.5,1.07-.05.77.46-.3.5-1.07.05-.77-.46Z"/>
  <path d="M668.73,543.73c.3-.5,1.07-.05.77.46s-1.07.05-.77-.46Z"/>
  <path d="M670.55,540.63c.3-.5,1.07-.05.77.46-.3.5-1.07.05-.77-.46Z"/>
  <path d="M671.65,542.32c.3-.5,1.07-.05.77.46-.3.5-1.07.05-.77-.46Z"/>
  <rect x="673.96" y="551.56" width=".62" height="4.44" transform="translate(-116.94 185.95) rotate(-14.46)"/>
  <path d="M675.56,549.84c.3-.5,1.07-.05.77.46-.3.5-1.07.05-.77-.46Z"/>
  <path d="M675.77,558.32c.3-.5,1.07-.05.77.46-.3.5-1.07.05-.77-.46Z"/>
  <path d="M534.53,300.76c.3-.5,1.07-.05.77.46-.3.5-1.07.05-.77-.46Z"/>
  <rect x="676.64" y="560.67" width=".62" height="1.9" transform="translate(-118.82 186.87) rotate(-14.46)"/>
  <path d="M525.52,291.27c.3-.5,1.07-.05.77.46-.3.5-1.07.05-.77-.46Z"/>
  <rect x="675.94" y="570.7" width=".62" height="1.9" transform="translate(-121.34 187.01) rotate(-14.46)"/>
  <path d="M676.66,574.5c.3-.5,1.07-.05.77.46-.3.5-1.07.05-.77-.46Z"/>
  <path d="M680.77,567.53c.3-.5,1.07-.05.77.46-.3.5-1.07.05-.77-.46Z"/>
  <path d="M506.47,298.81c.3-.5,1.07-.05.77.46-.3.5-1.07.05-.77-.46Z"/>
  <rect x="505.29" y="295.78" width=".62" height="1.9" transform="translate(-58.09 135.68) rotate(-14.46)"/>
  <path d="M791.35,390.7c.3-.5,1.07-.05.77.46-.3.5-1.07.05-.77-.46Z"/>
  <rect x="505.25" y="290.54" width=".62" height="1.9" transform="translate(-56.78 135.5) rotate(-14.46)"/>
  <rect x="304.27" y="623.72" width="1.9" height=".62" transform="translate(-146.18 96.01) rotate(-14.46)"/>
  <path d="M745.77,478.58c.3-.5,1.07-.05.77.46-.3.5-1.07.05-.77-.46Z"/>
  <path d="M796.9,391.89c.3-.5,1.07-.05.77.46-.3.5-1.07.05-.77-.46Z"/>
  <path d="M301.76,624.6c.3-.5,1.07-.05.77.46-.3.5-1.07.05-.77-.46Z"/>
  <path d="M799.68,392.49c.3-.5,1.07-.05.77.46s-1.07.05-.77-.46Z"/>
  <rect x="673.62" y="610.01" width=".62" height="1.9" transform="translate(-131.23 187.68) rotate(-14.46)"/>
  <path d="M284.11,635.06c.3-.5,1.07-.05.77.46-.3.5-1.07.05-.77-.46Z"/>
  <path d="M392.81,61.7c.3-.5,1.07-.05.77.46s-1.07.05-.77-.46Z"/>
  <rect x="269.85" y="637.85" width="1.9" height=".62" transform="translate(-150.8 87.86) rotate(-14.46)"/>
  <path d="M269.66,640.1c.3-.5,1.07-.05.77.46-.3.5-1.07.05-.77-.46Z"/>
  <path d="M242.63,652.32c.3-.5,1.07-.05.77.46-.3.5-1.07.05-.77-.46Z"/>
  <path d="M666.91,651.17c.3-.5,1.07-.05.77.46-.3.5-1.07.05-.77-.46Z"/>
  <rect x="479.91" y="220.3" width=".62" height="1.9" transform="translate(-40.04 126.95) rotate(-14.46)"/>
  <path d="M221.25,658.49c.3-.5,1.07-.05.77.46-.3.5-1.07.05-.77-.46Z"/>
  <path d="M480.1,214.39c.3-.5,1.07-.05.77.46-.3.5-1.07.05-.77-.46Z"/>
  <path d="M649.36,695.07c.3-.5,1.07-.05.77.46-.3.5-1.07.05-.77-.46Z"/>
  <path d="M484.76,199.41c.3-.5,1.07-.05.77.46-.3.5-1.07.05-.77-.46Z"/>
  <path d="M819.07,409.14c.3-.5,1.07-.05.77.46-.3.5-1.07.05-.77-.46Z"/>
  <rect x="476.56" y="204.76" width=".62" height="1.9" transform="translate(-36.26 125.62) rotate(-14.46)"/>
  <path d="M664.19,678.77c.3-.5,1.07-.05.77.46-.3.5-1.07.05-.77-.46Z"/>
  <path d="M475.38,201.18c.3-.5,1.07-.05.77.46s-1.07.05-.77-.46Z"/>
  <rect x="199.33" y="667.2" width="1.9" height=".62" transform="translate(-160.37 71.17) rotate(-14.46)"/>
  <path d="M656.46,697.17c.3-.5,1.07-.05.77.46-.3.5-1.07.05-.77-.46Z"/>
  <path d="M472.7,193.34c.3-.5,1.07-.05.77.46s-1.07.05-.77-.46Z"/>
  <path d="M661.88,700.37c.3-.5,1.07-.05.77.46-.3.5-1.07.05-.77-.46Z"/>
  <path d="M177.76,675.62c.3-.5,1.07-.05.77.46-.3.5-1.07.05-.77-.46Z"/>
  <rect x="171.24" y="682.97" width="1.9" height=".62" transform="translate(-165.2 64.66) rotate(-14.46)"/>
  <path d="M800.27,471.08c.3-.5,1.07-.05.77.46-.3.5-1.07.05-.77-.46Z"/>
  <path d="M630.77,765.48c.3-.5,1.07-.05.77.46-.3.5-1.07.05-.77-.46Z"/>
  <path d="M819.98,448.28c.3-.5,1.07-.05.77.46s-1.07.05-.77-.46Z"/>
  <path d="M461.29,172c.3-.5,1.07-.05.77.46s-1.07.05-.77-.46Z"/>
  <rect x="614.47" y="800.48" width=".62" height="1.9" transform="translate(-180.68 178.94) rotate(-14.46)"/>
  <path d="M814.34,477.3c.3-.5,1.07-.05.77.46-.3.5-1.07.05-.77-.46Z"/>
  <path d="M826.39,460.41c.3-.5,1.07-.05.77.46-.3.5-1.07.05-.77-.46Z"/>
  <path d="M828.99,457.77c.3-.5,1.07-.05.77.46-.3.5-1.07.05-.77-.46Z"/>
  <path d="M839.03,440.74c.3-.5,1.07-.05.77.46-.3.5-1.07.05-.77-.46Z"/>
  <path d="M468.58,136.65c.3-.5,1.07-.05.77.46-.3.5-1.07.05-.77-.46Z"/>
  <path d="M635.57,789.18c.3-.5,1.07-.05.77.46-.3.5-1.07.05-.77-.46Z"/>
  <rect x="137.42" y="694.32" width="1.9" height=".62" transform="translate(-169.1 56.57) rotate(-14.46)"/>
  <rect x="637.07" y="794" width=".62" height="1.9" transform="translate(-178.34 184.38) rotate(-14.46)"/>
  <rect x="470.14" y="128.98" width=".62" height="1.9" transform="translate(-17.54 121.62) rotate(-14.46)"/>
  <path d="M135.68,695.66c.3-.5,1.07-.05.77.46s-1.07.05-.77-.46Z"/>
  <path d="M470.05,127.08c.3-.5,1.07-.05.77.46-.3.5-1.07.05-.77-.46Z"/>
  <rect x="132.22" y="696.5" width=".62" height="1.9" transform="translate(-169.99 55.2) rotate(-14.46)"/>
  <rect x="663.69" y="787.79" width=".62" height="1.9" transform="translate(-175.95 190.83) rotate(-14.46)"/>
  <path d="M130.62,698.93c.3-.5,1.07-.05.77.46s-1.07.05-.77-.46Z"/>
  <path d="M128.93,700.02c.3-.5,1.07-.05.77.46s-1.07.05-.77-.46Z"/>
  <path d="M129.07,698.02c.3-.5,1.07-.05.77.46-.3.5-1.07.05-.77-.46Z"/>
  <path d="M669.9,845.95c.3-.5,1.07-.05.77.46-.3.5-1.07.05-.77-.46Z"/>
  <path d="M670.99,847.64c.3-.5,1.07-.05.77.46-.3.5-1.07.05-.77-.46Z"/>
  <rect x="126.21" y="699.18" width="1.9" height=".62" transform="translate(-170.67 53.93) rotate(-14.46)"/>
  <path d="M459.61,132.4c.3-.5,1.07-.05.77.46-.3.5-1.07.05-.77-.46Z"/>
  <path d="M130.4,690.46c.3-.5,1.07-.05.77.46-.3.5-1.07.05-.77-.46Z"/>
  <path d="M123.24,700.83c.3-.5,1.07-.05.77.46-.3.5-1.07.05-.77-.46Z"/>
  <path d="M459.43,129.17c.3-.5,1.07-.05.77.46-.3.5-1.07.05-.77-.46Z"/>
  <path d="M468.8,104.44c.3-.5,1.07-.05.77.46-.3.5-1.07.05-.77-.46Z"/>
  <rect x="108.06" y="710.1" width="4.44" height=".62" transform="translate(-173.93 50.06) rotate(-14.46)"/>
  <path d="M467.71,102.75c.3-.5,1.07-.05.77.46-.3.5-1.07.05-.77-.46Z"/>
  <path d="M466.3,99.83c.3-.5,1.07-.05.77.46-.3.5-1.07.05-.77-.46Z"/>
  <path d="M105.13,712.07c.3-.5,1.07-.05.77.46s-1.07.05-.77-.46Z"/>
  <path d="M668.66,927.64c.3-.5,1.07-.05.77.46-.3.5-1.07.05-.77-.46Z"/>
  <path d="M91.14,716.33c.3-.5,1.07-.05.77.46s-1.07.05-.77-.46Z"/>
  <path d="M458.2,88.8c.3-.5,1.07-.05.77.46-.3.5-1.07.05-.77-.46Z"/>
  <path d="M684.44,915.04c.3-.5,1.07-.05.77.46-.3.5-1.07.05-.77-.46Z"/>
  <path d="M704.11,887c.3-.5,1.07-.05.77.46s-1.07.05-.77-.46Z"/>
  <path d="M113.81,656.67c.3-.5,1.07-.05.77.46s-1.07.05-.77-.46Z"/>
  <path d="M714.91,888.15c.3-.5,1.07-.05.77.46s-1.07.05-.77-.46Z"/>
  <path d="M715.41,892.62c.3-.5,1.07-.05.77.46-.3.5-1.07.05-.77-.46Z"/>
  <path d="M716.04,895.08c.3-.5,1.07-.05.77.46-.3.5-1.07.05-.77-.46Z"/>
  <path d="M430.1,81.61c.3-.5,1.07-.05.77.46s-1.07.05-.77-.46Z"/>
  <path d="M700.24,925.4c.3-.5,1.07-.05.77.46s-1.07.05-.77-.46Z"/>
  <path d="M87.79,660.1c.3-.5,1.07-.05.77.46-.3.5-1.07.05-.77-.46Z"/>
  <path d="M84.42,662.29c.3-.5,1.07-.05.77.46-.3.5-1.07.05-.77-.46Z"/>
  <path d="M83.61,656.59c.3-.5,1.07-.05.77.46-.3.5-1.07.05-.77-.46Z"/>
  <path d="M395.64,90.49c.3-.5,1.07-.05.77.46-.3.5-1.07.05-.77-.46Z"/>
  <path d="M71.62,660.99c.3-.5,1.07-.05.77.46-.3.5-1.07.05-.77-.46Z"/>
  <path d="M67.61,660.72c.3-.5,1.07-.05.77.46-.3.5-1.07.05-.77-.46Z"/>
  <path d="M716.55,922.51c.3-.5,1.07-.05.77.46-.3.5-1.07.05-.77-.46Z"/>
  <path d="M716.41,924.51c.3-.5,1.07-.05.77.46s-1.07.05-.77-.46Z"/>
  <path d="M845.05,400.47c.3-.5,1.07-.05.77.46-.3.5-1.07.05-.77-.46Z"/>
  <polygon points="630.38 681.26 627.86 690.77 625.25 697.02 625.09 694.11 630.38 681.26"/>
  <path d="M634.43,677.92c.3-.5,1.07-.05.77.46-.3.5-1.07.05-.77-.46Z"/>
</svg>