<?xml version="1.0" encoding="UTF-8"?>
<svg id="Layer_1" data-name="Layer 1" xmlns="http://www.w3.org/2000/svg" viewBox="0 0 112.37 105.35">
  <defs>
    <style>
      .cls-1 {
        fill: none;
        stroke: #fff;
        stroke-miterlimit: 10;
        stroke-width: 3px;
      }
    </style>
  </defs>
  <g>
    <path d="M1.84,40.58h-.29c0-.1,0-.19,0-.29.19.04.32.01.29.29Z"/>
    <path d="M37.23,50.36s.14-.18.29-.29c-.02,0-.08.17-.29.29Z"/>
    <path d="M6.15,50.36c-.4.48-.52.18-.86.29.21-.09.17-.35.86-.29Z"/>
    <path d="M36.08,30.79c.85.41,1.96,1.87,3.17,2.02.04.63-1.24.12-1.44.29.6,1.82-.17,4.6,1.74,5.89,1.31.89,2.36.29,3.69-.17.15-.81.63-1.81,1.05-2.55.38-.68,1.39-1.17-.09-1.78l-.21-1.1c1.04,1.72,1.97,2.26,4.03,2.01.26-.03.17-.56.14-.57-.05-.04-.42-.02-.73-.28-.33-.27-.47-.6-.91-.82-.39-.2-1.32-.26-1.48-.39-.05-.04-.56-.95-.58-1-.25-.82.17-1.43.53-2.11l-.87.17-.57,2.71c-.72-1.41.13-2.13.29-3.45-1.8.84-2.95,2.59-5,1.16-.23-.16-.12-.4-.37-.59-.41-.32-1.54-.62-1.69-.85-.57-.82-.28-.62-1.14-1.45-1.35-1.29-1.74-2.22-2.38-3.95-.71-1.92-1.29-3.49-.64-5.55,1.19-.2.12,1.09.04,1.65-.12.79.94,3.47,1.44,4.21.59.86,1.23,1.19,2.26,1.34l-1.44.72c1.36,1.74,3.34,2.06,5.47,1.87-.67,1.12-2.58.57-3.45,0-.12.54.17.56.48.82.51.42,2.06,1.6,2.59,1.73,1.15.26,1.16-.23,1.9-.59.34-.16.86-.16,1.02-.29.08-.06.03-.32.13-.42.12-.12.36-.04.5-.26.57-.88,0-2.92-.57-3.72-.89-1.23-3.21-1.43-3.62-2.15-.18-.3.39-.99.37-1.31-.02-.25-.98-1.26-1.2-1.59-.29-.42-.74-.91-.73-1.42l2.3,2.59c-.09-.69.77-1.05,1.35-1.09.28-.02.56.23.78.19.23-.04.77-.72,1.06-.96.16-.13.45-.11.52-.18.14-.14-.29-2.6,1.18-2.85.21.81-.38.4-.58.75-.26.44-.31,1.04-.28,1.55l1.73-.29c.05.4-.69.38-1.06.52-.24.09-.57.05-.37.48.12.27,1.9,1.7,1.73,1.87-.85.06-.87-.84-1.44-1.29-.2-.16-.75-.47-.97-.42-.51.25-1.04,1.25-1.51,1.38-.51.15-1.03-.11-1.55.18-.62.35.29.66.29,1.01l-.86-.29-.28.99c1.3.91,3.16,1.18,3.88,2.75.42.92.78,2.22.43,3.17l1.44-.29-.43.86c.57-.33.98-.69,1.45-1.14.28-.27.35-.69.5-.81.14-.12.4-.03.48-.08.14-.1-.3-.9-.3-1.28,0-.62.82-1.77-.7-1.59-.56.07-.98.78-1.72.88-.57.08-.47-.12-.44-.58,1.02.08,1.53-1.11,2.21-1.39,1.15-.47,2.68-.45,3.83-.05.2,1.21-1.08.1-1.63.06-.41-.03-1,.4-1.53.23-.11.6.52.72.59,1.29.08.65-.34,1.11-.26,1.66.19,1.26,1.26,1.61,1.56,2.5.36,1.1-.31,2.32.7,3.04l-.86.29c.85,1.11,1.36-.36,2.3-.14-.2.99.21.72.56,1.02.86.73,1.73,1.29,2.61,2.01l-2.12-.76-1.19-1.11c-.37.22-.43.81-.71,1.01-.45.32-3.34,1.43-3.89,1.46-.69.03-.98-.59-1.72.42-.68.92-.58,1.42-.71,2.41-.04.26-.42.07-.6.34-.26.4-.29,1.07-.28,1.55l-2.3.29c.47.87,1.51,1.1,2.3.57.36.85,0,1.46-.01,2.15-.01,1.11.04,2.22.01,3.32-.5.07-.28-.66-.29-1.01-.01-.62,0-1.25,0-1.87h-1.73s-.02,1-.02,1l.56.18c-.52.89.3,1.54.89,2.15l.86-.17c-.07.8.29,1.56.58,2.3-.56-.53-.93-.8-.88-1.73-1.22.63-1.88-1.89-3.15-.43.75.97,1.7,1.11,2.86,1.02l.87,2.15c.03.86-.31.24-.53-.05-.24-.32-.39-.71-.77-.96-.36.26-1.66,1.94-1.29,2.3.66.14,3.43-.73,3.44-1.29-.47-.29-.42-.66-.56-1.01,1.44,1.38,2.23,1.97,3.22,3.83.92,1.72,2.02,4.02,1.96,5.96l2.59-.58c.14.88-.23.45-.7.59-2.62.76-5.41,1.91-4.19,5.17l.57-.58c-.07.78.88.42.58,1.44,1.26-.19,2.48-.68,3.73-1,1.32-.34,4.12-1.2,5.35-1.31.65-.06,1.02.28,1.42.28.71,0,1.92-.62,2.73-.57.11-.51-.4-.18-.56-.3-.11-.08,0-.62.13-.86.32-.61,1.52-.7,2.15-1.01.44-.22,1.85-1.33,2.03-1.71.19-.43-.12-.4-.37-.48-1.03-.37-2.22-.34-3.08-.95l3.89.44c.51.01.52-.31.71-.59.02-.02.24.02.29-.14,0-.19-.26-.13-.29-.15-.3-.26-.63-.22-.58-.57,1.77.1,3.57-.03,4.46-1.73l.29.57c.23-.5.99-.69,1.23-.93.2-.2.55-1,.8-1.36.66-.93,1.33-1.03.99-2.61l.58.17.24-.35.9-4.13c.16,2.44-.66,4.78-.86,7.19-.48.08-.33-.73-.29-1.01.06-.37.38-.6.29-1.01h-.14c-.57.67-.51,1.57-1.05,2.41-.3.47-.74.79-1.11,1.19l1.57-.16c.3.87.76.82,1.57.6.19,1.34,1.03.95,1.85,1.18.55.16,1.62,1.81,1.58,2.36-.05.78-.69.74-.96,1.04-.61.67-1.35,2.48-2.22,3.4-.2.21-.89.32-1.07.78.74.62.64,1.81.84,2.73l-1.15-1.73c.14,1.2.15,2.12,0,3.31-.06.5.14.92-.43,1.29l.15-4.18-.45-.71c-1.58.64-2.82,1.09-4.58.85-.67-.09-1.83-.78-2.31-.77-.71.02-3.04,1.85-3.97,2.27-.78.36-1.67.56-2.49.83l-.16.84c-.23,0,.44-.88-.28-.57-.53.23-.91.53-1.58.72-1.32.39-2.69.7-4.03,1-.06.53.63.28.95.23,1.37-.25,3.17-.73,4.38-1.38.25.38-.48.61-.72.72-2.78,1.23-6.3,1.01-9.21,1.87.48-1.02,1.92-.69,2.69-.91,1.03-.3,2.24-.92,3.34-1.26.82-.25,1.75-.28,2.6-.71.05-.43-.74-.32-1.16-.43-.51-.13-.68-.11-.57-.72.85.38,2.36.43,3.26.24.8-.17,4.06-2.35,4.79-2.98,1.19-1.03-.85-.54-1.44-.29-.41.17-.7.53-1.06.67-1.49.58-2.37.67-3.97.64-.35,0-1.07.21-1.01-.29,1.44-.27,3.02-.19,4.4-.64.74-.24,1.4-.78,2.14-1.02.84-.27,1.82-.2,2.49-.39.25-.07.9-.79,1.62-1.11-.18.24-.3.54-.57.72l.14.14c.33-.16.54-.7.72-.86.1-.09.27-.28.29-.29.63-.35,1.52-.4,2.01-1.3l-2.01,1.01c.85-1.14,3.08-2.61,4.47-2.87.85-.16,2.02.12,2.72-.73-.32-.16-.15-.64-.47-.72-1.54-.41-2.04-.13-3.47.52-.74.34-1.44.74-2.1,1.21l1.05-1.1,3.55-1.49c-.23-.72-.91-.64-1.53-.52-1.74.34-3.68,1.87-4.96,3.1-.85.81-1.12,1.81-2.14,2.31l.43-1.15-2.31,1.72.03.32c.43-.33,1.15-.41,1.55-.6-.09.11-.25.42-.29.57.23.19,1.85-.83,2.29-1.02.5-.22.9-.28.3.3-.46.17-.81.59-1.23.78-3.8,1.74-7.3,1.49-11.28,2.25-1.49.29-2,1.03-3.24,1.36-1.28.35-4.91.89-5.41-.52-.56-.15-1.2.41-1.67.28-1.03-.29-.91-1.46-1.1-2.09-.15-.48-.58-.81-.52-1.35l.73,1.14c.1,2.42,2.08,1.64,3.87,1.74.11-.49-.34-.19-.52-.33-.42-.34-.42-2.34-.3-2.93.3-1.35,2.08-1.86,2.4-2.49.46-.88-.47-2.82-.87-3.75-.35-.83-2.23-4.86-3.15-4.59-.67,1.18-4.44,2.42-4.2.42,0-.08.5-1.15.59-1.29.15-.24,1.06-.74.86-1.44-.96.2-1.38-.19-2.15-.58l-1.88,2.59c.93.11,1.71-.41,2.59-.57-.74.88-1.64,1.1-2.72,1.44-.87-.62-.32-1.07.13-1.72-.18.02-.44-.05-.58,0,.91-.65,2.07-1.25,2.01-2.59-1.6.11-2.68.97-4.02,1.59s-1.99.91-3.18,2c-.5.46-1.07,1.02-1.43,1.59,1.7.23,3.13-.87,4.6-1.59.33-.16.69-.07.86-.13-1.76,1.04-3.56,2.08-5.6,2.59l-.45-.73,1.59-2.44c-.57.4-1.24.73-1.87,1.02-.48.22-.96-.07-.89.69-.09.17-1.94-.84-2.13-.86-.59-.05-1.42.55-2.16.31.37-.92,1.99-.59,2.6-1,.3-.2.84-1.48,1.43-1.74.04-.22-.26-.17-.43-.15-.99.16-2.72,1.35-3.79,1.67-.95.29-2.26.36-3.25.34l1.44.57c-1.06.2-1.98-.39-3.01-.28-1.59.17-3.53.59-5.13.92-1.69.35-3.19,1.18-5.1.8l2.15-.3c1.79-.25,3.72-1.24,5.62-1.14l-1.59-.3c-1.54.48-3.15.26-4.74.3-.02-1,1.24-1.22,2.01-1.15l-.29.86c1.48-.34,2.95-.21,4.45-.3,1.23-.07,2.53.1,3.45,0,.91-.09,2.06-.49,3-.6,0-.77.65-1.42,1.18-1.98-2.62.3-5.07,1.73-7.77,1.73l.86-1.58-.57-.43c1.76.28,3.01-1.36,4.5-1.97.21-.09.99-.14.53.25l-3.59,2.17-.87,1,2.39-.34,4.37-1.38.14.57c.83-.89,1.78-1.19,2.74-2.01.35-.3.8-.74,1-1.15-.56.03-1.17-.47-1.63-.54-.38-.05-.59.47-1.09.55s-1.2,0-1.73,0c-.35,0-1.07.22-1.01-.29l3-.03c.67-.2.13-1.37,1.03-1.13.13-.57-.63.02-.58-.57l4.89.29-.29.86c2.11.07,4.33-.15,6.19-1.15.38.27.7.7.15,1.01-.19.11-1.58-.42-1.73.43.69-.07,1.73-.37,2.01.29-.69.01-1.51-.09-2.16,0-1.07.16-6.24,3.95-6.9,4.9-.14.2-.61.98-.44,1.14,1.29-.34,3.04-.49,4.13-1.19.98-.63,1.56-1.69,2.65-1.95l.99-1.46c.54-.04.3.59.15.87-.27.51-1.37,1.06-1.59,1.72,1.67-.23,2.78-1.86,4.6-1.44l-.57-.3c.3-.49.54-1.55,0-1.87-.43-.26-.64.12-.87-.42.38,0,.77,0,1.15,0v-2.14c-2.2-1.22-2.87-3.63-3.47-5.91-1-.29-1.86.45-2.73.56-1.12.14-2.79-.67-4.03-.85-1.15-.16-2.45.03-3.68-.35-.56-.17-1.29-.81-1.78-.81-.59,0-2.7.44-3.44.59s-2,.22-1.89,1.14c1.01-.06,2.07.44,3.03.57,1.05.14,2.15-.21,3.16.29l10.5.73c-.85.98-2.09.18-3.01.13-1.34-.06-2.71.06-4.05.02l-5.6-.59,2.45.57,4.16.3c-.39.96-1.62.46-2.44.59-1.66.25-3.41,1.04-5.05,1.43l.79.5,2.95.65c-1.46.02-3.24-.01-4.46-.86l.7.61-.25.4,1.14-.14v.85s-1.73.3-1.73.3l.29.57c-.41.1-.67-.27-1.02-.3-.49-.05-.9.35-1.41.31-.44-.03-.81-.34-1.46-.32-1.51.06-4.55,1.37-5.76,2.32-.43.34-3.48,3.38-3.57,3.62-.06.17-.13.67.13.7.41.04,1.15.18,1.43.17.82-.03,2.74-.59,3.67-.82,1.03-.25,2.05-.68,3.08-.95.3-.08.92-.4.88.16-3,.64-5.95,2.22-9.08,2.03-.48-.03-.85-.26-1.28-.3.17-.2.93-1.38.86-1.44l-3.17-.29c.35.66.49,1.36.64,2.09.03.16.22.2.23.21.02.1-.36.5-.29.57.21,0,.39.06.58.14.34.15,1.13.36,1.15.73l-1.87-.58c-.26,0,.03.95-.72.58l-.58-1.3.86-.15.02-1.56-.55-.2.11-.49c-1.11.29-1.31-1.15-1.04-2.04-1.09-.1-.75-.77-.89-1.56-.04-.25-.4-.32-.1-.46l.4.23c.07-.78,1.78-1.04.05-1.39.12.61-.41.62-.87.85l1.15-2.01c-2.23.43-2.27-1.58-2.02-3.32.1-.71,1.75-2.16,2.6-2.15.23-.89-.84-.48-1.44-1-.97-.85-.12-1.19-.04-1.77.05-.34-.39-.8-.25-1.25l2.56.56c.09-1.06,1.32-1.08,2.04-1.42l-.86.86c1.04-.27,2.36-.32,2.88-1.44-.42.13-1.07.18-1.44.29,2.23-1.26,4.45-.99,6.71-1.49,1.02-.22.58-.24,1.76-.23,1.11,0,2.22-.03,3.32,0,.07.5-.66.28-1.01.29-.47.01-.95,0-1.42-.02l-.31.61c-1.89-.64-3.54.17-5.23.53-.43.09-.75-.25-1.06-.21-.52.07-1.39.89-1.62,1.39,2.2-.23,4.24-.84,6.33-1.44l-1.15,1.44c1.71.73,3.31.45,5.05.56.85.06,1.75.53,2.72.3.07-.51-.66-.27-1.01-.29-.28-.01-.56.02-.84.02-.23-.78-.85-.69-1.6-.88.17-1.48,2.08-1.13,3.17-1.15l-2.3.72c1.38,1.13,3.36,1.11,5.03,1.3,1.5.17,3.42.52,4.9.59.69.03,1.17-.33,1.73-.33.83,0,2.01.6,3.02.31.12.33-.93.51-1.06.51-1.93.07-2.35-.27-4.56.35-.38.11-.88-.05-1,.58.65-.18.48.46.76.58,1.14.47,2.51.22,3.71.28,1.06.05,2.13.24,3.17.3.57.04,1.11-.43,1.85,0l-.14-1.44.75,1.41.83.03v.29c-1.23-.22-.17,1.57.14,2.3.97.83-.31-1,.58-.58.42.2.45,1.05,1.01,1.15-.33-1.52-1.67-4.19-3.15-4.75s-2.9-1.75-4.41-2.51c-1.45-.73-2.78-1.34-4.39-1.64-.18-.03-.44.21-.73.13-.78-.2-1.78-.71-2.71-.75-1.06-.05-2.43.73-3.6.17l4.18-.43,1.01-.29c-1.26.23-2.4-.48-3.59-.59-2.68-.25-5.65-.16-8.37-.29l-7.62,2.02c-.07-.39.5-.41.79-.5,1.45-.43,2.92-.86,4.39-1.22l-.86-.86h3.28c.28-.03.3-1.14,1.03-.86.16,1.47,2.08.64,3.01.56,1.3-.11,3.25.21,4.62.18,1.01-.02,2.21-.33,3.31-.17l-2.74-.57h-1.57s2.17-.31,2.17-.31l2.15.3-2.88-.86,6.13.63.49.52c-.61.17-1.15-.16-1.65-.22-.32-.04-1-.31-.94.22l9.01,2.07c.64.18.7.39,1.06.81-.25-.11-1.23-.57-1.3-.57-.05,0-.09.06-.14.14.3.23.56.7.87.87.36.2.74.09.86.14ZM24.54,27.95h-1.39s-.31.83-.31.83c1.03-.34,2.43.82,3.27.54.24-.08.42-.44.61-.45.45-.03,1.51.43,2.17.2-.92-1.14-3-1.74-3.89-.29l-.46-.83ZM49.03,30.79c.19-1.39-.65-2.01-1.73-2.59-.23.26,1.18,2.47,1.73,2.59ZM30.04,28.49h-.86v.29h.86v-.29ZM48.17,30.79l-1.3-1.72c-.7.73-1.6,1.05-1.86,2.13.23.28,1.42,1.66,1.72,1.32.09-.78.56-1.69,1.44-1.73ZM26.73,29.35c-.19,0-.19.29,0,.29s.19-.29,0-.29ZM27.74,30.51h4.46c.53,0,.72.73.78.78.23.21.77.2.8.65l-1.64-.51-1.52-.2c.6.52,1.4.64,2.11,1.06,1.27.74,2.45,1.69,3.64,2.54l-.44-2.29c-1.1-1.4-.3.46-.57.28-.76-.5-.57-1.13-.77-1.39-.05-.07-1.28-.88-1.47-.98-1.38-.72-4.39-1.5-5.39.06ZM9.75,30.79c-.19,0-.19.29,0,.29s.19-.29,0-.29ZM48.75,31.08l-.79.15.09.39-.6.02-.14,1.17c1.06.22,1.48-.85,1.44-1.73ZM45.57,32.25c-.06-.06-.56.05-.71-.3l-.14.14,1.01,1.01.14-.14c-.36-.15-.24-.64-.3-.71ZM6.01,33.96c2.04.29,4.65-.21,6.76,0,.06.51-.65.27-1.01.29-1.18.06-2.27.32-3.45.29l-1.7.61v.3s2.98-.62,2.98-.62c-.47,1.23-1.03.45-1.82.61-.64.13-1.1,1.01-1.92.83l1.53.51c5.28-.53,10.55-1.72,15.87-2.25l1.3-.57h-8.2s-.27-.28-.58-.3c-.59-.05-1.42.55-2.15.3l.29-.57c-1.33-.2-2.54-.92-3.9-.88-1.58.05-3.13,1-4.74.88-.12.26.67.57.72.57ZM37.23,32.81l-.55.4,1.12,2.76c.19-1.22-.18-2.07-.58-3.17ZM48.46,33.67l.14-.86-1.3.58c.17,1,1.49,1.65,2.3.72l-1.15-.43ZM7.02,34.25c-.94.21-4.52-.93-5.04-.31-.14.17-.47.83-.42,1.01l2.4,1.29,3.06-1.99ZM50.47,33.96c-.6-.08-.65-.03-.57.57l.57-.57ZM16.23,36.26c-1.46.4-3.62.12-4.6,1.44l3.86-.03c.48-.14.47-.98.75-1.41ZM19.39,37.41c-.8.17-1.28-.26-1.92-.53-.5-.21-.48-.54-.96.09.53.31,1.33.55,1.93.66.31.06,1,.3.94-.23ZM5,37.13c-.53-.07-.84-.01-1.15.43,0,.24.74-.31,1.15-.15v-.29ZM6.44,37.13h-.86v.29h.86v-.29ZM11.04,37.13c-2.63.04-4.58,2.03-6.91,2.88-.04.58.52.16.79.07.72-.22,1.13-.22,1.38-.95l1.85-.27-.58.7-2.87,1.6h1.86s7.21-1.72,7.21-1.72l1,.28c-1.53.18-3.2.49-4.67.94-.49.15-1.21.2-1.37.79,1.78-.23,3.46-1.45,5.28-.92.7-.18,1.99-.81,2.64-.8.35,0,.68.32,1.14.29.2-.01,1.09-.22,1.02-.59-.58-.03-1.22-.49-1.15-1.15h1.73s-2.98-.83-2.98-.83c-.8.9-1.89.43-2.93.53-1.11.11-3.15.93-3.87-.28l1.44-.58ZM.97,39.71l1.3-2.3c-.44.36-1.38.77-1.55,1.33-.08.25-.24,1.05.25.97ZM7.3,37.7c-.54.16-1.97.19-2.32.42-.28.18-.61,1.22-1.13,1.45l3.45-1.87ZM21.69,37.7h-1.15v.29h1.15v-.29ZM1.55,40.29c-.16-.04-.39.02-.58,0v.29c.19.02.4-.03.58,0,.02,0,.05.21.14.2s.12-.2.15-.2c.34-.06.73.08,1.02-.27l1.28-2.03-1.44-.16c-.68.62-1.18,1.2-1.15,2.18ZM22.84,39.14c-.6-1.1-2.42-.38-3.45-.57-.13.85.18.48.7.59.23.05.48.21.64.21.55.02,1.4-.44,2.1-.22ZM19.68,39.43c-.22-.19-.81.1-.57.29s.81-.1.57-.29ZM24,39.43l-1.73.29v.29s1.73-.29,1.73-.29v-.29ZM38.39,39.72h-1.15c-.11.1.73,1.07,1.15.86v-.86ZM20.25,42.59c.12-.74-.76-.96-1.01-1.44-.1-.19.24-.61-.29-.86-1.01.74.14,1.22,0,2.01l.29-.29,1.01.58ZM17.95,40.58c-1.22-.08-2.26-.01-3.37.51-.48.23-.87.73-1.42.88-.27.07-1.04.26-.96-.24.31.14,1.5-.13.43-.29-1.25.41-2.52.8-3.81,1.09-.65.15-1.56.06-2.19.35-.33.15-.22.56-.46.74-.25.18-1.66.18-2.4.48-.62.25-1.1.62-1.36,1.23.3.45.53.4,1,.44,1.34.11,4.08-.31,5.46-.6.65-.14,1.22-.48,1.88-.56l-.43-.86c.9,1.27,2.18.07,3.23-.23,1.66-.47,3.31-.61,4.97-.93,0-.83-1.11-1.17-.57-2.01ZM39.1,40.58l-.14.14.72.72.14-.14-.72-.72ZM2.7,41.15c-.47-.1-.89.13-1.31.17-.4.04-.59-.52-.42.4l1.73-.57ZM6.44,41.73c-1.19-.2-2.07.41-3.17.72-.51.14-.68.09-.57.72.23.2,3.69-.52,3.74-1.44ZM41.84,43.74c-.26-.51-.44-1.27-1.15-1.15-.13.87.25,1.28,1.15,1.15ZM42.99,42.59h-.86c-.21.42.76,1.26.86,1.15v-1.15ZM5.72,43.17c-.19,0-.19.29,0,.29s.19-.29,0-.29ZM40.11,43.17h-.57s0,1.44,0,1.44h.86c-.27-.47-.35-.89-.29-1.44ZM27.16,43.75c.69,1.03,2.12,1.09,2.88.14l-1.73-.3-1.14.16ZM34.79,44.03c-.19,0-.19.29,0,.29s.19-.29,0-.29ZM34.36,44.32h-2.88c.24.41.27.56-.14.86-.24-.22-.38-.58-.72-.45-.93.35-3.88,2.58-4.75,3.33-.35.3-.8.74-1,1.15,3.15-.41,5.64-2.43,8.34-3.89l1.16-1ZM39.54,46.05h.72s.43-.43.43-.43l-.43-.72-.72.29v.86ZM10.76,45.18c-1.14.12-2.2.61-3.33.85-1.41.3-3.19-.01-4.13,1.31.23.22.15.56.43.74.6.39,3.29.61,3.57-.3l-.58-.29c1.2.19,1.51.24,2.45-.57l1.58-1.73ZM41.26,46.91c-.19-.68-.84-.61-1.44-.57v.86c.47-.27.89-.36,1.44-.29ZM3.13,47.77c-.19,0-.19.29,0,.29s.19-.29,0-.29ZM18.53,50.65c-.22-.19-.81.1-.57.29s.81-.1.57-.29ZM68.03,57.27c-.3-.27-1.62.91-1.44,1.44.1.12,1.56-1.33,1.44-1.44ZM75.37,57.27l-.14.14.43.43.14-.14-.43-.43ZM77.79,57.87l-1.71-.59c.2.96.79,1.7.87,2.73.05.63-.04.44-.44.18l.15.83,1.1-1.92.03-1.23ZM65.58,58.42c-.19,0-.19.29,0,.29s.19-.29,0-.29ZM66.16,58.71c-.19,0-.19.29,0,.29s.19-.29,0-.29ZM75.22,59.57c.19-.22-.1-.81-.29-.57s.1.81.29.57ZM75.8,59.57c.19-.22-.1-.81-.29-.57s.1.81.29.57ZM75.51,61.3c.13-.21.2-.82.58-1.15l-1.73.86.58-1.15c-1.44-.15-3.01.25-4.03,1.3l1.3.14.14.57c-1.07.03-2.68.06-3.17,1.15l1.73-.14-1.73.72c.77-.06,1.65.12,2.4-.05,1.47-.32,2.71-1.59,3.93-2.25-.36.57-.85.88-1.15,1.44,1.43.17,2.06-.74,1.87-2.01-.21.25-.43.42-.72.57ZM70.48,60.44c-.19,0-.19.29,0,.29s.19-.29,0-.29ZM61.98,62.16s-.02-.39,0-.58c-.09-.12-.69.47-.57.57.18-.02.54.04.58,0ZM62.85,61.59c-.22-.19-.81.1-.57.29s.81-.1.57-.29ZM74.65,63.32h-.86s0,.57,0,.57l.86-.29v-.29ZM70.62,63.89l-2.4-.27-1.34,1.13,1.54-.05,2.2-.81ZM69.76,65.33c.96.09,1.93-.08,2.8-.51.42-.21.76-.38.66-.92l-3.45,1.44ZM65.87,64.47l-1.29,1.01.14.14c.44-.36.96-.52,1.29-1.01l-.14-.14ZM52.2,65.04l-1.73.29v.29s1.73-.29,1.73-.29v-.29Z"/>
    <path d="M37.23,50.36c-.2.11-.51.25-.58.29.16-.08.49-.24.58-.29Z"/>
    <path d="M5.29,50.65s-.04.44-.58.29c-.03-.44.4-.21.58-.29Z"/>
    <path d="M36.37,50.94s.12-.2.29-.29c-.05.03-.11.19-.29.29Z"/>
    <path d="M36.08,30.51s-.19-.18-.29-.29c.22.1.2.2.29.29Z"/>
    <polygon points="66.3 57.56 66.02 57.41 66.3 57.27 66.3 57.56"/>
    <path d="M36.08,30.79s.04-.22,0-.29c.06.06.59.15,0,.29Z"/>
    <path d="M41.26,50.36c-.19.02-.4-.03-.58,0,.15-.17.22-.59.57-.58v.58Z"/>
    <path d="M64.86,61.88c.09-.11.12-.2.29-.29-.06.13-.16.22-.29.29Z"/>
    <path d="M68.03,62.16s-.24-.05-.29,0c.08-.07.14-.18.29-.29-.05.06.04.22,0,.29Z"/>
    <path d="M6.15,31.66c-.25.14-.35.18-.58.29.12-.31.37-.23.58-.29Z"/>
    <path d="M67.74,62.45s-.2-.04-.29,0c.11-.15.16-.18.29-.29-.05.05.05.24,0,.29Z"/>
    <path d="M94.28,14.03c.75.63,2.07,1.29,2.66,2.09,2.16,2.96,3.54,5.62,3.6,9.33.02,1.11,0,2.22,0,3.32,1.61-.95,3.67-.43,5.47-1.15-.33-.74-1.38-1.03-1.15-2.01,1.13-.31,2.08.44,3.03.57.72.09,1.45-.04,2.23.07.48.07,2.44.53,2.22,1.23s-1.27.63-1.73.86c-1.37.7-2.31,2.25-4.19,2.72-.5.13-.41-.01-.42-.42,0-.79.37-1.38.29-2.16-1.33.07-2.22,1.15-3.43,1.46.1,2.45.02,6.07-2.9,6.6,0,.94.5,1.8.59,2.72.28,2.93-.93,8.28-2.36,10.9-2.38,4.4-7.81,7.65-7.14,13.27.09.72.5,1.52.58,2.3.04.43.16.85-.44.73-.61-.31-1.27-3.12-1.52-3.95-1.15-3.77-4.37-7.84-6.81-11.03-1.25-1.63-2.43-2.89-3.62-4.44-.83-1.08-1.52-2.29-2.44-3.31-.25.21-.19.99-.16,1.31.21,1.94.28,3.09-.41,5.03-.22.61-.84,1.34-.97,1.91-.15.67-.04,1.54-.05,2.25,0,.35.21,1.07-.29,1.01.11-1.11-.18-2.49.05-3.55.3-1.38,1.49-2.71,1.68-4.67.11-1.11-.58-2.51-.8-3.49-.07-.3.06-1.2.22-1.53l-1.58.86.29-.86c-.3.32-.71.36-1.03.71-.27.29-.23,1.16-.84.59.83-.75,1.29-1.75,2.56-1.63l.03-.53h.57c-.06.41.05.68.27,1.02.61.92,2.34,2.2,3.18,3.15.76.85,1.54,2.04,2.29,2.89.98,1.1,6.77,7.04,6.86,7.81.03.29-.25.51-.12.96.2.69.94,1.27,1.03,2.01l.29-.86.86.58c-.02-.3.01-.6.13-.87,1.1-2.56,3.2-4.47,4.71-6.8.95-1.46,1.91-3.18,2.35-4.84-.2-.45-.65.63-.7.74-.55,1.1-.97,2.13-1.76,3.13-.18.23-.65.91-.99.74.58-.94,1.28-1.81,1.85-2.75.49-.8.71-2.1,1.61-2.44-.24-2.02-.5-4.3-.31-6.33.08-.88.62-1.55.59-2.43-1.5.2-2.9.58-4.38.94-.28.07-.85.51-.79-.08.77-.18,1.46-.57,2.23-.8,1.32-.4,1.01-.76,1.41-.89.8-.26,1.38-.05,1.92-.11.81-.1,1.62-.44,2.5-.34,1.33-1.38.91-3.6.57-5.33-.71-.06-1.47-.11-1.87.56-.29.47.29,1.32-.13,2.02l.86-.14c-.37.26-1.18,1.02-1.57,1.01-.18,0-2.04-.48-2.27-.58-.29-.12-.14-.4-.24-.5-.74-.72-2.56.37-3.55.49-.92.11-1.45-.27-2.01-.27-.39,0-.81.41-1.29.28.69-1.05,2.72-.48,3.9-.56.63-.05,1.2-.42,1.86-.3.08-.37-.81-.57-1-.57-.51,0-1.44.48-2.01.59l-.32-.61c-2.86-.06-5.42-.15-8.03,1.18-.24,0-.11-.25-.15-.41-.14-.51-.64.23-.86-.04l3.37-.94c2.24-.37,4.36-.38,6.55-.06l6.19-2.02-.27-.84.52-.05c.27-.18-.44-2.51-.53-3.01-.08-.46.07-.98-.02-1.42-.26-1.35-1.7-4.58-2.65-5.55-3.57-3.64-7.9-7.18-12.52-9.5-.25-.13-.88-.72-.94-.64-.73,3.55-1.99,6.99-2.54,10.58-.05.32-.04.58.24.79l-.57-.15c.09.96-.63,1.68-.02,2.57l-.54.05.24.52-.57.18.31,1.57-.57-.15c.5.39.29,1.81-.07,2.11-.13.11-.39.02-.49.07-.06.03.48.91.29,1.27l-.57.17.27.84c-.26.26-1.23-.58-1.16-1l4.84-18.48c.59-1.43.02-3.36.11-4.5.06-.69.68-1.76,1.24-2.21.57.94.43,2.11.94,3.08.25.46,1.24,1.67,1.64,2.1,2.23,2.46,5.57,3.51,8.21,5.61.23.18.23.54.35.64ZM77.96,27.05c-.19,0-.19.29,0,.29s.19-.29,0-.29ZM99.11,30.51l-3.74,1.01,2.2,1.27c1.51,0,1.71-.91,1.54-2.27ZM97.38,36.26c-.22-.19-.81.1-.57.29s.81-.1.57-.29ZM98.1,41.73c-.19,0-.19.29,0,.29s.19-.29,0-.29ZM98.53,43.74s-.02-.39,0-.58c-.09-.12-.69.47-.57.57.18-.02.54.04.58,0Z"/>
    <path d="M74.07,25.9c-.04-.13.05-.41-.04-.66-.34-.96-1.11-1.33-2.11-1.37s-2.3.7-3.29.31c-.16.17-.08,1.21-.59,1.14.5-.75-.99-3.59-.86-3.74.45-.52.62.4.71.57.37.7.57,1.17.44,2.02,1.84-1.53,4.91-1.34,6.11.94.48.91,1.16,4.37,1.65,4.68l7.5.99-.45.85-8.18-1.13,1.73,2.01h-.58s0,.29,0,.29c.19.02.41-.03.58,0-.05.27-.35.51-.3.86-.7-.49-1.47.13-2.2.21-.79.09-1.93-.35-2.83-.22-.62.09-1.82,1.43-2.15,1.15l.52-.72-.66-.72c-.33.78-1.57,1.59-1.82,2.21-.41,1.01-.62,2.74-.63,3.83.64-.25.72-1.29.85-1.89.17-.78.31-.87.3.01-.28.85-.5,1.69-.58,2.59-.05.53.12.47-.57.44-.62-1.93-.04-3.57.29-5.47l-1.15.43c.51-.79,1.32-.99,2.01-1.45.85-.57,1.48-1.36,2.71-1.56l.9-.87-.43.86c.08.07,1.65-.46,2.01-.57-.42.44-.86.69-1.15,1.15.71.02,1.43-.04,2.15,0,.67.05,1.49.82,1.59-.58-.58.07-.62-.28-.86-.58.57-.14.11-.19,0-.29-.01-.01.05-.25-.15-.27-.06.08-.14.17-.14.27-.32-.02-.87-.06-1.15,0,.65-1.12-.43-.59-.66-.64-.55-.12-1.06-.45-1.63-.53.66-1.27-1.95-.71-2.89-1.13.1-.66,1.12-.66,1.38-.92.13-.13.1-.49.33-.67.17-.13,1.24-.46,1.45-.43-.18.66-1.29.56-1.15,1.44l1.41-.27.19.57,3.01.27-.29-.86.86.43c-.02-.36-.35-.71-.58-1.01.05.06.26-.02.29-.14.19-.34-.27-.38-.29-.43-.04-.15.05-.4-.05-.65-.06-.15-.22-.18-.23-.22-.09-.19.11-.3-.29-.58Z"/>
    <path d="M74.65,31.94s-.3.07-.29-.29c.1,0,.26-.03.29,0,.05.04-.05.24,0,.29Z"/>
    <path d="M72.92,31.94s.06-.24.29-.29c-.13.22-.21.21-.29.29Z"/>
    <path d="M76.66,32.52c1.36-.24.95,1.14,1.87,1.71.29-.27.63-.61,1.01-.73.62-.2,1.3-.35,2-.56.27-.08,1.16-.33,1.16.01-1.24.79-2.53,1.29-4.03,1.3-.34.31,1.1,1.78,1.73,1.44.09.44-.45.35-.73.29-1.15-.22-1.82-2.57-2.43-3.04-.21-.16-.39-.09-.58-.13.02-.09-.01-.19,0-.29Z"/>
    <path d="M72.92,25.61c-.65.04-.98.28-.87,1.01.04.24.34.07.5.21.14.13.13.39.23.5.31.34.78.14.72.59l-1.73-.86-.29,1.15-.29-.86c.2-.75.32-1.56.58-2.3l-1.26-.26c-.35.11-1.01,1.11-1.19,1.12-.44.04-.44-.48,0-.87,1.3-1.16,2.64-.62,3.6.58Z"/>
    <path d="M74.07,25.9c.11.31.28.54.29.58.04.14-.03.39.06.64.05.14.22.18.23.22.05.15-.05.51,0,.58-.54-.72-1.14-1.57-1.73-2.3.42-.03.81.05,1.15.29Z"/>
    <path d="M20.83,51.23c.06.44-.41.26-.72.57-.22.22.15.52.31.56.43.13,1.45.03,1.99,0,1.22-.05,2.5-.18,3.76-.27.81-.06,1.63.02,2.44,0l-3.61.85c-.59.11-1.17-.21-1.57.44.4.65.98.33,1.57.44,4.74.87,9.01-.11,13.82-.59.56-.06,1.2-.52,1.85-.23l.18.55c.62-.05,1.04-.37,1.71-.31.22.02,1.09.21,1.02.58-.48-.09-.76.46-1.06.55-.42.12-.74-.25-1.1-.25-.6,0-1.83.51-2.58.58-.63.05-.85.1-.73-.59l2.01-.29c-.99.06-2.05-.08-3.03-.01-4.4.32-7.43,1.12-12.07.58-.41-.05-1.92-.36-2.04-.56l-.29-.89-14.23.87c.46-1.13,1.49-.36,2.17-.3,1.5.13,2.44-.42,3.74-.56.95-.1,1.93.07,2.88,0,.78-.06,1.56-.51,2.44-.3-.59-.83.18-1.54,1.15-1.44Z"/>
    <path d="M58.39,56.7l-1.01.57c.98.04,1.91-.29,2.88-.14.52.08.68.14.57.71-.63.2-1.32-.25-1.82-.22-.23.01-.54.24-.91.24-1.01,0-3.61.45-3.61-.88h1.44c-.55.08-1.03-.33-1.57-.3s-1.16.5-1.75.58c-.69.09-1.45-.04-2.15,0,.27-.89,1.19-.46,1.86-.58.77-.15,1.51-.5,2.3-.58,1.34-.13,2.59.16,3.9.3.11-.78-.13-.56-.72-.58-.61-.02-1.51.32-1.3-.58,1.43-.26,2.83.4,4.18.3.71-.05,1.37-.39,2.06-.52.26-.05.52.24.96.1.98-.3,1.8-.91,2.67-1.39.34-.19.85-.15,1.02-.29.08-.06.02-.35.12-.43.42-.34.8-.39,1.22-.96.53-.71.57-1.65,1.16-2.29l-1.05,2.69c-.19.29-.86,1.07-1.11,1.19-.36.18-.79.1-1.16.28-.77.39-1.77,1.25-2.78,1.54-.71.21-2.14.11-2.98.33.06.73,1.32.07,1.59.09.19.01.36.37.61.44.45.14,1.28-.21,1.25.33h-5.9ZM59.97,55.83c-.22-.19-.81.1-.57.29s.81-.1.57-.29ZM57.09,56.7h-.86v.29h.86v-.29Z"/>
    <path d="M42.41,68.78c-.07-.07-.33-.03-.29-.29.28-.06.23.22.29.29Z"/>
    <path d="M40.11,65.9c-.52-.77-1.03-1.56-1.57-2.32-.15-.22-.11-.5-.15-.56.77.93,1.67,1.36,1.73,2.88Z"/>
    <path d="M42.7,69.36c-.02-.1.04-.22,0-.29.04.05.21.02.25.14,0,.11-.24.12-.25.14Z"/>
    <path d="M42.7,69.07s-.15-.13-.29-.29c.13.11.18.17.29.29Z"/>
    <path d="M30.9,62.16c-2.37.32-3.09-.99-3.17-3.17.92-.17.36.02.4.42.23,2.12,1.01,2.59,3.14,2.12,1.21-.26,3.45-2.22,4.7-2.49.95-.2,1.73.42,2.69.24.07.5-.66.28-1.01.29-.6,0-1.44-.11-1.97.04-.78.23-3.02,1.77-3.93,2.26-.54.07-.82.28-.86.29Z"/>
    <path d="M38.67,68.21l1.44-1.01c-1.77-.95-2.96-2.31-4.17-3.88l-1.15,1.15.14-.86c-.75-.12-1.34.46-1.99,0-.46,2-4.43,2.19-5.77,1.28-1.33-.91-1.61-2.67-1.45-4.16-.62-.03-1.25.06-1.87,0-.24-.02-1.08-.19-1.01-.57l2.86.27.74-1.42-.43,1.44,1.15.29c-1.36-.25-1.37.29-1.1,1.53.04.16.79,1.8.86,1.87.05.05,1.15.55,1.29.58,1.45.32,3.05-.07,4.41-.53.08-.43-.53-.35-.86-.41-.49-.09-1.05-.11-1.55-.16-.29-.79-.48-.62-1.32-.58-.08-.35.3-.37.57-.44.5-.13.96-.28,1.45-.43.39-.12.39-.04.86-.29.53-.07,1.83-.32,2.15-.3.81.05,1.59,1.14,2.56.85.77-.24,1.47-2.09,2.61-1.99,1.66.14,1.95,1.55,2.74,2.74l-1.57-1.88-1.42-.54-1.33,1.27c.1.25.51.14.73.42.17.21.09.53.13.58-.51-.7-1.52-.55-1.72.41.9,1.32,1.83,2.36,3.3,3.04.25.01.15-.38.14-.57.49.73.84,1.52,1.44,2.17l.87-.16c.05.05-.2.45-.29.57,0,.01-.24-.04-.29.14-.1.42.45.82.86.72-.05.17.14.59-.14.58-.24-.28-.63-.29-.87-.58-.16-.19-.04-.58-.28-.57l-1.44.86c-.24-.35.43-.64.63-.81.18-.15.52-.22.66-.49l-.72-1.01-1.73,1.44c-.27.01-.13-.38-.14-.58l-1.21,1.38-1.67.78,2.73-2.73c.27-.01.13.38.14.58ZM34.93,62.45l-1.57-.3-2.75.87c.94-.24,1.88.37,2.72.29.32-.03.75-.22,1.16-.3.48-.09.49.18.44-.57Z"/>
    <path d="M70.62,76.84c.02-.09-.02-.2,0-.29.1-.03.25.04.29,0-.12.17-.26.25-.29.29Z"/>
    <path d="M70.62,76.84c-.04.06.1.36-.05.52-.1.11-.47.13-.68.33-.32.31-.79.99-1,1.16.47-.03.65-.14.58.43-.15,1.16-.84,3.66-1.22,4.83-.42,1.29-1.29,3.19-1.89,4.44-1.4,2.88-3.06,5.25-5.81,6.99-.09-.46.25-.75.57-1.02.36-.3.88-.32.87-.71l-2.3,1.01c.87-.83,2.13-1.41,3.02-2.16,2.21-1.85,3.64-4.81,4.62-7.47.28-.75.74-1.88.94-2.51.34-1.05.41-2.7.63-3.83-.26.21-.75.36-1.07.51l-1.8.5c.53-.73,1.73-.65,2.3-1.15.24-.21,1.77-1.86,2.01-2.16l.29.29Z"/>
    <path d="M71.77,74.83l-.29.14.29.14c-.12.27-.14.32-.29.58.06-.06-.04-.29-.14-.29-.19.05-.11.21-.14.29-.1.03-.25-.04-.29,0,.27-.5.44-1.46.72-2.02.85-.78.09.74.15,1.15Z"/>
    <path d="M71.19,75.69c.1-.03.25.04.29,0-.05.08.02.35-.14.58-.15.2-.4.24-.44.28.06-.06-.04-.29-.14-.29-.18.06-.12.18-.14.29-.09.03-.2-.02-.29,0,.04-.04.55-.81.58-.86-.06.06.04.29.14.29.19-.05.11-.21.14-.29Z"/>
    <path d="M71.77,75.11v-.29s.2.07.21.15c.01.09-.2.1-.21.13Z"/>
    <path d="M91.63,38.56h-.86s0,.14,0,.14v.14s.86,0,.86,0c-.11.03-.57.69-1.01.57-2.11.25-4.22.52-6.31.88-.21.04-1.05.08-.59-.3l1.29-.29c-1.28.14-2.24-.46-3.54-.23-.72.13-1.44.71-2.07.8-.51.07-1.87.28-1.58-.57.77-.24,1.7-.16,2.44-.3.63-.12,1.5-.53,2.04-.57.7-.05,2.36.51,3.16.57,1.68.14,3.11-.23,4.74-.28l-.86-.57h2.3Z"/>
    <path d="M91.63,38.56h.86s0,.29,0,.29c-.26.05-.65-.07-.86,0v-.29Z"/>
    <path d="M65.73,16.69c.22-.06.49-.13.57.18.13.54.3,1.52.57,1.95.16.25.45.13.55.2.16.13-.02,1.17.06,1.53-.82.51-1.56,1.21-2.6,1.03.02-.39-.1-.83.13-1.16.31-.46,1.26-.3,1.31-.85-.51-.03-.88-.09-1.31.27-.37.31-.62,1.53-1.28,1.02.64-.99.82-2.14,2.3-1.87.08-.83-.35-1.45-.29-2.3-.6.17-.94,1.54-1.73,1.73.06-.31.22-1.22.35-1.39.06-.08.35-.03.43-.12,1.51-1.91-.41-2.63-.78-4.54.81.43,1.88,2.53,1.96,3.36.03.3-.21.61-.23.96Z"/>
    <path d="M16.52,97.85c.04.07.77-.46,1.05-.52.9-.19,5.04-.2,6-.05.51.08.64.53,1.42.6,1.72.15,3.32-.49,5.05-.3.08.35-.54.47-.78.52-1.2.24-3.35.55-4.5.3-.55-.12-1.23-.82-1.77-.81-.32,0-.69.28-1.14.3-1.83.07-3.73,0-5.49.07-.25.01-.93.87-1.42.78l1.44-1.44.15.57Z"/>
    <path d="M67.42,29.1l-.26,2.85c-1.25.08-.19-.63-.11-1,.05-.23-.11-.91.11-1.3l-1.15.86-.14-.86c-.55,1.03-1.58,1.54-2.73,1.73l.83-.6c.2-.93,1.47-2.29,2.26-2.41-.26-.48.17-.69.5-1.02l.72.43-.86.86.83.46Z"/>
    <path d="M72.06,34.82c.88.07,1.77,1.24,2.3,0l-.86-.58c.37.22,1.91.25,1.98.32.07.07.05.37.18.53,1.22,1.5,1.75,3.1,1.59,5.07-.1,1.18-1.09,1.49-.74.41.16-.49.49-.95.4-1.5-.14-.88-.59-1.46-1.4-1.79-.17-1.11.87-.51.58-1.15-.12-.27-.99-.74-1.3-.73-.51,0-.65.7-1.39.56-.11-.02-1.25-.56-1.29-.61-.14-.15-.01-.46-.05-.51-.03-.04-.77-.02-.96.04l-1.63,1.11c.59-1.1,1.43-1.43,2.57-1.71l.02.56Z"/>
    <path d="M61.41,16.12h.29c-.16-.18.59-1.46.58-.43-.77,1.01-1.17,1.87-2.16,2.74-.32.28-.47.69-1.01.58-.36-.36,1.22-1.56,1.45-1.86.22-.28.3-.63.56-.87l-.96-.09c-.31.07-1.06,1.16-1.06.1l1.29-1.01.43.57c.13-2.16-1.3-2.67-2.75-1.15l.16.86-.82-.72c1.87-2.7,3.82-1.72,3.99,1.3Z"/>
    <path d="M39.54,13.81c-.7,3.12-5.23.21-4.86-1.82.15-.79,1.24-1.93,1.63-2.71.11-.23.53-1.07.21-1.23-.3.41-.79.55-1.16.86-2.01,1.65-2.26,3.71-2.45,6.18-.02.29-.27.58-.27.87,0,.37.39.82.29,1.28,1.13.12,2.15-.04,3.15-.57-.02.19.03.55,0,.57-.1.08-2.29.87-2.45.87-2.38-1.18-1.07-4.31-.49-6.26.1-.33,0-.73.1-1.05.24-.77,1.92-2,2.48-2.56.27-.27.37-.88,1.08-1.08.29.32.17,1.11.08,1.52-.34,1.68-2.34,2.69-1.32,4.61.35.66,1.71,1.35,2.4,1.36s.84-1.02,1.58-.87Z"/>
    <path d="M61.41,5.47c.97.16,2.73,1.94,1.58,2.88l-.08-1.06-1.77-1.71.26-.96c-1.13-.58-1.89-.89-3.12-.27.18,1.95-1.94,1.97-2.58,2.6s-.17,1.47-.06,2.12c.06.36-.06.78.03,1.12.14.52.9.24.84.74l-1.13-.02c-.36-.38-.43-3.25-.27-3.83.26-.89,1.7-.87,2.13-1.33.31-.33.33-1.03.57-1.44.93-1.58,3.24-.85,4.15.43l-.56.72Z"/>
    <path d="M54.21,68.5l-2.5,1.67c-1.44.4-3.04.82-4.54.62-1.16-.15-2.56-1.14-3.89-1.14-.03-.6.58-.18.86-.14,1.41.2,3.15.83,4.45.71.89-.08,2.43-.42,3.24-.79s1.3-1.2,2.38-.92Z"/>
    <path d="M45.01,1.44l2.59-.29c-.43,1.06-1.96.51-2.72.57-1.35.11-2.08,1.45-3.33,1.75l.29.56-2.12.33-2.77,2.55c-.11-.53.29-.68.57-1.01.46-.52,1.2-1.3,1.74-1.71,1.28-.96,3.64-2.42,5.13-2.8-.03-.67.42-.41.76-.81l-.14.86Z"/>
    <path d="M60.02,46.86c.15.11.54.04.8.19.88.53.88,1.41,1.16,2.3l-.58.15c-.17-1.46-1.18-2.02-2.18-2.87l-.84.57c-.31,0,.27-.51.03-.87-.38-.56-2.41-.84-2.47-2.01l3.45,1.59c.41.12.5.85.63.95Z"/>
    <path d="M57.67,81.73l3.45.14c-1.13.89-3.29.37-4.54-.07-.37-.13-.85-.16-.93-.65l1.44.15,5.32-4.76c.22.29-.39.66-.58.86-.79.83-1.61,1.66-2.44,2.45-.63.6-1.5.8-1.73,1.86Z"/>
    <path d="M62.85,53.82c-.12.61-.61.47-1,.58-.63.17-1.78.52-2.33.58-.4.04-.88-.2-1.4-.16-1.7.13-2.7.24-4.34.16-.81-.04-1.63,0-2.44,0-.19-1.15,1.06-.36,1.59-.3.75.09,1.47-.17,2.15.3v-.87c.99.49,2.21.27,3.33.28.31,0,.61.18.85.17,1.09-.03,2.48-.61,3.6-.74Z"/>
    <path d="M20.4,83.75c-.15.02-.56.48-1.01.29-.42-.35,2.12-1.13,2.46-1.16.51-.03.9.34,1.4.3.34-.03.69-.28,1.16-.31.72-.04,1.45.05,2.17.01.27.48-.57.86-.72.86-1.7,0-3.84-.18-5.47,0Z"/>
    <path d="M72.92,46.05l.57-.86v3.74s-.57-2.3-.57-2.3c-.13,1.59-.9,3.68-1.77,5-.17.26-1.06,1.36-1.4,1.05,1.4-1.41,1.75-2.91,2.36-4.69.09-.28.4-.45.47-.68.31-1.02-.3-1.96-.24-2.98l.58,1.73Z"/>
    <path d="M49.9,97.56c.09.34-.56.48-.78.52-1.88.29-2.68-.69-4.32-1.04-.81-.17-2.12.33-2.1-.92.89.4,1.84.16,2.68.34.64.14,1.47.91,2.11,1.05.75.17,1.62-.01,2.4.05Z"/>
    <path d="M28.46,31.37c.11.03.52.5.43.57l-4.6-.29c-.14.87.21.46.7.59,1.55.41,3.16.65,4.77.57.07.5-.66.28-1.01.29-.38,0-.79.04-1.16.01-.45-.03-.79-.25-1.15-.29-1.03-.11-2.83.36-3.01-1.16.33.12.67-.29.72-.29,1.02,0,3.57-.2,4.32,0Z"/>
    <path d="M42.92,58.2c.14.13.85,1.21.99,1.46.62,1.11.48,2.35,1.38,3.22.04.21-.3.2-.43.14-.38-.16-.77-2.05-1.07-2.67-.12-.25-1.06-1.79-1.14-1.88-.07-.07-1.71-.91-1.81-.93l-3.31.15c.72-.96,1.22-.45,1.87-.44.41,0,.82-.37,1.44-.29.16.02,1.95,1.09,2.09,1.23Z"/>
    <path d="M60.26,35.69l-.86.86,3.17-.29c-.43.84-2.22,1.05-2.98.82-.38-.11-.6-.71-.94-.8-.43-.12-.87.31-1.38.27-.71-.04-1.67-.66-2.47-.58l.14-.57,2.59.75,2.74-.47Z"/>
    <path d="M52.2,67.06l-2.49,1.1c-1.07-.06-2.07.5-3.12.34-.5-.08-2.56-1.57-2.15-2.02.59.4,1.77,1.34,2.44,1.45.42.06,2.34-.21,2.87-.3.82-.15,1.55-.73,2.45-.57Z"/>
    <path d="M61.12,46.33c.47-.73.89-2.31,1.87-1.73.2-.26-.25-.47-.02-.86.24-.41.87-.56,1.19-.85.43-.4.42-1.06,1.28-1.16.28.28-1.35,1.96-1.58,2.31-.19.29-.12.8-.43,1.03-.19.14-.51-.25-.87-.04-.56.32-.58,1.45-1.44,1.31Z"/>
    <path d="M59.96,12.37c-.81.21-1.07-.2-1.63-.52-.28-.16-.5.11-.38-.62.08-.1.81.52,1.04.56.8.13,1.69-2.59.92-3.38-.26-.27-1.27-.37-1.09-1.21.49-.09.72.26,1.01.57,1.34,1.42.52,2.97.13,4.6Z"/>
    <path d="M51.33,19c.25.77.47,1.32-.13,2.01-1.39,1.57-3.19.5-3.31-1.44.88-.16.41.59.99,1.16.9.88,2.01.32,2.46-.73l-.86-.14c-.08-.92-.08-.96.85-.86Z"/>
    <path d="M63.16,6.02c-.09-.07,0-.6-.02-.84,2.69.94,4.16,3.67,1.58,5.75l.97-1.93c.06-1.11-.27-1.56-1.13-2.23-.41-.31-1.16-.57-1.4-.76Z"/>
    <path d="M59.11,19.57c-.1,0-.19,0-.29,0,.03-.11.07-.2.14-.29l.15.29Z"/>
    <path d="M59.11,19.57c.67.21.08.61-.14.86-.84.99-1.17,1.32-2.54,1.09-.44-.07-.96-.21-.77-.81.94.24,1.56.5,2.51.06.74-.34.46-.51.66-.93,0-.02.35,0,.29-.29Z"/>
    <path d="M58.82,19.57c-.02.1.04.26,0,.29-.09.07-1.1.31-1.3.31-.79,0-1.83-.69-2.75-.18-.41.28-.23,1.27-.4,1.9-.07.26-.42.88-.6,1.13-.07.1-.6.81-.71.44.08-.51.5-.78.72-1.29.42-.97.25-1.67.45-2.42.32-1.19,2.87.1,3.58.11.3,0,.62-.25,1-.28Z"/>
    <path d="M60.55,23.31c.47.39-.03.53-.43.57-1.43.14-2.26.27-3.16,1.46-.34.46-.38,1.23-1.01,1.43.01-.8,1.12-2.71,1.72-3.02.42-.22,2.64-.63,2.88-.43Z"/>
    <path d="M57.67,28.49c-.19-.96,1.17-.72,1.73-1.01.62-.32,1.04-1.69,2.01-1.87,0,2.06-2.05,2.63-3.74,2.88Z"/>
    <path d="M7.59,103.03l1.01,1.72.72-.14c-.44-.92-1.07-1.65-.86-2.73l1.15,2.45.97.41,1.04-.7c-.35.34-.52,1.12-1.04,1.27-.48.13-.79-.14-1.11-.14s-.68.28-1.13.16c-.5-.14-.67-1.74-.74-2.29Z"/>
    <path d="M57.67,3.45c-.74,1.78-2.44-.17-3.54.03-.77.14-1.13,1.13-1.93,1.12-.19-.17,1.62-1.61,1.92-1.7.57-.17,2.59,1.01,3.55.55Z"/>
    <path d="M36.66,57.84l-4.22,1.97-1.53.05c-.22-1.03.94-.39,1.53-.62l4.08-1.97.14.57Z"/>
    <path d="M51.91,13.81c-.36.36-1.31-1.17-1.58-1.45-.17-.18-.47-.2-.66-.36-.1-.09-.03-.37-.1-.45-.23-.29-2.33.44-2.56-.62,2.2-.14,4.19.67,4.89,2.88Z"/>
    <path d="M81.56,34.53l1.06-.81,4.69-.78c-1.65,1.04-3.85,1.27-5.75,1.58Z"/>
    <path d="M62.85,11.8c-.03.38.06.73.22,1.07.38.79,1.19.43.93,1.52-1.28.3-1.19-1.41-1.87-2.01v1.72c-1.12-1.12-.91-2.1.72-2.3Z"/>
    <path d="M41,8.08l.99-.31,1.57.13c-.47.78-1.01.18-1.45.28-1.33.31-.68,2.19-1.57,3.03-.67-.5-.25-.47-.09-.95.25-.73.58-1.39.54-2.19Z"/>
    <path d="M26.59,88.93c.07-.74.45-1.44.56-2.17.15-.92-.43-1.94.81-2.21l.92-1.67c-.28.97-.7,1.9-1.01,2.87-.33,1.04-.27,2.59-1.29,3.17ZM27.59,85.19c-.19,0-.19.29,0,.29s.19-.29,0-.29Z"/>
    <path d="M52.49,3.16c-1.51-1.5-3.17-1.53-4.99-.53-.58.32-1.33,1.08-1.9,1.26-.73.24-1.81.19-2.61.41.27-.95,1.41-.54,1.82-.64,1.97-.49,2.93-2.51,5.22-2.23.44.05,3.02,1.14,2.45,1.72Z"/>
    <path d="M52.42,26.12c-.34.34-1.86.91-2.33.87s-1.51-.4-1.34-1.09c1.92.8,3.42.23,4.46-1.44l-.79,1.66Z"/>
    <path d="M58.24,16.4c-.55.92-1.18.99-2.01.42-1.34-.93-.9-1.98.14-3.01l-.43,1.3c-.18,1.61,1.09,1.62,2.3,1.29Z"/>
    <path d="M66.59,78.28l-2.88,1.87-3.17.72c-.13-.87.19-.48.72-.56.72-.11,1.44-.33,2.17-.43l3.15-1.6Z"/>
    <path d="M97.1,26.48l-.73-1.72-1.14-4.04c1.17,1.56,1.6,3.84,1.87,5.75Z"/>
    <path d="M61.99,10.93c.38-.78,1.26-.85,1.58-1.73.16-.46.12-.82.22-1.22.08-.33.12-1.14.51-1.08.02,1.66-.28,3.78-2.3,4.03Z"/>
    <path d="M58.39,96.7c.25.45-.52.57-.79.65-.83.25-1.3.14-2.08.22-.64.06-1.28.73-1.88-.15l2.44-.15,2.31-.56Z"/>
    <path d="M90.83,15.76l-1.79-2.52c.51-.1.71.26.99.59.83.98,1.63,2.02,2.46,3.01l-1.66-1.07Z"/>
    <path d="M96.81,54.1l2.46-4.59c.16-1.01.29-2.29,1.28-2.89l-1.09,3.37c-.99,1.26-1.46,3.02-2.65,4.11Z"/>
    <path d="M42.7,28.49c-.97,1.64-2.59-.47-2.59-1.73,1.03.56,1.1,2.11,2.59,1.73Z"/>
    <path d="M53.35,10.65c-.54-.08-.46-1-.72-1.43-.47-.78-1.64-1.26-1.29-2.59l1.02,1.71c.78.71,1.2,1.17.99,2.32Z"/>
    <path d="M39.82,24.46c-.6,1.05-1.99,1.57-3.17,1.44-.14-.88.23-.45.7-.59.91-.26,1.57-.77,2.47-.85Z"/>
    <path d="M11.05,26.19c-.52.65-1.49,1.26-2.21,1.68-.51.29-.53.47-.96-.09.27-.24.61-.14,1.02-.42.68-.45.9-1.51,2.14-1.16Z"/>
    <path d="M48.46,40.58l3.45,1.01-1.23-.09c-.75.5-2.19.16-2.23-.91Z"/>
    <path d="M45,9.21c.04.49-.7.24-1.16.42-.72.28-1.32.8-1.99,1.18l-1.74,1.86,1.5-2.24c1.15-.57,1.99-1.88,3.39-1.22Z"/>
    <path d="M12.15,90.42c.12.09.08.66.5.79.46.14,1.51-.28,1.56.31-1.92.81-2.05-.02-3.16-1.29l1.1.19Z"/>
    <path d="M53.06,52.67c.03.47.13.65-.44.58s-1.56-.52-2.16-.73c-.23-.08-1.07-.28-.58-.71.2-.18,2.5,1.21,3.17.86Z"/>
    <path d="M9.32,52.67l-1.3.57h-2.44s1.15-.28,1.15-.28l-.15-.57c.75.56,1.85.19,2.74.29Z"/>
    <path d="M17.81,84.9l-.86,1.15-3.89,3.31c1.17-1.89,3.03-3.12,4.75-4.46Z"/>
    <path d="M7.02,100.44l-.86.29c.15-1.18-.86-2.01-.29-3.17l.42,1.45.73,1.42Z"/>
    <path d="M91.92,10.65s.11.61-.14.57l-2.45-1.29c.93-1.11,1.37.12,2.03.57.22.15.52.12.56.15Z"/>
    <path d="M65.15,25.61c.81.29.44.59.15,1.16-.16.31-.38.99-.87.86-.6-.51-.42-.4,0-.86.31-.35.77-.58.72-1.15Z"/>
    <path d="M48.17,17.84c-1.37.35-1.03-.46-1.42-.73-.51-.35-1.12.29-.88-.99l2.3,1.73Z"/>
    <path d="M55.94,11.8c-.11,1.54-2.36.95-2.3-.29.8.45,1.41.88,2.3.29Z"/>
    <path d="M39.54,55.83l-1.01.57-2.44.15c.93-.76,2.33-.75,3.45-.72Z"/>
    <path d="M68.03,41.73c-.34.09-.49-.57-.52-.77-.05-.37-.12-.72-.06-1.09.67-1.17.5-2.72,1.58-3.6l-1,3.03v2.44Z"/>
    <path d="M101.99,43.17c-.43.08-.35-.53-.41-.86-.24-1.27-.39-2.73-.45-4.03l.57,1.59.3,3.3Z"/>
    <path d="M51.05,6.04c.16.85-.24.45-.65.63-.52.24-.9.49-1.36.8,0-.67-.24-.64.37-.92.55-.25.99-.63,1.64-.52Z"/>
    <path d="M52.78,85.76c-.35,1.04-1.25,1.41-1.88,2.01s-1.24,1.39-1.87,1.87c-1.83,1.38-4.34,1.97-6.03,3.46-.21.79.61,0,.57.28-.03.19-.45.49-.26,1.12.14.45.99.66.84,1.33l-1.13-.02-.31-1.71c-.91-.19-.52.56-.57,1.15-1.14.14-2.2-.26-3.25-.64-.31-.11-.48-.46-.92-.52-.66-.1-1.03.19-1.5.23-.27.02-.53-.2-.77-.17-.43.05-.99.71-1.63.52l.57.57-2.45.86.29-.86-7.91,2.02c-.16-.68.3-.65.79-.79,1.65-.47,3.38-.59,5.04-1.01,2.42-.61,4.68-1.71,7.03-2.46.99-.32,2.17-.29,3.26-.77,1.21-.53,2.22-1.7,3.3-2.45l-.33.82c-.92.49-1.81,1.74-2.69,2.21-.49.26-1.13.14-1.73.57-.42.3-.09.67.15.72.4.09,2.67-1.59,3.21-1.97.65-.46,1.57-.94,2.13-1.62.36-.44.21-1.14,1.14-.58l-1.15,1.58c1.88-.45,3.28-1.77,4.89-2.74.59-1.18,1.8-1.56,2.6-2.58-.19-.41-.7.06-.95.2-.71.4-1.36.98-2.07,1.38v-.29c1.2-.61,2.07-2.3,3.6-1.72ZM40.11,94.11c-.08.07.15.36.28.44.25.14,1.16.42,1.15.28l-.29-1.01-1.15.29ZM33.64,94.97c-.19,0-.19.29,0,.29s.19-.29,0-.29Z"/>
    <path d="M36.08,71.95h-.29c.07-.06.15-.59.29,0Z"/>
    <path d="M35.8,72.24c.33.05.27-.28.29-.29.81-.63,1.62-1.15,2.51-1.67.49-.29,1.13-.7.23.23-1.21.7-2.24,1.55-3.17,2.58-.2-.23.18-.49.14-.86Z"/>
    <path d="M35.8,72.24c-.02-.17-.4.08,0-.29v.29Z"/>
    <polygon points="33.78 55.83 32.48 56.4 31.19 55.98 33.78 55.83"/>
    <path d="M51.02,17.81l-1.41-.11c.68-.48,1.4-.71,2.01-1.3l-.61,1.41Z"/>
    <path d="M39.54,2.88c-.06.05-.42-.02-.56.15l-3.18,2.3,3.6-3.02c.25-.03.17.56.14.57Z"/>
    <path d="M53.35.58l-1.82.24-1.06-.81c.98.16,1.83.78,2.88.58Z"/>
    <path d="M41.26,4.32c-.43.76-.96,1.63-.29,2.45l-.57.14c0-.61-.04-1.21.06-1.82.07-.44.21-.96.81-.77Z"/>
    <polygon points="46.16 11.22 44.86 12.38 43.85 12.95 45.02 11.67 46.16 11.22"/>
    <path d="M11.91,102.74c.11-.67.51-1.69,1.15-2.01-.11.67-.51,1.69-1.15,2.01Z"/>
    <path d="M54.5,44.32c-.39.1-2.11-1.05-1.73-1.44.59.43,1.4.72,1.73,1.44Z"/>
    <path d="M36.95,19.28c-.07.07-1.71-.8-1.44-1.44.24.13,1.84,1.04,1.44,1.44Z"/>
    <path d="M53.06,35.69s.11.61-.14.57l-1.58-1.15c.29.06,1.64.5,1.73.58Z"/>
    <path d="M64,34.82c-.04-.48.67-.38.98-.55.33-.18-.05-.7.46-.6l-1.44,1.15Z"/>
    <path d="M91.34,56.7c-.82-.22-.36-.9-.12-1.42.1-.22.41-.92.7-.88l-.58,2.3Z"/>
    <path d="M48.75,87.2c-.27.25-.51,1.02-.61,1.12-.04.04-.3-.2-.53-.11-.42.17-.83.84-1.45.71.17-.79,1.05-.73,1.45-1s.04-1.02,1.14-.72Z"/>
    <path d="M46.16,53.24c.07.47-.39.28-.72.29-.53.02-1.06-.01-1.58,0-.07-.47.39-.28.72-.29.53-.02,1.06.01,1.58,0Z"/>
    <path d="M21.98,31.08v.29c-.62.12-1.14-.18-1.73-.29v-.29s1.73.29,1.73.29Z"/>
    <path d="M31.19,20.43h-.29c-.12-.62.18-1.14.29-1.73h.29s-.29,1.73-.29,1.73Z"/>
    <path d="M32.2,74.54l-.47,1.26-1.83,2.19c-.15-.27.27-.78.43-1.01.57-.83,1.32-1.59,1.88-2.44Z"/>
    <path d="M4.71,29.93l1-1.16,1.01-.43c-.56.66-1.28,1.14-2.01,1.58Z"/>
    <path d="M55.36,80.58l-.3-.99c.65-.21.62-.57,1.02-1.02l-.72,2.01Z"/>
    <rect x="56.81" y="35.4" width="1.73" height=".29"/>
    <rect x="19.1" y="25.9" width="1.73" height=".29"/>
    <rect x="6.15" y="92.38" width=".29" height="1.73"/>
    <path d="M55.65,34.54v.29c-.7.14-1.02-.23-1.44-.72,0-.29,1.03.52,1.44.43Z"/>
    <path d="M75.22,43.17v.86c-.18.2-1.23-1.09,0-.86Z"/>
    <path d="M50.47,55.83c-1.23.22-.18-1.06,0-.86v.86Z"/>
    <path d="M68.32,50.65c.2.16-1.08,1.24-.86,0h.86Z"/>
    <path d="M42.7,62.16l-1.72-1.3c.24-.1.87.24,1.07.37.38.25.78.33.66.92Z"/>
    <polygon points="58.82 35.11 59.61 34.6 60.83 34.39 58.82 35.11"/>
    <path d="M50.76,96.7v-.29c.6-.04,1.07-.1,1.44.43,0,.19-1-.33-1.44-.15Z"/>
    <rect x="14.5" y="29.36" width="1.15" height=".29"/>
    <path d="M55.51,82.02c.14.26-.26.81-.42,1.02-.53.7-1.28,1.48-1.88,2.15l.59-1.14,1.71-2.03Z"/>
    <polygon points="7.02 91.23 6.73 92.09 6.44 92.09 6.44 91.23 7.02 91.23"/>
    <path d="M2.12,31.94c-.19-.36.46-1.01.57-.86.19.36-.46,1.01-.57.86Z"/>
    <path d="M8.46,100.15h-.86c.22-.66.61-.71.86,0Z"/>
    <path d="M29.18,82.6c-.63,0-.14-.51-.05-.77.79-2.11,1.95-4.1,3.36-5.85l-2.5,4.4-.81,2.21Z"/>
    <path d="M15.94,29.64v-.29c.41.17,1.15-.39,1.15-.15-.31.44-.62.5-1.15.43Z"/>
    <path d="M30.9,21.87c.48-.07.23.48.43.87.14.27.82.52.58.86-.5-.52-1.18-.87-1.01-1.72Z"/>
    <rect x="63.42" y="35.97" width=".86" height=".29"/>
    <rect x="68.03" y="25.9" width=".29" height=".86"/>
    <path d="M74.94,71.95h-.29c-.07-.53-.01-.84.43-1.15.24,0-.31.74-.15,1.15Z"/>
    <rect x="33.49" y="75.69" width=".29" height=".86"/>
    <path d="M44.14,67.06c.23.19-.35.47-.57.29s.35-.47.57-.29Z"/>
    <polygon points="45.01 89.5 45.01 89.22 45.73 88.93 45.87 89.07 45.01 89.5"/>
    <path d="M63.42,33.67c-.19.23-.47-.35-.29-.57s.47.35.29.57Z"/>
    <path d="M50.62,85.48l.14.14c-.25.39-.72.37-1.01.72l-.14-.14,1.01-.72Z"/>
    <path d="M52.63,84.04c.21.24-.4.74-.57.87-.2.16-.76.56-1.02.42l1.58-1.29Z"/>
    <path d="M32.63,26.48v.29c-.55.11-.77-.37-1.15-.72l.14-.14,1.01.57Z"/>
    <path d="M33.49,77.7c-.19.23-.47-.35-.29-.57s.47.35.29.57Z"/>
    <polygon points="63.71 75.69 63.71 75.98 62.99 76.26 62.85 76.12 63.71 75.69"/>
    <polygon points="4.71 30.51 4.71 30.79 3.99 31.08 3.85 30.94 4.71 30.51"/>
    <path d="M79.25,41.15c.23.19-.35.47-.57.29s.35-.47.57-.29Z"/>
    <path d="M58.53,34.82c.23.19-.35.47-.57.29s.35-.47.57-.29Z"/>
    <path d="M30.9,21.58c-.19.23-.47-.35-.29-.57s.47.35.29.57Z"/>
    <path d="M34.07,75.4l-.14-1.15-1.29,1.3,2.16-2.73c.21.42-.62.67-.68,1.04-.05.28.36,1-.04,1.55Z"/>
    <polygon points="72.78 73.39 72.92 73.53 72.2 74.54 72.06 74.4 72.78 73.39"/>
    <path d="M73.78,71.08c-.19.23-.47-.35-.29-.57s.47.35.29.57Z"/>
    <path d="M32.34,11.22h-.29c-.06-.42.3-.72.29-1.15h.29s-.29,1.15-.29,1.15Z"/>
    <path d="M31.77,12.37c-.19.23-.47-.35-.29-.57s.47.35.29.57Z"/>
    <path d="M64.86,52.95c.23.19-.35.47-.57.29s.35-.47.57-.29Z"/>
    <path d="M92.49,37.99c.23.19-.35.47-.57.29s.35-.47.57-.29Z"/>
    <polygon points="63.14 53.82 63.14 53.53 63.86 53.24 64 53.38 63.14 53.82"/>
    <path d="M50.19,56.98c.23.19-.35.47-.57.29s.35-.47.57-.29Z"/>
    <path d="M31.62,18.13c.19,0,.19.29,0,.29s-.19-.29,0-.29Z"/>
    <path d="M37.95,18.13c.19,0,.19.29,0,.29s-.19-.29,0-.29Z"/>
    <path d="M21.26,26.19c.19,0,.19.29,0,.29s-.19-.29,0-.29Z"/>
    <path d="M39.68,13.24c.19,0,.19.29,0,.29s-.19-.29,0-.29Z"/>
    <path d="M5.15,52.67c.19,0,.19.29,0,.29s-.19-.29,0-.29Z"/>
    <path d="M31.05,13.24c.19,0,.19.29,0,.29s-.19-.29,0-.29Z"/>
    <path d="M31.33,12.66c.19,0,.19.29,0,.29s-.19-.29,0-.29Z"/>
    <path d="M7.16,27.92c.19,0,.19.29,0,.29s-.19-.29,0-.29Z"/>
    <path d="M53.21,66.77c.19,0,.19.29,0,.29s-.19-.29,0-.29Z"/>
    <path d="M41.98,67.06c.19,0,.19.29,0,.29s-.19-.29,0-.29Z"/>
    <path d="M79.68,40.87c.19,0,.19.29,0,.29s-.19-.29,0-.29Z"/>
    <path d="M68.75,35.4c.19,0,.19.29,0,.29s-.19-.29,0-.29Z"/>
    <path d="M77.96,41.15c.19,0,.19.29,0,.29s-.19-.29,0-.29Z"/>
    <path d="M3.42,30.79c.19,0,.19.29,0,.29s-.19-.29,0-.29Z"/>
    <path d="M33.06,78.57c.19,0,.19.29,0,.29s-.19-.29,0-.29Z"/>
    <path d="M17.52,25.9c.19,0,.19.29,0,.29s-.19-.29,0-.29Z"/>
    <path d="M62.7,81.45c.19,0,.19.29,0,.29s-.19-.29,0-.29Z"/>
    <path d="M54.36,81.73c.19,0,.19.29,0,.29s-.19-.29,0-.29Z"/>
    <path d="M61.84,81.73c.19,0,.19.29,0,.29s-.19-.29,0-.29Z"/>
    <path d="M18.38,25.9c.19,0,.19.29,0,.29s-.19-.29,0-.29Z"/>
    <path d="M53.78,82.6c.19,0,.19.29,0,.29s-.19-.29,0-.29Z"/>
    <path d="M53.21,83.46c.19,0,.19.29,0,.29s-.19-.29,0-.29Z"/>
    <path d="M28.74,84.32c.19,0,.19.29,0,.29s-.19-.29,0-.29Z"/>
    <path d="M62.7,33.38c.19,0,.19.29,0,.29s-.19-.29,0-.29Z"/>
    <path d="M66.73,32.81c.19,0,.19.29,0,.29s-.19-.29,0-.29Z"/>
    <path d="M44.57,89.5c.19,0,.19.29,0,.29s-.19-.29,0-.29Z"/>
    <path d="M9.75,90.08c.19,0,.19.29,0,.29s-.19-.29,0-.29Z"/>
    <path d="M72.78,43.74c.19,0,.19.29,0,.29s-.19-.29,0-.29Z"/>
    <path d="M57.24,95.55c.19,0,.19.29,0,.29s-.19-.29,0-.29Z"/>
    <path d="M6.58,101.02c.19,0,.19.29,0,.29s-.19-.29,0-.29Z"/>
    <path d="M33.49,41.73c.09.34-.57.49-.78.52-1.32.19-2.47.05-3.67.04-1.3,0-2.6.03-3.9.01-.07-.5.66-.28,1.01-.29,1.34-.03,2.7.06,4.04.01.54-.02,1.17-.1,1.71-.14.5-.04,1.03-.28,1.59-.16Z"/>
    <path d="M14.21,47.49l-.74.88-3.57.27,1.59-.57c.54-.08,1.16.1,1.68-.05.36-.1.51-.68,1.05-.53Z"/>
    <path d="M34.36,40.58l-1,.58-5.05-.87c.62.18,1.39-.19,1.87-.18.41,0,.95.4,1.44.46.86.11,1.84-.06,2.73,0Z"/>
    <path d="M34.64,42.88c-.36,1.07-2.19.46-2.59-.29l2.59.29Z"/>
    <path d="M34.64,39.43l-1.88.57h-2.15c-.06-.5.65-.26,1.01-.28,1.04-.05,1.99-.26,3.02-.29Z"/>
    <path d="M15.07,47.2s-.39-.02-.57,0l.29-1.44h.29c.18.25.19,1.25,0,1.44Z"/>
    <rect x="24" y="42.59" width="1.73" height=".29"/>
    <path d="M36.08,41.15s-.02.39,0,.57h-1.15s0-.29,0-.29c.3.06.98-.46,1.15-.29Z"/>
    <path d="M25.72,40.87h-.86c-.22-1.24,1.06-.16.86,0Z"/>
    <path d="M21.98,44.03v.29c-.53.07-.84.01-1.15-.43,0-.24.74.31,1.15.15Z"/>
    <rect x="22.27" y="42.31" width=".86" height=".29"/>
    <path d="M22.84,44.32c.23.19-.35.47-.57.29s.35-.47.57-.29Z"/>
    <path d="M20.25,50.08c.23.19-.35.47-.57.29s.35-.47.57-.29Z"/>
    <path d="M16.95,48.06c.19,0,.19.29,0,.29s-.19-.29,0-.29Z"/>
    <rect x="34.26" y="41.71" width=".2" height=".61" transform="translate(-19.65 36.6) rotate(-45)"/>
    <rect x="14.11" y="44.88" width=".2" height=".61" transform="translate(-27.79 23.28) rotate(-45)"/>
    <path d="M10.76,38.85c.22,1.29-1.23.14-.86-.29l.86.29Z"/>
    <rect x="15.07" y="39.14" width="1.15" height=".29"/>
  </g>
  <rect class="cls-1" x="-1003.03" y="-2903.09" width="4785.31" height="3293.18"/>
</svg>